<svg viewBox="0 0 500 500" xmlns="http://www.w3.org/2000/svg"><g clip-path="url(#a)"><path d="M251.369 398.721c85.255 0 169.209-28.898 213.946-73.634 22.704-22.75 34.73-48.955 34.73-75.922 0-26.968-11.846-52.679-34.282-75.115C421.386 129.673 337.207 101 251.369 101c-60.128 0-121.512 14.134-168.357 38.814C29.48 167.993 0 206.851 0 249.165c0 26.563 11.89 52.499 34.416 74.98 22.526 22.48 55.147 41.416 94.499 54.697a385.896 385.896 0 0 0 122.454 19.879z" fill="#fff"/><path d="M86.736 146.859C35.942 173.781 7.987 209.948 7.987 249.165c0 24.41 11.083 48.371 32.083 69.371 21 21 53.217 39.846 91.403 52.768a378.804 378.804 0 0 0 119.896 19.43c83.236 0 164.991-28 208.292-71.301 21.224-21.179 32.397-45.454 32.397-70.268s-11.038-48.595-31.903-69.461c-42.987-42.986-124.922-70.762-208.786-70.762-58.871 0-118.864 13.821-164.633 37.917z"/><path d="M251.234 376.644c73.454 0 143.094-24.006 181.684-62.595 19.474-19.474 29.749-41.685 29.749-64.301 0-22.615-10.275-44.871-29.749-64.255-38.59-38.589-108.23-62.551-181.684-62.551-53.846 0-107.691 13.462-147.357 36.526-41.371 24.185-64.121 56.268-64.121 90.28 0 22.436 10.275 44.872 29.75 64.301 38.589 38.634 108.229 62.595 181.728 62.595z" fill="#AF925D"/><path d="M251.593 372.112c107.691 0 195.01-55.775 195.01-123.037 0-67.261-87.319-121.69-195.01-121.69-107.691 0-195.01 54.473-195.01 121.69 0 67.218 87.319 123.037 195.01 123.037z" fill="#A00"/><path d="M404.11 233.819h-.538v-4.487h-77.268a41.693 41.693 0 0 0-13.821-23.109 51.865 51.865 0 0 0-28.897-16.467l-4.801-.987c-11.173-2.379-20.013-4.218-55.506-4.039 0 0-6.82-.224-13.461-1.122a26.914 26.914 0 0 1-4.487-1.48c.493-2.962 5.923-7 11.98-7.808a116.667 116.667 0 0 1 78.57 18.442l.987.628h25.98v-39.755h-4.487v-4.488h-35.672l-6.013 4.488c-10.231-2.558-60.531-13.462-103.922 5.429-18.262 7.538-29.57 21.762-28.762 36.211a25.491 25.491 0 0 0 9.916 18.577 39.759 39.759 0 0 0 20.506 12.474 151.027 151.027 0 0 0 34.282 5.833v17.949h4.487v4.487h13.462c5.608 0 7.044 3.096 7.403 4.487-17.32-1.122-43.615-6.058-62.819-23.961l-.718-.808a70.079 70.079 0 0 1-3.141-3.186l-1.167-1.256h-19.474v56.582h4.487v4.487H167.1c2.334 0 9.738-.628 14.808-15.525a186.567 186.567 0 0 0 53.845 9.692v35.179c-.852 11.846-26.922 15.526-35.897 15.885h-3.724v17.499h4.487v4.487h114.332V341.42l-2.916-.762-1.526-.404v-3.859l-3.59-.269a63.526 63.526 0 0 1-15.211-3.052c-7.18-4.038-8.436-7.314-8.571-7.852v-18.756h33.519c3.291.574 6.38 1.98 8.974 4.083a45.157 45.157 0 0 1 7.045 12.878l.853 2.737h2.961c.404 1.032.629 1.661.629 1.705l.852 2.737h17.949v-67.934h-4.488v-4.488h-17.948l-.673 3.097c-4.487 22.435-30.827 22.435-54.115 18.89a125.794 125.794 0 0 0 13.731-4.487 62.54 62.54 0 0 0 27.64-19.609h50.211c3.177.05 6.28.965 8.975 2.648a35.901 35.901 0 0 1 4.711 19.25l-.224 4.083h4.711v.314l-.224 4.128h20.012v-52.679h-4.128z"/><path d="M324.015 247.729h41.641c23.736.762 22.031 30.422 22.031 30.422h11.981V233.28h-71.794a29.028 29.028 0 0 1-3.859 14.449zm-84.717 38.365v34.461c-1.211 17.949-39.711 19.564-39.711 19.564v9.827h106.525v-9.827c-31.679-2.737-31.814-18.846-31.814-18.846v-23.019h37.826c17.321 2.468 23.962 24.141 23.962 24.141h11.217v-60.262h-10.814c-7.538 36.301-63.178 19.967-67.306 20.865a128.343 128.343 0 0 1-29.885 3.096zm33.16-59.32c14.449 4.218 15.795 15.256 7.359 25.621a46.306 46.306 0 0 1-27.416 10.635s-55.686 6.012-88.217-29.167h-13.776v48.775h12.16s7.404 1.167 12.161-16.737c0 0 57.21 23.289 111.639 1.706 52.679-20.955 32.622-66.814-3.634-73.993-13.955-2.737-19.475-5.16-59.5-4.936 0 0-7.224-.224-14.269-1.167-22.076-5.519-9.512-19.788 3.41-21.448a118.956 118.956 0 0 1 81.217 19.025h20.91V153.14H284.08l-6.462 4.936s-56.403-15.75-103.204 4.756c-31.409 13.013-37.646 45.544-3.275 55.461 30.288 8.75 49.358 5.071 80.274 6.237a95.703 95.703 0 0 1 21.045 2.244z" fill="#fff"/><path d="M227.093 246.563h-14.448v-12.968h50.21c16.154 0 18.442 9.423 11.577 15.794-6.865 6.372-19.968 10.231-35.897 7.314a11.532 11.532 0 0 0-11.442-10.14z" fill="#fff"/></g><defs><clipPath id="a"><path fill="#fff" transform="translate(0 101)" d="M0 0h500v297.721H0z"/></clipPath></defs></svg>