<svg viewBox="0 0 500 500" xmlns="http://www.w3.org/2000/svg" xmlns:xlink="http://www.w3.org/1999/xlink"><mask id="a" height="335" maskUnits="userSpaceOnUse" width="500" x="0" y="83"><path clip-rule="evenodd" d="m500 250.193v167.192h-500v-334.385h500z" fill="#fff" fill-rule="evenodd"/></mask><g clip-rule="evenodd" fill-rule="evenodd"><g mask="url(#a)"><path d="m153.027 106.149c-57.14 23.672-83.125 59.583-94.832 85.526-7.528 16.859-14.918 29.507-23.257 39.832-8.55 8.911-24.179 18.741-33.315 22.206l-1.708.647-.31 6.232 2.36.468c11.833 2.357 26.573 11.262 31.352 17.362 6.143 6.185 10.422 10.463 21.2 29.6.151.231 5.517 8.74 5.517 8.74 3.494 5.888 7.106 11.981 16.783 22.708 7.442 10.47 43.085 43.404 81.872 57.57 27.251 13.526 63.039 20.213 109.13 20.338 67.693.39 118.932-14.437 166.131-48.044 19.571-15.182 25.899-21.295 42.399-40.921 11.055-13.084 23.072-36.155 23.586-61.642l.066-2.852-95.768-.106-.527 2.126c-7.785 31.296-39.269 50.816-57.344 59.669-47.165 20.081-106.565 20.325-151.186.554-41.714-20.932-63.89-49.245-62.327-79.67 1.588-31.013 27.956-60.66 67.165-75.512 75.841-27.831 148.741-3.902 176.276 21.988l.804.753 111.589-.106-1.51-3.815c-22.953-58.256-105.959-91.098-142.564-97.87-81.945-18.788-152.716-4.978-191.582 14.219z" fill="#0b162a"/><path d="m52.004 223.07c5.827-9.222 8.14-14.424 11.325-21.632l3.414-7.565c10.277-21.897 27.568-41.965 49.987-58.025 21.912-14.701 46.183-26.478 66.526-32.281 88.405-25.718 178.794-3.643 217.989 17.467 15.492 7.117 57.41 32.036 74.364 64.402h-94.429c-65.755-51.226-154.457-38.201-198.201-16.82-17.673 9.83-27.943 17.758-40.804 31.488-19.967 24.201-30.705 65.425 4.397 102.373 15.867 15.453 31.733 25.923 51.509 34.042 45.735 18.979 109.915 16.867 156.058-5.149 29.48-15.4 49.051-35.831 56.968-59.167h79.657c-2.821 20.26-8.714 41.212-38.919 70.495l-3.362 3.017c-14.627 13.222-34.673 31.343-73.829 45.654-66.79 25.95-166.678 22.953-222.723-6.654-.033-.013-3.52-1.775-3.52-1.775-12.591-6.311-29.842-14.946-51.576-35.185-15.168-13.942-25.734-27.719-39.024-50.837-14.489-26.55-32.63-36.234-42.386-40.346 8.503-4.291 25.122-14.503 36.579-33.502z" fill="#fff"/></g><path d="m55.458 237.758c9.466-10.489 16.941-37.442 31.905-57.913 21.246-29.989 49.367-45.694 70.29-55.714 47.851-23.468 116.651-30.155 183.955-13.982 24.424 5.796 48.853 14.483 66.296 25.864 17.455 10.384 37.89 25.362 49.36 39.937h-71.892c-21.331-17.07-44.766-25.362-65.702-29.857-23.428-5.987-60.323-9.182-104.192 1.307-25.926 6.482-43.87 15.467-61.319 27.95-34.39 24.464-72.28 88.76-4.983 144.68 21.938 18.562 40.376 24.563 60.817 31.653 37.891 10.978 85.254 8.885 112.67 1.393 41.378-10.985 56.829-25.462 70.29-36.941 12.465-11.981 22.934-26.465 25.827-33.95l59.025-.099c-4.094 22.068-20.046 40.036-35.498 55.015-17.699 16.707-30.91 25.461-57.034 38.544-61.114 29.35-150.85 28.353-206.183 8.285-28.418-10.391-36.394-15.077-57.831-29.957-17.449-14.074-28.919-23.362-45.366-48.823-7.475-12.483-10.969-19.467-19.44-30.946-5.985-6.496-9.973-12.49-20.441-17.48 9.598-6.734 14.825-11.731 19.446-18.966z" fill="#e64100"/></g></svg>