<svg viewBox="0 0 500 500" xmlns="http://www.w3.org/2000/svg"><g clip-path="url(#a)"><path d="M52.75 319.878C87.482 297.695 98.417 272.7 98.417 272.7L.052 286.812l41.658-74.36 84.045-7.082a321.749 321.749 0 0 1 83.316-50.145s5.208-9.165 34.16-26.037a334.273 334.273 0 0 1 56.759-25.619 193.416 193.416 0 0 1 26.505-7.395l-1.771-6.509 38.586-3.28.989-3.698a119.753 119.753 0 0 1 31.712 6.458l2.292-3.02a126.597 126.597 0 0 1 46.865 42.855 85.192 85.192 0 0 1 36.867 7.238 29.834 29.834 0 0 1 17.653 28.744 217.986 217.986 0 0 1-8.332 54.468 64.127 64.127 0 0 1-2.395 6.769 53.648 53.648 0 0 1-5.207 7.811 74.55 74.55 0 0 0-12.654 17.705s-1.927 5.52-5.728 15.622c0 0-2.968 13.747-22.964 14.528a384.354 384.354 0 0 1-27.598 31.712l-.729-5.988a214.816 214.816 0 0 1-25.36 20.048l3.958-34.889s.989-6.249-2.968-6.717h-10.154s3.332 20.829-.73 30.722c0 0-2.551 15.206-26.036 22.496a198.616 198.616 0 0 1-39.21 7.446l-4.479-.729-32.909 13.487 9.633-34.524s-12.341 1.249-13.435-.261l-36.45 15.622 14.424-41.241 9.893-5.207-3.176-4.323h-20.256l-7.446 5.781a118.528 118.528 0 0 0-33.952-3.281l-85.19 69.152-21.35 47.178-25.516-34.056 8.02-10.414-3.073-2.291-11.56 9.113-17.08 46.084-25.203-35.566 6.51-14.476-1.459-8.8a81.34 81.34 0 0 0 16.143-12.55 40.538 40.538 0 0 0 6.04-7.967c2.24-5.467 2.343-11.404 4.843-13.278 2.5-1.875 5.572-3.697 6.197-4.27z" fill="#fff"/><path d="M46.605 220.003 14.06 277.282l420.277-62.486s-14.633-11.092 6.561-28.692L46.605 220.003z" fill="#D50A0A"/><path d="M473.235 178.084s-32.806 22.444-21.454 41.658c0 0-11.925 6.614 1.25 15.883 0 0-20.309 9.164-14.945-15.935l-330.452 50.042s-7.03 29.942-53.895 58.269a8.015 8.015 0 0 0-3.75 5.78 16.978 16.978 0 0 1-3.957 10.415 55.564 55.564 0 0 1-17.496 17.027l.885 6.145-5.728 13.174L37.7 400.694l12.706-34.316 25.151-19.318s24.63-38.482 65.091-53.583c0 0 35.669-15.205 87.846-6.613l4.739-4.53 60.352-1.354s2.291.52.781 1.77a56.192 56.192 0 0 1-24.943 10.415l1.198 3.697s.364 1.301-.573 1.614l-12.654 5.207-8.383 23.225 23.745-10.415 1.301.989a218.138 218.138 0 0 0 51.708-5.207s21.558-4.218 27.547-32.129l41.033-1.822s8.54 1.822 7.446 9.79l-2.916 23.224 18.746-16.715 1.302 4.374a124.387 124.387 0 0 0 17.861-24.162s15.622.312 19.475-5.988a60.623 60.623 0 0 0 6.717-15.622 44.688 44.688 0 0 1 11.977-19.111s7.498-7.029 11.612-25.359c0 0 5.208-26.557 4.947-31.66 0 0 5.207-26.297-12.601-34.055 0 0-13.435-7.395-38.482-5.208 0 0-5.207-17.444-39.575-41.658l-2.5 3.75a53.476 53.476 0 0 0-28.535-7.916l-.833 2.292s-10.415 0-32.337 2.239l1.874 6.561s-45.72 2.135-110.55 45.511l-1.197 3.593-8.228 3.854 4.426 2.395s-49.573 17.913-85.607 47.386l335.868-27.755z" fill="#0C2E82"/><path d="M357.425 285.354h14.216a114.96 114.96 0 0 1 1.146 27.025 26.041 26.041 0 0 1-15.622 17.288 157.645 157.645 0 0 1-46.865 9.686l-1.354-1.146-21.194 8.905 6.978-24.631a315.42 315.42 0 0 0 37.024-4.79s22.391-4.583 25.671-32.337zm-174.651 7.186a118.716 118.716 0 0 0-84.773 39.991s0 14.737-17.966 24.735l.678 4.634-8.488 11.977 15.049 20.152 16.923-37.857 78.577-63.632z" fill="#0C2E82"/></g><defs><clipPath id="a"><path fill="#fff" transform="translate(0 83)" d="M0 0h500v333.785H0z"/></clipPath></defs></svg>