<svg viewBox="0 0 500 500" xmlns="http://www.w3.org/2000/svg" xmlns:xlink="http://www.w3.org/1999/xlink"><clipPath id="a"><path d="m0 0h500v386.508h-500z" transform="translate(0 57)"/></clipPath><g clip-path="url(#a)"><path d="m499.963 394.887v-.332c-2.255-30.411-9.058-61.174-20.798-94.062l-.129-.333-.148-.333-1.368-3.272.166.37c-4.899-12.719-15.122-18.21-30.171-16.361l-6.766.758-2.773.24c-11.591 1.054-28.267 2.551-42.964 1.183l-18.357-43.315a26.467 26.467 0 0 0 8.984-9.003 31.401 31.401 0 0 0 3.254-9.114 24.57 24.57 0 0 0 14.79-7.395c5.546-6.045 8.689-16.953.85-29.394l.388.647-24.458-44.073-14.475 6.137c-57.994-93.489-168.362-107.816-249.815-72.672-73.948 31.89-145.438 116.043-103.972 248.244a273.196 273.196 0 0 0 16.639 40.874 37.862 37.862 0 0 0 .795 12.368v.444a139.098 139.098 0 0 0 8.985 24.273 28.286 28.286 0 0 0 7.616 20.207c8.153 8.762 21.075 12.201 35.458 9.41l-.684.11c19.042-2.68 31.428-8.263 37.88-11.961 28.507 19.948 65.795 28.877 98.887 23.368 21.575-3.568 39.008-12.941 51.024-27.102 6.376.39 12.774.204 19.116-.555a87.255 87.255 0 0 0 27.731-6.378 94.926 94.926 0 0 0 48.62 29.746c23.183 6.119 49.453 5.694 74.448-.998a26.17 26.17 0 0 0 12.941-2.459c26.251-6.008 32.13-8.523 36.012-11.832a.496.496 0 0 0 .148-.129c9.466-6.397 12.516-18.395 12.146-27.306zm-65.832 26.086c-22.185 5.712-45.94 6.045-65.943.758-18.155-4.807-39.637-15.326-51.561-41.744a27.438 27.438 0 0 1 -1.848-4.234s6.1.111 10.094-.221c18.487 39.654 66.22 47.03 107.095 36.567a12.087 12.087 0 0 0 4.788-1.756c.582-2.301.837-4.672.758-7.044 0-1.146-.998-25.549-5.546-41.799a6.77 6.77 0 0 0 -1.368-3.161 7.859 7.859 0 0 0 -2.108-.555 25.503 25.503 0 0 0 -5.065.536c-25.216 5.99-64.206 10.981-95.005 14.087 0 0-2.422.37-6.581.555l-3.328.092a147.169 147.169 0 0 1 -24.551-1.959s-114.841-18.691-114.36-18.691l6.137-8.411 110.59 18.154c16.841 2.533 24.68 1.312 24.883 1.276 29.801-1.664 84.874-9.836 98.203-13.385 0 0 7.192-1.701 8.116-2.625.573-.592-.906-5.99-.906-5.99s-5.546-17.84-8.171-24.643v.148c0-.278-1.239-4.049-2.477-4.622h-.906s-1.59.296-3.531.739c-25.882 4.733-73.375 11.351-101.254 13.034 2.422-.148-11.277.48-21.907-.259-15.159-.85-31.964-4.603-48.676-22.758-.185-.184-18.691-17.803-26.122-25.881a5.065 5.065 0 0 1 1.072-7.081 4.233 4.233 0 0 1 5.546.203c3.272 4.363 21.981 23.701 31.206 32.334 10.26 8.005 17.618 12.165 31.927 13.791 5.768.582 11.563.848 17.36.795 18.856.481 87.554-7.912 107.76-11.905a19.074 19.074 0 0 0 4.105-.943v-.388l.11-.851a5.217 5.217 0 0 1 2.163-1.664 6.067 6.067 0 0 1 6.415.814c14.402 26.566 28.637 75.889 25.346 113.159a5.062 5.062 0 0 1 -2.496 4.344 8.26 8.26 0 0 1 -6.636-.203s.203.185-3.328 1.387zm-31.188-55.461c1.849-.352 9.65-2.071 9.65-2.071a89.556 89.556 0 0 0 21.371 21.297c.352 3.087.629 10.981.629 10.981-20.705-10.131-31.65-30.152-31.65-30.152zm-72.857 15.344a74.994 74.994 0 0 1 -2.052-3.587l-.98-1.941c1.59-.185 2.496-.333 2.496-.333l5.176-.536a52.101 52.101 0 0 1 -4.64 6.452zm-157.399-28.23a6.558 6.558 0 0 1 -5.287-3.254 2.938 2.938 0 0 1 .351-3.142l14.383-21.926c.906 1.738 8.135 6.082 8.135 6.082-3.032 4.474-13.847 20.576-13.866 20.576a3.903 3.903 0 0 1 -3.716 1.72zm38.416-74.096a62.31 62.31 0 0 0 7.136 7.746l-11.092 17.47c-1.479 1.165-4.603 0-6.544-1.848-.444-.425-2.588-2.644-1.294-4.178v-.093c.351-.351 2.736-4.326 11.794-19.041zm17.656 40.08a12913.499 12913.499 0 0 0 -19.356-12.941l1.626-1.59c6.952 4.474 16.084 10.464 20.04 13.459 7.062 5.379 3.254 11.831 3.254 11.831.703-3.845-1.054-7.709-5.564-10.759zm-21.408-11.721 20.15 13.496c3.032 2.181 6.009 5.897 4.234 10.926-.259-4.696-6.101-8.431-6.101-8.431s-21.667-12.756-28.303-16.915c-3.809-2.385-3.42-5.694-1.424-7.395-.296 5.176 7.672 9.354 11.444 8.319zm-11.222.869c6.692 4.197 20.798 12.738 24.865 14.993a18.892 18.892 0 0 1 5.232 3.587c5.065 4.806 4.104 9.576 1.627 12.94-2.792 3.698-8.172 6.157-12.645 3.18l-6.083-3.697-2.2-1.331-18.838-11.684a7.697 7.697 0 0 1 -3.938-4.363 8.022 8.022 0 0 1 1.849-6.655c3.993-5.546 5.934-8.837 6.785-10.335a10.09 10.09 0 0 0 3.346 3.365zm-3.402 23.941c8.893 5.306 21.519 13.144 21.519 13.144 8.689 5.546 15.381-2.422 17.507-5.232 1.646-2.2 6.693-9.003 6.526-14.789-.166-5.787-4.511-8.708-8.393-11.259l-18.062-11.85c1.664-2.718 4.363-7.081 8.467-13.699 8.116 8.097 17.434 16.989 17.526 17.082a73.08 73.08 0 0 0 16.823 13.662 77.558 77.558 0 0 0 4.012 2.144c3.587 10.982 7.506 20.706 9.244 27.879-1.368-8.356-3.864-17.286-6.286-26.529a79.896 79.896 0 0 0 27.638 5.916h1.202l.573 1.275c-3.42 9.077-9.761 18.82-18.007 24.773v1.424l-7.394-1.184-5.805-.924-2.81-.444-71.064-11.332zm213.063 18.265a75.213 75.213 0 0 1 -9.077 1.849c-1.849-3.42-13.181-31.317-13.181-31.317 1.349-.167 9.003-1.424 9.003-1.424a314.201 314.201 0 0 0 13.255 30.837zm2.237-.703-3.438-7.875c11.48.185 19.744 0 19.744 0 1.386 5.084-3.346 5.269-3.346 5.269zm-64.316-18.487v1.424l44.868 7.709c.869 2.459 4.067 9.724 4.067 9.724l-48.843-8.319v1.534a78.123 78.123 0 0 1 -2.495 16.084c-2.163.241-4.345.444-6.545.666a81.346 81.346 0 0 0 2.145-33.684l6.23-.665c.24 1.793.425 3.642.573 5.472zm-25.494 30.301a41.66 41.66 0 0 1 -10.334.24c-3.069-5.823-6.47-13.754-15.159-32.796 3.445.399 6.925.399 10.371 0zm-72.968-134.956a9.791 9.791 0 0 0 1.017 4.678c.961 1.941 2.921 6.803 2.921 6.803.332-.314-4.382 5.546-7.025 9.706l-15.881 26.048-4.27-4.696s-1.849-2.181-3.531-2.181c8.3-13.496 15.88-25.476 18.487-29.339a126.817 126.817 0 0 1 8.282-11.074zm96.558-32.315a4.952 4.952 0 0 1 5.546 3.697c.259 1.849-.684 4.012-4.234 4.585l-1.664.333c-21.777 4.344-46.439 9.244-67.071 17.674a45.72 45.72 0 0 0 -13.588 7.08s-2.015-4.363-2.736-5.546c-1.146-2.034-1.312-2.255-2.273-2.791a71.828 71.828 0 0 1 12.09-6.083c15.252-6.489 46.717-14.604 73.93-19.004zm-9.872-29.228c-1.276 4.086 1.146 10.408 1.146 10.408l5.86 16.398-3.069.573s-3.826-10.537-6.23-17.821c-1.848-5.546-.499-8.227-.499-8.227zm2.421-1.146 3.069-1.609s.259-.166.241-.11c-.11.371-.154.759-.13 1.146a10.254 10.254 0 0 0 1.128 4.769c1.849 4.9 11.295 24.551 12.386 27.417 5.546 14.216-8.67 16.86-10.149 10.574 15.067-1.146 8.948-16.915.407-14.697-3.254-8.042-5.842-16.102-5.842-16.102s-3.328-8.8-1.11-11.351zm51.912 30.947h.222c1.849.259 2.865 2.57 2.699 4.493 0 1.035-.721 3.383-4.271 3.383-3.198-.703-11.591-1.498-15.898-1.849a28.41 28.41 0 0 0 -2.2-8.744c6.525.54 13.017 1.429 19.448 2.662zm-35.329 14.198s3.088-2.107 3.254-4.344h10.852c0 .018-2.699 5.084-14.106 4.289zm-97.685 12.941a4.805 4.805 0 0 1 2.163.444l41.743 92.435c-3.44.143-6.885-.08-10.278-.666l-38.638-84.559a4.326 4.326 0 0 1 0-4.567 6.396 6.396 0 0 1 5.01-3.179zm2.754 30.966 1.646 3.697c-7.395 14.032-7.395 29.672-4.474 44.536l-.74-.574-2.884-2.736c-6.692-6.433-15.621-15.51-21.629-21.907 8.448-13.643 16.638-26.621 16.638-26.603 2.2-3.457 4.529-7.006 5.805-8.929zm3.088 6.822 24.68 54.407a52.946 52.946 0 0 1 -26.64-10.113c-2.884-14.937-3.697-30.059 1.96-44.387zm210.752 153.442c-4.844 1.368-20.539 5.546-20.539 5.546.546-3.224.775-6.493.684-9.761 30.3-6.508 1.534-9.244 1.534-9.244 6.692 2.071 6.508 4.456 6.508 4.456a31.723 31.723 0 0 1 -8.042-1.368c.166-1.849-.333-9.595-.333-9.595 7.857 3.42 9.133 2.44 17.285 4.27 8.153 1.831 4.271 5.325 4.271 5.325-4.271 5.305-20.022 7.542-20.022 7.542 26.363-3.438 24.034-10.63 24.034-10.63 10.759 6.878.129 11.906-5.343 13.385zm-4.215-63.337s-3.938 1.997-22.092 5.251c0 0-1.479-5.657-2.163-8.56 0 0 15.344-3.198 21.334-5.435 0 0-.111-1.997-3.069-1.941 0 0-15.585 3.938-19.19 4.289l-.85-2.403s13.348-2.57 17.803-3.605c0 0 9.428-3.254 11.48 3.956.037-.019 2.052 6.137-3.216 8.374zm16.638 53.465c0-2.071-3.198-5.898-8.67-7.025a44.49 44.49 0 0 0 0-4.677c-1.387-13.958-6.397-39.304-6.397-39.304 7.765-2.514 7.081-18.394-6.156-18.302a182.942 182.942 0 0 0 -7.839-25.882c7.21-3.938 3.827-10.574-.11-11.776 0 0 7.209-1.535 10.519 10.907 11.924 33.721 21.278 79.975 18.598 95.985zm-28.341-101.568a3.972 3.972 0 0 1 -3.383 4.16l-1.127.259c-2.81.868-8.43 2.199-14.051 3.253a64.747 64.747 0 0 1 -6.415 1.109c-.739-1.626-1.257-3.309-3.383-7.394 6.175-1.073 14.106-2.662 19.615-4.271a40.038 40.038 0 0 1 4.918-.924 4.2 4.2 0 0 1 3.771 3.734zm-30.448-1.275a6.831 6.831 0 0 0 -3.697-1.516 180.64 180.64 0 0 0 18.191-1.036c-2.57.943-14.549 2.478-14.549 2.478zm-13.347 1.848c-6.175 1.553-20.428 3.106-20.428 3.106l-2.921-6.692a118.674 118.674 0 0 0 26.085.85 3.053 3.053 0 0 0 -2.792 2.718zm-34.294-92.084a26.193 26.193 0 0 1 -2.237 14.18 17.214 17.214 0 0 1 -13.366 9.243h-.998l-.684.093c-.518 0-1.017 0-1.498.148 7.062 16.767 30.301 71.822 30.301 71.822-4.456.795-9.373 1.128-9.373 1.128l-29.358-68.846a11.924 11.924 0 0 0 -1.479 1.849l-.887 1.035a48.872 48.872 0 0 0 -8.892 20.872c-.111.517-.296 1.312-.481 2.366a81.716 81.716 0 0 0 32.371 29.191l4.603 11.314c-18.487-5.38-33.979-22.184-38.305-27.194v1.386a107.2 107.2 0 0 0 2.607 24.532 113.847 113.847 0 0 1 2.329 8.32l-6.323.647a110.125 110.125 0 0 0 -5.194-15.492c-10.464-24.773-39.026-13.44-36.974 1.46l-24.181-53.39a79.83 79.83 0 0 1 16.046-13.367 45.62 45.62 0 0 0 -10.426 6.637 64.803 64.803 0 0 0 -6.212 5.435l-1.497-3.161-4.456-9.816a69.967 69.967 0 0 1 14.087-7.543c15.862-6.434 34.201-10.834 51.764-14.512l2.921-.592c.536 8.744-3.901 12.09-11.518 13.662-4.973 1.035-9.021 1.202-11.092 1.849l4.733.166a42.068 42.068 0 0 0 12.719-2.44c4.77-1.849 8.356-4.973 6.822-13.57l2.44-.517c1.294 8.189.092 16.083-15.769 17.618 2.717 1.848 27.397-2.699 42.261.702.37.167 6.6 2.311-.518 5.417 13.773-3.069 14.55-16.805 11.924-27.01h.574a63.34 63.34 0 0 1 6.525.832c1.313.148 2.921.333 4.585.555 10.26 1.017 9.244-11.092 3.919-12.682a34.836 34.836 0 0 0 -6.193-1.405l-1.442-.167-12.811-28.562 7.099-3.291 18.321 33.074c8.522 13.514-5.547 19.078-13.367 15.011a8.99 8.99 0 0 0 -3.475 2.995zm-89.588 190.879a83.364 83.364 0 0 1 -23.497-.388c-26.214 40.08-97.186 37.38-140.501 3.531-.814-.61-1.627-1.202-2.478-1.849-2.939 2.274-15.75 11.092-40.227 14.937-20.558 3.957-29.043-9.391-26.585-18.487-6.082-13.403-7.764-18.061-9.76-25.604a24.034 24.034 0 0 1 0-11.462 263.531 263.531 0 0 1 -17.805-42.594c-73.947-236.08 233.53-334.948 333.36-156.548 1.941.166 3.125.628 3.698 1.848l2.736-1.109 12.035 27.195c-1.479-.296-5.546-.647-6.6-.721a.46.46 0 0 0 0 .148l-2.052-.204h-.98c-2.625-8.06-6.045-18.32-8.375-24.31a28.23 28.23 0 0 0 -4.307-.351.833.833 0 0 1 .092.184c1.849 3.402 7.395 20.613 9.244 25.291a27.329 27.329 0 0 1 2.385 10.168l-11.961-.222c-.167-3.494-3.494-10.057-3.494-10.057l-4.437-8.985-1.22-2.57-4.622-9.705a20.343 20.343 0 0 1 -1.553-5.362c-.814-6.267 5.38-6.267 5.546-6.267a9.82 9.82 0 0 1 8.43 4.881h1.645a132.93 132.93 0 0 0 -8.282-13.81c-46.458-66.239-123.678-85.817-191.71-69.29 86.205-12.608 151.945 24.477 184.759 79.92-2.736 1.35-7.284 3.698-9.391 4.77-.962 0-4.474-.093-5.657 0-2.052.166-3.975.259-2.57 5.139 1.035 3.587 1.423 4.437 2.237 6.674.961 2.681 4.086 10.741 6.378 17.6l-2.422.462a66.84 66.84 0 0 0 -1.405-3.827c-2.662-6.822-5.897-15.677-6.84-18.69a12.148 12.148 0 0 1 -.333-7.081s-3.254 2.57-.351 9.484l7.395 20.336-2.977.591c-22.332 4.474-44.202 10.39-56.478 15.529a62.637 62.637 0 0 0 -15.714 8.652.904.904 0 0 0 -.369.518 9.474 9.474 0 0 0 -4.862 3.42 38.958 38.958 0 0 0 -3.975 3.476c-2.57 2.994-4.825 5.546-7.728 9.594-2.514 3.698-11.572 18.081-19.651 31.169a7.755 7.755 0 0 0 -2.015 1.11 8.074 8.074 0 0 0 -2.995 7.579c-6.545 10.63-10.39 16.787-11.998 19.338a7.283 7.283 0 0 0 -5.547 3.475 156.382 156.382 0 0 1 -9.705 15.696 8.96 8.96 0 0 0 -1.664 7.21l-.61 1.22-15.122 22.536a5.542 5.542 0 0 0 -.574 5.841 9.237 9.237 0 0 0 7.58 4.826 6.862 6.862 0 0 0 4.548-1.221l80.4 13.404 3.919.647 6.286 1.053 5.102.851a66.55 66.55 0 0 1 -6.618 24.347l1.405.185c22.184 1.849 38.009-2.145 48.954-9.558.924 1.849 1.848 3.531 2.976 5.214-8.597 5.694-19.522 9.335-33.092 10.223zm199.845 22.776-.203.129c.221-.129.406-.314.628-.443z" fill="#fff"/><path d="m238.76 417.589a54.987 54.987 0 0 0 20.613-18.172 42.644 42.644 0 0 0 5.546-10.556 56.143 56.143 0 0 1 -26.159 28.728z" fill="#fff"/><path d="m227.926 275.369c6.009 6.396 14.938 15.473 21.63 21.907a78.63 78.63 0 0 1 .111-28.674 54.776 54.776 0 0 1 6.341-16.213l-5.712-12.552c-1.276 1.848-3.605 5.546-5.805 8.929 0-.019-8.116 12.959-16.565 26.603zm21.538 47.289a136.477 136.477 0 0 1 10.297 30.892l5.805.925a170.92 170.92 0 0 0 -1.849-8.024c-1.053-4.843-5.361-15.141-9.243-27.73a73.054 73.054 0 0 1 -16.805-13.718c0-.092-9.41-8.984-17.525-17.082a3202.768 3202.768 0 0 0 -8.467 13.699l18.061 11.85c3.883 2.552 8.209 5.547 8.393 11.259.185 5.713-4.88 12.627-6.525 14.79-2.126 2.81-8.819 10.778-17.508 5.231 0 0-12.626-7.838-21.519-13.144l-6.84 10.131 71.064 11.333c-1.386-11.203-5.102-21.371-7.339-30.412zm29.635-92.638c10.371-5.546 16.768-8.652 33.276-10.759l4.105-.555c2.791-.425 8.134-1.534 9.668-4.308a11.79 11.79 0 0 0 1.11-6.248c-17.545 3.697-35.884 8.079-51.764 14.512a69.967 69.967 0 0 0 -14.087 7.543l4.326 9.798a62.148 62.148 0 0 1 11.425-8.726 63.093 63.093 0 0 1 1.941-1.257z" fill="#ff3c00"/><path d="m316.313 163.689a5.725 5.725 0 0 1 1.978-1.849c-27.176-45.996-92.306-93.544-176.884-79.143-81.916 26.27-145.844 106.115-117.43 219.996 11.87 43.185 25.735 66.091 40.802 87.554 0 0-.684 10.427 17.303 4.992 16.269-4.937 26.197-5.306 43.205 7.394 29.579 22.074 80.622 32.094 113.473 14.956a56.142 56.142 0 0 0 26.03-28.747 52.226 52.226 0 0 0 2.791-19.374l-6.285-1.054c-1.405 26.861-28.045 52.743-75.686 49.767-19.874-.74-41.06-10.39-53.705-17.285-5.823-3.901-22.184-13.108-30.097-14.79 6.84.37 24.033 9.336 31.114 13.477 14.789 7.58 35.236 14.79 52.688 15.566 31.816 2.995 67.903-13.311 71.766-47.327l-80.4-13.403a6.853 6.853 0 0 1 -4.547 1.22 9.242 9.242 0 0 1 -7.58-4.825 5.545 5.545 0 0 1 .573-5.842l15.03-22.517.61-1.22a8.96 8.96 0 0 1 1.664-7.21 156.367 156.367 0 0 0 9.705-15.695 7.287 7.287 0 0 1 5.547-3.476c1.608-2.551 5.453-8.707 11.998-19.337a8.078 8.078 0 0 1 2.995-7.58 7.723 7.723 0 0 1 2.015-1.109c8.226-13.163 17.193-27.564 19.707-31.262 2.902-3.975 5.158-6.6 7.727-9.595a38.948 38.948 0 0 1 3.975-3.475 9.478 9.478 0 0 1 4.862-3.42.906.906 0 0 1 .37-.518 62.62 62.62 0 0 1 15.714-8.652c12.275-5.139 34.145-11.092 56.478-15.529l-6.526-18.801c-.259-.61-3.698-7.654-.98-11.887zm-100.495 198.994a9.464 9.464 0 0 1 3.697 18.173 6.083 6.083 0 0 1 -10.02-1.701 9.351 9.351 0 0 1 -3.143-7.025 9.487 9.487 0 0 1 9.466-9.447zm-74.466 29.912a6.97 6.97 0 0 1 -5.103 1.405c-2.126 1.331-5.435.573-7.783-1.849a6.807 6.807 0 0 1 -1.848-7.395 8.668 8.668 0 0 1 2.958-8.356c3.568-2.514 9.003-.961 12.127 3.457 3.124 4.419 3.069 9.909-.314 12.738zm46.735-25.438c-15.862 16.786-47.308 16.638-65.185-6.23 30.152 28.081 58.345 9.594 65.185 6.23zm-28.673-19.966c-1.961.652-4.017.97-6.083.943a22.466 22.466 0 0 1 -15.88-7.155c-8.412-8.8-8.966-22.406-1.22-30.282a18.36 18.36 0 0 1 13.348-5.546c2.99.075 5.934.747 8.661 1.976a22.447 22.447 0 0 1 7.219 5.179 23.886 23.886 0 0 1 6.674 15.991z" fill="#ff3c00"/><path d="m256.951 353.107 2.81.443a136.477 136.477 0 0 0 -10.297-30.892c2.237 9.041 5.953 19.208 7.487 30.449zm-71.434 61.987c-17.451-.721-37.972-7.987-52.688-15.566-7.173-4.142-24.273-13.108-31.113-13.477 7.875 1.737 24.273 10.944 30.097 14.789 12.645 6.896 33.831 16.546 53.704 17.285 47.642 2.977 74.281-22.905 75.686-49.767l-3.919-.647c-3.864 34.072-39.95 50.377-71.767 47.383zm-36.031-109.869a18.363 18.363 0 0 0 -13.348 5.546c-7.746 7.876-7.191 21.482 1.22 30.282a22.458 22.458 0 0 0 15.881 7.155 18.506 18.506 0 0 0 6.082-.943l12.719-18.82a23.881 23.881 0 0 0 -6.674-15.991 22.462 22.462 0 0 0 -15.88-7.229z" fill="#311d00"/><path d="m122.809 360.927c17.877 22.905 49.323 23.016 65.185 6.23-6.747 3.365-34.94 21.852-65.185-6.23zm86.704 18.228a6.082 6.082 0 0 0 10.02 1.701 9.465 9.465 0 1 0 -13.162-8.726 9.351 9.351 0 0 0 3.142 7.025zm5.547 2.551a5.218 5.218 0 0 1 -4.869-3.166 5.212 5.212 0 1 1 10.008-2.047 5.171 5.171 0 0 1 -1.497 3.677 5.161 5.161 0 0 1 -3.661 1.536zm4.085-10.464a5.792 5.792 0 0 0 -6.6-.887c-.85.536-1.848-.166-.647-1.276a5.556 5.556 0 0 1 6.348-.553 5.543 5.543 0 0 1 1.676 1.496c.905 1.387-.074 2.348-.795 1.22zm-3.05-6.858a7.74 7.74 0 0 1 6.994 4.854 7.743 7.743 0 0 1 -1.688 8.345c2.236-4.788.406-10.888-5.547-11.092a7.11 7.11 0 0 0 -5.871 2.733 7.093 7.093 0 0 0 -1.209 6.363c-2.015-1.997-1.313-11.166 7.302-11.203z" fill="#311d00"/><path d="m211.88 369.079c-1.109 1.11-.203 1.849.647 1.276a5.784 5.784 0 0 1 6.6.887c.721 1.11 1.701.167.776-1.22a5.554 5.554 0 0 0 -6.046-2.01 5.554 5.554 0 0 0 -1.977 1.067z" fill="#fff"/><path d="m215.91 366.436c5.879.259 7.709 6.359 5.546 11.092a7.745 7.745 0 0 0 -5.306-13.2c-8.615 0-9.243 9.244-7.246 11.093a7.098 7.098 0 0 1 7.006-8.985z" fill="#fff"/><path d="m220.181 376.493a5.147 5.147 0 0 0 -.902-2.835 5.14 5.14 0 0 0 -8.979 4.892 5.146 5.146 0 0 0 4.741 3.156 5.17 5.17 0 0 0 3.65-1.542 5.186 5.186 0 0 0 1.49-3.671zm-5.177 4.067a4.12 4.12 0 0 1 -3.81-2.549 4.126 4.126 0 0 1 .902-4.495 4.118 4.118 0 0 1 4.499-.882 4.125 4.125 0 0 1 2.532 3.822 4.11 4.11 0 0 1 -4.123 4.104z" fill="#fff"/><path d="m215.004 372.37a4.12 4.12 0 0 0 -3.809 2.545 4.12 4.12 0 0 0 3.005 5.621 4.125 4.125 0 0 0 4.232-1.753 4.123 4.123 0 0 0 -3.428-6.413zm-3.05 4.252c.111-.518.369-.259.48.148a3.485 3.485 0 0 0 2.469 1.424 3.484 3.484 0 0 0 2.708-.888c.499-.702.48.259.48.259a3.174 3.174 0 0 1 -3.464 1.985 3.178 3.178 0 0 1 -2.673-2.965z" fill="#311d00"/><path d="m217.666 377.269a3.485 3.485 0 0 1 -2.708.888 3.494 3.494 0 0 1 -2.468-1.424c-.111-.407-.37-.666-.481-.148a3.177 3.177 0 0 0 2.691 2.936 3.176 3.176 0 0 0 3.447-1.993s-.037-.961-.481-.259z" fill="#fff"/><path d="m129.686 376.327a8.666 8.666 0 0 0 -2.957 8.356 6.8 6.8 0 0 0 1.848 7.394c2.348 2.478 5.657 3.236 7.783 1.849a6.97 6.97 0 0 0 5.103-1.405c3.383-2.828 3.549-8.374.425-12.811s-8.634-5.898-12.202-3.383zm-.573 15.029c-2.218-2.329-2.588-5.546-.869-7.21 1.72-1.663 4.937-1.109 7.155 1.221 2.218 2.329 2.588 5.546.85 7.21-1.737 1.663-4.936 1.109-7.136-1.221zm8.467-5.546a7.221 7.221 0 0 0 -3.697-3.29c-1.146-.222-.721-2.089.666-1.609a9.874 9.874 0 0 1 3.697 2.921c1.239 1.997-.074 3.032-.666 1.886zm1.572 6.471c6.304-8.208-5.971-17.785-10.834-10.187 4.049-12.497 20.355 3.088 10.834 10.094z" fill="#311d00"/><path d="m134.475 380.819c-1.387-.481-1.849 1.386-.666 1.608a7.233 7.233 0 0 1 3.698 3.291c.554 1.146 1.848.111.628-1.978a9.877 9.877 0 0 0 -3.66-2.921z" fill="#fff"/><path d="m128.318 382.002c4.862-7.598 17.138 1.978 10.834 10.186 9.521-7.006-6.785-22.591-10.834-10.186z" fill="#fff"/><path d="m135.399 385.311c-2.218-2.329-5.398-2.865-7.154-1.22-1.757 1.645-1.35 4.88.869 7.21 2.218 2.329 5.398 2.884 7.136 1.22 1.737-1.664 1.349-4.825-.851-7.21zm0 6.711c-1.442 1.072-3.882.185-5.675-1.461a4.155 4.155 0 0 1 -.758-5.786c1.497-1.424 4.122-.536 5.712 1.275 1.202 1.535 2.311 4.807.647 6.027z" fill="#fff"/><path d="m128.929 384.83a4.157 4.157 0 0 0 .758 5.787c1.848 1.645 4.233 2.533 5.675 1.46 1.442-1.072.555-4.492-.721-5.971-1.627-1.812-4.252-2.644-5.712-1.276zm5.213 6.526c-2.958.296-5.546-3.309-4.511-4.899 0 0 .814-1.109.962 0a5.67 5.67 0 0 0 3.882 4.067c.388.037.517.684-.37.832z" fill="#311d00"/><path d="m130.555 386.383c-.147-1.035-.961 0-.961 0-1.091 1.59 1.553 5.195 4.511 4.899.887-.148.758-.795.333-.906a5.67 5.67 0 0 1 -3.883-3.993zm-14.826 15.289c.591-.407 1.201-.85 1.664-1.202-8.098-5.157-18.155-8.541-34.479-3.161l-.74.241a57.794 57.794 0 0 1 12.738-1.479 34.81 34.81 0 0 1 16.639 4.751l-3.032 1.645a91.85 91.85 0 0 1 -33.055 9.244c-6.692.48-5.398-3.439-.998-5.657a10.464 10.464 0 0 0 5.361-7.857c-.74.388-.74.221-1.849.425h-.13c-1.46 10.482-21.98 9.41-19.706-4.881 0 0-2.958-6.064-4.66-9.595 0 .148-.424-2.2-.184-2.255s5.01 8.134 7.08 10.722c-2.772 9.743 11.481 13.81 15.308 6.471-12.553 2.348-13.034-4.086-12.849-6.23a8.172 8.172 0 0 1 -.259-1.017c-2.18-2.237-9.243-11.684-17.396-26.529-1.09 8.652 8.708 28.674 9.521 30.633l.832 2.071c-2.958 8.189 5.546 18.93 20.872 16.472 15.178-1.313 32.186-7.635 39.322-12.812z" fill="#fff"/><path d="m327.054 375.384.98 1.941a74.96 74.96 0 0 0 2.052 3.586 52.256 52.256 0 0 0 4.64-6.396l-5.177.536s-.961.148-2.495.333zm7.746-15.844c2.2-.222 4.381-.425 6.544-.665a78.135 78.135 0 0 0 2.496-16.084v-1.534l48.843 8.319s-3.199-7.266-4.067-9.724l-44.868-7.71v-1.423a140.517 140.517 0 0 0 -.537-5.546l-6.23.665a81.335 81.335 0 0 1 -2.181 33.702zm-85.244-62.264 2.884 2.736.74.573c-2.884-14.79-2.995-30.504 4.474-44.535l-1.646-3.698a54.776 54.776 0 0 0 -6.341 16.213 78.634 78.634 0 0 0 -.111 28.711zm16.01 57.199 7.395 1.183v-1.424c8.245-5.952 14.586-15.695 18.006-24.772l-.573-1.276h-1.201a79.896 79.896 0 0 1 -27.638-5.916c2.421 9.244 4.917 18.173 6.285 26.529-1.701-7.173-5.546-16.897-9.243-27.878a77.586 77.586 0 0 1 -4.012-2.145c3.827 12.59 8.134 22.887 9.243 27.731.481 2.274 1.128 4.973 1.738 7.968z" fill="#311d00"/><path d="m331.879 286.147c-2.958-13.773.167-39.359 10.224-46.662-14.346 1.738-18.34 37.695-10.224 46.662z" fill="#fff"/><path d="m283.776 313.618-24.68-54.407c-5.657 14.327-4.844 29.45-1.96 44.369a52.947 52.947 0 0 0 26.64 10.038zm95.578-106.762c7.764 4.067 21.888-1.498 13.366-15.012l-18.321-33.073-7.099 3.291 12.812 28.562 1.442.167c2.102.278 4.175.749 6.193 1.405 5.398 1.552 6.341 13.698-3.919 12.682a227.384 227.384 0 0 0 -4.585-.555 63.395 63.395 0 0 0 -6.526-.832h-.573c2.625 10.205 1.848 23.941-11.924 27.01 7.117-3.106.887-5.251.517-5.417-14.789-3.402-39.544 1.165-42.261-.703 15.862-1.534 17.063-9.428 15.769-17.618l-2.44.518c1.534 8.596-2.052 11.795-6.822 13.569a42.071 42.071 0 0 1 -12.719 2.496l-4.732-.166c2.052-.684 6.1-.851 11.092-1.849 7.616-1.571 12.053-4.917 11.517-13.662l-2.921.592a11.79 11.79 0 0 1 -1.109 6.248c-1.534 2.773-6.877 3.883-9.669 4.308l-4.104.554c-16.435 2.108-22.831 5.158-33.276 10.76 0 0-1.276.813-1.849 1.276a62.126 62.126 0 0 0 -11.481 8.596l1.461 3.235a64.682 64.682 0 0 1 6.212-5.435 45.62 45.62 0 0 1 10.426-6.637 79.893 79.893 0 0 0 -16.047 13.366l24.182 53.391c-1.997-14.901 26.565-26.233 36.974-1.461a110.31 110.31 0 0 1 5.194 15.493l6.323-.648a116.929 116.929 0 0 0 -2.329-8.319 107.205 107.205 0 0 1 -2.607-24.532v-1.386c4.326 5.028 19.8 21.814 38.305 27.194l-4.566-11.388a81.713 81.713 0 0 1 -32.5-29.265c.184-1.054.369-1.849.48-2.366a48.872 48.872 0 0 1 8.892-20.872l.888-1.036c.43-.663.926-1.283 1.479-1.848l29.357 68.845s4.918-.332 9.373-1.127c0 0-23.238-55.055-30.3-71.822.481 0 .98-.111 1.497-.148l.684-.093h.999a17.205 17.205 0 0 0 13.366-9.243 26.202 26.202 0 0 0 2.237-14.18 8.977 8.977 0 0 1 3.642-2.865zm-47.475 79.291c-8.116-8.967-4.123-44.924 10.223-46.662-10.057 7.303-13.181 32.889-10.223 46.662z" fill="#311d00"/><path d="m209.365 334.25c.272.717.593 1.416.962 2.089a7.392 7.392 0 0 0 2.625 2.699c7.931 4.714 12.312-1.294 12.349-1.35.037-.055 3.698-4.769-1.627-9.946a10.356 10.356 0 0 0 -7.746-2.458 8.999 8.999 0 0 0 -9.336-6.693h-.018c-5.269.352-6.508 3.199-7.099 4.844a8.303 8.303 0 0 0 .628 6.748 8.685 8.685 0 0 0 9.262 4.067zm6.951-7.617c5.916-.185 10.557 5.75 7.58 10.113l-1.091.166c-5.158.684-8.078-1.368-8.929-5.99a6.872 6.872 0 0 0 2.44-4.289zm-6.932-6.341a6.638 6.638 0 0 1 4.936 6.175h.333c-.241 1.848-2.274 4.548-6.415 3.919a11.96 11.96 0 0 1 -.278-2.607c.717.257 1.477.37 2.237.333.006-.402.037-.803.093-1.202a7.244 7.244 0 0 1 -2.348-.684 13.552 13.552 0 0 1 1.442-5.934zm-6.859 1.276a5.545 5.545 0 0 1 4.363-1.516 11.726 11.726 0 0 0 -1.276 5.269c-.406-.352-.721-.352-1.127-.795v1.442c.259.462.684.591 1.201.942a11.818 11.818 0 0 0 .315 3.051c-.278 0-.426-.314-.721-.444-4.123-2.311-2.755-7.949-2.755-7.949zm-1.516 1.848c-.684 8.56 7.136 9.817 11.518 8.19.942 6.933 6.988 7.118 9.89 6.655a8.198 8.198 0 0 1 -7.456.18 8.207 8.207 0 0 1 -4.523-5.929c-5.528 1.627-11.777-2.81-9.41-9.133z" fill="#fff"/><g fill="#311d00"><path d="m348.684 171.601a9.99 9.99 0 0 1 -3.993-8.042c4.067.056 5.268 6.008 3.993 8.042zm4.233 11.111a10.91 10.91 0 0 1 -3.346-7.561 5.139 5.139 0 0 1 3.346 7.561zm-17.451-7.95s2.588 8.061 5.841 16.103c8.541-2.219 14.661 13.551-.406 14.697 1.479 6.285 15.64 3.697 10.149-10.575-1.091-2.865-10.574-22.517-12.386-27.416a10.258 10.258 0 0 1 -1.128-4.77c-.024-.386.02-.774.13-1.146l-.241.111-3.069 1.608c-2.218 2.644 1.11 11.388 1.11 11.388z"/><path d="m329.642 174.078c2.404 7.284 6.23 17.822 6.23 17.822l3.069-.573-5.86-16.398s-2.422-6.323-1.146-10.408l-2.792 1.331s-1.312 2.68.499 8.226zm21.297 34.442c11.406.794 14.106-4.271 14.106-4.271h-10.852c-.167 2.163-3.254 4.271-3.254 4.271zm-132.46 57.901c1.701 0 3.532 2.181 3.532 2.181l4.27 4.696 15.88-26.048c2.644-4.141 7.395-10.02 7.025-9.706 0 0-1.959-4.862-2.921-6.803a9.8 9.8 0 0 1 -1.016-4.677 126.784 126.784 0 0 0 -8.319 11.092c-2.626 3.79-10.15 15.769-18.451 29.265zm201.306 32.001a6.839 6.839 0 0 1 3.697 1.516s11.98-1.516 14.549-2.551c-6.06.653-12.151.998-18.246 1.035zm4.548 42.964s-8.264.129-19.745 0l3.439 7.875 12.941-2.551s4.751-.222 3.365-5.324zm-31.798-22.443s-7.654 1.257-9.003 1.423c0 0 11.388 27.897 13.181 31.317a75.02 75.02 0 0 0 9.077-1.849 314.303 314.303 0 0 1 -13.255-30.891zm20.059 44.553s-7.765 1.72-9.651 2.071c0 0 10.945 20.021 31.669 30.152 0 0-.278-7.894-.629-10.981a89.53 89.53 0 0 1 -21.389-21.242zm62.596 35.643s2.404 7.192-24.033 10.63c0 0 15.751-2.237 20.022-7.542 0 0 4.104-3.439-4.271-5.325-8.374-1.885-9.428-.85-17.285-4.27 0 0 .499 7.709.332 9.595 2.611.8 5.314 1.26 8.042 1.368 0 0 .185-2.385-6.507-4.456 0 0 28.766 2.755-1.535 9.244a49.947 49.947 0 0 1 -.684 9.761s15.696-4.123 20.54-5.546c5.546-1.405 16.176-6.434 5.379-13.459zm-182.466-70.676c8.689 19.042 12.09 26.973 15.159 32.796 3.441.35 6.913.269 10.334-.24l-15.122-32.5c-3.448.38-6.928.362-10.371-.056zm-44.462-103.989a4.332 4.332 0 0 0 0 4.566l38.638 84.56c3.393.585 6.839.808 10.279.665l-41.744-92.435a4.812 4.812 0 0 0 -2.163-.443 6.4 6.4 0 0 0 -5.01 3.087z"/><path d="m444.225 419.715a5.063 5.063 0 0 0 2.496-4.344c3.29-37.27-10.945-86.593-25.346-113.159a6.066 6.066 0 0 0 -6.415-.813 5.209 5.209 0 0 0 -2.163 1.663l-.111.851v.388a19.065 19.065 0 0 1 -4.104.943c-20.207 3.993-88.904 12.386-107.761 11.905a158.704 158.704 0 0 1 -17.359-.794c-14.309-1.627-21.667-5.787-31.927-13.792-9.244-8.633-27.934-27.971-31.207-32.334a4.236 4.236 0 0 0 -5.546-.203 5.073 5.073 0 0 0 -2.002 3.318 5.07 5.07 0 0 0 .93 3.763c7.395 8.171 25.882 25.789 26.122 25.881 16.639 18.155 33.517 21.908 48.677 22.758 10.63.739 24.329.111 21.907.259 27.878-1.683 75.297-8.301 101.253-13.034a66.772 66.772 0 0 1 3.531-.739h.906c1.239.573 2.403 4.344 2.477 4.622v-.148c2.718 6.803 8.116 24.458 8.172 24.643.055.185 1.479 5.398.905 5.99-.924.924-8.115 2.625-8.115 2.625-13.33 3.549-68.402 11.721-98.203 13.385-.204 0-8.042 1.257-24.884-1.276l-110.589-18.154-6.138 8.411c-.481 0 114.361 18.691 114.361 18.691a147.148 147.148 0 0 0 24.55 1.959l3.328-.092c4.16-.185 6.526-.555 6.582-.555 30.799-3.106 69.788-8.097 95.004-14.087a25.521 25.521 0 0 1 5.066-.536 7.842 7.842 0 0 1 2.107.555 6.76 6.76 0 0 1 1.368 3.161c4.511 16.25 5.454 40.671 5.546 41.799a25.217 25.217 0 0 1 -.758 7.044 12.087 12.087 0 0 1 -4.788 1.756c-41.022 10.538-88.719 3.161-107.206-36.494-3.993.333-10.094.222-10.094.222a27.443 27.443 0 0 0 1.849 4.234c11.924 26.418 33.406 36.974 51.56 41.744 20.003 5.287 43.777 4.954 65.943-.758 3.587-1.202 3.457-1.461 3.457-1.461a8.256 8.256 0 0 0 6.619.203z"/><path d="m192.616 304.319c-.85 1.498-2.791 4.715-6.784 10.335a8.022 8.022 0 0 0 -1.849 6.655 7.69 7.69 0 0 0 3.938 4.363l18.894 11.591 2.199 1.331 6.083 3.698c4.474 2.976 9.853.573 12.645-3.18 2.477-3.346 3.438-8.116-1.627-12.941a18.874 18.874 0 0 0 -5.232-3.586c-4.067-2.256-18.173-10.797-24.865-14.993a10.105 10.105 0 0 1 -3.402-3.273zm6.785 19.134c.592-1.645 1.849-4.492 7.099-4.843h.074a8.998 8.998 0 0 1 9.336 6.692 10.347 10.347 0 0 1 7.746 2.459c5.269 5.176 1.664 9.89 1.627 9.946-.037.055-4.418 6.064-12.349 1.349a7.384 7.384 0 0 1 -2.625-2.699 16.509 16.509 0 0 1 -.962-2.089 8.687 8.687 0 0 1 -9.336-4.048 8.302 8.302 0 0 1 -.61-6.767zm31.668-5.878c-3.956-2.995-13.089-8.985-20.04-13.459l-1.627 1.59s15.4 10.242 19.356 12.941c4.511 3.05 6.267 6.914 5.546 10.796 0-.037 3.827-6.489-3.235-11.868z"/><path d="m197.33 305.965c6.637 4.159 28.304 16.915 28.304 16.915s5.842 3.698 6.101 8.431c1.848-5.029-1.202-8.745-4.234-10.926l-20.151-13.496c-3.697 1.035-11.739-3.143-11.443-8.337-1.997 1.719-2.385 5.028 1.423 7.413zm16.639 24.957c.85 4.622 3.697 6.674 8.929 5.99l1.091-.166c2.976-4.363-1.664-10.298-7.58-10.113a6.877 6.877 0 0 1 -2.44 4.289z"/><path d="m210.438 332.475a8.211 8.211 0 0 0 4.523 5.929 8.213 8.213 0 0 0 7.456-.18c-2.902.463-8.947.278-9.89-6.655-4.382 1.627-12.202.37-11.518-8.19-2.348 6.323 3.901 10.76 9.429 9.096zm234.619-34.182c-5.547 1.608-13.44 3.198-19.615 4.27 2.126 4.141 2.644 5.823 3.383 7.395a65.336 65.336 0 0 0 6.415-1.109c5.546-1.054 11.24-2.385 14.05-3.254l1.128-.259a3.977 3.977 0 0 0 3.383-4.159 4.195 4.195 0 0 0 -3.827-3.864c-1.658.223-3.3.55-4.917.98zm12.386 38.637c-4.456 1.036-17.803 3.605-17.803 3.605l.85 2.404c3.697-.352 19.19-4.289 19.19-4.289 2.958 0 3.068 1.941 3.068 1.941-5.989 2.2-21.389 5.435-21.389 5.435.684 2.903 2.163 8.56 2.163 8.56 18.154-3.254 22.092-5.251 22.092-5.251 5.306-2.237 3.254-8.448 3.254-8.448-1.997-7.21-11.425-3.957-11.425-3.957z"/><path d="m463.544 306.76c-3.31-12.442-10.52-10.908-10.52-10.908 3.938 1.202 7.395 7.839.111 11.777a182.97 182.97 0 0 1 7.839 25.881c13.237-.092 13.921 15.788 6.156 18.303 0 0 5.01 25.345 6.397 39.303a45.04 45.04 0 0 1 0 4.677c5.546 1.128 8.67 4.955 8.67 7.025 2.699-16.028-6.655-62.283-18.653-96.058zm-76.814-8.486 2.921 6.692s14.253-1.552 20.428-3.105a3.048 3.048 0 0 1 2.736-2.736c-8.7.676-17.448.391-26.085-.851zm-196.462 32.13s-7.228-4.344-8.134-6.082l-14.383 21.963a2.936 2.936 0 0 0 -.351 3.143 6.569 6.569 0 0 0 5.287 3.253 3.899 3.899 0 0 0 3.698-1.7s10.851-16.103 13.883-20.577zm65.592-111.698c.962.536 1.128.758 2.274 2.792.721 1.257 2.736 5.546 2.736 5.546a45.722 45.722 0 0 1 13.588-7.081c20.632-8.374 45.293-13.329 67.071-17.673l1.664-.333c3.55-.573 4.492-2.736 4.234-4.585a4.954 4.954 0 0 0 -5.547-3.697c-27.212 4.4-58.677 12.515-73.855 18.875a71.874 71.874 0 0 0 -12.165 6.156zm-56.422 78.94c-1.294 1.534.851 3.697 1.294 4.178 1.941 1.848 5.066 3.068 6.545 1.848l11.092-17.47a62.31 62.31 0 0 1 -7.136-7.746c-9.059 14.79-11.444 18.69-11.61 18.968zm167.381-106.042a28.381 28.381 0 0 1 2.2 8.744c4.308.407 12.701 1.202 15.899 1.849 3.55 0 4.178-2.348 4.271-3.383.166-1.849-.888-4.234-2.699-4.492h-.222a183.839 183.839 0 0 0 -19.449-2.718zm-156.547 136.545a5.788 5.788 0 0 1 -2.237-.333c-.004.877.089 1.751.277 2.607 4.141.629 6.175-1.997 6.415-3.919h-.333a6.637 6.637 0 0 0 -4.936-6.175 13.555 13.555 0 0 0 -1.442 5.971 7.244 7.244 0 0 0 2.348.684 9.66 9.66 0 0 0 -.092 1.165zm-5.011 1.368c.296.13.444.37.721.444a11.814 11.814 0 0 1 -.314-3.05c-.517-.352-.943-.481-1.202-.943v-1.442c.407.443.721.443 1.128.795a11.726 11.726 0 0 1 1.276-5.269 5.535 5.535 0 0 0 -4.363 1.516s-1.35 5.638 2.754 7.949z"/><path d="m377.301 190.125-12.035-27.194-2.736 1.09c-.628-1.22-1.848-1.682-3.697-1.848-99.83-178.4-407.362-79.495-333.358 156.548a261.188 261.188 0 0 0 17.729 42.742 23.794 23.794 0 0 0 0 11.462c1.996 7.561 3.697 12.201 9.761 25.586-2.477 9.077 6.027 22.425 26.603 18.487 24.458-3.79 37.251-12.664 40.228-14.919.813.573 1.645 1.164 2.458 1.848 43.39 33.85 114.361 36.549 140.502-3.531a84.152 84.152 0 0 0 23.497.389c13.569-.906 24.514-4.53 33.055-10.168-1.036-1.701-2.052-3.42-2.977-5.214-10.963 7.395-26.751 11.37-48.935 9.577l-1.423-.185a66.067 66.067 0 0 0 6.599-24.366l-5.065-.85a51.772 51.772 0 0 1 -2.736 19.374 41.912 41.912 0 0 1 -5.546 10.556 55.152 55.152 0 0 1 -20.613 18.173c-32.852 17.119-83.857 7.117-113.474-14.956-17.026-12.682-26.954-12.294-43.204-7.395-17.97 5.454-17.285-4.973-17.285-4.973-15.086-21.463-28.95-44.369-40.82-87.592-28.414-113.824 35.514-193.651 117.431-219.995 84.578-14.401 149.745 33.147 176.884 79.124a5.7 5.7 0 0 0 -1.997 1.849c-2.699 4.215.74 11.259.999 11.887l6.507 18.783 3.013-.573-7.394-20.428c-2.921-6.896.351-9.466.351-9.466a12.156 12.156 0 0 0 .333 7.081c.961 3.013 4.178 11.85 6.84 18.672.517 1.331.998 2.625 1.423 3.845l2.404-.462c-2.293-6.877-5.436-14.919-6.378-17.581-.814-2.237-1.202-3.088-2.237-6.693-1.405-4.88.517-4.991 2.588-5.157h5.546c2.126-1.147 6.674-3.402 9.41-4.77-32.815-55.461-98.554-92.528-184.741-79.92 67.995-16.527 145.216 3.05 191.692 69.29a140.863 140.863 0 0 1 8.301 13.791h-1.664a9.795 9.795 0 0 0 -8.412-4.88c-.166 0-6.359 0-5.546 6.267a20.58 20.58 0 0 0 1.59 5.379l4.622 9.706 1.22 2.588 4.437 8.967s3.309 6.581 3.494 10.075l11.961.222a27.395 27.395 0 0 0 -2.385-10.187c-1.849-4.677-7.395-21.87-9.243-25.308v-.167c1.43-.002 2.859.116 4.27.352 2.348 5.989 5.768 16.231 8.375 24.31h.98l2.07.166a.722.722 0 0 0 0-.147c1.128.092 5.25.443 6.729.739zm-332.008 175.275c8.097 14.79 15.215 24.311 17.396 26.548 0 .351.167.702.24 1.017-.166 2.144.315 8.578 12.942 6.23-3.846 7.395-18.1 3.272-15.326-6.489-2.052-2.551-7.08-10.723-7.08-10.723s.221 2.441.203 2.274c1.682 3.513 4.64 9.595 4.64 9.595-2.274 14.29 18.247 15.363 19.707 4.881h.11c1.073-.185 1.092 0 1.85-.407a10.465 10.465 0 0 1 -5.362 7.857c-4.418 2.218-5.694 6.138.98 5.657a91.419 91.419 0 0 0 33.092-9.336l2.995-1.645a34.895 34.895 0 0 0 -16.638-4.733 58.96 58.96 0 0 0 -12.738 1.46l.721-.203c16.343-5.398 26.418-2.034 34.515 3.161-.499.315-1.09.758-1.664 1.165-7.228 5.213-24.162 11.517-39.23 12.941-15.306 2.477-23.829-8.282-20.87-16.454l-.833-2.07c-.961-2.052-10.74-22.037-9.65-30.726zm311.543-185.498c1.091 4.751-2.348 7.302-5.749 3.383a12.93 12.93 0 0 1 -2.699-5.103l-.111-.295a14.317 14.317 0 0 1 -.314-4.53 15.203 15.203 0 0 1 -3.698-4.991c-2.015-5.972 0-7.395.887-7.672 3.31-.814 7.913 4.104 7.599 11.462a13.62 13.62 0 0 1 4.085 7.746z"/></g><path d="m356.836 179.902a13.623 13.623 0 0 0 -4.085-7.746c.314-7.395-4.289-12.276-7.598-11.462-.888.333-2.903 1.701-.888 7.672a15.193 15.193 0 0 0 3.698 4.991 14.317 14.317 0 0 0 .314 4.53l.111.296a12.946 12.946 0 0 0 2.699 5.102c3.383 3.919 6.84 1.368 5.749-3.383zm-8.152-8.301a9.987 9.987 0 0 1 -2.95-3.547 10.014 10.014 0 0 1 -1.044-4.495c4.068.056 5.269 6.009 3.994 8.042zm4.233 11.092a10.908 10.908 0 0 1 -3.346-7.561 5.14 5.14 0 0 1 3.346 7.58z" fill="#fff"/></g></svg>