<svg viewBox="0 0 500 500" xmlns="http://www.w3.org/2000/svg"><g clip-path="url(#a)"><path d="M382.586 321.746c-4.704 7.133-41.739 60.122-44.261 63.56-.205-.164-6.567-5.609-6.793-5.805 9.439-13.114 36.129-52.958 36.664-53.771 4.735-1.153 9.418-2.409 14.019-3.85l.371-.134z" fill="#fff"/><path d="M400.229 315.333c-6.712 10.612-43.324 65.784-51.981 78.31l-.206-.154c-1.266-1.153-2.902-2.543-4.714-4.056 2.954-4.21 36.798-54.553 46.721-70.137 3.427-1.225 6.803-2.563 10.18-3.963z" fill="#B1BABF"/><path d="M305.058 413.963c-1.225 3.088-2.398 8.337-1.915 12.176.101.789.256 1.57.464 2.337-2.893 13.288-8.492 13.505-9.974 13.309a2.586 2.586 0 0 1-.371-.072c5.527-4.9 5.353-13.772 10.993-26.103.258-.567.546-1.143.824-1.719a.154.154 0 0 1-.021.072z" fill="#fff"/><path d="M337.78 423.411c.154 2.491-2.759 6.176-5.342 7.092a18.34 18.34 0 0 1-6.753 1.142c-.761 0-1.513 0-2.243-.103.679-1.142 1.502-2.532 2.418-4.024 2.059-3.366 4.612-7.288 6.825-10.18a10.37 10.37 0 0 1 4.704 4.354c.26.535.394 1.123.391 1.719zm-15.141-17.765a15.016 15.016 0 0 1-3.829-5.415 131.576 131.576 0 0 0-13.484 23.294c.154.669.375 1.32.658 1.945 1.956 4.169 3.685 5.311 7.144 5.147 0 0 8.08-13.783 13.782-21.153a194.795 194.795 0 0 1-4.271-3.818z" fill="#B1BABF"/><path d="M318.81 400.231a21.472 21.472 0 0 1-.958-8.399l-.308.463c-2.172 3.376-4.313 6.773-6.351 10.232-2.038 3.458-5.795 10.725-5.939 11.013-.144.288-.958 5.682.072 9.974 0-.092.092-.226 0 0a131.545 131.545 0 0 1 13.484-23.283z" fill="#fff"/><path d="M354.414 416.268c-1.709-7.503-11.251-14.822-13.453-16.469-4.715-4.117-16.902-13.69-18.055-15.748-1.245-2.244-6.886-9.892-14.606-11.436 0 0-1.286-.185-1.472.813-.092.608.165 1.174 1.081 1.421a13.023 13.023 0 0 1 6.938 3.52 13.748 13.748 0 0 1 4.251 10.293 13.492 13.492 0 0 0 5.146 11.076c4.066 3.036 8.863 8.162 13.073 9.335.249.07.504.115.761.134 2.79.247 5.435-2.264 5.013-3.674a6.838 6.838 0 0 1-1.286 6.845c4.673 4.601 6.937 9.85 5.476 14.575-1.864 6.073-8.647 14.235-21.05 14.07-8.832-.113-14.019-2.573-16.284-3.983l.813-1.822c-5.146 1.246-7.071-6.423-7.153-6.763-2.893 13.289-8.492 13.505-9.974 13.309a2.338 2.338 0 0 1-.371-.072 10.726 10.726 0 0 0 5.435 6.423 4.78 4.78 0 0 0-5.723 2.552 4.78 4.78 0 0 0 1.729 6.023 4.794 4.794 0 0 0 6.639-1.349 4.789 4.789 0 0 0-1.348-6.639c-.113-.072-.216-.113-.33-.175.609.237 1.24.413 1.884.525 5.764.957 7.658-1.822 7.658-1.822a10.164 10.164 0 0 1-.659-1.904s-5.702 4.014-12.001-2.357c1.914.541 3.93.611 5.877.206 5.342-.793 6.073-2.471 6.433-2.78a.661.661 0 0 1 0-.154c4.622 2.512 9.727 3.685 16.994 3.829 8.152.155 15.955-2.398 20.586-6.402 4.632-4.004 10.005-12.445 7.978-21.4z" fill="#B1BABF"/><path d="M480.062 28.041s1.163 21.317-2.861 40.833c-3.891 18.857-6.032 26.042-6.032 26.042-8.235 4.827-21.564 10.766-41.049 14.009-36.366 6.062-69.366-3.706-105.392-17.849-36.026-14.142-84.249-29.376-128.983-24.24a199.597 199.597 0 0 0-90.909 33.967c-16.47 11.446-19.557 14.472-33.68 18.528 0 0 11.117 4.375 16.84 4.375 0 0-2.697 11.126-1.688 14.822 0 0 23.571-10.777 26.268-5.723 2.697 5.054-8.42 8.43-16.16 10.437-7.74 2.007-27.956 1.678-27.956 1.678s9.48 7.339 12.825 12.434c0 0-17.869 7.781-37.745 5.085 0 0-.659 7.359 15.677 19.413-3.48 1.245-7.885 3.262-10.613 6.175 0 0 17.118-3.53 27.874 8.451a14.072 14.072 0 0 1 3.438 10.746c-.587 7.277-3.376 10.057-10.231 14.586a84.037 84.037 0 0 0-12.115 6.052c-18.93 11.631-32.774 29.335-42.49 49.561a158.206 158.206 0 0 0-9.954 28.173 155.544 155.544 0 0 0-3.808 22.645C.762 333.387 0 349.568 0 349.568s8.492-11.899 12.475-17.601c3.984-5.703 29.078-37.261 65.66-46.412a140.045 140.045 0 0 1 34.493-4.22c26.762 0 50.683 7.205 64.846 14.173 20.587 9.944 54.297 33.412 98.547 40.751a205.7 205.7 0 0 0 33.288 2.573 254.864 254.864 0 0 0 34.276-2.388 1345.024 1345.024 0 0 1-18.733 27.267 25.514 25.514 0 0 0-14.174-6.289c-9.922-.937-14.894 5.146-14.894 5.146a16.371 16.371 0 0 0-4.117 8.317 17.624 17.624 0 0 0 .71 8.482c1.894 6.011 7.03 8.749 9.027 9.624-14.534 19.248-18.744 41.512-18.744 41.512l-6.618 5.836 2.388 9.676c-3.685 11.868 2.058 20.771 9.603 24.456a21.745 21.745 0 0 0 14.73 1.575 20.068 20.068 0 0 0 11.322-8.234c.41-.613.785-1.249 1.122-1.904a20.988 20.988 0 0 0 4.004-2.78c2.059.237 7.442.402 7.442.402 10.973-.093 21.698-3.201 29.85-10.149 6.444-5.764 13.536-15.594 13.783-29.027a29.584 29.584 0 0 0-7.936-21.554c52.999-77.816 87.409-127.913 109.375-178.884 58.197-135.098 8.553-191.432 8.337-191.875zm-94.481 325.562c-11.322 17.159-22.13 32.938-30.879 45.671a25.524 25.524 0 0 1 9.501 20.987c-.196 11.251-6.176 19.65-11.673 24.56-6.824 5.816-16.15 8.636-25.99 8.708a80.317 80.317 0 0 1-9.748-.772 13.849 13.849 0 0 1-6.309 4.704 13.652 13.652 0 0 1-1.503 3.036 14.065 14.065 0 0 1-11.683 6.279c-2.746-.12-5.42-.92-7.782-2.326a14.023 14.023 0 0 1-6.32-11.703v-.124c.011-2.22.555-4.405 1.586-6.371-.474-1.122-2.131-7.823-2.131-7.823l4.354-3.809c.35-.205 1.42-1.822 2.625-5.949a128.37 128.37 0 0 1 5.99-16.973 202.986 202.986 0 0 1 13.824-24.354c-.401-2.059-2.532-2.964-4.066-3.335a11.06 11.06 0 0 1-5.527-3.428 9.892 9.892 0 0 1-2.368-8.708 10.53 10.53 0 0 1 1.977-4.494 10.531 10.531 0 0 1 3.798-3.112 11.776 11.776 0 0 1 6.855-.834c9.027.834 15.697 9.212 15.697 9.212 8.986-12.537 29.85-43.632 30.334-44.26-27.4 5.239-55.707 5.949-79.257 2.058-42.748-7.092-75.634-29.85-96.879-40.225-21.245-10.376-61.759-20.988-103.467-10.365C34.832 290.475 7.236 328.93 7.236 328.93c12.465-87.821 66.905-102.622 72.052-104.105 7.926-7.421 18.322-30.066-6.3-45.341a112.723 112.723 0 0 1-15.439-11.827c5.147.608 17.251-1.029 23.962-3.643a76.94 76.94 0 0 1 15.44-4.241c-6.361-6.063-16.078-9.099-16.078-9.099 9.707-.608 24.879-3.943 34.276-8.235 9.398-4.292 14.555-11.827 13.032-15.162-1.524-3.335-10.005-1.513-10.005-1.513 3.036-4.549 10.293-6.371 10.293-6.371a59.8 59.8 0 0 0-36.17 10.18c2.326-4.993 9.974-13.968 9.974-13.968-2.903.957-10.942 3.469-11.446 3.623 32.855-25.31 69.427-47.585 120.666-47.956 51.24-.37 101.141 22.645 134.398 33.268 33.257 10.622 50.93 16.016 86.864 10.705 17.2-2.553 32.259-9.604 43.293-16.212 0 0 7.72-19.63 8.306-47.812 0 0 9.264 16.593 9.264 42.429.093 88.665-42.871 153.367-56.612 177.042-13.103 23.18-30.334 50.951-51.425 82.911z" fill="#B1BABF"/><path d="M305.336 423.484v-.062.062zM484.354 51.263c-.586 28.182-8.306 47.811-8.306 47.811-11.034 6.609-26.093 13.659-43.293 16.212-35.934 5.311-53.586-.062-86.864-10.705-33.278-10.643-83.169-33.607-134.398-33.308-51.229.298-87.811 22.645-120.574 47.914.505-.154 8.544-2.666 11.446-3.623 0 0-7.647 8.976-9.974 13.968a59.804 59.804 0 0 1 36.17-10.18s-7.277 1.822-10.293 6.371c0 0 8.492-1.832 10.005 1.513 1.513 3.346-3.654 10.942-13.052 15.162-9.397 4.22-24.57 7.586-34.276 8.235 0 0 9.717 3.036 16.078 9.099a76.938 76.938 0 0 0-15.44 4.241c-6.71 2.655-18.805 4.251-23.962 3.643a112.724 112.724 0 0 0 15.44 11.827c24.621 15.275 14.225 37.92 6.3 45.342-5.22 1.482-59.619 16.283-72.053 104.105 0 0 27.565-38.456 69.304-49.078 41.739-10.623 82.222 0 103.467 10.365 21.245 10.365 54.131 33.134 96.879 40.226 23.509 3.901 51.815 3.191 79.257-2.059-.443.679-21.348 31.775-30.334 44.261 0 0-6.67-8.379-15.697-9.213a11.776 11.776 0 0 0-6.855.834 10.54 10.54 0 0 0-5.775 7.607 9.902 9.902 0 0 0 2.368 8.708 11.065 11.065 0 0 0 5.527 3.427c1.534.371 3.665 1.307 4.066 3.335a202.986 202.986 0 0 0-13.824 24.354 128.37 128.37 0 0 0-5.99 16.973c-1.205 4.117-2.275 5.744-2.625 5.95l-4.334 3.818s1.658 6.701 2.131 7.823a13.866 13.866 0 0 0-1.585 6.372v.123a14.014 14.014 0 0 0 6.248 11.755 16.633 16.633 0 0 0 7.782 2.326A14.057 14.057 0 0 0 309 460.518a13.673 13.673 0 0 0 1.503-3.036 13.852 13.852 0 0 0 6.31-4.704 80.3 80.3 0 0 0 9.747.772c9.841-.072 19.166-2.892 25.991-8.708 5.476-4.931 11.476-13.309 11.651-24.58a25.512 25.512 0 0 0-9.552-20.988 2540.909 2540.909 0 0 0 30.88-45.671c21.09-31.96 38.342-59.7 51.466-82.921 13.731-23.572 56.694-88.326 56.612-177.042 0-25.785-9.254-42.377-9.254-42.377zM368.165 325.73c4.735-1.153 9.419-2.409 14.02-3.85l.401-.134c-4.704 7.133-41.739 60.122-44.261 63.56-.205-.164-6.567-5.609-6.793-5.805 9.408-13.114 36.098-52.958 36.633-53.771zm-56.972 76.797a345.08 345.08 0 0 1 6.351-10.232l.308-.463c-.24 2.836.085 5.691.958 8.399a15.024 15.024 0 0 0 3.829 5.415c1.688 1.554 3.088 2.799 4.271 3.777-5.702 7.37-13.782 21.153-13.782 21.153-3.459.205-5.147-.937-7.144-5.147a10.36 10.36 0 0 1-.658-1.945c-1.03-4.293-.093-9.82-.072-9.974.02-.155 3.983-7.71 5.939-10.983zm21.492 14.812a10.365 10.365 0 0 1 4.704 4.354c.26.535.394 1.123.391 1.719.154 2.49-2.759 6.175-5.342 7.092a18.338 18.338 0 0 1-6.752 1.142c-.762 0-1.514 0-2.244-.103.679-1.142 1.502-2.532 2.418-4.025 2.059-3.365 4.612-7.308 6.825-10.179zm13.751 20.37c-4.59 4.004-12.351 6.556-20.586 6.402-7.267-.144-12.352-1.317-16.994-3.829a.661.661 0 0 0 0 .154c-.36.309-1.091 1.987-6.433 2.78a12.355 12.355 0 0 1-5.877-.206c6.299 6.371 12.001 2.357 12.001 2.357.156.655.377 1.293.659 1.904 0 0-1.894 2.779-7.658 1.822a9.847 9.847 0 0 1-1.884-.525c.114.062.217.103.33.175a4.86 4.86 0 0 1-1.084 8.691 4.857 4.857 0 1 1-.213-9.278 10.71 10.71 0 0 1-5.435-6.423c5.528-4.899 5.353-13.772 10.993-26.103.258-.566.546-1.143.824-1.719a.162.162 0 0 1 0 .062c-1.225 3.088-2.399 8.337-1.915 12.177.101.788.256 1.569.463 2.336.083.34 1.977 8.008 7.154 6.763l-.813 1.822c2.264 1.41 7.452 3.87 16.284 3.983 12.403.165 19.186-7.998 21.049-14.071 1.462-4.724-.803-9.974-5.476-14.575a6.836 6.836 0 0 0 1.287-6.845c.422 1.41-2.224 3.922-5.013 3.675a4.015 4.015 0 0 1-.762-.134c-4.21-1.173-9.006-6.299-13.072-9.336a13.483 13.483 0 0 1-5.147-11.075 13.728 13.728 0 0 0-4.251-10.293 13.018 13.018 0 0 0-6.937-3.521c-.916-.247-1.174-.813-1.081-1.42.185-1.029 1.472-.813 1.472-.813 7.72 1.544 13.381 9.191 14.606 11.435 1.153 2.059 13.381 11.58 18.054 15.749 2.203 1.606 11.745 8.924 13.453 16.469 2.007 8.924-3.417 17.406-7.998 21.41zm1.771-44.055-.206-.154c-1.266-1.153-2.903-2.543-4.714-4.056 2.954-4.21 36.798-54.554 46.72-70.137 3.469-1.225 6.845-2.563 10.18-3.963-6.711 10.602-43.324 65.752-51.98 78.3v.01zm63.015-92.041c-23.325 10.869-77.148 28.893-130.723 18.888-18.652-3.479-43.232-9.264-75.665-28.986-21.297-12.897-44.261-25.228-97.898-24.992-44.405.217-72.927 20.34-82.006 27.792 24.076-78.599 95.325-67.101 95.325-67.101-13-6.238-28.605-3.85-28.605-3.85 22.316-35.11-13.638-51.548-13.638-51.548 3.026 0 16.675-3.942 23.674-6.371 6.999-2.43 19.783-4.118 19.783-4.118-4.467-4.117-18.27-7.421-18.27-7.421 13.042 0 24.848-6.32 33.062-14.874 2.861-2.974 10.694-17.869 1.811-23.674-8.172-5.311-24.384.587-24.394.597-.011.01 48.532-52.29 148.643-29.953 47.492 10.602 101.027 38.414 150.455 38.713 16.613.103 53.267-5.291 75.14-27.308-1.225 41.883-8.996 100.471-76.694 204.195v.011zM305.367 423.412v.072-.072z"/><path d="M412.724 124.797c-49.407-.299-102.931-28.11-150.455-38.713-100.111-22.336-148.622 29.933-148.643 29.953-.021.021 16.222-5.908 24.395-.597 8.883 5.775 1.029 20.669-1.812 23.675-8.234 8.553-20.02 14.873-33.061 14.873 0 0 13.803 3.315 18.27 7.422 0 0-12.805 1.677-19.783 4.117-6.98 2.439-20.587 6.371-23.675 6.371 0 0 35.954 16.469 13.639 51.548 0 0 15.604-2.388 28.604 3.85 0 0-71.228-11.497-95.325 67.122 9.08-7.483 37.601-27.606 82.006-27.792 53.607-.236 76.602 12.095 97.898 24.992 32.465 19.681 57.014 25.506 75.665 28.986 53.597 10.004 107.419-8.019 130.723-18.888 67.75-103.838 75.521-162.426 76.694-204.258-21.873 22.017-58.526 27.411-75.14 27.339zm-36.746 119.812c-23.963 16.953-61.481 22.13-61.481 22.13-.422 1.627-2.903 3.335-2.903 3.335s3.84 1.421 13.268 8.513c9.429 7.092 6.866 6.742 9.871 8.77 3.006 2.027 4.714 1.451 4.714 1.451a13.43 13.43 0 0 1 1.03 4.529c1.256 1.184 7.401 7.051 1.688 13.124s-12.352.432-12.352.432a9.798 9.798 0 0 1-4.611-.278s-12.229 7.699-24.374-.69c-9.882-6.814-9.264-14.894-8.708-17.683a53.387 53.387 0 0 1-10.592 4.56c-9.912 3.088-22.563 4.395-35.131.216a53.595 53.595 0 0 1-20.483-12.939 62.246 62.246 0 0 1-11.991-16.613 53.103 53.103 0 0 1-1.092-2.398c-.864 2.059-5.002 9.871-17.817 9.315-14.75-.638-19.866-14.153-19.866-14.153a9.909 9.909 0 0 1-3.839-2.553s-8.667.515-9.573-7.781c-.906-8.296 7.555-9.264 9.264-9.449a13.225 13.225 0 0 1 3.531-3.006s1.029 1.493 4.642 1.688c3.613.196 1.369-1.029 13.165-1.029s15.707 1.214 15.707 1.214-.947-2.861-.298-4.415c0 0-26.763-26.762-35.676-54.739-8.914-27.977-6.176-38.353 4.621-67.853 0 0 7.998 50.262 32.547 81.841a249.87 249.87 0 0 0 40.71 40.812h.751a21.622 21.622 0 0 1-5.003-9.16c-2.192-8.647-5.784-16.686-7.431-23.088-1.647-6.402 2.058-19.228 2.058-19.228-4.92-7.884-2.521-20.864-2.521-20.864a15.42 15.42 0 0 0 4.693-3.726c2.059-2.47 1.318-9.758 2.965-20.483 1.647-10.726 8.605-21.811 24.045-28.142 15.439-6.33 38.475 1.956 38.681 2.059.206.103 23.602 7.421 32.084 21.708 8.481 14.287 7.462 27.421 2.316 36.963-5.147 9.542-10.118 14.935-9.984 18.126a15.175 15.175 0 0 0 1.492 5.795s-5.919 11.806-14.657 15.193c0 0-4.807 12.424-9.995 16.541-5.188 4.117-12.887 8.358-19.856 13.937a21.552 21.552 0 0 1-9.263 4.251l.669.494a249.177 249.177 0 0 0 56.9-7.967c38.63-10.396 75.325-45.66 75.325-45.66-9.191 29.984-13.288 39.906-37.24 56.869v.031z" fill="#A30D2D"/><path d="m287.858 190.169.577-1.698c.576-1.74-.711-2.522-.783-5.332a10.753 10.753 0 0 1 .361-4.539 2.895 2.895 0 0 0-1.719-3.49l-.299-.113-.268-.072a2.88 2.88 0 0 0-3.499 1.729 10.836 10.836 0 0 1-2.471 3.829c-1.76 2.203-3.262 2.059-3.839 3.788l-.576 1.698a2.73 2.73 0 0 0 .741 2.759c.351.38.789.669 1.276.844a2.93 2.93 0 0 0 3.788-1.678.486.486 0 0 1 .889-.049c.06.114.073.246.037.368a2.925 2.925 0 0 0 1.997 3.613 3.458 3.458 0 0 0 1.513.103 2.726 2.726 0 0 0 2.275-1.76zm7.154-17.17c0 1.905.659 9.264 3.88 11.189h.072c3.222 2.203 9.933 3.232 13.124 2.841.417-.077.83-.176 1.235-.299a14.61 14.61 0 0 0 3.83-2.593 19.038 19.038 0 0 0 3.623-5.579c.388-.892.711-1.81.967-2.749 0 0 .68-3.088 1.997-3.582l.412-.061h.092a27.4 27.4 0 0 0-8.769-.494l-1.338.185c-5.198.947-10.047 1.739-13.382.617a8.791 8.791 0 0 1-2.84-1.646l-.618-.556a16.163 16.163 0 0 1-1.976-2.285l-.062-.083c-.021.021-.257 3.212-.247 5.095zm-37.549-22.974c.772 1.163-.567 4.056-.567 4.056a21.062 21.062 0 0 0-.833 2.583c-.772 2.996-1.03 6.711.175 9.696.051.103.833 1.462.792 1.503a1.819 1.819 0 0 1-.226.175l.226-.164s.484.669.793 1.029c2.305 2.233 8.286 5.455 12.187 5.651h.093c3.726.412 8.666-5.064 9.829-6.588 1.164-1.523 2.924-4.22 2.924-4.22a17.415 17.415 0 0 1-3.088.659c-.268 0-.546.02-.834.062h-.051a8.988 8.988 0 0 1-3.263-.392c-3.325-1.111-6.711-4.673-10.293-8.564a21.088 21.088 0 0 0-.958-.957 26.885 26.885 0 0 0-7.267-4.868l.361.339z"/><path d="M266.418 233.286h.072a27.945 27.945 0 0 0 5.928 1.4c2.19.236 4.403.149 6.567-.257 4.931-.875 10.572-5.929 12.692-7.432 2.12-1.503 10.159-6.804 11.971-8.09a15.326 15.326 0 0 0 5.218-5.517c1.874-3.171 5.034-10.53 5.034-10.53s-3.037-.597-4.045-.721v.083c-.453.792-4.118 7.205-5.394 8.522h-.103c.782.453 3.088 1.894 3.469 3.582a35.795 35.795 0 0 1-8.605 5.641 123.217 123.217 0 0 0-14.781 8.523 11.824 11.824 0 0 1-4.385 1.667c-1.143-2.058-5.147-4.58-10.293-6.31-5.353-1.801-10.293-2.14-12.29-1.029a11.828 11.828 0 0 1-2.81-4.323 123.667 123.667 0 0 0-6.66-15.707 36.002 36.002 0 0 1-3.458-9.696c1.605-1.349 5.239-.721 5.239-.721a8.831 8.831 0 0 1 0-1.029c0-2.687.782-8.235.885-9.038a.706.706 0 0 0 0-.092c-.865-.515-3.664-1.863-3.664-1.863a.561.561 0 0 0 0 .082c-.216.875-1.915 7.926-2.306 11.322a15.191 15.191 0 0 0 .834 7.545c.679 2.121 3.88 11.199 4.663 13.67.102.308.216.7.339 1.142.844 3.14 2.326 9.264 5.301 12.445a23.499 23.499 0 0 0 10.582 6.731zm10.941-80.821c3.603 4.117 9.264 9.366 12.692 10.468 3.427 1.101 11.054.453 16.469-.69 5.424-.875 13.484 0 13.484-.082-3.335-4.117-14.658-2.944-21.039-2.646-5.528.433-7.206-.391-7.566-.535-.36-.144-2.192-.453-6.361-4.117-4.9-4.117-13.227-11.847-18.353-10.571-.02.113 6.938 4.23 10.674 8.173zm-21.132 19.587c-.133-.185-1.811-2.593.33-3.849l.247-.165c.08-.052.155-.111.226-.175 0 0-.741-1.4-.792-1.503-1.236-2.985-.947-6.701-.175-9.696.222-.878.5-1.741.833-2.583 0 0 1.339-2.893.567-4.056l-.289-.298h-.061s-4.21 7.709-4.581 11.703c-.37 3.994-.669 7.689 3.695 10.622zm13.876 2.471s.072 1.245-2.584 3.015c0 0 4.282 1.369 7.504-.401 3.221-1.77 7.503-9.851 12.938-8.09 5.435 1.76 3.932 10.9 5.435 14.256 1.503 3.355 5.486 4.755 5.733 4.837-1.029-2.995-.226-3.952-.226-3.952-3.222-1.925-3.87-9.264-3.881-11.189-.01-1.925.216-5.074.227-5.146-2.419 1.245-11.261-1.719-12.352-4.118 0 0-1.771 2.707-2.923 4.221-1.153 1.513-6.145 6.978-9.871 6.567zm53.658-2.254c-1.318.463-1.997 3.582-1.997 3.582-.256.938-.58 1.857-.968 2.749a19 19 0 0 1-3.623 5.578 14.608 14.608 0 0 1-3.829 2.594c.039.183.094.362.165.536.978 2.398-2.059 3.283-2.059 3.283 5.28.288 7.298-2.861 9.418-6.279 2.121-3.417 3.418-12.094 3.418-12.094h-.093l-.432.051z" fill="#B1BABF"/><path d="M251.101 179.217a66.508 66.508 0 0 1 6.084 2.985c2.943 1.667 6.114 3.633 7.339 6.979a.284.284 0 0 0 0 .092c.321.885.368 1.847.133 2.759a1.015 1.015 0 0 0-.123-.412c-.268-.525-.731-.906-1.029-1.4a11.685 11.685 0 0 0-2.203-2.058 18.716 18.716 0 0 1-1.637 3.88 30.117 30.117 0 0 0-1.811 3.438.162.162 0 0 1 0 .062c-1.246 3.232.206 6.649.545 6.67.34.02 1.256-.36 2.872-4.9a3.61 3.61 0 0 0 .175-.555 2.431 2.431 0 0 0-.124-.927c.196-.741 1.143-.679 1.74-.607.205.018.408.053.607.103a20.484 20.484 0 0 0 1.03-3.171 9.992 9.992 0 0 0-2.327-9.418c-2.933-3.345-10.478-5.836-13.298-7.256-2.821-1.421-5.373-8.235-5.034-12.96 0 0-.267 2.625-.267 5.271-.013 1.01.035 2.021.144 3.026.054.409.133.815.236 1.214.793 2.749.886 4.519 6.948 7.185zm41.883 26.793c.216.123.566.257.7.484.146.192.276.395.391.607l-.895.144c-.165 0-.906.257-.906.484-1.441 4.611-1.029 5.424-.659 5.64.371.217 3.5-1.647 4.457-4.982 0 0 .535-2.81.649-3.911a19.549 19.549 0 0 1 1.029-4.055 8.589 8.589 0 0 0-5.085 1.132 10.996 10.996 0 0 0-1.184 3.777s1.256.546 1.503.68zm22.377-8.327c-3.087-.576-10.632-3.088-14.986-2.234a10.092 10.092 0 0 0-6.928 4.818c2.409-2.78 6.784-2.666 10.088-2.244 2.585.346 5.148.838 7.678 1.472 6.464 1.523 7.597.175 9.923-1.575a19.393 19.393 0 0 0 4.858-5.981l.072-.113c-2.841 3.376-7.956 6.361-10.705 5.857zm-26.381-13.32v-.062a9.039 9.039 0 0 1 .237-3.829 4.456 4.456 0 0 0-2.913-5.363 2.896 2.896 0 0 1 1.719 3.49 10.738 10.738 0 0 0-.36 4.539c.072 2.81 1.358 3.592.782 5.332l-.577 1.698a2.725 2.725 0 0 1-2.274 1.76.162.162 0 0 1 0 .062 3.42 3.42 0 0 1-2.234 2.059c2.512.834 5.147-.247 5.877-2.44l.546-1.626a4.425 4.425 0 0 0-.185-3.088 7.461 7.461 0 0 1-.618-2.532zm-13.638 1.606.576-1.698c.577-1.74 2.059-1.585 3.839-3.788a10.836 10.836 0 0 0 2.471-3.829 2.88 2.88 0 0 1 3.5-1.729 4.465 4.465 0 0 0-5.6 2.491 8.593 8.593 0 0 1-2.141 3.201 7.359 7.359 0 0 1-1.997 1.657 4.38 4.38 0 0 0-2.058 2.357l-.546 1.626c-.731 2.183.71 4.632 3.211 5.476a3.4 3.4 0 0 1-.545-2.985.175.175 0 0 1 0-.072 2.731 2.731 0 0 1-.71-2.707z" fill="#B1BABF"/><path d="M244.534 193.133a36.045 36.045 0 0 0 3.459 9.697 123.811 123.811 0 0 1 6.66 15.707 11.815 11.815 0 0 0 2.81 4.323c2.007-1.112 6.937-.772 12.29 1.029 5.146 1.73 9.14 4.262 10.293 6.31a11.824 11.824 0 0 0 4.385-1.667 123.217 123.217 0 0 1 14.781-8.523 35.795 35.795 0 0 0 8.605-5.641c-.392-1.688-2.687-3.088-3.469-3.582a9.338 9.338 0 0 0-3.294 1.153c-1.081.793-4.992 6.608-10.108 8.801.484-2.882-1.379-4.375-1.863-4.323-.484.051-.844 1.183-.947 1.471-.103.289-1.091 2.234-1.42 3.15-.33.916-.237 1.029-.237 1.029-.824 0-1.647-.072-2.46-.133a79.093 79.093 0 0 0 2.141-4.416 1.03 1.03 0 0 0-.824-1.493c-.73-.113-1.461-.226-2.192-.37h-.072a1.376 1.376 0 0 0-1.585.762l-.278.689c-.34.803-.7 1.616-1.03 2.419a.337.337 0 0 1-.051.144 2.665 2.665 0 0 0-.062 1.874 12.171 12.171 0 0 1-2.11-.227 7.96 7.96 0 0 1-1.256-.432c.282-.27.503-.596.649-.957.731-1.781 1.853-4.55 1.853-4.55s.442-1.194-.33-1.421a68.645 68.645 0 0 1-3.088-.854 1.032 1.032 0 0 0-1.214.69c-.165.411-.443 1.029-.546 1.348l-1.184 3.397a.089.089 0 0 1 0 .051 2.62 2.62 0 0 0 0 1.411s-1.029-.206-1.533-.35a5.49 5.49 0 0 1-1.338-.7c.169-.23.304-.483.401-.752.474-1.688.937-3.798 1.338-5.568a1.182 1.182 0 0 0-.71-1.287 73.79 73.79 0 0 1-2.635-1.029 1.027 1.027 0 0 0-1.235.772c-.35 1.595-.752 3.51-1.03 4.899-.07.57.046 1.148.33 1.647a16.205 16.205 0 0 1-1.894-.731c-.483-.245-.951-.52-1.4-.823.494 0 .772-1.091.772-1.091.546-1.143.916-2.131 1.348-3.212 0 0 0-.092.052-.144v-.103a1.51 1.51 0 0 0-.504-1.842c-1.153-.577-2.45-1.256-2.461-1.256a.812.812 0 0 0-.766-.042.818.818 0 0 0-.469.608 23.87 23.87 0 0 0-1.41 3.881 5.934 5.934 0 0 0-.051 1.358 4.67 4.67 0 0 1-2.141-1.924 7.092 7.092 0 0 0 .885-3.5c0-1.482.103-2.862-.587-3.356-.689-.494-1.842.752-2.439 1.637a5.215 5.215 0 0 0-.721 1.389v.114c-2.779-4.838-2.388-11.858-2.769-13.145a10.146 10.146 0 0 0-2.007-2.995s-3.726-.669-5.332.679zm41.441-18.137.298.113-.298-.113z" fill="#fff"/><path d="m361.763 237.455-.196.165s-26.391 15.707-66.462 18.579a57.92 57.92 0 0 1 3.365 5.641 176.676 176.676 0 0 0 37.056-5.744 139.786 139.786 0 0 0 22.295-8.183c7.3-3.339 14.179-7.53 20.493-12.486a98.178 98.178 0 0 0 11.323-10.674c4.796-5.321 9.171-11.662 11.538-18.476l.186-.566c-.227.453-7.854 17.982-39.598 31.744z" fill="#B1BABF"/><path d="M288.167 247.666a62.327 62.327 0 0 1 4.416 5.065l4.848-.371c7.349-.617 14.698-1.503 21.965-2.82a222.3 222.3 0 0 0 38.003-10.293 128.208 128.208 0 0 0 4.364-1.822c31.744-13.762 39.371-31.291 39.567-31.744 0 .082-1.307 1.132-3.356 2.789a199.79 199.79 0 0 1-2.933 2.368c-11.92 9.418-36.798 26.35-77.302 33.638a224.74 224.74 0 0 1-29.572 3.19z" fill="#fff"/><path d="M294.147 278.021c-8.234 5.146-26.505 9.943-44.126 4.035-17.293-5.806-28.821-20.587-32.475-29.593a3.621 3.621 0 0 1 1.986-4.632 6.815 6.815 0 0 0-3.036 1.41 2.832 2.832 0 0 0-.258.566c-1.935 5.785 9.789 30.365 31.909 37.797 22.12 7.431 46.093-4.447 48.255-10.89.092-.274.154-.557.185-.844a7.025 7.025 0 0 0-1.462-2.553 3.507 3.507 0 0 1-.978 4.704z" fill="#A30D2D"/><path d="M264.493 238.927c-20.401-6.845-42.532 3.273-47.349 9.418a5.09 5.09 0 0 0-.545.782s0 .093-.062.113a6.826 6.826 0 0 1 3.036-1.41 3.621 3.621 0 0 0-1.986 4.632c3.685 8.996 15.182 23.788 32.475 29.593 17.622 5.908 35.923 1.132 44.126-4.035a3.508 3.508 0 0 0 1.03-4.704 7.009 7.009 0 0 1 1.461 2.553 14.77 14.77 0 0 0-.967-6.238c-3.376-9.778-14.328-25.033-31.219-30.704zm12.887 23.293v.844l-2.213-1.112a30.93 30.93 0 0 1-1.246 4.962 71.706 71.706 0 0 0-3.386-1.853 38.05 38.05 0 0 0 1.194-4.714 104.144 104.144 0 0 0-3.737-1.627 50.708 50.708 0 0 1-1.204 4.499c-1.173-.536-2.347-1.03-3.53-1.544.463-1.452.874-2.903 1.266-4.354a126.3 126.3 0 0 0-3.799-1.4c-.442 1.41-.895 2.83-1.369 4.251a87.969 87.969 0 0 0-3.643-1.225c.483-1.421.978-2.82 1.482-4.21a124.4 124.4 0 0 0-3.87-1.163 75.688 75.688 0 0 0-1.616 4.23 89.67 89.67 0 0 0-3.747-.905 49.11 49.11 0 0 1 1.74-4.293 134.207 134.207 0 0 0-3.974-.947 38.695 38.695 0 0 0-1.873 4.447 95.442 95.442 0 0 0-3.819-.566 30.372 30.372 0 0 1 1.977-4.653l-2.45-.442c.175-.268.36-.525.535-.783a119.487 119.487 0 0 0-19.855-1.945c4.57-1.029 12.351-1.492 21.615-.401.072-.083.134-.175.206-.268l2.12.278a31.59 31.59 0 0 1 2.059-2.666 96.84 96.84 0 0 1 3.489.525 50.454 50.454 0 0 0-1.852 2.738 79.5 79.5 0 0 1 3.839.782c.525-.967 1.029-1.914 1.637-2.83 1.091.226 2.161.483 3.211.751a95.646 95.646 0 0 0-1.42 2.923c1.204.319 2.418.669 3.633 1.03.381-1.03.762-2.059 1.153-3.016 1.029.319 2.059.658 3.036 1.029a170.832 170.832 0 0 1-.895 3.088c1.194.432 2.367.875 3.53 1.338.227-1.029.433-2.12.628-3.17 1.03.422 2.007.864 3.016 1.338a62.951 62.951 0 0 1-.401 3.211c1.204.546 2.388 1.102 3.53 1.668.093-1.091.144-2.172.165-3.253a76.235 76.235 0 0 1 3.088 1.699 34.575 34.575 0 0 1 0 3.252l1.853 1.029v.515c7.771 4.55 13.556 9.46 16.469 12.97a121.356 121.356 0 0 0-16.572-10.057z" fill="#DC4405"/><path d="M220.201 247.718c6.662.093 13.303.744 19.856 1.945a36.811 36.811 0 0 1 1.739-2.347c-9.212-1.06-17.025-.617-21.595.402zm57.21 11.621v2.882a121.36 121.36 0 0 1 16.541 10.087c-2.985-3.51-8.77-8.42-16.541-12.969z"/><path d="M277.411 259.339v-.515l-1.853-1.029v-3.253a76.204 76.204 0 0 0-3.088-1.698c0 1.08-.072 2.161-.165 3.252a111.734 111.734 0 0 0-3.53-1.667c.164-1.03.298-2.152.401-3.212a94.236 94.236 0 0 0-3.016-1.338c-.195 1.029-.401 2.11-.628 3.17a121.686 121.686 0 0 0-3.53-1.338c.309-1.029.607-2.058.895-3.088-1.029-.36-2.058-.7-3.036-1.029-.391 1.029-.772 1.997-1.153 3.016a61.844 61.844 0 0 0-3.633-1.029c.463-1.03.936-1.966 1.42-2.924a66.837 66.837 0 0 0-3.212-.751 57.94 57.94 0 0 0-1.636 2.831 79.522 79.522 0 0 0-3.839-.783 51.25 51.25 0 0 1 1.852-2.738 73.197 73.197 0 0 0-3.489-.525c-.71.865-1.379 1.75-2.059 2.666l-2.12-.278c-.072.093-.134.186-.206.268a36.157 36.157 0 0 0-1.739 2.347c-.175.257-.361.515-.536.782l2.45.443a30.314 30.314 0 0 0-1.976 4.652c1.276.165 2.552.35 3.819.566a38.504 38.504 0 0 1 1.873-4.446c1.307.288 2.635.607 3.973.947a49.275 49.275 0 0 0-1.74 4.292c1.256.278 2.512.576 3.747.906a70.194 70.194 0 0 1 1.616-4.231c1.277.361 2.573.752 3.87 1.163-.504 1.39-1.029 2.79-1.482 4.21 1.225.381 2.44.793 3.644 1.225.473-1.42.926-2.841 1.369-4.251 1.287.453 2.553.916 3.798 1.4a99.14 99.14 0 0 1-1.266 4.354c1.184.484 2.357 1.029 3.531 1.544a51.033 51.033 0 0 0 1.204-4.498c1.276.525 2.522 1.029 3.736 1.626a38.05 38.05 0 0 1-1.194 4.714 72.658 72.658 0 0 1 3.387 1.853 30.916 30.916 0 0 0 1.245-4.961l2.213 1.112v-.844c.093-.999.103-1.956.083-2.913zm-89.365-79.834 1.142 2.058c.741 1.215 1.668 2.831 2.872 4.797a168.738 168.738 0 0 0 23.674 29.469s12.774 12.599 18.209 17.385a63.964 63.964 0 0 1 6.598-1.42 226.103 226.103 0 0 1-21.853-20.535c-34.461-37.344-41.049-72.052-43.231-81.388-.031.072-3.314 20.514 12.589 49.634z" fill="#fff"/><path d="M220.16 233.76c.371.319 3.366 3.304 3.664 3.17a60.674 60.674 0 0 1 6.084-2.48c-30.396-26.505-41.955-55.1-41.955-55.1l.093.165c-15.903-29.129-12.62-49.572-12.62-49.572l-.206.587a46.324 46.324 0 0 0-2.058 12.352 78.699 78.699 0 0 0 1.76 20.782 102.475 102.475 0 0 0 7.153 20.833c3.17 6.877 6.96 13.45 11.323 19.639a156.992 156.992 0 0 0 17.992 21.359 190.222 190.222 0 0 0 8.77 8.265z" fill="#B1BABF"/><path d="m189.219 181.553-1.143-2.059c.34.69.711 1.369 1.143 2.059zm-4.488 63.673c-.25.447-.401.942-.442 1.452.044.55.24 1.077.566 1.523 0 0 9.418.504 15.336 2.131.237-.844.546-1.884.958-3.14a8.21 8.21 0 0 1 1.029-2.058l-.062.062a96.88 96.88 0 0 0-17.385.03z" fill="#B1BABF"/><path d="M184.731 245.226a97.056 97.056 0 0 1 17.334 0l.062-.062a9.139 9.139 0 0 1 5.054-3.746c-2.553-.412-5.538-.752-8.101-.978a95.78 95.78 0 0 0-3.84-.268c-.802 0-1.616-.062-2.429-.082a14.547 14.547 0 0 0-4.961 1.822 8.77 8.77 0 0 0-3.119 3.314z" fill="#fff"/><path d="M182.57 245.329c0-.072.267-.473.308-.545a7.864 7.864 0 0 1 2.841-2.821 16.82 16.82 0 0 1 6.783-1.935h-1.029a51.544 51.544 0 0 0-7.009.566c-1.96.349-3.941.558-5.929.628a10.809 10.809 0 0 1-1.76-.154 7.981 7.981 0 0 1-1.565-.474c.051.042 1.163 4.735 7.36 4.735z" fill="#fff"/><path d="M214.087 231.146c-.329.093-.566.371-.473.906a7.406 7.406 0 0 1-.165 4.457 7.825 7.825 0 0 1-4.333 4.704 7.743 7.743 0 0 0-4.529 5.362c-.597 2.841-2.141 6.588-1.709 9.058.154.947 1.091 2.244 3.242 2.162a3.535 3.535 0 0 1-3.983.607c-1.781 3.284-4.457 4.632-9.336 3.685-4.879-.947-11.322-5.743-12.609-13.824a13.03 13.03 0 0 1 2.625-.154 2.864 2.864 0 0 1-.628-1.544 2.97 2.97 0 0 1 .35-1.235c-6.176 0-7.308-4.694-7.329-4.776a6.083 6.083 0 0 0-2.059 4.272 2.723 2.723 0 0 0-2.92-2.255 2.727 2.727 0 1 0 2.92 3.181.427.427 0 0 0 0-.113c.041.347.107.691.196 1.029a6.418 6.418 0 0 0 1.029 2.141 3.273 3.273 0 0 0 1.822 1.42c.053-.061.101-.126.144-.195.062-.072.618-.649.69-.607-.628-.402-3.294-2.43-1.678-6.845a7.55 7.55 0 0 0 3.212 6.114c.36 1.647 2.954 11.528 12.64 14.595 10.571 3.366 14.636-1.677 15.594-3.582.422-.864 1.502-3.561 1.502-3.561.917-2.625 3.243-12.836 4.118-14.03.875-1.194 3.489-5.97 2.429-10.365.02-.031-.196-.751-.762-.607z" fill="#B1BABF"/><path d="M308.805 275.427a9.538 9.538 0 0 1 1.78 6.176 95.787 95.787 0 0 1 13.783 10.499 8.675 8.675 0 0 0-.453-4.57 14.39 14.39 0 0 0-2.861-4.447l-.443-.33a79.037 79.037 0 0 0-3.603-2.429 131.61 131.61 0 0 0-5.146-3.149c-.834-.484-1.668-.947-2.512-1.421l-.545-.329z" fill="#fff"/><path d="M325.521 288.838a8.946 8.946 0 0 1 .597 3.737 5.78 5.78 0 0 1-.134.916 12.189 12.189 0 0 0 1.667 1.091 8.232 8.232 0 0 0 1.812.679c.468.115.949.174 1.431.175a6.174 6.174 0 0 0 3.685-1.328h.051a8.075 8.075 0 0 1-1.492-.545 9.601 9.601 0 0 1-1.513-.957c-.659-.484-2.584-2.306-3.088-2.78-.628-.638-1.277-1.266-1.915-1.904-.638-.638-2.47-2.326-3.252-2.923l-2.244-1.791c.206.021 3.643 3.644 4.395 5.63z" fill="#fff"/><path d="M329.566 295.251a8.314 8.314 0 0 1-1.812-.679 12.56 12.56 0 0 1-1.667-1.091 3.09 3.09 0 0 1-.463 1.194 2.951 2.951 0 0 1-1.431.854 14.245 14.245 0 0 1 1.987 1.709c-5.919 5.64-13.834 5.65-18.405 3.407-4.57-2.244-5.774-4.879-5.208-8.595a3.5 3.5 0 0 1-2.81-2.862c.047.028.092.059.134.093a2.912 2.912 0 0 0 3.747.144 11.785 11.785 0 0 0 2.326-3.922c.597-1.441 1.111-2.923 1.781-4.333.265-.58.452-1.193.555-1.822a8.064 8.064 0 0 0-.936-5.147 7.884 7.884 0 0 1-.628-6.371 7.574 7.574 0 0 1 2.563-3.654.681.681 0 0 0 .317-.477.69.69 0 0 0-.152-.552c-.361-.453-.958 0-.958 0-3.499 2.861-4.292 8.234-4.323 9.737-.031 1.503-4.333 11.024-5.146 13.669a25.858 25.858 0 0 0-.947 3.747c-.258 2.11-.175 8.564 10.293 12.269 9.572 3.387 17.57-2.964 18.857-4.065a7.295 7.295 0 0 0 5.589-2.141c.247-.238.478-.493.69-.762-1.03 3.397-3.191 4.23-4.509 4.416a4.14 4.14 0 0 1-.957 0c0 .092 0 .154.062.236.09.294.131.6.123.906.268.114.554.176.844.185a5.356 5.356 0 0 0 3.541-1.338c.238-.197.461-.41.669-.638a2.645 2.645 0 1 0 .793-1.029 6.074 6.074 0 0 0 .833-3.5 7.267 7.267 0 0 0-.102-.792 6.182 6.182 0 0 1-3.685 1.327 6.046 6.046 0 0 1-1.565-.123z" fill="#B1BABF"/><path d="M310.102 283.712a133.935 133.935 0 0 1-1.143 3.088 92.814 92.814 0 0 1 13.525 7.566 2.893 2.893 0 0 0 1.369-.875c.272-.431.448-.916.515-1.421a95.932 95.932 0 0 0-13.783-10.499c-.111.724-.272 1.44-.483 2.141zm-14.977-171.947c-29.304-4.992-34.997 16.994-35.058 22.336-.072 3.901.185 6.537.061 8.101a41.057 41.057 0 0 1-8.821 2.429c.247-2.47.237-7.925 1.297-12.228 1.029-4.045 7.751-21.708 31.487-21.811a56.36 56.36 0 0 1 7.926.576c1.029.175 2.007.371 2.964.566l.144.031z" fill="#B1BABF"/><path d="M337.883 233.317a249.178 249.178 0 0 1-56.901 7.967l-.669-.494a21.556 21.556 0 0 0 9.264-4.251c6.969-5.579 14.688-9.82 19.856-13.937 5.167-4.117 10.005-16.49 10.005-16.49 8.697-3.335 14.606-15.141 14.606-15.141a15.181 15.181 0 0 1-1.493-5.795c-.134-3.191 4.828-8.574 9.984-18.126 5.157-9.552 6.289-22.645-2.233-36.973-8.523-14.328-31.909-21.616-32.084-21.708-.175-.093-23.273-8.358-38.712-2.1-15.44 6.258-22.44 17.405-24.086 28.131-1.647 10.725-.947 18.013-2.965 20.483a15.424 15.424 0 0 1-4.694 3.726s-2.398 12.98 2.522 20.865c0 0-3.664 12.815-2.058 19.227 1.605 6.413 5.239 14.411 7.431 23.088a21.615 21.615 0 0 0 5.003 9.161h-.71a249.863 249.863 0 0 1-40.73-40.823c-24.519-31.569-32.517-81.8-32.517-81.8-10.787 29.501-13.504 39.876-4.621 67.853 8.883 27.977 35.666 54.708 35.666 54.708-.649 1.554.298 4.416.298 4.416s-3.911-1.194-15.707-1.215c-11.796-.021-9.552 1.235-13.165 1.029-3.613-.205-4.642-1.688-4.642-1.688a13.225 13.225 0 0 0-3.531 3.006c-1.719.185-10.17 1.153-9.264 9.449.906 8.296 9.573 7.782 9.573 7.782a9.917 9.917 0 0 0 3.839 2.552s5.147 13.515 19.866 14.153c12.815.556 16.953-7.256 17.817-9.315.33.782.7 1.585 1.091 2.398a62.286 62.286 0 0 0 12.002 16.583 53.585 53.585 0 0 0 20.484 12.938c12.568 4.179 25.218 2.893 35.13-.216a53.262 53.262 0 0 0 10.612-4.55c-.576 2.79-1.173 10.87 8.708 17.684 12.146 8.389 24.375.69 24.375.69a9.824 9.824 0 0 0 4.611.278s6.608 5.64 12.352-.433c5.743-6.073-.433-11.94-1.688-13.123a13.43 13.43 0 0 0-1.03-4.529s-1.708.566-4.714-1.452c-3.006-2.017-.453-1.678-9.871-8.77-9.418-7.091-13.268-8.512-13.268-8.512s2.481-1.709 2.903-3.335c0 0 37.518-5.147 61.481-22.13 23.962-16.984 28.049-26.886 37.23-56.921-.031 0-36.685 35.264-75.356 45.66zm-93.987-62.551a25.5 25.5 0 0 1-.144-3.027c0-2.645.268-5.27.268-5.27a17.94 17.94 0 0 0 5.362-5.63c1.833-3.335 3.335-9.933 3.335-9.933 6.845-.772 13.248-8.059 13.639-8.512a19.79 19.79 0 0 1-6.228 3.808 41 41 0 0 1-8.821 2.429c.247-2.47.237-7.925 1.297-12.228 1.029-4.045 7.751-21.708 31.487-21.811a56.36 56.36 0 0 1 7.926.576c1.029.175 2.007.371 2.964.566h.144c5.404 1.122 9.737 2.43 10.87 2.79l.329.113a45.77 45.77 0 0 1 2.234.762l.833.319 1.205.473c.556.22 1.142.467 1.76.741.607.278 1.245.567 1.904.886l1.194.504c30.684 14.76 23.921 38.085 22.161 42.531-1.595 4.004-4.765 7.957-6.176 10.211a40.702 40.702 0 0 1-5.465-7.411 18.472 18.472 0 0 1-2.234-6.052s.597 10.149 5.744 15.028c0 0-2.769 6.176-3.346 9.943-.27 2.611.036 5.25.896 7.73 0 0-.371.597-.906 1.42l-.072.114a19.39 19.39 0 0 1-4.858 5.98c-2.327 1.75-3.459 3.088-9.923 1.575a69.556 69.556 0 0 0-7.679-1.472c-3.304-.422-7.678-.535-10.087 2.244a5.056 5.056 0 0 0-.823 1.297 8.585 8.585 0 0 1 5.084-1.132 19.549 19.549 0 0 0-1.029 4.055c-.113 1.101-.648 3.881-.648 3.911-.958 3.335-4.169 5.147-4.457 4.982-.288-.164-.782-1.029.659-5.64 0-.227.741-.494.905-.484l.896-.144a4.912 4.912 0 0 0-.391-.608c-.134-.226-.484-.36-.7-.483-.216-.124-1.503-.69-1.503-.7-.638-.278-1.184-.494-1.184-.494.02.143.02.289 0 .432a7.81 7.81 0 0 1-.206.906.66.66 0 0 1 0 .226c-.072.289-.154.577-.226.865a79.487 79.487 0 0 1-.875 2.933.217.217 0 0 0 0 .072 1.017 1.017 0 0 1-.52.607 1.024 1.024 0 0 1-.797.052h-.114c-.72-.36-1.513-.741-2.336-1.132a1.484 1.484 0 0 1-.783-1.441v-.175c0-.031.052-.185.083-.257.257-.927.803-2.913.875-3.376.141-.672.37-1.323.679-1.936a4.008 4.008 0 0 0-.885-.741 1.856 1.856 0 0 0-1.029-.175 1.516 1.516 0 0 0-.422.752c0 .123-.34 1.153-.7 2.285-.361 1.132-.793 2.398-.978 2.964a1.03 1.03 0 0 1-1.03.752 1.627 1.627 0 0 1-.535-.093c-.72-.288-1.698-.638-2.47-.926l-.144-.052a1.206 1.206 0 0 1-.803-1.461c.401-1.194.916-2.708 1.307-3.891.082-.278.185-.556.268-.844.159-.513.481-.961.916-1.277a6.834 6.834 0 0 0-1.575-.731 16.773 16.773 0 0 0-1.812-.411c.18.461.226.964.134 1.451-.134.463-1.369 4.776-1.42 4.941-.052.164-.278.679-.618.803a3.102 3.102 0 0 1-1.256-.175h-.154c-.782-.237-1.894-.412-2.635-.618 0 0-1.215-.35-.834-1.462 0 0 .793-2.902 1.184-4.281a.642.642 0 0 1 0-.124 7.192 7.192 0 0 0 .267-1.554.888.888 0 0 0-.545-1.022.892.892 0 0 0-.412-.059c-.412 0-.864.741-.967 1.173a20.062 20.062 0 0 1-.371 1.236v.072a1.517 1.517 0 0 0-.082.195 105.34 105.34 0 0 0-1.132 3.17 1.433 1.433 0 0 1-1.586.844 99.77 99.77 0 0 0-2.532-.504h-.113a1.017 1.017 0 0 1-.607-.52 1.036 1.036 0 0 1-.052-.797.164.164 0 0 1 0-.093c.35-1.029.649-1.842 1.03-2.862.224-.555.479-1.098.761-1.626.151-.232.347-.432.577-.587 0-.226-.33-.648-.947-.864l-.247-.062c-.2-.05-.403-.084-.608-.103-.597-.072-1.544-.134-1.739.607.1.298.142.613.123.927a3.548 3.548 0 0 1-.175.556c-1.616 4.539-2.47 4.93-2.871 4.899-.402-.031-1.791-3.438-.546-6.67a.13.13 0 0 0 0-.062 29.952 29.952 0 0 1 1.812-3.437 18.775 18.775 0 0 0 1.636-3.881c.821.588 1.561 1.28 2.203 2.059.299.494.762.875 1.029 1.4.07.127.112.267.124.411a4.67 4.67 0 0 0-.134-2.758.362.362 0 0 1 0-.093c-1.225-3.345-4.395-5.311-7.339-6.979a66.75 66.75 0 0 0-6.083-2.985c-6.063-2.666-6.176-4.436-6.969-7.205-.097-.41-.17-.826-.216-1.245zm6.577 43.447a24.857 24.857 0 0 0-.339-1.143c-.782-2.47-3.984-11.548-4.663-13.669a14.853 14.853 0 0 1-.937-6.268c0-.402.052-.824.103-1.277.391-3.427 2.059-10.478 2.306-11.322a.575.575 0 0 1 0-.083s2.8 1.349 3.664 1.864a.471.471 0 0 1 0 .092c-.103.782-.844 6.351-.885 9.038-.02.342-.02.686 0 1.029a10.166 10.166 0 0 1 2.007 2.995c.381 1.287 0 8.307 2.769 13.145v-.114a5.2 5.2 0 0 1 .721-1.389c.597-.885 1.749-2.121 2.439-1.637s.597 1.873.587 3.356a7.086 7.086 0 0 1-.885 3.499 4.667 4.667 0 0 0 2.141 1.925 5.945 5.945 0 0 1 .051-1.359c.357-1.331.829-2.63 1.41-3.88a.82.82 0 0 1 .857-.682.812.812 0 0 1 .378.116s1.308.679 2.46 1.256a1.51 1.51 0 0 1 .505 1.842v.103c0 .051 0 .093-.052.144-.432 1.081-.803 2.059-1.348 3.212 0 0-.278 1.029-.772 1.091.449.303.916.578 1.4.823.615.283 1.248.527 1.894.731a2.666 2.666 0 0 1-.33-1.647c.268-1.39.669-3.304 1.03-4.9a1.038 1.038 0 0 1 .457-.642 1.041 1.041 0 0 1 .778-.13c.864.361 1.75.7 2.635 1.03a1.182 1.182 0 0 1 .71 1.286c-.401 1.771-.864 3.881-1.338 5.569a2.95 2.95 0 0 1-.401.751c.411.294.861.53 1.338.7.525.144 1.533.35 1.533.35a2.617 2.617 0 0 1 0-1.41.089.089 0 0 0 0-.051l1.184-3.397c.103-.288.381-.937.546-1.348a1.027 1.027 0 0 1 1.214-.69c1.03.309 2.059.597 3.088.854.772.227.33 1.421.33 1.421l-1.853 4.539a2.736 2.736 0 0 1-.649.957c.406.179.826.324 1.256.433.696.136 1.402.212 2.11.226a2.662 2.662 0 0 1 .062-1.873.356.356 0 0 0 .051-.144c.35-.803.711-1.616 1.03-2.419l.278-.69a1.376 1.376 0 0 1 1.585-.762H283c.731.144 1.461.258 2.192.371a1.026 1.026 0 0 1 .936 1.008c.003.168-.036.335-.112.484a78.755 78.755 0 0 1-2.141 4.416c.813.062 1.636.103 2.46.134 0 0-.103-.072.237-1.029.339-.958 1.317-2.862 1.42-3.15.103-.288.473-1.421.947-1.472.473-.051 2.347 1.441 1.863 4.323 5.147-2.192 9.027-8.008 10.108-8.8a9.338 9.338 0 0 1 3.294-1.153h.103c1.317-1.338 4.94-7.73 5.393-8.523v-.082c1.03.123 4.045.72 4.045.72s-3.16 7.36-5.033 10.53a15.321 15.321 0 0 1-5.219 5.517c-1.811 1.287-9.85 6.588-11.97 8.091-2.121 1.502-7.761 6.556-12.692 7.431a22.53 22.53 0 0 1-6.567.258 28.029 28.029 0 0 1-5.929-1.4h.083a23.51 23.51 0 0 1-10.644-6.639c-2.974-3.253-4.456-9.347-5.301-12.486zm-57.044-10.036a124.644 124.644 0 0 1-11.323-19.639 102.493 102.493 0 0 1-7.143-20.947 78.695 78.695 0 0 1-1.76-20.782 46.324 46.324 0 0 1 2.058-12.351l.206-.587c2.213 9.326 8.801 44.044 43.232 81.388a225.91 225.91 0 0 0 21.852 20.494c-2.223.356-4.425.83-6.598 1.42-5.435-4.786-18.178-17.354-18.209-17.385a168.775 168.775 0 0 1-23.674-29.469c-1.204-1.966-2.131-3.582-2.872-4.797a68.167 68.167 0 0 1-1.142-2.059l-.083-.144c.361.875 12.023 28.996 41.945 55.089a60.804 60.804 0 0 0-6.083 2.481c-.299.134-3.294-2.851-3.665-3.17a188.757 188.757 0 0 1-8.738-8.235 157.716 157.716 0 0 1-18.003-21.307zm1.811 35.903c1.287.061 2.563.154 3.84.267 2.563.227 5.548.566 8.1.978a9.17 9.17 0 0 0-5.053 3.747 9.03 9.03 0 0 0-1.03 2.058 70.821 70.821 0 0 0-.936 3.14c-5.929-1.626-15.348-2.131-15.348-2.131a2.999 2.999 0 0 1-.566-1.523c.042-.51.193-1.005.443-1.451a8.779 8.779 0 0 1 3.088-3.366 14.547 14.547 0 0 1 4.961-1.822c.885.041 1.699.103 2.501.103zm17.2 2.058c-.875 1.194-3.201 11.405-4.117 14.03 0 0-1.081 2.697-1.503 3.561-.957 1.905-5.023 6.948-15.594 3.582-9.686-3.088-12.28-12.948-12.64-14.595a7.546 7.546 0 0 1-3.211-6.114c-1.606 4.395 1.029 6.422 1.667 6.844-.103 0-.617.536-.679.608a1.607 1.607 0 0 1-.144.195 3.27 3.27 0 0 1-1.822-1.42 6.41 6.41 0 0 1-1.03-2.141 7.496 7.496 0 0 1-.195-1.029.427.427 0 0 1 0 .113 2.745 2.745 0 0 1-1.028 1.71 2.743 2.743 0 0 1-3.705-.314 2.748 2.748 0 1 1 4.733-2.323 6.083 6.083 0 0 1 2.059-4.271c.504.21 1.028.369 1.564.473.582.099 1.17.151 1.76.155a42.43 42.43 0 0 0 5.929-.628 51.572 51.572 0 0 1 7.01-.566h1.029a16.804 16.804 0 0 0-6.783 1.935 7.845 7.845 0 0 0-2.841 2.82c0 .072-.257.474-.309.546a2.986 2.986 0 0 0-.35 1.235c.052.565.271 1.102.628 1.544a12.961 12.961 0 0 0-2.625.154c1.308 8.08 7.628 12.867 12.609 13.824 4.982.957 7.556-.402 9.336-3.685a3.539 3.539 0 0 0 3.984-.607c-2.152.082-3.088-1.215-3.243-2.162-.432-2.47 1.112-6.176 1.709-9.058a7.749 7.749 0 0 1 4.529-5.363 7.838 7.838 0 0 0 4.333-4.704 7.398 7.398 0 0 0 .165-4.457c-.092-.535.144-.813.474-.905.566-.144.782.576.782.576 1.06 4.416-1.616 9.192-2.481 10.437zm84.157 33.782a3.975 3.975 0 0 1-.185.844c-2.162 6.444-26.104 18.322-48.254 10.891-22.151-7.432-33.855-32.012-31.909-37.797.064-.198.15-.387.257-.566 0 0 0-.082.062-.113a5.09 5.09 0 0 1 .545-.782c4.859-6.176 26.989-16.264 47.349-9.419 16.891 5.672 27.843 20.926 31.137 30.705a14.783 14.783 0 0 1 .998 6.186v.051zm26.906 9.089c.783.597 2.481 2.162 3.253 2.924.772.761 1.287 1.266 1.915 1.904.473.473 2.398 2.295 3.087 2.779.474.366.98.686 1.514.957.478.231.978.413 1.492.546.049.262.083.526.103.792a6.074 6.074 0 0 1-.834 3.5 2.758 2.758 0 1 1-.792 1.029 6.607 6.607 0 0 1-.669.638 5.365 5.365 0 0 1-3.541 1.339 2.332 2.332 0 0 1-.844-.186 2.842 2.842 0 0 0-.124-.906c0-.082 0-.144-.062-.236.318.037.64.037.958 0 1.317-.186 3.479-1.03 4.498-4.406a6.828 6.828 0 0 1-.68.752 7.274 7.274 0 0 1-5.589 2.141c-1.286 1.101-9.264 7.452-18.857 4.065-10.447-3.705-10.53-10.159-10.293-12.269.222-1.271.539-2.523.947-3.747.844-2.645 5.147-12.187 5.147-13.669 0-1.482.823-6.876 4.323-9.737 0 0 .597-.443.957 0a.69.69 0 0 1-.165 1.029 7.592 7.592 0 0 0-2.563 3.654 7.899 7.899 0 0 0 .628 6.372 8.054 8.054 0 0 1 .937 5.146 7.22 7.22 0 0 1-.556 1.822c-.669 1.41-1.184 2.892-1.781 4.333a11.751 11.751 0 0 1-2.326 3.922 2.913 2.913 0 0 1-3.747-.144 1.13 1.13 0 0 0-.133-.093 3.493 3.493 0 0 0 2.81 2.862c-.566 3.716.751 6.412 5.208 8.595 4.457 2.182 12.496 2.151 18.394-3.469a14.38 14.38 0 0 0-1.987-1.709 2.951 2.951 0 0 0 1.431-.854c.236-.361.394-.768.463-1.194.055-.303.086-.609.093-.916a8.947 8.947 0 0 0-.638-3.706c-.7-1.863-3.768-5.146-4.21-5.62l2.233 1.76zm-11.682-7.874a107.646 107.646 0 0 1 5.146 3.15 78.77 78.77 0 0 1 3.603 2.429l.442.329a14.405 14.405 0 0 1 2.862 4.447 8.676 8.676 0 0 1 .453 4.57 3.55 3.55 0 0 1-.515 1.421c-.363.416-.838.72-1.369.874a92.954 92.954 0 0 0-13.525-7.565c.319-.813.7-1.822 1.142-3.088.212-.708.374-1.43.484-2.162a9.535 9.535 0 0 0-1.78-6.175l.504.278c.885.535 1.719.998 2.553 1.492zm89.324-70.848c-2.368 6.814-6.742 13.155-11.539 18.476a98.178 98.178 0 0 1-11.323 10.674 101.618 101.618 0 0 1-20.493 12.486 139.69 139.69 0 0 1-22.295 8.183 176.677 176.677 0 0 1-37.055 5.744 58.25 58.25 0 0 0-3.366-5.641c40.071-2.872 66.463-18.579 66.463-18.579l.195-.165c-1.41.618-2.851 1.225-4.364 1.822a222.197 222.197 0 0 1-38.002 10.293c-7.267 1.318-14.617 2.203-21.966 2.821l-4.848.37a62.313 62.313 0 0 0-4.416-5.064c9.916-.4 19.795-1.455 29.572-3.16 40.504-7.288 65.382-24.22 77.302-33.638a194.616 194.616 0 0 0 2.933-2.368c2.059-1.657 3.315-2.707 3.356-2.789l-.154.535z"/><path d="M337.615 160.884c-1.595 4.004-4.765 7.957-6.176 10.211a40.702 40.702 0 0 1-5.465-7.411c.905-1.369 2.666-3.232 4.621-5.949a25.509 25.509 0 0 0 3.922-13.659c0-7.329-3.273-16.192-15.203-23.448a.599.599 0 0 0-.134-.083l-.453-.267a59.596 59.596 0 0 0-4.487-2.429l1.194.504c30.704 14.76 23.941 38.074 22.181 42.531z" fill="#B1BABF"/><path d="M330.616 157.734a25.521 25.521 0 0 0 3.922-13.659c0-7.328-3.274-16.191-15.203-23.447a.599.599 0 0 0-.134-.083l-.453-.267a59.998 59.998 0 0 0-4.488-2.43c-.659-.319-1.297-.607-1.904-.885l-1.76-.741-1.205-.473-.833-.319a45.77 45.77 0 0 0-2.234-.762l-.329-.113c-1.132-.361-5.466-1.668-10.87-2.79-29.304-4.992-34.997 16.994-35.058 22.336-.072 3.901.185 6.536.061 8.101a19.79 19.79 0 0 0 6.228-3.808c-.391.452-6.794 7.74-13.639 8.512 0 0-1.502 6.598-3.335 9.933a17.94 17.94 0 0 1-5.362 5.63c-.34 4.714 2.202 11.539 5.033 12.959 2.831 1.421 10.365 3.912 13.299 7.257a9.991 9.991 0 0 1 2.326 9.418 20.362 20.362 0 0 1-1.029 3.17l.247.062c.617.216.957.638.947.865-.23.155-.426.354-.577.587a16.805 16.805 0 0 0-.761 1.626 36.653 36.653 0 0 0-1.03 2.861.164.164 0 0 0 0 .093 1.027 1.027 0 0 0 .303 1.119c.104.089.225.157.356.199h.113a99.77 99.77 0 0 1 2.532.504c.321.061.654.011.942-.142.288-.154.515-.402.644-.702.38-1.122.71-2.059 1.132-3.17a1.53 1.53 0 0 1 .082-.196v-.072s.257-.772.371-1.235c.113-.463.556-1.174.967-1.174a.906.906 0 0 1 .753.298.894.894 0 0 1 .205.783 7.245 7.245 0 0 1-.268 1.554.642.642 0 0 0 0 .124c-.391 1.379-1.184 4.282-1.184 4.282-.381 1.112.834 1.462.834 1.462.741.205 1.853.38 2.635.617h.154c.402.145.83.204 1.256.175.34-.123.556-.638.618-.803.061-.164 1.286-4.477 1.42-4.941a2.643 2.643 0 0 0-.134-1.451c.611.104 1.216.241 1.812.412a6.793 6.793 0 0 1 1.575.731 2.485 2.485 0 0 0-.916 1.276c-.083.288-.186.566-.268.844-.391 1.184-.906 2.697-1.307 3.891a1.205 1.205 0 0 0 .803 1.462l.144.051c.772.288 1.75.638 2.47.926.172.061.353.092.535.093a1.027 1.027 0 0 0 1.03-.751c.185-.566.607-1.822.978-2.965.37-1.142.689-2.161.7-2.285.065-.286.212-.547.422-.751.352-.042.71.019 1.029.175.329.202.628.452.885.741a7.906 7.906 0 0 0-.679 1.935c-.072.463-.618 2.45-.875 3.376 0 .072 0 .175-.083.257-.082.083 0 .062 0 .103v.072a1.478 1.478 0 0 0 .783 1.441c.823.392 1.616.772 2.336 1.133h.114a1.025 1.025 0 0 0 .797-.052 1.035 1.035 0 0 0 .52-.607.217.217 0 0 1 0-.072c.329-1.029.587-1.884.875-2.934.072-.288.154-.576.226-.864a.666.666 0 0 0 0-.227c.087-.297.155-.6.206-.906.02-.143.02-.288 0-.432 0 0 .546.216 1.184.494.163-1.32.564-2.6 1.184-3.777.207-.472.484-.909.823-1.297a10.057 10.057 0 0 1 6.907-4.797c4.354-.895 11.868 1.657 14.987 2.234 2.748.504 7.864-2.481 10.787-5.929.535-.824.906-1.421.906-1.421a17.957 17.957 0 0 1-.896-7.73c.577-3.757 3.345-9.943 3.345-9.943-5.146-4.879-5.743-15.028-5.743-15.028a18.42 18.42 0 0 0 2.234 6.052c.864-1.214 2.624-3.077 4.58-5.795zm-45.599-2.892c4.169 3.685 5.991 4.035 6.361 4.117.371.083 2.059.968 7.566.536 6.382-.299 17.704-1.472 21.039 2.645 0 .113-8.059-.793-13.484.082-5.394 1.143-13.052 1.874-16.469.69-3.417-1.184-9.089-6.31-12.691-10.468-3.778-3.943-10.695-8.06-10.695-8.235 5.147-1.214 13.474 6.547 18.373 10.633zm4.735 35.141-.545 1.626c-.731 2.193-3.366 3.273-5.878 2.44a3.419 3.419 0 0 0 2.234-2.059.162.162 0 0 0 0-.062 3.456 3.456 0 0 1-1.513-.103 2.921 2.921 0 0 1-1.997-3.613.496.496 0 0 0-.319-.607.486.486 0 0 0-.607.288 2.935 2.935 0 0 1-3.788 1.678 3.228 3.228 0 0 1-1.277-.844.217.217 0 0 0 0 .072 3.403 3.403 0 0 0 .546 2.985c-2.501-.844-3.942-3.294-3.212-5.476l.546-1.626a4.383 4.383 0 0 1 2.059-2.357 7.37 7.37 0 0 0 1.996-1.657 8.588 8.588 0 0 0 2.141-3.202 4.468 4.468 0 0 1 5.6-2.491l.267.072.299.114a4.457 4.457 0 0 1 2.913 5.362 9.039 9.039 0 0 0-.237 3.829v.062c.046.872.245 1.729.587 2.532a4.43 4.43 0 0 1 .185 3.037zm34.503-17.838s-1.287 8.687-3.418 12.094c-2.13 3.407-4.117 6.567-9.418 6.279 0 0 3.088-.885 2.059-3.283a3.254 3.254 0 0 1-.165-.536c-.406.123-.818.222-1.235.299-3.191.391-9.902-.638-13.124-2.841h-.072s-.803.957.227 3.952c-.247-.082-4.282-1.574-5.734-4.837-1.451-3.263 0-12.352-5.434-14.256-5.435-1.905-9.707 6.32-12.939 8.09-3.232 1.771-7.504.402-7.504.402 2.656-1.771 2.584-3.016 2.584-3.016h-.093c-3.901-.196-9.881-3.418-12.187-5.651-.309-.309-.782-1.03-.792-1.03l-.227.165-.247.165c-2.141 1.256-.463 3.664-.329 3.849-4.365-2.933-4.117-6.67-3.716-10.674.401-4.004 4.58-11.703 4.58-11.703h.062a26.896 26.896 0 0 1 7.226 4.93c.329.309.648.628.957.958 3.582 3.891 6.969 7.452 10.293 8.564a9.014 9.014 0 0 0 3.263.391h.052c.288 0 .566-.021.833-.062a17.308 17.308 0 0 0 3.088-.659c1.122 2.44 9.964 5.404 12.352 4.118l.062.082a16.107 16.107 0 0 0 1.976 2.285l.618.556a8.806 8.806 0 0 0 2.841 1.647c3.324 1.122 8.173.329 13.381-.618l1.338-.185a27.404 27.404 0 0 1 8.842.525z" fill="#fff"/></g><defs><clipPath id="a"><path fill="#fff" transform="translate(0 28)" d="M0 0h500v444.664H0z"/></clipPath></defs></svg>