<svg viewBox="0 0 500 500" xmlns="http://www.w3.org/2000/svg"><g fill="none" fill-rule="evenodd"><path d="M498.224 395.43c-37.141-7.808-110.838-.202-152.858 88.697 0 0-71.869-85.778-171.738-100.848 3.93-47.727-59.313-60.414-71.414-142.525 0 0-49.131-40.213-73.697-103.566l13.081 4.202S22.487 120.238 7.81 83.784l13.818 4.565S7.648 69.39.002 15.006C169.497 131.572 258.79 90.895 361.881 149.228c69.97 39.616 86.636 85.637 92.495 131.556 0 0 51.798 46.919 43.848 114.646" fill="#FFF"/><path d="M490.152 385.507c1.11-57.646-44.172-98.606-44.172-98.606-4.89-36.434-18.132-89.141-88.697-128.06C250.13 99.78 190.848 148.021 21.919 44.557c3.525 19.343 14.657 46.11 28.839 62.727l-17.475-5.717c12.707 26.747 33.04 51.03 43.687 58.909l-19.576-6.152c20.737 50.89 61.252 81.03 61.252 81.03 9.233 77.91 66.384 91.182 71 139.102 74.455 11.545 153.152 91.262 153.152 91.262C384 394.9 441.455 381.163 490.152 385.506" fill="#000"/><path d="M394.793 285.226c-16.192 26.06-43.556 18.798-53.313-13.687l19.737 1.202c-17.313-10.363-33.03-25.596-45.182-40.606-3.565 71.798 63.98 104.01 86.324 53.606a65.489 65.489 0 0 1-7.566-.515" fill="#FFF"/><path d="M348.323 168.606c-77.626-42.545-172.495-14.92-293.717-90.02 12.01 35.889 87.04 77.92 87.04 77.92l-66.393-21.587c16.909 29.344 86.12 66.111 86.12 66.111l-61.918-20.01c25.646 42.596 83.828 71.344 83.828 71.344l-35.758-2.586c4.627 40.05 59.96 74.535 62.9 105.444 25.03 9.566 57.272 26.243 82.423 47.859 48.061-23.626 34.809-103.566-56.828-216.96 126.04 7.616 122.566 101.06 194.91 87.626-5.304-25.1-8.728-64.616-82.607-105.14" fill="#97233F"/><path d="M481.096 370.631c-4.04-29.656-30.657-64.232-49.778-76.333-8.95 18.333-30.808 30.111-50.02 35.434 45.08 5.404 82.162 23.344 99.798 40.9" fill="#FFB612"/><path d="M394.793 285.226c-16.192 26.06-43.556 18.798-53.313-13.687l19.737 1.202c-17.313-10.363-33.03-25.596-45.182-40.606-3.565 71.798 63.98 104.01 86.324 53.606a65.489 65.489 0 0 1-7.566-.515" fill="#FFF"/><path d="M384.613 395.134c29.313-16.454 67.091-24.424 94.667-18.858-17.647-14.94-61.233-33.263-100.748-29.394 0 0 13.505 22.96 6.081 48.252" fill="#FFB612"/></g></svg>