<svg viewBox="0 0 500 500" xmlns="http://www.w3.org/2000/svg"><g clip-path="url(#a)"><path d="m291.28 103.468-24.414 25.552c39.931-16.613 127.003-45.075 127.003-45.075l-27.914 27.282C442.107 88.667 499.958 78 499.958 78a612.174 612.174 0 0 1-41.829 78.091c4.849-.506 36.474-4.217 36.474-4.217s-28.42 47.394-61.309 81.127l18.384 4.596a485.708 485.708 0 0 1-66.495 75.055c-54.436 48.49-82.434 41.069-82.434 41.069-40.394 29.263-72.82 14.421-72.82 14.421s13.999-35.293-.421-39.046c-13.072-3.415-32.89 6.789-35.335 10.879a165.637 165.637 0 0 1-24.625 45.244 140.284 140.284 0 0 1-45.244 36.979 60.766 60.766 0 0 1-18.848-43.22 70.913 70.913 0 0 1-33.732 18.089c-14.632 3.121-34.66.591-55.195-16.529C2.783 369.027.126 330.404.126 330.404a179.113 179.113 0 0 1 37.95-46.383 33.265 33.265 0 0 1-9.952-14.378c66.327-28.968 66.37-56.587 119.118-90.193 51.78-33.1 84.458-48.279 144.038-75.982z" fill="#fff"/><path d="m258.981 126.913-20.829 21.757c41.153-18.216 128.057-47.816 128.057-47.816l-25.3 24.667c89.138-27.576 145.64-36.937 145.64-36.937a527.956 527.956 0 0 1-43.051 76.151c11.891-1.138 36.726-4.006 36.726-4.006a418.51 418.51 0 0 1-61.561 76.91c4.216.591 20.745 4.217 20.745 4.217a386.986 386.986 0 0 1-60.592 66.537c-49.081 42.967-70.88 37.949-70.88 37.949.317-1.382.459-2.798.421-4.216a20 20 0 0 0-.337-2.825c-37.949 35.545-69.278 23.57-69.278 23.57s13.957-33.732-7.463-40.689c-16.614-5.271-42.166 8.433-44.064 15.601a160.211 160.211 0 0 1-23.106 42.798 133.222 133.222 0 0 1-38.245 32.552s-18.257-14.041-11.932-55.195c1.391-8.939-.38-12.439-1.35-13.957-2.993-4.596-26.395.422-32.088 13.451-4.216 9.234 19.186 16.866 19.186 16.866a58.36 58.36 0 0 1-29.516 15.644c-11.764 2.403-30.022 1.644-49.165-14.927-11.3-9.825-13.662-43.009-13.662-43.009a180.944 180.944 0 0 1 41.238-47.774 33.726 33.726 0 0 1-10.5-11.806c54.816-23.697 62.49-57.134 124.474-94.535a869.212 869.212 0 0 1 96.432-50.978z" fill="#004851"/><path d="M404.917 242.362a98.162 98.162 0 0 1 16.276 4.216c-18.891 30.571-75.266 90.657-106.806 93.144a23.311 23.311 0 0 0-4.849-12.86c-11.848 21.631-47.942 34.871-62.953 31.413 18.215-66.706-59.032-41.28-64.935-22.98a133.376 133.376 0 0 1-54.436 69.911s-12.65-14.21-7.126-46.383c3.964-23.612-10.963-22.853-10.963-22.853-5.988-.296-28.546 2.445-35.672 18.215-5.777 12.65 14.336 21.589 14.336 21.589s-29.01 23.191-62.616-5.566c-8.433-7.042-11.342-36.811-11.342-36.811A176.508 176.508 0 0 1 60.255 283.6a24.8 24.8 0 0 1-12.27-8.433c45.117-20.661 62.826-55.069 101.197-80.621A517.235 517.235 0 0 1 223.9 152.38l-12.228 15.391s10.246-4.217 14.715-6.578c40.311-19.776 108.619-41.322 108.619-41.322l-21.378 20.366a768.085 768.085 0 0 1 79.735-21.42c23.697-5.06 73.2-15.475 73.2-15.475a300.584 300.584 0 0 1-36.347 68.898c14.927-1.054 31.034-1.939 31.034-1.939a290.585 290.585 0 0 1-56.333 72.061z"/><path d="m221.454 196.021-1.518.549 1.349-.506.169-.043z"/><path d="M272.896 276.516s-21.589-10.457-55.616.633a163.222 163.222 0 0 1 106.341-15.981 148.465 148.465 0 0 0-93.734 0 188.689 188.689 0 0 0-19.185 8.433s3.036-2.193 8.644-5.524a256.89 256.89 0 0 1 51.737-28.967 220.385 220.385 0 0 1 49.882-13.03 146.077 146.077 0 0 0-52.243 1.687s39.467-15.433 77.795-16.276c12.65-.295 42.166 1.265 42.166 1.265-42.166-12.65-86.229-15.053-116.209-10.415-16.866 4.217-30.485 8.433-30.485 8.433s2.361-1.222 6.831-3.12c10.836-6.409 55.194-30.275 137.628-43.135a226.91 226.91 0 0 0-23.444-1.223 326.943 326.943 0 0 0-39.087 4.427c18.763-8.433 54.14-16.866 97.908-21.083a391.512 391.512 0 0 0-147.79 17.415l-1.055.464s8.434-6.199 18.174-12.65c7.084-4.723 17.372-12.059 17.372-12.059a552.352 552.352 0 0 0-97.698 36.599c-15.643 7.632-24.076 12.102-24.076 12.102 2.445-2.825 13.704-12.65 16.444-16.234-41.702 20.45-56.923 33.986-81.717 60.297-22.137 23.444-21.082 27.492-54.815 45.665a57.08 57.08 0 0 0 49.756-6.156 70.422 70.422 0 0 0 12.312-10.921c8.855-10.288 5.945-20.83 17.709-28.377a41.612 41.612 0 0 0-4.722 13.957 105.668 105.668 0 0 1 29.263-25.3c31.582-18.848 52.58-22.095 52.58-22.095l-2.403.844c-43.178 17.962-50.219 41.406-50.599 43.894-.506 5.271 15.601-6.578 28.757-8.18a55.657 55.657 0 0 0-31.456 30.233c-2.445 5.776-3.204 12.312-10.035 17.414a28.334 28.334 0 0 1-7.8 5.018c-9.066 4.216-15.349 2.024-17.499.632a7.457 7.457 0 0 1-2.024-2.319 20.534 20.534 0 0 0 15.812-3.247 23.402 23.402 0 0 0 8.433-9.318 10.115 10.115 0 0 0 0-9.909 8.816 8.816 0 0 0-6.704-4.217 39.008 39.008 0 0 1 6.451-9.993 69.527 69.527 0 0 0-12.65 12.65 9.238 9.238 0 0 1 7.126 4.216c2.91 4.849 0 11.807-6.029 15.517-6.03 3.711-13.662 2.825-16.571-2.024a8.392 8.392 0 0 1-.844-1.897l-1.012.548c-1.939 1.012-5.903 2.699-5.903 2.699 1.949.45 3.962.55 5.945.295.506 6.873 4.807 17.878 28.884 11.638-6.873 6.788-23.444 6.324-33.733 1.054 1.392 1.054 2.952 2.108 4.849 3.289 30.191 18.763 64.978 1.096 73.495-3.795a79.389 79.389 0 0 1 6.283-3.584 70.75 70.75 0 0 0-14.758 19.817c11.3-13.408 42.039-35.123 83.319-30.106z" fill="#fff"/><path d="M162.422 246.747c1.139 4.469 8.897 0 8.897 0a62.574 62.574 0 0 0-14.674 18.468 11.595 11.595 0 0 1-1.391 5.145c.979.239 1.987.339 2.994.295a17.438 17.438 0 0 0 5.861-2.235 16.154 16.154 0 0 1-5.988 11.174c6.831-5.102 7.59-11.638 10.036-17.414a55.627 55.627 0 0 1 12.642-18.327 55.641 55.641 0 0 1 18.813-11.906c-13.156 1.602-29.263 13.451-28.757 8.18 0-2.488 7.253-25.932 50.599-43.895l-1.56.591c-39.762 14.589-60.592 38.033-57.472 49.924z" fill="#A2AAAD"/><path d="M145.935 264.878a10.028 10.028 0 0 1-.42 6.348 10.03 10.03 0 0 1-10.369 6.174 10.037 10.037 0 0 1-5.782-2.655 4.805 4.805 0 0 1-.632-1.687 36.69 36.69 0 0 1-2.699 1.729c.202.665.485 1.302.844 1.897 2.909 4.849 10.33 5.735 16.571 2.024 6.24-3.71 8.939-10.668 6.029-15.517a9.23 9.23 0 0 0-7.126-4.216c-.717.885-1.476 1.897-2.361 2.951a6.706 6.706 0 0 1 5.945 2.952z" fill="#004851"/><path d="M141.381 276.009a8.683 8.683 0 0 0 4.554-11.131 6.7 6.7 0 0 0-5.945-2.952 80.963 80.963 0 0 1-6.241 6.915 6.922 6.922 0 0 0 2.699 6.199 7.633 7.633 0 0 1-4.47-1.097 4.22 4.22 0 0 1-1.602-2.108l-1.645 1.223c.103.597.318 1.169.633 1.686a8.728 8.728 0 0 0 12.017 1.265z"/><path d="M131.936 273.944a7.64 7.64 0 0 0 4.47 1.096 6.91 6.91 0 0 1-2.699-6.198 38.026 38.026 0 0 1-3.373 2.994 4.225 4.225 0 0 0 1.602 2.108z" fill="#fff"/><path d="M388.851 208.756s-29.516-1.561-42.165-1.265c-38.329.843-77.796 16.276-77.796 16.276a146.054 146.054 0 0 1 52.243-1.687 220.416 220.416 0 0 0-50.05 13.029 256.872 256.872 0 0 0-51.906 29.094 235.202 235.202 0 0 1 166.217-26.986 183.176 183.176 0 0 0 19.227-19.354c14.843-16.276 18.005-26.353 18.005-26.353s-68.266-7.295-117.684.295c-10.626 1.644-22.137 4.217-32.299 6.704 29.98-4.807 73.874-2.319 116.208 10.247z" fill="#A2AAAD"/><path d="M231.321 289.798c55.827-13.83 94.577 2.952 99.258 20.577l.548-.295a87.036 87.036 0 0 0 23.992-17.752c13.704-13.493 22.263-24.329 25.679-31.582-57.092-28.63-120.088-11.385-150.911.506a148.465 148.465 0 0 1 93.734 0 163.222 163.222 0 0 0-106.341 15.981c34.027-11.09 55.616-.633 55.616-.633-41.28-5.017-72.019 16.867-82.602 30.233-.802 1.645-1.603 3.373-2.277 5.186 9.571-9.065 19.818-16.36 43.304-22.221zM421.994 142.64c-43.768 4.216-79.145 12.649-97.909 21.082a327.189 327.189 0 0 1 39.088-4.427c7.83.003 15.655.411 23.444 1.223-82.434 12.86-126.792 36.726-137.629 43.135a356.046 356.046 0 0 1 68.477-20.324c32.046-6.367 69.278-7.927 84.331-9.403a126.82 126.82 0 0 0 29.769-46.719s-37.19 2.994-79.44 10.837a394.378 394.378 0 0 0-78.006 22.01 391.508 391.508 0 0 1 147.875-17.414z" fill="#A2AAAD"/><path d="M199.949 312.188s14.041-10.584 37.949-6.746c35.293 5.65 34.323 27.913 34.323 27.913a56.627 56.627 0 0 0 23.908-20.83 57.68 57.68 0 0 0-27.998-12.649c-47.057-8.349-68.182 12.312-68.182 12.312zm-96.475-25.679a54.48 54.48 0 0 1-26.944.253c-7.294 5.06-33.732 16.318-50.598 44.695.843 9.614 1.855 21.926 5.819 28.673 16.107 25.299 44.231 16.023 44.231 16.023s-42.756-18.975 2.952-46.635c14.59-8.813 54.815-15.475 79.06-7.717 2.024.759 4.596 2.573 4.217 3.036-2.488 12.228-12.65 46.383-29.516 56.334-9.276-13.535 15.18-44.612-9.74-45.792a32.511 32.511 0 0 1 3.542 22.558 57.55 57.55 0 0 0 1.855 36.474 119.962 119.962 0 0 0 49.165-75.013 58.47 58.47 0 0 1 4.68-13.451c-48.153 19.185-78.723-19.438-78.723-19.438zm-14.673 16.655c-3.5 1.054-11.006 2.108-7.422-3.247 0 0 4.512-2.445 10.584-5.608a19.772 19.772 0 0 0 12.439 4.217l-15.601 4.638z" fill="#A2AAAD"/><path d="M81.338 299.917c-3.584 5.355 3.921 4.217 7.42 3.247l15.602-4.554a19.776 19.776 0 0 1-12.439-4.216 636.948 636.948 0 0 0-10.583 5.523z"/></g><defs><clipPath id="a"><path fill="#fff" transform="translate(0 78)" d="M0 0h500v344.24H0z"/></clipPath></defs></svg>