<svg viewBox="0 0 500 500" xmlns="http://www.w3.org/2000/svg"><g fill="none"><g fill="#115740"><path d="m260.755 301.234h-2.782c-.225.258-.462.528-.71.787.372 5 .372 10.022 0 15.023.248.259.485.529.71.788h2.782l.867-.821a62.032 62.032 0 0 0 0-14.878l-.867-.9zm-17.715-.068h-2.77l-.878.81a62.031 62.031 0 0 0 0 14.877l.878.821h2.77l.71-.787c-.36-5.001-.36-10.022 0-15.024zm8.852 0h-2.77l-.789.81a297.455 297.455 0 0 0 0 15.09l.789.81h2.77l.8-.81c.112-5.03.112-10.06 0-15.09zm40.068-103.806a3.381 3.381 0 0 0 2.252-.764 7.872 7.872 0 0 0 1.655-2.249l3.243-6.061c.41-.683.65-1.454.699-2.25 0-1.124-.642-1.607-1.937-1.607a3.382 3.382 0 0 0 -2.253.72 7.872 7.872 0 0 0 -1.7 2.327l-3.243 6.061a4.954 4.954 0 0 0 -.699 2.25c.046 1.045.687 1.574 1.982 1.574z"/><path d="m485.45 237.45c-8.502-28.113-45.281-61.568-98.49-89.49-47.095-24.717-102.613-33.466-136.138-33.466h-1.61c-33.559 0-89.077 8.75-136.171 33.466-53.221 27.922-89.99 61.355-98.491 89.49a65.806 65.806 0 0 0 -1.036 12.37v.135a65.683 65.683 0 0 0 1.036 12.37c8.502 28.113 45.27 61.568 98.49 89.501 47.365 24.863 103.244 33.578 136.735 33.466h1.013c33.548 0 89.077-8.749 136.171-33.466 53.21-27.922 89.99-61.354 98.491-89.49a67.816 67.816 0 0 0 1.036-12.37v-.135a67.816 67.816 0 0 0 -1.036-12.38zm-110.36-58.475-5.72 10.795 11.846-10.75h13.322l-13.21 11.594 1.555 12.145h-14.178l-.698-10.526-5.63 10.526h-14.64l12.623-23.74zm-30.878 0c2.95 0 4.996.562 6.137 1.687a4.775 4.775 0 0 1 1.205 3.553 8.09 8.09 0 0 1 -2.455 5.938 9.516 9.516 0 0 1 -2.759 1.934 15.885 15.885 0 0 1 -3.581.922c2.252.72 3.378 1.822 3.378 3.284a6.145 6.145 0 0 1 -.878 2.845l-1.97 3.587h-14.349l2.467-4.622a3.46 3.46 0 0 0 .495-1.62c0-1-.653-1.506-1.96-1.506h-2.049l-4.088 7.748h-14.29l12.669-23.705 22.027-.045zm-33.705 1.124a5.33 5.33 0 0 1 3.468 5.05 13.862 13.862 0 0 1 -1.689 5.926 29.032 29.032 0 0 1 -5.068 7.635c-3.07 3.081-8.404 4.622-16.002 4.622-5.405 0-9.34-.592-11.802-1.777a5.353 5.353 0 0 1 -3.513-4.97c.112-2.08.69-4.109 1.69-5.938a29.414 29.414 0 0 1 5.067-7.658c3.063-3.058 8.393-4.588 15.99-4.588 5.391 0 9.336.593 11.836 1.777zm-62.039-1.124h14.471l-.191 7.354 7.297-7.354h13.288l-19.02 16.418-3.941 7.366h-15.057l4.167-7.782zm-46.97 0-2.816 11.054 8.176-11.054h13.514l-3.165 11.133 8.57-11.133h12.962l-21.284 23.784h-14.28l2.253-9.21-7.793 9.21h-14.335l4.504-23.74zm-16.295 0-3.21 6.005h-14.493l-1.622 2.89h13.514l-3.086 5.825h-13.48l-1.655 3.002h14.978l-3.21 6.017h-28.716l12.658-23.74h28.322zm-65.958 0h13.041l2.252 10.177 5.248-10.177h11.577l-12.692 23.784h-12.387l-2.41-11.02-5.71 11.02h-11.61zm-12.14 110.102c-26.227 0-37.161-6.297-37.161-17.992 0-5.971 1.475-10.267 5.045-16.756l4.121-7.871h33.998l-8.378 16.114a14.604 14.604 0 0 0 -1.88 5.859c0 2.305 1.125 3.98 4.087 3.98 4.403 0 6.61-2.934 9.55-8.377l21.621-41.169h39.82l-18.018 34.445c-5.135 9.638-8.39 15.08-13.514 20.242-7.714 7.647-20.405 11.526-39.29 11.526zm77.388-66.212h76.892l-8.716 16.34h-39.336l-4.403 7.871h39.741l-8.4 15.856h-39.63l-4.504 8.164h40.687l-.191.36a79.39 79.39 0 0 0 -22.984 7.647 93.25 93.25 0 0 0 -13.176 8.333h-50.394l34.414-64.57zm5.935 89.546v-.078.135zm75.777 4.363.63.754 2.77-.09.958-.81c.332-1.482.561-2.985.687-4.498 2.894 0 5.788-.101 8.682-.191 9.347-.247 18.705-.618 28.052-1.26l1.588 1.89c-2.128 7.174-11.07 15.743-25.113 23.086a79.607 79.607 0 0 1 -34.268 8.39h-.371a79.505 79.505 0 0 1 -34.336-8.457c-13.952-7.343-22.849-15.878-25.022-23.02l1.576-1.888c9.347.652 18.683 1.012 28.03 1.259 3.232.101 6.464.157 9.696.202.13 1.513.36 3.016.686 4.499l.958.81 2.77.09.63-.754a42.75 42.75 0 0 1 0-14.62c-.213-.247-.416-.505-.63-.764l-2.77.101-.958.81a34.354 34.354 0 0 0 -.686 4.498c-3.232 0-6.464.113-9.696.214-9.347.247-18.683.607-28.03 1.26l-1.723-2.047c.02-.19.05-.377.09-.563 2.095-7.163 11.025-15.743 25.057-23.131a79.55 79.55 0 0 1 34.335-8.468h.372a79.607 79.607 0 0 1 34.268 8.39c14.043 7.365 22.984 15.922 25.113 23.086l.1.708-1.688 2.024c-9.347-.652-18.705-1.012-28.052-1.26-2.894-.09-5.788-.145-8.683-.19a32.883 32.883 0 0 0 -.686-4.498l-.958-.81-2.691-.135c-.203.259-.417.517-.63.765a42.75 42.75 0 0 1 -.057 14.663zm31.092-31.081a96.872 96.872 0 0 0 -11.024-6.748 78.906 78.906 0 0 0 -22.309-7.467l17.23-32.161h-21.926l8.806-16.452h82.658l-8.806 16.452h-19.854zm130.867-41.147h-31.768a9.593 9.593 0 0 0 1.363-4.813c0-2.305-2.624-3.98-7.241-3.98-5.766 0-8.705 2.406-8.705 5.026 0 2.249 2.624 3.137 16.363 6.387 13.738 3.25 18.67 6.286 18.67 13.73 0 6.073-2.724 12.247-7.972 17.487-6.6 6.601-16.464 10.694-40.912 10.694-28.942 0-37.343-4.723-37.343-14.675a20.219 20.219 0 0 1 2.32-9.322h32.399a11.356 11.356 0 0 0 -1.352 5.341c0 2.508 2.41 4.082 7.433 4.082 5.563 0 8.817-1.99 8.817-5.442 0-3.138-2.826-3.869-17.41-7.546-13.637-3.452-17.522-6.072-17.522-13.404 0-4.926 2.725-10.998 7.77-16.025 7.129-7.13 16.994-10.896 40.912-10.896 26.43 0 36.037 4.194 36.037 14.247.08 3.137-.55 6.251-1.847 9.109z"/><path d="m335.687 188.578.586-1.124c.232-.401.364-.853.382-1.316 0-.765-.484-1.124-1.464-1.124h-2.128l-3.04 5.555h2.736a3.254 3.254 0 0 0 2.928-1.99z"/></g><path d="m323.806 202.759 4.088-7.748h2.061c1.306 0 1.96.506 1.96 1.506a3.46 3.46 0 0 1 -.496 1.62l-2.466 4.622h14.358l1.97-3.588a6.14 6.14 0 0 0 .879-2.845c0-1.462-1.126-2.564-3.378-3.283a15.885 15.885 0 0 0 3.58-.922 9.515 9.515 0 0 0 2.737-1.968 8.09 8.09 0 0 0 2.455-5.938 4.775 4.775 0 0 0 -1.227-3.508c-1.134-1.125-3.18-1.687-6.138-1.687h-22.004l-12.67 23.739zm9.257-17.734h2.128c.98 0 1.464.393 1.464 1.124-.018.463-.15.915-.382 1.316l-.586 1.125a3.254 3.254 0 0 1 -2.928 2.001h-2.736zm-135.483 17.734 7.793-9.21-2.253 9.21h14.336l21.284-23.74h-12.984l-8.57 11.134 3.164-11.133h-13.513l-8.176 11.054 2.815-11.054h-13.706l-4.504 23.739h14.313zm80.011-12.145a13.952 13.952 0 0 0 -1.69 5.97 5.353 5.353 0 0 0 3.514 5.05c2.47 1.132 6.404 1.698 11.802 1.698 7.59 0 12.917-1.53 15.98-4.588a29.032 29.032 0 0 0 5.068-7.636 13.88 13.88 0 0 0 1.689-5.926 5.33 5.33 0 0 0 -3.469-5.049c-2.5-1.192-6.449-1.784-11.847-1.777-7.597 0-12.928 1.53-15.99 4.588a29.414 29.414 0 0 0 -5.057 7.67zm13.13 2.923 3.199-6.06a7.872 7.872 0 0 1 1.712-2.34 3.382 3.382 0 0 1 2.252-.72c1.295 0 1.937.529 1.937 1.609a4.954 4.954 0 0 1 -.698 2.249l-3.232 6.06a7.872 7.872 0 0 1 -1.656 2.25 3.388 3.388 0 0 1 -2.252.765c-1.295 0-1.937-.529-1.937-1.608.049-.778.28-1.533.676-2.205zm-30.405 9.222 3.942-7.366 19.076-16.373h-13.31l-7.298 7.354.192-7.354h-14.471l1.036 15.957-4.167 7.782zm-87.432 0 3.21-6.017h-14.978l1.655-3.002h13.435l3.086-5.825h-13.514l1.622-2.89h14.47l3.21-6.005h-28.2l-12.658 23.739h28.66zm189.47 0 5.631-10.526.698 10.526h14.2l-1.497-12.145 13.165-11.594h-13.381l-11.802 10.75 5.744-10.75h-14.752l-12.612 23.739zm-11.677 20.106h-82.658l-8.75 16.452h21.926l-17.219 32.195a78.906 78.906 0 0 1 22.309 7.467 96.872 96.872 0 0 1 11.025 6.747l24.763-46.409h19.82zm-226.802-31.127 2.387 11.02h12.388l12.657-23.738h-11.554l-5.247 10.177-2.253-10.177h-13.029l-12.669 23.739h11.588l5.732-11.02zm374.82 42.9-.158-.663c-9.46-32.116-47.827-67.82-105.27-97.968-49.291-25.865-107.377-35.007-142.445-35.007h-1.622c-35.078 0-93.175 9.154-142.455 35.007-57.432 30.148-95.8 65.852-105.259 97.968l-.157.664a88.478 88.478 0 0 0 0 30.553l.157.675c9.46 32.117 47.827 67.82 105.26 97.958 49.279 25.864 107.376 35.018 142.443 35.018h1.6c35.078 0 93.186-9.154 142.454-35.018 57.433-30.138 95.811-65.841 105.27-97.958l.158-.675a88.478 88.478 0 0 0 0-30.553h.023zm-12.208 15.35a67.816 67.816 0 0 1 -1.036 12.37c-8.502 28.114-45.281 61.568-98.49 89.49-47.095 24.74-102.624 33.466-136.172 33.466h-1.013c-33.491.113-89.37-8.602-136.734-33.465-53.221-27.934-89.99-61.355-98.491-89.502a65.683 65.683 0 0 1 -1.036-12.37v-.134a65.806 65.806 0 0 1 1.036-12.37c8.502-28.113 45.27-61.568 98.49-89.49 47.095-24.74 102.613-33.489 136.172-33.489h1.61c33.525 0 89.043 8.75 136.137 33.466 53.21 27.922 89.99 61.355 98.491 89.49a67.816 67.816 0 0 1 1.036 12.37v.169zm-216.88 51.504.957.81c.333 1.482.562 2.985.687 4.498 2.894 0 5.788.101 8.682.191 9.347.247 18.705.607 28.052 1.26l1.69-2.025-.102-.708c-2.128-7.163-11.07-15.743-25.113-23.087a79.607 79.607 0 0 0 -34.268-8.389h-.371a79.55 79.55 0 0 0 -34.336 8.468c-14.031 7.41-22.916 16.002-25.056 23.154a5.29 5.29 0 0 0 -.09.562l1.7 2.047c9.347-.652 18.683-1.012 28.03-1.26 3.232-.1 6.464-.157 9.696-.213.129-1.513.358-3.016.686-4.498l.958-.81 2.77-.101c.214.259.417.517.63.765a42.75 42.75 0 0 0 0 14.618l-.63.754-2.77-.09-.958-.81a34.814 34.814 0 0 1 -.686-4.498c-3.232 0-6.464-.101-9.696-.202-9.347-.248-18.683-.607-28.03-1.26l-1.576 1.89c2.173 7.14 11.07 15.675 25.022 23.019a79.505 79.505 0 0 0 34.336 8.456h.371a79.607 79.607 0 0 0 34.268-8.389c14.043-7.354 22.985-15.912 25.113-23.086l-1.588-1.89c-9.347.641-18.705 1.012-28.052 1.26-2.894.09-5.788.146-8.682.19a33.141 33.141 0 0 1 -.687 4.5l-.957.809-2.77.09-.631-.754a42.75 42.75 0 0 0 0-14.619c.214-.247.428-.506.63-.764l2.77.112zm-25.902 15.508-.71.788h-2.77l-.878-.821a62.031 62.031 0 0 1 0-14.878l.878-.81h2.77l.71.788c-.341 4.972-.326 9.963.045 14.933zm8.941 0-.8.81h-2.77l-.788-.81c-.127-5.03-.127-10.06 0-15.09l.789-.81h2.77l.8.81c.142 5.052.157 10.094.044 15.124zm8.93-.112-.867.82h-2.781a22.375 22.375 0 0 0 -.71-.786c.372-5.001.372-10.023 0-15.024.248-.259.485-.529.71-.787h2.781l.868.81c.62 4.976.636 10.01.045 14.99l-.045-.023zm132.354-95.731c-23.919 0-33.784 3.767-40.912 10.897-5.045 5.026-7.77 11.099-7.77 16.024 0 7.332 3.885 9.952 17.522 13.404 14.584 3.678 17.41 4.409 17.41 7.546 0 3.452-3.254 5.443-8.817 5.443-5.023 0-7.433-1.575-7.433-4.082.005-1.865.47-3.699 1.352-5.342h-32.354a20.219 20.219 0 0 0 -2.32 9.323c0 9.952 8.401 14.675 37.342 14.675 24.449 0 34.314-4.094 40.913-10.695 5.247-5.24 7.973-11.414 7.973-17.486 0-7.444-4.922-10.48-18.672-13.73s-16.407-4.049-16.407-6.354c0-2.62 2.939-5.027 8.705-5.027 4.617 0 7.24 1.676 7.24 3.981a9.593 9.593 0 0 1 -1.362 4.813h31.79a20.745 20.745 0 0 0 1.881-9.109c.045-10.053-9.606-14.247-36.036-14.247zm-216.002 1.71h-39.865l-21.622 41.19c-2.939 5.443-5.146 8.378-9.55 8.378-2.938 0-4.087-1.675-4.087-3.98a14.597 14.597 0 0 1 1.926-5.882l8.446-16.126h-34.043l-4.122 7.872c-3.57 6.489-5.045 10.784-5.045 16.756 0 11.728 10.912 17.992 37.162 17.992 18.886 0 31.532-3.88 39.223-11.526 5.147-5.14 8.401-10.582 13.514-20.242l18.063-34.433zm12.5 89.545v.057-.135s-.011.078 0 .078zm23.22-33.398a79.39 79.39 0 0 1 22.985-7.647l.191-.36h-40.698l4.505-8.164h39.628l8.4-15.822h-39.729l4.403-7.872h39.336l8.716-16.34h-76.892l-34.414 64.526h50.371a93.252 93.252 0 0 1 13.199-8.276v-.045z" fill="#fff"/></g></svg>