<svg viewBox="0 0 500 500" xmlns="http://www.w3.org/2000/svg"><g fill="none" fill-rule="evenodd"><path d="m493.185 159.219c-62.864 14.846-65.61-21.562-160.158-28.237-127.254-8.987-234.193 46.456-319.653 53.566-18.566 1.54-16.158 16.995-2.816 19.614 32.21 7.517 65.447 6.561 95.864 2.487-1.018 2.447-2.044 6.223 1.355 9.122 12.048 10.242 60.483 11.119 81.746 9.895 7.22-.412 22.631-1.868 22.631-1.868-4.394.412-11.263 13.807 3.26 17.579 89.745 25.127 131.968 65.702 180.442 129.605 19.698-2.518 38.241-26.215 30.338-44.307l3.93-9.715 14.508-6.715-4.157-32.412 22.114-10.417s34.451-92.579 36.469-99.316c2.017-6.745-2.158-9.758-5.873-8.881" fill="#fff"/><path d="m244.162 171.961c-62.22 3.676-136.882 38.843-231.943 23.167 84.254-11.373 148.487-39.241 226.833-50.338z" fill="#c60c30"/><path d="m254.545 207.936c25.223-2.71 47.469-1.85 71.715 12.934-50.57-5.487-75.334 8.64-106.856 11.78 111.364 29.225 152.136 91.672 179.75 126.277 19.303-8.202 20.342-24.978 15.43-30.96l4.97-10.658.228-6.838 13.307-6.224-4.21-33.158 24.916-10.201 33.013-90.369c-55.934 11.606-74.057-24.565-153.636-29.5-32.417-2.013-61.61-.522-89.018 3.07l4.465 27.667c18.32-.631 35.562 1.698 51.921 9.14-17.986-1.114-34.17.378-49.96 3.308z" fill="#024"/><path d="m250.87 208.321c-34.422 4.058-74.347 13.68-131.952 2.825 49.649-1.35 86.815-17.97 127.723-26.136l4.228 23.311z" fill="#c60c30"/><path d="m340.457 284.189c30.1 21.079 45.561 44.434 61.25 64.877 7.978-3.316 10.478-12.574 7.855-15.846l-7.597-9.351 8.64.509 3.966-6.89-10.742-.637-12.1 2.185 12.271-8.404 9.343.548.346-5.32-9.548-4.57 3.28-3.588 17.658 1.101-5.074-39.316c-6.978-.85-12.847 2.807-15.382 12.9l-31.294-1.843c4.404-9.982 11.264-14.473 24.281-12.815-7.303-10.229-42.89-11.176-47.917 4.872l27.628 22.64 3.574 20.694-11.35-16.474c-10.207-8.833-20.926-15.03-29.088-5.272" fill="#a5acaf"/><path d="m433.054 182.798 2.224 19.745 22.223 8.343-20.85 5.228 2.06 26.618-18.03-22.496-26.965 6.351 16.663-19.399-13.742-18.206 23.013 7.9z" fill="#fff"/></g></svg>