<svg viewBox="0 0 500 500" xmlns="http://www.w3.org/2000/svg"><defs><linearGradient x1="0%" y1="50%" x2="100.015%" y2="50%" id="a"><stop stop-color="#FFA300" offset="0%"/><stop stop-color="#FFA300" stop-opacity=".98" offset="5%"/><stop stop-color="#FFA300" stop-opacity=".93" offset="11%"/><stop stop-color="#FFA300" stop-opacity=".84" offset="17%"/><stop stop-color="#FFA300" stop-opacity=".71" offset="24%"/><stop stop-color="#FFA300" stop-opacity=".54" offset="31%"/><stop stop-color="#FFA300" stop-opacity=".34" offset="38%"/><stop stop-color="#FFA300" stop-opacity=".11" offset="45%"/><stop stop-color="#FFA300" stop-opacity="0" offset="48%"/></linearGradient></defs><g fill="none"><path d="M438.995 131.82c-68.44-68.48-175.075-80.695-257.227-29.463-22.21 14.54-42.089 34.142-57.851 56.508l-.165.19h-42.86L0 342.097h104.94a167.322 167.322 0 0 0 66.247 67.201c53.545 29.456 118.968 26.994 170.147-6.404a16.092 16.092 0 0 0-8.578-29.601c-1.6.005-3.19.242-4.723.702a111.638 111.638 0 0 1-32.244 4.723 110.217 110.217 0 0 1-82.4-36.62h97.997l16.829-23.45h65.32s-1.984 5.052-3.076 7.53l-7.019 15.92h106.907l2.279-8.372c19.639-72.05-.827-149.099-53.631-201.906zM253.648 274.913h-66.291v-.684c0-55.615 45.104-101.456 102.686-104.35 1.924-.104 3.848-.148 5.728-.148a117.421 117.421 0 0 1 30.182 3.909l-72.305 101.273zm143.744-53.12a152.6 152.6 0 0 1 5.554 30.555H375.59l21.803-30.554z" fill="#FFF"/><path d="M291.837 82.21a195.72 195.72 0 0 0-104.064 29.81 164.073 164.073 0 0 1 62.392-12.245c90.684 0 164.22 73.327 164.644 163.917h-61.395l40.295-56.439s-7.678-17.097-20.251-28.302c-12.574-11.204-28.068-11.265-29.385-11.213l-116.335 162.99h77.825l16.742-23.449h86.802a162.825 162.825 0 0 1-8.275 23.458h80.85a196.768 196.768 0 0 0 6.932-51.76C488.604 170.303 400.51 82.21 291.837 82.21z" fill="#003594"/><path d="M250.962 110.355h-3.354c-48.05 1.057-90.762 24.454-118.388 60.044-51.95 72.651-17.33 160.312-17.33 160.312a154.584 154.584 0 0 0 64.748 68.604c49.865 27.436 110.795 25.144 158.457-5.961a4.749 4.749 0 0 0-2.34-8.7 4.887 4.887 0 0 0-1.455.225 123.05 123.05 0 0 1-35.529 5.199 121.447 121.447 0 0 1-85.2-34.523 116.984 116.984 0 0 1-19.306-24.818 178.033 178.033 0 0 1-14.593-44.472c-.428-3.995-.642-8.01-.64-12.028 0-61.828 50.346-112.504 113.465-115.684a126.27 126.27 0 0 1 6.3-.165 125.832 125.832 0 0 1 48.32 9.359 113.709 113.709 0 0 1 49.618 39.532c-22.28-57.712-77.245-96.924-142.773-96.924z" fill="#FFD100"/><path d="M250.962 40.355h-3.354c-48.05 1.057-90.762 24.454-118.388 60.044-6.066 5.9-68.778 105.606 3.64 192.868a154.645 154.645 0 0 0 43.804 36.066 148.466 148.466 0 0 1-26.75-52.392s-8.51-28.986-3.822-60.659c10.225-70.19 70.19-124.73 143.336-127.712a126.27 126.27 0 0 1 6.3-.164 125.832 125.832 0 0 1 48.319 9.358 113.709 113.709 0 0 1 49.619 39.532c-22.21-57.73-77.176-96.94-142.704-96.94z" fill="url(#a)" transform="translate(0 70)"/><path d="M111.915 330.728a153.969 153.969 0 0 0 20.945 32.539 51.395 51.395 0 0 1 17.053-16.326 145.737 145.737 0 0 1-3.466-16.213h-34.532z" fill="#FF8200"/><path d="M191.222 330.728h-44.775a145.737 145.737 0 0 0 3.466 16.213c17.219-.797 42.158.685 60.59 8.614a117.244 117.244 0 0 1-19.281-24.827z" fill="#FFA300"/><path d="M409.116 307.279a164.699 164.699 0 0 0 5.65-42.886v-.701h-16.828a79.55 79.55 0 0 1-.555 43.587h11.733zM344.09 167.747l-26.75 37.435a79.142 79.142 0 0 1 60.789 23.856l15.597-21.802a113.692 113.692 0 0 0-49.636-39.489z" fill="#0C2340"/><path d="m155.771 170.399-51.317 115.857h140.91l-20.468 28.796c-6.456 8.666-15.017 15.676-28.068 15.676H17.418l70.858-160.312 67.495-.017z" fill="#003594"/></g></svg>