<svg viewBox="0 0 500 500" xmlns="http://www.w3.org/2000/svg"><g clip-rule="evenodd" fill-rule="evenodd"><path d="m411.997 198.032c-36.795-21.376-73.012-16.43-100.478-4.196-1.212-9.028-3.568-18.938-7.502-30.534-5.824-17.248-12.209-33.731-17.834-48.28-7.398-19.105-13.028-35.476-16.117-46.425l-20.018-68.597-20.783 68.642c-3.175 10.904-8.655 27.36-16.012 46.484-5.594 14.558-11.934 31.059-17.722 48.307-3.889 11.614-6.24 21.533-7.425 30.575-27.498-12.18-63.732-17.053-100.478 4.403-30.04 17.564-46.124 48.081-41.986 79.655 3.776 28.726 23.423 51.295 51.26 58.944l20.734 5.692 5.073-20.882c.728-2.835 8.208-28.979 31.758-28.505 16.338.339 29.899 14.775 36.682 24.111-2.193 6.6-3.36 14.512-2.243 23.034l-9.224-12.297-16.682 12.433c-15.022 11.184-36.836 38.83-23.356 71.458 5.879 14.227 18.518 23.92 35.583 27.32 10.437 2.075 22.294 1.591 33.282-.823 4.323 13.875 12.205 30.661 26.539 45.653l15.122 15.796 15.071-15.832c14.308-15.028 22.14-31.842 26.449-45.721 10.993 2.374 22.841 2.835 33.277.733 17.057-3.427 29.669-13.156 35.52-27.397 13.408-32.664-8.487-60.26-23.523-71.409l-16.713-12.383-9.193 12.311c1.103-8.522-.091-16.425-2.297-23.039 6.765-9.34 20.29-23.812 36.623-24.183 23.555-.529 31.084 25.598 31.871 28.582l5.114 20.873c-.032-.158 20.683-5.895 20.683-5.895 27.833-7.704 47.413-30.331 51.121-59.076 4.065-31.565-12.096-62.05-42.176-79.532z" fill="#0a0b09"/><path d="m243.147 71.576c-2.537 11.944-9.075 28.943-16.65 48.641-5.548 14.422-11.829 30.765-17.513 47.719-5.454 16.289-7.678 28.428-7.678 39.748 0 3.621.416 7.161.841 10.719-20.969-14.395-62.286-34.074-107.347-7.744-25.029 14.634-38.473 39.744-35.09 65.554 3.011 22.957 18.702 41.023 40.955 47.135l6.602 1.809 1.642-6.664c.411-1.632 10.323-40.06 45.843-39.346 28.588.574 47.273 28.36 52.319 36.9-2.401 4.439-4.395 10.561-4.395 17.586 0 7.532 2.564 16.1 9.107 24.689-2.609 3.536-6.882 7.871-11.87 8.283-7.113.583-14.312-6.904-19.096-13.296l-3.993-5.326-5.341 3.983c-10.925 8.142-28.913 30.042-18.734 54.676 4.074 9.847 12.802 16.353 25.241 18.826 12.861 2.55 29.095.23 40.626-5.023 2.234 13.007 8.56 35.019 26.688 53.958l4.839 5.058 4.825-5.067c18.083-18.993 24.359-41.024 26.562-54.04 11.549 5.227 27.805 7.514 40.666 4.919 12.417-2.5 21.126-9.033 25.169-18.879 10.106-24.653-7.909-46.516-18.852-54.632l-5.345-3.964-3.984 5.343c-4.775 6.393-11.961 13.907-19.078 13.333-4.983-.407-9.266-4.725-11.884-8.247 6.498-8.576 9.044-17.111 9.044-24.625 0-7.066-2.012-13.21-4.436-17.664 5.028-8.544 23.659-36.393 52.233-37.031 35.515-.795 45.527 37.615 45.934 39.251l1.66 6.637 6.602-1.808c22.23-6.162 37.88-24.255 40.837-47.222 3.329-25.819-10.169-50.906-35.23-65.477-45.152-26.249-86.451-6.429-107.369 8.02.389-3.463.791-6.899.791-10.43 0-11.442-2.211-23.78-7.71-40.051-5.72-16.922-12.037-33.238-17.613-47.637-7.624-19.684-14.199-36.683-16.763-48.627l-6.566-30.626z" fill="#fffffe"/><path d="m250.169 469.787c25.571-26.855 25.879-60.726 25.879-60.726 11.314 11.275 55.281 18.816 65.138-5.199 10.812-26.366-16.649-46.738-16.649-46.738-26.617 35.671-44.474.76-44.474.76 20.268-21.9 5.06-41.643 5.06-41.643 1.325-3.965 23.804-43.198 59.794-44.002 41.48-.936 52.563 44.319 52.563 44.319 43.497-12.053 51.899-72.679 4.034-100.497-60.739-35.308-113.66 18.482-113.66 18.482 4.925-20.132 6.327-35.178-3.604-64.577-13.461-39.862-29.962-75.478-34.574-97.002-4.572 21.529-21 57.204-34.363 97.092-9.853 29.427-8.406 44.473-3.454 64.586 0 0-53.043-53.659-113.696-18.215-47.806 27.935-39.26 88.53 4.264 100.483 0 0 10.975-45.277 52.459-44.432 36 .715 58.56 39.893 59.894 43.849 0 0-15.162 19.788 5.159 41.634 0 0-17.785 34.969-44.469-.642 0 0-27.434 20.43-16.55 46.769 9.921 23.993 53.861 16.348 65.148 5.045 0 0 .389 33.871 26.01 60.663" fill="#0a0b09"/><path d="m358.972 214.168c-49.429.049-89.959 56.173-89.959 56.173 1.759-9.182 22.89-50.499 3.767-99.882-19.124-49.378-23.026-69.27-23.026-69.27l-.091.565v-.551s-3.866 19.896-22.872 69.328c-19.01 49.428 2.225 90.7 3.998 99.864 0 0-40.662-56.019-90.091-55.956-49.42.054-90.57 56.29-44.899 89.501 0 0 13.367-41.493 59.432-41.579 33.879-.072 67.821 36.263 69.259 54.27 0 0-15.511 21.895 6.054 40.218 0 0-23.297 48.998-55.597 13.703 0 0-24.839 31.068 7.642 38.591 25.771 5.959 51.153-20.177 51.153-20.177s-2.768 41.285 16.319 63.85v-.204l.095.195c19.038-22.605 16.171-63.895 16.171-63.895s25.445 26.081 51.215 20.055c32.459-7.595 7.543-38.609 7.543-38.609-32.21 35.367-55.611-13.568-55.611-13.568 21.506-18.377 5.942-40.232 5.942-40.232 1.393-17.993 35.239-54.418 69.131-54.427 46.075 0 59.536 41.448 59.536 41.448 45.595-33.315 4.31-89.475-45.111-89.411z" fill="#d3bc8d"/></g></svg>