<svg viewBox="0 0 500 500" xmlns="http://www.w3.org/2000/svg" xmlns:xlink="http://www.w3.org/1999/xlink"><clipPath id="a"><path d="m0 0h500v221.246h-500z" transform="translate(0 139)"/></clipPath><g clip-path="url(#a)"><path d="m419.019 320.404a392.335 392.335 0 0 0 -65.333-5.761h-300.643c-18.72 0-38.066.001-48.003-15.312-9.936-15.313-4.8-30.77 12.385-61.3l52.803-99.127a81.277 81.277 0 0 0 10.561 10.705c5.232 4.128 10.657 6.288 25.01 6.288l191.532-.336c33.362 0 67.204 3.457 88.95 27.41 11.328 1.2 48.003 6.049 78.101 20.449 17.617 8.449 29.281 21.026 33.602 36.435a54.327 54.327 0 0 1 1.968 14.401 90.783 90.783 0 0 1 -16.177 47.619c-22.658 35.522-43.539 48.003-44.499 48.579a51.511 51.511 0 0 1 -25.346 9.6 82.195 82.195 0 0 0 15.025-25.537c3.841-12.577-9.936-14.113-9.936-14.113z" fill="#fff"/><path d="m460.59 211.292c-34.371-16.417-78.533-19.969-78.533-19.969-19.202-23.569-51.844-27.074-84.774-27.074 0 0-165.754.384-191.532.384-30.05 0-33.074-11.904-33.074-11.904l-40.227 75.364h104.503c32.882 0 34.514-3.312 56.356-19.201 23.137-17.041 41.666-23.233 63.556-23.233 21.889 0 36.338 4.8 60.723 15.745 24.386 10.944 37.299 16.033 51.796 9.84 0 0-11.425 15.409-45.939.912s-43.779-17.569-64.756-17.569c-20.978 0-44.355 9.937-74.021 39.555l35.33 28.465s-8.16 12.625-13.537 20.69c-5.376 8.064-4.8 13.441-2.016 17.377s6.481 5.76 19.585 5.76l129.609-.24a399.15 399.15 0 0 1 67.204 5.905c33.074 6.624 11.713 34.514 11.713 34.514s22.129-14.401 44.067-48.963c24.385-38.499 18.193-69.893-16.033-86.358z" fill="#024"/><path d="m399.866 217.485c-15.649-3.745-2.304-12.817-2.304-12.817a44.685 44.685 0 0 0 -32.786 28.034c-.384.72-.721 1.44-1.105 2.208-12.48 25.009-23.665 23.665-44.93 23.665h-36.435c-29.474 0-43.202 14.641-57.603 39.555h16.657c15.217-22.705 26.737-28.802 56.835-30.482a341.651 341.651 0 0 1 152.65 34.85c41.427-69.22-19.729-80.693-50.979-85.013z" fill="#fff"/><path d="m271.794 297.842c7.68-11.617 23.329-15.601 48.579-14.113a392.674 392.674 0 0 1 125.816 26.066c-34.275-20.066-95.382-34.515-137.865-34.419-20.737 0-38.883 3.697-49.539 22.466zm66.82-68.693c-8.113 11.329-18.817 15.217-49.107 13.153-35.282-2.4-26.162-17.281-22.082-24.577 1.104-2.112 3.025-5.617 4.801-9.121-27.026-1.68-46.755 19.201-46.755 19.201 20.113 19.922 33.602 21.986 51.795 21.986h34.034c31.682 0 39.363-14.401 42.243-20.594a56.234 56.234 0 0 1 -14.929-.048z" fill="#fff"/><path d="m323.204 225.79-1.968-.817a16.264 16.264 0 0 1 -13.632 4.513c-6.817-.864-10.801-5.809-8.833-11.089a9.58 9.58 0 0 1 1.152-2.16 280.987 280.987 0 0 0 -10.417-3.888c-7.008 11.376-11.136 18.865 13.201 20.929 15.169 1.296 19.201-1.296 22.466-6.768z" fill="#69be28"/><path d="m200.941 268.944c-12.577 21.794-17.569 26.786-8.737 37.155h-139.017c-20.545 0-33.89-.768-40.754-11.377-6.865-10.609-5.28-20.065 12.672-52.419h118.328c20.401 0 25.634 1.152 36.674 9.6 11.041 8.449 20.834 17.041 20.834 17.041z" fill="#a5acaf"/></g></svg>