<svg viewBox="0 0 500 500" xmlns="http://www.w3.org/2000/svg" xmlns:xlink="http://www.w3.org/1999/xlink"><clipPath id="a"><path d="m0 0h500v500h-500z"/></clipPath><g clip-path="url(#a)"><path d="m-.225 249.972a250.026 250.026 0 0 0 298.772 245.287 250.029 250.029 0 0 0 -48.744-495.259 250.308 250.308 0 0 0 -250.028 249.972z"/><path d="m250.028 494.545a244.575 244.575 0 0 0 239.811-292.322 244.577 244.577 0 0 0 -192.174-192.13 244.572 244.572 0 1 0 -47.637 484.452z" fill="#a5acaf"/><path d="m250.028 454.561a203.976 203.976 0 0 0 188.455-125.94 203.972 203.972 0 0 0 -266.589-266.442 203.968 203.968 0 0 0 -66.055 332.68 203.969 203.969 0 0 0 144.189 59.702z" fill="#fff"/><path d="m251.097 250.703c2.362-83.568 81.262-103.194 101.226-101.226-48.87-2.643-97.121-23.282-100.889-100.607-5.624 71.926-34.698 92.34-101.226 100.888 47.464 2.418 95.602 21.201 100.945 101.226" fill="#ffb612"/><path d="m352.491 354.29c2.362-83.567 79.856-104.206 99.708-102.407-49.038-1.799-96.277-25.081-99.989-102.406-5.905 71.926-34.642 92.846-101.226 101.226 47.464 2.418 95.996 23.507 101.226 103.419" fill="#c60c30"/><path d="m252.334 453.718c2.306-83.568 80.306-101.226 100.157-99.427-48.869-2.643-97.683-26.094-101.226-103.419-5.905 71.87-33.742 93.465-100.326 102.013 47.464 2.419 96.109 20.92 101.564 100.833" fill="#00539b"/><path d="m194.241 232.989v30.592h7.986v-17.714c0-1.856-.394-4.274 6.467-3.768v-9.335h-1.968c-2.7.618-3.431 1.912-4.668 3.992v-3.824zm36.104 10.009a9.5 9.5 0 0 0 -4.184-9.075 9.498 9.498 0 0 0 -9.987-.316 7.758 7.758 0 0 0 -4.274 3.037 8.543 8.543 0 0 0 -1.35 4.611 7.927 7.927 0 0 0 5.624 8.829c2.53.619 5.623.956 6.748 2.981a2.079 2.079 0 0 1 0 2.418c-.506 1.181-3.149 1.181-4.218.787a2.812 2.812 0 0 1 -1.631-2.755h-6.86a13.5 13.5 0 0 0 1.18 6.242 8.042 8.042 0 0 0 4.781 3.824c1.758.594 3.622.816 5.471.652a13.4 13.4 0 0 0 5.27-1.608 10.345 10.345 0 0 0 2.699-2.868 9.058 9.058 0 0 0 .731-7.48 12.517 12.517 0 0 0 -.731-2.249 8.602 8.602 0 0 0 -5.961-4.443l-1.912-.506c-3.824-.394-4.105-2.587-3.599-4.049a2.471 2.471 0 0 1 2.699-1.631 2.419 2.419 0 0 1 2.306 1.575c.061.636.061 1.276 0 1.912zm-132.043-9.841a13.499 13.499 0 0 0 -1.519-7.48 12.599 12.599 0 0 0 -16.252-4.499 10.518 10.518 0 0 0 -4.837 4.668 12.091 12.091 0 0 0 -1.8 5.624 13.834 13.834 0 0 0 6.468 12.372 40.316 40.316 0 0 1 7.986 4.724 6.295 6.295 0 0 1 .843 5.623 3.713 3.713 0 0 1 -5.623.563 8.888 8.888 0 0 1 -1.013-5.174h-8.548a16.87 16.87 0 0 0 1.069 8.829 8.832 8.832 0 0 0 5.061 4.724 14.058 14.058 0 0 0 15.578-2.193 6.075 6.075 0 0 0 1.518-2.306 16.253 16.253 0 0 0 1.406-10.179 12.21 12.21 0 0 0 -1.856-4.724 14.792 14.792 0 0 0 -7.142-5.623l-1.293-.619c-4.555-1.462-6.411-4.274-5.005-7.255a3.653 3.653 0 0 1 5.117-1.124 6.129 6.129 0 0 1 1.181 3.88h8.66v.169zm4.499-.113h-3.262v7.03h3.037v16.253c0 8.604 7.423 7.31 11.247 7.367v-9.167c-3.318 0-3.037-.562-3.037-2.25v-12.034h3.149v-7.255h-3.149v-7.479l-8.21 4.555zm66.19-12.259h-8.267v43.077h8.267zm9.167 34.136c0 2.755 6.017 3.318 6.186 0v-.9h6.636v3.599a6.242 6.242 0 0 1 -4.949 6.355 15.806 15.806 0 0 1 -9.504 0 7.595 7.595 0 0 1 -5.061-7.536v-14.903a7.927 7.927 0 0 1 4.105-7.029 12.264 12.264 0 0 1 10.572-.281 7.756 7.756 0 0 1 4.837 7.142v9.335h-12.935zm.337-10.573h6.074a3.207 3.207 0 0 0 -4.501-3.878 3.197 3.197 0 0 0 -1.706 2.378 3.194 3.194 0 0 0 .133 1.5zm-33.179 10.573c0 2.755 6.017 3.318 6.186 0v-.9h6.692v3.599a6.303 6.303 0 0 1 -5.005 6.355 15.806 15.806 0 0 1 -9.504 0 7.65 7.65 0 0 1 -5.062-7.536v-14.903a8.11 8.11 0 0 1 1.13-4.078 8.086 8.086 0 0 1 3.032-2.951 12.264 12.264 0 0 1 10.572-.281 7.875 7.875 0 0 1 4.837 7.142v9.335h-12.935zm.281-10.573h6.017a3.204 3.204 0 0 0 -5.637-2.94 3.194 3.194 0 0 0 -.38 2.94zm-22.664 10.573c0 2.755 6.018 3.318 6.186 0v-.9h6.692v3.599a6.297 6.297 0 0 1 -5.005 6.355 15.806 15.806 0 0 1 -9.504 0 7.652 7.652 0 0 1 -5.061-7.536v-14.903a8.09 8.09 0 0 1 4.162-7.029 12.264 12.264 0 0 1 10.572-.281 7.867 7.867 0 0 1 4.836 7.142v9.335h-12.934zm.282-10.573h5.904a3.19 3.19 0 0 0 .393-1.594 3.197 3.197 0 0 0 -1.618-2.73 3.208 3.208 0 0 0 -4.792 2.73 3.202 3.202 0 0 0 .394 1.594z"/></g></svg>