<svg viewBox="0 0 500 500" xmlns="http://www.w3.org/2000/svg"><g clip-rule="evenodd" fill-rule="evenodd"><path d="m308.401 208.678s-33.273-8.338-95.178-39.049c-143.144-71.017-98.166-106.272 12.17-126.131-176.579-76.845-315.838 57.446-153.482 187.554l-43.713 30.934c36.595 22.406 106.933 71.287 95.917 143.287l-33.6 24.653 107.292 49.534 89.18-39.732c.659-39.881 72.504-60.263 103.196-141.38 168.948-38.728 126.435-181.908-15.692-196.307 101.43 81.32 18.559 94.61-66.09 106.637z" fill="#fff"/><path d="m236.926 345.786-32.582-37.018-37.409 5.565 17.291-28.45-32.575-37.049 43.273 19.449 17.252-28.458 9.435 40.462 43.266 19.426-37.425 5.596zm53.453-131.78c-212.09-81.844-226.135-148.976-93.751-172.179-165.563-44.95-262.133 74.934-98.321 189.253l-43.955 31.383c46.674 31.159 96.137 77.301 79.357 149.913l-22.148 15.796 85.067 38.519c79.164-86.62 120.57-170.786 93.751-252.685z" fill="#03202f"/><path d="m398.042 112.514c72.788 56.939 22.248 93.306-66.49 103.189 22.45 94.545-46.388 181.142-119.269 248.196l66.823-30.245c4.943-38.427 72.742-58.41 104.875-143.675 150.891-33.636 126.264-141.833 14.061-177.465" fill="#a71930"/></g></svg>