<svg viewBox="0 0 500 500" xmlns="http://www.w3.org/2000/svg"><g fill="none" fill-rule="evenodd"><path d="m161.41 279.596c.489 5.87 2.575 17.547 9.327 30.579 8.344 16.092 25.824 37.549 61.874 49.701a145.993 145.993 0 0 0 20.076 24.972c27.404 27.326 63.808 42.347 102.505 42.286 38.702-.055 75.06-15.178 102.384-42.59 27.323-27.4 42.348-63.808 42.288-102.513-.061-38.705-15.182-75.067-42.581-102.393-21.712-21.653-48.95-35.583-78.914-40.417-40.566-36.736-87.925-23.573-89.96-22.982-.677.192-1.692.485-2.954.869-14.576 4.849-22.112-.712-26.995-4.536-5.41-4.243-11.314-8.551-17.01-11.753-19.349-10.885-46.849-11.274-70.01-1.935-15.258 5.197-22.95-1.525-27.5-4.667-30.218-20.85-67.37-25.825-106.783-17.148-26.54 5.849-37.157 11.248-37.157 11.248s18.182 2.637 37.177 10.577c15.596 6.516 27.995 14.88 37.384 29.902 0 0 5.909 8.677 2.07 11.238-4.298 2.864-8.772-4.147-8.772-4.147-.147 5.046-.147 10.067.186 13.88 2.182 40.07 10.354 64.137 29.677 82.527 8.793 8.365 23.626 16.502 46.546 25.508 10.454 4.182 16.11 9.54 17.141 21.794" fill="#fff"/><path d="m450.75 186.184c-21.02-20.961-47.702-34.185-76.586-38.246-37.651-36.028-83.177-22.825-83.177-22.825 9.647 1.435 16.056 7.188 13.581 13.562-1.636 4.212-8.646 4.435-11.848 4.47-10.167.111-18.95-6.132-25.96-11.83-7.293-5.93-19.187-16.45-29.838-22.44-19.839-11.158-51.339-9.77-74.142 4.788 13.632.924 30.036 4.848 39.824 12.95 5.46 4.526 12.424 13.623 6.727 17.87-5.005 3.738-17.308 1.809-23.556-1.813-9.944-5.753-18.894-14.47-24.262-20.795-36.081-42.518-87.207-44.892-129.364-34.477 27.667 7.768 46.131 23.532 57.535 50.706 11.41 27.174 20.273 38.74 39.066 46.105 11.768 4.606 14.95 5.46 14.025 10.678-1.353 7.637-15.288 3.97-25.924-.182-12.95-5.056-30.015-19.022-40.182-45.216 1.849 33.892 8.318 57.924 27.42 76.107 8.11 7.718 23.02 15.704 46.343 24.68 14.889 5.732 26.677 9.202 37.762 19.142 12.94 11.582 7.43 19.234-1.151 17.785-9.707-1.637-16.636-11.552-16.636-11.552s.015 55.217 68.257 76.476a136.33 136.33 0 0 0 20.55 26.174c25.657 25.588 59.738 39.645 95.965 39.59 36.228-.056 70.268-14.209 95.859-39.872 25.576-25.66 39.641-59.743 39.586-95.973-.05-36.236-14.217-70.28-39.874-95.862" fill="#024"/><path d="m443.54 193.055c-20.36-20.356-46.49-32.836-74.693-35.923-24.267-24.188-48.48-23.057-48.48-23.057 10.627 6.667 5.147 21.497-18.484 24.765-23.414 3.232-53.147-4.703-67.626-21.573-14.925-17.385-26.192-18.178-26.192-18.178 12.944 8.086 13.868 17.794 21.722 32.583 7.858 14.79 24.035 20.103 38.126 21.027 14.844.975 15.207 7.693 3.238 14.795-13.056 7.738-24.612.424-33.01-7.85-13.258-13.081-26.47-15.587-44.723-15.354-18.252.232-42.379 2.631-62.747-4.99-20.369-7.628-33.798-34.433-33.798-34.433 10.07 35.589 32.454 52.46 53.222 56.53 27.44 5.384 46.409 11.915 58.015 21.315 11.333 9.193 17.369 18.36 21.626 31.013 3.288 9.753 3.874 22.704.632 23.477-3.778.904-4.56-4.309-9.02-13.4-4.925-10.042-10.804-17.921-22.662-24.245-16.07-8.571-31.798-8.076-47.833-7.854-12.702.177-20.152-1.278-20.152-1.278s.535 1.712 21.227 6.359c23.066 5.177 45.374 18.178 60.217 49.868 12.632 26.957 6.04 45.933-21.944 37.347 0 0 13.07 29.058 55.763 39.407 5.51 9.688 12.358 18.694 20.45 26.785 23.656 23.659 55.105 36.685 88.56 36.685 33.454 0 64.899-13.026 88.565-36.685 23.657-23.658 36.677-55.116 36.677-88.573 0-33.452-13.02-64.905-36.677-88.563" fill="#4b92db"/><path d="m354.976 162.488c31.813 0 61.732 12.39 84.232 34.892s34.889 52.418 34.889 84.24c0 65.692-53.434 119.14-119.121 119.14-31.818 0-61.738-12.394-84.238-34.896s-34.889-52.419-34.889-84.245c0-31.82 12.39-61.737 34.89-84.24 22.5-22.501 52.419-34.891 84.237-34.891" fill="#fff"/><path d="m355.128 390.48c-60.106.092-108.914-48.574-109.005-108.695-.09-60.117 48.576-108.924 108.687-109.015 60.111-.086 108.92 48.585 109.01 108.701.091 60.117-48.57 108.924-108.692 109.01" fill="#024"/><path d="m328.357 259.6h-32.257l-10.626 18.957-14.298-40.54h167.293l-14.273 40.54-10.546-18.957h-31.712l-26.859 117.51z" fill="#fff"/><path d="m438.47 238.015h-167.295l2.707 7.683h79.778l-25.303 13.9 26.722 117.495v-131.395h80.687z" fill="#a5acaf"/><path d="m272.845 143.993c-24.262-.692-34.151-10.314-49.217-22.416-18.44-14.814-38.894-10.687-38.894-10.687 12.248-7.011 36.334-7.299 53.682 7.914 15.5 13.593 23.106 20.967 34.43 25.19m-207.076-53.44s22.697-.545 42.54 35.054c16.677 29.926 48.485 35.917 71.768 29.325 0 0-30.666-.798-47.444-30.533-17.142-30.39-39.824-38.846-66.864-33.846m128.502 172.386s-3.212-33.084-50.364-42.68c-47.465-9.658-53.58-34.362-53.58-34.362s.317 35.624 41.16 46.574c28.526 7.642 49.455 12.037 62.784 30.468m177.051-35.392-6.414-19.082 16.227-11.754h-20.126l-6.328-19.082-6.036 19.082-20.126.238 16.4 11.672-6.117 19.179 16.172-11.991zm-71.819 67.468-13.323 15.092-18.43-8.086 10.233 17.334-13.384 15.037 19.646-4.38 10.162 17.376 1.904-20.042 19.672-4.288-18.475-8.006zm94.329 28.476 19.738 3.99 2.212 20.007 9.894-17.532 19.707 4.076-13.611-14.83 9.96-17.486-18.299 8.37-13.55-14.89 2.298 20.001z" fill="#c60c30"/></g></svg>