<svg viewBox="0 0 500 500" xmlns="http://www.w3.org/2000/svg"><g clip-path="url(#a)"><path d="M252.405 344.989c3.259-12.846 12.135-23.282 14.215-24.928 0 0-13.747 18.34-9.777 47.169a115.065 115.065 0 0 1 21.6-46.805c17.838-23.126 34.913-34.029 49.041-51.347a81.96 81.96 0 0 0 15.047-27.251 72.808 72.808 0 0 0 3.589-16.729c-3.832.347-7.489.815-11.164 1.179a2.474 2.474 0 0 1-.087.381c-3.692 12.36-10.852 21.253-22.206 26.454-14.839 15.134-36.976 25.656-49.319 33.561-21.808 13.972-25.396 41.604-25.396 41.604 2.409-42.298 28.343-47.741 56.669-68.543.589-.433 2.01-1.248 2.583-1.734l-.867.382a84.291 84.291 0 0 1-14.111-1.456 99.948 99.948 0 0 1-8.91 5.512 91.764 91.764 0 0 0-25.119 21.305c4.022-13.383 13.4-19.069 27.459-28.932a50.285 50.285 0 0 1-15.203-9.829c-8.286 4.281-26.592 15.393-38.779 26.904-9.742 9.222-27.84 22.293-49.215 32.382 16.798-11.129 45.072-36.092 55.074-45.557 0 0-37.253 21.513-47.914 28.742 0 0 13.868-15.307 31.012-24.755 0 0-37.929 15.602-59.737 30.441-11.285 7.697-28.568 23.402-38.571 34.098 4.109-.884 19.693-4.039 23.836-4.455 28.049-2.895 58.68-.711 85.55-33.041l1.265-1.525c-2.34 8.009-3.346 19.207-2.878 31.689.971 27.008 21.93 37.652 30.042 43.338-.19-3.277-.658-6.588 2.271-18.254z" fill="#FFC62F"/><path d="M189.825 320.754h-.537s7.939 4.16 14.527 4.16a36.423 36.423 0 0 0 12.013-2.132s-1.092-15.463.364-20.525c0 .052-12.516 15.03-26.367 18.497z" fill="#FFC62F"/><path d="M255.179 204.92s13.487 3.952 21.634 10.228c0 0-8.841-1.734-17.872-2.913a36.077 36.077 0 0 0 25.805 15.778c5.186.606 10.443.08 15.406-1.542a36.105 36.105 0 0 0 13.343-7.856 29.029 29.029 0 0 1-4.144 2.461 23.128 23.128 0 0 1-8.425 2.185 26.373 26.373 0 0 1-11.683.693l.329-.087c15.602-2.687 30.025-14.561 28.395-32.677-.693-7.748-3.068-16.017-7.94-21.235a31.357 31.357 0 0 1 9.726 33.266 33.75 33.75 0 0 0 3.189-13.868 26.255 26.255 0 0 1-.52 13.781 34.66 34.66 0 0 0 2.496-12.412c.104.52.156.988.243 1.491v-.087a35.692 35.692 0 0 0-.815-7.627v-.364a43.873 43.873 0 0 0-24.616-32.07 88.687 88.687 0 0 0-46.805-7.108c-3.293.347-6.518.763-9.655 1.162-16.902 2.167-32.937 4.212-49.943-5.374-21.184-10.679-36.855-34.515-39.871-60.673l-.33-2.86c-.433-3.606-.589-7.42-.797-11.113-.295-3.259-.902-5.027-.971-4.61-.017.259-.017.52 0 .78a51.727 51.727 0 0 1-1.092 8.286c-.503 3.241-1.161 9.413-1.213 9.204a6.583 6.583 0 0 1-.122-.884 17.728 17.728 0 0 1-.19-2.704c0-1.837-.001-3.658-.157-5.478-.225-4.576-1.005-17.942-1.352-19.64-.104-.434-.277-1.96-.745-2.22 0 1.56 0 3.138-.087 4.716-.173 4.09-1.092 8.945-1.508 13.018-.416 4.074-1.092 8.13-1.733 12.135-.174 1.127-.416 3.363-.451 3v-.244c-.225-2.496-.85-10.522-.798-19.64v-1.873c0 .347-.104.711-.173 1.058a222.6 222.6 0 0 0-3.467 34.15v2.063a110.68 110.68 0 0 0 7.402 39.871c11.147 28.569 32.729 47.533 64.141 56.34 15.636 4.507 33.162 7.8 45.366 11.493z" fill="#fff"/><path d="M279.899 389.644a230.916 230.916 0 0 0-21.271-14.648c-8.147-4.525-17.057-9.5-20.524-12.568 0 0 0 14.319 6.934 25.24 5.2 8.147 19.502 15.601 28.776 21.149.815-3.017 2.964-10.783 6.085-19.173zm-17.387-17.977c6.743 4.196 14.908 9.275 19.398 12.846a155.747 155.747 0 0 1 3.467-7.68c7.211-14.215 14.301-19.276 17.092-34.098a36.251 36.251 0 0 0-9.603-31.776s-16.139 17.665-22.536 32.036c-5.547 12.845-7.524 23.177-7.818 28.672zm-31.169-167.25-3.797-.953c-2.548-.642-5.2-1.248-7.697-1.855a908.01 908.01 0 0 1-8.529-1.994c-.156.694-.294 1.404-.433 2.098a157.77 157.77 0 0 0-1.023 7.61c6.414-1.734 14.007-3.467 21.323-4.733h.52l-.364-.173z" fill="#FFC62F"/><path d="M249.684 110.945c-23.854-14.717-29.782-28.707-33.388-48.729a83.091 83.091 0 0 0-2.219-9.205 95.704 95.704 0 0 1 0 14.683c-.919-7.333-5.495-20.16-5.495-20.16a150.136 150.136 0 0 1 2.288 21.547c-.939-5.8-2.318-11.52-4.126-17.11.555 3.71 1.006 7.177 1.37 10.02 1.213 9.88-1.145 27.528 5.859 46.025 4.524 11.978 14.371 20.802 20.265 25.171 4.94-6.883 11.198-15.741 15.446-22.242z" fill="#fff"/><path d="M420.054 238.36c-7.298 2.895-24.269-2.271-34.948-3.034a30.909 30.909 0 0 0-18.08 4.247c-2.895-7.298.45-17.162.45-17.162-2.218 0-10.21 1.023-12.464 1.144a5.58 5.58 0 0 1-2.097.399v.728c0 .243-3.363 25.795-15.602 42.627 3.207 1.734 11.268 4.178 14.128 6.778a18.083 18.083 0 0 1 4.309 6.671 18.08 18.08 0 0 1 1.031 7.874 94.944 94.944 0 0 1-3.173 17.335s-.624-14.024-1.872-18.15c-1.248-4.126-5.963-7.94-10.401-9.309-2.046-.641-5.79-1.647-9.95-2.566-8.061 9.223-16.174 15.602-23.819 22.363a6.032 6.032 0 0 0 3.571 2.739c4.576 1.196 10.401-1.543 10.401-1.543s-3.692 17.058 6.102 31.602c7.298 10.835 21.409 8.061 21.409 8.061s3.016-21.426 16.382-38.588c12.325-15.827 27.355-24.027 37.843-27.113-.382-1.941-1.023-5.963-.278-7.922a8.098 8.098 0 0 1 7.385-5.01 20.89 20.89 0 0 1 7.506 1.89c-1.872-.381-6.743-.624-9.257 1.993-1.924 2.029-1.04 6.102-.52 7.888a58.492 58.492 0 0 1 20.23-.139c1.821.451 3.467.139 4.109-2.132.641-2.271.607-5.01-.607-5.929-1.213-.918-3.19-1.213-5.2-2.739-2.011-1.525-3.641-5.2-3.467-10.401.173-5.2-3.121-12.602-3.121-12.602zm-24.824 4.143a20.63 20.63 0 0 1 3.623 5.876c.016.289.016.578 0 .867v.295c-.156 1.733-.988 9.777-2.843 12.03a8.116 8.116 0 0 1-.971 1.266c-2.132 1.993-5.859 3.883-12.897 8.772-7.766 5.373-13.868 16.399-13.868 16.399s2.201-10.401 6.934-16.365a60.772 60.772 0 0 1 18.462-14.769l2.15-9.604a16.293 16.293 0 0 0-5.721-2.583c-4.161-.728-11.164-.624-15.446-2.028v-.087c5.201-.624 8.13-2.132 15.775-3.38a28.37 28.37 0 0 1 13.504 1.005c-3.028.15-5.992.929-8.702 2.288v.018z" fill="#E9BF9B"/><path d="M374.879 222.758c-3.745 2.496-2.878 10.002-2.878 10.002s3.016-3.12 10.401-5.01c7.385-1.889 17.162-.485 17.162-.485a29.49 29.49 0 0 0-8.772 2.999c10.523 1.369 12.395 4.75 26.402 3.744 14.007-1.005 15.775-14.249 15.775-14.249a59.524 59.524 0 0 1-10.505 3.12c-7.264 1.63-21.912-.624-26.298-1.127-4.386-.502-17.526-1.577-21.287 1.006zm-139.185-81.476c2.253-.26 4.524-.555 6.847-.849 3.19-.399 6.432-.833 9.795-1.179a90.393 90.393 0 0 1 20.23-.208 95.188 95.188 0 0 1 28.603 7.35c14.995 6.345 26.835 21.634 28.915 37.617.087.451.174.884.243 1.335v.503c.087.572.156 1.144.225 1.733a364.563 364.563 0 0 1 39.629-2.548c11.281.079 22.543.959 33.699 2.635a141.99 141.99 0 0 0-31.203-45.072c-33.717-31.966-75.408-47.22-110.2-48.833a46.246 46.246 0 0 1-4.299 14.232 53.387 53.387 0 0 1-5.236 9.015c-3.276 4.403-9.829 13.452-15.861 22.535-.243.312-1.387 1.734-1.387 1.734zm44.084 296.692s3.467-6.223 7.471-13.192a81.515 81.515 0 0 0-9.881-7.142c-3.727-2.323-10.124-5.495-15.602-8.667a30.375 30.375 0 0 0 4.681 16.954 41.88 41.88 0 0 0 13.331 12.047zm-22.796-197.742c-.555-.763-1.11-1.526-1.63-2.341l-1.127-.988c-3.865.78-55.628 7.576-118.226 49.648-20.802 13.869-46.164 38.675-58.714 52.474 5.374-2.34 16.97-7.211 26.141-10.037 9.361-9.621 24.738-25.205 38.831-35.086 32.677-22.866 88.514-46.511 114.725-53.67zm151.978 67.729a110.584 110.584 0 0 1 30.111-14.129s-.555-8.667-9.378-17.006c0 0-13.383-3.761-30.146 3.866-16.763 7.628-32.764 22.865-39.646 38.64-6.882 15.776-7.419 32.452-8.165 44.725-.745 12.274 1.283 30.597-3.467 47.1 0 0 7.905-11.701 10.765-44.725 2.601-29.955 10.02-50.567 23.784-60.205 0 0-11.008 15.272-14.769 40.304-3.762 25.032-2.999 34.792-7.628 55.56l-1.144 3.9s11.008-14.752 16.988-53.202c5.201-33.613 15.065-48.694 28.586-56.582 0 0-18.098 19.676-22.241 47.828-.052-.069 10.211-25.448 26.35-36.074z" fill="#FFC62F"/><path d="M319.25 332.247c-5.045-7.42-8.529-22.241-8.529-22.241a13.872 13.872 0 0 1-10.02-5.201 66.24 66.24 0 0 0-1.872 1.924s5.686 7.888 9.153 22.727c2.635 11.285-4.42 29.66-4.42 29.66a100.557 100.557 0 0 1 5.2 20.439l.676-.399s19.693-10.401 30.268-14.856a90.515 90.515 0 0 1 6.136-2.254c.237-5.403.751-10.789 1.543-16.139-2.028 0-3.9.087-5.478.087-10.817-.018-17.595-6.328-22.657-13.747zm108.05 13.487c-5.374-.156-26.436-.832-39.524-.832h-.156a35.858 35.858 0 0 0-3.467 7.298c3.658-.711 7.177-1.335 10.401-1.82 17.838-2.687 32.504-3.155 34.878-3.467 2.375-.312 6.623-.156 8.2-1.422-.035 0-4.975.347-10.332.243z" fill="#E9BF9B"/><path d="M268.024 445.706a10.827 10.827 0 0 0 6.067 6.484c1.63-5.201 3.71-10.818 3.71-10.818a41.828 41.828 0 0 1-7.523-5.2c-1.422 1.82-3.918 3.952-2.254 9.534z" fill="#FFC62F"/><path d="M433.576 324.047a30.008 30.008 0 0 0-10.124-1.127s4.871-11.891 4.369-18.392c0 0-28.326 12.221-36.404 34.67 0 0 16.988.451 26.505 1.56 9.517 1.11 15.688 1.179 17.821 1.301 2.132.121 6.5.381 5.2-7.385-1.3-7.766-3.605-9.119-7.367-10.627z" fill="#E9BF9B"/><path d="M265.822 477.984c-2.236 2.757-3.241 8.339-1.837 10.003a2.896 2.896 0 0 0 4.611 0 4.46 4.46 0 0 0 1.054-2.97 4.463 4.463 0 0 0-1.175-2.924 44.331 44.331 0 0 1-2.653-4.109zm33.18-111.084c-1.196 1.907-3.103 4.871-4.229 6.379-3.467 4.785-12.222 23.732-15.949 38.588 1.11.694 2.132 1.335 2.982 1.925a46.506 46.506 0 0 1 7.87 6.674c1.734-3.155 5.201-6.362 6.657-8.893 5.2-9.275 9.031-20.23 7.749-30.216a41.48 41.48 0 0 0-5.08-14.457zm-27.337 102.399a26.374 26.374 0 0 1-4.872-4.23c-3.969 6.796-2.045 8.373 3.467 12.43a6.703 6.703 0 0 1 3.034 6.362s5.114-2.601 4.767-5.894c-.294-2.115-3.432-6.657-6.396-8.668zm13.296-32.52a122.668 122.668 0 0 0-7.402 17.161l.849.52a38.044 38.044 0 0 1 6.761 7.333 62.4 62.4 0 0 0 11.424-19.329c3.311-10.262-.642-22.535-.642-22.535a179.48 179.48 0 0 0-10.99 16.85zm-10.558 20.108a18.664 18.664 0 0 1-6.206-4.646 9.544 9.544 0 0 0-1.525 7.16c.901 3.883 4.507 5.564 8.338 7.506a11.858 11.858 0 0 1 5.201 5.842 6.19 6.19 0 0 0 2.565-8.026 17.163 17.163 0 0 0-8.373-7.836z" fill="#FFC62F"/><path d="M406.758 193.288a227.274 227.274 0 0 0-36.526-3.103 390.308 390.308 0 0 0-39.402 2.322c0 23.992-20.664 41.102-39.872 41.397-29.036.433-39.732-22.969-39.957-24.269a253.715 253.715 0 0 0-6.57-1.82 233.419 233.419 0 0 0-12.308 1.82c-7.992 1.421-16.261 3.467-22.987 5.2-.329 3.467-.832 9.257-.867 9.743-.953 20.195.33 18.791.33 18.791 5.842-2.288 27.441-7.835 27.441-7.835 6.328-1.474 13.869-3.051 22.64-4.681a37.796 37.796 0 0 0 60.059 10.561 37.788 37.788 0 0 0 11.016-20.494c40.547-4.403 59.702-4.525 84.734-1.196a154.104 154.104 0 0 0-7.731-26.436z" fill="#4F2683"/><path d="M403.985 240.232a28.388 28.388 0 0 0-13.505-1.006c-7.644 1.248-10.643 2.757-15.775 3.381v.086c4.282 1.404 11.286 1.3 15.446 2.028a16.33 16.33 0 0 1 5.721 2.583l-2.15 9.604a60.772 60.772 0 0 0-18.462 14.77c-.462.551-.891 1.13-1.283 1.733a6.889 6.889 0 0 0-.52.832c-.219.359-.427.723-.624 1.092a25.15 25.15 0 0 0-.693 1.353c-.226.468-.434.901-.624 1.352a50.18 50.18 0 0 0-2.028 5.426c0 .19-.122.381-.174.554a60.412 60.412 0 0 0-.832 3.017 2.134 2.134 0 0 0 0 .277v.537a.183.183 0 0 0 0 .087c.104-.173.641-1.144 1.543-2.548l.659-1.006a60.124 60.124 0 0 1 7.506-9.291 29.87 29.87 0 0 1 1.335-1.266 30.922 30.922 0 0 1 2.825-2.253c7.038-4.889 10.765-6.778 12.898-8.772.364-.389.689-.813.97-1.265 1.855-2.254 2.687-10.402 2.843-12.031v-1.161a20.6 20.6 0 0 0-3.623-5.877 21.83 21.83 0 0 1 8.547-2.236zm0 0a28.388 28.388 0 0 0-13.505-1.006c-7.644 1.248-10.643 2.757-15.775 3.381v.086c4.282 1.404 11.286 1.3 15.446 2.028a16.33 16.33 0 0 1 5.721 2.583l-2.15 9.604a60.772 60.772 0 0 0-18.462 14.77c-.462.551-.891 1.13-1.283 1.733a6.889 6.889 0 0 0-.52.832c-.219.359-.427.723-.624 1.092a25.15 25.15 0 0 0-.693 1.353c-.226.468-.434.901-.624 1.352a50.18 50.18 0 0 0-2.028 5.426c0 .19-.122.381-.174.554a60.412 60.412 0 0 0-.832 3.017 2.134 2.134 0 0 0 0 .277v.537a.183.183 0 0 0 0 .087c.104-.173.641-1.144 1.543-2.548l.659-1.006a60.124 60.124 0 0 1 7.506-9.291 29.87 29.87 0 0 1 1.335-1.266 30.922 30.922 0 0 1 2.825-2.253c7.038-4.889 10.765-6.778 12.898-8.772.364-.389.689-.813.97-1.265 1.855-2.254 2.687-10.402 2.843-12.031v-1.161a20.6 20.6 0 0 0-3.623-5.877 21.83 21.83 0 0 1 8.547-2.236zm0 0a28.388 28.388 0 0 0-13.505-1.006c-7.644 1.248-10.643 2.757-15.775 3.381v.086c4.282 1.404 11.286 1.3 15.446 2.028a16.33 16.33 0 0 1 5.721 2.583l-2.15 9.604a60.772 60.772 0 0 0-18.462 14.77c-.462.551-.891 1.13-1.283 1.733a6.889 6.889 0 0 0-.52.832c-.219.359-.427.723-.624 1.092a25.15 25.15 0 0 0-.693 1.353c-.226.468-.434.901-.624 1.352a50.18 50.18 0 0 0-2.028 5.426c0 .19-.122.381-.174.554a60.412 60.412 0 0 0-.832 3.017 2.134 2.134 0 0 0 0 .277v.537a.183.183 0 0 0 0 .087c.104-.173.641-1.144 1.543-2.548l.659-1.006a60.124 60.124 0 0 1 7.506-9.291 29.87 29.87 0 0 1 1.335-1.266 30.922 30.922 0 0 1 2.825-2.253c7.038-4.889 10.765-6.778 12.898-8.772.364-.389.689-.813.97-1.265 1.855-2.254 2.687-10.402 2.843-12.031v-1.161a20.6 20.6 0 0 0-3.623-5.877 21.83 21.83 0 0 1 8.547-2.236zm0 0a28.388 28.388 0 0 0-13.505-1.006c-7.644 1.248-10.643 2.757-15.775 3.381v.086c4.282 1.404 11.286 1.3 15.446 2.028a16.33 16.33 0 0 1 5.721 2.583l-2.15 9.604a60.772 60.772 0 0 0-18.462 14.77c-.462.551-.891 1.13-1.283 1.733a6.889 6.889 0 0 0-.52.832c-.219.359-.427.723-.624 1.092a25.15 25.15 0 0 0-.693 1.353c-.226.468-.434.901-.624 1.352a50.18 50.18 0 0 0-2.028 5.426c0 .19-.122.381-.174.554a60.412 60.412 0 0 0-.832 3.017 2.134 2.134 0 0 0 0 .277v.537a.183.183 0 0 0 0 .087c.104-.173.641-1.144 1.543-2.548l.659-1.006a60.124 60.124 0 0 1 7.506-9.291 29.87 29.87 0 0 1 1.335-1.266 30.922 30.922 0 0 1 2.825-2.253c7.038-4.889 10.765-6.778 12.898-8.772.364-.389.689-.813.97-1.265 1.855-2.254 2.687-10.402 2.843-12.031v-1.161a20.6 20.6 0 0 0-3.623-5.877 21.83 21.83 0 0 1 8.547-2.236zm0 0a28.388 28.388 0 0 0-13.505-1.006c-7.644 1.248-10.643 2.757-15.775 3.381v.086c4.282 1.404 11.286 1.3 15.446 2.028a16.33 16.33 0 0 1 5.721 2.583l-2.15 9.604a60.772 60.772 0 0 0-18.462 14.77c-.462.551-.891 1.13-1.283 1.733a6.889 6.889 0 0 0-.52.832c-.219.359-.427.723-.624 1.092a25.15 25.15 0 0 0-.693 1.353c-.226.468-.434.901-.624 1.352a50.18 50.18 0 0 0-2.028 5.426c0 .19-.122.381-.174.554a60.412 60.412 0 0 0-.832 3.017 2.134 2.134 0 0 0 0 .277v.537a.183.183 0 0 0 0 .087c.104-.173.641-1.144 1.543-2.548l.659-1.006a60.124 60.124 0 0 1 7.506-9.291 29.87 29.87 0 0 1 1.335-1.266 30.922 30.922 0 0 1 2.825-2.253c7.038-4.889 10.765-6.778 12.898-8.772.364-.389.689-.813.97-1.265 1.855-2.254 2.687-10.402 2.843-12.031v-1.161a20.6 20.6 0 0 0-3.623-5.877 21.83 21.83 0 0 1 8.547-2.236zm0 0a28.388 28.388 0 0 0-13.505-1.006c-7.644 1.248-10.643 2.757-15.775 3.381v.086c4.282 1.404 11.286 1.3 15.446 2.028a16.33 16.33 0 0 1 5.721 2.583l-2.15 9.604a60.772 60.772 0 0 0-18.462 14.77c-.462.551-.891 1.13-1.283 1.733a6.889 6.889 0 0 0-.52.832c-.219.359-.427.723-.624 1.092a25.15 25.15 0 0 0-.693 1.353c-.226.468-.434.901-.624 1.352a50.18 50.18 0 0 0-2.028 5.426c0 .19-.122.381-.174.554a60.412 60.412 0 0 0-.832 3.017 2.134 2.134 0 0 0 0 .277v.537a.183.183 0 0 0 0 .087c.104-.173.641-1.144 1.543-2.548l.659-1.006a60.124 60.124 0 0 1 7.506-9.291 29.87 29.87 0 0 1 1.335-1.266 30.922 30.922 0 0 1 2.825-2.253c7.038-4.889 10.765-6.778 12.898-8.772.364-.389.689-.813.97-1.265 1.855-2.254 2.687-10.402 2.843-12.031v-1.161a20.6 20.6 0 0 0-3.623-5.877 21.83 21.83 0 0 1 8.547-2.236zm41.275 89.605a12.138 12.138 0 0 0-7.09-8.511c-2.133-.468-7.576-1.89-7.576-1.89a61.398 61.398 0 0 0 4.022-18.462c3.554-1.889 10.644-4.732 10.644-4.732a52.746 52.746 0 0 0-10.887-22.259 61.682 61.682 0 0 0 2.323-8.754c0-1.733-3.085-4.49-6.397-6.622-3.311-2.132-3.779-5.911-3.779-10.401s-1.889-10.176-2.6-10.401c-.711-.226 8.442-3.121 11.285-11.182a50.063 50.063 0 0 0 2.913-14.578c-3.779 5.512-18.584 7.783-18.584 7.783-1.178-12.551-11.25-53.028-52.005-89.71C326.773 93.437 257.467 86.78 257.467 86.78a26.839 26.839 0 0 1-.762 7.142 36.647 36.647 0 0 1-3.329 10.817l-.381.659c-9.569-5.2-19.624-12.135-24.27-20.3-8.927-15.774-7.818-29.348-12.55-40.477a84.16 84.16 0 0 0-22.172-31.03c-1.907-1.734-2.548-2.22-3.467-1.422-.919.798-.329 1.907.468 3.086a101.728 101.728 0 0 1 10.314 32.781c2.601 18.22-.849 46.978 7.68 65.44a82.874 82.874 0 0 0 19.953 25.83l.607.537 1.906 1.89c-12.134 1.144-23.489.711-35.519-6.05-19.347-9.743-34.186-32.4-36.907-56.374l-.33-2.878c-.762-6.57-.45-13.14-.745-19.727a136.946 136.946 0 0 0-1.959-17.838c-.451-2.6-.988-5.2-1.612-7.732a.16.16 0 0 1 0-.087 39.402 39.402 0 0 0-1.161-4.628c-.295-1.006-.625-2.011-.954-3.034a31.493 31.493 0 0 0-3.016-6.431 46.291 46.291 0 0 0-5.201-6.934 23.994 23.994 0 0 0-3.814-3.467s-1.3-.815-2.184-.347c0 0-1.161.815 0 3.346.258.44.484.897.676 1.37a16.9 16.9 0 0 1 .642 1.733 16 16 0 0 1 .468 2.028c.971 5.2 1.733 16.4-2.445 37.773-.364 3.103-.762 6.206-1.3 9.292a230.538 230.538 0 0 0-3.623 33.145v2.358c-.121 10.401 1.89 79.239 72.982 100.891-.33 1.473-.642 2.895-.867 4.264-4.802 30.319-3.034 43.096-3.034 43.096v.312a336.096 336.096 0 0 0-48.33 22.778 288.425 288.425 0 0 0-61.038 44.812 324.439 324.439 0 0 0-10.921 11.025l-2.496 2.635a.751.751 0 0 1-.156.173 263.029 263.029 0 0 0-25.015 31.204c32.244-23.004 82.429-29.938 97.771-30.909 16.087-.936 32.382-3.693 32.382-3.693a61.014 61.014 0 0 0 13.955 5.062 39.61 39.61 0 0 0 17.63-.832 53.506 53.506 0 0 0 18.028 29.799c-.797 5.01 0 21.548 5.652 30.736a61.121 61.121 0 0 0 16.087 16.572s-.694 8.963 1.733 15.377a42.706 42.706 0 0 0 7.836 12.256 23.416 23.416 0 0 0-2.826 9.465 10.685 10.685 0 0 0 2.826 8.199 19.177 19.177 0 0 0-3.346 6.536 17.073 17.073 0 0 0 1.3 7.194 25.199 25.199 0 0 0-2.236 5.582c-.2 1.866.124 3.751.936 5.443-1.161 2.271-4.611 12.932.468 17.214 5.079 4.282 11.372-3.71 11.372-3.71a16.048 16.048 0 0 0 7.333-5.686 13 13 0 0 0 2.132-6.396 17.33 17.33 0 0 0 5.079-6.276 11.474 11.474 0 0 0 1.734-6.067s11.008-11.563 13.296-26.003a65.646 65.646 0 0 0-.936-23.663s8.269-12.585 7.887-26.973a180.244 180.244 0 0 1 36.006-19.294c.485 9.707 2.01 18.115-1.023 33.717-3.797 19.415-21.08 33.613-21.08 33.613 24.148-2.601 40.253-23.906 46.632-39.299 5.201-12.551 9.968-30.302 12.135-38.346 23.558-4.576 45.071-5.79 52.213-6.934 9.465-1.421 11.84-3.467 12.135-7.09a77.542 77.542 0 0 0-1.456-14.198zm-18.67-68.404c1.976 1.525 3.952 1.837 5.2 2.739 1.248.901 1.214 3.657.607 5.928s-2.288 2.583-4.108 2.132a58.498 58.498 0 0 0-20.231.139c-.52-1.733-1.404-5.859.52-7.887 2.497-2.601 7.299-2.375 9.205-2.011a20.666 20.666 0 0 0-7.454-1.873 8.098 8.098 0 0 0-7.385 5.01c-.745 1.959-.104 5.981.278 7.923-10.488 3.085-25.518 11.285-37.843 27.112-13.365 17.162-16.382 38.588-16.382 38.588s-14.111 2.774-21.409-8.061c-9.794-14.544-6.102-31.602-6.102-31.602s-5.807 2.739-10.401 1.543a6.035 6.035 0 0 1-3.571-2.739c7.645-6.778 15.758-13.14 23.819-22.362 4.16.918 7.905 1.924 9.95 2.565 4.507 1.37 9.205 5.201 10.401 9.309 1.196 4.109 1.924 18.081 1.924 18.081a94.944 94.944 0 0 0 3.173-17.335 18.062 18.062 0 0 0-5.305-14.527c-2.86-2.601-10.921-5.01-14.128-6.778 12.221-16.833 15.602-42.628 15.602-42.628v-.728a5.56 5.56 0 0 0 2.097-.399c2.254-.121 10.245-1.109 12.464-1.144 0 0-3.345 9.864-.45 17.162a30.907 30.907 0 0 1 18.08-4.247c10.627.763 27.65 5.929 34.948 3.034 0 0 3.19 7.298 3.034 12.62-.156 5.322 1.439 8.927 3.467 10.436zm-4.143-38.675a59.552 59.552 0 0 0 10.505-3.121s-1.734 13.262-15.775 14.25c-14.042.988-15.879-2.375-26.402-3.744a29.434 29.434 0 0 1 8.772-2.999s-9.777-1.387-17.162.485c-7.385 1.872-10.401 5.01-10.401 5.01s-.867-7.506 2.877-10.003c3.745-2.496 16.902-1.508 21.271-1.005 4.368.503 19.051 2.86 26.315 1.127zm-7.992-3.173c-25.032-3.328-44.187-3.207-84.735 1.196a37.787 37.787 0 0 1-31.947 30.651 37.78 37.78 0 0 1-22.915-4.029 37.784 37.784 0 0 1-16.212-16.688c-8.789 1.629-16.312 3.207-22.64 4.68 0 0-21.599 5.547-27.441 7.836 0 0-1.283 1.404-.33-18.792 0-.485.538-6.206.867-9.742 6.726-1.734 14.995-3.727 22.986-5.201 4.334-.762 8.46-1.352 12.308-1.82a260.92 260.92 0 0 1 6.571 1.82c.225 1.387 10.921 24.79 39.957 24.27 19.225-.295 39.871-17.336 39.871-41.397a390.347 390.347 0 0 1 39.403-2.323 227.42 227.42 0 0 1 36.56 3.242 154.093 154.093 0 0 1 7.697 26.349v-.052zm-204.556-10.314a157.77 157.77 0 0 1 1.023-7.61c.139-.694.278-1.404.434-2.098 2.808.676 5.668 1.335 8.528 1.994 2.566.606 5.201 1.213 7.697 1.855l3.797.953.364.087h-.52c-7.35 1.421-14.943 3.207-21.357 4.871l.034-.052zm48.383-101.29a46.246 46.246 0 0 0 4.299-14.232c34.792 1.612 76.483 16.867 110.2 48.833a141.981 141.981 0 0 1 31.204 45.072 237.933 237.933 0 0 0-33.7-2.635 364.528 364.528 0 0 0-39.628 2.548c0-.572-.139-1.144-.226-1.733v-.503c0-.451-.156-.884-.242-1.335-2.081-15.983-13.869-31.203-28.916-37.617a94.686 94.686 0 0 0-28.603-7.35 90.393 90.393 0 0 0-20.23.208c-3.363.346-6.605.78-9.794 1.178-2.323.295-4.594.59-6.848.85 0 0 1.144-1.439 1.335-1.734 6.033-9.118 12.585-18.167 15.862-22.536a53.34 53.34 0 0 0 5.252-8.962l.035-.052zm-44.205 0c-6.934-18.496-4.646-36.144-5.859-46.025-.364-2.843-.815-6.31-1.37-10.02a115.683 115.683 0 0 1 4.126 17.11 151.39 151.39 0 0 0-2.271-21.513c.26.763 4.594 13.019 5.478 20.126a95.45 95.45 0 0 0 0-14.683 83.08 83.08 0 0 1 2.219 9.206c3.606 20.022 9.534 34.011 33.388 48.729-4.247 6.501-10.505 15.359-15.377 22.241-5.998-4.386-15.844-13.158-20.369-25.136l.035-.035zm-68.318 29.158a110.68 110.68 0 0 1-7.402-39.871v-2.063a222.6 222.6 0 0 1 3.467-34.15c0-.347.121-.711.173-1.058v1.873c0 9.118.572 17.144.798 19.64v.243c0 .364.277-1.872.45-2.999.607-4.056 1.301-8.096 1.734-12.135.433-4.039 1.335-8.927 1.508-13.018 0-1.578.139-3.155.087-4.716.468.26.641 1.734.745 2.22.347 1.733 1.127 15.064 1.352 19.64.104 1.82.139 3.64.156 5.478a17.93 17.93 0 0 0 .104 2.652c.037.257.089.512.156.763 0 0 .711-6.015 1.214-9.205a51.74 51.74 0 0 0 1.092-8.286 5.973 5.973 0 0 1 0-.78c0-.416.676 1.352.971 4.61.208 3.693.364 7.507.797 11.113l.33 2.86c2.981 26.159 18.652 49.995 39.871 60.673 17.092 9.587 33.041 7.541 49.942 5.374 3.138-.398 6.362-.814 9.656-1.161a88.686 88.686 0 0 1 46.805 7.107 43.878 43.878 0 0 1 24.616 32.07v.365c.545 2.505.818 5.063.815 7.627v.087c-.087-.503-.139-.971-.243-1.491a34.664 34.664 0 0 1-2.496 12.412 26.259 26.259 0 0 0 .52-13.782 33.76 33.76 0 0 1-3.19 13.869 31.357 31.357 0 0 0-9.725-33.267c4.872 5.201 7.246 13.487 7.94 21.236 1.629 18.115-12.863 29.99-28.395 32.677l-.33.086c3.898.647 7.891.41 11.684-.693a23.107 23.107 0 0 0 8.425-2.184 28.97 28.97 0 0 0 4.143-2.462 36.08 36.08 0 0 1-28.749 9.398 36.09 36.09 0 0 1-25.805-15.777c9.032 1.127 17.873 2.912 17.873 2.912-8.147-6.275-21.634-10.228-21.634-10.228-12.135-3.692-29.73-6.934-45.297-11.406-31.516-8.685-53.046-27.65-64.193-56.218l.035-.035zm-42.298 191.814c-9.17 2.826-20.802 7.697-26.141 10.037 12.55-13.868 37.981-38.536 58.714-52.473 62.597-42.073 114.413-48.868 118.226-49.648l1.127.988c.52.814 1.075 1.577 1.63 2.34-26.211 7.159-82.065 30.805-114.725 53.739-14.163 9.847-29.505 25.431-38.866 35.052l.035-.035zm112.402-6.154a36.403 36.403 0 0 1-11.996 2.133c-6.605 0-14.545-4.161-14.545-4.161h.538c13.868-3.467 26.367-18.445 26.367-18.445-1.422 5.045-.399 20.508-.399 20.508l.035-.035zm4.264-2.877c-.468-12.482.538-23.68 2.878-31.689l-1.266 1.525c-26.869 32.331-57.501 30.146-85.549 33.041-4.143.416-19.728 3.571-23.836 4.455 10.002-10.695 27.286-26.401 38.571-34.098 21.132-14.423 57.362-29.47 59.616-30.389-17.093 9.465-30.892 24.703-30.892 24.703 10.402-6.934 45.627-27.407 47.811-28.672-10.02 9.551-38.138 34.393-54.97 45.487 21.374-10.089 39.472-23.16 49.215-32.382 12.134-11.51 30.492-22.622 38.779-26.904a50.266 50.266 0 0 0 15.203 9.829c-14.059 9.898-23.438 15.602-27.459 28.932a91.775 91.775 0 0 1 25.118-21.305 99.821 99.821 0 0 0 8.911-5.512 84.28 84.28 0 0 0 14.11 1.456l.867-.381c-.572.433-1.993 1.248-2.583 1.733-28.291 20.802-54.19 26.228-56.651 68.37.364-2.375 4.594-28.048 25.379-41.362 12.342-7.904 34.479-18.427 49.318-33.561 11.355-5.2 18.514-14.093 22.207-26.453.039-.125.068-.252.086-.382 3.675-.364 7.333-.832 11.164-1.178a72.81 72.81 0 0 1-3.588 16.728 81.95 81.95 0 0 1-15.082 27.164c-14.18 17.336-31.203 28.153-49.093 51.347a115.075 115.075 0 0 0-21.6 46.806c-3.866-28.049 9.032-46.164 9.743-47.135-2.15 1.734-10.939 12.135-14.181 24.893-2.964 11.667-2.461 14.978-2.271 18.289-8.06-5.669-29.019-16.312-29.99-43.321l.035-.034zm82.412 22.778c-2.791 14.822-9.881 19.884-17.093 34.099a106.929 106.929 0 0 0-3.467 7.679c-4.49-3.571-12.654-8.668-19.398-12.845.295-5.496 2.271-15.827 7.922-28.673 6.328-14.371 22.536-32.035 22.536-32.035a36.237 36.237 0 0 1 9.465 31.81l.035-.035zm-57.466 44.933c-6.935-10.921-6.935-25.24-6.935-25.24 3.467 3.068 12.378 8.044 20.525 12.568a231.113 231.113 0 0 1 21.271 14.648c-3.121 8.391-5.201 16.157-6.085 19.173-9.309-5.53-23.576-12.967-28.811-21.114l.035-.035zm16.537 21.305c5.565 3.207 11.962 6.379 15.602 8.668a81.407 81.407 0 0 1 9.881 7.142c-3.918 6.934-7.471 13.192-7.471 13.192a41.885 41.885 0 0 1-13.418-12.135 30.37 30.37 0 0 1-4.594-16.867zm16.122 32.434s-2.08 5.686-3.71 10.818a10.836 10.836 0 0 1-6.067-6.484c-1.733-5.582.832-7.714 2.254-9.552a41.84 41.84 0 0 0 7.592 5.218h-.069zm-9.188 46.615a2.892 2.892 0 0 1-3.592.842 2.896 2.896 0 0 1-1.019-.842c-1.404-1.734-.398-7.246 1.838-10.003a44.215 44.215 0 0 0 2.652 4.178 4.455 4.455 0 0 1 .121 5.825zm4.629-4.195a6.706 6.706 0 0 0-2.895-6.206c-5.443-4.057-7.367-5.634-3.467-12.43a26.368 26.368 0 0 0 4.871 4.23c2.964 2.011 6.102 6.501 6.327 8.668.33 3.207-4.784 5.807-4.784 5.807l-.052-.069zm7.073-11.112a11.853 11.853 0 0 0-5.201-5.842c-3.831-1.942-7.437-3.623-8.338-7.506a9.53 9.53 0 0 1 1.525-7.16 18.664 18.664 0 0 0 6.206 4.646 17.158 17.158 0 0 1 8.46 7.836 6.185 6.185 0 0 1-2.6 8.095l-.052-.069zm16.295-30.285a62.4 62.4 0 0 1-11.424 19.329 38.015 38.015 0 0 0-6.761-7.333l-.849-.52a122.798 122.798 0 0 1 7.402-17.162 179.81 179.81 0 0 1 10.99-16.85s4.005 12.343.694 22.605l-.052-.069zm-.26-30.822c-1.387 2.531-4.889 5.738-6.657 8.893a46.506 46.506 0 0 0-7.87-6.674c-.85-.589-1.872-1.231-2.982-1.924 3.727-14.857 12.43-33.804 15.949-38.589 1.126-1.508 3.033-4.472 4.229-6.379a41.458 41.458 0 0 1 5.08 14.458c1.335 9.985-2.549 20.941-7.749 30.215zm49.579-49.544c-2.375.78-4.473 1.543-6.137 2.254-10.575 4.42-30.267 14.856-30.267 14.856l-.676.399a100.608 100.608 0 0 0-5.201-20.439s7.055-18.375 4.42-29.66c-3.467-14.839-9.153-22.727-9.153-22.727.625-.676 1.249-1.3 1.873-1.924a13.867 13.867 0 0 0 10.019 5.201s3.467 14.821 8.529 22.241c5.062 7.419 11.84 13.729 22.727 13.729 1.577 0 3.467 0 5.478-.087a157.075 157.075 0 0 0-1.56 16.157h-.052zm30.354-9.257c-5.981 38.449-16.989 53.202-16.989 53.202l1.144-3.901c4.629-20.802 3.883-30.527 7.628-55.559 3.744-25.032 14.769-40.304 14.769-40.304-13.764 9.638-21.183 30.249-23.784 60.205-2.773 31.983-10.279 43.979-10.747 44.69 4.784-16.486 2.738-34.809 3.467-47.065.728-12.256 1.282-28.95 8.164-44.725 6.883-15.775 22.866-30.995 39.646-38.64 16.781-7.645 30.25-3.918 30.25-3.918 8.824 8.286 9.378 17.006 9.378 17.006a110.565 110.565 0 0 0-30.18 14.197c-16.139 10.627-26.402 36.006-26.402 36.006 4.143-28.153 22.241-47.828 22.241-47.828-13.521 7.887-23.368 22.969-28.585 56.634zm53.184-5.807c-2.375.329-17.04.797-34.878 3.467-3.225.485-6.744 1.109-10.402 1.82a35.89 35.89 0 0 1 3.468-7.298h.156c13.088 0 34.15.676 39.524.832 5.374.156 10.297-.243 10.297-.243-1.543 1.214-5.79 1.058-8.165 1.37v.052zm6.31-4.837c-2.132-.121-8.304-.156-17.821-1.3-9.517-1.144-26.505-1.56-26.505-1.56 8.113-22.536 36.404-34.671 36.404-34.671.503 6.501-4.369 18.393-4.369 18.393a30.002 30.002 0 0 1 10.124 1.127c3.762 1.508 5.894 2.877 7.264 10.644 1.369 7.766-2.965 7.436-5.097 7.315v.052zM390.48 239.226c-7.644 1.248-10.643 2.757-15.775 3.381v.086c4.282 1.404 11.286 1.3 15.446 2.028a16.33 16.33 0 0 1 5.721 2.583l-2.15 9.604a60.772 60.772 0 0 0-18.462 14.77c-.462.551-.891 1.13-1.283 1.733a6.889 6.889 0 0 0-.52.832c-.219.359-.427.723-.624 1.092a25.15 25.15 0 0 0-.693 1.353c-.226.468-.434.901-.624 1.352a50.18 50.18 0 0 0-2.028 5.426c0 .19-.122.381-.174.554a60.412 60.412 0 0 0-.832 3.017 2.134 2.134 0 0 0 0 .277v.537a.183.183 0 0 0 0 .087c.104-.173.641-1.144 1.543-2.548l.659-1.006a60.124 60.124 0 0 1 7.506-9.291 29.87 29.87 0 0 1 1.335-1.266 30.922 30.922 0 0 1 2.825-2.253c7.038-4.889 10.765-6.778 12.898-8.772.364-.389.689-.813.97-1.265 1.855-2.254 2.687-10.402 2.843-12.031v-1.161a20.6 20.6 0 0 0-3.623-5.877 21.825 21.825 0 0 1 8.755-2.254 28.39 28.39 0 0 0-13.713-.988zm13.505 1.006a28.388 28.388 0 0 0-13.505-1.006c-7.644 1.248-10.643 2.757-15.775 3.381v.086c4.282 1.404 11.286 1.3 15.446 2.028a16.33 16.33 0 0 1 5.721 2.583l-2.15 9.604a60.772 60.772 0 0 0-18.462 14.77c-.462.551-.891 1.13-1.283 1.733a6.889 6.889 0 0 0-.52.832c-.219.359-.427.723-.624 1.092a25.15 25.15 0 0 0-.693 1.353c-.226.468-.434.901-.624 1.352a50.18 50.18 0 0 0-2.028 5.426c0 .19-.122.381-.174.554a60.412 60.412 0 0 0-.832 3.017 2.134 2.134 0 0 0 0 .277v.537a.183.183 0 0 0 0 .087c.104-.173.641-1.144 1.543-2.548l.659-1.006a60.124 60.124 0 0 1 7.506-9.291 29.87 29.87 0 0 1 1.335-1.266 30.922 30.922 0 0 1 2.825-2.253c7.038-4.889 10.765-6.778 12.898-8.772.364-.389.689-.813.97-1.265 1.855-2.254 2.687-10.402 2.843-12.031v-1.161a20.6 20.6 0 0 0-3.623-5.877 21.83 21.83 0 0 1 8.547-2.236zm0 0a28.388 28.388 0 0 0-13.505-1.006c-7.644 1.248-10.643 2.757-15.775 3.381v.086c4.282 1.404 11.286 1.3 15.446 2.028a16.33 16.33 0 0 1 5.721 2.583l-2.15 9.604a60.772 60.772 0 0 0-18.462 14.77c-.462.551-.891 1.13-1.283 1.733a6.889 6.889 0 0 0-.52.832c-.219.359-.427.723-.624 1.092a25.15 25.15 0 0 0-.693 1.353c-.226.468-.434.901-.624 1.352a50.18 50.18 0 0 0-2.028 5.426c0 .19-.122.381-.174.554a60.412 60.412 0 0 0-.832 3.017 2.134 2.134 0 0 0 0 .277v.537a.183.183 0 0 0 0 .087c.104-.173.641-1.144 1.543-2.548l.659-1.006a60.124 60.124 0 0 1 7.506-9.291 29.87 29.87 0 0 1 1.335-1.266 30.922 30.922 0 0 1 2.825-2.253c7.038-4.889 10.765-6.778 12.898-8.772.364-.389.689-.813.97-1.265 1.855-2.254 2.687-10.402 2.843-12.031v-1.161a20.6 20.6 0 0 0-3.623-5.877 21.83 21.83 0 0 1 8.547-2.236zm0 0a28.388 28.388 0 0 0-13.505-1.006c-7.644 1.248-10.643 2.757-15.775 3.381v.086c4.282 1.404 11.286 1.3 15.446 2.028a16.33 16.33 0 0 1 5.721 2.583l-2.15 9.604a60.772 60.772 0 0 0-18.462 14.77c-.462.551-.891 1.13-1.283 1.733a6.889 6.889 0 0 0-.52.832c-.219.359-.427.723-.624 1.092a25.15 25.15 0 0 0-.693 1.353c-.226.468-.434.901-.624 1.352a50.18 50.18 0 0 0-2.028 5.426c0 .19-.122.381-.174.554a60.412 60.412 0 0 0-.832 3.017 2.134 2.134 0 0 0 0 .277v.537a.183.183 0 0 0 0 .087c.104-.173.641-1.144 1.543-2.548l.659-1.006a60.124 60.124 0 0 1 7.506-9.291 29.87 29.87 0 0 1 1.335-1.266 30.922 30.922 0 0 1 2.825-2.253c7.038-4.889 10.765-6.778 12.898-8.772.364-.389.689-.813.97-1.265 1.855-2.254 2.687-10.402 2.843-12.031v-1.161a20.6 20.6 0 0 0-3.623-5.877 21.83 21.83 0 0 1 8.547-2.236zm0 0a28.388 28.388 0 0 0-13.505-1.006c-7.644 1.248-10.643 2.757-15.775 3.381v.086c4.282 1.404 11.286 1.3 15.446 2.028a16.33 16.33 0 0 1 5.721 2.583l-2.15 9.604a60.772 60.772 0 0 0-18.462 14.77c-.462.551-.891 1.13-1.283 1.733a6.889 6.889 0 0 0-.52.832c-.219.359-.427.723-.624 1.092a25.15 25.15 0 0 0-.693 1.353c-.226.468-.434.901-.624 1.352a50.18 50.18 0 0 0-2.028 5.426c0 .19-.122.381-.174.554a60.412 60.412 0 0 0-.832 3.017 2.134 2.134 0 0 0 0 .277v.537a.183.183 0 0 0 0 .087c.104-.173.641-1.144 1.543-2.548l.659-1.006a60.124 60.124 0 0 1 7.506-9.291 29.87 29.87 0 0 1 1.335-1.266 30.922 30.922 0 0 1 2.825-2.253c7.038-4.889 10.765-6.778 12.898-8.772.364-.389.689-.813.97-1.265 1.855-2.254 2.687-10.402 2.843-12.031v-1.161a20.6 20.6 0 0 0-3.623-5.877 21.83 21.83 0 0 1 8.547-2.236z"/><path d="M451.223 329.005c-1.092-6.605-7.073-12.377-11.736-13.417l-1.231-.278a69.847 69.847 0 0 0 2.098-10.297c2.687-1.231 5.824-2.513 7.177-3.051l4.593-1.855-.918-4.853a57.67 57.67 0 0 0-10.141-22.398 27.363 27.363 0 0 0 1.733-7.523c0-3.849-3.086-7.784-9.153-11.684-.485-.312-1.04-1.196-1.04-5.374a38.719 38.719 0 0 0-1.092-7.974 23.949 23.949 0 0 0 9.448-11.632 60.194 60.194 0 0 0 3.085-13.868 53.814 53.814 0 0 0 0-5.478l-.624-7.454s-3.744 2.981-5.824 4.576c-.555.416-.971.728-1.197.867a10.87 10.87 0 0 1-.936.624c-1.525.919-3.224 1.647-3.952 2.028a35.239 35.239 0 0 1-6.83 2.583c-4.005-20.213-18.358-55.663-53.063-86.867-41.744-37.617-110.686-44.586-113.598-44.88l-6.466-.607a114.275 114.275 0 0 1-.746 12.446v.312a42.375 42.375 0 0 1-.797 3.78c-7.853-4.906-13.331-9.882-15.983-14.58-4.906-8.667-6.501-16.624-8.026-24.269a77.903 77.903 0 0 0-4.23-15.601 90.706 90.706 0 0 0-23.853-33.215c-1.855-1.595-3.745-3.259-6.657-3.259a7.35 7.35 0 0 0-4.646 1.734c-1.248 1.022-4.992 4.802-.815 10.99a97.567 97.567 0 0 1 9.431 30.424 189.265 189.265 0 0 1 1.213 20.802c.382 15.515.832 33.075 6.934 46.389a77.502 77.502 0 0 0 9.829 15.602c.364.45 1.734 1.906 1.994 2.201.624.728 1.265 1.456 1.889 2.15a43.336 43.336 0 0 1-18.184-5.548l-.243-.138c-17.613-8.876-31.203-29.643-33.63-51.694l-.33-2.877a112.922 112.922 0 0 1-.554-12.031c0-2.375 0-4.82-.156-7.28a144.28 144.28 0 0 0-2.046-18.602c-.451-2.6-1.005-5.2-1.612-7.783v-.19a43.883 43.883 0 0 0-1.283-5.115 70.264 70.264 0 0 0-1.023-3.241 36.569 36.569 0 0 0-3.588-7.697 50.522 50.522 0 0 0-5.877-7.922 30.067 30.067 0 0 0-4.75-4.265l-.242-.156a9.104 9.104 0 0 0-4.802-1.456 7.33 7.33 0 0 0-3.467.832l-.676.416c-2.653 1.872-4.247 5.98-1.855 10.904l.225.416c0 .087.174.33.33.676.156.347.277.728.416 1.161.134.461.238.93.312 1.405.797 4.281 1.543 14.492-2.341 34.982l-.208 1.058c-.433 3.64-.814 6.396-1.248 8.962a235.774 235.774 0 0 0-3.71 34.029v2.427c0 8.286 1.179 80.106 72.063 105.017l-.225.086c-3.225 20.647-3.467 33.371-3.242 39.577a342.555 342.555 0 0 0-44.95 21.547 294.853 294.853 0 0 0-62.407 45.783 338.043 338.043 0 0 0-11.112 11.198c-.867.902-1.733 1.734-2.462 2.618l-.242.26a272.575 272.575 0 0 0-24.946 31.013c-.431.64-.814 1.312-1.144 2.011-.832 1.906-1.733 5.564 0 7.488 1.04 1.162 3.086 2.15 6.934.503a9.032 9.032 0 0 0 1.214-.503c.745-.416 1.855-1.109 2.219-1.386 23.472-17.96 77.384-27.876 93.125-28.794 13.192-.78 26.28-2.705 31.203-3.467a67.277 67.277 0 0 0 13.591 4.698c2.598.553 5.248.826 7.905.814a47.133 47.133 0 0 0 6.639-.485 60.866 60.866 0 0 0 16.226 25.24c-.26 7.662 1.04 22.033 6.778 31.359a65.37 65.37 0 0 0 15.099 16.4 36.822 36.822 0 0 0 8.581 25.656 28.31 28.31 0 0 0-1.734 8.13 17.045 17.045 0 0 0 1.647 8.667 18.092 18.092 0 0 0-2.08 5.548c-.319 2.611-.07 5.26.728 7.766a25.052 25.052 0 0 0-1.734 4.784 14.236 14.236 0 0 0 .417 6.571c-1.855 5.391-3.884 16.121 2.999 21.929a11.088 11.088 0 0 0 7.211 2.669c5.201 0 9.586-3.762 11.649-5.946a22.621 22.621 0 0 0 8.824-7.471 19.775 19.775 0 0 0 2.722-6.588 26.835 26.835 0 0 0 4.749-6.535 20.655 20.655 0 0 0 2.219-6.431 63.732 63.732 0 0 0 12.516-23.368l.676-3.034c0-.364.139-.745.191-1.144 1.126-7.834.95-15.8-.52-23.576a59.464 59.464 0 0 0 7.489-24.824 180.113 180.113 0 0 1 24.755-13.747 85.397 85.397 0 0 1-1.474 23.767c-2.479 12.62-11.684 23.056-16.312 27.632-1.613 1.578-5.582 6.085-5.582 6.085a4.484 4.484 0 0 0-1.231 3.9c.06.319.147.632.26.936.123.227.274.437.451.624 2.201 2.133 8.251 1.352 8.251 1.352 26.003-2.79 43.702-24.685 51.208-42.765a325.203 325.203 0 0 0 11.424-35.468c15.099-2.739 29.072-4.109 38.554-5.045 4.23-.416 7.575-.745 9.777-1.092 5.773-.849 16.52-2.462 17.197-12.655a74.662 74.662 0 0 0-1.422-15.671zm-4.542 15.099c-.225 3.467-2.6 5.669-12.134 7.09-7.143 1.075-28.656 2.289-52.214 6.934-2.202 8.044-6.934 25.795-12.135 38.346-6.379 15.394-22.536 36.699-46.632 39.299 0 0 17.336-14.198 21.08-33.613 3.034-15.602 1.508-24.009 1.023-33.717a180.24 180.24 0 0 0-36.144 19.346c.381 14.388-7.888 26.974-7.888 26.974a65.64 65.64 0 0 1 .936 23.662c-2.288 14.44-13.296 26.003-13.296 26.003a11.47 11.47 0 0 1-1.733 6.067 17.34 17.34 0 0 1-5.079 6.276 13 13 0 0 1-2.133 6.396 16.05 16.05 0 0 1-7.332 5.686s-6.31 7.992-11.372 3.71-1.63-14.943-.468-17.214a10.085 10.085 0 0 1-.937-5.443 25.192 25.192 0 0 1 2.237-5.582 17.054 17.054 0 0 1-1.3-7.194 19.157 19.157 0 0 1 3.345-6.536 10.7 10.7 0 0 1-2.825-8.199 23.415 23.415 0 0 1 2.825-9.465 42.703 42.703 0 0 1-7.835-12.256c-2.358-6.414-1.734-15.376-1.734-15.376a61.154 61.154 0 0 1-16.087-16.573c-5.634-9.188-6.449-25.725-5.651-30.735a53.519 53.519 0 0 1-18.029-29.8 39.593 39.593 0 0 1-17.63.832 61.075 61.075 0 0 1-13.955-5.061s-16.295 2.756-32.382 3.692c-15.341.902-65.527 7.853-97.65 31.047a263.1 263.1 0 0 1 25.016-31.203.751.751 0 0 0 .156-.173l2.6-2.809c3.467-3.64 7.055-7.298 10.921-11.025a288.452 288.452 0 0 1 61.037-44.811 336.163 336.163 0 0 1 48.331-22.779v-.312s-1.733-12.776 3.034-43.095c.225-1.37.537-2.791.867-4.265-71.075-21.651-73.103-90.403-72.982-100.89V94.98a230.538 230.538 0 0 1 3.623-33.145c.538-3.086.936-6.189 1.3-9.292 4.109-21.374 3.467-32.573 2.445-37.773a16 16 0 0 0-.468-2.029 17.201 17.201 0 0 0-.642-1.733 10.62 10.62 0 0 0-.676-1.37c-1.231-2.53 0-3.345 0-3.345.884-.468 2.184.346 2.184.346a23.994 23.994 0 0 1 3.814 3.467 46.36 46.36 0 0 1 5.201 6.934 31.493 31.493 0 0 1 3.016 6.432c.329 1.022.659 2.028.953 3.033a39.206 39.206 0 0 1 1.162 4.629.16.16 0 0 0 0 .087 128.15 128.15 0 0 1 1.612 7.731 136.946 136.946 0 0 1 1.959 17.838c.295 6.587 0 13.158.745 19.728l.33 2.877c2.721 23.975 17.56 46.632 36.906 56.374 12.031 6.761 23.351 7.195 35.52 6.05l-1.907-1.889-.606-.538a82.867 82.867 0 0 1-20.022-25.846c-8.529-18.462-5.08-47.222-7.68-65.44a101.727 101.727 0 0 0-10.314-32.782c-.798-1.179-1.439-2.305-.469-3.085.971-.78 1.63-.243 3.468 1.421a84.17 84.17 0 0 1 22.258 31.013c4.732 11.129 3.623 24.703 12.551 40.477 4.611 8.148 14.665 15.117 24.269 20.3l.381-.659a36.618 36.618 0 0 0 3.329-10.817 26.84 26.84 0 0 0 .762-7.142s69.341 6.64 110.062 43.338c40.72 36.699 50.775 77.159 52.006 89.71 0 0 14.804-2.271 18.583-7.784a50.095 50.095 0 0 1-2.912 14.579c-2.843 8.061-11.996 10.956-11.286 11.182.711.225 2.601 5.928 2.601 10.401 0 4.472.468 8.286 3.779 10.401s6.396 4.958 6.396 6.622a61.79 61.79 0 0 1-2.374 8.754 52.733 52.733 0 0 1 10.886 22.259s-7.09 2.843-10.644 4.732a61.405 61.405 0 0 1-4.022 18.462s5.444 1.422 7.576 1.89a12.138 12.138 0 0 1 7.09 8.511 77.433 77.433 0 0 1 1.404 14.215z" fill="#fff"/></g><defs><clipPath id="a"><path fill="#fff" transform="translate(47)" d="M0 0h405.766v500H0z"/></clipPath></defs></svg>