<svg viewBox="0 0 500 500" xmlns="http://www.w3.org/2000/svg"><g fill="none" fill-rule="evenodd"><path d="m499.993 249.538c0 137.774-111.704 249.464-249.495 249.464-137.796 0-249.498-111.69-249.498-249.464 0-137.772 111.702-249.462 249.498-249.462 137.791 0 249.495 111.69 249.495 249.462" fill="#17203c"/><path d="m249.545 22.127c126.204 0 228.39 102.164 228.39 228.261 0 126.072-102.186 228.26-228.39 228.26-126.214 0-228.29-102.188-228.29-228.26 0-126.097 102.076-228.26 228.29-228.26zm0-9.44c-131.132 0-237.534 106.418-237.534 237.701 0 131.28 106.402 237.675 237.534 237.675 131.129 0 237.655-106.396 237.655-237.675 0-131.283-106.526-237.7-237.655-237.7z" fill="#d9562a"/><path d="m250.175 107.283c78.863 0 142.605 63.786 142.605 142.496 0 78.714-63.742 142.521-142.605 142.521-78.855 0-142.604-63.807-142.604-142.521 0-78.71 63.749-142.496 142.604-142.496zm0-9.396c-83.772 0-151.822 67.975-151.822 151.892 0 83.921 68.05 151.978 151.822 151.978 83.79 0 151.913-68.057 151.913-151.978 0-83.917-68.123-151.892-151.913-151.892z" fill="#d9562a"/><path d="m250.457 100.035-33.737 102.945h-107.88l88.115 63.94-33.993 103.052 87.495-64.002 87.737 64.045-33.628-102.88 89.169-64.155h-110.323l-32.955-102.946" fill="#e67c2b"/><path d="m370.043 210.683h-88.909l2.278-7.702-32.955-102.946v149.505l-87.495 120.433 87.495-64.002 87.737 64.045-33.628-102.88 89.169-64.155z" fill="#d9562a"/><path d="m196.955 266.92 9.416-3.06-73.353-52.461-24.178-8.418 88.115 63.94" fill="#dd672b"/><path d="m316.043 301.653-4.47-13.883v12.302zm-131.116 1.499 4.454-13.887v12.301z" fill="#17203c"/><path d="m169.849 306.797v24.495h70.085v-24.495l-19.352-6.92v-29.727h59.771v29.725l-19.352 6.921v24.495h70.12v-24.475l-19.33-6.919v-90.862l19.33-6.92v-24.539h-70.12v24.538l19.352 6.921v29.721h-59.793v-29.72l19.31-6.922v-24.518h-70.106v24.538l19.35 6.901v90.884l-19.265 6.877" fill="#fff"/><path d="m331.164 202.091v-24.52l-6.224 6.26v13.858l-19.333 6.92v99.67l6.227-4.403v-90.864l19.33-6.92m0 104.705-6.224 4.38v13.866h-57.626l-6.272 6.249h70.122zm-110.539-36.646h59.77l6.25-6.225h-72.268v40.333l6.248-4.361zm19.331 42.699v-6.053l-6.248 4.359v13.907h-57.63l-6.212 6.229h70.09zm-44.536-108.196-19.358-6.921-6.22 4.402 19.35 6.92 6.227-4.401m71.873-6.945-6.25 4.406 19.352 6.921 6.251-4.382zm-27.292 4.382v-24.51l-6.249 6.247v13.861l-19.33 6.92v40.355l6.247-6.228v-29.724l19.331-6.92" fill="#c5c3bf"/><path d="m332.77 393.927-14.558 7.334-2.517 7.7 16.554 32.87 7.702 2.517 14.556-7.335 2.538-7.702-16.571-32.867zm15.382 37.62-8.808 4.47-1.606-.566-13.71-27.096.543-1.627 8.806-4.45 1.604.542 13.714 27.12-.543 1.608zm-141.325-7.313 5.684.911 2.647-5.27 4.686.736-5.077 32.565-3.428.998-.933 5.988 14.08 2.192.934-5.988-2.994-1.975 5.077-32.587 4.686.716.911 5.815 5.684.89 2.061-13.17-31.979-4.988-2.04 13.167m-45.784-27.467-7.415 14.775 2.555 7.704 11.406 5.726.549 1.605-4.539 9.047-1.62.543-9.777-4.903.443-4.774-5.211-2.646-5.468 10.958 19.405 9.742 7.702-2.563 7.418-14.794-2.552-7.683-11.418-5.749-.543-1.605 4.533-9.048 1.627-.542 9.772 4.906-.458 4.792 5.218 2.604 5.493-10.913-19.435-9.74zm226.204-20.413-9.11 8.98h-1.693l-7.116-7.247v-1.69l7.787-7.66 4.363 1.974 4.187-4.12-8.592-8.679-15.469 15.23v8.137l11.61 11.759h8.112l9.09-8.96h1.712l7.097 7.2v1.716l-7.765 7.657-4.385-1.974-4.168 4.124 8.572 8.698 15.467-15.274v-8.09l-11.605-11.781zm-91.86 74.351-5.701-11.891 4.011-5.552-2.56-16.34-6.552-4.749-24.668 3.882.933 5.988 3.447.978 5.188 32.718-2.994 2.017.956 5.986 14.079-2.232-.957-5.99-3.447-.977-1.953-12.538 6.943-1.085 5.489 11.412-2.495 1.669.932 5.988 14.081-2.213-.955-5.986zm-10.802-18.031-10.629 1.673-1.976-12.37 10.654-1.668 1.363.996 1.564 9.98zm-156.404-70.62-33.318 24.343-3.35-1.193-4.25 4.317 10.182 9.982 4.237-4.339-1.241-3.3 4.237-3.079 8.841 8.655-3.02 4.34-3.317-1.192-4.25 4.294 10.181 9.982 4.253-4.318-1.257-3.32 23.714-33.758zm-17.166 22.089 16.422-11.979 2.27 2.216-11.682 16.662-7.01-6.9zm-7.129-227.569 4.793 3.71 8.743-11.236-4.78-3.734-3.19 1.65-10.02-7.79 7.35-9.46 10.026 7.79-.818 3.494 4.788 3.73 8.75-11.236-4.788-3.756-3.198 1.67-26.152-20.35.818-3.471-4.78-3.732-8.75 11.239 4.8 3.755 3.178-1.673 10.006 7.791-7.337 9.457-10.032-7.788.824-3.493-4.795-3.732-8.756 11.26 4.808 3.734 3.17-1.651 26.167 20.329zm248.042-39.725 7.984-1.454 20.936-30.244-1.431-7.984-13.387-9.285-7.984 1.475-20.936 30.246 1.454 7.982zm10.674-40.463 1.65-.28 8.135 5.598.284 1.668-17.293 24.996-1.65.302-8.135-5.62-.306-1.67zm-213.701 40.55 13.36-9.286 1.444-7.96-20.986-30.246-7.97-1.43-13.383 9.262-1.458 8.006 21 30.224 7.992 1.43zm-20.49-35.126 8.116-5.619 1.673.304 17.324 24.972-.302 1.67-8.107 5.62-1.682-.302-17.324-24.93zm46.954-26.208 10.45 33.368 7.186 3.732 15.54-4.858 3.754-7.205-10.436-33.368 2.647-2.387-1.822-5.793-13.606 4.253 1.832 5.816 3.545.432 9.509 30.311-.803 1.519-9.407 2.95-1.517-.78-9.496-30.312 2.669-2.406-1.825-5.792-13.597 4.271 1.812 5.774zm119.612 26.664-1.822 5.817 13.603 4.228 1.8-5.793-2.646-2.408 9.808-31.459 4.533 1.39v5.9l5.489 1.714 3.992-12.735-30.897-9.633-3.968 12.716 5.489 1.733 3.384-4.816 4.535 1.431-9.81 31.46-3.553.455zm-30.743-5.356v-16.534l-5.73-5.73h-12.776l-1.193-1.215v-10.11l1.193-1.213h10.956l1.716 4.467h5.834v-12.19h-21.717l-5.728 5.703v16.576l5.728 5.706h12.779l1.193 1.215v10.112l-1.193 1.215h-10.935l-1.736-4.47h-5.836v12.192h21.716l5.73-5.726m157.618 42.72-4.775 3.751.805 3.474-17.814 13.861 16.62-27.705-7.55-9.698-4.794 3.755.824 3.448-26.143 20.374-3.17-1.607-4.812 3.71 8.763 11.238 4.797-3.73-.807-3.495 17.795-13.885-16.6 27.73 5.554 7.137 32.088-25.037 3.192 1.669 4.792-3.751z" fill="#fff"/></g></svg>