<svg height="500" viewBox="0 0 500 500" width="500" xmlns="http://www.w3.org/2000/svg" xmlns:xlink="http://www.w3.org/1999/xlink"><mask id="a" fill="#fff"><path d="m0 182.738571h497.469565v-181.94121386h-497.469565z" fill="#fff" fill-rule="evenodd"/></mask><g fill="none" fill-rule="evenodd" transform="translate(0 159)"><path d="m494.308696 147.323714c.017391-.357285.052174-.601285.052174-1.0065 0-1.346357-.104348-3.002071-.52174-4.893071-1.113043-5.2155-3.913043-9.041072-5.956521-11.825286l-1.613044-2.3485c0 .008714-.726087-1.777714-.726087-1.777714-.278261-.771214-.626087-1.694929-1.056521-2.697072 4.404347-3.642571 6.191304-7.677285 6.904347-10.417928 1.508696-5.873429-.156521-11.938572-4.452174-16.2085716-4.27826-4.2482143-10.604347-6.1827857-17.756521-5.6686428-.217392-9.3025-4.508696-14.5746429-6.921739-17.3196429-.017392-.4531428-.017392-.9324286-.017392-.9324286-.03913-5.429-.108695-15.5070714-8.165217-23.607-1.743478-1.7559285-1.96087-2.2918571-2.652174-4.0434285 0 0-.830435-1.952-1.06087-2.4966429-.443478-1.0936428-1.630434-3.6251428-5.47826-6.5008571l-9.104348-6.8058572-6.204348 9.6728572c-3.421739 5.3157143-3.856522 10.4745714-4.143478 13.8949285 0 0-.147826 1.3550715-.213044 1.9040715-.282609.3006428-.747826.7886428-.747826.7886428l-2.93913 3.2112143-.32174.4008572c-4.173913 5.2329285-4.873913 9.6554285-4.873913 20.2781428 0 0-.026087.5228572-.052173 1.0195714-.286957.3616429-.656522.8235-.656522.8235-3.513044 4.5401429-3.639131 9.9952858-3.726087 13.9733572 0 0-.173913 3.2417143-.182609 3.3027143-10.147826 1.464-210.795652 30.4651424-215.286956 31.1143574-12.865218 1.721071-18.808696 11.921143-17.865218 20.635428 1.630435 15.0365 12.208696 19.52 21.578261 18.713929 5.939131-.514143 151.721739-22.312929 203.495652-30.064286-.408695 2.060929-.721739 4.226429-.721739 6.548786 0 2.845214.486957 5.882143 1.552174 8.988786-.813043 1.895357-1.482609 3.965-1.773913 6.361428-.169565 1.398643-.256522 2.7145-.256522 3.947572 0 8.335214 3.552174 12.966857 6.76087 15.441714 5.095652 3.9345 11.913043 4.2395 20.126087 1.337643 8.526087 1.577285 17.882608.710214 26.352174-2.5315 7.93913 1.516285 16.030434-3.189429 20.03913-5.625072 0 0 .095652-.056643.108696-.074071.182608.017428.382608.017428.382608.017428l5.56087-.169928.908696-.174286c3.656521-.692786 10.469565-1.969428 13.547826-8.888571.904348-2.017357 1.23913-4.008572 1.23913-5.882143 0-4.775429-2.234782-8.775286-3.160869-10.417929" fill="#15233c" mask="url(#a)"/><path d="m490.234783 149.7245-.343479-.601286s-.165217-.204785-.343478-.383428c.013044-.078429.013044-.204786.013044-.204786.043478-.601286.108695-1.355071.108695-2.217786 0-1.084928-.091304-2.370285-.413043-3.851714-.904348-4.174143-3.243479-7.367929-5.117392-9.934286l-1.947826-2.862643-1.047826-2.492285c-.582608-1.603429-1.330435-3.651286-2.917391-5.917 5.921739-3.355 7.947826-7.524786 8.626087-10.147786 1.065217-4.148-.117391-8.435429-3.173913-11.4723571-3.786957-3.7602143-9.839131-5.1327143-16.713044-4.0042143-.304347-.427-.608695-.8583572-.917391-1.2679286 0 0-1.23913-1.8561429-1.517391-2.2787857.017391-.3311429.034782-.6666429.034782-.9847143 0-8.1347857-3.730434-12.3742857-6.021739-14.9755 0 0-.647826-.7799286-.878261-1.0675-.021739-.6361429-.117391-2.7972857-.117391-2.7972857-.030435-5.0412143-.1-13.4766429-6.734783-20.1605-2.456521-2.4617857-2.934782-3.6730714-3.730434-5.6860714l-1.086957-2.5750715c-.256522-.5533571-.891304-1.9215-3.665217-4.1785l-5.195652-4.2177143-3.652174 5.6904286c-2.76087 4.2830714-3.108696 8.5182143-3.36087 11.6161429l-.391304 3.0848571c-.213044.8670714-.66087 1.3725-2.030435 2.7057857l-2.495652 2.7275715-.373913.4662142c-2.947826 3.6992143-3.795652 6.3962858-3.795652 17.1889286 0 2.3615714-.234783 2.9628572-.239131 2.9977143-.017391.0174286-.634782.7973571-.634782.7973571l-.865218 1.0718572c-2.526087 3.2635-2.617391 7.4115-2.704348 11.0584286l-.226087 3.9562857c-.256521 1.7733574-.586956 2.8539284-.952174 3.6077144-4.586956.662286-216.4 31.279928-218.386956 31.558786-11.082609 1.498857-14.347826 10.160857-13.786957 15.293571 1.526087 14.152 12.065218 14.779429 16.52174 14.404714 6.065217-.531571 169.673913-25.01 210.352173-31.105643-1.186956 3.577215-2.521739 7.755715-2.521739 12.404786 0 2.984643.543479 6.1305 2.030435 9.394-1.095652 2.074-1.978261 4.143643-2.269565 6.583643-.134783 1.176429-.2 2.274429-.2 3.289643 0 6.387571 2.53913 9.812286 4.865217 11.603071 5.621739 4.348429 13.213044 1.943286 17.239131.2745 8.226087 1.742857 17.356521.662286 25.578261-2.670928 6.665217 2.444357 14.443478-2.248286 18.5-4.718786l.917391-.549c.434783-.261429.782609-.278857 2.334783-.156857l4.3-.104572.956521-.187357c3.4-.636143 8.065218-1.516285 10.113044-6.134857.586956-1.289714.826087-2.5925.826087-3.851714 0-3.041286-1.356522-5.903929-2.547826-8.017143" fill="#b02534" mask="url(#a)"/><path d="m207.917391 93.6524286c-.256521.1132857-.491304.2178571-1.178261-.0827857-.352173-.1655715-1.365217-2.7014286-.291304-8.1217143 2.078261-10.3743572 8.782609-18.7923572 12.065217-18.7923572.413044 0 .478261.1002143.517392.1655715.23913.3572857.443478 1.1372142.443478 2.3746428 0 1.7646429-.434783 4.4617143-1.865217 8.2045-5.130435 13.4287143-8.717392 15.8382143-9.691305 16.2521429zm89.713044-32.4607143c.5-1.0936429.682608-1.9607143 1.047826-2.9628572.160869.3529286.234782.7625.413043 1.0936429.8 1.4727143 2.047826 2.4574286 3.191305 3.5423571-4.965218 9.0367143-9.730435 14.8665715-12.678261 16.7662858 1.013043-3.7253572 3.865217-9.7338572 5.630435-13.4112858zm59.613043-18.2607857s.4.4357143.621739.671c-1.413043-.3790715-2.882608-.6579286-4.765217-.0043572l.126087-.0305c-.069565.0087143-.165217-.0392143-.269565-.0653571-.008696-.0784286-.039131-.1612143-.039131-.2396429 0-1.4945.826087-3.0325714 1.813044-3.8604285.356522-.2875715.595652-.4182858.865217-.5969286.204348 2.0347857 1.091305 3.5031428 1.647826 4.1262143zm-9.160869 31.5500714c-1.486957.5359286-2.882609.7537857-3.608696.1176429-.469565-.4052143-.691304-1.0587858-.691304-1.8997143 0-1.159.434782-2.6622143 1.282608-4.2830715.608696-1.1807857 1.513044-2.3441428 2.552174-3.4290714-.156521 1.0239286-.630434 2.0478572-.630434 3.0717857 0 2.1829286.413043 4.3266429 1.095652 6.4224286zm41.226087-21.0101429c-.517392 11.1804286-7.078261 14.9188572-13.113044 16.1345 4.1-6.2917142 7.608696-12.8492142 10.726087-18.6921428.630435-1.1546429 1.265218-2.3441429 1.904348-3.5162143.234783 1.3507143.552174 2.6447857.552174 4.209 0 .6012857-.026087 1.22-.069565 1.8648571zm-328.9304351 9.9212143c.0826087-.1132857.1652174-.2745.2391304-.3877857l1.3086957-1.8038571c4.1565217-5.8037143 9.0391304-12.5572857 23.1956521-19.8816429-.0521739 3.6033572-.9521739 11.4113572-7.0782608 19.0189286l-.0782609.1045714c-.2173913.2701429-.5043478.5097857-.7826087.7581429-5.473913-2.7362857-11.2652174-2.4269286-15.5869565 1.0587857-.4391305.3572857-.8347826.7407143-1.2173913 1.1328571zm-11.7086957-22.0122857c-.0913043-1.5424286-.2913043-9.516 4.4434783-14.5005714 3.0478261-3.1850714 7.8086956-4.6577857 14.1521739-4.3745714 1.4913043.0653571 3.8521739.5533571 6.3695652 1.6252142-9.5652174 4.3048572-17.9086956 10.4005-24.9217391 18.056zm358.0304348 2.7624286c-1.569565-3.9432143-6.086957-15.2892143.873913-25.0056429 2.678261-3.2460714 1.443478-6.7448571.991304-7.7295714-.447826-.9847143-2.282608-4.21335714-6.869565-4.13928571h-.265217l-.269565.02614285c-14.169566 1.40735715-22.026087 18.02549996-30.334783 35.61092856-.852174 1.7995-1.886957 3.721-2.873913 5.6163572-.382609-.0653572-.76087-.2135-1.139131-.2614286-1.373913-.1612143-2.665217.0087143-3.965217.1525-.056522-.2309286-.03913-.4575-.108696-.6840714-.295652-.8322143-.960869-1.4814286-1.552173-2.1655 1.143478-.2875715 2.57826-.6579286 2.57826-.6579286 3.9-1.0239286 5.308696-5.0717143 5.739131-6.7753572.291304-1.1459285.434782-2.2962142.434782-3.4377857 0-2.5968571-.743478-5.1152857-2.186956-7.3243571-2.286957-3.4857143-6.082609-5.8167857-10.417391-6.3875714-8.304348-1.098-17.32174 5.8690714-21.013044 15.433-2.991304 3.3942142-6.395652 5.8080714-9.717391 7.4637857-.847826-6.7971429-5.052174-11.7076429-11.247826-12.81-6.717392-1.2025715-13.604348 2.501-16.404348 8.7883571-.117391.2570714-.147826.5359286-.256522.8017143-1.360869-2.3354286-3.182609-4.2656429-5.617391-5.2416429-17.839131-7.1587857-31.426087 14.4613572-43.404348 33.5325715-4.782609 7.6075714-9.295652 14.7925-13.626087 19.6942857-.360869.4095714-.530435.4923571-.830435.7712143.113044-1.2592143.408696-2.7885715 1.286957-4.6795715.091304-.2265714 16.360869-38.918 16.360869-38.918l-22.482608 2.2482858s-.256522.6579285-.421739 1.1110714c-2.047827-1.0413572-4.273913-1.8953572-6.869566-2.2221429-20.060869-2.5576428-32.421739 15.311-37.313043 32.8877143-.286957.9280714-2.030435 4.4225-3.647826 7.3112857-6.513044 11.6117857-12.095652 14.8447856-14.286957 15.0452146-.169565-.623072-.334782-1.233072-.334782-2.2265003 0-6.161 3.030434-18.6965 6.386956-27.0186428.521739-1.4378572.726087-2.7101429.726087-3.8125 0-2.9454286-1.469565-4.7057143-2.273913-5.4551429-1.730435-1.6077857-4.791304-2.7014286-8.204348-.9455-3.817391 2.2918571-7.621739 3.6295-11.191304 4.4878571.047826-.5620714.2-1.2025714.2-1.7341428 0-1.5598572-.2-2.9802857-.656522-4.2046429-2.134782-5.7557857-6.413043-9.5508571-11.734782-10.4005-5.356522-.8496428-10.843479 1.4422143-14.334783 5.9823572-2.295652 2.9802857-3.465217 6.527-3.465217 10.2785 0 2.3528571.460869 4.7710714 1.386956 7.1892857.886957 2.2700714 2.443478 4.4094286 4.286957 6.4093571-2.056522 4.2307857-4.395653 8.784-6.730435 12.8971429-6.834783 12.0823567-13.134783 20.7269287-21.739131 29.8377147-.3608692.383428-.6173909.749428-.891304 1.115428.2304348-.627428.4739131-1.2505.6913044-1.899714 1.8086956-5.455143 2.6826086-10.966929 2.6826086-16.395929 0-11.354714-4.0260869-22.1647854-11.3260869-31.057714 11.2521739-8.9321429 18.1086959-21.8772143 18.1086959-35.4279286 0-2.6709285-.321739-5.3549285-.847826-8.0258571 1.647826-.5402857 3.295652-1.0892857 5.078261-1.6295714 6.256521-1.6165 5.73913-7.2546429 5.660869-7.8951429-.082609-.6317857-.969565-6.1915-7.634782-6.0956429-3.3.0435715-6.504348.2614286-9.639131.5838572-6.6173912-8.98007144-18.0782608-16.01685716-35.4695651-15.95585716-18.6304348.40521429-29.7521739 10.33514286-35.8173913 18.59628576-8.3043479 11.3067857-10.8869566 24.3607857-9.1434783 31.4062857l.9173913 3.7166428 3.7869565 1.3725c2.3173913.7232857 4.7826087.1612143 6.6130435-1.5206428 5.5086957-4.4835 8.8521739-5.7078572 9.6478261-5.7819286l.8217391-.0740714c-9.4347826 12.7838571-15.1608695 28.7179285-20.6695652 44.1596428-5.7782609 16.1867856-11.2304348 31.4803576-19.99565217 39.6499996l-2.73913043 2.553286.66956522 3.734072c.73043478 4.213357 1.27391304 13.210857.88695652 22.282428-.05217391 3.172 1.35652174 5.725286 3.75217391 7.019357 2.39130435 1.289715 5.19130435 1.019572 7.49565215-.688428 14.7956522-11.115072 24.8-41.445143 33.626087-68.2067146 3.6565217-11.0671428 7.1565217-21.6419285 10.3913043-28.9357857-.4130434 1.9476429-.4347826 3.9780714.0173913 5.9736429 2.0739131 7.8951428 8.6521739 12.0300714 16.426087 10.4832857 0 0 .7391304-.3311429 1.5869565-.7232857 2.3782609 3.6425714 3.6739131 8.9365 3.6739131 14.7576424 0 4.535786-.7739131 9.3635-2.3695653 13.912358-2.0652174 5.890857-8.5913043 19.546142-24.4521739 19.201928-3.4391304-.104571-7.0086956-1.620857-7.7043478-1.986857-4.0521739-2.379-7.7347826-.636143-9.3913043 2.017357-1.7130435 2.745-1.5652174 6.936572 2.0217391 9.642357-.3652174-.300643.2086956.222215.2086956.222215 3.4565218 3.124071 11.5695653 10.448428 27.6521739 9.821 13.4608696-.583858 26.052174-10.117286 32.9173914-24.365143-.0173914.187357-.0608696.379071-.0608696.557714 0 2.1045.9826087 3.655643 1.473913 4.283071 1.7695649 2.322358 5.4869569 3.999858 10.1304349 1.106715 2.604348-1.6165 6.082609-3.921429 9.852174-7.385357 6.373913-5.873429 12.660869-13.964643 19.778261-25.454429.326087-.540286 3.952174-6.4398571 7.5-13.8208571.769565.0130714 1.573913-.0305 2.378261-.0827858-1.778261 5.2067858-3.626087 11.5377143-3.626087 17.5157139 0 6.688215 2.321739 12.8405 9.691304 16.178072 8.282609 3.768928 21.76087.623071 34.530435-13.106286 3 3.978072 7.13913 6.570572 12.33913 7.076 5.143478.178643 10.634783-2.352857 14.8-5.298286 3.06087 2.213429 7.265218 4.322286 12.878261 3.725358 8.217391-.858358 16.382609-7.245929 24.986957-19.5112861l5.047826-7.7557143c5.056521-7.9648572 12.630434-19.8162857 18.53913-26.0339286-.417391 1.1720714-.917391 2.4530714-1.886956 4.0826429-4.969566 8.3918571-9.678261 17.0843571-9.678261 24.5742857 0 1.7515714.256521 3.4377857.83913 5.0455714 1.313044 3.6687143 4.182609 6.409357 8.06087 7.699071 15.856521 5.289572 32.621739-8.3657139 45.430434-36.4082853 1.617392-.4531428 3.213044-.9890714 4.791305-1.6557143-1.834783 3.9475715-3.013044 7.6903572-3.013044 10.9538572 0 5.551 2.252174 10.004 5.343479 13.0017143 7.917391 7.6598571 21.8 7.2372142 32.121739-.2527143 4.430435 2.5184285 9.621739 4.0521428 15.143478 4.1392857 11.934783.1917143 22.465217-5.2721429 28.865217-14.9885714 6.32174-9.5987858 7.46087-21.96 3.034783-33.0794286z" fill="#15233c" mask="url(#a)"/><path d="m395.891304 53.9980714c-.8 17.4634286-13.682608 21.899-20.495652 22.7878572-4.365217.5620714-8.460869-.0697143-11.7-1.4901429 13.139131-15.4242857 21.247826-38.3602857 27.717391-43.8851428-.421739 4.3440714 5.356522 10.8841428 4.478261 22.5874285zm-38.204347 9.2502143c3.4-6.9975714 8.430434-3.416 9.926086-.6579286-2.413043 3.8125-4.934782 7.4071429-7.526086 10.4789286-2.991305-2.5532857-4.22174-6.0869286-2.4-9.821zm-43.882609-20.9796428c3.043478 1.1633571 3.043478 4.4660714.365217 11.2457857-1.160869-.1307143-2.247826-.366-3.191304-.7537857-5.165218-2.1132143-2.065218-12.3612143 2.826087-10.492zm-90.052174 37.6413571c-5.6 14.6530714-11.830435 23.402214-19.626087 19.9208571-12.030435-5.368.926087-40.0072857 14.386956-39.9985714 5.882609 0 10.56087 6.1479286 5.239131 20.0777143zm-89.691304-9.5857143c-4.765218-7.8559286 7.813043-12.6967143 7.552173-3.9083571-.03913 1.1415714-1.052173 3.9955-2.608695 7.6642143-2.139131-.7886429-3.873913-2.0042858-4.943478-3.7558572zm266.534782-23.5808571c-1.604348-4.0303572-7.678261-18.6398572 1.669565-31.6677143.539131-.6579286.504348-.9934286-.473913-.9803572-10.308695 1.0195715-16.991304 14.7837858-25.034782 31.8115-1.686957 3.5597858-3.656522 7.32-5.76087 11.041-2.847826-2.4225714-12.221739-4.3179285-16.13913 5.0760715-2.282609 5.4551428-1.291305 10.6662857 1.756521 14.7881428-.8.7886429-1.613043 1.5598572-2.408695 2.2047143-9.539131 7.7077857-22.013044-.305-14.956522-13.8426428 3.456522-6.6359286 11.982609-11.8470715 15.252174-13.1542143 1.582609-.6230715 3.286957-2.8408572.7-1.9476429-3.117391 1.0892857-7.56087-.6405-8.482609-3.8996428-1.330434-4.6795715.778261-9.5029286 3.86087-12.0823572 7.847826-6.5444286 12.404348-.2135 11.591304 3.5423572-.452174 1.3942857.543478.366.943478-1.22 1.126087-4.4878572-2.286956-8.0868572-6.608695-8.6576429-5.747826-.7581429-12.826087 5.3854286-14.856522 12.8187143-6.660869 7.8254286-15.891304 12.1215714-23.213043 12.8840714 1.182608-3.5075 1.895652-6.6141428 1.752174-8.2655-.852174-9.9604286-12.252174-9.211-15.226087-2.4835714-2.913044 6.5357143-1.995653 16.3436428 6.230434 17.5418571-6.173913 12.8187143-16.617391 28.9401429-24.508695 27.1493572-9.391305-2.1437143-.578261-17.1017857 4.986956-29.1536429 4.426087-9.577 2.586957-15.0365-.982608-16.4656428-18.465218-7.4027858-34.36087 34.0292857-49.76087 51.4665714-9.83913 11.1281427-15.804348.244-10.382609-11.4636429l11.791305-28.0469285-7.304348.732-2.365218 6.0956428c-.943478-2.44-4.713043-6.1087143-10.382608-6.8276428-15.978261-2.0435-26.065218 13.2718571-30.16087 27.9946428-.552174 1.9999286-3.426087 7.3069286-4.273913 8.8319286-8.382609 14.9580717-17.465217 20.7748567-23.586956 17.8032857-7.939131-3.838643.591304-30.7309286 3.53913-38.0422143.530435-1.4683571.234783-1.952-.713043-1.4683571-6.908696 4.1567143-15.695653 6.5792857-22.643479 6.2350714 1.765218-4.9017857 2.704348-9.1587143 1.882609-11.3590714-4.534783-12.261-20.730435-4.5793572-15.83913 8.0650714 1.052173 2.7406429 3.243478 5.3505714 6.33913 7.1936429-2.73913 5.9387857-6.217391 12.7969285-9.217391 18.1082857-7.895653 13.9385004-14.708696 22.6702144-22.717392 31.1535714-1.995652 2.121929-.256521 1.450929.66087.888857 2.782609-1.7385 5.713043-3.755857 8.860869-6.644643 6.039131-5.568428 12.086957-13.502785 18.604348-24.0383569 2.508696-4.0652142 6.147826-10.8405714 9.030435-17.4372857 2.643478.5969286 5.630435.7537857 9.004348.1525 1.873913-.3311428 5.413043-1.9127857 6.830435-2.5750714.391304-.1742857.504348.3267857.504348.3267857-.708696 6.832-14.513044 30.7178573-1.2 36.7612143 7.430434 3.376786 21.465217-1.625214 33.730434-19.6768571.878261 7.1500711 4.373913 12.4527141 11.086957 13.0932141 4.973913.165572 12.021739-4.392 14.152174-7.315643 4.004348 3.66 13.986956 15.515786 32.556521-10.9756426 4.452174-6.3614285 15.908696-26.1602857 24.734783-35.1534285 9.26087-9.4288572 16.3-1.0718572 7.947826 13.0191428-6.073913 10.248-13.621739 24.1734286-4.382609 27.2582857 15.217392 5.0673576 29.96087-15.2238571 38.817392-35.7634285 10.004348-1.5467858 22.026087-10.7926429 25.313043-14.1825.239131 2.3659285 1.534783 5.5945714 3.686957 6.6446428-4.230435 3.1850714-8.713044 6.6141429-11.226087 9.8950714-15.313044 21.7857143 9.065217 31.8376429 23.913043 19.0625.652174-.5577142 1.265218-1.1764285 1.895652-1.7777142 3.886957 3.3462857 9.4 5.4682142 15.495653 5.5684285 20.582608.3355 33.186956-19.7770714 25.686956-38.6391428z" fill="#b02534"/><path d="m100.456522 27.4064286c3.491304-1.2635715 7.186956-2.5271429 11.317391-3.7994286.943478-.2396429 1.665217-.6361429 0-.61-3.821739.0566429-8.221739.3224286-12.9217391.976-5.3043478-9.5290714-15.9869565-16.39157143-32.2434782-16.34364286-30.6913044.66664286-40.9217392 32.04678576-38.5869566 41.47128576.0391305.1699285.2739131.3921428.5217392.1699285 5.7304347-4.6795714 10.5304347-7.2502857 13.5347826-7.4899285-.4739131-8.296 2.3956521-27.145 25.473913-26.0992858 5.1826087.2352858 14.026087 3.1066429 19.5043478 10.7447143-12.7956521 3.5902857-26.4782608 10.7534286-37.4347826 24.8705715-19.7347826 25.437-23.3521739 68.2938571-42.45652171 86.1015001.89565218 5.1545 1.37826087 14.818643.98695652 23.794357-.01304348.967286.50869566.7015.79130435.488 21.54347824-16.186786 34.04782604-85.888 46.40869564-102.7893571 5.5565218-7.6032143 11.1521739-17.1497143 34.5043478-27.3062143.8130435 2.0304285 1.4304348 4.2656428 1.7565218 6.7797143.5826087 4.6229285-.2391305 16.104-8.4956522 26.3432857-1.8869565 2.44-5.1434783 4.4573571-6.0956522 4.2874285-1.2043478-.9977857-1.0565217-.6797142-2.4-1.6077857-7.1565217-3.8212143-12.5565217 1.8212857-11.3478261 7.0934286.9304348 3.5510714 3.8217392 6.3265714 8.752174 5.3549286 1.5173913-.305 4.0608695-2.5837857 4.5521739-2.1655 17.1217391 14.1868571 8.4869565 63.5707144-25.0086957 62.8343574-5.073913-.139429-9.9217391-2.326715-10.7521739-2.819072-.8217391-.501071-.8347826-.244-.3.1525 2.7086957 2.365929 9.1913044 9.306857 23.7347826 8.740429 27.1173913-1.172072 46.5217391-46.5865716 17.0391304-72.3372859 18.8478257-10.2131428 25.4652177-31.1448571 19.1652177-46.8349285" fill="#b02534"/><g fill="#15233c"><path d="m485.573913 158.543357c-.534783 1.180786-2.691304 1.590357-4.995652 2.021714l-1.008696.196072h-2.430435c-1.782608-.148143-3.986956-.322429-6.395652 1.093643l-.973913.588214c-3.386956 2.069643-10.43913 6.348357-13.817391 3.437786l-.465217-.409572-.543479.270143c-3.056521 1.533714-13.978261 6.248143-26.121739 2.884429l-.321739-.082786-.295652.135071c-5.665218 2.544572-9.8 3.002072-11.978261 1.328929-1.734783-1.346357-2.365217-4.082643-1.873913-8.152214.213043-1.782072.882609-3.394215 2.460869-5.969286l.782609-2.117571-.326087-.169929c-4.447826-6.893-2.33913-13.232643-.291304-19.358786 13.2-.596928 22.43913-3.498785 30.078261-8.723 7.860869 1.9825 18.1 1.673143 24.878261-.732 1.417391 1.760286 2.030434 3.3245 2.613043 4.941l1.534783 3.5685 2.443478 3.633857c1.617391 2.213429 3.282609 4.496572 3.86087 7.119572.17826.854.23913 1.599071.23913 2.274428 0 .588215-.052174 1.124143-.086957 1.6165-.034782.466215-.073913.923715-.073913 1.381215 0 1.342.308696 2.701428 1.834783 4.265643.921739 1.716714 1.426087 3.119714 1.426087 4.121857 0 .322428-.052174.596928-.152174.836571zm-68.965217-34.308143c-.417392.061-.939131.139429-1.534783.230929.082609-5.882143-.704348-10.108572-1.713043-14.396l4.121739-.596929c.065217.013072.113043.074072.178261.074072 1.121739 0 1.847826.453143 2.3 1.442214 1.321739 2.893143-.304348 9.224071-3.352174 13.245714zm7.034782-29.2102854c.047826-2.745.108696-5.3375 1.152174-6.6751429l.730435-.9019286c1.678261-2.0173571 2.552174-3.3201428 2.552174-8.5225714 0-9.8035714.726087-10.7229286 2.186956-12.5572857l.439131-.5533571 1.860869-1.9868572c1.530435-1.5162857 3.278261-3.233 4.008696-6.2263571l.556522-4.2264286c.204348-2.3572143.569565-4.7797857 1.795652-7.1805714.347826.3267857.63913.6274285.704348.7712143.026087.0566428.930435 2.2090714.930435 2.2090714.947826 2.3833571 1.834782 4.6316428 5.330434 8.1478571 4.543479 4.5662857 4.578261 10.3438572 4.617392 14.9929286.017391 1.9258571.021739 3.5815714.356521 4.8930714.365218 1.4378572 1.395653 2.5881429 2.469566 3.8168572 1.87826 2.1393571 4.182608 4.7536428 4.182608 10.1172857 0 .4487857 0 .9280714-.043478 1.4291428-.008696.0784286-.008696.1525-.008696.2265715l-8.734782 1.5032143c2.191304-5.3200715.647826-11.9342143-1.573913-16.3262143-.239131-.4749286-.804348-.6535715-1.273913-.4008572-.452174.244-.630435.8322143-.391305 1.3071429 2.191305 4.331 3.695653 11.0017857.943479 15.8077143l-1.565218.2657857c-7.356522 1.098-14.926087 2.2657143-21.504348 4.4312143zm11.517392 26.7267144c-2.808696 1.089286-5.813044 1.978143-9.065218 2.535857.995652-1.660071 1.730435-3.276571 2.252174-4.8495 1.669565.248357 3.282609.8845 4.852174 1.542429.63913.270142 1.295652.527214 1.96087.771214zm-5.852174-9.925572c-.165218-1.7995-.582609-3.407285-1.191305-4.644714-.143478-.305-.33913-.535928-.508695-.814786 2.673913-.8845 5.491304-1.612142 8.404347-2.217785 3.678261 3.742785 8.952174 7.925643 12.069566 10.021428-.908696.732-1.852174 1.446572-2.830435 2.143715l-2.395652-.819143c-3.869565-1.359429-9.082609-3.137143-13.547826-3.668715zm28.408695 7.428929c-1.117391.008714-2.165217-.0305-3.082608-.122.273913-.283214.552174-.544643.834782-.832214.726087.383428 1.469565.7015 2.247826.954214zm3.391305-19.4502857c-1.956522 2.7624287-4.243479 5.7209287-6.939131 8.6140717-2.117391-1.150286-5.604348-3.856072-7.895652-6.060786.782609-.117643 1.569565-.239643 2.343478-.357286zm2.352174 8.8188567c.073913.61.191304 1.233072.356521 1.877929 0 .013071.008696.026143.008696.043571 0 .017429 0 .026143.008696.043572.008695.026143.017391.047928.017391.061.134783.61.308696 1.246143.5 1.886643-1.2-.026143-2.326087-.261429-3.347826-.688429.813043-1.045714 1.634782-2.113214 2.456522-3.224286zm15.343478-3.729714c.908695.915 1.391304 2.017357 1.391304 3.193786 0 .374714-.052174.753786-.147826 1.145928-.869565 3.355-5.152174 6.330929-11.434783 8.078143-.547826-.740714-1.043478-1.755928-1.47826-2.801643-.195653-.4575-.356522-.915-.473913-1.328928-.013044-.043572-.06087-.065357-.073913-.100214-.391305-1.089286-.682609-2.074-.852174-2.692715-.269566-1.145928-.430435-2.196-.534783-3.132785-.06087-.845286-.073913-1.638286-.073913-2.300572 0 0-.034783-.283214-.091304-.649214v-.3965c0-.021786-.004348-.052286-.004348-.078429v-.078428c0-.074072-.034783-.148143-.047826-.222215 7.030434-2.039142 11.747826-.697142 13.821739 1.363786zm-72.717391 20.918643c-2.16087.322429-4.582609.679714-7.230435 1.080571l6.782608-9.0585c.317392 2.257.5 4.871286.447827 7.977929zm-13.008696-5.368c-.939131-.871429-4.813044-4.444286-6.969565-6.444214l12.560869-1.812572c-1.730435 2.553286-4.865217 7.171857-5.591304 8.256786zm-11.173913 8.984429c.034782-2.570715-.086957-4.840786-.313044-6.927858l6.36087 6.025929c-1.956522.283214-3.978261.596929-6.047826.901929zm-14.834783 2.222142 5.547826-7.847214c.226087 2.091429.352174 4.383286.3 6.971429-1.908695.283214-3.860869.570785-5.847826.875785zm-7.213043-5.3375c-.313044-3.119714-.856522-5.803714-1.447826-8.304714l8.269565-1.193857zm-8.786957 7.725215c-42.686956 6.3745-95.565217 14.247857-126.395652 18.748785 1.117391-2.745 1.121739-6.4355.673913-9.158714-.408696-2.540214-1.217391-4.609857-2.265217-6.065143l126.347826-18.256428c.943478 3.999857 1.765217 8.496428 1.63913 14.7315zm-136.217391 20.182285c-8.965217 1.294072-14.686957 2.100143-15.682609 2.187286-7.086956.61-8.5-3.925786-8.934782-7.951786-.017392-.117642-.017392-.244-.017392-.387785 0-1.925857 1.321739-6.021572 7.717392-6.871215l15.2-2.196c1.252174.949858 2.317391 3.2635 2.791304 6.178429.578261 3.625143.143478 7.1675-1.073913 9.041071zm270.917391-1.803857c-1.565217-1.668785-1.495652-2.614285-1.352174-4.317928.086957-1.159.204348-2.601215-.204348-4.474786-.647826-3.036929-2.452173-5.49-4.195652-7.873357l-2.304348-3.420357-1.404347-3.285286c-.747826-2.056571-1.508696-4.187214-3.956522-6.718714-.213044-.222215-.4-.440072-.595652-.653572l-2.082609-2.627357c6.717391-1.9825 11.16087-5.324428 12.186957-9.311214.586956-2.278786-.056522-4.548857-1.756522-6.243786-2.447826-2.435643-7.821739-4.1044284-15.643478-1.838714-.017392-.0305-.043479-.069714-.047827-.095857-.608695-1.320215-1.530434-2.6622146-2.491304-3.9824289-.108696-.1437857-.217391-.2962857-.313043-.4444285-.539131-.793-1.265218-1.9084286-1.769566-2.7842143-.304347-.61-.526087-1.1807857-.491304-1.6295714.504348-7.1631429-2.460869-10.5355715-4.626087-12.9973572-.960869-1.0936428-1.786956-2.0304286-2.030435-3.0107857-.286956-1.0718571-.295652-2.6186429-.313043-4.4094286-.026087-4.7405714-.078261-11.2414285-5.169565-16.3697857-3.221739-3.233-4-5.2067857-4.908696-7.4899286l-.952174-2.2657142c-.330435-.8365715-1.673913-1.9127858-2.234783-2.3267143l-.795652-.5925715-.543478.8365715c-2.013043 3.1458571-2.278261 6.3178571-2.517391 9.1107857l-.508696 3.9301428c-.595652 2.4443572-1.995652 3.8212143-3.486956 5.2895715l-2.02174 2.1829285-.417391.5315715c-1.869565 2.3441428-2.626087 3.6948571-2.626087 13.7903571 0 4.7231429-.747826 5.6250714-2.104348 7.2633572l-.765217.9542142c-1.434783 1.8474286-1.495652 4.7623572-1.569565 7.8385l-.286957 4.6185715c-.082608.5969284-.173913 1.1459284-.273913 1.6600714l-.543478 2.156786c-.008696.013071-.008696.021785-.017391.026143v.026142c-.604348 1.908429-1.356522 2.989-2.247826 3.764572-.091305.069714-.178261.139428-.273914.178643-.57826.087143-6.47826.936785-16.030434 2.322357l-1.6.200428c-.030435 0-.030435.0305-.047826.0305-6 .867072-13.3 1.930215-21.491305 3.115358-.013043 0-.017391-.008715-.021739-.008715l-4.291304.636143c-46.082609 6.657714-117.039131 16.901357-153.513044 22.169143-.073913 0-.143478-.047929-.217391-.039214l-4.704348.7625c-11.486956 1.655714-18.495652 2.666571-18.495652 2.666571-7.430435.993429-9.66087 6.296072-9.330435 9.402714.282609 2.601215 1.139131 10.5225 10.96087 9.677215 1.030435-.0915 6.895652-.910643 16.043478-2.239572.043478 0 .078261.026143.130435.026143l4.873913-.758143c31.686956-4.6055 92.526087-13.672714 138.478261-20.535214l.434782-.043571 2.465218-.387786c18.856521-2.819072 34.965217-5.228572 45.156521-6.757929.078261.017429.152174.034857.230435.021786l7.113044-1.102357c.017391 0 .017391-.017429.034782-.021786 1.126087-.165571 2.065218-.300643 2.747826-.409571-.226087 2.326714-.947826 4.805928-1.821739 7.437643-1.186956 3.529285-2.452174 7.324357-2.452174 11.341642 0 2.971572.778261 6.073858 2.726087 9.289429-.091304.204786-.256521.631786-.256521.631786-1.756522 2.840857-2.495653 4.679571-2.752174 6.775357-.117392.949857-.169566 1.847428-.169566 2.679643 0 3.3855.934783 5.838571 2.795653 7.263357 2.730434 2.113214 7.3 1.760286 13.543478-.984714 8.395652 2.230857 18.265217 1.132857 26.621739-2.906215 4.452174 3.071786 11.547826-1.176428 15.452174-3.542357l.956522-.5795c1.9-1.1285 3.626087-.980357 5.304348-.849643l2.930434-.021785.991305-.191715c2.8-.527214 5.430434-1.019571 6.369565-3.132785.721739-1.6165.23913-3.821215-1.508696-6.932215z"/><path d="m435.808696 79.4960714c.213043.4836429.017391 1.0631429-.465218 1.2940715-1.921739.9367857-3.534782 3.2112142-4.021739 5.673-.465217 2.3833571.147826 4.6882857 1.721739 6.5095714.347826.4008571.321739 1.0108571-.069565 1.3681428-.382609.3572858-.969565.3224286-1.326087-.0740714-1.986956-2.2831428-2.756522-5.1937143-2.173913-8.1914286.6-3.0761428 2.6-5.8385714 5.073913-7.0498571.473913-.2222143 1.034783-.0087143 1.26087.4705714"/><path d="m465.808696 127.925714c.513043.0305.913043.483643.891304 1.019572-.065217 1.206928 1.447826 2.435643 3.2 3.860428 3.086957 2.514072 7.308696 5.951857 5.534783 12.274072-.147826.5185-.665218.806071-1.165218.662285-.495652-.143785-.782608-.688428-.634782-1.198214 1.417391-5.063-1.795653-7.681643-4.9-10.204428-2.065218-1.694929-4.026087-3.285286-3.917392-5.507429.034783-.527214.473913-.936786.991305-.906286"/><path d="m475.634783 149.123214c-.291305 1.276643-.708696 1.564215-1.034783 1.660072l-1.952174-.034857-2.121739-.113286c-1.321739.1525-2.652174.723286-3.66087 1.559857l-3.295652 2.631714-.756522.309357c-1.382608.326786-2.756521.222215-4.17826-.322428-.495653-.187357-1.026087.069714-1.208696.570786-.182609.501071.073913 1.058785.565217 1.246142 1.773913.688429 3.486957.814786 5.230435.405215l1.486957-.657929 3.317391-2.6535c.73913-.614357 1.752174-1.050071 2.713043-1.159l1.634783.104572 2.76087-.026143c1.760869-.535929 2.186956-2.453072 2.326087-3.089215.113043-.5185-.2-1.037-.704348-1.154642-.508696-.122-1.013044.200428-1.121739.723285z"/><path d="m448.913043 131.685929c2.047827 3.315785 2.2 7.607571.417392 11.751214-.365218.867071.026087 1.773357 1.391304 3.241714 0 0 .473913.444429.4.871429-.086956.427-.113043.788643-.534782.827857-.304348.026143-.808696.061-1.208696-.352929-.9-.962928-2.791304-2.980285-1.769565-5.381071 1.534782-3.533643 1.426087-7.154429-.282609-9.916857-.282609-.448786-.152174-1.050072.282609-1.346357.447826-.287572 1.030434-.1525 1.304347.305"/><path d="m429.343478 134.696714c1.826087 1.856143 1.208696 4.6055-.343478 6.365786l-2.317391 1.995571c-2.082609 1.546786-3.330435 2.609929-2.773913 4.561929.143478.522857-.143479 1.054429-.643479 1.202571-.5.143786-1.017391-.143785-1.165217-.662285-.947826-3.372429 1.508696-5.202429 3.46087-6.670786l2.060869-1.742857c.530435-.601286 1.634783-2.422572.4-3.668714-.360869-.374715-.373913-.989072 0-1.363786.356522-.392143.956522-.392143 1.321739-.017429"/><path d="m424.830435 157.092429c.834782 2.257 3.143478 3.5685 5.243478 2.980285l2.682609-1.211285 2.8-1.289715c1.121739-.357285 2.130435-.013071 3.017391.287572.717391.244 1.334783.453143 1.843478.270143l.773913-.248358-.030434.034858c.030434-.034858 1.286956-.492358 1.630434-.174286.891305.840928-.426087 1.446571-.034782 1.198214l-1.486957.949857-.221739.061c-1.117391.422643-2.156522.069715-3.060869-.244-.713044-.235285-1.334783-.448785-1.878261-.278857l-2.469566 1.145929s-3.069565 1.381214-3.07826 1.381214c-3.026087.832214-6.317392-.997786-7.478261-4.169786-.186957-.492357.047826-1.058785.543478-1.2505.482609-.187357 1.026087.056643 1.204348.557715"/><path d="m441.956522 58.1852857c.482608.2222143.691304.7973572.486956 1.281-.9 2.0914286-.826087 4.9235714.186957 7.3984286.769565 1.8997143 1.969565 3.2852857 3.308695 3.7950714.486957.1917143.730435.7494286.547827 1.2505-.182609.5054286-.717392.7537857-1.2.5707857-1.847827-.7102143-3.404348-2.4443571-4.395653-4.8582143-1.2-2.9541428-1.260869-6.3788571-.173913-8.9321428.217392-.5010714.765218-.7232857 1.239131-.5054286"/></g><g fill="#e2a42d"><path d="m447.208696 96.5281429c.021739-.0087143.034782-.0087143.052174-.0174286 3.373913-.5751429 9.713043-1.6644286 10.634782-1.8212857.030435.061.086957.1394285.113044.1960714.456521 1.037 1.143478 2.0914286 1.934782 3.1850714-2.326087.4008572-11.6 2.0086426-11.6 2.0086426-2.208695.331143-4.430435.679715-6.656521 1.045715-3.213044.509785-4.956522.832214-5.6 1.045714-3.369566.697143-6.652174 1.507571-9.734783 2.583786-1.030435-1.023929-2.243478-1.660072-3.586957-1.886643.1-.431357.204348-.871429.3-1.342 6.613044-2.3136431 14.452174-3.5075003 22.078261-4.6490717 0 0 .830435-.1394286 2.065218-.3485714"/><path d="m470.491304 123.124143c-5.982608 1.912786-14.265217 2.230857-21.256521.819143.186956-.143786.408695-.326786.604347-.483643.269566-.209143.534783-.413929.795653-.636143.834782-.671 1.665217-1.3725 2.334782-2.017357 3.695652.797357 11.152174.235286 14.826087-1.089286.743478 1.093643 1.6 2.196 2.591305 3.285286.043478.047928.086956.104571.104347.122"/><path d="m402.386957 111.651786c.652173-.078429 1.4-.169929 1.934782-.239643.134783.5795.46087 1.943286.686957 2.906214.065217.300643.121739.618714.186956.923714-.652174.871429-8.573913 11.454929-9 12.030072-.621739.087143-5.160869.7625-5.886956.862714-.582609-.553357-8.521739-8.0825-9.143479-8.670714-.269565-1.581643-.6-3.0805-.934782-4.553214 1.126087-.169929 2.904348-.440072 3.473913-.5185.608695.562071 8.917391 8.226285 8.917391 8.226285.186957.183.456522.265786.730435.239643.252174-.034857.508696-.187357.656522-.409571 0 0 6.821739-10.065 7.204347-10.627072z"/><path d="m378.313043 115.1375.895653 4.278714c.482608 2.675286.826087 5.564072.826087 9.054143 0 .392143 0 .797357-.017392 1.198214-1.021739.161215-3.856521.601286-5.217391.814786.004348-.313714.017391-.649214.017391-.954214 0-3.097929-.260869-5.747072-.647826-8.195786-.043478-.387786-.156522-1.045714-.3-1.786428-.1-.514143-.2-1.023929-.304348-1.520643-.160869-.784286-.321739-1.538072-.465217-2.135.456522-.069715 1.117391-.165572 1.817391-.265786z"/><path d="m351.304348 119.080714c1.278261-.187357 4.095652-.605643 5.208695-.766857.852174 3.5685 1.613044 7.489929 1.708696 12.570357v2.087072c-1.047826.143785-3.917391.540285-5.265217.723285 0-.339857.017391-.688428.017391-1.0065 0-5.651214-.791304-9.847142-1.669565-13.607357"/><path d="m360.104348 132.688071c.017391-.871428.017391-1.712357-.017391-2.527142v-.919358c.347826-.474928 8.734782-12.160785 9.186956-12.792571.417391-.047929 1.178261-.143786 1.93913-.235286.217392 1.054429.839131 4.134929.995653 4.866929-.504348.727643-7.295653 10.326428-7.721739 10.927714-.347827.056643-1.552174.244-2.726087.435714-.547827.082786-1.095653.165572-1.656522.244"/><path d="m407.965217 125.529286c.004348-.296286.017392-.601286.017392-.893215 0-3.673071-.356522-6.609785-.826087-9.154357.008695-.087143.017391-.169928 0-.257071-.421739-2.047857-.713044-3.276572-.921739-4.0565 1.304347-.196072 4.126087-.605643 5.243478-.766857.952174 3.999857 1.743478 7.895143 1.743478 13.197785 0 .370358-.017391.758143-.030435 1.145929-1.443478.222214-3.186956.479286-5.226087.784286"/><path d="m457.517391 116.078643c.108696-.135072.217392-.265786.347826-.400857.7-.801715 1.578261-1.821286 1.995653-2.291857 1.552173.740714 3.291304 1.141571 5.156521 1.076214.217392.557714.465218 1.119786.726087 1.699286.213044.461857.434783.893214.669565 1.307142.034783.069715.078261.139429.12174.2135.026087.039215.043478.095858.056521.139429-2.826087.501071-6.443478.418286-9.669565-1.071857.082609-.095857.304348-.348572.595652-.671"/><path d="m437.986957 120.527286c-1.317392-.222215-2.66087-.753786-4.086957-1.350715-1.578261-.657928-3.234783-1.237428-5.008696-1.538071.317392-1.350714.447826-2.623.473913-3.838643 4.217392.549 9.169566 2.235214 12.886957 3.538 0 0 .530435.174286.969565.326786-1.613043 1.023928-3.330435 1.969428-5.143478 2.827786-.017391.008714-.069565.0305-.091304.034857"/><path d="m449.608696 112.85c-2.613044-1.681857-7.530435-5.529214-11.3-9.163071.982608-.187358 1.978261-.357286 2.960869-.527215.817392-.130714 1.7-.265785 2.734783-.422643 1.995652 2.169858 5.960869 5.402858 8.765217 7.058572-.978261.954214-2.608695 2.557643-2.608695 2.557643s-.195653.183-.417392.387785c-.03913.034858-.086956.078429-.134782.108929"/><path d="m422.173913 104.802357c1.321739.139429 2.513044.7625 3.421739 1.904072l.047826.065357c.291305.374714.56087.793.8 1.276643.669565 1.3725 1.052174 3.145857 1.06087 5.132714.008695.061.008695.113286.008695.165571-.008695.771215-.082608 1.572929-.208695 2.405143-.013044.113286-.039131.204786-.052174.309357-.473913 2.697072-1.621739 5.646857-3.643478 8.557429-.408696.043571-.808696.117643-1.239131.161214-.060869.004357-.126087.008714-.195652.013072-1.004348.0915-2.047826.126357-3.095652.161214l-.004348-1.084929-.030435.004357c1.873913-3.054357 3.256522-6.962714 3.256522-10.2785 0-1.281-.2-2.453071-.63913-3.442142-.373913-.814786-.92174-1.429143-1.586957-1.873572.869565-.901928 1.556522-2.030428 2.1-3.477"/><path d="m418.221739 130.243714c.313044-1.102357.56087-2.200357.708696-3.276571 0-.017429.004348-.039214.004348-.056643 1.317391-.0305 3.847826-.126357 5.430434-.427.056522-.008714.082609-.065357.130435-.082786 5.139131-.675357 9.726087-2.052214 13.821739-3.930143 1.295652-.370357 5.4-2.623 7.621739-4.304857.004348-.008714.004348-.017428.017392-.0305 1.486956-1.028285 2.882608-2.130643 4.208695-3.259143.065218-.034857.139131-.043571.191305-.082785l1.052174-.989072.086956-.082785c4.356522-3.938858 7.852174-8.248072 10.7-12.195643.3.4575.591305.976.773913 1.511928.091305.283215.173913.562072.182609.819143v1.965072c-.034783.061-.082609.130714-.082609.130714-11.821739 16.387214-22.286956 25.023071-45.391304 26.264857.186956-.61.378261-1.281.543478-1.973786"/><path d="m220.704348 137.838214c1.252174.949857 2.321739 3.206857 2.791304 6.108715.182609 1.098.265218 2.196.265218 3.233 0 2.487928-.526087 4.627285-1.426087 5.938785-.630435.095857-3.543479.544643-5.42174.827857.708696-1.694928 1.139131-3.625142 1.139131-5.607642 0-1.228715-.104348-2.426929-.278261-3.472643-.434783-2.7145-1.4-4.679572-2.56087-6.152286 1.834783-.291929 4.843479-.775571 5.491305-.875786"/></g><path d="m433.982609 17.6507857h-1.730435v-7.0062857h-.043478l-2.46087 7.0062857h-1.686956l-2.378261-7.0062857h-.039131v7.0062857h-1.734782v-8.79707141h3.008695l1.973913 5.74271431h.043479l2.065217-5.74271431h2.982609zm-11.639131-7.2372143h-2.565217v7.2372143h-1.739131v-7.2372143h-2.565217v-1.55985711h6.869565z" fill="#15233c"/></g></svg>