<svg height="500" viewBox="0 0 500 500" width="500" xmlns="http://www.w3.org/2000/svg" xmlns:xlink="http://www.w3.org/1999/xlink"><mask id="a" fill="#fff"><path d="m0 .14020979h498.459371v498.46118921h-498.459371z" fill="#fff" fill-rule="evenodd"/></mask><g fill="none" fill-rule="evenodd" transform="translate(1)"><path d="m249.226573 12.1520979c-131.108391 0-237.7748247 106.6657341-237.7748247 237.7769231 0 131.113287 106.6664337 237.778322 237.7748247 237.778322 131.111189 0 237.779021-106.665035 237.779021-237.778322 0-131.111189-106.667832-237.7769231-237.779021-237.7769231" fill="#11284b"/><path d="m11.4530769 249.36958c0-131.111188 106.6636361-237.7769227 237.7741261-237.7769227 131.111189 0 237.779021 106.6657347 237.779021 237.7769227 0 131.113287-106.667832 237.779021-237.779021 237.779021-131.11049 0-237.7741261-106.665734-237.7741261-237.779021m237.7741261-249.22937021c-137.424476 0-249.22727293 111.80419621-249.22727293 249.22937021 0 137.426574 111.80279693 249.232168 249.22727293 249.232168 137.427273 0 249.232168-111.805594 249.232168-249.232168 0-137.425174-111.804895-249.22937021-249.232168-249.22937021" fill="#fec52f" mask="url(#a)" transform="translate(0 .559441)"/><path d="m249.227552 29.16c-121.732867 0-220.7692303 99.038462-220.7692303 220.773427 0 121.732167 99.0363633 220.771328 220.7692303 220.771328 121.734965 0 220.776224-99.039161 220.776224-220.771328 0-121.734965-99.041259-220.773427-220.776224-220.773427m0 447.316084c-124.914685 0-226.5426569-101.627972-226.5426569-226.542657 0-124.919581 101.6279719-226.5475529 226.5426569-226.5475529 124.919581 0 226.547553 101.6279719 226.547553 226.5475529 0 124.914685-101.627972 226.542657-226.547553 226.542657" fill="#003e9f"/><path d="m361.175105 200.40951v33.344056c0 27.83007-4.548951 44.683217-26.4 90.897203-23.00979 48.652448-51.382518 63.098602-85.335664 63.098602-22.322378 0-43.315385-7.351749-60.267133-20.934965l-.152448.057342-3.78951-3.385314-.697203-.620979c-4.809091-4.296504-8.911888-8.920979-12.44965-13.677623-.297903-.394405-.588112-.788811-.869931-1.193007-.051049-.057342-.108391-.12937-.143356-.200699-.216783-.286014-.422378-.579021-.625175-.86993-2.028671-2.854546-3.897203-5.813287-5.582518-8.865734-.200699-.327972-.382517-.665035-.558041-.988112-5.587413-10.059441-9.274826-20.074126-12.367133-28.441958-.886014-2.402798-1.716784-4.661539-2.535665-6.761539-6.406293-16.458042-18.80979-48.625175-24.812587-64.83007-6.241958-16.827273-7.195105-28.772028-3.200699-39.941259 4.276223-11.962937 13.841258-21.534965 26.895804-32.212587 13.075524-10.698601 24.295804-19.583217 39.802797-30.777622 9.704196-7.001399 20.120979-10.714686 30.118182-10.714686 4.234266 0 8.235664.68042 11.902797 2.014686.655245.235664 1.382518.505594 2.328671.865035 3.371329 1.26923 6.361539 3 8.937763 5.13007.267132-.151749.525874-.302098.767832-.449651 7.128671-4.162937 15.122377-6.36014 23.127272-6.36014 6.334966 0 12.537763 1.366434 17.94056 3.957343 1.176224.553846 1.86014.907692 2.634965 1.322378.376224.198601.796503.420279 1.364336.706293 4.251049 2.176224 7.912587 4.968532 10.867132 8.213287 4.737063-1.592308 9.331469-2.390909 13.713987-2.390909 6.683216 0 12.932167 1.823077 18.565734 5.413986l1.346853.855944c2.58042 1.643357 3.881818 2.467133 5.88951 3.860839 15.297903 10.59021 23.582518 22.312588 23.582518 53.87972" fill="#fec52f"/><path d="m252.221469 259.768741c24.034265 0 43.513986 19.486014 43.513986 43.520979 0 24.027972-19.479721 43.513287-43.513986 43.513287-24.034266 0-43.516084-19.485315-43.516084-43.513287 0-24.034965 19.481818-43.520979 43.516084-43.520979m79.720979-105.077622c-2.155245-1.490909-3.41049-2.268532-6.918182-4.502098-6.820979-4.348252-15.860839-5.785315-28.188112-.272727-.816783.365035-1.581119.708391-2.333567 1.041258-2.741258-5.621678-7.605594-9.392307-11.815384-11.543356-1.725874-.886014-2.201399-1.167832-3.759441-1.915385-8.367133-3.999301-20.477622-4.578321-31.776224 2.028672-2.268531 1.31958-5.245454 3.078321-7.804895 4.594405-2.611888-4.460839-6.636363-7.144755-10.411888-8.563636-.906993-.339161-1.596503-.595804-2.226573-.823776-8.346853-3.041959-20.548252-1.428672-32.806294 7.418881-14.602797 10.546153-25.315385 18.944056-39.323077 30.415384-25.626573 20.962937-31.063636 33.013986-20.683916 61.019581 5.70979 15.401398 17.815385 46.839161 24.757343 64.677622 3.978321 10.227972 8.132168 23.49021 15.648252 36.288112v.006993c.687412 1.167832 1.398601 2.332867 2.148251 3.491608.193707.311888.404196.604895.606993.911189 3.406294 5.174126 7.458742 10.186014 12.337063 14.827273.389511.378322.77972.751748 1.179021 1.121678.200699.177623.378322.366434.583916.551748.004895 0 .009091-.00979.013986-.016783 15.288112 13.915385 35.542658 22.374825 58.27063 22.374825 41.697902 0 75.497902-33.797902 75.497902-75.490909v-.087412c0-39.802797-32.265035-72.059441-72.065735-72.059441-21.616083 0-43.336363 12.504895-56.155244 32.217483-5.439161-13.331469-17.1-41.856644-25.878322-63.227972-4.721678-11.502098-3.641259-17.326574 3.574126-24.013986 3.688112-3.415385 8.174126-6.83986 13.151748-10.216084 5.081818-3.436364 10.827972-1.414686 10.827972 5.30979v71.217482c11.604895-11.718181 25.855245-19.35944 44.097203-22.728671l-.286014-58.776224c1.296504-.80979 2.51958-1.551049 3.431469-2.083916 4.64965-2.695804 7.972727.297902 7.972727 4.629371v54.735664c.293007-.004895.583916-.016084.872028-.016084 15.379021 0 29.785314 4.183916 42.18951 11.441259v-61.363636c1.167133-.47063 2.261539-.904196 3.106294-1.243357 4.661538-1.853846 7.811189 1.038462 7.811189 5.254546 0 4.20909-.323077 65.048951-.323077 65.048951 17.13007 14.120279 28.239161 34.917482 29.990909 58.360839 8.173427-17.386014 13.990909-33.583217 13.990909-60.978322v-33.343357c0-27.768531-6.294406-36.708391-19.303496-45.717482" fill="#11284b"/><g fill="#fefefe"><path d="m277.805385 324.124895c-9.223077-12.302098-9.223077-29.372028 0-41.672028 4.634265 5.690909 7.418881 12.941259 7.418881 20.838462 0 7.892307-2.784616 15.142657-7.418881 20.833566m-45.394406 5.556643c12.140559-15.430769 12.140559-37.360839 0-52.790209 5.51958-4.158042 12.383217-6.632168 19.809091-6.632168 7.430769 0 14.291608 2.474126 19.813986 6.632168-12.142657 15.42937-12.142657 37.35944 0 52.790209-5.522378 4.159441-12.383217 6.632868-19.813986 6.632868-7.425874 0-14.289511-2.473427-19.809091-6.632868m-13.188112-26.390209c0-7.897203 2.78042-15.147553 7.416783-20.838462 9.221679 12.3 9.221679 29.36993 0 41.672028-4.636363-5.690909-7.416783-12.941259-7.416783-20.833566"/><path d="m90.2534266 180.671329-12.9832168.180419 17.8524475 8.138462-3.3111888 7.267832-5.2013986-2.370629.8398602-1.825175-23.3405595-10.638462-.827972 1.825175-5.1552448-2.346853 3.309091-7.267133 2.7944055 1.272028 18.5258742-.094406-12.0986014-13.998601-2.7951049-1.274126 3.3391608-7.317482 5.1461539 2.346853-.858042 1.876224 23.3398601 10.643356.858042-1.876224 5.193007 2.365035-3.327972 7.317483-17.8545455-8.139161 8.4 9.872727z"/><path d="m98.921958 114.422448 4.287413 3.694405-1.308392 1.520979 19.474126 16.76993 1.311189-1.520979 4.287412 3.692308-6.731468 7.811888-4.25035-3.731469 1.308392-1.520979-19.4769234-16.76993-1.3083916 1.520979-4.2881119-3.692307z"/><path d="m153.534336 105.837203 5.164335-3.597902 4.416784 6.332867-17.134266 11.951049-3.237762-4.642658 1.652447-1.14965-14.709091-21.0755244-1.652447 1.1468532-3.235665-4.6391609 8.465035-5.9006993 3.237763 4.6433567-1.779721 1.2391608 14.697902 21.0762239 5.293707-3.692308z"/><path d="m204.309091 51.971958 1.725874 5.3349651-1.947552.6811189 3.486713 28.8853146.867832 2.6629371-5.93986 1.9174825-.867832-2.6671328-9.895105-16.3664336 1.495105 19.0797203.856643 2.6678321-5.938461 1.9181819-.858042-2.6657343-14.062937-25.472028-1.973427.586014-1.723776-5.3356643 7.248951-2.3349651.855944 2.6629371 9.113287 16.5062937-1.311189-19.0244755 4.730769-1.5293707 10.015385 16.216084-2.268532-18.7153847-.858042-2.66993z"/><path d="m255.803357 60.423986-3.062238-6.9251748-3.170629-.051049-3.283917 6.8188812-.147552 8.7790209 9.516783.1517483zm5.875524 18.9230769 1.908392.0321679-.092308 5.6587412-8.088112-.1363636.156644-9.9902098-9.516784-.1517483-.156643 9.9923077-8.141958-.1342657.092308-5.6587413 1.8993.0328672.323077-19.6713287 5.577623-11.5958042 11.206293.1804196 5.155245 11.7202797z"/><path d="m322.818741 61.1294406-1.723776 5.4461538-1.963636-.627972-7.211888 22.6825175-5.598602 6.0944056-13.453147-4.2734266-1.107692-8.2314686 7.211189-22.6755244-1.963637-.6279721 1.723777-5.4412587 7.867133 2.4993007-8.455945 26.6097902.431469 3.6902098 5.395804 1.713986 2.517483-2.6972028 8.474126-26.6608391z"/><path d="m369.490909 87.1213986 4.61049 3.1755245-3.209791 4.6615384-1.64965-1.1377622-12.173427 7.2202797-2.406993 13.943357 1.652448 1.13986-3.210489 4.661538-4.656644-3.20979 2.986713-17.014685-2.395804-1.6503499-8.90979 12.9328669-6.796503-4.677622 3.210489-4.659441 1.658741 1.13986 14.571329-21.168531-1.651049-1.1398602 3.208392-4.6566433 6.795804 4.6797202-8.87972 12.8881119 2.397902 1.6503497z"/><path d="m403.233566 130.611189 1.511889-1.234965-4.002098-4.919581-7.709791 6.279021 5.983917 7.34056-4.425875 3.604895-5.983916-7.333567-7.70979 6.283917 4.013287 4.914685 1.556643-1.268532 3.946853 4.836364-5.946853 4.846154-13.206993-16.118881 4.425874-3.606993 1.302098 1.596503 19.846154-16.172028-1.311189-1.596503 4.426574-3.606993 13.16993 16.146853-5.93986 4.846154z"/><path d="m430.041189 176.835734 1.788811-.77972-2.527273-5.818182-9.120279 3.955944 3.771328 8.683916-5.235664 2.272728-3.773427-8.683917-9.120279 3.958042 2.526573 5.817483 1.844056-.798601 2.481119 5.723076-7.036364 3.053147-8.337063-19.093706 5.237763-2.275524.821678 1.897202 23.488112-10.186014-.819581-1.895105 5.236364-2.268531 8.290909 19.112587-7.035664 3.051049z"/><path d="m112.007203 353.11993-7.885315 6.142657 4.906294 6.297903 1.753846-.424476 5.007692-3.895804 1.031469-1.944755zm-8.316783 17.54056.874125-1.624476-4.905594-6.297902-7.9293706 6.170629 4.813986 6.177623 2.1762238-.558042zm-8.852448 11.448251-12.6713286-16.275524 4.462937-3.473427 1.2713287 1.624476 20.2804199-15.788811-1.272028-1.627273 4.463636-3.477623 12.668532 16.279021-2.84056 5.558742-6.593007 5.132168-4.813986 1.135664-2.277622 4.388811-6.593007 5.13007z"/><path d="m141.536294 398.51028 6.593007 4.597203 1.539161-.923077 4.576223-6.546854.405595-2.162237-6.456644-4.509091zm3.530769 19.615384 1.642657 1.146853-3.237063 4.643357-4.63916-3.242657 2.730769-15.182518-3.302797-2.300699-8.012588 11.495105-6.770629-4.721678 3.237762-4.638462 1.65035 1.14965 14.709091-21.078321-1.65035-1.147553 3.235664-4.642657 16.176923 11.286713-1.474825 8.319581-4.576224 6.546153-6.980419 4.089511-1.123776-.784615z"/><path d="m199.706993 416.788392.6-1.864336-6.032168-1.959441-3.072028 9.457343 9.002797 2.923077-1.760839 5.432867-9.002098-2.924475-3.06923 9.457342 6.03007 1.958741.627272-1.912587 5.928672 1.929371-2.369931 7.292307-19.825874-6.385314 1.76084-5.432867 1.964335.637063 7.903497-24.341259-1.963637-.641259 1.760839-5.430769 19.818182 6.436363-2.360839 7.295105z"/><path d="m268.945245 415.962098.092307 5.603496-2.058741.088112-5.088112 28.64056.046853 2.7993-6.245454.1007-.046154-2.796504-4.682517-18.541958-4.141958 18.682518.046153 2.7993-6.242657.101399-.045455-2.799301-6.013986-28.462237-2.065734-.016784-.092307-5.606993 7.618181-.125175.045455 2.804196 3.890909 18.447553 4.309091-18.581818 4.967832-.078322 4.841958 18.42937 3.302098-18.562937-.046154-2.804195z"/><path d="m309.862587 413.125944-.636363-1.848252-5.995105 2.06993 3.237063 9.397203 8.953846-3.087412 1.864336 5.397202-8.946854 3.09021 3.237763 9.396504 6.004895-2.06993-.655245-1.899301 5.890909-2.037762 2.508392 7.248251-19.679021 6.849651-1.862238-5.397203 1.944755-.674126-8.353147-24.193706-1.946153.673426-1.864336-5.4 19.68951-6.8 2.507693 7.248252z"/><path d="m353.361958 401.160699 6.50979-4.716783-.357342-1.760839-4.696504-6.468532-1.899301-1.097902-6.381118 4.624476zm19.688811 3.103497 1.622378-1.181119 3.33007 4.583217-4.585315 3.320979-13.453846-7.562937-3.244755 2.360839 8.215384 11.342657-6.676223 4.844056-3.32028-4.581119 1.624475-1.17972-15.078321-20.80979-1.631469 1.181119-3.320979-4.583217 15.971329-11.572727 7.368531 4.125874 4.684616 6.463636 1.578321 7.941259-1.116783.807692z"/><path d="m415.83049 366.44972-9.674126 12.777623-6.075525-1.349651-3.247552-2.458042 3.761538-4.977622 1.732867 1.311189 2.058742.433566 4.186014-5.524475-.95035-1.908392-3.493706-2.651748-16.996504 5.972028-7.544056-5.713287-2.93986-5.483217 9.671329-12.770629 6.06993 1.34965 3.206993 2.425175-3.733567 4.934266-1.603496-1.213287-2.176923-.455245-4.188112 5.522378 1.061538 1.928671 3.348951 2.596504 16.986714-5.972028 7.586713 5.748252z"/></g><g fill="#fff"><path d="m418.777972 446.515524h5.097902v13.862238h3.45035v-13.862238h5.102098v-2.990209h-13.65035z"/><path d="m445.487273 454.520559h-.082518l-3.93007-10.996503h-5.983916v16.855245h3.452448v-13.414686h.091608l4.726574 13.414686h3.325174l4.876224-13.414686h.081119v13.414686h3.447553v-16.855245h-5.918882z"/></g></g></svg>