<svg viewBox="0 0 500 502" xmlns="http://www.w3.org/2000/svg"><g fill="none" fill-rule="evenodd"><path d="m282.944 268.32 13.68 4.617-18.99 4.797s-1.533-1.029-3.59-1.198zm-13.686-5.23 2.14.934-15.825 15.251c-6.326 0-8.489 6.321-8.489 6.321l-11.326 3.166c-.51-.517-3.258-.754-3.258-.754l14.18-12.326c11.629-3.594 22.578-12.591 22.578-12.591zm114.18 108.287h-20.23l-.18.653c-2.646-.422-5.54-.366-8.545.202-11.219 2.109-19.803 8.902-25.73 20.211.657-5.893-.017-10.482-2.798-14.048-3.23-4.122-7.78-6.427-13.168-6.658-1.961-.084-4.006.124-6.102.602l.152-.641h-30.117l.017-.056h-4.023c5.456-2.672 9.23-8.267 9.23-14.74 0-9.048-7.359-16.42-16.404-16.42-6.899 0-12.803 4.296-15.219 10.347l4.54-17.815-35.287 13.923-5.77 25.295c-12.247-1.771-20.516 4.662-25.73 11.107.927-1.699 2.388-4.381 2.264-4.184l3.579-5.748-34.787-.017.978-3.7h-28.023s-5.241 21.077-7.64 28.568c1.225-5.416 6.168-26.594 6.168-26.594h-24.129c51.483-17.849 87.82-31.39 108.281-40.388 9.567-4.207 57.652-21.701 73.747-27.505 12.146-4.375 26.798-9.453 43.523-15.088 11.073 16.87 39.415 59.795 56.41 82.762-1.056-.056-2.596-.068-5.006-.068zm-281.814 83.24c-16.08 2.896-32.691 5.882-46.9-1.159-10.145-5.016-18.291-18.827-18.55-31.435-.23-11.416 1.287-23.282 5.41-35.794 1.169 1.254 2.596 1.957 4.012 2.469 3.174 1.153 7.752 1.108 11.573-.186a4225.882 4225.882 0 0 0 17.275-5.854c-.32.337-.635.636-.955.99-11.989 13.474-16.972 29.41-13.95 44.133a79.69 79.69 0 0 1 -6.69 3.588s-6.613 3.155-6.933 3.318l-1.798 1.08v2.097c-.006 2.098-.006 2.098 8 6.917.028.023 3.326 2.182 5.14 5.967l2.135 4.465 4.944-.124c4.517-.112 8.112-2.564 10.332-4.521 7.646 3.346 15.73 2.559 22.814-2.221 5.995 3.576 12.22 4.279 15.438 4.369-3.809.557-7.595 1.237-11.297 1.9zm386.039-30.019a29.82 29.82 0 0 0 -11.691-3.115c-.37-5.28-2.09-10.42-3.562-14.734-.63-1.867-1.236-3.627-1.618-5.1-1.843-6.962-2.343-9.808-.69-14.335 3.522-9.638-8.742-15.178-13.59-17.376 0 0-1.506-.68-1.5-.68-1.422-.648-2.242-.333-4.422.51-1.759.687-3.787 2.048-6.46 4.511 2.218-3.655 3.65-8.255 4.022-13.125 1.444-1.046 2.78-2.694 3.86-4.859 3.657-7.3 3.814-19.435-6.675-31.627-4.247-4.948-34.13-30.856-60.416-53.395l-.1-.085c9.24-2.98 23.381-7.546 23.263-7.513 1.983-.528 5.18-2.007 8.107.647 2.59 2.514 7.674 3.442 12.062.343 7.612-5.359 3.387-17.152 1.831-21.544-2.736-7.72-6.606-10.634-9.37-11.719-2.686-1.046-5.517-1.108-7.972.197-3.815 2.036-4.736 5.303-5.175 7.968-.488 2.896-5.1 3.577-13.32 5.646 0 0-28.157 7.688-30.163 8.256l-.14-.118-6.82-5.804c-1.326-2.199-3.944-6.124-7.023-8.632-.534-8.818-7.37-19.306-12.977-23.596-.298-6.136-5.214-15.015-10.45-18.254-23.522-41.541-44.522-68.202-64.185-81.457l-.646-.433c-3.523-2.362-3.82-2.7-3.95-4.538-1.213-16.37-5.595-32.06-11.151-40.478 2.196-3.532 5.516-9.82 7.814-18.541 0 0 2.478-9.414 2.478-9.408l-2.843 1.883c.713-2.373 1.438-5.201 2.14-8.637l.069-.456c.208-2.823-1.702-3.886-2.292-4.144a3.546 3.546 0 0 0 -.714-.214c.208-3.121-.106-6.883-1.724-11.033l-2.18-5.618-4.023 4.476c-8.236 9.178-20.753 13.958-31.809 18.18-2.528.968-4.921 1.885-7.19 2.824-18.029 7.451-29.18 15.442-39.692 38.015-.241.208-.517.439-.82.692-4.775 4.02-14.719 12.388-20.348 28.96l-.938 2.75 2.438 1.57c5.803 3.711 12.078 6.326 20 9.104-29.73 66.521 26.865 105.987 74.219 130.162-2.742 5.05-4.944 9.774-5.523 15.347l-21.213 22.382c-2.045.54-5.899 1.8-8.14 4.195-.765.81-1.478 1.912-2.135 3.262-.585.129-1.102.236-1.551.326-13.264 2.665-34.46 7.518-90.702 23.152-8.135-7.468-21.674-12.254-34.995-12.254-21.1 0-34.73 11.348-48.696 28.388-20.169 24.597-42.944 91.922-12.759 127.558 5.158 6.096 24.568 25.756 57.826 23.214 8.905-.68 15.568-2.16 21.444-3.453 11.618-2.564 16.921-3.734 28.483 4.044l4.624 3.115 4.37-3.458c6.59-5.213 17.781-3.459 26.787-1.361l17.455 4.071-9.152-15.425c-12.213-20.577-29.522-23.53-46.966-22.005 9.82-2.744 16.348-11.478 21.101-21.836-.629 6.821.545 14.07 6.978 18.653 10.376 7.372 23.376 4.139 32.989-1.822 4.556 3.886 10.662 6.158 16.286 5.91 4.882-.09 9.073-1.051 13-2.969a17.932 17.932 0 0 0 8.697 3.25c5.275.518 10.921-1.197 16.814-5.055 3.062 3.076 7.085 4.757 11.658 4.78 2.129.011 4.354-.276 6.612-.844l-.225.844h31.753l4.27-15.628c.37 3.087 1.297 6.04 3.084 8.632 1.983 2.857 5.826 6.383 12.882 6.968 7.567.63 16.64-2.222 23.96-7.361 7.956 7.833 17.984 9.115 29.91 3.767 2.36 2.03 6.422 4.42 12.535 3.577 4.19-.281 8.404-2.064 12.792-5.382 3.618 3.582 8.275 5.506 13.483 5.427 8.595-.13 15.814-5.264 21.477-10.555 6.242 6.393 15.714 12.906 30.242 10.448 2.506-.427 4.562-.973 6.382-1.462 4.809-1.294 5.421-1.451 9.258 1.794l11.343 9.616 1.18-14.531c.219-.726 1.803-5.14 9.505-10.212l11.057-7.305-11.843-5.928z" fill="#fff"/><path d="m450.506 428.507c-.916.888-2.669 1.49-4.534 1.524-2.315.056-4.455-.692-5.865-2.053-7.158-6.726-7.158-6.726-3.708-11.202 2.225-2.902 4.174-5.595 6.073-8.205a243.518 243.518 0 0 1 4.82-6.5c.556 4.015 1.702 7.743 2.787 11.23 2.224 7.209 3.342 11.494.427 15.206zm-101.49-.748c-.055 0-.128 0-.303-.236-.264-.327-2.426-3.543.394-14.802 2.135-8.48 4.96-13.687 8.415-15.47 1.175-.607 2.5-.765 3.967-.59-2.028 15.588-7.225 31.098-12.472 31.098zm-139.41-15.173c-.988 3.97-2.016 8.087-2.937 12.322-.13.607-1.72 1.872-3.927 2.08-.798.09-2.23.023-2.545-.714-1.99-4.589.752-19.401 7.185-27.055 1.899-2.249 3.77-3.402 5.579-3.47.073 3.139-1.882 10.95-3.354 16.837zm-122.73 15.038c-.05 0-.118 0-.303-.225-.258-.326-2.427-3.543.399-14.807 2.084-8.306 5.14-13.868 8.607-15.678a5.672 5.672 0 0 1 2.932-.653c-1.78 15.465-6.696 31.363-11.635 31.363zm189.146-146.094c-1.353-1-2.78-1.586-4.106-1.558-4.983.08-3.287-1.732-2.152-3.025l13.32-12.45s10.5 4.375 23.107 8.8c-18.264 5.01-28.174 7.699-30.169 8.233zm-17.977.203c-2.73.54-4.056.922-5.905 2.637-1.303 1.198-2.19 2.885-2.662 4.139a3171.89 3171.89 0 0 1 -15.59 4.01c-1.175-.692-3.427-1.603-6.91-1.35-.32-.034-1.248-.203-1.175-1.164.068-.844 19.225-18.21 19.225-18.21 5.36-1.09 24.978-12.506 24.978-12.506l6.005 2.452-.444.99-.854 1.518-15.539 16.516c-.337.371-.657.872-1.13.968zm227.965 146.177c-4.989-2.492-9.854-2.958-13.702-2.728.46-5.848-1.624-11.995-3.405-17.23-.651-1.935-1.27-3.757-1.696-5.354-1.826-6.917-2.686-10.797-.579-16.556 2.337-6.405-7.298-10.752-11.404-12.619l-1.747-.787a92.262 92.262 0 0 0 -1.545.585c-5.366 2.086-16.32 15.127-35.955 40.073-2.298 2.93-4.64 5.905-6.512 8.239 1.214-5.528 5.146-23.434 7.04-32.02 7.567.69 13.404-4.112 14.82-11.338 6.275 1.563 13.241-7.687 13.241-19.452 3.31.225 12.753-14.447-2.033-31.643-4.506-5.236-40.461-36.244-65.062-57.31l-.09-.078 29.742-9.6c1.837-.495 5.219-1.282 6.882-1.141 1.067.09 3.365 1.653 4.483 2.89 1.09 1.057 4.078 2.385 7.578-.174 4.748-3.453 2.568-11.534.529-17.31-2.27-6.399-5.09-9.166-7.14-9.964-1.67-.653-3.596-.844-5.45.118-4.264 2.204-2.298 6.838-4.635 8.598 0 0-.674 2.064-13.927 5.298l-30.46 8.665-1.787.507-.146-.13c-5.427-4.617-8.787-7.473-8.787-7.473-2.14-3.656-5.163-7.648-7.86-9.15.618-8.958-8.477-21.426-13.123-23.58 1.275-3.942-4.056-15.104-9.303-17.432-16.742-29.693-39.456-64.885-63.562-81.131-3.854-2.592-5.927-3.762-6.225-7.777-1.348-18.339-6.54-34.152-11.95-40.653 1.99-2.806 6.08-9.526 8.725-19.581 0 0-3.073 2.047-5.427 2.795 1.264-1.451 4.377-5.005 7.163-18.743.118-1.665-1.286 1.445-4.629 3.374.545-2.413 3.388-8.812.152-17.146-10.787 12.012-28.062 16.859-40.349 21.943-18.651 7.71-28.404 15.757-38.09 36.884-3.432 3.093-14.696 10.966-20.68 28.551 5.961 3.818 12.445 6.428 21.641 9.577 0 0 .073 2.952.13 3.284-27.961 61.145 18.129 99.238 75.55 127.958-3.697 6.658-6.736 11.955-7.067 18.552l-22.838 24.097s-5.207 1.074-7.376 3.385c-.955 1.018-1.719 2.705-2.197 3.948-1.342.292-2.516.545-3.455.742-13.91 2.795-36.297 8.014-92.51 23.658-.192-.202-.377-.416-.574-.613-7.337-7.333-20.421-12.073-33.343-12.073-19.646 0-32.533 10.808-45.831 27.026-19.506 23.788-41.697 88.7-12.798 122.813 4.865 5.758 23.214 24.327 54.72 21.914 8.64-.663 15.168-2.103 20.926-3.374 11.91-2.637 18.467-4.077 31.349 4.583l2.382 1.603 2.252-1.782c7.826-6.18 20.102-4.347 29.922-2.064l8.994 2.103-4.719-7.946c-15.337-25.846-39.056-21.578-61.989-17.456-16.663 3.003-33.887 6.096-49.19-1.479-11.461-5.668-20.321-20.582-20.607-34.68-.287-13.89 2.853-29.315 7.668-42.587 3.781 4.887 8.596 7.508 12.944 6.355a10.59 10.59 0 0 0 1.646-.59c.421-.063.843-.141 1.247-.288 77.989-26.3 130.916-45.522 157.292-57.112 9.663-4.246 57.86-21.791 73.978-27.6 14.286-5.152 30.483-10.719 46.303-16.039 9.528 14.554 47.062 71.616 63.371 92.237-3.22 18.963-8.809 41.541-18.287 47.384-.404.253-.893.574-1.314.833 2.062-11.068 8.865-40.327 9.932-44.73l1.186-4.876-22.377-.005-.37 1.473c-2.91-1.164-6.495-1.45-10.534-.692-17.326 3.262-27.826 19.233-31.23 47.469-.062.506-.124 1.034-.186 1.44-3.37 3.89-6.034 4.639-6.831 4.34-.276-.112-.332-.742-.32-1.096.117-3.352 1.938-9.633 3.702-15.718 4.483-15.476 7.095-26.048 2.741-31.62-2.55-3.251-6.146-5.068-10.404-5.248-3.747-.157-7.601.95-11.096 2.694l.63-2.722h-23.197l-.657 3.144c-2.635 12.799-10.332 39.916-15.607 46.107-1.045 1.22-3.101 1.974-4.534 2.177 1.46-7.007 8.04-31.279 12.287-46.49l1.399-5-23.54-.005-.69 3.082c-.074.343-7.748 34.427-13.731 44.887-1.725 2.997-3.332 3.824-3.944 3.632-.399-.118-.786-.759-.73-1.58.59-7.985 13.45-59.576 18.354-78.774l1.899-7.468-26.73 10.544-6.152 26.987a18.357 18.357 0 0 0 -2.686-.67c-17.202-2.895-25.573 12.806-28.725 18.716-4.039 7.564-8.112 20.009-8.483 29.895-2.494 2.946-5.533 5.185-6.562 5.055-.86-.118-1.078-.433-1.28-.815-3.253-6.405 6.943-30.699 15.23-45.91l3.168-5.832-32.932.011.972-3.706h-20.27l-.708 3.048c-4.135 17.77-11.545 41.074-18.05 50.23-.781 1.102-1.467 1.675-1.927 1.962.41-4.218 5.59-27.701 10.46-48.419l1.14-4.847h-23.168l-.988 3.762c-7.512-2.772-17.349-2.227-25.534 6.979-11.944 13.435-16.427 29.107-12.517 43.335-1.736 1.304-5.562 3.498-9.303 5.275l-6.613 3.149 6.276 3.779c.022.017 4.174 2.626 6.5 7.496l1.1 2.306 2.551-.062c4.242-.107 7.562-3.037 9.72-5.298 7.775 4.404 16.291 3.577 23.404-2.26 6.427 4.774 13.983 5.19 16.404 5.19 19.877 0 27.478-26.346 33.028-45.584a363.833 363.833 0 0 1 2.13-7.215h7.612c-.472 1.142-.96 2.323-1.46 3.543-2.214 5.32-4.72 11.36-6.658 17.242-2.152 6.545-7.191 21.875 2.28 28.606 9.338 6.636 22.012 3.11 31.276-3.514 4.405 5.01 10.854 7.142 15.781 6.922 5.169-.1 9.466-1.27 13.478-3.683 2.494 2.317 5.387 3.66 8.657 3.981 6.107.59 12.225-2.615 17.135-6.371 2.472 3.875 6.264 6.05 10.988 6.073 3.91.023 8.034-1.09 12.051-3.115l-.843 3.115h24.09l7.798-28.567c4.511-18.204 9.028-20.312 9.893-20.549a1.21 1.21 0 0 1 .91.107c-.017 1.198-1.005 4.23-1.893 6.962-.815 2.469-1.826 5.54-2.848 9.217l-.298 1.046c-2.011 7.136-5.393 19.075-.337 26.386 1.528 2.204 4.522 4.92 10.14 5.387 7.72.641 17.315-2.941 24.085-8.66 9.668 11.843 21.258 8.89 30.23 4.296 2.478 2.75 5.815 5.123 11.534 4.342 5.022-.332 9.623-3.369 13.505-6.844 3.085 4.504 7.618 6.962 12.972 6.877 8.691-.129 15.967-6.36 21.686-12.163 6.983 8.126 15.674 14.446 29.466 12.113 2.337-.4 4.309-.923 6.045-1.39 5.157-1.383 7.286-1.956 12.607 2.548l5.842 4.955.624-7.637c0 .04.938-5.995 11.123-12.715l5.703-3.762-6.096-3.06z" fill="#111b2b"/><path d="m278.242 356.902c0-7.007-5.703-12.714-12.703-12.714-6.994 0-12.696 5.707-12.696 12.714s5.702 12.71 12.696 12.71c7 0 12.703-5.703 12.703-12.71" fill="#111b2b"/><path d="m236.893 315.648a4901 4901 0 0 1 37.73-13.862l1.72-.624c1.955-3.582 1.854-10.702-1.764-13.654-.81-.658-1.95-1.13-3.062-1.473-1.202.298-2.225.494-2.832.483-1.915.5-26.303 6.833-31.724 8.25 5.657 4.954 6.606 15.093-.068 20.88m42.219-15.493c2.916-1.051 6.753-2.44 6.753-2.44 12.792-4.617 28.23-9.965 45.882-15.898l.186-.056-.602-.928c-6.224-1.384-13.353-3.554-20.207-5.854l-31.882 8.722c-.225.079-.484.163-.748.247 3.579 4.42 5.427 11.506.618 16.207m-106.23-186.145s8.888 3.499 11.46-7.777c1.388-6.118-3.218-14.964-9.145-12.484-.062.023 1.061-6.45-3.916-8.649-12.287 7.541-17.803 21.527-17.803 21.527 10.809-2.317 12.494-5.415 20.724-4.701 2.938.253 4.326 1.597 6.663 3.318-3.578-.81-6.337-.996-9.343-1.063-4.185-.096-12.455 2.84-16.657 3.262 0 0 13.781 5.938 18.017 6.568" fill="#fcd81d"/><path d="m269.652 193.921c-3.72.608-8.354.742-15.439-1.906-.275 2.007-5.516 4.96-7.882 5.382 17.102 14.548 77.32 36.997 94.529 41.034 2.77.641-1.259-11.753-8.826-16.836-5.54-3.734-40.337-11.782-62.382-27.674m4.668-1.158c23.787 14.149 49.163 21.864 54.73 23.472 1.152-.815-1.758-11.691-9.724-14.52-11.882-4.229-21.781-8.424-28.815-12.838-2.472 1.366-6.157 2.165-12.826-.512-.258 1.648-.758 3.222-3.365 4.398" fill="#b02534"/><path d="m200.96 95.38a6.477 6.477 0 0 1 -5.954 3.048c-3.545-.247-6.214-3.323-5.972-6.872.253-3.554 3.326-6.225 6.87-5.972a6.426 6.426 0 0 1 5.304 3.526c-4.427-.473-5.399 3.813-5.399 3.813-2.87-3.52.837-5.55.837-5.55-2.466-.327-4.809 1.557-5.011 4.391a5.142 5.142 0 0 0 4.77 5.489c1.91.135 3.556-.49 4.556-1.873" fill="#fff"/><g fill="#b02534"><path d="m168.64 143.506c2.725-5.432 17.63-25.576 32.49-25.576-1.186-2.806.274-19.457 12.898-32.132-2.865.68-6.736-.304-9.506-1.485-1.044-.697-2.286-2.025-4.573-3.346-3.14-1.81-7.067-.945-9.96.776-1.708 1.012-13.056.731-14.871-2.379 4.837-11.759 14.545-23.928 33.253-31.806 12.758-5.377 27.685-8.599 37.095-18.474.422 15.296-22.27 25.644-22.258 25.666 13.652-3.087 22.983-12.389 22.983-12.26-5.87 15.263-20.5 23.816-20.5 23.816 4.669-.81 13.646-4.808 17.382-7.693 0 0-1.646 7.98-14.466 19.362-.028-.033 6.393-1.44 9.944-4.217 6.398 8.412 11.196 23.028 11.539 40.55.067 3.392 1.635 10.91 3.438 11.77 2.596 1.244.421-3.913 1.112-6.18 26.073 15.91 46.068 47.823 64.158 78.185-5.9-1.834-18.585-6.89-26.045-10.809.764-.832.899-1.513.972-2.52.421-5.724-4.624-9.351-7.197-10.583-.663-.315-1.163-.168-1.365.113-.214.287-.112.73.079.855 1.297.888 6.258 3.885 5.91 8.795-.09 1.293-1.888 3.143-4.478 3.306-6.376.68-16.932-4.796-30.078-18.299-.41-.376-1.085-1.287-1.972-.759-.871.529-.68 1.215-.444 1.57 6.753 11.173 20.522 17.522 20.522 17.522-.955 3.858-5.696 4.01-10 3.875-16.275-.49-27.27-18.625-30.258-23.26-.579-.893-1.202-1.124-1.736-.843-.573.31-.91.557-.612 1.474.46 1.4 6.966 14.947 18.544 21.673 1.545.9-4.337 4.622-8.073 4.538-6.747-.163-22.707-6.41-28.163-29.861-.067-.36-.398-.95-1.207-.77-.871.202-.905.798-.781 1.501 3.095 25.835 22.146 31.638 29.286 32.487 11.888 11.759 54.843 31.335 99.472 44.46 8.393 2.373 16.978 25.497 10.343 23.546-2.388-.68-5.483-1.845-8.832-2.975-22-7.384-55.393-20.864-91.466-38.358-24.916-12.097-67.157-39.32-46.741-77.313 2.668-5.663 5.528-8.424 5.932-8.829.27-.14.46-.849.399-1.107-.905-2.486-3.315-2.272-9.663 8.362-21.719 41.766 21.848 69.034 48.169 82.12 16.988 8.435 46.91 21.285 68.19 29.788l11.714 18.985c-10.803-2.143-45.708-15.886-55.921-20.498 0 0 3.719-3.3 2.41-6.388-.905-2.143-1.421-3.481-4.298-5.916-3.028-1.856-3.798-.557-2.472.928 1.225 1.372 3.82 5.59 1.315 8.491-4.124 4.786-15.82 10.15-22.444 13.896-2.899.58-4.303.512-4.618-1.98-.388-3.11 4.04-9.824 9.28-18.197-9.005-4.19-99.724-43.678-83.83-103.597m261.499 229.148c6.826 3.02 11.708-10.46 9.08-14.323-.883-1.305-5.889-6.765-12.911-14.245l-4.225 19.604c4.377 5.28 7.36 8.643 8.056 8.964"/><path d="m400.163 353.225.41-3.47 4-1.564-52.13-66.93h4.653s29.685 38.442 51.252 65.463l14.939-5.849c-21.854-23.152-58.253-60.75-58.253-60.75l4.753.123c-.023-.382 70.477 72.898 70.477 72.898 3.865 4.352 10.444-10.381-.152-22.163-5.837-9.363-83.314-73.887-83.314-73.887.702 1.535 1.073 3.537 1.415 5.393 3.012 14.368-7.825 6.405-35.51-2.93 22.201 35.096 56.005 86.923 75.157 111.172 1.084-7.17 1.831-13.446 2.303-17.506m17.303 31.935c5.674-.196 11.422-5.145 8.59-9.385l-5.146-6.613-3.444 15.999"/><path d="m453.45 431.15c-3.4 3.57-11.495 4.071-16.074-.332-9.292-8.728-9.1-9.954-4.1-16.449 7.213-9.363 11.91-17.213 18.359-23.011-4.028 16.28 10.36 29.338 1.814 39.792zm-104.433.545c-3.966 0-7.388-5.325-3.73-19.93 2.646-10.532 7.966-22.966 20.516-18.045 0 0-3.814 37.975-16.786 37.975zm-138.5-5.96c-1.113 5.15-11.545 7.614-13.927 2.108-3.989-9.2 5.135-39.078 18.528-35.816 4.652 1.13-1.028 17.18-4.601 33.707zm-123.64 5.83c-3.961 0-7.388-5.325-3.725-19.935 2.646-10.532 8.27-22.764 19.618-18.405 0 0-3.259 38.34-15.894 38.34zm380.027-1.444c4.281-7.845-1.466-18.805-3.494-26.515-1.837-6.923-3.05-11.872-.477-18.918 1.134-3.104-8.051-7.085-9.585-7.783-7.837 3.031-41.455 48.976-44.955 51.917-1.623 1.372-5.444 3.587-3.129-6.512 0 0 16.888-76.627 16.764-76.7l-17.826 6.957c-2 16.943-7.298 64.676-23.505 74.658-1.467.9-6.388 4.549-7.854 1.698-.81-1.575 10.472-49.386 10.595-49.892h-14.314l-1.124 4.375c-2.36-4.375-8.303-4.375-12.112-3.655-27.146 5.095-27.579 45.438-28.484 46.844-7.87 9.695-14.949 7.237-14.735 1.282.353-10.308 12.735-37.762 7.27-44.763-6.023-7.705-18.433-2.194-24.641 4.487l1.921-8.26h-15.045c-2.163 10.47-9.994 40.275-16.472 47.878-3.41 3.998-12.1 5.174-11.724.9.432-4.898 12.69-48.835 12.69-48.835h-15.196s-7.81 34.888-14.163 45.978c-5.433 9.498-12.416 5.331-12.011-.186.753-10.083 18.46-79.466 18.46-79.466l-17.629 6.968-7.112 31.188s-.062-2.936-5.764-3.897c-12.534-2.115-19.489 7.108-24.596 16.685-3.814 7.147-8.05 20.03-8.05 29.49 0 0-6.18 8.126-10.972 7.501-16.444-2.142 10.994-52.512 10.994-52.512l-31.416.005.984-3.705h-12.04c-3.337 14.334-10.955 40.753-18.68 51.635-4.19 5.893-8.955 4.246-9.09.174-.134-4.161 10.585-49.83 10.585-49.83h-15.157l-1.433 5.477c-4.253-2.721-15.343-7.136-25.185 3.942-12.871 14.47-15.006 29.85-11.146 41.429.533 2.188-11.927 8.12-11.927 8.12s5.123 3.088 8.022 9.167c4.775-.118 8.803-6.698 9.315-6.366 7.36 5.556 16.36 5.477 23.831-2.548 4.556 4.809 11.365 6.557 16.483 6.557 20.416 0 26.573-35.99 32.298-52.799l16.247-.011c-2.37 6.523-7.05 16.527-10.151 25.958-3.253 9.898-5.242 19.857.82 24.159 9.303 6.613 22.444.573 29.842-5.99 3.102 6.001 9.573 8.903 14.765 8.678 5.724-.107 10.039-1.597 14.28-4.96 7.916 10.949 20 2.604 26.652-3.6 1.157 4.59 4.04 8.537 9.517 8.56 6.483.034 13.348-3.582 18.691-8.7l-2.36 8.7h15.939l7.005-25.672c7.714-31.086 17.253-22.825 18.011-21.588 1.765 2.733-1.157 7.951-4.36 19.429-2.23 7.963-8.156 26.656 6.046 27.83 8.14.676 18.792-4.34 24.292-10.757 8.095 13.058 17.843 12.687 30.68 5.297 2.78 3.622 4.86 6.186 10.05 5.46 5.972-.252 11.865-6.123 15.096-9.52 1.814 5.202 5.601 9.61 11.82 9.52 8.68-.128 16.36-8.22 21.989-14.165 7.635 9.875 15.348 16.398 28.562 14.166 9.27-1.57 12.882-5.567 21.854 2.041 0 0 .618-7.597 12.887-15.69-6.753-3.374-13.55-2.49-17.343-1.315z"/><path d="m256.775 356.902c0-4.842 3.933-8.772 8.764-8.772 4.837 0 8.764 3.93 8.764 8.772s-3.927 8.767-8.764 8.767c-4.831 0-8.764-3.925-8.764-8.767"/></g><path d="m365.742 259.745 9.27 7.788 31.258-10.083s11.573-2.896 11.573-8.34c0-8.395 4.354 7.581 2.578 10.741 0 0 1.472 1.418 4.017-.427 2.545-1.856 2.084-6.956-.46-14.138-2.551-7.18-5.27-8.744-7.58-8.317-2.859.535-2.949 3.802-2.949 3.802s.461 2.896-2.786 5.33c-1.64 1.238-6.556 3.403-14.46 4.978z" fill="#fcd81d"/><path d="m51.337 460.325c-13.28-6.58-22.489-23.074-22.798-38.14-.32-15.233 3.343-32.177 8.927-46.674a34.83 34.83 0 0 1 -2.95-7.502c-2.949-11.18.77-22.404 7.332-24.924.354-.174.736-.32 1.158-.438 6.629-1.912 12.966-3.549 19.05-5.286 2.135-1.896 4.298-3.52 6.45-4.786 7.657-4.493 22.314-4.684 30.87 1.558-3.972 4.678-7.393 11.05-1.77 16.291 4.4 4.246 11.641 2.502 14.613-2.559 4.584-7.805.843-16.578-4.59-22.156-6.522-6.53-18.573-10.927-30.562-10.927-16.87 0-28.803 8.531-42.792 25.593-20.106 24.524-39.488 86.293-12.837 117.762 8.933 10.544 26.966 22.399 51.416 20.526 26.73-2.041 33.989-12.102 54.775 1.873 9.781-7.738 24.691-4.803 33.247-2.807-24.443-41.186-71.207 1.564-109.539-17.404" fill="#b02534"/><path d="m231.854 299.047c-1.163-.826-2.916-1.377-4.37-1.72h-.653c-2.449.624-4.432 1.124-4.432 1.124-9.045 2.25-15.348 3.734-18.742 4.415-18.444 3.706-46.438 10.853-90.651 23.152 4.702 6.349 7.573 15.386 2.6 23.844-2.145 3.66-5.954 6.186-10.19 6.765-3.922.54-7.764-.686-10.489-3.324-3.124-2.901-6.994-8.868-1.337-17.928-2.264-.972-4.792-1.546-7.37-1.833l-42.832 12.226c-.214.062-.427.118-.64.174-5.495 1.996-7.978 11.804-5.518 21.133 2.534 9.61 8.995 16.955 14.86 15.414 5.854-1.546 8.13-11.185 5.595-20.795-.966-3.684-1.764-6.175-3.646-8.869 0 0 4.012 3.363 5.905 11.54 1.618 7.012 1.37 12.647-.596 16.454 75.332-25.463 126.596-44.116 152.354-55.425 3.028-1.339 9.888-4.01 20.388-7.952 0 0 1.05-.388 1.854-.697 2.41-4.167 2.882-14.183-2.09-17.698" fill="#fcd81d"/></g></svg>