<svg height="500" viewBox="0 0 500 500" width="500" xmlns="http://www.w3.org/2000/svg" xmlns:xlink="http://www.w3.org/1999/xlink"><mask id="a" fill="#fff"><path d="m.13761468 428.862353h498.80733932v-427.15323535h-498.80733932z" fill="#fff" fill-rule="evenodd"/></mask><g fill="none" fill-rule="evenodd" transform="translate(0 32)"><path d="m321.419725 249.590824-72.114679-.22253-3.075688 3.955059 7.711009 25.411941-57.075688 96.582353 82.110092-66.598235 61.19266 72.955235-31.525229-99.849176 16.073394-22.564942z" fill="#f1e7c5"/><path d="m259.832569 259.547294h51.87844l-13.834862 21.206824 18.043578 55.802117-35.034404-42.113117-47.369266 37.901117 31.729358-52.191176z" fill="#9e2723" mask="url(#a)"/><path d="m213.461009 429-27.823394-62.448176 110.761468-186.036883h8.461009l41.665137 185.378471-39.389908 63.106588h191.809633l-95.224771-427.29088235h-132.754587l-270.965596 427.29088235z" fill="#f1e7c5" mask="url(#a)"/><path d="m285.380734 9.67888235h111.958716l92.103211 411.15405865h-171.21789l40.589449-54.407294-44.917431-192.898588h-25.958716l-114.146789 190.836176 26.577982 57.086824h-168.1238532l136.1880732-85.937647-25.754587-63.888883 84.06422-52.344882-27.610091-49.871823 79.738532-39.981883-24.520643-45.3386469 61.194955-27.203647z" fill="#191818"/><path d="m389.926606 18.5502353h-98.878441l24.497707 38.3324118-61.194955 27.203647 24.520643 45.3386469-79.738532 39.981883 27.610091 49.871823-84.06422 52.344882 25.754587 63.888883-121.167431 76.458353h138.06422l-21.841743-47.811706 119.915138-199.700647h37.912844l46.56422 203.203764-32.348624 44.719236h142.37156z" fill="#9e2723"/><path d="m276.844037 10.3464706c.34633.0022941 26.43578 43.0307647 26.43578 43.0307647l-60.644496 27.3068823 25.227064 46.3159414-79.649082 38.883 27.470183 50.463706-82.933486 52.709647 25.568807 63.079059-141.155963 88.825941s259.337156-410.6149414 259.681193-410.6149414" fill="#191818"/></g></svg>