<svg viewBox="0 0 500 500" xmlns="http://www.w3.org/2000/svg"><g fill="none" fill-rule="evenodd"><path d="m249.415 500c137.747 0 249.392-111.657 249.392-249.404 0-137.722-111.645-249.396-249.392-249.396-137.745-.001-249.415 111.674-249.415 249.396 0 137.747 111.669 249.404 249.415 249.404" fill="#fff"/><path d="m249.41 40.485c-115.907 0-210.22 94.246-210.22 210.111 0 115.877 94.313 210.142 210.22 210.142 115.894 0 210.2-94.265 210.2-210.142 0-115.865-94.306-210.11-210.2-210.11zm0 413.621c-112.177 0-203.45-91.28-203.45-203.51 0-112.206 91.273-203.498 203.45-203.498 112.176 0 203.432 91.292 203.432 203.498 0 112.23-91.256 203.51-203.432 203.51z" fill="#005d53"/><path d="m27.295 250.596c0-122.52 99.642-222.21 222.115-222.21 122.472 0 222.114 99.69 222.114 222.21 0 122.545-99.642 222.228-222.114 222.228-122.473 0-222.115-99.683-222.115-222.228zm-11.842 0c0 128.931 104.954 233.82 233.957 233.82 128.996 0 233.95-104.889 233.95-233.82 0-128.906-104.954-233.789-233.95-233.789-129.003 0-233.957 104.883-233.957 233.79z" fill="#c1c9ca"/><path d="m217.686 186.176c-10.237-6.225-47.171-25.839-47.171-25.839l31.604 36.272a71.724 71.724 0 0 1 15.567-10.433m78.536 9.956a72.465 72.465 0 0 1 12.344 13.71c5.097-12.391 18.509-45.744 19.81-49.403zm-106.064 94.903c-5.002 12.158-17.584 43.518-19.333 48.8l31.724-34.97a72.662 72.662 0 0 1 -12.391-13.83m-19.542 49.582s.28-.22.788-.609c-.298.143-.56.269-.746.364-.042.126-.066.233-.042.245m111.186-26.006c10.224 6.315 45.989 26.633 45.989 26.633l-30.554-37.162a72.292 72.292 0 0 1 -15.435 10.53" fill="#c1c9ca"/><g fill="#cb2437"><path d="m204.238 203.36c.543-.15 1.838-4.775 1.838-4.775-.083-.25-.698-.824-1.008-1.104-.317.274-.639.555-.955.835l-.92 3.313-.805-.657c-.102-.023-.74.132-1.54.359a63.618 63.618 0 0 0 -2.567 2.662c1.182-.275 4.507-1.266 5.098-1.445.358.376.86.812.86.812"/><path d="m209.09 206.565c.49-.203 1.785-5.032 1.785-5.032-.143-.376-1.498-1.17-1.498-1.17l-.388-.214-.107.418-1.194 4.363-1.164-.687c-.274-.036-5.784 1.648-5.784 1.648-.065.597 1.38 1.462 1.38 1.462.268.03 5.15-1.456 5.735-1.635.442.388 1.236.847 1.236.847m-1.271 4.274c.268.018 5.198-1.797 5.592-1.94.495.346 1.36.758 1.36.758.478-.239 1.314-5.11 1.314-5.11-.197-.351-1.701-1.08-1.701-1.08l-.4-.19-.078.447-.74 4.393-1.277-.627c-.275-.018-5.628 1.964-5.628 1.964-.03.603 1.557 1.385 1.557 1.385m4.948 2.184c.4.52 1.564 1.015 1.564 1.015.257 0 5.068-2.06 5.432-2.214.525.334 1.456.71 1.456.71.478-.263.872-5.175.872-5.175-.215-.328-1.773-.973-1.773-.973l-.442-.179-.03.454-.37 4.405-1.373-.562c-.274 0-5.473 2.215-5.473 2.215 0 .095.06.203.137.304m6.5 2.698c.012.09.084.185.173.28h.006c.478.478 1.797.83 1.797.83.245-.03 4.638-2.578 4.936-2.763.597.268 1.677.567 1.677.567.418-.364-.137-5.265-.137-5.253-.245-.292-2.011-.758-2.011-.758l-.478-.131.042.495.495 4.364-1.534-.418c-.256.042-4.966 2.787-4.966 2.787m23.159 1.075h.006s.006 0 .006.005c-.006-.005-.012-.005-.012-.005m7.306.459s.006.012.006.018c0-.012-.006-.012-.018-.018zm21.392-1.856c.06-.364.101-.663.125-.824.62-.077 1.725-.376 1.725-.376.012-.066-.03-.179-.12-.304l.03-.006-.083-.066c-.406-.561-1.468-1.546-2.4-2.37.257 1.38.496 2.698.723 3.946m5.419-3.158c-.22.263-.883 4.441-.883 4.441.442.352 2.179-.316 2.179-.316.185-.227.77-3.755.86-4.328a24.73 24.73 0 0 0 1.414-.489c0-.06-.06-.173-.167-.292l.035-.012-.119-.084c-.961-1.027-4.465-3.336-4.465-3.336-.322-.03-1.933.59-1.933.59l-.585.24 4.804 3.145zm5.587-2.286c-.19.293-.06 4.417-.06 4.417.496.28 2.054-.537 2.054-.537.149-.257.06-3.545.03-4.262.56-.203 1.319-.56 1.319-.56 0-.072-.072-.168-.185-.293l.023-.012-.101-.06c-1.009-.96-4.715-3.086-4.715-3.086-.323-.006-1.797.717-1.797.717l-.549.262 4.99 2.883zm5.181-2.655c-.173.322.298 4.398.298 4.398.508.263 1.97-.609 1.97-.609.137-.274-.215-3.563-.28-4.237.513-.245 1.175-.633 1.175-.633 0-.072-.077-.167-.197-.275l.024-.018-.083-.035c-1.015-.89-4.883-2.824-4.883-2.824-.328.006-1.683.806-1.683.806l-.513.31 5.097 2.58-.925.536m6.524.711v.006zm-1.54-3.785c-.096.358 1.349 4.226 1.349 4.226.525.15 1.7-.847 1.7-.847.073-.31-1.02-3.319-1.288-4.071a12.595 12.595 0 0 0 1.044-.806c-.101-.555-5.354-2.578-5.354-2.578-.346.06-1.396.985-1.396.985l-.412.358 5.192 2.017zm5.676.651c.537.143 1.707-.866 1.707-.866.03-.13-.125-.686-.346-1.348a57.356 57.356 0 0 0 -2.34-2.328l-.37.316c-.095.352 1.35 4.226 1.35 4.226m-5.701-6.972 3.647 1.403a93.76 93.76 0 0 0 -2.62-2.268c-.335.25-.621.507-.621.507zm2.775 99.929c-.555.161-1.832 4.781-1.832 4.781.06.185.43.567.746.871.466-.382.92-.793 1.367-1.187l.752-2.716.806.65c.071.012.4-.053.853-.173a69.527 69.527 0 0 0 2.615-2.692c-1.463.394-3.934 1.129-4.459 1.284a9.612 9.612 0 0 0 -.848-.818"/><path d="m297.153 293.87c-.256-.048-5.103 1.42-5.712 1.605-.453-.382-1.247-.835-1.247-.835-.502.209-1.797 5.037-1.797 5.037.155.37 1.516 1.164 1.516 1.164l.388.21 1.296-4.782 1.163.68c.269.03 5.784-1.635 5.784-1.635.066-.59-1.39-1.444-1.39-1.444m-5.683-3.498c-.262-.024-5.3 1.82-5.604 1.934-.496-.346-1.355-.758-1.355-.758-.484.233-1.29 5.11-1.29 5.11.18.357 1.666 1.068 1.666 1.068l.412.203.8-4.853 1.289.645c.268.017 5.616-1.964 5.616-1.964.054-.603-1.534-1.385-1.534-1.385m-4.954-2.19h.012l-.018-.012c-.394-.514-1.546-.991-1.546-.991-.262 0-5.145 2.083-5.443 2.202-.531-.34-1.475-.71-1.475-.71-.465.257-.87 5.175-.87 5.175.208.328 1.796.967 1.796.967l.441.185.394-4.883 1.373.585c.275 0 5.473-2.214 5.473-2.214a.486.486 0 0 0 -.137-.304m-6.482-2.692a.606.606 0 0 0 -.167-.28h-.006c-.483-.478-1.803-.83-1.803-.83-.256.023-4.733 2.626-4.942 2.751-.585-.269-1.689-.561-1.689-.561-.43.352.161 5.27.15 5.247.256.292 2.017.758 2.017.758l.477.143-.573-4.889 1.57.43c.263-.018 4.966-2.77 4.966-2.77m-8.189-2.589h-.006a1.043 1.043 0 0 0 -.239-.162c-.047.28-.095.543-.143.824.352-.233.585-.394.585-.394a.625.625 0 0 0 -.197-.269m-49.081 6.076c.209-.256.866-4.452.866-4.452-.46-.34-2.191.322-2.191.322-.185.233-.746 3.719-.842 4.315-.585.162-1.42.49-1.42.49-.006.072.245.394.245.394.96 1.026 4.464 3.348 4.464 3.348.31.012 1.922-.609 1.922-.609l.597-.232-4.781-3.146zm-5.593 2.269c.167-.299.048-4.405.048-4.405-.507-.293-2.035.525-2.035.525-.167.257-.09 3.581-.072 4.268-.555.196-1.29.549-1.29.549-.005.065.264.37.264.37 1.014.967 4.697 3.091 4.697 3.091.322 0 1.808-.71 1.808-.71l.556-.268-5.014-2.883zm-5.198 2.638c.16-.317-.293-4.393-.293-4.393-.501-.245-1.97.626-1.97.626-.155.269.215 3.558.287 4.232-.52.245-1.182.639-1.182.639.006.06.078.155.191.257l-.012.012.042.023c.973.878 4.912 2.86 4.912 2.86.329-.013 1.677-.818 1.677-.818l.526-.305-5.11-2.584.932-.55m-4.978 3.099c.095-.359-1.355-4.244-1.355-4.244-.531-.138-1.695.865-1.695.865-.078.305 1.026 3.337 1.295 4.07-.442.281-1.039.813-1.039.813.09.549 5.336 2.566 5.336 2.566.347-.071 1.42-1.003 1.42-1.003l.4-.34-5.21-2 .848-.728m-5.683-.65c-.537-.125-1.7.865-1.7.865-.042.162.214.98.513 1.85a79.44 79.44 0 0 0 2.029 1.982l.52-.453c.095-.364-1.362-4.244-1.362-4.244m5.724 6.971-4.178-1.6a95.422 95.422 0 0 0 2.997 2.567c.388-.28.776-.603.776-.603zm20.915-16.682c-.615.107-1.636.388-1.636.388-.011.065.03.173.126.31l-.024.012.078.06c.346.477 1.157 1.247 1.963 1.97-.179-.944-.346-1.85-.507-2.74"/></g><path d="m453.982 250.573c-.066-.012-.185-.024-.334-.042.113.03.197.048.244.065.048-.011.09-.017.09-.023" fill="#c1c9ca"/><path d="m375.589 261.227c-.168 1.97-.376 3.915-.633 5.867 0 .042-.012.102-.018.15a131.953 131.953 0 0 1 -.913 5.884 154.856 154.856 0 0 1 -1.152 5.647c-.012.03-.018.066-.036.101-5.676 24.8-18.652 46.82-36.547 63.71l-.023.024a129.955 129.955 0 0 1 -4.149 3.755c-.036.024-.071.06-.107.083a111.02 111.02 0 0 1 -4.304 3.54c-.024.024-.053.048-.077.071-20.867 16.414-46.974 26.43-75.373 27.057-1.618 7.252-2.692 11.776-2.83 11.752-.137.024-1.211-4.5-2.829-11.752-28.423-.615-54.566-10.63-75.439-27.068a.281.281 0 0 1 -.06-.06 105.884 105.884 0 0 1 -4.327-3.552c-.023-.023-.053-.047-.077-.071a113.557 113.557 0 0 1 -4.178-3.778h-.006c-17.912-16.904-30.894-38.958-36.57-63.782a.979.979 0 0 1 -.019-.066c-.43-1.88-.817-3.766-1.158-5.676-.011-.048-.017-.096-.03-.155a128.87 128.87 0 0 1 -.883-5.736l-.024-.126a135.55 135.55 0 0 1 -.62-5.879v-.012c-38.529-5.031-73.804-9.77-77.248-10.505.036 112.2 91.292 203.456 203.45 203.456 112.105 0 203.325-91.178 203.433-203.295-6.482 1.093-40.45 5.629-77.253 10.416m-252.364-21.404c.16-1.94.376-3.886.626-5.808.006-.065.018-.137.024-.209.25-1.886.55-3.766.883-5.628.018-.096.036-.185.048-.275.34-1.862.716-3.706 1.134-5.533.018-.077.042-.155.06-.232.424-1.857.89-3.69 1.397-5.51.012-.035.024-.065.035-.101 6.28-22.443 18.611-42.384 35.126-57.956.012-.012.024-.018.03-.024a116.178 116.178 0 0 1 4.143-3.73c.041-.043.083-.078.125-.114a127.043 127.043 0 0 1 4.268-3.516.649.649 0 0 1 .13-.101 122.657 122.657 0 0 1 4.466-3.355.26.26 0 0 1 .041-.036c20.055-14.366 44.443-23.027 70.801-23.612h.024c1.618-7.306 2.704-11.86 2.841-11.842.191-.06 1.314 4.507 2.967 11.848 28.351.657 54.41 10.66 75.236 27.056.03.024.06.054.09.078a127.128 127.128 0 0 1 4.29 3.534l.114.095a153.364 153.364 0 0 1 4.137 3.73c.006.012.03.03.035.036 16.486 15.573 28.8 35.496 35.073 57.92.012.03.03.067.035.102.502 1.82.98 3.653 1.397 5.504.018.077.036.149.06.232.418 1.833.794 3.665 1.128 5.533.012.084.036.173.048.263.34 1.868.626 3.742.883 5.634.006.072.012.132.024.203.257 1.922.465 3.856.633 5.808v.012c36.874 4.799 70.854 9.37 77.265 10.54-.125-112.11-91.34-203.27-203.432-203.27-112.135 0-203.367 91.208-203.45 203.36 3.467-.853 38.736-5.61 77.259-10.624 0 0 0-.006.006-.012" fill="#111b2b"/><path d="m329.379 367.56 3.014 5.246-7.622 4.43 5.885 10.224 7.64-4.453 3.038 5.276-7.628 4.44 8.123 14.051 7.634-4.464 3.05 5.294-14.474 8.38-23.152-40.008zm68.956-70.509-2.942 7.288-6.285-2.626c-.967-.394-1.588-.43-1.994 0-.101.12-1.641 4.243-1.73 4.446-.341.824.208 1.302 1.372 1.767l6.643 2.698c1.39.555 1.976.603 3.414-.525l5.42-6.148c2.805-2.238 5.503-3.205 8.29-2.071l8.93 3.587c7.09 2.871 8.141 4.22 5.431 11.191a755.81 755.81 0 0 1 -1.755 4.722c-2.978 7.395-4.72 7.926-11.96 5.001l-6.704-2.763 3.003-7.39 7.7 3.17c1.21.478 1.969.436 2.333-.466.09-.244 1.558-4.392 1.504-4.59-.12-.471-.633-.83-1.486-1.181l-9.085-3.647c-1.372-.561-3.282 3.324-4.798 4.5l-4.638 3.587c-2.686 2.101-5.038 1.845-8.052.621l-6.112-2.47c-7.288-2.95-8.105-4.549-5.127-11.95a668.28 668.28 0 0 0 1.749-4.722c2.895-6.864 4.727-7.03 11.65-4.231l5.23 2.202m-161.443 94.24-5.402 45.912-7.86-.925 5.407-45.906 7.855.92m-117.697-86.559-17.644 14.611.173.347 22.09-4.966 4.316 9.221-41.919 19.518-2.978-6.393 24.884-11.28-.591-1.284-26.854 7.05-1.73-3.76 22.299-16.886-.185-.418-24.657 11.8-3.002-6.405 41.918-19.523zm60.648 91.704c.573.322 4.912 2.363 5.294 2.399.8.113 1.272-.4 1.839-1.653l3.724-8.058c.74-1.636 1.074-2.346.22-3.008-.286-.221-4.583-2.275-5.168-2.52l-5.91 12.84zm13.919-15.728c6.775 3.11 6.93 5.515 3.88 12.122l-2.531 5.468c-1.749 3.79-3.026 5.772-6.596 5.736 2.161 2.25 1.869 4.512.281 7.962l-6.578 14.283-7.138-3.289 7.168-15.554c.394-.872.454-1.468.144-1.958-.269-.394-4.644-2.53-5.444-2.787l-8.028 17.416-7.186-3.318 19.356-41.984zm79.88 8.821 11.567 21.208.334-.06-4.608-22.604 6.697-1.343 9.025 45.363-6.87 1.355-11.746-21.804-.323.071 4.775 23.2-6.744 1.338-9.037-45.333 6.93-1.39m95.278-31.044c.49-.465 3.51-3.867 3.69-4.232.31-.71-.055-1.319-1.087-2.202l-6.721-5.808c-1.349-1.187-1.958-1.7-2.841-1.056-.293.209-3.325 3.575-3.707 4.053zm-12.206-16.694c4.883-5.64 8.052-5.957 13.567-1.212l4.56 3.963c3.158 2.716 4.692 4.5 3.695 7.915 2.764-1.433 4.835-.543 7.712 1.958l11.895 10.26-5.139 5.957-12.952-11.216c-.698-.602-1.283-.835-1.82-.674-.466.15-3.611 3.57-4.1 4.268l14.51 12.534-5.176 5.987-34.959-30.238zm-95.78-277.69-.036 6.16-6.207.024-.167 40.068-7.927-.042.18-40.056-6.423.03.036-6.142zm-163.412 105.164-3.211 7.15-6.369-2.9c-.985-.448-1.57-.49-1.987-.078-.126.119-1.767 3.993-1.857 4.166-.376.835.162 1.343 1.302 1.844l6.547 2.955c1.35.579 2.358-.394 3.82-1.475l5.67-5.909c2.884-2.13 5.152-1.73 7.903-.501l8.762 3.957c6.978 3.128 7.963 4.507 4.972 11.377-.107.262-1.73 4.208-1.856 4.47-3.27 7.264-5.038 7.724-12.152 4.525l-7.599-3.337 3.253-7.288 8.601 3.796c1.2.537 1.964.508 2.358-.382.09-.232 1.677-4.142 1.624-4.35-.102-.449-.58-.83-1.433-1.213l-8.93-4.022c-1.354-.61-2.93 1.945-4.488 3.067l-4.78 3.415c-2.788 2-5.522 2.686-8.5 1.354l-6.023-2.715c-7.168-3.211-7.896-4.87-4.637-12.123.12-.268 1.778-4.232 1.868-4.464 3.163-6.74 5.002-6.847 11.818-3.773zm30.5-60.309 4.19 4.358-6.506 6.141 8.178 8.494 6.5-6.154 4.225 4.4-6.505 6.147 11.227 11.693 6.536-6.16 4.22 4.405-12.225 11.621-32.046-33.317zm63.209-3.288 5.121-2.095-9.77-18.802-1.045.52zm-2.363-31.653 22.275 40.922-7.133 2.835-4.637-8.768-6.548 2.638 2.632 9.544-7.097 2.824-11.997-45.19zm138.862 6.841-2.25 5.724-5.605-2.298-14.736 37.292-7.354-2.912 14.707-37.275-5.813-2.28 2.25-5.73zm49.815 33.562-26.835 29.85 6.458 5.95-4.07 4.525-12.362-11.246 30.924-34.367zm44.437 62.564-5.395 2.686-4.07-7.831-10.548 5.27 4.065 7.831-5.45 2.716-4.064-7.837-14.51 7.252 4.053 7.831-5.432 2.734-7.61-14.922 41.363-20.658 7.599 14.928" fill="#fff"/><path d="m234.66 180.32c-5.956 1.26-11.656 3.224-16.974 5.856a71.724 71.724 0 0 0 -15.567 10.433l-31.592-36.26c20.096-17.596 46.09-28.602 74.591-29.617-2.925 13.382-6.882 32.094-10.457 49.589zm14.767-68.079c-.137-.018-1.223 4.536-2.84 11.842h-.025c-26.358.585-50.758 9.258-70.8 23.612a.26.26 0 0 0 -.042.036 122.657 122.657 0 0 0 -4.465 3.355.649.649 0 0 0 -.131.101 121.305 121.305 0 0 0 -4.268 3.516 2.152 2.152 0 0 0 -.125.113 116.178 116.178 0 0 0 -4.143 3.73c-.006.007-.018.013-.03.025-16.51 15.572-28.846 35.513-35.126 57.956-.011.036-.023.066-.035.101-.508 1.82-.973 3.653-1.397 5.51-.018.077-.042.155-.06.232a127.454 127.454 0 0 0 -1.134 5.533c-.012.09-.03.18-.048.275a125.463 125.463 0 0 0 -.883 5.628c-.006.072-.018.144-.024.21a125.09 125.09 0 0 0 -.626 5.807c-.006.006-.006.012-.006.012 2.274-.293 4.554-.591 6.852-.89 3.02-31.234 18.079-58.983 40.444-78.578-.191.687 14.432 36.636 19.762 49.529a71.541 71.541 0 0 0 -10.367 22.669c.943-.12 1.892-.233 2.817-.352a69.09 69.09 0 0 1 15.554-28.22 70.7 70.7 0 0 1 5.831-5.676c.317-.281.64-.562.956-.836 8.272-6.93 18.175-11.968 29.044-14.445-4.167 20.48-7.682 38.737-8.19 43.972.138-.012.293-.024.406-.03 5.892 5.444 21.303 21.315 23.111 23.57zm-69.535 156.238a71.512 71.512 0 0 0 10.266 22.556 72.662 72.662 0 0 0 12.391 13.83l-31.724 34.97-.638.698c-22.228-19.619-37.168-47.314-40.128-78.477 17.136 2.239 34.565 4.489 49.833 6.423zm-56.685-7.312c.16 1.97.376 3.933.62 5.88l.024.125c.25 1.928.55 3.838.884 5.736.012.06.018.107.03.155.34 1.91.728 3.796 1.157 5.676a.979.979 0 0 0 .018.066c5.67 24.824 18.665 46.878 36.57 63.782h.007a113.557 113.557 0 0 0 4.178 3.778c.024.024.054.048.077.071 1.42 1.212 2.853 2.412 4.328 3.552a.281.281 0 0 0 .06.06c20.866 16.425 47.015 26.453 75.438 27.068-.447-2.018-.93-4.244-1.462-6.655-28.674-1.003-54.805-12.147-74.95-29.928.024.024.18-.035.472-.16.185-.096.448-.222.746-.365 6.231-3.074 34.989-18.95 45.935-25.26a72.758 72.758 0 0 0 17.316 6.029c-.18-.925-.37-1.82-.55-2.728a68.923 68.923 0 0 1 -28.25-13.782 95.422 95.422 0 0 1 -2.996-2.566 36.764 36.764 0 0 0 -.704-.675 69.273 69.273 0 0 1 -19.44-32.195c21.977 2.793 38.952 4.87 43.208 5.246.137.006.292.03.405.03 5.892-5.42 21.303-21.296 23.111-23.558l-203.778.024c0 .006.113.041.298.077 3.444.734 38.72 5.474 77.248 10.505z" fill="#005d53"/><path d="m249.445 250.596h-.035a.182.182 0 0 1 .035-.041.16.16 0 0 1 .042-.048c2.06-2.525 17.16-18.151 22.962-23.54.143.005.328.023.513.035-.513-5.24-3.981-23.48-8.111-43.942-.173-.901-.364-1.808-.55-2.721-3.539-17.489-7.496-36.213-10.433-49.6-.525-2.406-1.02-4.626-1.474-6.65-1.653-7.341-2.776-11.907-2.967-11.848l.012 138.308c-1.808 2.262-17.22 18.139-23.11 23.558-.114 0-.27-.024-.406-.03.5 5.223 4.016 23.475 8.183 43.972.179.907.37 1.803.549 2.728 3.587 17.53 7.556 36.302 10.48 49.684.532 2.41 1.016 4.637 1.463 6.655 1.618 7.252 2.692 11.776 2.83 11.752z" fill="#c1c9ca"/><path d="m249.44 250.549c-1.81-2.256-17.22-18.127-23.112-23.57-.113.005-.268.017-.405.029-4.25.376-21.225 2.441-43.196 5.205-.925.12-1.874.233-2.817.352a14621.17 14621.17 0 0 0 -49.84 6.38c-2.297.299-4.577.597-6.851.89-38.523 5.014-73.792 9.77-77.26 10.624-.19.048-.31.09-.298.114l203.778-.024m.048.047c1.97 2.412 17.22 18.116 23.07 23.511.107 0 .25-.012.387-.024 4.184-.37 21.177-2.447 43.226-5.228.93-.12 1.874-.239 2.817-.352a16513.81 16513.81 0 0 0 49.767-6.387c2.286-.304 4.566-.597 6.835-.89 36.803-4.786 70.77-9.322 77.253-10.415.418-.077.728-.137.907-.179z" fill="#c1c9ca"/><path d="m318.975 232.559a71.562 71.562 0 0 0 -10.41-22.717 72.465 72.465 0 0 0 -12.343-13.71l31.742-35.287.388-.424c22.335 19.583 37.364 47.314 40.39 78.513a13295.306 13295.306 0 0 0 -49.767-6.375zm56.602 7.258a124.223 124.223 0 0 0 -.633-5.808 2.35 2.35 0 0 1 -.024-.203 125.723 125.723 0 0 0 -.883-5.634c-.012-.09-.036-.18-.048-.263-.334-1.868-.71-3.7-1.128-5.533a4.476 4.476 0 0 1 -.06-.232c-.418-1.85-.895-3.683-1.397-5.504-.006-.035-.023-.071-.035-.101-6.274-22.425-18.587-42.348-35.073-57.92-.006-.007-.03-.025-.035-.037a153.364 153.364 0 0 0 -4.137-3.73l-.113-.095a127.128 127.128 0 0 0 -4.292-3.534c-.03-.024-.06-.054-.09-.078-20.818-16.39-46.89-26.4-75.235-27.056.453 2.024.949 4.244 1.474 6.65 28.471 1.05 54.417 12.086 74.484 29.682-.036-.006-35.67 19.237-46.98 25.838a71.99 71.99 0 0 0 -17.07-5.92c.185.913.376 1.82.549 2.721 10.606 2.424 20.293 7.3 28.447 13.979a93.76 93.76 0 0 1 2.62 2.268c.364.334.71.675 1.074 1.027a57.356 57.356 0 0 1 2.34 2.328 69.32 69.32 0 0 1 16.826 29.539c-21.858-2.752-38.761-4.799-43.196-5.199-.185-.012-.37-.03-.513-.036-5.802 5.39-20.903 21.016-22.962 23.54a.16.16 0 0 0 -.042.049c-.012.012-.03.03-.035.041h.035l-.018 138.272c.138.024 1.212-4.5 2.83-11.752 28.399-.627 54.512-10.643 75.373-27.057.024-.023.053-.047.077-.071a111.02 111.02 0 0 0 4.304-3.54c.036-.024.071-.06.107-.083a129.955 129.955 0 0 0 4.149-3.755l.023-.023c17.895-16.892 30.87-38.91 36.547-63.71.018-.036.024-.072.036-.102.418-1.868.8-3.743 1.152-5.647a129.161 129.161 0 0 0 .913-5.885c.006-.047.018-.107.018-.149.257-1.952.465-3.898.633-5.867-2.269.292-4.549.585-6.835.89-5.676 59.358-54.769 106.2-115.035 108.344 2.93-13.382 6.894-32.154 10.481-49.684a71.86 71.86 0 0 0 17.602-6.166 72.292 72.292 0 0 0 15.435-10.529l30.554 37.162c.43-.162-13.567-37.896-18.742-50.675a71.335 71.335 0 0 0 9.938-22.066c-.943.113-1.886.232-2.817.352a69.107 69.107 0 0 1 -15.817 28.512c-.842.92-1.725 1.82-2.615 2.692a60.795 60.795 0 0 1 -2.411 2.239c-.448.394-.901.805-1.367 1.187-8.302 7.008-18.27 12.093-29.217 14.576 4.178-20.52 7.694-38.809 8.201-43.978a4.98 4.98 0 0 1 -.388.024c-5.85-5.395-21.1-21.1-23.069-23.51l204.262.035h.22c0-.006-.04-.018-.077-.036-.047-.017-.131-.035-.244-.065a28.256 28.256 0 0 0 -.806-.161c-6.41-1.17-40.39-5.742-77.265-10.541z" fill="#005d53"/><path d="m156.017 356.577-28.614 36.768-5.438-5.408 6.178-7.765-4.924-4.966-7.712 6.201-5.414-5.384 36.666-29.02zm-27.952 14.779 3.856 3.897 13.352-16.473-.794-.794z" fill="#fff"/></g></svg>