<svg height="499" viewBox="0 0 475 499" width="475" xmlns="http://www.w3.org/2000/svg" xmlns:xlink="http://www.w3.org/1999/xlink"><mask id="a" fill="#fff"><path d="m.02748914.90045445h416.79445586v202.28742355h-416.79445586z" fill="#fff" fill-rule="evenodd"/></mask><mask id="b" fill="#fff"><path d="m0 4.32340665h57.355526v130.51726035h-57.355526z" fill="#fff" fill-rule="evenodd"/></mask><g fill="none" fill-rule="evenodd" transform="translate(0 -1)"><path d="m186.533143 243.567439c-.71629.788191-1.41915 1.585339-2.108579 2.386965-1.374382 1.598774-2.690565 3.219939-3.930642 4.850061-2.632366 3.197548-6.567485 9.556816-8.779031 13.93665 0 0-.711813 1.406204-.810303 1.612209-3.169584 6.574229-5.573633 13.403725-7.234531 20.416833-.492449 5.12772-.358145 10.040478.201457 14.680057 1.271415-11.86317 4.799144-23.023238 10.037015-33.032367.255179-.488141.528264-.967326.792396-1.450988 1.996659-3.622992 4.25745-7.062371 6.728651-10.30918 1.92503-2.525794 3.997794-4.903802 6.142188-7.210156.008953-.004478.01343-.008957.017907-.017914.214887-.976282.447681-1.952564.693906-2.928846.577509-2.319789 1.235601-4.617186 2.001136-6.811582l-.004477.004479c-1.275892 1.262896-2.533877 2.543707-3.747093 3.873779" fill="#fefefe"/><path d="m289.802663 102.886097-.358145-.008956c-1.53107-.049262-3.093478-.076132-4.655886-.076132-8.622342 0-15.758383.712059-19.241344 1.133024l-.966991.116437-.881933-.403052c-11.433781-5.4143344-23.355535-7.2280693-23.355535-7.2280693l-.711813-1.4733797c-10.771213-22.3425273-29.730517-55.6212043-58.888003-87.35036958-3.183014-3.20650421-5.031938-4.96649884-7.033073-6.69514497-1.016237 3.07215348-2.019043 6.56975095-2.453294 8.16852469-2.265268 7.62216506-3.872444 17.58651126-3.55459 34.51470386.129828 7.2818098-.922224 26.6238373-9.490844 41.9532562-5.130428 9.1851119-13.246891 16.7669718-26.193835 25.5400748l-.116397.076132c-.993853.613535-4.969263 3.103502-5.967592 3.690167-6.124281 3.609556-14.460108 8.607404-21.041023 13.52464-20.4276994 15.266722-34.7311181 33.059238-44.1503333 51.78773-19.8278063 5.293419-40.4256245 12.740929-60.71454256 23.032195 0 0 .03133769-.004479.07610583-.008957 51.44753893-16.74458 105.36627903-18.755363 145.47404903-17.004325 10.936855-6.336876 22.415405-11.576555 33.723835-15.736949-15.865826-2.239179-42.520773-3.148286-74.122598.962847-4.239542.555316-8.564144 1.191243-12.9648515 1.934651-7.8702379 1.325593-15.6822772 2.88854-23.9464746 4.899323-.0223841.004478-.1522117.040305-.2954697.076132 4.6872236-8.526793 10.4041142-16.71771 17.1820096-24.447355 9.4192153-10.792843 20.9335792-20.654187 34.8609452-29.328766l.013431-.004478c1.132634-.743408 6.263062-4.093219 11.469596-7.147459 4.942401-2.969152 13.179738-7.420639 23.136171-18.0253906 1.62956-1.7376028 3.1472-3.6140347 4.490244-5.5845122 5.161765-7.5863382 6.016837-10.1658723 6.755511-11.5228147 6.433181-14.9263667 7.247961-29.0958908 7.203193-41.8278622 0-.7031021-.004477-1.4062043-.004477-2.1093065-.004477-2.1048282-.004477-4.1872646.040291-6.2741793.147735-6.9504114.796873-13.9142578 3.424762-21.6797303 1.683282 1.8316484 3.330749 3.6677751 4.946879 5.5083801 6.464519 7.371377 12.391819 14.8099294 17.79981 22.1454795 4.055993 5.4994234 7.82547 10.9406282 11.30843 16.2430039.662569 1.0121089 1.316184 2.015261 1.956368 3.0139348.581986.9046283 1.12368 1.7823864 1.687759 2.678058.84164 1.3255939 1.611652 2.5481856 2.045903 3.2512878 9.029733 14.6263167 15.780767 27.783732 20.432176 37.6809027 2.462248.447836 4.696177.918063 6.773419 1.392769 11.509887 2.64671 17.298407 5.535251 20.253103 7.013109h.004477s11.796403-1.85404 26.417676-1.316637l4.17239-.752365 14.218359-2.56162 85.032593-15.3518109 18.73994-4.7963212 4.490244-4.3843124z" fill="#00a0dd" mask="url(#a)" transform="translate(57.74713 .559795)"/><path d="m110.698163 222.852795c.541695-3.403552 1.19531-6.798147 1.996659-10.165872 1.181879-5.006804 2.672658-9.959868 4.440999-14.845757-.017907 0-.035814.004479-.053722.004479-2.001135.076132-3.96198.161221-5.882532.259745-15.1316295 44.335742-5.9855 91.067406 12.454494 120.440955-20.396361-36.100042-16.112051-77.954775-12.955898-95.69355" fill="#00a0dd"/><path d="m451.598546 89.8513891s-85.645916 31.3619399-104.484347 38.4870069c-18.842907 7.129546-18.390749 24.859365-18.390749 24.859365l1.428103-.089567 35.371303-2.145134c5.215487-.32692 9.786314-.32692 13.788585-.116437.067152 0 .147735 0 .214887.004478.904316.049262 1.72805.125394 2.569691.19257.42082.035826.877455.058218 1.284845.098523 3.429239.331399 6.316784.828497 8.779031 1.388291.161165.035827.349191.071654.510357.111959 7.677735 1.818214 10.686153 4.263397 10.686153 4.263397l-66.43591 7.111632-20.987301 20.407877-.09849.094045c-.02686 0-.058198.004479-.085059 0-45.990304-.32692-134.340215 28.643577-150.188134 91.640637-.765535 2.915411-1.30723 5.786038-1.660898 8.593968-.017907.107481-.129827.837453-.246225 2.07348.004477-.017913.008954-.035827.013431-.058219 1.665374-7.013108 4.069423-13.842604 7.23453-20.416833.049245-.098524.246225-.488141.429774-.855366.062676-.120916.120874-.241832.18355-.358269l.09849-.201526-.09849.201526c-.058199.111959-.111921.223918-.170119.335877.192503-.38066.371575-.734451.371575-.734451 2.207069-4.379834 6.142188-10.739102 8.779031-13.936649 1.240078-1.630123 2.551784-3.251288 3.926166-4.850062.689429-.801626 1.392289-1.598774 2.113055-2.386965 1.20874-1.330072 2.471201-2.610882 3.747093-3.873779v-.004478c14.867497-14.671101 33.714882-24.635447 46.702117-30.658838 13.882598-6.4354 28.915737-11.545207 43.313169-14.912932 12.441064-2.915411 24.407586-4.532098 34.731118-4.532098h.022384l2.833823.022392 22.598954-22.105174 73.836082-7.944607c-6.916677-5.18146-20.011356-12.284136-40.161492-12.68271-2.672658-.049262-5.497527.080611-8.926766.295572l-30.12 1.836127 1.638513-4.836627c1.898169-5.606904 6.437658-10.246482 12.154549-12.409529 17.884869-6.762321 109.117848-40.3320909 118.004322-43.6012922l3.169584-3.0900669-18.73994 4.7963213z" fill="#42738d"/><path d="m243.439708 407.324863c-.577509-3.90065-1.159494-7.259418-1.72805-10.206178-.837164.107481-1.763864.335877-2.75324.662797.004477.044784.01343.094046.022384.13883l.264132 1.701776c.474542 3.036326 1.53107 9.803125 2.887545 18.956888l1.974274-6.623491c-.22384-1.60773-.447681-3.161721-.667045-4.630622" fill="#00a0dd"/><path d="m171.614163 264.938163-.09849.201526c-.062676.116437-.120874.237353-.179073.358268-.044768.080611-.085059.1657-.125351.250788.040292-.094045.089537-.183612.134305-.273179.058198-.111959.11192-.223918.170119-.335877z" fill="#fff100"/><path d="m267.319031 447.360934c.094013 2.713885.268608 5.338203.528264 7.832648.143258 1.410683.313376 2.790017.501403 4.124568.282039 2.015261.608846 3.927519.962514 5.759168 1.656421 8.513358 3.939596 14.962193 5.488574 18.737449.899839 2.297398 2.462247 5.199373 2.462247 5.199373l.026861.044784c3.630695 3.640905 7.632967 6.883236 11.854602 10.000173.067152.017913.147734.040305.205933.058219l-6.979352-12.584186-1.916076-3.596121c-.317854-.622492-7.301683-14.603925-8.389548-35.849255-1.454965.174656-2.883068.291094-4.261927.291094-.161165 0-.32233-.013435-.483495-.017914" fill="#42738d"/><path d="m346.587726 298.252219h.004477c.008953 0-.778966.313485-1.40572.559794l-.085059.035827-.675999.268702c-.004477 0-.053722.017913-.134304.05374-.156689.067175-.461112.197048-.890886.389617-.214887.094046-.461112.210483-.734198.340355-3.133769 1.477859-10.117598 5.12772-18.363888 11.679558-1.096819.873279-2.224976 1.813735-3.362087 2.794495-6.267538 5.615861-14.352663 14.657665-15.042092 15.401073-13.466255 14.518836-29.542492 35.034193-29.734995 35.298416-1.13711 1.571904-1.575838 2.615361-1.866831 4.012609-.049245.232874-.152212 1.003152-.170119 1.312158-.040291.729973-.11192 1.903303-.237271 3.242332h4.526058c.179073-1.607731.290993-3.197548.371576-4.639579l.01343-.188091c.170119-.935977.40739-1.312159 1.365428-2.543707 2.301082-2.978108 7.843377-9.92852 12.633568-15.81756 7.883668-8.871627 14.580981-16.601273 20.830612-23.542727 15.395761-17.102849 31.874911-24.868322 32.027123-24.931019l11.545701-4.98889 1.795203-.6001c-.004477 0-.013431-.004478-.017908-.004478-3.657556.349311-8.505945.819539-12.270945 1.836126-.004477 0-.067152.017914-.120874.031349" fill="#42738d"/><path d="m327.830326 134.348353c-21.206665 7.048935-24.541891 20.403398-24.541891 20.403398l16.058329-.980761c1.81311-15.584685 8.483562-19.422637 8.483562-19.422637" fill="#42738d"/><path d="m242.895328 40.9521999c.017907 1.0345007.01343 2.0869148.044768 2.4854886 2.081718 29.8034714-8.447747 51.6265091-17.634168 64.0136465 13.976611-5.965172 31.597349-10.8734524 51.79673-11.0033248-6.477948-12.6603176-18.184815-33.7712964-34.20733-55.4958103" fill="#00a0dd"/><path d="m186.288261 295.177826c8.362688 44.913451 40.479347 59.781599 43.026653 60.780273 11.286047 4.778407 19.42937 1.191243 21.461844-.282137 3.012895-1.88091 6.249631-4.433574 9.280434-7.111632.501403-.447836 18.211676-16.099697 18.211676-16.099697 1.495256-1.298723 11.272616-9.798647 13.757248-11.952737.823733-.716537 1.683281-1.459944 2.560737-2.225743 2.019043-1.74656 3.979887-3.358769 5.882533-4.845584 3.800814-2.973629 7.377788-5.436726 10.713014-7.478857.555125-.340355 1.11025-.667276 1.651944-.985239 9.231189-5.391943 16.541825-7.478858 21.77522-8.128219 7.749364-1.025544 11.966522 1.397247 11.979953 1.406204.049245-.013435.116397-.031349.120874-.031349 3.760523-1.021065 8.608912-1.491293 12.266468-1.840605-.205933-.076132-.434251-.161221-.658091-.246309-2.283175-.841932-5.197581-1.889867-5.340839-1.939129-5.246825-1.791343-10.404114-2.776582-14.518305-2.776582-14.281035 0-30.393086 7.68934-47.883996 22.862017-6.930107 6.009956-28.763526 26.368571-28.982889 26.574575l-.980423.909107c-4.279833 3.994695-12.239607 11.428769-19.733793 11.473552-4.951355 0-13.170785-2.176481-19.536813-6.954889-18.054988-13.564946-28.432242-32.692012-33.110512-62.025256-1.155017-6.632448-2.596551-14.545707-2.520446-23.34568-.170118 1.509207-.331284 3.103502-.456634 4.787365-.734198 8.078957-.868502 18.392615 1.034143 29.476551" fill="#00a0dd"/><g fill="#ee3742"><path d="m395.273071 268.620268.049245-.058218.026861-.076132c.573032-1.755517.644661-2.969152.71629-4.142481.026861-.416488.456635-4.55449.456635-4.55449l-1.12368 3.103502c-.949085 2.624317-2.104102 4.075305-3.536683 4.438052-.259655.071654-.483496.103003-.693906.103003l-.461112.004478.076106.452314c.031338.237353.823734 5.759168-5.014031 9.476205l-.170119.107481-.01343.197048c-.058199.904628-.165642 1.889867-.331284 3.099023l-.111921.828496.711814-.438879c1.043097-.640405 2.019043-1.343507 2.892021-2.077958 3.232259-2.718363 4.960309-5.8353 5.018508-9.019412.282039-.210483.868502-.689667 1.508686-1.442032"/><path d="m391.076059 284.543965.107443-.076132.040291-.125394c.792396-2.489967 1.446011-4.859018 2.086195-7.263896l1.043098-3.752864-1.575838 3.367725c-1.132634 2.239179-3.559067 6.13535-6.191433 7.071327l-.264132.094046v.282136c0 .080611-.026861 1.988391-1.853401 3.470728-.241748.197047-.461112.349311-.684952.483662l-.134305.080611-.040291.152264c-.362622 1.262897-.783442 2.579534-1.289322 4.017087l-.353669 1.012109.926701-.537403c2.224976-1.289767 5.967592-3.90065 6.343644-7.084762.317854-.183613 1.002806-.6001 1.839971-1.191244"/><path d="m386.031138 298.429562.058198-.134351c.868502-2.064523 2.081718-5.651688 2.999465-8.258092-1.016237 1.804778-3.415808 4.47388-8.165707 6.314485l-.156689.058218-.062675.156743c-.631231 1.518163-1.249031 2.906454-1.889216 4.236526l-.42082.882237.917747-.340355c.380529-.138829 3.827675-1.428596 6.594346-2.848236z"/><path d="m359.981008 331.824676.107444-.013435.085059-.067175c2.368235-1.840605 4.624549-3.743908 6.706267-5.660645l.931177-.859844-1.253508.174656c-1.392289.192569-2.721902.295571-3.953026.304528h-.165642l-.116397.120916c-1.844447 1.90778-3.841106 3.797647-5.936255 5.61586l-.881932.7658 1.168448-.071654c1.020714-.062697 2.13544-.165699 3.308365-.309007"/><path d="m371.335102 321.700453.080583-.080611c2.02352-2.145133 3.899304-4.357442 5.560202-6.578708l.805827-1.074805-1.257985.465749c-2.090672.774756-4.132099 1.361421-6.070559 1.746559l-.156688.031349-.089537.129872c-1.34752 1.930172-2.86516 3.878258-4.508151 5.790517l-.680475.788191 1.029667-.138829c1.616129-.21944 3.35761-.568752 5.179673-1.047936z"/><path d="m354.339328 334.883842c-.675999 0-1.316183-.017913-1.893692-.058218l-.152211-.013435-.116398.094045-.152211.116437-.134305.107481c-5.860148 4.541055-15.740475 10.627143-23.297336 14.527793 2.538353-1.030022 15.279364-6.332398 26.346046-14.053087l1.052051-.734451-1.280368.013435z"/><path d="m380.553309 309.754433.058198-.098524c1.30723-2.18096 2.44434-4.402226 3.379994-6.614534l.470066-1.101676-1.034144.609056-.004477.004479-7.865761 4.536576-.250701.147786s-.111921.30005-.232795.591143c-.290993.707581-.958038 2.198874-2.157824 4.272354l-.50588.873279.962515-.30005c2.318989-.712059 4.696177-1.679384 7.077842-2.870627z"/><path d="m200.348141 262.281153c-.367098-7.066849-1.311706-11.34368-1.32066-11.383986l-.107443-.4344-.416344.156742-4.526058 1.701776-.326807.125394.080582.335877c.004477.035827.846118 4.751538 1.052051 11.066022l.026861.729973.004477.129872.080583.10748.438727.541882c.044769.058218 4.611118 5.768125 6.921154 13.811255l.120874.416488 5.381129-2.077958-.098489-.344834c-2.162301-7.523641-6.052652-13.179807-7.310637-14.881583"/><path d="m208.624426 262.182629c.044768.040305 4.731992 4.088741 6.956968 11.657166l.120874.416487 5.300547-2.145134-.102967-.340355c-2.077241-7.053413-5.936254-11.522815-7.619536-13.220112-.102967-4.232048-1.150541-9.243331-2.019043-12.723015l-.11192-.447836-.425297.179135c-1.526594.644883-3.044233 1.28081-4.55292 1.90778l-.317853.134351.080582.32692c.868502 3.511033 1.880262 8.477531 1.799679 12.221439l-.022384 1.074806-.004477.188091.147735.120915z"/><path d="m228.619218 268.694609.120874.429923 5.21101-2.172004-.09849-.335877c-2.059334-7.169851-6.115327-11.56312-7.910529-13.229069.277563-6.601099-1.933983-12.19009-2.381664-13.251461l-.156689-.367225-.367099.161221-4.776759 2.176482.152211.340355c.026861.058219 2.54283 5.75469 1.92503 12.105001l-.120874 1.325594-.022384.21944.179072.129872 1.01176.761321c.049245.040305 5.094614 3.936476 7.234531 11.706427"/><path d="m242.233207 263.206382.120874.425444s3.362087-1.397248 4.843912-2.010783l.331284-.138829-.107443-.344834c-2.090672-6.753363-5.945208-10.806277-8.170185-12.687187.675999-7.375856-2.318989-13.748559-2.448817-14.021739l-.170119-.35379-.358145.170178-4.311171 2.055566-.358145.170177.170119.353791c.026861.062697 2.820392 6.126393 1.768341 12.396094l-.264132 1.562947-.044768.259745.219364.138829 1.338567.850888c.049245.035827 5.202057 3.4349 7.440464 11.173503"/><path d="m255.104045 257.792047.089537.385139 5.255778-1.961521-.080582-.335877c-1.741481-6.928019-5.546772-10.967498-7.789655-12.834973 1.428103-7.563947-1.526594-14.402399-1.656421-14.689014l-.156689-.362747-.362622.156743-4.373846 1.930172-.358145.156742.156688.362747c.026861.062697 2.766671 6.511533.944608 12.821539l-.523787 1.791343-.08506.295572.268609.156742 1.611653.935977c.053721.031348 5.264732 3.184112 7.059934 11.191416"/><path d="m267.920267 252.729711.067152.389617 5.313977-1.894345-.067152-.331398c-1.437057-6.92802-5.121474-10.877932-7.324067-12.696145 2.184685-7.778907-.743151-15.056239-.868501-15.365246l-.152212-.362747-.362622.147786-4.423092 1.818214-.367098.152264.152211.362747c.026861.071653 2.735333 6.851887.134305 13.264896l-.828211 1.992869-.138781.331398.317854.170178 1.911599 1.012109c.205934.111959 5.246825 2.969151 6.634638 11.007803"/><path d="m280.744994 247.829492.049245.394096.393959-.049262s3.379994-1.030023 4.687224-1.477858l.317854-.107481-.053722-.331398c-1.114727-7.039979-4.705131-10.958542-6.89877-12.754363 2.941267-7.980434.035815-15.71008-.089536-16.037l-.143258-.367225-.367099.138829-4.463382 1.715211-.367099.143307.138781.371704c.031338.071654 2.699519 7.259418-.662568 13.748559l-1.132634 2.194395-.188026.362747.367098.174656 2.229454 1.065849c.044768.022392 5.166242 2.633274 6.182479 10.815234"/><path d="m293.574198 243.64178.040291.492619.470065-.147786c1.557931-.492619 3.106909-.967325 4.65141-1.428596l.317853-.094045-.040291-.331399c-.846118-7.053413-4.311171-10.98989-6.464519-12.799146 3.568021-7.846083 1.052052-15.759342.747628-16.646057l-.120874-.358268-4.920018 1.625644-.371575.129872.129828.371704c.02686.076132 2.636843 7.747559-1.454965 14.277005l-1.459441 2.283962-.241748.38066.40739.188092 2.453294 1.141981c.205933.103002 5.202057 2.651188 5.855672 10.913758"/><path d="m306.322819 239.948478.044768.465749.447682-.120915c1.575838-.412009 3.142723-.806105 4.669316-1.168852l.344714-.08061-.044768-.35379c-.832687-6.677232-4.064946-10.873453-6.066082-12.893193 3.859013-6.945933 2.618936-14.075478 1.902646-16.843103l-.09849-.371704-.371575.085089c-1.495256.335876-3.062141.70758-4.660363 1.110632l-.389483.098524.102967.389617c.514833 1.912259 1.866831 8.616361-2.377188 14.420313l-1.486302 2.033174-.246225.340355.349192.228397 2.108579 1.374855c.049245.035827 5.014031 3.412509 5.770612 11.285462"/><path d="m318.92281 237.350583s3.787384-.523968 5.260256-.756843l.335761-.049262v-.340355c.008954-6.905628-2.695042-10.967498-5.076706-13.19772 4.364893-6.941455 3.299411-14.48301 2.860683-16.646056l-.076106-.362747-.362621.044783c-1.51764.192569-3.120339.425444-4.758853.689667l-.416344.067176.094013.412009c.19698.855366 1.777295 8.553663-3.339702 14.577054l-2.027997 2.386965-.335761.394095.470066.21944 2.838299 1.325594c.044768.02687 4.87525 2.458618 4.548443 10.842104z"/><path d="m332.521578 235.806893.474543-.035827c1.611652-.120916 3.227782-.201526 4.80362-.241831l.358145-.008957.026861-.35379c.546172-6.896671-2.054857-11.45564-3.796337-13.69034 4.329078-5.584513 4.096284-12.212482 3.563543-15.696644l-.049245-.326921-.331284-.008956c-.787919-.022392-1.589269-.035827-2.386142-.035827-.823733 0-1.647467.013435-2.480154.035827l-.470066.008956.089537.461271c.402913 2.001826 1.329613 8.889541-3.63965 13.573903l-2.059334 1.912259-.344714.317963.371575.282137 2.23393 1.710732c.179073.147786 4.557396 3.739429 3.688894 11.621339z"/><path d="m351.755312 207.412761-.040292-.268702-.264132-.058219c-1.665374-.367225-3.388947-.676232-5.125951-.918063l-.599893-.085089.161165.582187c.523787 1.867475 1.822063 8.280483-3.451623 12.351311l-1.95189 1.504728-.317854.250788.255178.313485 1.562408 1.907781c.040291.044783 3.97541 4.993368 3.120339 12.279657l-.049245.40753.411867.031349c1.593745.125394 3.183014.309006 4.718561.546359l.402913.062697.049245-.40753c.770012-6.520489-1.396766-11.625817-2.874114-14.227743 4.794667-5.123241 4.396231-11.6706 3.993318-14.272526"/><path d="m354.302171 237.062176.429774.107481c1.584792.394096 3.111385.859845 4.539489 1.383813l.376052.13435.134304-.376182c2.377188-6.650361 1.132634-12.418486.111921-15.387637 1.777294-2.234701 3.997794-5.790517 3.630695-11.15559l-.031338-.349311-.008953-.116438-.017907-.237353-.214887-.094045c-1.638514-.716538-3.348657-1.365899-5.08566-1.930172l-.613324-.197048.102967.635927c.152212.949411.255178 1.871953.313377 2.749711.192503 2.955716-1.092343 6.229396-3.124816 7.962521l-1.423627 1.222591-.237271.201526.138782.277658.837164 1.674906c.120874.241832 2.927836 5.996521.299946 13.076805z"/><path d="m363.347572 240.302716.349192.179135c1.419149.729972 2.784577 1.545033 4.064946 2.436226l.367099.255267.21041-.398574c3.227782-6.153264 2.85173-11.966172 2.287652-15.033848 2.054857-1.549511 3.442669-3.578207 4.123145-6.018912.246224-.877759.393959-1.831649.443204-2.830323l.008954-.197047-.147735-.125394c-1.62956-1.388291-3.379994-2.695972-5.193104-3.882737l-.84164-.550838.237271.976282c.483496 1.970478.523787 3.694646.120874 5.12772-.452159 1.621166-1.508686 2.852714-3.23226 3.766299l-1.786248.967325-.290993.156743.107444.317963.644661 1.921216c.080582.246309 1.978751 6.112958-1.293799 12.579707z"/><path d="m381.370775 224.923588-.340238-.394096-.541694-.631448-.147735.819539c-.071629.389617-.161165.743408-.277563 1.079284-.626753 1.831649-2.001135 3.202026-4.203727 4.182787l-1.701189.76132-.308901.138829.089537.322442.474542 1.8003c.01343.058219 1.459441 6.009956-3.017372 12.360268l-.19698.282136.255178.237353c1.043098.967326 2.063811 2.042131 3.030803 3.197548l.322331.38066.299946-.394095c4.66484-6.144307 4.928972-12.16322 4.637979-15.333898 3.594881-3.076631 3.747092-4.603751 3.845582-5.61586l.022384-.197048.017908-.152264-.089537-.125394c-.9267-1.280811-1.32066-1.733125-2.171254-2.718363"/><path d="m387.371048 233.342452-.304423-.492619-.608847-.998674-.120874 1.164373c-.362622 3.578208-.734197 5.136677-3.800815 6.453314l-2.368234.774756.143258.385139s.60437 1.28081.734198 1.952564c.12535.667275 1.593745 4.66197-3.800815 9.646382l-.241748.228397.179073.282136c.720767 1.106155 1.401242 2.279484 2.023519 3.479684l.228318.443358.380529-.32692c5.954162-5.091893 6.455565-10.367399 6.164572-13.215634 1.978751-1.213635 3.071094-3.242331 3.339703-6.184613l.008953-.116437-.049245-.098524c-.810303-1.598773-1.159494-2.15409-1.907122-3.376682"/><path d="m392.025143 242.37127-.425297-.931499-.622277-1.383812-.134305 1.509206c-.201456 2.364573-.850594 5.271027-2.775624 5.691993l-1.642991.362747-.326807.071654.013431.335877.085059 1.679384c0 .044783.120874 5.038152-5.040892 10.14348l-.188026.188091.09849.241832c.50588 1.262897.989376 2.628796 1.437057 4.06187l.179073.577708.456634-.398573c5.819858-5.033675 7.337498-10.376356 7.718027-13.242505 1.213216-.698623 2.54283-2.498923 2.54283-5.499423v-.067175l-.026861-.071654c-.644661-1.733125-.832688-2.149612-1.347521-3.269201"/><path d="m391.41943 257.254196-1.745957-.022392-.013431.309007-.067152 1.701776c-.094013.698624-.304423 4.8008-5.833288 8.705928l-.219363.152264.062675.259745c.313377 1.298723.568555 2.521315.796873 3.748385l.102967.564273.492449-.30005c6.119804-3.748385 8.076171-8.549185 8.698448-11.204851.568556-.282137 1.325137-1.00763 1.862355-2.113785.71629-1.477858 1.266938-4.052914-.214887-7.944607l-.573033-1.504728-.188026 1.598774c-.304423 2.588491-.890886 4.447009-1.692235 5.369551-.344715.394095-1.016237.676232-1.468395.68071"/></g><path d="m244.106306 411.954141 3.599358-12.055739c-.044769-.891193-.564079-1.661471-1.472872-2.176482-1.007283-.568751-2.54283-.859844-4.521581-.604578.568555 2.946759 1.150541 6.310006 1.728049 10.206177.219364 1.468902.443205 3.022892.667046 4.630622" fill="#000"/><path d="m225.307271 107.452231c9.186421-12.3871377 19.711409-34.2101754 17.629691-64.0136468-.026861-.3985739-.022384-1.450988-.040291-2.4854886 16.018038 21.7245138 27.729382 42.8354927 34.202854 55.4913319-20.194905.1343507-37.815643 5.0426305-51.792254 11.0078035m102.523502 26.897017s-6.670451 3.837953-8.483561 19.422638l-16.058329.980761s3.335226-13.354464 24.54189-20.403399m-162.271053 141.807201c15.852396-62.992581 104.202308-91.963078 150.188134-91.636158h.089536l.09849-.094045 20.982825-20.412355 66.435909-7.111633s-3.012895-2.440705-10.686153-4.263396c-.156688-.035827-.344715-.071654-.510357-.107481-2.45777-.559795-5.349792-1.056892-8.774554-1.388291-.40739-.040305-.864025-.062697-1.289322-.098524-.841641-.067175-1.665375-.143307-2.565214-.192569-.067152-.004479-.147735-.004479-.219364-.008957-4.002271-.206004-8.568621-.206004-13.788585.120916l-35.371302 2.145133-1.428104.089567s-.447681-17.734297 18.390749-24.859364c18.842908-7.125067 104.470917-38.4825289 104.484347-38.4870072l-85.287771 15.3607672-14.222836 2.561621-4.17239.752364c-14.616795-.532925-26.413199 1.321116-26.413199 1.321116-2.954696-1.477859-8.743216-4.370878-20.262057-7.013109-2.072764-.479184-4.306694-.944933-6.773418-1.397248-4.651409-9.8971703-11.402444-23.0501073-20.4277-37.6809023-.662568-1.0703276-1.360951-2.1630469-2.045903-3.2468095-.568556-.8956715-1.11025-1.777908-1.687759-2.6825363-.644661-.9986738-1.298276-2.001826-1.960844-3.0094565-3.482961-5.306854-7.247961-10.7435804-11.303954-16.2430038-5.412467-7.3355502-11.335291-14.7785809-17.79981-22.1454795-1.620606-1.8406051-3.268074-3.6767318-4.951355-5.5083802v-.0044783c-2.623413 7.7654725-3.272551 14.7337973-3.420286 21.6842086-.049245 2.0824364-.049245 4.1693512-.044768 6.2741793.004477.6986239.004477 1.401726.004477 2.1093066.049245 12.7274929-.765535 26.9014955-7.198716 41.8278622-.743151 1.352464-1.593745 3.9319981-6.755511 11.5183363-1.343044 1.9704775-2.860684 3.8513877-4.490244 5.5889906-9.956433 10.6047518-18.198246 15.0562388-23.140648 18.0253898-5.202057 3.049762-10.332485 6.399574-11.469596 7.142981l-.008954.008957c-.062675.040305-.12535.08061-.188026.120916-.017907.008956-.035814.02687-.035814.02687h-.004477c-13.708003 8.56262-25.199982 18.419486-34.632628 29.180979-6.777895 7.725168-12.499263 15.916084-17.186486 24.447356.147734-.040305.277562-.071654.295469-.076132 8.268674-2.015261 16.080714-3.578208 23.946475-4.903802 3.608311-4.859018 7.588198-9.498597 11.975475-13.882909 3.54116-3.399074 7.30616-6.614535 11.295001-9.62847 24.761254-18.701622 59.308823-28.773449 96.609631-29.937822.846118-.02687 1.701189-.035827 2.551784-.05374-43.836956 5.580034-83.304543 22.409702-109.462563 51.572769 31.601825-4.115611 58.256772-3.206505 74.122598-.962847-11.30843 4.160394-22.786979 9.400073-33.728311 15.736949-6.70179 3.882736-13.202123 8.173003-19.33088 12.866322-13.524453-1.289767-26.53855-1.916737-38.751297-2.10035-11.339768 21.840952-16.832818 48.402092-14.415338 79.929731-2.23393-8.737276-3.603835-17.711905-4.006748-26.794015-.828211-18.724014 2.381664-36.601618 9.535612-53.193934-6.719697.013435-13.13497.161221-19.21896.398574-1.768341 4.885888-3.254643 9.838952-4.440998 14.845756-.796873 3.367725-1.450488 6.757842-1.996659 10.165872-3.156154 17.734297-7.440464 59.593508 12.955898 95.69355 3.16063 5.588991 6.943537 11.030196 11.380059 16.234047 1.150541-.743407 2.318989-1.455466 3.518775-2.140655l.008954-.004478c4.239542-2.37353 9.110315-4.357442 13.712479-5.588991 4.526059-1.213635 5.546772-1.33455 5.587063-1.339029l1.360952-.156742c5.855671-1.406204 11.089066-1.768951 14.854066-1.768951 8.622343.013435 12.347051.492619 12.347051.492619-3.46953 2.839279-5.224441 4.191743-8.564144 7.25494-6.737604 5.839778-11.921753 14.039651-15.485297 24.98028 3.697848 2.221265 7.72698 4.424617 12.114257 6.547359-.313377-1.115111-.492449-2.288441-.492449-3.506554 0-4.348486 2.1623-8.18196 5.466189-10.510706.085059-.076132.165642-.156743.255178-.228396.658092-.935977 1.43258-1.8003 2.327943-2.552664 2.399572-2.006305 5.430375-3.107981 8.54176-3.107981 7.350927 0 13.33195 5.983086 13.33195 13.33655 0 5.253114-3.080048 9.973303-7.856807 12.13635-.223841.179134-.447682.349312-.684953.510532-.662568.595622-1.392289 1.124068-2.171254 1.571904 9.907188 3.340855 21.07236 6.072653 33.571623 7.752037.138781-.085088.273085-.183612.411867-.264223 1.902645-1.150938 3.850059-2.149611 5.784043-2.960194 9.0745-3.811083 18.126617-3.931998 25.486498-.340355.890886.4344 1.772818.935976 2.614459 1.491293 2.032473-1.74656 4.552919-2.740755 6.974875-2.745234h5.842241c.125351-1.339029.19698-2.512358.237272-3.242331.017907-.309006.120874-1.079284.165642-1.312159.290993-1.397247.734197-2.440705 1.871308-4.012608.188026-.264223 16.268739-20.779581 29.730517-35.298417.693906-.743407 8.779031-9.78969 15.04657-15.401072 1.208739-1.083763 2.35928-2.051088 3.362087-2.794496 8.24629-6.551837 15.230118-10.201699 18.359411-11.679557.277562-.129872.523787-.246309.738674-.340355.429774-.192569.729721-.322442.890886-.389617.080583-.035827.125351-.05374.134304-.05374 0 0 .344715-.138829.756582-.304529.631231-.246309 1.41915-.559794 1.410196-.559794h-.004477c-.01343-.004479-4.230588-2.431749-11.979952-1.401726-5.228918.649361-12.544031 2.736276-21.77522 8.123741-.541695.317963-1.092343.644883-1.647468.989717-3.339702 2.037653-6.912199 4.505228-10.717491 7.478857-1.902645 1.482337-3.86349 3.094546-5.878056 4.845584-.881932.765799-1.74148 1.504728-2.565214 2.225743-2.484631 2.15409-12.257515 10.649535-13.75277 11.952737 0 0-17.714751 15.651861-18.216154 16.095218-3.030802 2.678058-6.267538 5.235201-9.280434 7.111633-2.032473 1.477858-10.17132 5.060544-21.457366.282136-2.551784-.994195-34.668443-15.866822-43.03113-60.780272-1.902646-11.079458-1.768341-21.397594-1.034144-29.472073.129828-1.688341.286516-3.282636.456635-4.787365.568555-4.966499 1.316183-8.925367 1.862354-11.469074-2.144393 2.306354-4.217158 4.684362-6.142187 7.210156-2.475678 3.246809-4.731992 6.686188-6.728651 10.30918-.264132.483662-.537218.962847-.792396 1.450988-5.237871 10.009129-8.7656 21.169197-10.037015 33.032367-.747628-6.65484-.479019-11.89004-.219364-14.621838.116397-1.240505.232794-1.965999.246225-2.07348.353668-2.812409.895362-5.678558 1.660897-8.598447" fill="#000"/><path d="m277.26069 489.015484s-1.562408-2.901976-2.462247-5.199374c-1.548978-3.775255-3.832153-10.22409-5.484097-18.741927-.353668-1.82717-.680475-3.743907-.962515-5.75469-.188026-1.339029-.358145-2.713885-.50588-4.129046-.259655-2.489967-.429774-5.114284-.528264-7.828169-4.642455-.098524-8.805891-1.536077-12.181409-3.502076-2.430909-1.410683-4.548442-3.197548-6.30783-5.360594-.188026.116437-.376052.232874-.559601.344833 4.414138 23.542727 12.087396 47.582552 29.018704 50.215826z" fill="#000"/><g fill="#ee3742"><path d="m439.160615 443.917077c-6.142188-.040305-11.71582-1.648036-16.121005-4.644057-1.13711-.774756-2.207069-1.652514-3.183014-2.619839-7.503139 4.814234-15.919548 7.353463-24.376249 7.353463-8.4567 0-15.471866-3.16172-19.7517-8.907454-4.517105-6.059218-5.519911-14.380007-2.824869-23.435246l3.214352-10.30918c1.020713-3.045283.971468-5.378508-.129828-6.40853-1.213216-1.133024-3.899304-1.159895-6.53167-.076132-1.249031.51949-2.565214 1.347986-3.805292 2.395921-.094013.080611-.170119.170178-.264132.250788.246225-.111958.447682-.201526.577509-.255266 2.104102-.895671 4.091808-.868801 5.076706.05374.975946.913585 1.11025 2.94676.362622 5.441205l-2.717425 8.920889c-3.003942 10.076305-1.822063 19.400246 3.321795 26.26109 1.459441 1.943608 3.209875 4.026044 7.185286 6.292093 3.662033 2.086915 8.000065 3.148286 12.888745 3.148286 7.458371 0 15.77629-2.445184 24.734394-7.268375 5.009554 4.899323 12.078442 7.725167 19.496522 7.774429h15.968793l4.190297-3.967825z"/><path d="m323.882672 441.046002 12.369435-40.672446c.82821-2.67358.689429-4.850062-.376052-5.817387-1.083389-.994195-3.294935-1.012109-5.622878-.049262-1.217693.506055-2.448817 1.22707-3.648603 2.145134-.241748.183612-.465588.376182-.693906.568751 2.063811-.806104 3.984364-.815061 4.951356.094046.975945.913585 1.110249 2.951237.362622 5.441204l-12.821594 42.387657h26.023716l5.045369-4.124567z"/><path d="m285.154207 441.041523c-10.78912 3.757343-20.306825 3.605078-27.518971-.456792-2.045904-1.14646-3.881398-2.597448-5.452759-4.30818-.555125.40753-1.137111.815061-1.763865 1.240505-.537217.358268-1.061004.65384-1.589268.985239 1.754911 2.158568 3.872443 3.945433 6.303353 5.360594 3.375517 1.961521 7.54343 3.403552 12.185886 3.497597.161165.004479.32233.017914.487973.017914 1.374381 0 2.802485-.116438 4.257449-.286615 2.829346-.340355 5.784043-.967325 8.846183-1.948086h23.40478l5.439329-4.124567z"/><path d="m196.061593 368.626925c-.089537.040305-.165643.094046-.255179.129872-1.656421.707581-3.415808 1.06585-5.219964 1.06585-7.350928 0-13.33195-5.983086-13.33195-13.332072 0-2.790017.886409-5.454639 2.462247-7.680383-.089536.076132-.170119.156742-.255178.232874-3.303889 2.324268-5.470666 6.162221-5.470666 10.510706 0 1.218113.179072 2.386965.496926 3.502076 1.522117 5.391943 6.468995 9.350811 12.351528 9.350811 2.318989 0 4.485767-.622492 6.366029-1.697298.778965-.447835 1.504209-.976282 2.171254-1.571903.232794-.161221.461112-.331399.684953-.510533"/><path d="m444.937943 369.810107c-7.350928 0-13.33195-5.978607-13.33195-13.332071 0-2.834801.908793-5.544207 2.538353-7.796821-.138781.116437-.268609.241831-.402913.362747-3.303889 2.324268-5.470666 6.16222-5.470666 10.506227 0 7.098198 5.752705 12.857366 12.848454 12.857366 3.281504 0 6.267539-1.244984 8.54176-3.269201.201457-.143308.398436-.286615.590939-.443358-.035814.013435-.062675.035827-.094013.049262-1.660898.707581-3.415808 1.065849-5.219964 1.065849"/><path d="m415.497523 410.336111 8.689495-28.786884c.089536-.286615.192503-.582187.326807-.895672l.076106-.179134c.134304-.30005.228317-.497098.331284-.694146l.120874-.219439c.143258-.250788.246225-.425444.358145-.6001l.129828-.201526c.174595-.259745.299946-.425444.429774-.595622 1.016236-1.325594 2.310035-2.404878 3.720232-3.184112-3.348657.6001-5.663169 2.095871-7.274822 3.833474-2.372711 2.283962-3.209875 5.26207-3.760523 7.080284l-8.689495 28.786884c-.581986 1.903302-1.750434 3.802126-3.35761 5.580034.062675-.035827.134304-.062697.201457-.103002 4.248496-2.4004 7.579245-6.166699 8.698448-9.821039"/><path d="m293.307827 410.92188 8.980488-29.378027c.085059-.286615.192503-.57323.317854-.886715l.080582-.183613c.134305-.295572.223841-.488141.322331-.68071l.129827-.228397c.143258-.250788.246225-.429922.353669-.6001l.183549-.277658c.125351-.179134.250702-.35379.380529-.519489.452158-.586665.966992-1.115111 1.513163-1.607731-.823734.32692-1.544501.734451-2.216023 1.17333-3.536682 2.091393-5.878055 5.763647-6.598822 8.141655l-9.155084 29.382505c-.81478 2.436227-2.314512 4.845584-4.230588 6.932498.188026-.089567.380529-.165699.568555-.268701 4.279834-2.310833 7.874715-6.520489 9.36997-10.998847"/><path d="m246.62899 439.799675c-5.828811 3.16172-11.939661 4.845583-17.737134 4.845583-4.946879 0-9.450553-1.186765-13.390149-3.524468-2.601029-1.540555-4.839435-3.519989-6.657022-5.88904-.693906.456792-1.423626.909106-2.175731 1.347986-.613323.362747-1.280368.721015-1.960844 1.074805 1.871308 2.566099 4.190297 4.715711 6.943537 6.345833 3.917212 2.31979 8.385072 3.497598 13.291659 3.497598h.008954c7.033074 0 13.869168-2.292919 20.351593-6.766799.277563-.192569.559602-.362747.837164-.564273z"/><path d="m185.455574 442.572226h-.120874c-9.213282-.062697-17.119334-3.663297-21.69016-9.888214-4.297741-5.844257-5.354269-13.341028-2.986035-21.097544l9.177467-30.040824c.08506-.277658.188027-.568752.322331-.895672l.076106-.170177c.134304-.304529.232794-.506055.335761-.698624l.120874-.21944c.143258-.255266.250701-.438879.367098-.618013l.143258-.210483c.161166-.241831.290993-.416487.425298-.591143.425297-.54636.904316-1.038979 1.410196-1.50025-2.372711 1.083763-4.230589 2.521316-5.622878 4.030522-1.701189 1.71969-2.712949 3.6006-3.200921 5.217287l-7.71355 25.257938c-2.672657 8.750711-1.414673 17.246156 3.496392 23.923388 5.39456 7.348985 15.418145 11.191416 22.527324 11.191416 5.461713 0 9.951956-.994195 14.182545-3.237853 2.592075-1.244983 5.076706-2.942281 7.592675-5.159068-6.057128 3.076632-12.566415 4.706754-18.842907 4.706754"/><path d="m199.856587 417.467c1.414673-1.025544 2.668181-2.176482 3.720232-3.421465.70286-6.820539 3.281504-13.788864 7.462848-20.166046 3.756046-5.732298 8.613389-10.658491 14.124346-14.384485-2.471201 1.401726-4.705131 2.946759-6.746558 4.603752-6.240677 4.760494-10.659292 10.546532-13.922889 16.426616-3.169584 5.705428-5.202057 11.845257-5.936255 17.810429.438728-.273179.872979-.559794 1.298276-.868801"/><path d="m241.713001 397.117342c1.974275-.255266 3.514299.035827 4.521582.604578.908793.515011 1.428103 1.285289 1.468395 2.176482l-3.594882 12.055739-1.978751 6.623492-.156689.528446c.429775-.340355.864025-.676232 1.284846-1.052414 1.499732-1.347986 2.874114-2.879584 4.082854-4.550012.353668-.488141.675998-.967325.989375-1.459944l3.881398-12.73645c-.259656-2.928846-1.513163-4.644057-3.823199-5.257592-.550648-.143308-1.150541-.21944-1.786249-.21944-2.448816 0-5.354268 1.097198-8.179138 3.094546-.411866.286614-.846117.613535-1.280368.967325-.452158.362747-.846118.70758-1.284846 1.106154-.071629.062697-.129827.138829-.201456.206005 1.177402-.618014 2.274221-1.083763 3.299411-1.424118.989376-.322442 1.920553-.555316 2.757717-.662797"/></g><path d="m444.937943 365.707484c-5.090137 0-9.231189-4.142481-9.231189-9.234374 0-5.087415 4.141052-9.229896 9.231189-9.229896 5.08566 0 9.226712 4.142481 9.226712 9.229896 0 5.091893-4.141052 9.234374-9.226712 9.234374m13.327473-9.229896c0-7.353463-5.976546-13.33655-13.327473-13.33655-3.115862 0-6.151142 1.101677-8.54176 3.103502-.864025.721016-1.607176 1.549512-2.251837 2.436227-1.62956 2.252614-2.538353 4.962021-2.538353 7.796821 0 7.353464 5.981022 13.332071 13.33195 13.332071 1.804156 0 3.559066-.358268 5.219964-1.065849.031338-.013435.058199-.035827.094013-.049262 4.866296-2.122741 8.013496-6.905627 8.013496-12.21696" fill="#00a0dd"/><path d="m230.055379 422.655625c-1.078912-.488141-1.880261-1.419639-2.381664-2.772103-1.101296-2.942281-.595417-7.25494 1.360951-11.53625 1.513163-3.322941 3.86349-6.551837 6.621207-9.144807.071629-.062697.129827-.143307.201456-.206004.438728-.398574.832688-.738929 1.284846-1.101676.434251-.35379.868502-.680711 1.280368-.971804 2.82487-1.992869 5.730322-3.094545 8.179138-3.094545.635708 0 1.235601.076132 1.786249.21944 2.310036.613535 3.563543 2.333224 3.823199 5.257592l-3.881398 12.740928c-.313377.492619-.635707.967325-.989375 1.455466-1.20874 1.670427-2.583122 3.202026-4.082854 4.550011-.420821.380661-.855071.716538-1.284846 1.056893-4.302217 3.385638-9.043163 4.850061-11.917277 3.546859zm26.296802-22.862016c-.188026-5.060545-2.703995-8.598447-6.916677-9.70908-.91327-.241831-1.857877-.358269-2.833823-.358269-7.615059 0-16.810434 7.075806-21.300677 16.914758-2.43091 5.329246-2.968128 10.685362-1.472872 14.684535.890886 2.37353 2.45777 4.124568 4.535012 5.065023 6.20934 2.821365 16.009084-1.782387 22.303484-10.483836.492449-.68071.962515-1.383812 1.428103-2.149612z" fill="#00a0dd"/><path d="m280.060937 377.734561-10.502604 34.653533c-1.508687 4.505228-1.168449 8.750712.917746 11.652687 1.683282 2.337703 4.400708 3.622992 7.650874 3.622992 7.650874 0 16.192634-6.92802 19.044364-15.445856l9.038686-29.476552c.832688-2.749711 3.75157-4.993369 6.509287-4.993369l12.01129-.013435-1.687758 5.539729c7.252437-5.521815 16.353799-7.604252 23.968858-5.445683 5.354269 1.513685 9.280434 4.93515 11.08459 9.641904 11.782973-10.107653 24.662765-13.193242 32.895624-7.859518 6.840571 4.433575 8.859614 13.873953 5.412468 25.257939l-3.335226 10.900323c-1.141588 3.721515-.993853 6.70858.434251 8.634273 1.074435 1.459945 2.878591 2.261571 5.072229 2.261571 8.64025 0 18.381796-7.066849 20.844043-15.132371l8.693972-28.795841c.837164-2.75419 3.756046-4.993369 6.509286-4.997847h12.006814l-11.541225 37.998866c-.908793 2.97363-.586463 5.718863.904316 7.734124 1.522117 2.060045 4.181344 3.193069 7.476278 3.193069h13.891552l-3.926165 13.148459h-14.249697c-8.103032-.049262-14.86302-3.206504-18.610113-8.661144-5.305024 4.035-13.900505 8.750711-25.097016 8.750711-7.127086 0-12.973805-2.575056-16.461242-7.25494-3.724709-4.997847-4.494721-12.033347-2.180208-19.812255l3.17406-10.192742c1.575839-4.688841 1.141588-8.486488-1.22217-10.694319-2.421956-2.266049-6.701789-2.601926-10.896563-.868801-5.112521 2.113785-9.983294 7.505728-11.326338 12.54388l-10.135506 33.292112-17.007413.017914 10.753305-35.365592c1.347521-4.348486.796873-7.917737-1.535547-10.044957-2.323466-2.122741-6.048175-2.422791-9.956433-.810583-5.340838 2.212309-10.328008 7.47438-11.599423 12.243831l-.228317.864323-.040292-.098524-10.099691 33.193588-17.01189.017914.778965-2.552664c-8.743216 4.227569-16.868633 5.965172-23.534608 5.024717-6.191432-.868801-11.035344-3.976782-14.030333-8.992542-7.449417 6.627969-16.103097 10.152437-23.941997 10.152437-4.118669 0-8.009019-.971804-11.384537-2.97363-3.299411-1.957042-5.860148-4.742581-7.601629-8.280483-7.153947 5.830822-16.062806 9.158241-24.537414 9.158241-.067152 0-.134304 0-.205933-.004478-7.829947-.049262-14.495922-3.040805-18.296736-8.20883-3.509822-4.778408-4.346986-10.980933-2.363758-17.470074l9.172991-30.036346c.832687-2.75419 3.751569-4.993369 6.50481-4.997847h12.006813l-11.115927 36.641924c-.908794 2.969151-.586463 5.714384.899839 7.729645 1.526593 2.060045 4.181344 3.193069 7.480755 3.193069 6.366029 0 13.766201-3.985738 18.032604-9.704601.456635-6.551838 2.842777-13.287288 6.903246-19.480857 5.054323-7.711732 12.190363-13.793342 20.087462-17.111805 7.968728-3.349812 15.816581-3.506554 22.097551-.438879 1.902645.92702 3.612788 2.131698 5.09909 3.578208 1.047574-2.498924 3.724709-4.411183 6.294399-4.411183zm-12.015767-4.093219c-2.421956.004479-4.937925.998674-6.970399 2.745234-.846117-.555317-1.723573-1.056893-2.618936-1.491293-7.355404-3.596122-16.40752-3.470728-25.486498.340355-1.929506.810583-3.87692 1.809256-5.784043 2.960194-.138781.080611-.273085.179135-.40739.264223-.541694.331399-1.083389.676232-1.611653 1.038979-5.515434 3.721516-10.368299 8.647709-14.124346 14.380007-4.181343 6.377182-6.759988 13.345507-7.467324 20.166046-1.052051 1.244983-2.301082 2.395921-3.720232 3.421465-.425297.309007-.855071.595622-1.298276.868802-2.954697 1.845083-6.173526 2.879584-9.020779 2.879584-1.965321 0-3.451623-.54636-4.181344-1.536077-.698382-.935977-.796872-2.391443-.273085-4.088741l12.732057-41.944299-17.549108.004478c-2.556261 0-5.179673 1.124068-7.225577 2.991543-.510357.461271-.984899.95389-1.410196 1.50025-.134305.174656-.264132.349312-.425298.591143l-.143258.210483c-.116397.179134-.22384.362747-.371575.618013l-.120874.21944c-.09849.192569-.19698.394095-.331284.698624l-.076106.170177c-.134304.32692-.241748.618014-.322331.895672l-9.177467 30.040824c-2.372711 7.760994-1.311706 15.253287 2.986035 21.102022 4.570826 6.220439 12.476878 9.821039 21.685683 9.883736h.125351c6.276492 0 12.785779-1.630122 18.842907-4.706754.049245-.02687.102967-.044784.152212-.071654.089536-.049262.165642-.094045.255179-.143307.680475-.349312 1.34752-.707581 1.960844-1.070328.752104-.438879 1.486302-.891193 2.175731-1.347985 1.822063 2.369051 4.06047 4.348485 6.657021 5.88904 3.939596 2.337703 8.44327 3.524468 13.390149 3.524468 5.797473-.004479 11.908324-1.683863 17.737135-4.845583l-.487973.367225c-.277562.201526-.559602.371704-.837164.564273 2.73981 19.319636 6.921153 32.082956 13.515499 41.277024 5.878056 8.190917 12.279899 11.074979 13.502069 11.567599.067153.031348 1.593746.765799 3.706802 1.477858 5.09909 1.719689 10.529465 3.282636 13.117063 4.00813-4.221635-3.116937-8.228383-6.363747-11.859079-10.004652-16.931308-2.628796-24.604566-26.673099-29.018704-50.211348.188026-.111959.371576-.232874.559602-.344833.532741-.331399 1.052051-.62697 1.589269-.985239.63123-.425444 1.208739-.832974 1.763864-1.240505 1.575838 1.710733 3.411332 3.161721 5.452759 4.312659 7.216623 4.057392 16.734328 4.214134 27.523448.452314l24.595613-.022392 11.290523-37.000192c.586463-2.203352 2.426433-4.742581 4.866296-6.793669.228318-.19257.456635-.385139.693906-.568752 1.204263-.922541 2.43091-1.643557 3.648603-2.145133 2.33242-.967325 4.539489-.949412 5.627354.044783 1.061005.967326 1.199786 3.143808.371576 5.817387l-12.364959 40.672446 25.584989-.02687 11.026391-36.21648.035814-.120915c.640185-2.4004 2.453294-5.04711 4.857343-7.165373.094013-.08061.170119-.170178.264132-.250788 1.240077-1.047936 2.55626-1.876432 3.800814-2.391443 2.636844-1.088241 5.318455-1.056893 6.531671.071654 1.101296 1.0345 1.155018 3.363246.134305 6.40853l-3.214352 10.313658c-2.695042 9.050761-1.692236 17.376028 2.824869 23.435246 4.279833 5.741255 11.295 8.902976 19.7517 8.902976 8.452224 0 16.87311-2.539229 24.376249-7.348986.975945.962847 2.045904 1.840606 3.183014 2.615361 4.405184 3.0005 9.978817 4.608231 16.121005 4.644057h17.30736l6.513764-21.35281h-19.51443c-1.960844 0-3.447146-.546359-4.181343-1.536076-.693906-.935977-.792396-2.391443-.273086-4.093219l13.152878-43.314677-17.549109.017913c-1.674328 0-3.379994.488141-4.937925 1.343507-1.410196.779235-2.703995 1.858519-3.720232 3.184113-.129827.165699-.255178.335877-.429774.595621l-.129827.197048c-.111921.174656-.214887.35379-.358145.604578l-.120874.21944c-.107444.192569-.19698.394095-.331284.694145l-.076106.174656c-.134305.317964-.237271.613535-.326808.90015l-8.689494 28.786884c-1.119204 3.65434-4.449953 7.420639-8.698449 9.821039-.067152.040305-.138781.062697-.201456.103002-2.686088 1.477859-5.524388 2.301876-8.02245 2.301876-.496926 0-1.387812-.076132-1.772818-.595621-.577509-.779235-.501403-2.740755.188026-4.997848l3.339703-10.909279c4.011225-13.233548 1.351998-24.411529-7.10918-29.893039-4.857342-3.152764-11.021914-4.021565-17.822193-2.521315-5.246826 1.159894-10.802551 3.797647-16.098621 7.644557-2.744287-3.596122-6.822664-6.260745-11.545702-7.519163-5.569156-1.482337-11.872509-1.083763-17.875915 1.119589l.371575-1.249462h-17.535678c-2.524923.004479-5.112521 1.097198-7.144994 2.91989-.546171.488141-1.061005 1.016587-1.513163 1.60773-.129827.165699-.255178.335877-.380529.51949l-.183549.277658c-.107444.170177-.210411.349312-.353669.595621l-.129827.228397c-.09849.192569-.188026.389617-.322331.68071l-.080582.183613c-.125351.313485-.232795.604578-.317854.891193l-8.980488 29.378027c-1.495255 4.47388-5.090136 8.688015-9.36997 10.998847-.188026.098524-.380529.174656-.568555.268702-1.808633.882236-3.603835 1.370377-5.237872 1.370377-1.929506 0-3.424762-.662797-4.324602-1.916737-1.32066-1.831648-1.459441-4.733624-.371575-7.971477l12.159025-40.032041h-7.180809-4.521581z" fill="#00a0dd"/><path d="m190.586002 347.258441c5.090137 0 9.226712 4.138002 9.226712 9.229895s-4.136575 9.234374-9.226712 9.234374c-5.08566 0-9.226712-4.142481-9.226712-9.234374s4.141052-9.229895 9.226712-9.229895m-13.33195 9.229895c0 7.353464 5.981023 13.33655 13.33195 13.33655 1.804156 0 3.563544-.362747 5.224441-1.065849.08506-.040306.165642-.094046.250702-.134351 4.77676-2.158569 7.856807-6.883236 7.856807-12.13635 0-7.353463-5.981022-13.336549-13.33195-13.336549-3.111385 0-6.146665 1.106154-8.54176 3.10798-.895362.752364-1.669851 1.616687-2.327943 2.552664-1.575838 2.225744-2.462247 4.890367-2.462247 7.675905" fill="#00a0dd"/><path d="m454.162417 356.475349c0-5.087415-4.136576-9.229896-9.226713-9.229896-5.085659 0-9.226712 4.142481-9.226712 9.229896 0 5.091893 4.141053 9.234374 9.226712 9.234374 5.090137 0 9.226713-4.142481 9.226713-9.234374" fill="#000"/><path d="m190.586002 365.720919c5.090137 0 9.226712-4.142481 9.226712-9.234374 0-5.087415-4.136575-9.229896-9.226712-9.229896-5.08566 0-9.226712 4.142481-9.226712 9.229896 0 5.091893 4.141052 9.234374 9.226712 9.234374" fill="#000"/><path d="m252.096074 413.758024c-.465588.765799-.935654 1.468901-1.428103 2.149612-6.2944 8.696971-16.094144 13.305201-22.307961 10.483835-2.077241-.940455-3.639649-2.691493-4.530535-5.069501-1.495256-3.999173-.958038-9.350811 1.472872-14.680057 4.490243-9.838952 13.685618-16.914757 21.300677-16.914757.975946 0 1.920553.116437 2.829347.35379 4.212681 1.115111 6.733127 4.653014 6.921153 9.713558zm15.955363-36.010475c-2.569691 0-5.251302 1.912258-6.294399 4.411182-1.486302-1.446509-3.200922-2.646709-5.099091-3.573729-6.280969-3.072154-14.133299-2.915411-22.09755.4344-7.901576 3.318463-15.03314 9.400073-20.091939 17.111806-4.055993 6.193568-6.442134 12.929019-6.903246 19.480856-4.261926 5.718863-11.666575 9.70908-18.028127 9.70908-3.299412 0-5.954162-1.137503-7.480755-3.197548-1.490779-2.015261-1.808633-4.760494-.89984-7.729645l11.115928-36.641924h-12.006814c-2.75324.004478-5.672122 2.243657-6.509286 4.997847l-9.172991 30.036346c-1.983228 6.489141-1.141587 12.691666 2.368235 17.470074 3.796337 5.168025 10.466789 8.159568 18.296736 8.20883.067152.004479.138781.004479.205933.004479 8.474608 0 17.383466-3.32742 24.532937-9.158242 1.745957 3.537902 4.302218 6.323441 7.606106 8.280483 3.375517 2.001826 7.265868 2.97363 11.38006 2.97363 7.843377 0 16.497057-3.524468 23.946474-10.152437 2.994988 5.015761 7.8389 8.123741 14.025856 8.997021 6.670452.935976 14.795868-.801626 23.534608-5.029196l-.778965 2.552664 17.01189-.017914 10.104168-33.193588.035814.098524.232795-.864323c1.271415-4.769451 6.258585-10.031522 11.599423-12.24383 3.908258-1.612209 7.62849-1.312159 9.956433.810582 2.33242 2.12722 2.878591 5.696472 1.535547 10.044957l-10.757783 35.365592 17.011891-.017914 10.131029-33.292112c1.347521-5.038152 6.213817-10.430095 11.326338-12.54388 4.19925-1.733125 8.474607-1.392769 10.896563.868801 2.363758 2.207831 2.798009 6.005478 1.226647 10.698797l-3.174061 10.188264c-2.318989 7.778908-1.5445 14.818886 2.180208 19.812255 3.482961 4.679884 9.334156 7.25494 16.461243 7.25494 11.19651 0 19.787515-4.715711 25.092539-8.750711 3.751569 5.459118 10.511558 8.611882 18.61459 8.661144h14.249697l3.926165-13.148459h-13.891552c-3.299411 0-5.954162-1.133024-7.480755-3.193069-1.486302-2.015261-1.808633-4.760494-.899839-7.734124l11.536748-37.998866-12.002337.004478c-2.75324 0-5.676599 2.239179-6.509287 4.993369l-8.693971 28.795841c-2.462247 8.065523-12.203793 15.132371-20.84852 15.132371-2.193638 0-3.993317-.801626-5.072229-2.26157-1.423627-1.925694-1.575839-4.912759-.429774-8.634274l3.330749-10.900323c3.451623-11.383986 1.428103-20.824364-5.412468-25.257938-8.228383-5.333725-21.108175-2.243658-32.891147 7.859518-1.808633-4.706755-5.730321-8.12822-11.089067-9.641905-7.610583-2.158568-16.716421-.076132-23.968859 5.445683l1.687759-5.539728-12.006813.013435c-2.757717 0-5.6766 2.243657-6.509287 4.993369l-9.043163 29.476551c-2.847253 8.517837-11.389013 15.445856-19.039887 15.445856-3.254643 0-5.972069-1.285289-7.650874-3.622991-2.090672-2.901976-2.426433-7.14746-.917747-11.652687l10.502604-34.653533z" fill="#000"/><path d="m98.6604601 380.756557.5416944-.73445c4.8036205-6.489141 11.3800595-15.38316 17.6117835-23.484509l.111921-.138829c11.214417-13.341028 18.354934-19.892865 27.357806-25.047455 2.547307-1.424118 5.255779-2.67358 8.044833-3.708081 2.359281-.882236 4.669317-1.55399 6.894293-2.091393l-1.360951.156743c-.044768.004478-1.061005.125394-5.587063 1.339029-4.602164 1.231548-9.472937 3.219939-13.716956 5.58899l-.004477.004479c-1.199786.685188-2.368234 1.397247-3.518776 2.140655-7.888145 5.109806-14.858543 11.845256-25.003002 23.905474-.062675.071654-.120874.147786-.179073.223918l-12.3380971 16.404225z" fill="#ee3742"/><path d="m47.5746477 121.513074c-4.8842034 4.09322-12.7544412 7.089241-22.7153509 8.504402-4.9021106.694145-10.1668431 1.209157-13.8020155 1.222592 3.1203389-2.445184 6.9659215-5.80843 10.336962-9.771777 2.4577705-2.687015 5.4885731-6.972803 7.6643044-13.273853 1.5847919-4.594795 23.7897861-76.5485702 26.3147088-84.7394867l.0984899-.313485c.3178538-1.0748059.5909394-2.0600446.8192569-3.0094565.1611652-.6672753.2954696-1.2673753.40739-1.8361267.743151-3.7080803.6536147-5.4412048.6536147-5.5621204.0447682-2.6646229-.3402378-5.01128245-1.0117598-6.88771438-.1566885-.43440071-.3447146-.93149843-.5909393-1.32111556l-.120874-.19256939v.00447836l-.0044768-.01343508-3.9440726 3.95438997.1119204.19704775c.2283174.4030522.3894827.91358499.5193103 1.36142078.8371641 2.90197585.6446611 6.70410165-.622277 11.46907445l-26.8205888 86.2621284c-4.5976873 14.330745-23.23466121 25.858038-23.42268737 25.969997l-1.44601071.882237 1.68775863.161221c.04924494.004478 2.8203924.259744 7.05098101.259744 3.67098694 0 8.43431634-.192569 13.47073134-.909106 14.4421998-2.051088 24.2150834-7.28181 29.2246375-15.638426.6759988-1.083762 1.9697979-3.273679 2.8651605-4.863496-1.1102497 1.751037-2.3592806 3.470727-3.7873841 5.056066-.5909393.658318-1.5265933 1.751037-2.9367895 3.027369" fill="#ee3742" mask="url(#b)" transform="translate(0 324.461808)"/><path d="m106.109877 445.421357 17.49091-56.458657-7.247961 9.740428-1.12368 3.614035v.004479l-14.491445 46.71375-.219363.703102h35.451884l4.136576-4.129046-.165642-.10748-.062675.08061-.711814-.094045.071629-.067176z" fill="#ee3742"/><path d="m72.5754118 384.559131-2.4756778 8.096871 10.8831333 51.46081 3.5948811-2.731799z" fill="#ee3742"/><path d="m158.133135 356.193212-22.245286 71.55968c-.684952 2.34666-1.155018 4.151438-1.383335 5.884562-.389483 2.910933-.322331 5.239679.21041 7.317637l.094013.35379h-23.118264l.116397-.367225 22.827271-73.695856-47.9153328 64.371915-13.4125328-63.516549-16.1030976 52.638618c-.9177467 3.152764-3.7068014 12.749885-9.7504994 19.458465-1.8892153 2.095871-7.6374436 8.477531-23.937521 10.183785l-.7968727.080611.5685553-.564273c2.8964982-2.870628 6.9211534-7.958042 9.66544-15.902649 1.6653745-4.832148 26.2072653-84.381218 26.45349-85.182844.9311772-3.139329 1.4594411-5.530772 1.8265398-8.244657.3805292-2.875106.313377-5.271027-.214887-7.322115l-.0895363-.35379 23.4540251-.004479 12.1008265 57.631987s17.4148039-23.471073 23.5704219-31.478377c10.865226-12.924541 17.741612-19.239025 26.278895-24.120435 10.38173-5.80843 20.817182-7.026544 27.738335-7.026544.313377 0 .631231.004479.944608.013435l.734197.017914-.559602.474706c-7.673258 6.529445-13.251367 15.620512-17.056658 27.792688m19.724839-24.662316c3.339703-3.063197 5.090137-4.415661 8.564144-7.25494 0 0-3.724709-.479184-12.347051-.492619-3.765 0-8.998395.362747-14.854067 1.768951-2.224976.537403-4.535012 1.209157-6.894292 2.091393-2.789055 1.034501-5.49305 2.283963-8.044834 3.708081-9.002872 5.154589-16.143389 11.706427-27.357806 25.047455l-.111921.138829c-6.231724 8.101349-12.808163 16.995368-17.6117832 23.484508l-.5416944.734451-1.1460643-5.441205-9.7907907-46.543573-32.0987517.008957.0044768.017914.0044768-.004479.1163972.19257c.2462247.389617.4387277.886714.5954162 1.321115.671522 1.876432 1.0565279 4.223092 1.007283 6.887714 0 .120916.0895362 1.849562-.6536148 5.562121-.1119203.564273-.2417479 1.168851-.40739 1.836127-.2283175.949411-.4969263 1.93465-.8192568 3.009456l-.0984899.313485c-2.5249228 8.190917-24.7299169 80.140214-26.3147088 84.739487-2.1712545 6.30105-5.206534 10.586838-7.6598277 13.273853-3.3755172 3.963346-7.2210999 7.326593-10.3414388 9.771776 3.6351724-.013435 8.8999049-.528446 13.8020155-1.222591 9.9609097-1.41964 17.8311476-4.415661 22.7153509-8.504402 1.4101962-1.276332 2.350327-2.369051 2.9367896-3.02737 1.4281034-1.585338 2.6816112-3.305028 3.7873841-5.056066 4.0604697-6.430921 6.0839893-13.336549 6.8540012-15.987737l8.944673-29.248155 2.4801546-8.096871 11.9978598 56.825882 31.7764214-42.683228 7.24796-9.740428-17.490909 56.458657h33.128418.872979c-.649138-2.203352-1.078912-3.752864-1.441534-5.445683-.429774-2.485489-.398436-3.457292-.085059-5.790517.19698-1.486815.6178-3.094545 1.2356-5.212808l22.245286-71.555202c.094013-.309007.21041-.595621.3089-.904628 3.563543-10.940628 8.747693-19.140502 15.485297-24.98028" fill="#00a0dd"/><path d="m175.012959 327.906113c-.313377-.008957-.626754-.013435-.940131-.013435-6.92563 0-17.356605 1.222592-27.742812 7.026543-8.537283 4.885889-15.409191 11.195895-26.274417 24.124914-6.160095 8.002825-23.5748993 31.473899-23.5748993 31.473899l-12.1008265-57.631987-23.4540251.008957.0940131.349312c.5237872 2.055566.5909394 4.451487.2104102 7.322115-.3626219 2.718363-.8908858 5.105328-1.822063 8.244656-.2507015.806105-24.7925923 80.355175-26.4579668 85.182845-2.7398098 7.944607-6.7689418 13.036499-9.6609632 15.907127l-.5730321.564273.8013495-.085089c16.2956006-1.701776 22.0438289-8.087914 23.9330442-10.183786 6.0481748-6.704101 8.8372295-16.305701 9.7549762-19.458464l16.1030976-52.63414 13.4125328 63.512071 47.9153334-64.367437-22.831748 73.695856-.111921.362747h23.113788l-.089537-.349312c-.537217-2.082436-.604369-4.406704-.214887-7.322115.228318-1.728646.70286-3.537903 1.383336-5.884562l22.245285-71.55968c3.809768-12.167698 9.387878-21.258765 17.056659-27.78821l.564079-.479185z" fill="#000"/><path d="m126.817378 250.636975c.402913 9.082109 1.772818 18.061217 4.006748 26.794015-2.41748-31.527639 3.07557-58.084301 14.415338-79.925253-3.012895-.044783-5.981022-.067175-8.886474-.062697-7.153948 16.596795-10.363823 34.469921-9.535612 53.193935" fill="#ee3742"/><path d="m272.388126 120.390655c-.850594.017913-1.705666.02687-2.551783.05374-37.296332 1.159895-71.843901 11.2362-96.609632 29.937822-3.988841 3.013935-7.749364 6.229396-11.290523 9.628469-4.391754 4.384313-8.371641 9.023891-11.975476 13.88291 4.400707-.738929 8.729786-1.379334 12.964851-1.930173 26.158021-29.167544 65.625607-45.992734 109.462563-51.572768" fill="#ee3742"/><path d="m117.135821 197.841614c6.079513-.237353 12.499263-.38066 19.214483-.398574 2.909929-.004478 5.878056.017914 8.886474.062697 12.212747.183613 25.226844.806105 38.751297 2.095872 6.133234-4.693319 12.62909-8.983586 19.335357-12.866322-40.107771-1.755516-94.022034.259745-145.47405 16.999846 1.3161831-.250788 22.088597-4.066349 53.350185-5.629296 1.920552-.098524 3.885874-.183612 5.882532-.264223z" fill="#42738d"/><path d="m467.55167 445.596461h-.017907l-.953561-2.982586h-1.454965v4.563447h.837164v-3.631949h.022384l1.150541 3.62747h.80135l1.190832-3.62747h.017908v3.62747h.841641v-4.558968h-1.441534z" fill="#000"/><path d="m461.061634 443.431623h1.2356v3.743907h.832688v-3.743907h1.24903v-.815061h-3.317318z" fill="#000"/></g></svg>