<svg viewBox="0 0 500 500" xmlns="http://www.w3.org/2000/svg"><g fill="none" fill-rule="evenodd"><path d="m249.63 500c137.864 0 249.636-111.766 249.636-249.63s-111.772-249.623-249.636-249.623-249.63 111.76-249.63 249.623c0 137.864 111.766 249.63 249.63 249.63" fill="#fff"/><path d="m438.727 139.136-4.396-7.409c0 .98.11 7.364-1.74 8.292.545 4.358-.76 9.221-2.435 12.098l4.402 5.325c2.182-4.403 3.195-11.195 2.877-14.695.546-1.825 1.13-1.585 1.292-3.61m-12.513-18.54-4.63-5.097c-.7 2.552-2.779 3.48-4.87 5.097 1.156 5.098 3.474 12.513 2.091 19.935l5.085 5.325c1.168-8.344.474-17.15-.922-21.552 1.623-1.156 3.246-3.708 3.246-3.708m-16.922-15.058-4.156-4.175c-.7 2.552-3.493 3.48-5.571 5.097 2.325 4.175 4.175 13.442 3.247 22.942l6.48 4.636c.474-14.364-1.623-20.156-3.928-24.565 2.545-1.617 3.928-3.935 3.928-3.935m-22.247-8.344c2.552-1.624 5.104-4.403 5.104-4.403l-5.558-3.247c-1.623 3.247-3.701 3.013-5.792 4.637 2.318 4.169 6.72 12.747 5.792 22.247l6.48 4.63c-.922-14.825-2.545-22.936-6.026-23.864m-17.844-17.845c-1.623 2.319-5.779 3.942-7.87 5.566 2.318 4.168 6.72 9.493 5.792 19l7.41 4.168c-.462-12.052-3.234-19.694-6.708-20.623 3.474-1.623 7.643-5.792 7.643-5.792l-6.268-2.319m-26.174-3.246c2.312 4.175 6.48 10.435 5.558 19.928l7.416 3.708c-.468-11.584-3.247-19.46-6.72-20.39 4.63-2.084 8.57-6.486 8.57-6.486l-6.947-2.319c-1.624 3.247-5.8 3.942-7.877 5.559m-21.786-7.182c2.318 4.169 6.02 9.266 5.098 18.773l6.948 2.779c-1.396-14.37-2.78-18.078-6.254-19 4.176-2.318 9.273-7.188 9.273-7.188l-7.188-1.85c-1.623 3.246-5.799 4.863-7.877 6.486m-12.52-13.675c-1.623 3.247-5.785 4.87-7.876 6.493 2.325 4.17 6.494 11.124 5.565 20.624l7.182 2.084c-1.396-13.903-3.02-19.929-6.494-20.857 2.552-1.623 8.812-7.182 8.812-7.182l-7.188-1.162m-21.779-5.559c-2.773 3.247-8.117 5.793-10.195 7.416 2.311 4.169 8.344 10.89 7.422 20.39l6.48.928c-1.85-15.292-4.63-17.61-8.104-18.532 2.546-1.624 12.046-9.04 12.046-9.04l-7.65-1.162m-19.935-4.168c-4.857 5.558-9.272 7.642-11.35 9.266 3.701 1.857 6.72 8.11 5.799 17.61l7.415 1.857c-.467-12.052-3.247-16.688-6.72-17.61 2.551-1.624 12.506-10.429 12.506-10.429l-7.65-.695m-41.474 6.955c.403.325 1.747.753 2.89 1.682 2.059 1.669 4.961 6.467 4.76 16.967l6.48.461c-.344-12.045-3.357-15.902-4.539-16.87-.857-.941-2.694-1.084-3.565-1.318 4.897-1.935 12.513-9.967 12.513-9.967l-6.714-.695c-1.162 2.785-9.734 8.117-11.825 9.74m-25.026-9.506-6.948.694c-.707 3.708-2.785 8.344-4.863 9.968 2.311 4.169 2.311 10.195-1.396 17.844l6.948-.461c3.708-9.273 2.779-13.91.695-17.156 2.552-1.623 5.564-10.89 5.564-10.89m22.247-.928-8.11 1.162c-1.624 3.24-6.026 8.11-8.104 9.734 2.188.922 3.929 3.007 3.474 18.078l7.292-.468c-.454-16.688-3.59-16.688-4.753-16.688 2.552-1.623 10.201-11.818 10.201-11.818m-53.298 13.903c2.214.74 1.123 3.435-.286 6.935-1.253 3.11-2.838 5.46-4.585 9.058l6.948-.461c4.643-7.883 8.117-15.532 4.643-16.455 2.546-1.623 5.793-9.733 5.793-9.733l-7.643 2.084c-.929 4.169-2.793 6.948-4.87 8.572m-17.481 2.552c.597 3.616-.656 6.85-5.922 14.83l6.52-.837c6.363-8.188 5.798-12.026 5.733-14.844 2.74-1.669 5.935-8.143 5.935-8.143l-6.935 1.299c-1.227 3.376-3.032 6.02-5.331 7.695m-92.364 123.746c-2.318-7.876.961-15.37 2.358-20.928l-4.676-1.318c-3.708 7.883-2.779 15.298-1.39 20.857-3.714 3.707-6.662 5.948-8.98 12.902l3.669 2.318c.46-5.097 4.39-10.123 9.02-13.83m9.266-19.001c-2.487 8.429-2.773 16.215-1.383 21.786-3.715 3.701-8.981 6.37-11.3 13.325l4.592 2.357c1.85-5.098 6.708-11.98 11.805-13.37-2.325-7.883.247-16.474 1.643-22.033z" fill="#de4a2a"/><path d="m108.877 395.175 13.902.026v-26.454a256.794 256.794 0 0 1 -13.902-5.818zm-17.617-.025 13.902.025v-33.98c-4.805-2.292-9.46-4.727-13.902-7.312v41.266m347.734-58.065h-.695v28.377c3.766-6.15 7.24-12.5 10.409-19.026l-9.078-8.708s-.318-.324-.636-.643m-155.221 78.143 3.246 3.747c-3.246 5.35-9.649 12.117-14.746 14.896l-4.176-2.78c6.026-2.785 13.864-12.947 15.676-15.863zm11.24 10.67 3.714 3.246c-3.246 5.097-9.701 9.656-14.798 12.441l-3.708-2.324c6.026-2.773 12.48-9.195 14.792-13.364zm11.084 8.382 3.715 2.565c-3.247 5.104-8.74 8.442-13.838 11.22l-1.078-.603 1.078.812c3.247.46-1.916 7.376-16.273 10.162l-5.39-1.825c15.085-3.194 17.884-7.292 19.734-9.623l-2.24-1.253c6.02-2.78 11.98-7.286 14.292-11.455zm10.487 6.292 3.247 1.851c-5.052 5.987-8.513 7.786-13.532 10.526l1.266.422c2.78.929-5.753 8.734-13.708 9.662l-6.318-1.357c10.91-2.474 14.85-6.071 17.247-9.227l.363.117-2.681-1.156c6.948-2.773 9.487-5.273 14.116-10.838zm9.526 4.819 3.247.922c-5.571 6.026-6.967 7.422-12.065 10.201l-3.234-1.37c6.026-2.78 8.806-5.585 12.052-9.753zm-65.584 3.83c9.273-.928 16.22-3.032 22.247-8.13l3.006 1.624c2.318 2.318-10.162 9.267-19.89 9.734l-5.363-3.227zm-10.214-7.688-6.026-4.175c7.415.929 20.097-.935 27.513-3.487l4.643 3.24c-7.416 1.864-17.793 4.89-26.13 4.422zm-18.676-16.883c19.851.221 23.793-.935 27.04-2.33l3.928 3.707c-7.41 1.857-11.442 2.799-26.273 3.266zm-7.026-8.818-4.246-4.863c5.552.928 17.681.454 27.876-.929l2.786 3.48c-7.416 1.851-17.617 2.773-26.416 2.312zm50.221-8.753c-3.247 5.104-10.831 12.227-15.928 15.013l-3.708-3.247c5.013-2.318 11.026-8.753 14.247-13.247l-177.28-.24c40.124 40.753 95.89 66.072 157.468 66.072 19.571 0 38.552-2.565 56.63-7.364 5.208-2.85 7.772-5.396 9.435-7.87l3.448 1.35-4.195 4.033a215.4 215.4 0 0 0 9.766-3.286l-4.175.643c6.955-2.78 10.922-6.318 14.623-10.02l2.994.747c-4.26 4.624-5.805 5.429-8.591 6.812 29.214-11.377 55.429-28.78 77.117-50.688l-133.28-.182 1.43 1.474zm152.981-69.994c-4.442 3.812-9.461 7.474-14.916 10.974v47.54l3.253.006a220.769 220.769 0 0 0 11.955-14.955v-43.565zm-145.396-55.324c.915-1.143 1.396-2.215 1.396-3.046 0-.396-.117-.733-.344-1-.786-.902-3.286-1.33-6.39.52-4.961 2.941-8.818 8.052-10.74 12.084 4.954-.941 12.324-3.863 16.078-8.558m-194.871 69.876c-5.46-3.37-10.603-6.974-15.292-10.844h-.441v40.753a217.847 217.847 0 0 0 10.896 13.591l4.837.013zm307.735 43.935 13.902.02v-45.22a200.264 200.264 0 0 1 -13.903 7.674v37.526m-17.617-.026 13.916.026v-35.688a271.497 271.497 0 0 1 -13.916 6.208zm-17.604-.019 13.903.02v-27.942a316.782 316.782 0 0 1 -13.903 5.169zm-308.357-46.792a221.238 221.238 0 0 0 9.91 17.766v-25.617c-1.306 1.195-5.507 4.935-9.91 7.85" fill="#212f57"/><path d="m399.857 252.435-16.59.253c3.415 1.76 14.324 7.357 14.324 7.357l-1.65 2.267c-2.084 2.87-2.857 5.441-2.857 8.117 0 2.96.955 6.052 2.091 9.818 1.604 5.182 3.468 11.272 3.468 19.253 0 3.169-.305 6.63-1.033 10.461-1.974 10.507-15.623 31.85-43.26 26.916-4.92-.877-9.797-3.877-14.135-6.877-7.792 6.662-18.065 9.896-26.967 7.85-7.078-1.623-12.312-6.324-14.773-12.681-17.883 17.376-41.98 15.5-50.565 10.474l-.065-.04c-2.325-1.44-4-3.265-5.714-5.097-4.052 4-13.085 10.63-23.72 9.43-7.066-.981-12.404-4.975-15.442-11.56-1.897-4.116-2.812-9.207-2.812-14.72 0-6.559 1.643-13.572 4.052-20.455-4.507 7.033-9.033 14.364-13.273 21.35-6.253 10.332-11.656 19.254-15.292 24.02l-.727.942h-29.624l2.344-3.688c4.591-7.208 11.013-27.396 15.059-46.474-8.182 16.987-23.416 43.149-42.695 50.617-7.318 2.844-14.545 2.688-21.494-.455-5.188-2.338-8.564-6.63-9.766-12.41-2.552-12.272 5.247-30.187 13.922-39.759l.403-.441 26.071-9.37-4.279 6.162c-5.922 8.513-11.402 21.084-9.825 25.52.247.694.617.94 1.091 1.077 10.552 3.033 27.935-37.195 40.637-66.565 9.253-21.435 18.006-41.675 25.26-50.409l.714-.857 30.811-.227 4.033-.033-1.896 3.552c-5.624 10.52-11.266 34.377-15.792 53.552 0 0-1.598 6.468-3.11 12.565 2.902-4.753 5.895-9.65 5.895-9.65 12.468-20.72 27.98-46.506 40.461-59.064l.708-.701h37.429l-1.936 3.545c-15.565 28.396-56.896 103.812-48.254 118.15.17.266.273.272.325.279.643.065 1.838-.676 2.864-1.5-.104-1.098-.202-2.189-.202-3.286 0-20.643 16.117-42.87 37.247-50.208 13.117-4.552 26.104-1.916 32.305 6.565 2.332 3.188 3.487 6.864 3.487 10.786 0 5.24-2.065 10.909-6.136 16.37-4 5.35-14.37 14.286-37.292 17.032.902 3.072 2.448 4.922 5.584 5.091 18.526.994 34.357-19.89 40.104-30.974 0 0 11.662-25.324 14.292-31.045-5.402.214-23.35.909-23.35.909l11.415-23.253 22.929-.39c1.143-2.416 11.922-25.247 11.922-25.247l32.11-.266s-9.506 19.961-11.98 25.136c6.39-.104 42.558-.655 42.558-.655zm-174.325 126.318c-.967 1.559 2.578 4.877 2.838 5.098h.007-.007c-4.643-.922-24.24-.215-28.864.253l-4.383-6.28c8.8-.921 25.695-.006 29.026 1.858 3.26 1.824.228 0 .228 0l-3.267-1.104c-2.318-5.565 10.948-18.403 12.806-21.182l3.844 5.753c-8.344 8.474-10.585 12.961-12.228 15.604zm-40.602-16.323c8.688-.91 20.292-1.559 24.142-.682l-1.597-1.98c-.052-3.079 5.15-9.851 9.5-14.637 0 0 4.72.954 7.727.208-4.013 4.506-8.071 8.837-10.324 11.844-2.182 2.909-2.806 6.078-1.935 8.552l1.83 2.26c-4.636-.93-21.356-.682-25.986-.208zm10.48-23.54c-.935-3.7.461-5.551 1.857-9.266l3.24 5.098c-1.39 3.247-1.39 8.805-1.39 8.805l-1.233-1.539 2.623 5.253c-4.636-1.396-17.61-.928-21.318-.928l3.708-4.87c5.526-.455 9.22-.682 14.727.214l-2.214-2.766zm-84.52-127.39-1.344-1.675c-2.655-1.63 1.507-14.546 4.754-22.059l4.876 4.208c-1.824 5.039-6.156 14.604-5.928 22.208l1.52 1.89c-8.819 2.318-16.936 6.279-17.793 9.87l-4.383-3.955c1.305-5.403 12.24-8.175 18.299-10.487zm16.643-12.864 4.851 4.929c-1.85 5.065-5.98 15.63-5.117 24.403l1.403 1.545c-6.487.929-16.227 6.026-19.474 10.662l-3.624-4.96c4.137-6.442 14.585-9.364 18.37-10.767l-1.298-1.422c-1.39-6.026.708-12.338 4.89-24.39zm13.65 63.786-.468 5.792c-4.11.637-8.435 2.143-11.467 4.208l-2.04-4.864 1-.5c4.63-2.324 9.728-3.707 12.975-4.636zm-5.098-21.318c-.46-5.565 4.715-15.02 9.773-22.325l4.162 6.065c-4.136 4.604-9.688 13.825-9.305 21.214l1.396 1.533c-6.487.922-18.311 3.24-21.552 7.877l-4.13-6.059c6.462-5.084 11.507-4.831 20.936-6.896l-1.28-1.41zm-61.181-32.442-4.637-3.714c2.305-6.896 9.61-8.773 13.344-12.422l-.824-.416c-.929-9.266-2.104-15.253.675-23.136l5.35 2.747c-1.389 5.558-2.785 15.292-.467 23.175l1.39.786c-5.098 1.39-12.98 7.883-14.831 12.98zm379.123 79.715v-22.247h-11.123v12.974h-9.273v-118.65h-25.961v60.254h-19.455v-70.448l-3.526-3.04v-8.343l-7.61-3.448v-10.156h-12.669v10.156l-7.61 3.448v8.344l-3.513 3.039v13.909h-18.844v-40.792h-15.754v-19.461h-10.194v-10.196h-23.176v10.195h-8.344v32.441h-12.565v-37.816l-4.812-3.247v-16.22l-7.383-5.559v-22.585l-2.766-3.24-1.13-10.845h-1.539l-1.37 10.844-2.987 3.24v22.585l-7.403 5.558v16.221l-4.798 3.247v32.929h-20.91v-25.702h-30.59v25.026l-6.487 2.786v45.416h-22.247v-38l-2.318-2.319v-19.928h-2.312l-5.467-20.968c.188-1 .318-2.273.318-3.675 0-3.169-.598-4.403-1.312-4.403-.727 0-1.318 1.234-1.318 4.403 0 1.552.143 2.967.377 4l-5.572 20.643h-2.325v19.928l-2.318 2.319v41.337h-24.558v-2.72c-1.396 5.558-5.065 14.83-3.247 22.46l-.59-.376 1.973 1.402c-5.097 1.39-13.441 8.345-15.292 13.442l-4.63-3.708c2.299-6.896 8.175-8.422 15.059-12.974l-1.63-1.032c-.28-6.767-.24-14.293 3.467-22.176l4.89 2.961v-27.85c0-4.17-6.033-4.28-6.033-4.28v-7.454l-5.097-1.39-.468-3.207-1.383-.461-1.39.46-.467 3.208-5.097 1.39v7.455s-6.02-.351-6.02 4.746v39.838l-9.733 6.396v23.643l-3.715 2.078v18.078l-3.474 2.084v33.61h-6.948v-33.376h-1.623l-4.176-36.318-2.077-.065-4.416 36.383h-2.539v26.656h-5.338s-3.318 2.805-3.156 4.208a220.284 220.284 0 0 0 3.234 20.318c.078.383.163.772.253 1.156.254 1.188.507 2.376.78 3.552a219.524 219.524 0 0 0 15.753 44.909c4.812-3.26 9.623-7.74 9.682-7.793l.532-.5h13.228l.519.435c41.006 34.247 117.123 48.819 165.15 51.137l-3.43-1.559c4.63-3.246 10.657-10.37 11.124-12.227l3.455 4.175c-2.124 3.39-5.591 7.306-8.65 9.728 2.974.123 5.844.188 8.565.214 53.786.487 137.254-21.558 175.773-55.156l.52-.454h14.012l1.734 1.733 8.098 7.793a218.606 218.606 0 0 0 16.084-49.364l-2.227-5.162z" fill="#212f57"/><path d="m330.89 306.11c3.35-3.935 8.545-10.493 13.415-16.655 18.065-22.851 26.689-33.072 31.61-36.65-10.123.15-18.863.292-20.26.305-.084.202-23.408 49.747-23.408 49.747-.624 1.214-1 2.247-1.357 3.253m24.974 7.747c0 .429.065.844.175 1.227.383 1.286 1.331 2.026 2.104 2.182 2.448.52 4.72.046 6.747-1.409 3.22-2.312 5.344-6.74 5.694-9.734.267-2.26.384-4.337.384-6.305 0-3.967-.442-7.493-.903-11.156 0 0-.123-1.337-.214-2.227-3.526 4.24-7.228 8.89-11.48 15.539.687.734 2.967 3.156 2.967 3.156l-1.63 1.643c-2.487 2.493-3.844 5.006-3.844 7.084m-194.156 81.396 13.909.02v-11.254a440.801 440.801 0 0 1 -13.91-3.175v14.41m-35.22-.053 13.903.02v-20.35a296.385 296.385 0 0 1 -13.903-4.735zm52.831.079 13.91.012v-7.967a415.156 415.156 0 0 1 -13.91-2.54v10.494m-35.221-.052 13.903.02v-15.35a344.552 344.552 0 0 1 -13.903-3.884zm198.345.273 13.902.02v-21.475a345.735 345.735 0 0 1 -13.902 4.338zm-145.507-7.565v7.37l106.571.137v-7.877c-19.07 3.467-37.46 5.28-53.311 5.136-14.727-.13-33.312-1.623-53.26-4.766m127.89 7.539 13.915.02v-16.04a391.067 391.067 0 0 1 -13.915 3.617zm-17.598-.026 13.896.02v-11.526a371.234 371.234 0 0 1 -13.896 2.941z" fill="#212f57"/><g fill="#de4a2a"><path d="m88.344 194.896c-2.318-7.883-.922-17.617.468-23.175l-5.351-2.747c-2.78 7.883-1.604 13.87-.675 23.136l.824.416c-3.733 3.65-11.039 5.526-13.344 12.422l4.637 3.714c1.85-5.097 9.733-11.59 14.83-12.98z"/><path d="m94.825 198.825 1.63 1.032c-6.884 4.552-12.76 6.078-15.059 12.974l4.63 3.708c1.85-5.097 10.195-12.052 15.292-13.442l-1.974-1.402.591.376c-1.818-7.63 1.85-16.902 3.247-22.46l-4.89-2.962c-3.708 7.883-3.747 15.41-3.467 22.176m19.941 17.246-1.52-1.89c-.227-7.603 4.105-17.168 5.93-22.207l-4.877-4.208c-3.247 7.513-7.41 20.429-4.754 22.059l1.345 1.675c-6.059 2.312-16.994 5.084-18.3 10.487l4.384 3.955c.857-3.591 8.974-7.552 17.792-9.87m9.176 8.376c-3.786 1.403-14.234 4.325-18.37 10.766l3.623 4.961c3.247-4.636 12.987-9.733 19.474-10.662l-1.403-1.545c-.863-8.773 3.266-19.338 5.117-24.403l-4.85-4.929c-4.182 12.052-6.28 18.364-4.89 24.39zm5.305 47.974c3.032-2.065 7.357-3.571 11.467-4.208l.468-5.792c-3.247.929-8.344 2.312-12.974 4.636l-1 .5zm-8.689-16.954c3.24-4.637 15.065-6.955 21.552-7.877l-1.396-1.533c-.383-7.39 5.17-16.61 9.305-21.214l-4.162-6.065c-5.058 7.305-10.234 16.76-9.773 22.325l1.28 1.409c-9.429 2.065-14.474 1.812-20.935 6.896l4.13 6.059m62.337 85.974-3.708 4.87c3.708 0 16.682-.468 21.318.928l-2.623-5.253 1.234 1.539s0-5.558 1.39-8.805l-3.24-5.098c-1.397 3.715-2.793 5.565-1.858 9.267l2.214 2.766c-5.506-.896-9.2-.669-14.727-.214m31.377 26.552-1.831-2.26c-.87-2.474-.247-5.643 1.935-8.552 2.253-3.007 6.311-7.338 10.324-11.844-3.006.746-7.727-.208-7.727-.208-4.35 4.786-9.552 11.558-9.5 14.636l1.597 1.98c-3.85-.876-15.454-.227-24.142.683l3.357 5.357c4.63-.474 21.35-.721 25.987.208"/><path d="m221.11 378.578 3.267 1.104s3.032 1.824-.228 0c-3.33-1.864-20.227-2.78-29.026-1.857l4.383 6.279c4.624-.468 24.221-1.175 28.864-.253-.26-.221-3.805-3.54-2.838-5.098 1.643-2.643 3.884-7.13 12.228-15.604l-3.844-5.753c-1.858 2.78-15.124 15.617-12.806 21.182m29.202.467-3.455-4.175c-.467 1.857-6.493 8.98-11.123 12.227l3.428 1.559 2.5.117c3.059-2.422 6.526-6.338 8.65-9.728m-2.072 30.994c-10.195 1.383-22.324 1.857-27.876.929l4.246 4.863c8.8.461 19-.46 26.416-2.312zm10.435 12.279c-3.246 1.396-7.188 2.552-27.039 2.331l4.695 4.643c14.831-.467 18.864-1.409 26.273-3.266zm13.124 11.552c-7.416 2.552-20.098 4.416-27.513 3.487l6.026 4.175c8.337.468 18.714-2.558 26.13-4.422zm13.981 8.844-3.007-1.623c-6.026 5.097-12.974 7.201-22.247 8.13l5.364 3.227c9.727-.467 22.207-7.416 19.89-9.734m-30.585-23.87 3.708 3.247c5.097-2.786 12.681-9.91 15.928-15.013l-1.428-1.474-3.961-.007c-3.221 4.494-9.234 10.929-14.247 13.247m17.078 15.026c5.097-2.78 11.5-9.545 14.746-14.896l-3.246-3.747c-1.812 2.916-9.65 13.078-15.676 15.864l4.176 2.78m11.656 7.713c5.097-2.785 11.552-7.344 14.798-12.441l-3.714-3.247c-2.312 4.169-8.766 10.591-14.792 13.364zm10.116 5.403c-1.85 2.331-4.649 6.429-19.733 9.623l5.39 1.825c14.356-2.786 19.519-9.701 16.272-10.162l-1.078-.812 1.078.604c5.097-2.78 10.59-6.117 13.838-11.22l-3.715-2.566c-2.311 4.17-8.272 8.676-14.292 11.455zm11.105 5.578-.364-.117c-2.396 3.156-6.338 6.753-17.247 9.227l6.318 1.357c7.955-.928 16.487-8.733 13.708-9.662l-1.266-.422c5.02-2.74 8.48-4.539 13.532-10.526l-3.247-1.85c-4.63 5.564-7.168 8.064-14.116 10.837l2.681 1.156m12.143 3.948c5.098-2.78 6.494-4.175 12.065-10.201l-3.247-.922c-3.246 4.168-6.026 6.974-12.052 9.753z"/></g><path d="m409.182 395.59-13.903-.019v-37.526a200.264 200.264 0 0 0 13.903-7.675zm-17.604-.019-13.916-.026v-29.454a271.05 271.05 0 0 0 13.916-6.208zm-17.617-.026-13.903-.019v-22.753a316.782 316.782 0 0 0 13.903-5.17zm-17.617-.026-13.902-.019v-17.117a345.735 345.735 0 0 0 13.902-4.338zm-17.604-.025-13.915-.02v-12.403a391.067 391.067 0 0 0 13.915-3.616zm-17.617-.026-13.896-.02v-8.565a371.234 371.234 0 0 0 13.896-2.941zm-17.617-.026-106.57-.137v-7.37c19.947 3.143 38.532 4.636 53.259 4.766 15.85.143 34.24-1.669 53.311-5.136zm-110.279-.15-13.909-.013v-10.493a417.68 417.68 0 0 0 13.91 2.539v7.967zm-17.61-.02-13.91-.019v-14.409a440.801 440.801 0 0 0 13.91 3.175v11.254zm-17.617-.024-13.903-.02v-19.214a344.552 344.552 0 0 0 13.903 3.882v15.35zm-17.61-.026-13.903-.02v-25.065a296.385 296.385 0 0 0 13.903 4.734v20.35zm-17.61-.02-13.903-.026v-32.246a256.794 256.794 0 0 0 13.902 5.818v26.452zm-17.618-.026-13.902-.026v-41.266c4.441 2.585 9.097 5.02 13.902 7.312zm335.37-61.798h-14.012l-.519.454c-38.52 33.598-121.987 55.643-175.773 55.156-2.72-.026-5.59-.09-8.565-.214-.824-.04-1.662-.078-2.5-.117-48.026-2.318-124.143-16.89-165.149-51.137l-.52-.435h-13.227l-.532.5c-.059.052-4.87 4.533-9.682 7.793.539 1.123 1.09 2.24 1.65 3.357 4.402-2.916 8.603-6.656 9.908-7.85v25.615a222.391 222.391 0 0 0 10.202 15.045v-40.753h.441c4.689 3.87 9.831 7.474 15.292 10.844v43.513l-4.837-.013a216.598 216.598 0 0 0 9.454 10.221l177.28.24 3.96.007 133.28.182a226.278 226.278 0 0 0 9.467-10.182l-3.253-.007v-47.539c5.455-3.5 10.474-7.162 14.916-10.974h.292v43.565a220.468 220.468 0 0 0 10.195-15.188v-28.377h.695c.318.319.636.643.636.643l9.078 8.708c.565-1.162 1.11-2.35 1.656-3.532l-8.098-7.793-1.734-1.733z" fill="#fff"/><path d="m450.364 342.903c-.546 1.181-1.091 2.37-1.656 3.532a222.557 222.557 0 0 1 -10.41 19.026 220.468 220.468 0 0 1 -10.194 15.188 220.769 220.769 0 0 1 -21.422 25.137c-21.688 21.909-47.903 39.311-77.117 50.688 2.786-1.383 4.331-2.188 8.59-6.812l-2.993-.746c-3.701 3.7-7.668 7.24-14.623 10.02l4.175-.644a215.4 215.4 0 0 1 -9.766 3.286l4.195-4.033-3.448-1.35c-1.663 2.474-4.227 5.02-9.435 7.87-18.078 4.799-37.059 7.364-56.63 7.364-61.578 0-117.344-25.319-157.468-66.072a216.598 216.598 0 0 1 -9.454-10.22 217.847 217.847 0 0 1 -10.896-13.592 221.238 221.238 0 0 1 -20.11-32.812 229.196 229.196 0 0 1 -1.65-3.356 219.524 219.524 0 0 1 -15.753-44.91c-.273-1.175-.526-2.363-.78-3.551a36.79 36.79 0 0 1 -.253-1.156 221.103 221.103 0 0 1 -4.695-45.39c0-29.539 5.838-57.74 16.403-83.52-.701 3.325-.532 6.144.266 9.364-3.708 3.708-6.311 7.955-7.876 13.903l3.032 1.857c.961-4.85 4.844-11.123 8.091-14.831-2.318-7.877 1.175-12.338 2.565-17.903l-2.507-.643c14.884-32.48 37.403-60.76 65.26-82.513-1.37 2.416-2.96 5.494-3.682 7.903l3.247-2.084s3.78-6.286 7.422-11.052c7.091-5.104 14.5-9.8 22.189-14.046l-6.052 3.487c-5.98 7.046-6.767 11.572-8.955 16.74l6.994-1.766c1.246-4.428 4.597-13.526 10.896-20.032 30.954-16.534 66.285-25.916 103.766-25.916 84.208 0 157.558 47.325 194.87 116.773.312 2.188 1.266 7.734-.318 8.532.545 4.358-1.929 9.215-3.598 12.091l1.851 6.26c2.877-3.487 5.046-9.812 4.74-13.305 2.013-1.487 1.078-4.28 1.065-6.292a221.492 221.492 0 0 1 4.812 10.474c-.247 1.272-1.052 4.87-2.552 6.74.85 4.045-1.013 8.175-2.727 11.188l2.311 5.792c1.04-.694 4.033-8.448 3.98-12.733 1.118-1.468 1.41-3.065 1.663-4.429a230.645 230.645 0 0 1 3.792 10.54c-.214 1.765-.779 5.155-2.155 6.46.857 3.877-1.02 6.65-2.182 9.201l2.09 5.793s3.475-7.76 3.384-10.546c.571-1.292 1.104-2.058 1.299-3.071a231.45 231.45 0 0 1 3.266 12.61c-.786 3.623-2.831 7.046-4.474 10.74l.454 3.48s2.78-3.467 5.247-8.415a229.62 229.62 0 0 1 1.429 7.922c-.455 1.345-2.429 7.085-3.656 7.903l.46 2.552s2.455-3.299 3.91-5.617a221.583 221.583 0 0 1 2.097 30.41 220.88 220.88 0 0 1 -4.24 43.168 218.606 218.606 0 0 1 -16.084 49.364zm-200.734-326.754c-129.15 0-234.22 105.072-234.22 234.221 0 129.15 105.07 234.22 234.22 234.22s234.227-105.07 234.227-234.22-105.077-234.22-234.227-234.22z" fill="#de4a2a"/><path d="m352.299 302.506.974-1.558c5.065-8.182 9.26-13.227 13.318-18.11l3.195-3.89 3.682-4.357 1.37 13.48c.668 5.52 1.383 11.228.506 18.61-.474 3.988-3.071 9.774-7.65 13.072-3.13 2.247-6.772 3.007-10.538 2.208-2.637-.558-4.883-2.714-5.708-5.506a9.05 9.05 0 0 1 -.37-2.598c0-2.182 1.169-5.208 3.844-8.552zm-91.896-9.896c1.24-5.675 6.896-14.149 14.227-18.5 4.682-2.779 9.805-2.597 12.454.455.89 1.026 1.52 2.454 1.52 4.156 0 1.766-.682 3.824-2.448 6.032-5.695 7.117-17.753 11.13-23.565 10.766l-2.786-.181zm110.668-82.74c-5.266.046-19.168.156-21.435.175-1.155 2.436-11.922 25.228-11.922 25.228s-20.409.344-22.967.39c-.89 1.779-4.507 9.168-6.598 13.402l23.137-.896s-17.572 38.143-17.604 38.24c-6.747 13.026-23.76 34.78-44.682 33.662-4.35-.24-9.753-2.415-10.831-11.467l-.292-2.461 2.46-.214c23.397-2.059 33.085-10.676 36.793-15.637 5.883-7.89 6.838-15.714 2.623-21.46-4.948-6.774-15.753-8.722-26.85-4.871-20.41 7.084-36.195 30.338-33.793 49.766l.15 1.156-.825.825c-.643.65-4.013 3.837-7.506 3.487-1.578-.156-2.91-.987-3.897-2.5-1.181-1.948-1.74-4.578-1.74-7.805 0-20.533 22.48-65.072 47.916-111.643h-27.266c-11.987 12.357-27.013 37.266-39.15 57.448 0 0-10.604 17.324-10.909 17.805-2.636 3.994-3.526 5.338-5.617 4.39-1.039-.474-1.454-1.098-1.454-2.182 0-1.117.448-2.727 1.123-5.15l5.286-21.35c4.415-18.702 9.402-39.24 14.734-51.156-5.319.039-22.806.169-24.812.188-6.734 8.578-15.11 27.838-23.994 48.39-19.181 44.383-32.772 73.182-46.35 69.266-2.065-.597-3.546-2-4.286-4.078-.37-1.039-.539-2.214-.539-3.48 0-6.137 3.864-14.41 7.299-20.442-5.156 1.85-10.572 3.799-11.364 4.085-6.805 7.688-12.87 20.87-12.87 30.974 0 1.467.123 2.863.396 4.181.896 4.332 3.208 7.28 7.039 9.013 5.818 2.624 11.643 2.74 17.792.357 21.825-8.467 39.17-45.454 43.955-56.59 2.617-6.052 3.59-8.319 6.09-7.591 1.384.402 1.832 1.285 1.832 2.785 0 1.052-.22 2.41-.5 4.11 0 0-.357 2.241-.357 2.286-3.033 17.89-9.695 42.202-15.624 54.215h18.832c3.48-4.747 8.512-13.013 14.344-22.65 6.818-11.266 14.552-24.039 21.454-33.746 6.461-9.098 7.286-10.267 9.591-8.877 2.273 1.377 1.65 2.63-3.422 12.623-8.987 14.046-12.123 33.513-7.143 44.306 2.35 5.09 6.305 8.052 11.688 8.798 10.24 1.156 19.293-7.143 21.156-9.435l1.91-2.344 1.85 2.403c1.714 2.233 3.766 4.052 6.435 5.727 6.72 3.896 29.396 6.364 45.844-10.656l.254-.37 2.818-1.656 1.37-.636 1.026 2.61s.52 1.286.76 1.78c2.603 7.084 7.902 9.662 11.883 10.584 7.967 1.831 17.48-1.208 24.253-7.734l1.429-1.383 1.623 1.156c4.201 2.98 9.097 6.136 13.571 6.935 26.533 4.734 36.643-17.364 37.721-23.078.669-3.526.935-6.701.935-9.597 0-7.234-1.695-12.78-3.247-17.832-1.2-3.922-2.318-7.578-2.318-11.292 0-2.714.903-5.513 2.5-8.422a6570.09 6570.09 0 0 0 -11.305-5.818c-4.22 1.935-21.162 23.35-31.396 36.305-17.961 22.734-18.162 22.643-20.597 21.435l-2.02-2.357c-1.039-3.104 1.13-8.11 2.513-10.818 0 0 23.357-49.624 23.325-49.533l1.136-2.779 44.201-.682a5519.04 5519.04 0 0 1 5.442-13.292c-6.091.098-43.02.669-43.02.669s9.552-20.046 12.013-25.195z" fill="#de4a2a"/><g fill="#fff"><path d="m358.37 301.974c4.253-6.65 7.955-11.299 11.48-15.539.092.89.215 2.227.215 2.227.461 3.663.903 7.189.903 11.156a53.43 53.43 0 0 1 -.384 6.305c-.35 2.994-2.474 7.422-5.694 9.734-2.026 1.455-4.3 1.929-6.747 1.41-.773-.157-1.72-.897-2.104-2.183a4.448 4.448 0 0 1 -.175-1.227c0-2.078 1.357-4.59 3.844-7.084l1.63-1.643s-2.28-2.422-2.968-3.156zm-6.922 14.48c.825 2.793 3.071 4.949 5.708 5.507 3.766.799 7.409.039 10.539-2.208 4.578-3.298 7.175-9.084 7.65-13.071.876-7.383.161-13.091-.507-18.61l-1.37-13.481-3.682 4.357-3.195 3.89c-4.059 4.883-8.253 9.928-13.318 18.11l-.974 1.558 2.623 2.8c-2.675 3.343-3.844 6.37-3.844 8.551a9.05 9.05 0 0 0 .37 2.598z"/><path d="m375.916 252.805c-4.922 3.578-13.546 13.799-31.61 36.65-4.87 6.162-10.066 12.72-13.416 16.655.357-1.006.733-2.039 1.357-3.253 0 0 23.324-49.545 23.409-49.747 1.396-.013 10.136-.155 20.26-.305zm26.162-18.409a5519.04 5519.04 0 0 0 -5.442 13.292l-44.2.682-1.137 2.78c.032-.092-23.325 49.532-23.325 49.532-1.383 2.708-3.552 7.714-2.513 10.818l2.02 2.357c2.435 1.208 2.636 1.299 20.597-21.435 10.234-12.954 27.175-34.37 31.396-36.305 1.234.63 7.805 4.013 11.305 5.818-1.597 2.91-2.5 5.708-2.5 8.422 0 3.714 1.117 7.37 2.318 11.292 1.552 5.052 3.247 10.598 3.247 17.832 0 2.896-.266 6.07-.935 9.597-1.078 5.714-11.188 27.812-37.72 23.078-4.475-.799-9.37-3.955-13.572-6.935l-1.623-1.156-1.43 1.383c-6.772 6.526-16.285 9.565-24.252 7.734-3.98-.922-9.28-3.5-11.883-10.585-.24-.493-.76-1.779-.76-1.779l-1.026-2.61-1.37.636-2.818 1.656-.254.37c-16.448 17.02-39.123 14.552-45.844 10.656-2.669-1.675-4.72-3.494-6.435-5.727l-1.85-2.403-1.91 2.344c-1.863 2.292-10.915 10.591-21.156 9.435-5.383-.746-9.337-3.707-11.688-8.798-4.98-10.793-1.844-30.26 7.143-44.306 5.071-9.993 5.695-11.246 3.422-12.623-2.305-1.39-3.13-.22-9.59 8.877-6.903 9.707-14.637 22.48-21.455 33.746-5.832 9.637-10.864 17.903-14.344 22.65h-18.832c5.929-12.013 12.591-36.325 15.624-54.215 0-.045.357-2.285.357-2.285.28-1.702.5-3.059.5-4.11 0-1.5-.448-2.384-1.831-2.786-2.5-.728-3.474 1.539-6.091 7.59-4.786 11.137-22.13 48.124-43.955 56.591-6.15 2.384-11.974 2.267-17.792-.357-3.831-1.733-6.143-4.681-7.039-9.013-.273-1.318-.396-2.714-.396-4.181 0-10.104 6.065-23.286 12.87-30.974.792-.286 6.208-2.234 11.364-4.085-3.435 6.033-7.299 14.305-7.299 20.442 0 1.266.169 2.441.539 3.48.74 2.078 2.22 3.48 4.286 4.078 13.578 3.916 27.169-24.883 46.35-69.266 8.883-20.552 17.26-39.812 23.994-48.39 2.006-.02 19.493-.15 24.812-.188-5.332 11.916-10.319 32.454-14.734 51.156l-5.286 21.35c-.675 2.423-1.123 4.033-1.123 5.15 0 1.084.415 1.708 1.454 2.182 2.091.948 2.98-.396 5.617-4.39.305-.48 10.91-17.805 10.91-17.805 12.136-20.182 27.162-45.091 39.149-57.448h27.266c-25.435 46.571-47.916 91.11-47.916 111.643 0 3.227.559 5.857 1.74 7.805.987 1.513 2.319 2.344 3.897 2.5 3.493.35 6.863-2.838 7.506-3.487l.825-.825-.15-1.156c-2.402-19.428 13.384-42.682 33.793-49.766 11.097-3.85 21.902-1.903 26.85 4.87 4.215 5.747 3.26 13.572-2.623 21.461-3.708 4.961-13.396 13.578-36.792 15.637l-2.461.214.292 2.46c1.078 9.053 6.48 11.228 10.831 11.468 20.922 1.117 37.935-20.636 44.682-33.662.032-.097 17.604-38.24 17.604-38.24l-23.137.896c2.091-4.234 5.708-11.623 6.598-13.403 2.558-.045 22.967-.39 22.967-.39s10.767-22.791 11.922-25.227c2.267-.019 16.17-.13 21.435-.175-2.46 5.15-12.013 25.195-12.013 25.195s36.929-.571 43.02-.669zm-23.39-29.383-32.11.266s-10.78 22.831-11.922 25.247l-22.929.39-11.415 23.253s17.948-.695 23.35-.91c-2.63 5.722-14.292 31.046-14.292 31.046-5.747 11.085-21.578 31.968-40.104 30.974-3.136-.169-4.682-2.02-5.584-5.09 22.922-2.747 33.292-11.683 37.292-17.033 4.071-5.461 6.136-11.13 6.136-16.37 0-3.922-1.155-7.598-3.487-10.786-6.2-8.48-19.188-11.117-32.305-6.565-21.13 7.338-37.247 29.565-37.247 50.208 0 1.097.098 2.188.202 3.286-1.026.824-2.221 1.565-2.864 1.5-.052-.007-.156-.013-.325-.28-8.642-14.337 32.689-89.753 48.254-118.149l1.935-3.545h-37.429l-.708.7c-12.48 12.56-27.993 38.345-40.46 59.066 0 0-2.994 4.896-5.897 9.65 1.513-6.098 3.11-12.566 3.11-12.566 4.527-19.175 10.17-43.032 15.793-53.552l1.896-3.552-4.033.033-30.811.227-.715.857c-7.253 8.734-16.006 28.974-25.26 50.41-12.7 29.37-30.084 69.597-40.636 66.564-.474-.136-.844-.383-1.09-1.078-1.578-4.435 3.902-17.006 9.824-25.52l4.28-6.162-26.072 9.37-.403.442c-8.675 9.572-16.474 27.487-13.922 39.76 1.202 5.78 4.578 10.071 9.766 12.409 6.949 3.143 14.176 3.299 21.494.455 19.28-7.468 34.513-33.63 42.695-50.617-4.046 19.078-10.468 39.266-15.059 46.474l-2.344 3.688h29.624l.727-.942c3.636-4.766 9.039-13.688 15.292-24.02 4.24-6.986 8.766-14.317 13.273-21.35-2.41 6.883-4.052 13.896-4.052 20.455 0 5.513.915 10.604 2.812 14.72 3.038 6.585 8.376 10.579 15.441 11.56 10.636 1.2 19.669-5.43 23.72-9.43 1.715 1.832 3.39 3.656 5.715 5.098l.065.039c8.585 5.026 32.682 6.902 50.565-10.474 2.461 6.357 7.695 11.058 14.773 12.682 8.902 2.045 19.175-1.189 26.967-7.851 4.338 3 9.215 6 14.137 6.877 27.636 4.935 41.285-16.41 43.26-26.916.727-3.831 1.032-7.292 1.032-10.461 0-7.98-1.864-14.071-3.468-19.253-1.136-3.766-2.09-6.857-2.09-9.818 0-2.676.772-5.247 2.857-8.117l1.649-2.267s-10.91-5.597-14.325-7.357c6.74-.104 16.591-.253 16.591-.253l9.41-22.941s-36.17.551-42.56.655c2.475-5.175 11.981-25.136 11.981-25.136z"/><path d="m277.078 278.234c3.104-1.85 5.604-1.422 6.39-.52.227.267.344.604.344 1 0 .831-.48 1.903-1.396 3.046-3.754 4.695-11.124 7.617-16.078 8.558 1.922-4.032 5.779-9.143 10.74-12.084zm9.078 6.52c1.766-2.209 2.448-4.267 2.448-6.033 0-1.702-.63-3.13-1.52-4.156-2.649-3.052-7.772-3.234-12.454-.455-7.331 4.351-12.987 12.825-14.227 18.5l-.598 2.728 2.786.181c5.812.364 17.87-3.649 23.565-10.766z"/></g></g></svg>