<svg viewBox="0 0 500 502" xmlns="http://www.w3.org/2000/svg"><g fill="none" fill-rule="evenodd"><path d="m250.393 490.19c-132.316 0-239.583-107.267-239.583-239.583 0-132.315 107.267-239.577 239.583-239.577 132.315 0 239.583 107.262 239.583 239.577 0 132.316-107.268 239.583-239.583 239.583zm249.393-239.583c0-137.517-111.876-249.387-249.393-249.387s-249.393 111.875-249.393 249.387c0 137.518 111.875 249.393 249.393 249.393s249.393-111.881 249.393-249.393z" fill="#fff"/><path d="m250.393 476.893c-124.982 0-226.298-101.304-226.298-226.286 0-124.976 101.316-226.286 226.298-226.286 124.976 0 226.292 101.31 226.292 226.286 0 124.982-101.316 226.286-226.292 226.286zm0-465.863c-132.316 0-239.583 107.262-239.583 239.577 0 132.316 107.267 239.583 239.583 239.583 132.315 0 239.583-107.267 239.583-239.583 0-132.315-107.268-239.577-239.583-239.577z" fill="#b02534"/><g fill="#0f182a"><path d="m250.792 435.988c-2.143-2.494-5.256-3.958-8.762-4.119-.22 0-.435-.012-.643-.012-6.935 0-12.018 5.149-12.357 12.53-.34 7.583 4.625 13.315 11.81 13.637 7.291.315 12.66-4.905 13-12.506.166-3.667-.911-7.048-3.048-9.53m-136.054-37.286 6.5 5.703 3.62-10.667-8.918 4.37zm233.262 27.375 7.464-4.392-1.077-.816-7.935-5.952 1.37 9.833zm-241.875-298.613-9.494-2.893 5.28 9.959 5.506-6.679z"/><path d="m443.893 279.601-11.316 8.22 4.316-13.303-11.31-8.22h13.982l4.328-13.298 4.31 13.298h13.987l-11.309 8.22 4.321 13.303-11.31-8.22zm-10.28 83.637c-3.16 5.143-8.042 7.976-13.75 7.976-.387 0-.762-.012-1.155-.035l-1.023-.066.69-7.607.988.077c3.417.25 6.113-1.143 7.964-4.154 1.078-1.756 1.494-3.47 1.179-4.834-.214-.887-.738-1.607-1.577-2.119-.733-.452-1.44-.672-2.161-.672-1.631 0-3.34 1.148-5.304 2.476l-2.357 1.619c-3.934 2.714-6.863 3.869-9.768 3.869-2.012 0-3.928-.578-5.869-1.768-2.643-1.631-4.405-4.071-4.982-6.893-.577-2.797.066-5.88 1.786-8.672 2.684-4.358 6.518-6.566 11.405-6.566l1.196.018.196 7.405-1.244-.024c-2.488 0-4.089.863-5.333 2.88-1.268 2.06-.94 3.953.881 5.078.69.423 1.31.625 1.929.625 1.321 0 2.869-.887 5.267-2.518l2.381-1.625c3.5-2.393 6.512-3.988 9.822-3.988 2.053 0 4.071.637 6.172 1.929 2.679 1.655 4.435 3.952 5.078 6.672.786 3.316-.048 7.096-2.41 10.917zm-39.863 47.387-28.226-28.357 5.66-5.631 23.066 23.178 11.881-11.827 5.167 5.179zm-26.345 20.036-5.709-4.286-12.619 7.47.983 7.066-7.012 4.154-5.685-44.065 1.357-.821 35.935 26.19zm-49.482 24.75-.363-.226-27.84-17.375 5.84 22.761-7.358 1.881-10.083-39.291 1.827-.465.358.233 27.833 17.363-5.827-22.756 7.35-1.887 10.078 39.297zm-76.393 10.053c-.34 0-.679-.012-1.018-.03-11.554-.511-20.197-9.934-19.679-21.416.53-11.5 9.881-20.083 21.536-19.554 11.548.524 20.185 9.935 19.667 21.423-.506 11.16-9.316 19.577-20.506 19.577zm-47.107-7.649-7.661-2.22 11.137-38.428 7.666 2.214zm-15.53-39.25-9.982-5.28-15.31 28.894-7.041-3.739 15.303-28.892-9.97-5.292 3.422-6.452 27 14.31zm-56.107 5.542-6.34-5.553 2.292-6.75-11.048-9.655-6.404 3.13-6.131-5.356 40.083-19.173 1.208 1.036zm-44.334-43.237-1.047-1.548 7.762-32.339-19.732 12.75-4.12-6.375 34.078-22.024 1.006 1.59-7.744 32.315 19.738-12.744 4.119 6.37zm-32.862-93.049 4.328-13.303-11.316-8.22h13.976l4.327-13.298 4.327 13.298h13.97l-11.31 8.22 4.322 13.303-11.31-8.22-11.315 8.22zm.203-104.476 23.625 1.845-17.482-18.273.648-1.518 25.292-.113-17.768-15.596 3.16-7.404 31.798 28.744-.678 1.571-27.107-.041 18.719 19.76-.631 1.512-42.887-2.714 3.31-7.774zm38.53-69.982 42.738 12.322-5.352 6.511-6.827-2.071-9.304 11.34 3.334 6.303-5.161 6.297-20.423-39.464.994-1.238zm34.023-28.887c.53-2.815 2.28-5.422 4.935-7.351 4.196-3.065 8.66-3.625 13.262-1.66l.88.374-2.624 6.929-.959-.41c-2.399-1.03-4.238-.876-6.202.559-1.958 1.422-2.375 3.31-1.113 5.041.84 1.155 1.702 1.578 3.184 1.578 1.096 0 2.465-.244 4.185-.607l2.821-.602c2.548-.541 4.411-.785 6.054-.785 4.047 0 7.077 1.577 9.536 4.946 4.178 5.738 2.571 12.37-4.197 17.298-3.065 2.238-6.357 3.369-9.768 3.369-2.399 0-4.768-.566-7.041-1.673l-.923-.452 3.524-6.774.88.434c3.03 1.524 6.102 1.239 8.941-.827 1.667-1.208 2.709-2.637 2.923-4.012.143-.91-.072-1.774-.649-2.565-.899-1.226-1.958-1.756-3.548-1.756-1.196 0-2.577.291-4.041.595l-2.804.595c-2.291.5-4.125.738-5.774.738-4.125 0-7.137-1.5-9.482-4.72-1.821-2.506-2.535-5.44-2-8.262zm47.381-31.226 7.56 19.673 15.149-5.834-7.572-19.666 7.452-2.87 14.37 37.34-7.435 2.875-4.179-10.857-15.148 5.827 4.178 10.857-7.458 2.863-14.37-37.339zm57.637-15.536 5.732 39.596-7.899 1.148-5.726-39.6zm27.655-2.81 1.857.15 21.03 25.738 1.803-23.417 7.56.583-3.113 40.44-1.875-.136-21.018-25.75-1.81 23.423-7.571-.584 3.137-40.446zm51.595 27.292c3.155-8.154 10.381-13.22 18.857-13.22 2.595 0 5.167.488 7.661 1.447 6.06 2.327 9.827 5.952 11.863 11.398l.34.905-7.09 2.923-.369-.947c-1.042-2.684-2.494-5.464-7.56-7.416a12.391 12.391 0 0 0 -4.458-.851c-5.071 0-9.512 3.339-11.583 8.708-2.81 7.303.238 14.113 7.571 16.94 3.131 1.203 5.834 1.578 8.381 1.131l1.536-3.946-9.512-3.655 2.643-6.821 16.518 6.363-5.548 14.375-.44.149c-2.381.791-4.679 1.178-7.024 1.178-2.976 0-5.988-.607-9.226-1.851-11.352-4.375-16.75-15.899-12.56-26.81zm57.363 11.834 4.304-5.911 24.69 18-4.303 5.91-9.12-6.654-19.255 26.423-6.44-4.697 19.25-26.422-9.126-6.65zm42.363 34.405c6.185 0 12.036 2.88 16.048 7.898 3.482 4.357 5.113 9.697 4.571 15.036-.547 5.41-3.28 10.345-7.696 13.881-3.774 3.024-8.214 4.619-12.845 4.619-6.179 0-12.036-2.887-16.042-7.899-3.488-4.357-5.113-9.696-4.577-15.041.547-5.411 3.28-10.34 7.696-13.875 3.78-3.024 8.214-4.62 12.845-4.62zm10.851 142.172c0 89.917-72.892 162.798-162.797 162.798-89.91 0-162.798-72.881-162.798-162.798 0-89.91 72.887-162.797 162.798-162.797 89.905 0 162.797 72.886 162.797 162.797zm32.06-92.333-13.929 30.184 21.846-8.643 2.803 7.06-37.756 14.923-.666-1.756.172-.381 13.756-29.798-21.845 8.637-2.804-7.054 37.756-14.922zm-194.858-133.954c-124.982 0-226.298 101.31-226.298 226.286 0 124.982 101.316 226.286 226.298 226.286 124.976 0 226.292-101.304 226.292-226.286 0-124.976-101.316-226.286-226.292-226.286z"/><path d="m401.595 142.024c2.988 0 5.94-1.095 8.548-3.179 5.917-4.738 6.952-12.25 2.452-17.875-2.422-3.03-5.774-4.696-9.434-4.696-2.988 0-5.947 1.101-8.548 3.184-5.91 4.738-6.946 12.25-2.452 17.87 2.428 3.03 5.774 4.696 9.434 4.696"/></g><path d="m250.393 403.94c-84.679 0-153.333-68.648-153.333-153.333 0-84.678 68.654-153.327 153.333-153.327 84.684 0 153.333 68.649 153.333 153.327 0 84.685-68.649 153.333-153.333 153.333zm0-316.13c-89.91 0-162.798 72.886-162.798 162.797 0 89.917 72.887 162.798 162.798 162.798 89.905 0 162.797-72.881 162.797-162.798 0-89.91-72.892-162.797-162.797-162.797zm-186.5 186.708 11.31-8.22h-13.97l-4.329-13.298-4.328 13.298h-13.975l11.316 8.22-4.328 13.303 11.316-8.22 11.31 8.22zm398.297-8.22h-13.988l-4.31-13.298-4.327 13.298h-13.982l11.31 8.22-4.316 13.303 11.316-8.22 11.31 8.22-4.322-13.303 11.31-8.22" fill="#b02534"/><path d="m254.863 224.732c-9.22 21.91-10.726 53.149-.143 74.066 11.03-18.596 23.69-48.703 23.69-74.084 0-23.31-15.654-18.726-23.547.018" fill="#fff"/><path d="m328.387 303.726c-25.179 44.887-58.37 41.726-72.66 33.97-6.787 6.947-13.935 12.798-21.292 17.209-9.012 5.38-18.435 8.601-27.923 8.607h-.018c-4.88 0-9.768-.875-14.482-2.72-10.34-4.018-18.143-11.25-23.066-20.542-4.94-9.292-7.16-20.512-7.16-32.982.018-18.328 4.791-39.47 13.553-61.744 4.893-12.417 11.03-25.173 18.316-37.97-11.661 2.1-20.328 5.994-26.316 10.547-4.1 3.095-6.964 6.476-8.827 9.828a20.149 20.149 0 0 1 7.256 4.91c3.34 3.512 5.28 7.976 5.482 12.59.214 4.85-1.5 9.273-4.857 12.446-2.905 2.768-6.816 4.304-11.012 4.304-5.131 0-10.155-2.209-13.905-6.15-6.791-6.66-10.34-15.642-10.327-25.202 0-14.69 8.315-30.452 25.232-42.333 16.946-11.887 42.458-20.012 77.625-20.018 2.292 0 6.018.084 8.893.173-13.232 18.452-26.274 42.803-36.095 67.184-10.375 25.69-17.12 51.548-17.09 70.15 0 7.505 1.101 13.767 3.19 18.243 2.12 4.494 4.888 7.209 9.042 8.738 2.977 1.066 5.87 1.548 8.733 1.554 6.1 0 12.267-2.226 18.44-6.423 2.893-1.97 5.768-4.369 8.577-7.125-4.434-5.333-7.88-11.547-10.422-18.268-4.19-11.089-6.042-23.595-6.042-36.387.006-16.416 3.06-33.28 8.464-48.13 5.429-14.84 13.15-27.709 23.078-36.006 6.607-5.512 14.905-8.965 23.357-8.959 3.434.03 7.536 1.107 11.065 3.101 3.554 2.012 7.048 5.006 10.143 9.012 6.185 8.024 10.685 20.107 10.673 36.554 0 11.964-2.62 26.208-8.155 43.19-5.917 18.262-14.994 34.548-25.178 49.25 16.25-.553 42.047-27.797 48.767-71.553 8.244-53.53-10.142-74.101-30.744-78.5 0-11.804 18.703-32.41 39.268-15.935 27.726 22.256 26.637 101.572-3.583 155.387zm-77.994-196.976c-79.447 0-143.857 64.41-143.857 143.857 0 79.453 64.41 143.863 143.857 143.863 79.452 0 143.869-64.41 143.869-143.863 0-79.446-64.417-143.857-143.87-143.857z" fill="#fff"/><g fill="#0f182a"><path d="m250.393 394.47c-79.447 0-143.857-64.41-143.857-143.863 0-79.446 64.41-143.857 143.857-143.857 79.452 0 143.869 64.41 143.869 143.857 0 79.453-64.417 143.863-143.87 143.863zm0-297.19c-84.679 0-153.333 68.649-153.333 153.327 0 84.685 68.654 153.333 153.333 153.333 84.684 0 153.333-68.648 153.333-153.333 0-84.678-68.649-153.327-153.333-153.327z"/><path d="m254.863 224.732c7.893-18.744 23.548-23.327 23.548-.018 0 25.381-12.661 55.488-23.69 74.084-10.584-20.917-9.078-52.155.142-74.066zm15.935-20.488c-25.679 0-39.584 72-16.12 103.423 26.989-39.9 39.637-103.423 16.12-103.423z"/><path d="m324.137 301.31c-16.72 29.75-35.81 35.75-48.91 35.946-6.59.095-14.269-2.708-19.769-5.726-19.56 21.071-42 32.56-61.714 24.857-41.702-16.292-32.94-85.964 8.893-154.774-31.042 2.607-46.851 16.447-50.66 29.768 3.648.042 7.44 1.643 10.368 4.72 5.274 5.548 5.62 13.762.786 18.345-4.816 4.596-13.006 3.816-18.286-1.732-23.815-23.404-2.226-79.482 89.161-79.488-37.226 56.209-69.012 151.512-33.66 164.197 15.612 5.6 30.803-2.179 43.82-16.34-38.005-38.244-11.291-144.637 32.37-143.125 13.375 0 40.006 23.679 18.869 85.548-6.84 19.482-16.81 38.351-28.44 54.09 3.868 1.88 8.541 2.19 13.642.678 18.381-5.417 41.363-33.453 47.732-74.738 1.411-9.262 2.03-17.506 2.03-24.851 0-40.524-19.286-53.691-32.006-57.953 1.554-4.345 5.548-9.428 10.857-11.946 6.31-3.042 13.101-1.857 19.673 3.404 11.899 9.548 18.69 32.697 18.083 61.917-.59 30.601-8.934 62.37-22.84 87.203zm7.833-152.97c-20.565-16.477-39.268 4.13-39.268 15.934 20.602 4.399 38.988 24.97 30.744 78.5-6.72 43.756-32.517 71-48.767 71.553 10.184-14.702 19.261-30.988 25.178-49.25 5.536-16.982 8.155-31.226 8.155-43.19.012-16.447-4.488-28.53-10.673-36.554-3.095-4.006-6.589-7-10.143-9.012-3.53-1.994-7.63-3.071-11.065-3.1-8.452-.007-16.75 3.446-23.357 8.958-9.929 8.297-17.649 21.166-23.078 36.006-5.404 14.85-8.458 31.714-8.464 48.13 0 12.792 1.851 25.298 6.042 36.387 2.541 6.72 5.988 12.935 10.422 18.268-2.81 2.756-5.684 5.155-8.577 7.125-6.173 4.197-12.34 6.423-18.44 6.423-2.864-.006-5.756-.488-8.733-1.554-4.154-1.53-6.922-4.244-9.041-8.738-2.09-4.476-3.19-10.738-3.19-18.244-.03-18.601 6.714-44.458 17.089-70.149 9.821-24.38 22.863-48.732 36.095-67.184-2.875-.09-6.601-.173-8.893-.173-35.167.006-60.679 8.131-77.625 20.018-16.917 11.881-25.232 27.643-25.232 42.333-.012 9.56 3.536 18.542 10.327 25.203 3.75 3.94 8.774 6.149 13.905 6.149 4.196 0 8.107-1.536 11.012-4.304 3.357-3.173 5.071-7.595 4.857-12.446-.202-4.614-2.143-9.078-5.482-12.59a20.149 20.149 0 0 0 -7.256-4.91c1.863-3.352 4.726-6.733 8.827-9.828 5.988-4.553 14.655-8.446 26.316-10.547-7.286 12.797-13.423 25.553-18.316 37.97-8.762 22.274-13.535 43.416-13.553 61.744 0 12.47 2.22 23.69 7.16 32.982 4.923 9.292 12.727 16.524 23.066 20.542a39.587 39.587 0 0 0 14.482 2.72h.018c9.488-.006 18.91-3.226 27.923-8.607 7.357-4.411 14.505-10.262 21.291-17.209 14.292 7.756 47.482 10.917 72.66-33.97 30.221-53.815 31.31-133.13 3.584-155.387z"/></g><path d="m254.679 307.667c-23.465-31.423-9.56-103.423 16.119-103.423 23.517 0 10.869 63.524-16.12 103.423zm74.214-155.477c-6.572-5.261-13.363-6.446-19.673-3.404-5.31 2.518-9.303 7.6-10.857 11.946 12.72 4.262 32.006 17.429 32.006 57.953 0 7.345-.619 15.589-2.03 24.85-6.369 41.286-29.35 69.322-47.732 74.739-5.101 1.512-9.774 1.202-13.643-.679 11.631-15.738 21.601-34.607 28.44-54.089 21.138-61.87-5.493-85.548-18.868-85.548-43.661-1.512-70.375 104.881-32.37 143.125-13.017 14.161-28.208 21.94-43.82 16.34-35.352-12.685-3.566-107.988 33.66-164.197-91.387.006-112.976 56.084-89.16 79.488 5.279 5.548 13.47 6.328 18.285 1.732 4.833-4.583 4.488-12.797-.786-18.345-2.928-3.077-6.72-4.678-10.369-4.72 3.81-13.321 19.62-27.16 50.66-29.768-41.832 68.81-50.594 138.482-8.892 154.774 19.714 7.702 42.155-3.786 61.714-24.857 5.5 3.018 13.179 5.821 19.768 5.726 13.101-.196 32.19-6.196 48.91-35.946 13.906-24.834 22.25-56.602 22.84-87.203.607-29.22-6.184-52.369-18.083-61.917z" fill="#b02534"/><path d="m86 192.321-18.72-19.761 27.107.041.678-1.571-31.797-28.744-3.16 7.404 17.767 15.596-25.292.113-.648 1.518 17.482 18.273-23.625-1.845-3.31 7.774 42.887 2.714zm43.827-94.863c1.65 0 3.483-.238 5.774-.738l2.804-.595c1.464-.304 2.845-.595 4.041-.595 1.59 0 2.65.53 3.548 1.756.577.791.792 1.654.649 2.565-.214 1.375-1.256 2.804-2.923 4.012-2.839 2.066-5.91 2.351-8.94.827l-.881-.434-3.524 6.774.923.452c2.273 1.107 4.642 1.673 7.041 1.673 3.411 0 6.703-1.131 9.768-3.37 6.768-4.928 8.375-11.559 4.197-17.297-2.459-3.369-5.489-4.946-9.536-4.946-1.643 0-3.506.244-6.054.785l-2.821.602c-1.72.363-3.09.607-4.185.607-1.482 0-2.345-.423-3.184-1.578-1.262-1.732-.845-3.619 1.113-5.041 1.964-1.435 3.803-1.59 6.202-.56l.959.41 2.625-6.928-.881-.375c-4.602-1.964-9.066-1.404-13.262 1.661-2.655 1.929-4.405 4.536-4.935 7.351-.535 2.822.179 5.756 2 8.262 2.345 3.22 5.357 4.72 9.482 4.72m50.274-6.863-4.178-10.857 15.148-5.827 4.179 10.857 7.435-2.875-14.37-37.34-7.452 2.87 7.572 19.666-15.15 5.834-7.559-19.673-7.452 2.869 14.369 37.34zm48.994-13.285-5.732-39.596-7.893 1.143 5.726 39.601 7.9-1.148m28.166-24.798 21.018 25.75 1.875.137 3.113-40.44-7.56-.584-1.803 23.417-21.03-25.738-1.857-.15-3.137 40.447 7.571.584zm57.911 36.494c3.238 1.244 6.25 1.851 9.226 1.851 2.345 0 4.643-.387 7.024-1.178l.44-.15 5.548-14.374-16.518-6.363-2.643 6.821 9.512 3.655-1.536 3.946c-2.547.447-5.25.072-8.38-1.13-7.334-2.828-10.382-9.638-7.572-16.941 2.071-5.37 6.512-8.708 11.583-8.708 1.488 0 2.988.285 4.458.85 5.066 1.953 6.518 4.733 7.56 7.417l.369.947 7.09-2.923-.34-.905c-2.036-5.446-5.804-9.071-11.863-11.398-2.494-.959-5.066-1.447-7.66-1.447-8.477 0-15.703 5.066-18.858 13.22-4.19 10.911 1.208 22.435 12.56 26.81m41.119 22.792 19.256-26.423 9.119 6.655 4.303-5.911-24.69-18-4.304 5.91 9.125 6.65-19.25 26.422 6.44 4.697m38.322 7.66c2.601-2.083 5.56-3.184 8.548-3.184 3.66 0 7.012 1.666 9.434 4.696 4.5 5.625 3.465 13.137-2.452 17.875-2.607 2.084-5.56 3.179-8.548 3.179-3.66 0-7.006-1.667-9.434-4.697-4.494-5.619-3.459-13.13 2.452-17.869zm-12.815 7.47c-.536 5.346 1.089 10.685 4.577 15.042 4.006 5.012 9.863 7.899 16.042 7.899 4.63 0 9.071-1.595 12.845-4.619 4.417-3.536 7.149-8.47 7.696-13.881.542-5.34-1.089-10.679-4.571-15.036-4.012-5.018-9.863-7.898-16.048-7.898-4.63 0-9.065 1.595-12.845 4.619-4.417 3.535-7.149 8.464-7.696 13.875zm27.833 51.572 21.845-8.637-13.756 29.798-.172.38.666 1.757 37.756-14.923-2.803-7.06-21.846 8.643 13.929-30.184-.667-1.75-37.756 14.922zm-301.238 173.994-19.738 12.744 7.744-32.315-1.006-1.59-34.078 22.024 4.12 6.375 19.732-12.75-7.762 32.34 1.047 1.547 34.06-22.006-4.12-6.369m43.501 51.762 9.97 5.292-15.303 28.892 7.041 3.739 15.31-28.893 9.982 5.28 3.422-6.453-27-14.31zm34.869 51.339 7.66 2.22 11.143-38.434-7.666-2.214zm54.078 2.429c-7.185-.322-12.15-6.054-11.81-13.637.339-7.381 5.422-12.53 12.357-12.53.208 0 .423.012.643.012 3.506.16 6.619 1.625 8.762 4.12 2.137 2.481 3.214 5.862 3.047 9.529-.339 7.601-5.708 12.821-13 12.506zm1.529-33.56c-11.655-.53-21.006 8.054-21.536 19.554-.518 11.482 8.125 20.905 19.679 21.417.34.017.678.03 1.018.03 11.19 0 20-8.417 20.506-19.578.518-11.488-8.12-20.899-19.667-21.423zm59.941-6.928 5.827 22.756-27.833-17.363-.358-.233-1.827.465 10.083 39.291 7.358-1.88-5.84-22.762 27.84 17.375.363.226 1.815-.465-10.077-39.297zm91.94-17.721-23.065-23.178-5.661 5.63 28.226 28.358 17.548-17.458-5.167-5.179zm36.696-54.166c-2.1-1.292-4.119-1.929-6.172-1.929-3.31 0-6.322 1.595-9.822 3.988l-2.38 1.625c-2.4 1.631-3.947 2.518-5.268 2.518-.62 0-1.239-.202-1.929-.625-1.821-1.125-2.149-3.018-.881-5.077 1.244-2.018 2.845-2.881 5.333-2.881l1.244.024-.196-7.405-1.196-.018c-4.887 0-8.72 2.208-11.405 6.566-1.72 2.791-2.363 5.875-1.786 8.672.577 2.822 2.34 5.262 4.982 6.893 1.94 1.19 3.857 1.768 5.87 1.768 2.904 0 5.833-1.155 9.767-3.87l2.357-1.618c1.965-1.328 3.673-2.476 5.304-2.476.72 0 1.428.22 2.16.672.84.512 1.364 1.232 1.578 2.12.315 1.362-.101 3.077-1.179 4.833-1.85 3.011-4.547 4.404-7.964 4.154l-.988-.077-.69 7.607 1.023.066c.393.023.768.035 1.155.035 5.708 0 10.59-2.833 13.75-7.976 2.363-3.821 3.197-7.601 2.41-10.917-.642-2.72-2.398-5.017-5.077-6.672m-309.273 57.482-.435 1.274-6.5-5.703 1.202-.595 8.917-4.369zm-26.518-3.208 6.13 5.357 6.405-3.131 11.048 9.655-2.292 6.75 6.34 5.553 13.66-42.321-1.208-1.036zm259.232 20.946 1.077.816-7.464 4.392-.179-1.327-1.369-9.833zm-17.024-19.869 5.685 44.065 7.012-4.154-.983-7.066 12.62-7.47 5.708 4.286 7.25-4.292-35.935-26.19zm-240.732-276.429 9.494 2.893 1.292.387-5.506 6.679zm12.28 23.197-3.334-6.304 9.304-11.339 6.827 2.071 5.352-6.511-42.739-12.322-.994 1.238 20.423 39.464 5.16-6.297z" fill="#fff"/></g></svg>