<svg height="500" viewBox="0 0 500 500" width="500" xmlns="http://www.w3.org/2000/svg" xmlns:xlink="http://www.w3.org/1999/xlink"><mask id="a" fill="#fff"><path d="m495.52 399.998555v-398.818555h-495.518v398.818555z" fill="#fff" fill-rule="evenodd"/></mask><g fill="none" fill-rule="evenodd" transform="translate(0 48)"><path d="m346.157 190.0725c-.815 3.68-1.395 7.55-1.555 11.66-5.45 7.115-10.64 12.615-13.985 14.735-1.27.795-2.125 1.165-2.815 1.435-.085-.7-.145-1.455-.145-2.32 0-2.13.315-4.91.86-8.24 6.65-5.485 12.48-11.27 17.64-17.27m-130.68 58.645c-3.665 4.72-6.645 7.335-8.34 8.35 1.58-6.26 5.5-18.575 10.05-32.01-.64 2.865-1.385 5.78-1.61 8.445-.265 3.225-.4 6.28-.4 9.15 0 2.165.145 4.12.3 6.065m-34.805-21.195c-1.645 4.63-2.84 7.985-2.84 7.985s-6.475 18.86-7.465 21.745c-3.35 4.99-7.94 9.525-11.46 12.35.405-3.965 1.32-8.34 3.16-13.415 4.875-10.485 12.065-21.495 18.605-28.665m221.27 2.185c5.135-4.33 10.155-9.685 15.005-16.93 0 0 .445-.755 1.05-1.775.8 1.255 1.53 2.605 2.54 3.61 2.005 2.005 5.25 3.81 8.985 5.175-6.785 2.455-16.175 5.83-27.58 9.92m-70.525 25.235c9.1-5.66 17.865-14.105 24.42-22.625 4.88 4.31 10.97 6.78 18.185 7.39-13.02 4.66-27.33 9.78-42.605 15.235m158.645-50.32c-2.775 16.835-18.35 29.105-31.355 35.115-5.23 2.415-32.845 13.505-67.815 27.535-71.845 28.9-192.19 78.785-201.275 83.105l-8.335 3.93c-23.45 10.995-47.705 22.38-63.475 38.855l-2.45 2.55-2.9-2.015c-14.045-9.805-28.535-13.48-59.66-15.155l-1.99-.085-1.155-1.62-2.16-3.055-3.185-4.435 3.46-8.375c.04-.015.08-.035.12-.045l-.055-.085 5.115-1.84c15.875-5.765 80.02-28.655 154.29-55.16 101.795-36.345 217.17-77.515 233.92-83.735 4.515-1.675 12.905-4.79 19.235-8.69 3.42-2.11 7.5-4.925 10.36-8.39-.04-.775-.43-3.685-3.99-6.72-4.085 11.325-13.865 19.27-26.25 20.86-7.45.935-13.79-2.435-16.945-5.59-2.575-2.56-4.325-6.295-4.895-10.14-1.715 3.215-3.48 6.255-5.29 8.955-11.795 17.625-24.105 25.88-37.64 25.245-8.735-.4-15.45-3.655-20.37-9.875-10.435 15.36-29.535 31.24-43.14 31.77-5.02.21-9.65-1.52-13.055-4.87-3.575-3.505-5.88-8.4-6.31-13.45-.345-4.2-.035-10.53.675-16.27-.235.16-.47.315-.7.46-1.495 6.985-3.565 12.73-6.095 17.91-2.575 7.525-5.99 13.58-10.04 19.575-6.275 9.285-19.495 18.805-33.675 17.735-6.63-.51-12.225-3.67-16.09-8.905-10.785 16.025-27.355 27.81-40.025 27.81-2.86 0-10.215 0-14.19-7.235-7.41 9.14-15.635 15.18-19.34 17.65-6.16 4.1-14.81 5.48-20.565 3.295-10.195-3.89-10.86-15.45-11.08-19.245-.48-8.4 2.97-22.975 9.635-37.61 2.735-7.315 6.35-14.945 10.725-22.105-1.645-.04-3.265-.255-4.83-.69-4.02 6.67-12.06 13.05-19.64 16.685-1.59 10.985-4.84 22.66-9.455 33.775-.535 1.295-1.135 2.66-1.77 4.065-.565 1.49-1.145 2.97-1.755 4.44-4.695 11.265-12.92 27-25.595 38.095-10.32 9.05-21.675 13.2-33.725 12.345-10.5-.74-20.97-6.435-27.35-14.825-10.665-14.065-15.24-34.42-13.235-58.895 1.09-13.25 4.675-26.445 10.225-38.495 4.92-13.345 12.225-25.675 21.31-35.665.85-3.255 2.115-6.41 3.75-9.37 2.685-9.405 8.865-17.85 17.275-23.125 9.815-6.15 21.695-7.235 33.44-2.995 13.305 4.775 28.675 20.01 28.435 64.845 1.955-1.28 3.64-2.65 4.96-4.035.015-.095.02-.175.03-.25.345-2.57 4.125-13.38 4.55-14.87.21-.745.405-1.255.595-1.59 1.835-4.255 5.665-5.505 12.215-4.015 10.43 2.37 17.765 1.185 23.8-3.84 1.89-1.58 4.01-2.26 5.96-1.94 1.7.29 3.155 1.32 4.11 2.92 1.215 2.035 5.115 6.445 7.255 8.58 1.415 1.415 2.23 3.55 2.16 5.745.66 3.62-2.95 10.835-5.75 13.67-6.795 6.935-15.16 19.205-21.03 31.885-2.33 6.435-3.78 12.69-3.805 18.1-.02 2.565.56 3.53.715 3.66.205.095 1.29.07 2.855-.845 3.94-2.31 11.485-8.89 16.405-16.38 2.165-6.13 4.63-13.37 7.19-20.92 5.385-15.79 10.93-32.12 14.99-42.245 0 0 3.005-7.21 3.525-8.51l.535-1.33c-1.99-3.25-2.4-7.525-1.11-11.9.655-2.215 1.69-4.31 3.005-6.185.12-.77.29-1.545.525-2.32 1.81-6.165 6.57-11.355 12-13.67 1.83-1.35 2.92-2.54.34-4.275l-14.805-8.07s-3.89-2.36-5.01-3.045c-.425-.265-.79-.545-1.085-.795-1.65-1.3-3.04-3-2.995-6.05.02-1.15.04-1.445.46-3.125.17-.705.41-1.16.585-1.66-16.045-1.62-31.145-4.375-31.145-4.375-36.795 1.65-36.45-.7-34.015-4.365 6.395-9.635 20.76-12.85 20.76-12.85-5.555-2.075-11.945-4.37-17.83-6.88-.79.04-1.715.075-2.735.135-3.605.175-8.445.44-12.755.82-7.82.64-17.835 1.695-33.785 2.66-18.825.19-22.21-5.555-22.21-5.555-6.88-.3-7.425-1.755-7.425-1.755-7.485-.95-8.41-3.355-8.41-3.355-3.665-1.45-17.245-6.015 4.325-7.185-3.835-2.84 1.845-3.225 3.045-3.44 2.665-3.29 4.71-3.09 4.71-3.09 3.57-2.845 4.66-2.35 12.33-1.675 8.4.725 27.73 3.87 43.41 5.41 2.17.205 4.245.38 6.235.525.375-.02.695-.045.895-.045 6.905-.095 14.405-2.34 21.23-4.13 6.025-1.58 11.18-3.4 15.48-5.925 10.825-6.39 19.51-9.595 26.555-12.39 0 0 23.76-11.135 40.39-15.265 9.92-2.465 7.4-2.755 16.505-9.19 11.89-8.425 16.965-21.085 34.655-25.345 12.425-2.995 18.95-3.17 23.5-.74 6.67 3.56 8.18 6.725 8.18 6.725s3.5.65 6.26.905c4.52.415 4.71.435 6.56.685 5.205.725 7.12.94 11.445 3.675 0 0-12.875 4.975-15.68 6.32-3.635 1.75-5.95 3.3-5.95 3.3.575 7.05-11.995 17.4-12.18 20.78-.52 10.06-.43.705.05 14.865.235 6.52-.84 11.14-1.655 13.82-4.905 16.21-11.775 41.625-67.74 47.855l-6.74.75c-.05 0-1.605.14-3.765.5-3.44 1.55-7.945 4.28-5.81 7.355.135.145 1.165 1.09 8.06 4.725 1.625.845 24.985 12.525 21.68 17.92 0 0 1.535 2.27.265 4.54-1.275 2.26-4.275 5.445-5.23 5.845-.34.155-1.085.345-2.01.545-.655 2.175-1.68 4.22-2.965 6.075-.125.775-.295 1.55-.525 2.335-.065.23-.14.44-.215.65l1.99-.57-2.985 7.75c-7.91 20.615-21.395 60.145-24.35 72.3-.37 1.515-.61 3.58.32 4.77.2.245 1.27.62 3.395.31 3.695-.53 9.1-5.99 13.36-11.74-.5-4.635-.5-10.07.015-16.29.635-7.71 3.305-16.625 7.02-24.265 1.605-4.635 3.655-9.13 5.96-13.07.435-4.79 2.18-10.175 4.855-14.745 1.745-4.905 5.05-9.245 9.68-12.485 8.665-6.045 18.485-7.735 26.95-4.635 5.185 1.905 11.675 5.295 15.885 14.74 2.005 4.465 3.95 9.47 4.71 17.16 1.235-.84 2.59-1.83 3.98-2.865 1.215-4.825 2.525-9.54 4.155-14.9 1.63-5.35 3.9-11.41 6.67-17.61 8.26-21.56 23.985-48.57 40.28-54.76 3.435-1.295 10.39-2.115 14.365 1.2 4.85 4.075 6.975 10.475 6.12 18.545-.895 8.35-2.97 16.53-6.22 24.435-2.785 7.8-6.44 15.515-10.28 21.865-7.095 11.72-17.005 22.735-29.49 32.79-.995 5.63-1.39 10.065-.92 13.485.395 2.63 1.245 3.285 2.265 3.82.345.19 2.615.325 7.07-2.47 4.445-2.815 10.56-9.685 15.845-16.7.13-11.9 4.175-22.635 7.405-29.335 2.4-6.855 5.265-12.04 6.64-14.33 6.6-11.015 15.465-18.425 25.005-20.9 9.57-2.49 19.685 3.615 22.55 13.615 1.685 5.95 1.22 12.81-1.17 19.465-1.77 7.1-5.555 14.525-9.95 20.245-3.055 3.98-7.875 9.03-15.125 13.695.615.095 1.275.11 1.97.09 7.47-.335 13.91-7.625 23.705-26.96l.11-.2c3.985-7.87 8.965-17.665 11.93-24.39 5.415-12.305 9.085-19.145 12.325-22.855l.855-.985 1.265-.32 17.2-4.255 6.795-1.68-1.8 6.76c-.87 3.255-.615 6.58.7 9.39.485 1.05 1.345 2.685 2.445 4.745 7.09 13.385 10.525 21.835 11.065 27.355 12 4.72 18.565 12.84 18.565 23.09 0 3.275-.42 6.255-1.175 8.99m-13.59-34.895c-1.14-5.985-4.46-14.06-11.075-26.545-.005-.015-2.345-4.54-2.345-4.54-.54-1.155-.81-2.44-.81-3.78 0-.885.12-1.795.365-2.705l1.795-6.765c.1-.365.145-.735.145-1.1 0-1.11-.43-2.195-1.225-3.005-1.065-1.085-2.62-1.52-4.09-1.16l-23.995 5.935-1.3.335c-.845.215-1.6.68-2.17 1.34l-.855.98c-3.545 4.065-7.32 11.005-13.01 23.945 0 0-1.09 2.22-2.545 5.2-.14-2.25-.29-4.51-.88-6.595-3.505-12.22-15.95-19.66-27.755-16.585-5.445 1.41-10.655 4.265-15.425 8.29 1.575-5.345 2.85-10.79 3.445-16.35.145-1.33.215-2.62.215-3.875 0-7.76-2.675-14.07-7.84-18.41-5.845-4.88-14.745-3.395-18.635-1.93-18.005 6.845-34.29 35.11-42.765 57.24 0 .02-6.77 17.9-6.77 17.9s-1.015 3.64-2.05 7.34c-.865-2.755-1.84-5.15-2.785-7.245-4.91-11.015-12.805-14.985-18.315-17.01-9.8-3.585-21.055-1.715-30.885 5.145-3.11 2.175-5.66 4.86-7.715 7.845-.99 1.235-2.1 2.995-3.13 4.755.005-.015.03-.08.03-.08.19-.5.285-1.02.285-1.54 0-.83-.425-1.58-.89-2.285.555-1.13.71-1.46 1.27-2.6.325-.095.805-.235.805-.235 2.42-1.015 6.055-5.59 7.215-7.645.76-1.365 1.065-2.76 1.065-4.08 0-1.325-.56-2.315-1.015-3.365.14-1.12.295-2.29.295-2.29-.51-1.82-2.07-7.36-23.74-18.485-.185-.1-3.255-1.855-5.41-3.085.525-.34 1.275-.755 2.21-1.205.825-.11 2.735-.37 2.735-.37l6.91-.76c57.96-6.455 66.225-33.815 71.16-50.165l.215-.71c1.24-4.09 1.87-8.56 1.87-13.285 0-.64-.01-1.285-.035-1.935l-.365-8.335.005-1.175s.3-4.9.305-4.955c.01.425 3.375-4.04 3.375-4.04 3.435-4.18 7.375-9.21 8.4-14.245 1.57-.87 3.935-2.175 3.935-2.175l15.365-6.185c1.49-.6 2.55-2 2.695-3.6.01-.135.02-.27.02-.405 0-1.455-.725-2.83-1.97-3.62-5-3.165-7.595-3.525-12.76-4.24-.395-.06-7-.755-7-.755-.095-.005-2.7-.385-4.455-.635-1.385-1.68-3.835-4.025-8.505-6.515-5.665-3.035-12.855-2.94-26.52.35-12.805 3.085-19.545 10.07-26.065 16.83-3.235 3.35-6.29 6.515-10.065 9.185l-5.86 4.475c-2.71 2.205-3.125 2.55-9.2 4.055-16.84 4.185-40.19 15.085-41.18 15.545.245-.1-1.695.66-1.695.66-6.715 2.645-15.075 5.93-25.215 11.92-3.565 2.09-8.14 3.83-14.39 5.465l-2.5.665c-5.975 1.6-12.155 3.255-17.695 3.33s-.865.04-.885.04c-.02-.015-5.78-.505-5.78-.505l-43.45-5.41-2.27-.21c-5.47-.515-8.24-.58-12.235 2.285-1.25.28-2.76 1.235-4.57 2.885-1.95.29-4.97 1.035-6.295 3.635-6.715.695-10.635 2.115-11.23 5.885-.045.31-.065.605-.065.895 0 4.285 5.185 6.3 9.45 7.935 1.445 1.43 4.16 2.89 9.09 3.7 1.89 1.185 4.525 1.69 7.17 1.9 2.785 2.465 9.345 5.855 24.265 5.705.215-.01 27.53-2.11 27.53-2.11l6.565-.57c.02 0 12.61-.81 12.61-.81.02 0 1.76-.09 1.82-.09.835.325 3.385 1.315 6.75 2.625-4.465 2.3-9.305 5.525-12.55 10.405-.52.785-1.65 2.495-1.65 4.53 0 .85.2 1.76.72 2.68 2.115 3.74 6.44 5.24 38.22 3.83 2.03.36 13.34 2.335 26.255 3.82-.08.535-.14.965-.14.965v.215c0 5.625 3.475 8.365 4.625 9.275-.105-.085 1.485 1.075 1.485 1.075.015.005 5.04 3.065 5.04 3.065s8.71 4.75 12.31 6.715c-5.395 3.28-9.935 8.285-11.735 14.43 0 .005-.355 1.57-.52 2.295-2.375 3.715-3.005 6.195-3.005 6.195-.625 2.1-.925 4.185-.925 6.2 0 2.32.93 4.345 1.74 6.395-.035.08-5.36 13.625-7.57 19.845-.545-1.945-1.375-3.775-2.785-5.185-2.155-2.145-5.695-6.22-6.605-7.745-1.605-2.685-4.115-4.445-7.065-4.95-3.24-.525-6.575.5-9.43 2.88-4.97 4.135-10.985 5.02-20.105 2.95-8.625-1.96-14.36.21-17.08 6.475-.01.11-.81 2.145-.81 2.145l-.915 2.815s-.55 1.855-.845 2.85c-3.015-36.205-17.845-49.635-30.635-54.23-12.995-4.68-26.19-3.475-37.17 3.4-9.045 5.675-15.935 14.845-18.985 25.205-1.49 2.795-2.61 5.765-3.485 8.8-9.07 10.155-16.57 22.64-21.61 36.305-5.7 12.355-9.37 26.165-10.475 39.63-.315 3.86-.47 7.62-.47 11.28 0 20.57 4.96 37.895 14.565 50.555 7.115 9.365 18.79 15.69 30.465 16.51 13.235.945 25.635-3.565 36.855-13.4 13.26-11.61 21.855-27.98 26.725-39.67.005-.005 1.81-4.575 1.81-4.575-.105.245 1.715-3.935 1.715-3.935 4.425-10.66 7.525-21.865 9.275-32.615 2.995-1.59 6.205-3.575 9.33-6.075-1.17 2.62-2.39 5.23-3.385 7.885-6.11 13.395-9.945 27.925-9.945 37.54 0 .625.015 1.225.045 1.81.7 12.04 5.36 19.78 13.84 23.015 7.075 2.685 17.135 1.145 24.465-3.74 2.97-1.98 9.95-7.15 16.885-14.73 5.215 4.805 11.75 5.04 14.27 5.04 12.825 0 28.89-10.66 40.575-26.025 4.265 3.845 9.285 6.65 15.215 7.105 15.885 1.2 30.6-9.325 37.555-19.605 4.43-6.56 7.395-12.42 9.705-18.635 1.255 4.14 3.155 8.075 6.21 11.065 4.2 4.13 9.875 6.29 15.99 6.1-26.835 9.59-118.925 42.46-118.925 42.46l-141.755 50.685-5.105 1.84c-1.14.41-2.115 1.41-2.575 2.53l-3.46 8.375c-.22.53-.325 1.085-.325 1.635 0 .885.275 1.76.805 2.5l3.18 4.435 3.315 4.67c.765 1.07 1.98 1.725 3.295 1.785l1.99.09c30.16 1.625 44.12 5.12 57.4 14.385l2.905 2.02c1.73 1.205 4.08.965 5.545-.555l2.445-2.55c15.23-15.91 39.11-27.11 62.2-37.94l8.345-3.935c8.98-4.27 129.125-54.075 201.045-83 34.99-14.04 62.635-25.135 68.015-27.625 6.975-3.22 30.03-15.51 33.79-38.31.78-2.75 1.225-6.16 1.225-9.685 0-11.325-6.88-20.355-19.05-25.905" fill="#fefefe" mask="url(#a)" transform="translate(0 3.8215)"/><path d="m441.2965 197.742c2.72 0 4.155-.665 5.41-1.85.01-.255.035-.515.02-.775-3.515-.085-6.475.36-8.705 1.31.76.845 1.905 1.315 3.275 1.315" fill="#fefefe"/><path d="m431.9505 177.4145c1.95-1.305 4.395-2.55 7.41-3.475-.915-2.02-1.79-4.11-2.525-6.165-1.59 2.815-3.235 6.155-4.885 9.64" fill="#fefefe"/><path d="m390.361 170.8595c-.48-.095-2 .19-3.715 1.31-1.6 1.03-4.895 4.845-7.79 10.355-.55 1.78-1.01 3.62-1.335 5.535 6.095-3.11 10.26-6.49 13-10.605.1-.42.185-.83.265-1.26.49-2.79.36-4.6-.425-5.335" fill="#fefefe"/><path d="m349.5045 143.1595c.815-2.56.915-4.725.77-6.01-.415.29-.975.74-1.675 1.41-2.325 2.235-6.435 10.12-10.67 19.875-1.995 5.04-3.915 10.275-5.56 15.285 6.08-7.755 11.55-17.16 15.615-26.09.56-1.53 1.08-3.025 1.52-4.47" fill="#fefefe"/><path d="m264.7485 194.0725c-2.02-1.41-4.54-1.535-6.565-.31-.615.38-1.195.845-1.73 1.395 0 .135-.015.26-.015.395-.125 3.42 1.115 6.63 3.46 9.035 2.3 2.36 4.925 4.44 8.58 4.605.45-7.66-1.16-13.3-3.73-15.12" fill="#fefefe"/><path d="m249.724 235.7595c2.87 1.08 5.705 1.835 8.62 2.305-.42 1.415-.63 2.41-.88 2.955-2.61 5.095-5.01 7.37-5.75 7.9-.01-.03-.335.12-.06.045.01-.005.02-.015.03-.025-.005.005-.025.025-.03.025h.02s-.06.035-.07.04c.035-.02.03-.02.045-.035-.035.01-.215.055-.215.055-.755-.575-1.945-5.03-1.945-10.695 0-.81.18-1.725.235-2.57zm-3.8-5.3c-1.665 8.725-.525 21.635 5.09 22.81.585.13 1.905-.02 2.95-.685 2.51-1.65 5.16-5.32 7.555-10.165.865-2.495 1.65-5.115 2.325-7.82-5.855-.145-12.17-1.89-17.775-4.875z" fill="#fefefe"/><path d="m74.497 285.9305c-4.41 9.54-9.44 16.665-14.035 19.745-3.39 2.275-4.715 2.42-7.825 1.77-8.655-1.81-12.215-18.13-12.215-33.325 0-3.76.22-7.455.63-10.84.53-4.37 1.97-12.52 4.995-16.435 9.455 9.13 20.955 13.95 35.02 14.33-1.515 8.22-3.745 17.075-6.57 24.755m-29.405-45.935c-1.865 2.735-3.55 5.645-5.035 8.675-1.575 4.615-2.69 9.365-3.26 14.09-2.1 17.24.11 45.78 14.965 48.88 4.415.925 6.905.4 11.085-2.4 5.295-3.55 10.785-11.22 15.675-21.83 3.46-9.405 6.38-20.855 7.765-30.43-17.465.84-30.77-4.645-41.195-16.985" fill="#fefefe"/><path d="m84.758 225.9105c-2.48-.99-4.85-2.35-7.155-4.58-5.325-5.16-8.63-12.54-8.63-19.27 0 0 .18-1.935.29-3.14.38-.505 1.94-1.915 1.94-1.915 2.075-1.385 4.305-1.55 6.815-.505 2.8 1.17 6.765 9.88 6.765 28.335 0 .34-.02.73-.025 1.075m-5.09-33.365c-3.835-1.6-7.575-1.285-10.85.895-1.385.93-2.615 2.15-3.665 3.595-.305 1.61-.47 3.285-.47 5.025 0 7.835 3.805 16.41 9.94 22.35 4.32 4.185 8.805 6.475 14.29 7.155.95-20.815-2.515-36.215-9.245-39.02" fill="#fefefe"/><path d="m242.6195 88.113c0 .005-.005.005-.015.01.03.04.075.08.1.13-.005-.015-.005-.02-.015-.03-.025-.035-.05-.075-.07-.11" fill="#f37937"/><path d="m225.9105 81.3405c.785.815 2.095 1.38 4.14.74-2.045.64-3.355.07-4.14-.74" fill="#f37937"/><path d="m243.464 125.115c4.255-.96 8.48-1.92 12.455-3.34 17.125-6.095 25.77-17.22 30.855-26.3.705-1.26 1.225-2.46 1.695-3.645 5.46-13.785 6.065-20.93 4.535-26.595-.21-1.335-.705-2.45-1.23-2.96 0 0 2.45 6.07-6.415 13.205-1.745-.47-3.835-1.32-6.42-2.78 0 0 4.11-.22 7.035.765 0 0-5.305-5.68-13.97-10.15 0 0 3.48-.57 5.7-.905-2.5-1.215-7.975-1.87-14.965-6.74-4.285-4.74-3.26-7.335-3.26-7.335-2.665 4.87-.835 8.115-.835 8.115s3.175 2.445 4.33 3.57c4.16 4.035 4.395 5.315 4.395 5.315-3.575-3.215-17.35-6.09-17.35-6.09l5.44 3.42c-6.015-2.215-13.815-2.9-13.815-2.9l2.995 2.1c-9.345-.455-14.58.81-17.405 2.055-2.185.89-2.85 1.61-2.845 1.79-.145.14-.205.24-.205.24s.565-.055 1.435-.125c2.845.265 8.49.8 9.145.985l-1.405-1.65s4.545-1.24 10.295.79l-1.465-1.56-.05-.07c.125.005 5.485.405 10.2 2.86l-1.545-1.82-.09-.18c.68.165 11.78 2.975 15.44 7.095-3.595-1.825-11.075-4.365-20.99-.93l2.1-2.6s-5.865.725-14.21 4.28l1.82-1.975s-8.265 2.86-9.815 7.025c-.11.315-.165.595-.165.86.005.01.035.04.04.05 5.435 4.54 15.61-4.51 15.61-4.51s-.265.31-.785.815c-.085.11-.18.22-.18.22s-2.55 2.99-7.82 5.86c-.515.275-.98.47-1.42.62 4.09 4.955 16.51-5.925 16.51-5.925s-.225.23-.62.6c0 .03-.075.115-.075.115s-3.38 4.51-8.585 7.515c-.555.33-1.07.555-1.565.73 4.115 4.175 13.755-2.995 17.665-6.235.425-.37.7-.59.86-.715.53-.465.84-.745.84-.745s-.22.235-.62.62c-.02.04-.07.095-.07.095s-5.605 6.47-10.805 9.485c-.365.22-.705.37-1.05.505.115.1.22.205.34.3.015.025.045.04.07.07 5.86 4.505 19.12-9.695 19.12-9.695s-.25.385-.735 1.015c-.465.985-2.69 5.275-8.235 9.445-.56.425-1.095.755-1.605 1.05 7.935 3.765 19.635-11.165 19.635-11.165s-.065.1-.2.28c-.435.845-4.335 8.055-9.105 11.195-.905.605-1.76.995-2.595 1.295-4.325 10.185-12.595 11.97-12.595 11.97-2.165 6.4-28.76 12.65-47.645 16.65-10.265 2.175-18.22 3.75-18.805 4.19-.425.335-.235.915.665 1.105.68.155 7.075 1.585 10.495 2.02.795.16 1.855.235 2.655.375 0 0-1.775 2.82-1.75 5.705.025 3.425 3.02 5.49 4.01 5.945l4.875-.68c-.29-.905-.515-1.98.41-3.545 2.87-4.85 13.615-6.3 16.505-6.615-.01-.005 15.09-1.565 25.14-3.83" fill="#f37937"/><path d="m156.8845 97.4975c1.345-4.26 9.02-8.21 9.02-8.21 11.295-13.775 37.72-19.1 37.72-19.1-2.525-2.82-11.74-3.47-11.74-3.47.15-.68-.145-4.655-.145-4.655-20.335 2.975-29.49 9.56-36.245 13.47-7.045 4.065-13.26 5.285-22.85 8.095-2.445.71-10.335 1.605-14.085 2l-.905.52 7.565 2.14-9.095.65c4.415.15 13.17 1.155 13.17 1.155-.78.185-10.065.99-10.065.99 2.005-.22 18.485 3.03 18.485 3.03-.765.36-10.76.845-10.76.845 7.215.09 18.26 2.54 18.26 2.54-.625.175-9.91 1.575-9.91 1.575 1.09-.36 14.1 5.655 14.1 5.655 1.52-2.73 7.48-7.23 7.48-7.23" fill="#f37937"/><path d="m202.783 101.941.345-.075c-.13.03-.255.055-.385.08.01 0 .02-.005.04-.005" fill="#221f20"/><g fill="#a7b1b7"><path d="m192.461 85.3055c1.92-2.345 5.47-3.85 8.5-4.75-3.265.825-7.825 2.415-10.1 5.185 0 0 6.945 3.185 21.68-1.045-13.645 3.56-20.08.61-20.08.61"/><path d="m195.359 93.8015s2.005-1.815 4.565-3.195c-15.62 1.63-22.995-.04-22.995-.04 1.105-1.71 3.22-3.015 5.075-3.9-2.06.82-5.11 2.34-6.515 4.53 0 0 7.36 1.67 22.985.035-2.565 1.385-4.57 3.205-4.57 3.205 15.98 2.035 27.405-2.595 30.35-3.965-4.36 1.775-14.875 5.11-28.895 3.33"/><path d="m211.3915 98.865h-.045c.735-.065 1.46-.145 2.16-.25-1.105.13-2.195.225-2.245.26 0 0 15.44.145 18.375-6.15-3.255 4.61-14.395 5.845-18.245 6.14"/><path d="m222.39 101.631c-.065.01-.13.015-.195.02-.055 0-.105.005-.15.005-.035.005-.065 0-.1.005-.355.01-.595.01-.605.01 0 0 9.835 1.205 14.05-6.63 0 0 .04-.085.07-.155-3.595 5.67-10.51 6.595-13.07 6.745"/><path d="m229.8605 103.716s6.83 1.595 12.26-6.875c0 0 .075-.13.14-.255-5.375 7.555-12.4 7.13-12.4 7.13"/><path d="m174.016 113.4085c-15.74 2.49-22.34.44-22.34.44s.805-.885 2.07-1.805c-2.145 1.125-3.7 2.81-3.7 2.81s6.465 1.745 22.205-.735c27.06-4.27 36.875-8.46 39.41-9.74-4.17 1.805-14.665 5.41-37.645 9.03"/><path d="m166.3255 99.402c.785-1.2 1.905-2.19 2.885-2.915-.985.535-3.135 1.835-4.39 3.645 0 0 6.155 2.725 24.25-.495-17.34 2.94-22.745-.235-22.745-.235"/><path d="m203.1275 101.868-.345.075c-.02 0-.03.005-.04.005-35.12 7.415-43.585 4.86-44.855 4.695.27-.99 1.16-2 2.065-2.83-1.185.89-2.805 2.35-3.2 3.77 1.32.17 8.705 2.63 47.28-5.87-.015.005-.05.01-.09.015.805-.18 1.21-.295 1.245-.305z"/><path d="m246.9115 103.794s8.27-1.785 12.595-11.965c.835-.305 1.69-.695 2.59-1.3 4.775-3.135 8.67-10.35 9.11-11.195-.99 1.405-5.425 7.46-9.895 10.415-.905.59-1.76.98-2.605 1.27-4.31 10.2-12.575 11.975-12.575 11.975-2.17 6.355-27.835 13.4-46.685 17.41-.06.01-.12.035-.18.045 18.88-4.005 45.48-10.255 47.645-16.655"/><path d="m251.6235 90.525c.035.055.07.105.115.155.055.085.13.16.205.25.085.09.19.18.31.28.005.015.02.025.03.035.74.58 1.92 1.07 3.395 1.19.105-.265.205-.525.3-.79-1.91.115-3.425-.435-4.355-1.12"/></g><path d="m61.0425 96.4185c3.69.03 37.65 2.075 61.14 1.545 0 0-57.105-2.215-72.735-3.5 0 0 7.13 1.915 11.595 1.955" fill="#f37937"/><path d="m38.6325 89.2015s3.715 2.105 9.335 2.415c5.615.32 47.185 2.945 68.52 3.585 0 0-62.175-4.38-77.855-6" fill="#f37937"/><path d="m109.055 88.213s-46.62-4.665-55.47-4.215c-2.575.13-1.93 1.06-1.93 1.06 3.79-.405 57.4 3.155 57.4 3.155" fill="#f37937"/><path d="m72.1875 79.9905c-8.055-.82-8.51-.05-8.51-.05 7.69.325 49.73 6.03 49.73 6.03s-33.18-5.16-41.22-5.98" fill="#f37937"/><path d="m73.4765 100.9085c8.085.275 39.795-.74 39.795-.74s-41.23-.405-48.895-1.11c0 0 1.06 1.6 9.1 1.85" fill="#f37937"/><path d="m110.3175 86.8505s-29.35-3.795-40.22-4.895c-15.76-1.615-13.885.08-13.885.08 6.575-.285 54.105 4.815 54.105 4.815" fill="#f37937"/><path d="m250.7835 89.6485c.32.225.65.415.985.575.51-.295 1.045-.625 1.605-1.05 5.545-4.175 7.77-8.465 8.235-9.445-1.28 1.64-4.2 5.075-8.77 8.51-.67.5-1.29.89-1.885 1.22-4.695 2.59-7.225.255-8.265-1.235.01.01.01.015.015.03.375.79 2.835 5.395 8.76 2.15-.285-.225-.505-.475-.64-.7-.02-.015-.03-.035-.04-.055" fill="#a7b1b7"/><path d="m231.135 81.018c-.45.15-.875.245-1.27.31.015.02.035.05.045.075.13.215.265.405.415.585.44-.15.91-.345 1.425-.62 5.27-2.87 7.815-5.86 7.815-5.86s.1-.105.185-.215c-1.125 1.085-3.455 3.095-7.045 5.05-.575.3-1.075.51-1.57.675" fill="#a7b1b7"/><path d="m224.88 79.136c-.005-.005-.005-.01-.005-.015-.04.305.225 1.38 1.035 2.22.785.81 2.095 1.38 4.14.74-.15-.315-.23-.57-.25-.74-3.205.5-4.85-1.445-4.92-2.205" fill="#a7b1b7"/><path d="m235.493 84.4215c.16.23.325.425.5.605.495-.175 1.01-.405 1.57-.73 5.2-3.005 8.58-7.515 8.58-7.515s.08-.085.08-.115c-1.455 1.37-5.22 4.765-8.98 6.735-.67.35-1.26.645-1.83.82-3 .93-4.655-.785-5.3-2.015 0 .02 0 .05.005.08.095.59.855 2.18 2.485 2.83.81.305 1.825.39 3.085.005-.235-.39-.345-.71-.325-.86.04.07.09.095.13.16" fill="#a7b1b7"/><path d="m242.2265 87.2145c-.03.015-.055.02-.085.035.21.3.435.56.675.785.34-.135.685-.285 1.05-.5 5.195-3.02 10.8-9.485 10.8-9.485s.055-.06.07-.1c-1.545 1.52-5.715 5.455-9.82 7.905-1.36.815-2.28 1.21-2.69 1.36" fill="#a7b1b7"/><path d="m242.1655 87.3195c-.015-.025-.025-.05-.035-.07-3.43 1.29-5.57-.705-6.39-2.02.025.59 1.43 3.055 4.16 3.325.34.025.705.025 1.08-.01.5-.07 1.05-.195 1.62-.42.01-.005.015-.005.02-.01-.24-.35-.385-.645-.455-.795" fill="#a7b1b7"/><path d="m320.9935 22.08c-11.625 1.405-21.495 5.105-21.495 5.105.67-1.285 2.02-2.905 2.02-2.905 11.65-3.1 19.475-2.2 19.475-2.2m-16.29-.605c.305 0 .58 0 .84.005.21 0 .42 0 .595.015 2.09.04 2.87.135 2.87.135l-.005.005h.005l-6.3 1.98s-1.18-2.145 1.995-2.14m20.95 1.09c-7.16-2.295-16.45-2.195-19.53-1.785-3.08.4-5.655-1.795-5.655-1.795l-.64-1.54 1.915 4.98s-2.14 2.27-4.555 6.54c0 0 13.625-5.12 28.465-6.4" fill="#a7b1b7"/><path d="m297.771 30.6885 5.08-.485-.72 3.68s7.285-5.57 22.415-10.62c0 0-14.27 3.045-26.775 7.425" fill="#a7b1b7"/><path d="m309.0085 21.6335h-.005l.005-.005s-.78-.095-2.87-.135c-.175-.01-.385-.01-.595-.01-.26-.005-.535-.005-.84-.005-3.175-.005-1.995 2.135-1.995 2.135z" fill="#221f20"/><path d="m285.4075 24.7655 1.365-.005s-.355-2.7-3.46-2.445c0 0 1.91.145 2.095 2.45" fill="#fefefe"/><path d="m283.4595 30.5225c3.11-.015 4.86-2.42 5.395-3.335.41-.685.04-1.005-.33-.435-1.01 1.54-3.22 2.23-4.875 2.34-2.12.14-3.665-1.7-3.735-3.78-.155-4.145 3.625-5.395 6.175-4.205 0 0 1.61.52 3.205 3.19 0 0 1.555-.235 2.1-.19.55.035 1.075-.47.085-1.105 0 0-3.22-3.165-6.24-3.395-6.085-.955-7.495 5.7-7.495 5.7 1.095 3.775 3.98 5.235 5.715 5.215" fill="#a7b1b7"/><g fill="#fefefe"><path d="m320.9935 22.08s-7.825-.9-19.475 2.2c0 0-1.35 1.62-2.02 2.905 0 0 9.87-3.7 21.495-5.105"/><path d="m306.123 20.779c3.08-.41 12.37-.51 19.53 1.785 0 0-.91-.545-1.885-.79-.59-.15-7.59-1.835-17.885-1.93 0 0-1.855-.36-3.57-1.46-1.705-1.095-2.485-.94-2.485-.94l.64 1.545s2.575 2.19 5.655 1.79"/><path d="m206.301 79.358s-2.43.325-5.34 1.195c-3.03.905-6.58 2.405-8.5 4.755 0 0 6.435 2.95 20.08-.615 1.275-.335 2.61-.715 4.015-1.18 0 0-15.62 3.545-20.81 1.15 0 0 2.175-2.91 10.555-5.305"/><path d="m198.845 92.8345 4.36-3.56s-18.31 2.61-21.965-.305c0 0 1.01-1.8 4.285-3.665 0 0-1.625.465-3.52 1.365-1.855.88-3.975 2.185-5.075 3.895 0 0 7.375 1.67 22.995.045-2.56 1.38-4.565 3.19-4.565 3.19 14.02 1.785 24.535-1.55 28.895-3.325 1.445-.585 2.21-1 2.21-1-18.74 5.345-27.62 3.36-27.62 3.36"/><path d="m221.3425 101.6725c.01 0 .25-.005.6-.015-.195.01-.395.015-.6.015"/><path d="m222.871 101.5845c-.035.01-.07.01-.1.01-.125.015-.25.025-.38.035 2.56-.15 9.47-1.075 13.07-6.745.155-.245.31-.505.46-.785 0 0-5.82 6.665-13.05 7.485"/><path d="m229.8605 103.716s7.025.425 12.4-7.13c.2-.275.405-.57.6-.88 0 0-6.5 6.715-12.26 7.895-.25.045-.495.09-.74.115"/><path d="m151.6745 113.85s6.605 2.05 22.34-.44c22.98-3.62 33.475-7.225 37.65-9.03 1.725-.74 2.37-1.18 2.37-1.18-39.555 12.43-59.51 9.585-59.51 9.585-.06-.95 2.665-2.475 2.665-2.475-1.305.35-2.495 1.055-3.44 1.735-1.265.915-2.075 1.805-2.075 1.805"/><path d="m171.2745 95.1805s-.94.475-2.065 1.305c-.98.725-2.1 1.715-2.885 2.915 0 0 5.405 3.18 22.745.235 3.29-.56 7-1.335 11.195-2.4 0 0-25.255 4.13-30.435 1.05 0 0-.92-1.02 1.445-3.105"/><path d="m202.7415 101.946c.13-.025.255-.05.385-.08l2.06-.445h.005c.555-.115 1.12-.24 1.69-.36 0 0-52.595 9.165-44.51.915 0 0-1.23.765-2.42 1.835-.905.835-1.79 1.845-2.065 2.83 1.275.17 9.74 2.725 44.855-4.695"/><path d="m246.13 102.9955s8.265-1.775 12.575-11.975c.85-.29 1.7-.68 2.605-1.27 4.47-2.955 8.905-9.015 9.895-10.415.135-.185.2-.28.2-.28s-11.705 14.93-19.635 11.165c-.335-.155-.665-.345-.985-.57.01.02.02.035.04.055.135.22.35.475.635.7.055.045.115.085.165.12.925.685 2.445 1.235 4.35 1.12-.09.265-.19.525-.295.79-2.94 6.925-11.65 8.795-11.65 8.795-2.29 6.76-27.675 15.02-44.97 19.255.125-.025.255-.055.385-.085 18.85-4.005 44.515-11.055 46.685-17.405"/><path d="m235.415 84.2215c.565-.175 1.16-.47 1.83-.82 3.76-1.97 7.525-5.365 8.975-6.735.395-.37.62-.6.62-.6s-12.42 10.88-16.515 5.925c-.15-.18-.285-.375-.415-.59-.01-.02-.03-.055-.045-.07.395-.07.82-.165 1.27-.315.495-.16.995-.375 1.57-.675 3.59-1.955 5.92-3.965 7.045-5.05.52-.505.785-.815.785-.815s-10.18 9.045-15.61 4.51c-.01-.01-.035-.04-.04-.05l-.005.015-.005.085c0 .025.005.065.005.1.07.76 1.715 2.7 4.92 2.205.02.17.1.425.25.74.025.04.04.085.065.125.64 1.23 2.295 2.95 5.3 2.015"/><path d="m242.129 87.2485c.01.02.025.045.035.07.07.15.22.445.455.795.025.035.045.07.07.11 1.04 1.49 3.57 3.825 8.265 1.235.595-.33 1.215-.72 1.885-1.22 4.57-3.435 7.49-6.87 8.77-8.51.485-.63.735-1.02.735-1.02s-13.26 14.205-19.12 9.695c-.025-.03-.055-.045-.075-.07-.115-.095-.22-.2-.335-.3-.235-.225-.46-.485-.675-.785.03-.01.06-.015.09-.035.41-.15 1.325-.545 2.69-1.36 4.105-2.45 8.275-6.385 9.82-7.9.4-.39.62-.62.62-.62s-.31.28-.84.74c-.16.125-.435.345-.86.715-3.91 3.24-13.55 10.415-17.665 6.235-.175-.175-.345-.375-.5-.6-.04-.07-.09-.09-.135-.165-.015.155.095.475.325.86.02.035.03.075.06.11.815 1.315 2.955 3.31 6.385 2.02"/></g><path d="m210.847 131.775c-8.455 1.75-7.52 6.885-7.52 6.885l3.585-.58c-1.11-3.735 3.935-6.305 3.935-6.305" fill="#f37937"/><path d="m211.345 98.865h.045c3.85-.295 14.99-1.53 18.245-6.14.26-.37.47-.75.62-1.16 0 0-6.5 5.56-16.75 7.05-.695.105-1.42.185-2.16.25" fill="#fefefe"/><path d="m231.9505 162.334s1.185 1.755.605 3.72c.04.71.035 1.44-.015 2.175 2.12-2.125 3.735-4.42 2.7-5.875 0 0 5.905-5.18-28.75-21.955 0 0-1.07.235-2.52.37l6.295 3.64c3.855 2.055 24.98 12.52 21.685 17.925" fill="#f37937"/><path d="m431.9505 177.4145c1.65-3.485 3.295-6.825 4.885-9.64.735 2.055 1.61 4.145 2.525 6.165-3.015.925-5.46 2.17-7.41 3.475zm28.525 53.89c-5.115 2.355-32.69 13.45-67.595 27.47-70.835 28.47-191.81 78.56-201.515 83.185-25.455 12.09-54.74 24.58-73.025 43.665-14.06-9.815-28.66-14.125-61.815-15.88l-2.165-3.045c15.86-5.755 80.565-28.85 154.265-55.15 101.81-36.34 217.18-77.515 233.97-83.75 4.665-1.71 13.295-4.93 19.965-9.04 6.645-4.105 15.52-10.645 15.845-20.075.105-3.06-1.83-9.19-10.645-13.61-2.335 13.58-12.74 21.83-24.245 23.3-5.94.75-11.09-1.975-13.515-4.41-2.245-2.245-4.13-6.475-3.85-10.74.395-6.335 7.715-17.91 27.385-16.64-2.98-4.31-11.26-19.87-11.17-27.2-4.645 4.435-9.445 15.115-14.285 25.645-4.385 9.49-9.315 20.49-14.605 28.39-10.855 16.2-21.81 23.985-34.03 23.42-8.305-.39-15.675-3.625-20.605-13.64-8.785 16.55-29.96 34.995-43.245 35.515-4 .155-7.455-1.185-10.025-3.695-2.68-2.64-4.69-6.495-5.055-10.855-.58-6.785.755-19.965 2.57-25.235-5.24 4.12-12.83 8.785-12.83 8.785-2.025 15.945-6.495 25.89-13.44 36.18-5.76 8.515-17.585 16.845-29.965 15.895-7.055-.51-13.115-4.645-16.165-13.095-10.125 18.85-28.405 32.02-40.24 32.02-4.475 0-11.44-.42-12.565-12.44-6.535 10.36-15.91 18.63-23.27 23.54-4.93 3.29-12.205 4.63-16.795 2.875-6.7-2.555-8.08-9.615-8.415-15.625-.755-13.12 9.895-46.235 28.95-65.265-6.855 1.275-14.33 3.175-19.555-.31-2.605 8.045-15.1 17.54-24.28 20.29-1.29 25.77-14.26 61.21-34.65 79.06-9.47 8.295-19.81 12.13-30.72 11.355-8.85-.63-18.44-5.445-24.35-13.21-10.025-13.225-14.325-32.625-12.41-56.05 1.865-22.71 11.99-48.735 30.35-66.77.63-11.625 7.42-22.34 16.775-28.225 8.88-5.57 19.415-6.36 29.83-2.615 17.815 6.405 27.05 29.82 25.545 67.96 6.88-2.995 15.14-8.795 16.36-15.39.455-2.49.955-7.78 1.525-9.755.58-2.01 1.17-4.09 7.85-2.58 11.645 2.645 20.335 1.15 27.365-4.69.93-.795 1.885-1.155 2.615-1.035.625.11 1.02.58 1.26.95 1.575 2.635 5.985 7.505 7.875 9.4.98.965 1.59 3.375-.085 5.085-12.165 12.385-29.47 41.21-29.555 61.355-.03 9.045 5.585 8.865 9.795 6.405 5.05-2.96 14.12-11.145 19.17-19.92 6.515-17.675 17.885-53.205 24.69-70.175 2.49-.72 17.25-5.45 19.51-6.09-7.915 20.61-21.49 60.335-24.51 72.8-.845 3.515-.485 6.3 1.1 8.31 1.485 1.875 4.315 2.255 7.22 1.835 7.835-1.115 17.555-14.56 20.965-20.92-1.11-5.605-1.11-12.48-.545-19.335.905-11.07 6.52-25.295 13.065-33.075-1.175-9.445 4.01-16.33 9.175-19.95 7.11-4.955 15.605-6.915 23.165-4.155 4.685 1.74 9.995 4.605 13.535 12.55 2.44 5.48 4.635 11.38 4.665 22.305 3.435-.81 13.34-8.775 13.34-8.775 1.605-7.235 3.32-14.01 6.095-23.12 6.61-21.705 23.905-54.735 40.93-61.2 2.455-.935 7.8-1.535 10.24.5 4.415 3.69 5.25 9.45 4.67 14.935-2.55 24.125-15.75 48.655-44.305 70.46-2.215 10.38-3.365 17.58-2.57 23.13.53 3.705 2.015 5.63 4.405 6.885 2.7 1.43 7.005.015 11.2-2.62 7.31-4.58 16.865-17.195 21.475-24.005-1.21-14.055 4.24-28.525 9.775-37.75 5.94-9.905 13.94-16.78 22.495-19.005 7.775-2.015 15.41 3.365 17.52 10.755 2.19 7.64.24 18.26-6.88 27.55-5.56 7.25-14.3 14.205-26.28 18.955 3.43 6.83 6.715 10.255 13.045 9.98 10.43-.45 17.855-10.745 27.225-29.205 4.14-8.17 9.09-17.91 12.12-24.81 3.665-8.325 8.045-17.635 11.665-21.79l17.185-4.275c-1.085 4.175-.785 8.46.97 12.225.525 1.125 1.42 2.8 2.53 4.9 3.56 6.725 11.875 22.595 10.53 28.31 9.06 2.96 18.64 9.08 18.64 20.215 0 17.18-12.805 25.465-26.64 31.85zm-253.635-60.46c1.94-6.625 8.225-11.985 14.035-11.985 5.815 0 8.945 5.36 6.99 11.985-1.945 6.61-8.225 11.98-14.03 11.98-5.815 0-8.95-5.37-6.995-11.98zm3.425-26.435-6.295-3.64c1.45-.135 2.52-.37 2.52-.37 34.655 16.775 28.75 21.955 28.75 21.955 1.035 1.455-.58 3.75-2.7 5.875.05-.735.055-1.465.015-2.175.58-1.97-.605-3.72-.605-3.72 3.295-5.405-17.83-15.87-21.685-17.925zm.58-12.635s-5.045 2.57-3.935 6.305l-3.585.58s-.935-5.135 7.52-6.885zm-9.025 3.785c-.925 1.565-.7 2.64-.41 3.545l-4.88.685c-.985-.46-3.98-2.525-4.01-5.95-.025-2.885 1.75-5.705 1.75-5.705-.8-.14-1.86-.215-2.65-.375-3.425-.435-9.82-1.865-10.495-2.02-.9-.19-1.09-.77-.665-1.105.58-.44 8.535-2.015 18.805-4.19.065-.01.12-.03.18-.04-.13.03-.26.055-.39.08 17.3-4.235 42.68-12.49 44.97-19.25 0 0 8.715-1.87 11.655-8.8-1.475-.12-2.655-.61-3.395-1.19-.015-.01-.025-.02-.03-.035-.12-.1-.225-.19-.315-.275-.075-.09-.15-.17-.205-.255-.04-.05-.08-.1-.11-.155-.05-.035-.11-.075-.165-.12-5.92 3.245-8.38-1.36-8.76-2.155-.025-.05-.065-.09-.1-.125-.57.22-1.12.35-1.62.42-.38.035-.74.035-1.08.01-2.73-.27-4.135-2.735-4.16-3.325-.025-.035-.04-.075-.055-.11-1.255.385-2.275.305-3.085-.005-1.625-.645-2.385-2.24-2.485-2.83v-.08c-.025-.035-.04-.085-.065-.12-2.05.635-3.355.07-4.14-.745-.815-.835-1.075-1.915-1.035-2.22 0 .005 0 .01.005.015 0-.035-.005-.07-.005-.1l.005-.08.005-.02c0-.265.055-.545.165-.86 1.55-4.165 9.81-7.02 9.81-7.02l-1.815 1.975c8.345-3.555 14.21-4.28 14.21-4.28l-2.1 2.595c9.915-3.435 17.39-.895 20.985.93-3.66-4.12-14.76-6.93-15.44-7.095l.095.18 1.545 1.825c-4.715-2.46-10.08-2.86-10.2-2.865l.05.07 1.465 1.56c-5.755-2.03-10.3-.79-10.3-.79l1.405 1.65c-.65-.185-6.295-.72-9.14-.98-.87.065-1.435.12-1.435.12s.06-.1.2-.24c0-.18.665-.9 2.85-1.79 2.825-1.245 8.055-2.51 17.405-2.055l-2.995-2.1s7.795.685 13.815 2.9l-5.44-3.42s13.77 2.875 17.345 6.09c0 0-.23-1.275-4.39-5.315-1.155-1.125-4.33-3.565-4.33-3.565s-1.835-3.25.835-8.12c0 0-1.03 2.6 3.26 7.335 6.985 4.87 12.465 5.525 14.965 6.74-2.22.335-5.705.905-5.705.905 8.665 4.47 13.97 10.15 13.97 10.15-2.92-.985-7.03-.765-7.03-.765 2.585 1.465 4.675 2.31 6.42 2.78 8.865-7.135 6.415-13.205 6.415-13.205.52.51 1.02 1.625 1.225 2.96 1.535 5.665.925 12.81-4.535 26.595-.465 1.185-.985 2.385-1.69 3.645-5.09 9.08-13.73 20.205-30.855 26.305-3.98 1.415-8.205 2.375-12.455 3.335-10.055 2.265-25.15 3.825-25.145 3.83-2.885.315-13.63 1.765-16.5 6.615zm-51.77-20.705s1.55-1.685 3.695-2.81c.945-.68 2.14-1.385 3.44-1.735 0 0-2.725 1.525-2.66 2.475 0 0 19.955 2.845 59.505-9.585 0 0-.64.44-2.37 1.18-2.535 1.28-12.35 5.47-39.405 9.735-15.74 2.48-22.205.74-22.205.74zm-14.75-15.78s9.285-1.405 9.91-1.575c0 0-11.04-2.455-18.26-2.545 0 0 10-.485 10.765-.84 0 0-16.485-3.25-18.485-3.035 0 0 9.28-.8 10.065-.99 0 0-8.755-1-13.175-1.15l9.1-.655-7.565-2.135.905-.52c3.75-.4 11.635-1.29 14.085-2.005 9.59-2.81 15.8-4.025 22.845-8.09 6.76-3.915 15.915-10.495 36.245-13.47 0 0 .3 3.975.15 4.655 0 0 9.215.65 11.74 3.465 0 0-26.425 5.33-37.72 19.105 0 0-7.675 3.95-9.02 8.21 0 0-5.96 4.495-7.48 7.225 0 0-13.01-6.01-14.105-5.65zm-74.26-2.655c-4.46-.04-11.595-1.955-11.595-1.955 15.63 1.285 72.735 3.495 72.735 3.495-23.49.53-57.445-1.51-61.14-1.54zm12.435 4.49c-8.04-.255-9.1-1.85-9.1-1.85 7.67.705 48.895 1.11 48.895 1.11s-31.71 1.01-39.795.74zm-34.845-11.71c15.685 1.62 77.855 6.005 77.855 6.005-21.335-.645-62.9-3.27-68.52-3.585-5.615-.315-9.335-2.42-9.335-2.42zm14.955-5.2c8.85-.45 55.47 4.215 55.47 4.215s-53.61-3.565-57.4-3.155c0 0-.645-.935 1.93-1.06zm16.515-2.045c10.87 1.1 40.215 4.895 40.215 4.895s-47.53-5.095-54.105-4.815c0 0-1.875-1.695 13.89-.08zm2.085-1.965c8.04.82 41.22 5.98 41.22 5.98s-42.04-5.705-49.725-6.03c0 0 .45-.77 8.505.05zm144.37 3.525c-1.4.465-2.74.84-4.015 1.18-14.735 4.23-21.68 1.045-21.68 1.045 2.275-2.77 6.835-4.36 10.1-5.185 2.91-.87 5.34-1.195 5.34-1.195-8.38 2.395-10.555 5.305-10.555 5.305 5.19 2.395 20.81-1.15 20.81-1.15zm-46.725 14.77c5.18 3.08 30.435-1.05 30.435-1.05-4.195 1.065-7.905 1.84-11.195 2.4-18.095 3.22-24.25.495-24.25.495 1.255-1.805 3.405-3.105 4.39-3.645 1.125-.83 2.065-1.305 2.065-1.305-2.365 2.085-1.445 3.105-1.445 3.105zm34.2 3.425c-38.575 8.505-45.955 6.04-47.28 5.875.395-1.425 2.02-2.88 3.205-3.775 1.185-1.07 2.415-1.835 2.415-1.835-8.085 8.25 44.51-.915 44.51-.915-.565.12-1.135.245-1.69.36h-.005c-.035.015-.44.13-1.245.31.04-.005.075-.01.09-.02zm20.225-11.235c-2.945 1.37-14.37 5.995-30.35 3.965 0 0 2.005-1.82 4.57-3.205-15.625 1.63-22.99-.04-22.99-.04 1.405-2.19 4.46-3.705 6.52-4.525 1.895-.9 3.515-1.365 3.515-1.365-3.27 1.865-4.285 3.665-4.285 3.665 3.66 2.915 21.97.305 21.97.305l-4.36 3.56s8.88 1.985 27.62-3.36c0 0-.77.415-2.21 1zm5.38 2.25c-2.935 6.295-18.375 6.15-18.375 6.15.055-.035 1.14-.13 2.245-.26 10.25-1.49 16.75-7.045 16.75-7.045-.15.405-.36.785-.62 1.155zm13.225 2.98c-.195.315-.4.605-.6.88-.065.125-.14.255-.14.255-5.43 8.475-12.26 6.875-12.26 6.875.245-.025.49-.07.74-.115 5.76-1.18 12.26-7.895 12.26-7.895zm-7.4-.82c-.03.07-.075.155-.075.155-4.21 7.835-14.045 6.635-14.045 6.635.205 0 .405-.005.6-.015h.105c.045 0 .095-.01.145-.01.065-.005.135-.01.2-.02.13-.01.255-.02.385-.035.025 0 .06 0 .095-.01 7.23-.82 13.05-7.485 13.05-7.485-.15.28-.305.54-.46.785zm51.315-70.125-1.37.005c-.185-2.305-2.095-2.45-2.095-2.45 3.105-.25 3.465 2.445 3.465 2.445zm-1.535-5.155c3.02.23 6.235 3.395 6.235 3.395.995.64.465 1.14-.08 1.105-.55-.04-2.105.19-2.105.19-1.595-2.665-3.2-3.185-3.2-3.185-2.55-1.19-6.33.06-6.18 4.205.075 2.08 1.62 3.915 3.735 3.775 1.655-.11 3.865-.795 4.88-2.335.37-.57.74-.255.33.435-.535.915-2.29 3.315-5.395 3.335-1.735.02-4.625-1.445-5.715-5.215 0 0 1.41-6.655 7.495-5.705zm14.585-2.16s.78-.155 2.49.94c1.71 1.1 3.57 1.455 3.57 1.455 10.295.1 17.295 1.785 17.88 1.935.975.245 1.885.79 1.885.79-14.835 1.28-28.465 6.4-28.465 6.4 2.415-4.27 4.555-6.54 4.555-6.54zm2.31 16.435.715-3.675-5.08.485c12.505-4.38 26.78-7.425 26.78-7.425-15.135 5.05-22.415 10.615-22.415 10.615zm170.54 142.485c-.545-5.52-3.98-13.97-11.07-27.355-1.1-2.06-1.955-3.695-2.445-4.745-1.31-2.81-1.57-6.135-.695-9.39l1.795-6.76-6.795 1.68-17.2 4.255-1.265.32-.855.985c-3.24 3.71-6.905 10.55-12.32 22.855-2.97 6.725-7.945 16.52-11.935 24.39l-.11.2c-9.795 19.335-16.235 26.625-23.7 26.96-.7.02-1.36.005-1.97-.09 7.245-4.665 12.065-9.715 15.12-13.695 4.395-5.72 8.18-13.145 9.955-20.245 2.385-6.655 2.855-13.52 1.165-19.465-2.865-10-12.975-16.105-22.55-13.615-9.54 2.475-18.405 9.88-25.005 20.9-1.375 2.29-4.235 7.475-6.64 14.33-3.23 6.7-7.275 17.435-7.405 29.335-5.285 7.015-11.395 13.885-15.845 16.7-4.455 2.795-6.72 2.66-7.07 2.47-1.02-.535-1.87-1.19-2.26-3.82-.475-3.42-.075-7.86.915-13.485 12.485-10.055 22.395-21.07 29.49-32.79 3.845-6.35 7.495-14.065 10.28-21.865 3.25-7.905 5.325-16.085 6.22-24.435.855-8.07-1.265-14.47-6.12-18.545-3.975-3.315-10.93-2.495-14.365-1.205-16.295 6.195-32.015 33.205-40.275 54.765-2.775 6.2-5.045 12.26-6.67 17.61-1.63 5.36-2.945 10.075-4.155 14.9-1.395 1.035-2.75 2.025-3.985 2.865-.76-7.69-2.705-12.695-4.71-17.16-4.21-9.445-10.7-12.835-15.88-14.74-8.47-3.1-18.29-1.41-26.955 4.635-4.625 3.24-7.935 7.58-9.68 12.485-2.675 4.57-4.42 9.95-4.855 14.74-2.305 3.945-4.35 8.435-5.96 13.075-3.715 7.64-6.385 16.555-7.015 24.265-.52 6.22-.515 11.655-.02 16.29-4.255 5.75-9.665 11.21-13.355 11.74-2.13.31-3.2-.07-3.395-.31-.935-1.19-.695-3.255-.32-4.77 2.95-12.155 16.435-51.685 24.35-72.3l2.98-7.75-1.99.57c.075-.21.155-.42.215-.65.23-.785.4-1.56.525-2.34 1.29-1.85 2.31-3.895 2.965-6.07.93-.2 1.675-.395 2.01-.545.955-.4 3.955-3.59 5.23-5.845 1.27-2.27-.26-4.54-.26-4.54 3.3-5.395-20.06-17.075-21.685-17.92-6.895-3.635-7.925-4.58-8.06-4.725-2.135-3.08 2.375-5.805 5.81-7.355 2.16-.36 3.715-.5 3.765-.5l6.74-.75c55.965-6.23 62.835-31.65 67.74-47.855.815-2.68 1.89-7.3 1.655-13.82-.48-14.16-.57-4.805-.05-14.87.185-3.375 12.76-13.725 12.18-20.775 0 0 2.315-1.55 5.955-3.305 2.8-1.345 15.675-6.315 15.675-6.315-4.325-2.74-6.24-2.95-11.445-3.675-1.85-.25-2.04-.27-6.56-.685-2.755-.255-6.26-.905-6.26-.905s-1.51-3.165-8.18-6.725c-4.545-2.43-11.075-2.255-23.5.74-17.69 4.26-22.76 16.92-34.655 25.345-9.1 6.435-6.585 6.725-16.505 9.19-16.63 4.13-40.39 15.265-40.39 15.265-7.045 2.795-15.73 5.995-26.555 12.39-4.3 2.525-9.45 4.345-15.48 5.925-6.825 1.79-14.325 4.035-21.225 4.13-.205 0-.525.02-.9.045-1.99-.145-4.065-.32-6.235-.525-15.675-1.54-35.01-4.685-43.405-5.41-7.675-.675-8.765-1.175-12.335 1.675 0 0-2.045-.2-4.71 3.085-1.2.22-6.875.605-3.045 3.44-21.565 1.175-7.99 5.74-4.325 7.185 0 0 .925 2.41 8.415 3.36 0 0 .54 1.455 7.42 1.755 0 0 3.39 5.745 22.215 5.555 15.945-.965 25.965-2.02 33.785-2.66 4.305-.38 9.145-.645 12.75-.825 1.02-.055 1.95-.095 2.735-.13 5.885 2.51 12.28 4.805 17.83 6.88 0 0-14.365 3.215-20.76 12.845-2.435 3.67-2.78 6.02 34.02 4.365 0 0 15.1 2.76 31.145 4.38-.18.5-.42.955-.59 1.655-.42 1.685-.44 1.98-.455 3.125-.05 3.055 1.345 4.755 2.99 6.055.295.25.665.53 1.085.795 1.12.685 5.01 3.045 5.01 3.045l14.805 8.07c2.58 1.735 1.495 2.925-.34 4.275-5.43 2.315-10.19 7.505-12 13.67-.23.77-.4 1.55-.525 2.32-1.315 1.875-2.35 3.965-3.005 6.185-1.29 4.375-.875 8.65 1.11 11.9l-.53 1.33c-.525 1.3-3.525 8.505-3.525 8.505-4.065 10.13-9.61 26.46-14.99 42.25-2.565 7.55-5.03 14.79-7.19 20.92-4.92 7.49-12.47 14.07-16.41 16.38-1.565.915-2.65.94-2.85.845-.16-.13-.74-1.095-.715-3.66.02-5.41 1.47-11.665 3.8-18.1 5.875-12.68 14.235-24.95 21.03-31.885 2.8-2.835 6.41-10.05 5.75-13.67.07-2.195-.74-4.33-2.16-5.745-2.14-2.135-6.035-6.545-7.255-8.585-.955-1.595-2.41-2.625-4.105-2.92-1.955-.315-4.07.365-5.965 1.945-6.03 5.025-13.37 6.21-23.8 3.84-6.55-1.49-10.38-.24-12.21 4.015-.19.335-.39.845-.6 1.59-.42 1.49-4.2 12.3-4.55 14.865-.01.08-.015.16-.03.255-1.32 1.385-3.005 2.755-4.96 4.035.24-44.835-15.13-60.07-28.435-64.845-11.745-4.24-23.625-3.155-33.44 2.995-8.41 5.275-14.59 13.715-17.27 23.125-1.64 2.96-2.9 6.11-3.75 9.37-9.09 9.99-16.395 22.32-21.315 35.665-5.55 12.05-9.135 25.245-10.225 38.495-2.005 24.475 2.57 44.83 13.24 58.895 6.375 8.39 16.845 14.085 27.345 14.82 12.05.86 23.405-3.29 33.725-12.34 12.675-11.095 20.905-26.83 25.595-38.095.61-1.47 1.195-2.95 1.755-4.44.64-1.405 1.235-2.77 1.77-4.065 4.615-11.115 7.865-22.79 9.46-33.775 7.575-3.635 15.62-10.015 19.635-16.685 1.565.435 3.185.65 4.83.69-4.375 7.155-7.99 14.79-10.725 22.105-6.665 14.635-10.11 29.21-9.635 37.61.22 3.795.885 15.355 11.085 19.245 5.75 2.185 14.405.805 20.565-3.295 3.7-2.47 11.925-8.51 19.335-17.65 3.98 7.235 11.33 7.235 14.19 7.235 12.67 0 29.24-11.785 40.025-27.81 3.865 5.235 9.465 8.395 16.09 8.9 14.18 1.075 27.4-8.445 33.675-17.73 4.05-5.995 7.465-12.05 10.04-19.58 2.53-5.18 4.6-10.92 6.1-17.905.23-.145.46-.3.695-.46-.71 5.74-1.02 12.07-.67 16.27.425 5.05 2.73 9.945 6.305 13.445 3.405 3.35 8.035 5.085 13.055 4.875 13.605-.53 32.71-16.415 43.14-31.77 4.925 6.22 11.64 9.475 20.375 9.875 13.53.635 25.84-7.62 37.64-25.245 1.805-2.7 3.57-5.74 5.285-8.955.57 3.845 2.325 7.575 4.895 10.14 3.155 3.155 9.5 6.525 16.945 5.585 12.385-1.59 22.165-9.53 26.25-20.855 3.56 3.03 3.955 5.945 3.99 6.72-2.86 3.465-6.935 6.28-10.36 8.385-6.33 3.905-14.715 7.02-19.235 8.695-16.745 6.22-132.125 47.39-233.92 83.735-74.265 26.505-138.415 49.395-154.285 55.16l-5.12 1.84.055.085c-.035.01-.08.03-.115.045l-3.46 8.375 3.18 4.435 2.16 3.055 1.155 1.62 1.99.085c31.13 1.675 45.615 5.35 59.665 15.15l2.9 2.02 2.445-2.55c15.775-16.475 40.03-27.86 63.475-38.855l8.335-3.935c9.085-4.315 129.43-54.2 201.275-83.1 34.97-14.03 62.59-25.12 67.82-27.535 13-6.01 28.575-18.28 31.35-35.115.755-2.735 1.175-5.72 1.175-8.99 0-10.25-6.565-18.37-18.56-23.09z" fill="#221f20"/><path d="m377.5195 188.059c.325-1.915.79-3.755 1.335-5.53 2.9-5.51 6.19-9.33 7.795-10.36 1.71-1.12 3.23-1.405 3.71-1.31.79.74.915 2.545.425 5.34-.08.425-.16.835-.26 1.255-2.745 4.115-6.91 7.5-13.005 10.605m20.865-19.64c.775-4.435.3-7.47-1.94-9.32-2.075-1.745-5.79-.7-8.535 1.09-4.77 3.105-15.11 18.015-15.11 34.555 15.625-6.38 23.375-13.92 25.585-26.325" fill="#221f20"/><path d="m78.5205 287.4095c-4.89 10.615-10.38 18.28-15.675 21.83-4.18 2.8-6.67 3.325-11.085 2.4-14.855-3.1-17.065-31.635-14.965-48.88.575-4.725 1.685-9.475 3.265-14.085 1.48-3.035 3.165-5.945 5.03-8.68 10.425 12.34 23.73 17.83 41.195 16.985-1.385 9.58-4.305 21.03-7.765 30.43m-29.965-62.76c-8.5 10.46-14.24 24.16-15.875 37.62-2.4 19.785.47 49.695 18.22 53.415 5.405 1.145 9.04.48 14.24-3.005 8.545-5.705 15.095-18.385 19.095-28.02 4.945-11.915 9.14-28.475 10.3-40.71-20.58 2.315-34.835-3.48-45.98-19.3" fill="#221f20"/><path d="m88.911 231.565c-5.485-.68-9.965-2.97-14.29-7.155-6.135-5.94-9.935-14.515-9.935-22.35 0-1.74.165-3.415.465-5.025 1.055-1.445 2.285-2.665 3.67-3.59 3.27-2.185 7.015-2.5 10.845-.9 6.735 2.805 10.2 18.205 9.245 39.02m-4.13-51.34c-5.095-2.125-10.32-1.67-14.73 1.275-5.865 3.89-9.495 11.785-9.495 20.56 0 8.925 4.285 18.645 11.185 25.32 6.025 5.845 13.16 9.17 23.79 8.46 2.61-22.22 1.655-50.45-10.75-55.615" fill="#221f20"/><path d="m446.7065 195.8935c-1.255 1.18-2.69 1.85-5.41 1.85-1.37 0-2.515-.475-3.275-1.315 2.23-.95 5.19-1.395 8.705-1.31.015.26-.01.515-.02.775m-10.64-9.29c-6.205 5.93-2.815 15.28 5.23 15.28 3.99 0 6.605-1.155 8.985-3.73 2.83-3.06 4.985-8.005 3.78-15.425-7.89-.85-14.285.335-17.995 3.875" fill="#221f20"/><path d="m337.932 158.4325c4.23-9.755 8.345-17.635 10.665-19.875.7-.67 1.26-1.115 1.68-1.405.145 1.285.045 3.45-.77 6.005-.445 1.445-.96 2.945-1.52 4.47-4.07 8.93-9.535 18.335-15.62 26.09 1.645-5.005 3.565-10.245 5.565-15.285m19.055-22.53c2.52-8.08.44-16.67-7.73-8.825-6.61 6.34-21.52 43.275-25.205 61.125 13.91-10.96 27.235-34.11 32.935-52.3" fill="#221f20"/><path d="m261.521 242.4195c-2.395 4.845-5.05 8.515-7.56 10.165-1.04.665-2.365.815-2.945.685-5.62-1.175-6.76-14.085-5.09-22.81l.145-.735c5.605 2.985 11.92 4.73 17.77 4.875-.67 2.705-1.46 5.325-2.32 7.82m-15.355-28.315c-2.485 4.85-3.32 10.455-4.29 15.575-1.845 9.64-1.005 25.685 8.3 27.65 1.75.355 4.175-.065 6.05-1.295 7.395-4.84 13.705-20.385 16.36-34.41-7.46 1.365-18.165-1.045-26.42-7.52" fill="#221f20"/><path d="m268.479 209.192c-3.66-.165-6.28-2.245-8.58-4.605-2.35-2.4-3.585-5.615-3.46-9.035 0-.135.015-.26.015-.395.535-.55 1.115-1.015 1.73-1.395 2.025-1.225 4.545-1.1 6.565.31 2.57 1.82 4.18 7.46 3.73 15.12m2.185-26.995c-3.515-2.485-7.8-2.46-11.1-.475-4.235 2.57-7.085 7.94-7.265 13.71-.16 4.555 1.49 8.83 4.63 12.05 3.635 3.7 8.945 7.7 17.285 4.975 3.435-12.895 2.5-25.98-3.55-30.26" fill="#221f20"/><path d="m450.2805 198.1545c-2.38 2.575-4.995 3.73-8.985 3.73-8.045 0-11.435-9.35-5.23-15.28 3.71-3.54 10.105-4.725 17.995-3.875 1.205 7.42-.95 12.365-3.78 15.425m-62.37-37.965c2.745-1.79 6.46-2.835 8.535-1.095 2.24 1.855 2.71 4.885 1.94 9.325-2.21 12.405-9.965 19.945-25.59 26.325 0-16.54 10.345-31.45 15.115-34.555m-113.695 52.265c-8.345 2.725-13.655-1.27-17.285-4.97-3.14-3.225-4.79-7.5-4.635-12.055.18-5.765 3.035-11.14 7.27-13.705 3.3-1.99 7.585-2.01 11.1.475 6.05 4.28 6.985 17.36 3.55 30.255m-17.99 43.58c-1.875 1.23-4.3 1.65-6.05 1.295-9.305-1.965-10.145-18.01-8.3-27.65.97-5.12 1.805-10.725 4.29-15.575 8.255 6.475 18.96 8.885 26.42 7.52-2.655 14.025-8.965 29.57-16.36 34.41m-160.695-20.19c-10.63.705-17.765-2.62-23.79-8.465-6.9-6.675-11.185-16.395-11.185-25.32 0-8.775 3.63-16.67 9.495-20.56 4.41-2.94 9.635-3.4 14.73-1.27 12.405 5.16 13.36 33.39 10.75 55.615m-11.295 48.815c-4 9.635-10.55 22.315-19.095 28.02-5.2 3.485-8.835 4.15-14.24 3.005-17.75-3.72-20.62-33.63-18.22-53.415 1.635-13.46 7.375-27.16 15.875-37.62 11.145 15.82 25.4 21.615 45.98 19.3-1.16 12.235-5.355 28.795-10.3 40.71m265.02-157.585c8.175-7.845 10.25.75 7.73 8.825-5.695 18.195-19.02 41.34-32.935 52.3 3.685-17.85 18.6-54.785 25.205-61.125m119.22 52.165c1.345-5.715-6.97-21.585-10.53-28.31-1.11-2.1-2.005-3.775-2.53-4.9-1.755-3.765-2.055-8.05-.97-12.225l-17.185 4.275c-3.62 4.155-8 13.465-11.665 21.79-3.03 6.9-7.98 16.64-12.12 24.81-9.37 18.46-16.795 28.755-27.225 29.205-6.33.275-9.615-3.15-13.045-9.98 11.98-4.75 20.72-11.705 26.28-18.955 7.12-9.29 9.07-19.91 6.88-27.55-2.11-7.39-9.745-12.77-17.52-10.755-8.555 2.225-16.555 9.1-22.495 19.005-5.535 9.225-10.985 23.695-9.775 37.75-4.61 6.81-14.165 19.425-21.475 24.005-4.195 2.635-8.5 4.05-11.2 2.62-2.39-1.255-3.875-3.18-4.405-6.885-.795-5.55.355-12.75 2.57-23.13 28.555-21.805 41.755-46.335 44.305-70.46.58-5.485-.255-11.245-4.67-14.935-2.44-2.035-7.785-1.435-10.24-.5-17.025 6.465-34.32 39.495-40.93 61.2-2.775 9.11-4.49 15.885-6.095 23.12 0 0-9.905 7.965-13.34 8.775-.03-10.925-2.225-16.825-4.665-22.305-3.545-7.945-8.85-10.81-13.535-12.55-7.56-2.76-16.055-.8-23.165 4.155-5.165 3.62-10.35 10.505-9.175 19.95-6.545 7.78-12.16 22.005-13.065 33.075-.565 6.855-.565 13.73.545 19.335-3.41 6.36-13.13 19.805-20.965 20.92-2.905.42-5.735.04-7.22-1.835-1.585-2.01-1.945-4.795-1.1-8.31 3.02-12.465 16.595-52.19 24.51-72.8-2.26.64-17.02 5.37-19.51 6.09-6.805 16.97-18.175 52.5-24.69 70.175-5.05 8.775-14.12 16.96-19.17 19.92-4.21 2.46-9.825 2.64-9.795-6.405.085-20.145 17.39-48.97 29.555-61.355 1.675-1.71 1.065-4.12.085-5.085-1.89-1.895-6.3-6.765-7.875-9.4-.24-.37-.635-.84-1.26-.95-.73-.12-1.685.24-2.615 1.035-7.03 5.84-15.72 7.335-27.365 4.69-6.68-1.51-7.27.57-7.85 2.58-.57 1.975-1.07 7.265-1.525 9.755-1.22 6.595-9.48 12.395-16.36 15.39 1.505-38.14-7.73-61.555-25.545-67.96-10.415-3.74-20.95-2.955-29.83 2.615-9.355 5.885-16.145 16.6-16.775 28.225-18.36 18.035-28.485 44.06-30.35 66.77-1.915 23.425 2.385 42.825 12.41 56.055 5.91 7.76 15.5 12.575 24.35 13.205 10.91.775 21.25-3.06 30.72-11.355 20.39-17.85 33.36-53.29 34.65-79.06 9.18-2.75 21.675-12.245 24.28-20.29 5.225 3.485 12.7 1.585 19.555.31-19.055 19.03-29.705 52.145-28.95 65.265.335 6.01 1.715 13.07 8.415 15.625 4.59 1.755 11.865.415 16.795-2.875 7.36-4.91 16.735-13.18 23.27-23.54 1.125 12.02 8.09 12.44 12.565 12.44 11.835 0 30.115-13.165 40.24-32.02 3.05 8.45 9.11 12.585 16.165 13.095 12.38.95 24.205-7.38 29.965-15.895 6.945-10.29 11.415-20.235 13.44-36.18 0 0 7.59-4.665 12.83-8.785-1.815 5.27-3.15 18.45-2.57 25.235.365 4.36 2.375 8.215 5.055 10.855 2.57 2.515 6.025 3.85 10.025 3.695 13.285-.52 34.46-18.965 43.245-35.515 4.93 10.015 12.3 13.25 20.605 13.64 12.22.565 23.175-7.22 34.03-23.42 5.29-7.9 10.22-18.9 14.605-28.39 4.84-10.525 9.64-21.21 14.285-25.645-.09 7.33 8.19 22.89 11.17 27.2-19.67-1.27-26.99 10.305-27.385 16.64-.28 4.265 1.605 8.495 3.85 10.74 2.425 2.435 7.575 5.16 13.51 4.41 11.51-1.465 21.915-9.72 24.25-23.3 8.815 4.42 10.75 10.55 10.645 13.61-.325 9.43-9.2 15.97-15.845 20.075-6.67 4.11-15.3 7.33-19.965 9.04-16.79 6.235-132.16 47.41-233.97 83.75-73.7 26.3-138.405 49.395-154.265 55.15l2.165 3.045c33.155 1.755 47.755 6.065 61.815 15.88 18.285-19.085 47.57-31.575 73.025-43.665 9.705-4.625 130.68-54.715 201.515-83.185 34.905-14.02 62.48-25.115 67.595-27.47 13.835-6.38 26.64-14.67 26.64-31.85 0-11.135-9.58-17.255-18.64-20.215" fill="#f37937"/><path d="m213.8355 182.825c5.805 0 12.085-5.37 14.03-11.98 1.955-6.625-1.175-11.99-6.99-11.99-5.81 0-12.095 5.365-14.035 11.99-1.955 6.61 1.18 11.98 6.995 11.98" fill="#f37937"/></g></svg>