<svg viewBox="0 0 500 500" xmlns="http://www.w3.org/2000/svg"><path d="m354.038 106.411-202.256.018s12.086 17.387 12.086 50.428v25.577h-42.806c-10.275 0-18.605-8.33-18.605-18.605V59.836c0-10.232 8.372-18.605 18.605-18.605h138.809c10.681.146 17.702 10.748 16.242 21.325-1.412 10.244-6.761 16.381-6.761 16.381h55.08V55.092C324.432 24.662 299.77 0 269.34 0H105.086C74.663 0 50 24.663 50 55.092v114.493c0 30.423 24.663 55.086 55.086 55.086h151.556c10.275 0 18.605 8.33 18.605 18.605v99.189c0 10.226-8.367 18.592-18.593 18.592h-40.329v-116.57h-52.451v116.57h-45.787c-10.268 0-18.586-8.324-18.586-18.592v-9.905c0-32.95 8.857-40.565 8.857-40.565h-55.08v56.213c0 30.418 24.662 55.08 55.08 55.08h55.516v46.278c0 33.041-12.086 50.428-12.086 50.428h202.281c39.674 0 71.843-32.163 71.843-71.843V178.272c-.006-39.693-32.181-71.861-71.874-71.861zm19.417 322.752c0 15.666-12.704 28.37-28.371 28.37H216.325v-54.239h56.298c30.418 0 55.081-24.662 55.081-55.08V237.52c0-30.424-24.663-55.092-55.093-55.092h-56.292v-33.55H345.09c15.667 0 28.365 12.698 28.365 28.364v251.921zm57.976 52.457v3.326h-4.211v15.048h-4.071v-15.042h-4.459v-3.332h12.741zm13.806-.006-4.016 10.171-4.017-10.171h-4.071V500h4.071v-10.202l3.665 9.081h.697l3.665-9.081V500h4.071v-18.386h-4.065z" fill="#2F241D"/></svg>