<svg viewBox="0 0 500 500" xmlns="http://www.w3.org/2000/svg"><g fill="none" fill-rule="evenodd"><path d="m400.831 266.832c-33.002 8.201-57.503 27.824-65.498 52.498l-6.312 19.528-14.694-14.335c-12.495-12.222-23.884-16.56-43.473-16.56 0 0-63.158-.032-82.265-.04v81.794c0 8.913 5.14 16.797 13.073 20.082l11.768 4.869-29.033 70.395h-75.747l-28.945-70.221 11.507-4.971c8.296-3.57 13.247-11.106 13.247-20.154v-239.832c0-9.048-4.951-16.568-13.216-20.138l-11.404-4.916 28.716-71.907 162.3.23c22.136 0 32.306-3.34 43.473-14.257l15.066-14.723 6.027 20.185c7.718 25.798 31.871 55.957 63.118 63.73l16.49 4.093-8.55 14.683c-10.281 17.668-14.844 36.785-14.844 61.965 0 20.573 5.275 38.827 17.138 59.218l8.54 14.684-16.48 4.1zm13.065-21.776c-11.293-19.41-16.33-36.753-16.33-56.226 0-24.095 4.333-42.286 14.037-58.972l12.527-21.523-24.16-6.009c-29.088-7.235-51.636-35.494-58.864-59.669l-8.842-29.597-7.023 6.863-15.058 14.724c-9.965 9.752-18.79 12.57-39.33 12.57l-166.316-.238-32.354 81.018 16.71 7.204c6.122 2.644 9.633 7.995 9.633 14.684v239.832c0 6.697-3.52 12.056-9.656 14.7l-16.87 7.29 32.679 79.292h83.689l32.804-79.545-17.232-7.14c-5.726-2.367-9.42-8.09-9.42-14.597v-75.85c10.218 0 76.334.033 76.334.033 18.047 0 27.973 3.752 39.33 14.865l21.542 21.025 9.253-28.632c7.355-22.694 30.266-40.853 61.284-48.563l24.153-6.008z" fill="#fefefe" stroke="#fff" stroke-width="12.76"/><path d="m194.814 134.923h102.976c4.722 0 12.646 1.243 12.646 9.57v72.493c0 5.121 0 7.456-12.646 7.456h-102.976v-89.52zm121.555 82.063v-72.493c0-9.57-7.11-15.507-18.578-15.507h-108.909v101.393h108.91c18.577 0 18.577-7.116 18.577-13.393z" fill="#fefefe"/><path d="m188.882 128.986h108.91c11.467 0 18.577 5.937 18.577 15.507v72.493c0 6.277 0 13.393-18.578 13.393h-108.909zm140.211 88v-72.493c0-16.1-12.06-28.26-31.302-28.26h-121.634v126.89h121.634c21.773 0 31.302-9.23 31.302-26.137z" fill="#221f20"/><path d="m175.862 295.175v94.546c0 14.185 8.288 26.629 20.942 31.853l-20.942 50.748h-58.69l-20.91-50.748c12.646-5.462 20.91-17.446 20.91-31.853v-239.841c0-14.391-8.264-26.392-20.91-31.846l20.91-52.355 153.687.222c23.007 0 37.519-3.388 52.371-17.882 8.92 29.819 36.482 63.556 72.237 72.438-13.555 23.312-16.576 46.782-16.576 68.376 0 21.618 5.306 42.31 18.877 65.622-35.754 8.882-64.874 31.109-74.538 60.936-14.852-14.486-29.364-20.17-52.37-20.17l-94.998-.047zm232.907-47.13c-11.863-20.392-17.138-38.646-17.138-59.21 0-25.181 4.564-44.298 14.845-61.966l8.549-14.683-16.49-4.1c-31.246-7.766-55.4-37.933-63.11-63.73l-6.034-20.186-15.058 14.723c-11.167 10.924-21.337 14.257-43.474 14.257l-162.307-.23-28.716 71.907 11.404 4.916c8.272 3.57 13.223 11.098 13.223 20.138v239.84c0 9.04-4.95 16.576-13.247 20.154l-11.507 4.97 28.938 70.214h75.748l29.032-70.388-11.76-4.876c-7.94-3.277-13.08-11.169-13.08-20.074v-81.794c19.107.008 82.272.04 82.272.04 19.582 0 30.978 4.33 43.474 16.56l14.686 14.335 6.311-19.528c8.004-24.682 32.496-44.297 65.499-52.506l16.481-4.092-8.54-14.692z" fill="#221f20"/><path d="m176.155 116.235h121.635c19.242 0 31.302 12.159 31.302 28.252v72.5c0 16.909-9.522 26.138-31.302 26.138h-121.635zm147.076 199.161c9.664-29.826 38.783-52.062 74.53-60.943-13.563-23.304-18.87-44.004-18.87-65.622 0-21.594 3.021-45.065 16.569-68.369-35.747-8.89-63.308-42.618-72.23-72.445-14.851 14.494-29.364 17.89-52.37 17.89l-153.687-.23-20.918 52.355c12.654 5.454 20.918 17.462 20.918 31.853v239.833c0 14.414-8.264 26.399-20.918 31.86l20.918 50.741h58.69l20.941-50.74c-12.653-5.233-20.942-17.676-20.942-31.861v-94.546l94.998.047c23.006 0 37.519 5.692 52.37 20.177z" fill="#fdb927"/></g></svg>