<svg viewBox="0 0 500 502" xmlns="http://www.w3.org/2000/svg"><g fill="none" fill-rule="evenodd"><path d="m249.494 2.025c-137.57 0-249.494 111.925-249.494 249.495s111.924 249.48 249.494 249.48c137.563 0 249.48-111.911 249.48-249.48 0-137.57-111.917-249.495-249.48-249.495" fill="#fff"/><path d="m479.535 251.506c-.02-1.435-.072-2.863-.105-4.298h-71.76c-1.127-38.802-16.347-77.27-45.963-106.88-61.571-61.583-161.44-61.577-223.017-.006-29.708 29.714-44.941 68.333-45.99 107.26l-73.174-.073-.08 3.964c-.006.393-.019.754-.019 1.173 0 1.035.066 2.057.079 3.093h73.181c.957 39.044 16.204 77.807 46.003 107.606 61.577 61.584 161.433 61.584 223.017-.013 29.89-29.884 45.144-68.798 46.016-107.967h71.753c.02-1.035.078-2.057.078-3.092 0-.256-.02-.511-.02-.767" fill="#fff"/><path d="m249.494 21.446c-125.52 0-227.806 101.041-229.968 226.057l73.174.078c1.049-38.926 16.282-77.545 45.99-107.259 61.577-61.57 161.446-61.577 223.017.007 29.616 29.609 44.836 68.077 45.963 106.879h71.76c.033 1.435.085 2.863.105 4.298 0 .007.02.007.02.013 0-126.87-103.204-230.073-230.061-230.073" fill="#b02534"/><path d="m479.554 252.273c0 1.035-.059 2.057-.078 3.092h-71.753c-.872 39.17-16.125 78.083-46.016 107.967-43.238 43.251-105.307 55.995-159.782 38.527l1.18-1.736c-3.46-.846-7.817-3.781-10.38-6.218-5.693 1.454-8.792-1.167-12.717-2.326l-.36 1.205c-14.762-7.39-28.646-17.127-40.958-29.439-5.831-5.825-10.936-12.089-15.653-18.53 1.566.931 3.361 1.927 4.822 2.445l-1.408-2.372s-4.017-2.64-7.247-5.275c-2.608-3.898-5-7.895-7.22-11.964 4.671 4.246 7.862 4.986 11.394 6.663l-1.082-5.058c-3.007-.95-9.009-3.518-13.445-7.882-10.136-20.685-15.613-43.08-16.164-65.633h-73.181c-.013-1.036-.079-2.058-.079-3.093 0-.42.013-.78.02-1.173 0 .026-.02.02-.02.046 0-1.35.079-2.673.099-4.016 2.162-125.016 104.448-226.057 229.968-226.057 126.857 0 230.06 103.203 230.06 230.073 0-.006-.02-.006-.02-.013 0 .256.02.511.02.767zm-291.847 144.252a15.611 15.611 0 0 0 4.265-.327c1.704 1.874 3.165 2.929 4.757 3.846-3.033-1.094-6.047-2.234-9.022-3.519zm61.787-386.041c-133.12 0-241.035 107.92-241.035 241.035 0 133.108 107.914 241.029 241.035 241.029 133.12 0 241.022-107.921 241.022-241.029 0-133.114-107.901-241.035-241.022-241.035z" fill="#212f57"/><path d="m82.846 309.29c-.57 1.526-1.854 2.68-3.683 3.374-1.998.708-4.108.59-5.752-.308h-.007c-1.251-.675-2.188-1.769-2.706-3.158 0 0-.898-2.411-1.33-3.584 1.245-.426 10.975-3.696 12.174-4.102.347.93 1.12 3.093 1.12 3.093.36.983.531 1.9.531 2.752 0 .694-.111 1.336-.347 1.933zm.085 13.995c2.745-1.015 4.639-2.942 5.727-5.766 1.5-3.885 1.218-9.396-.747-14.742l-5.53-15.057-.852.819s-3.054 2.935-3.067 2.955c-.059-.026-3.728 1.297-3.728 1.297s-7.345 2.64-7.423 2.674c0-.184-4.423-2.045-4.423-2.045l-.701-.288s-2.195 4.855-2.438 5.399c-.55.203-12.311 4.495-12.337 4.501-.014-.046-4.017-.268-4.017-.268l-1.153-.072 4.98 13.897 3.905-4.102c.052.046 9.952-3.636 12.698-4.652.105.295.727 2.031.917 2.601-.576.642-14.126 15.595-14.126 15.595l3.95 11.263s3.5-5.353 3.598-5.491c.23-.242 11.466-12.01 12.292-12.882 3.485 4.01 8.354 5.851 12.475 4.364zm27.192 49.194c-1.422 2.477-5.314 9.225-6.094 10.588a5059.232 5059.232 0 0 0 -5.628-6.408c1.572-.563 9.015-3.217 11.722-4.18zm9.028-10.326s-16.288 5.694-16.34 5.707c-.007-.112-4.876-1.304-4.876-1.304l-.609-.15s-1.94 4.107-2.188 4.612l-13.629 4.58.098.046c-.615.026-1.742.183-4.2.557l-1.939.327 8.328 9.566s1.946-4.121 2.162-4.6c.459-.19 5.235-2.083 6.002-2.384.616.694 8.262 9.376 8.858 10.064a893.67 893.67 0 0 0 -3.125 5.484c-.511.15-4.901 1.48-4.901 1.48l10.85 12.41s1.403-6.342 1.41-6.368c.012.124 2.81-4.547 2.81-4.547s4.41-7.332 4.449-7.385c.046.131 4.338-1.552 4.338-1.552l.576-.217s-.878-5.91-.884-5.93c.124.027 7.56-15.286 7.56-15.286l.217-.452-4.259-4.9zm66.368 53.551c-.086-.06-5.55 11.093-5.55 11.093s-1.592 3.256-2.667 5.444l-5.261-29.013-10.648-5.209.092 1.31s.321 4.96.321 4.987c-.065-.098-2.902 5.7-2.902 5.7s-1.79 3.643-2.025 4.141c-.537.203-5.117 1.96-5.117 1.96l1.5 5.615c-.17-.027-3.879 7.476-3.879 7.476s-2.155 4.357-2.182 4.396c-.052-.065-3.387 2.379-3.387 2.379l-1.01.74 12.129 6.022s-.727-6.12-.74-6.133c.104 0 7.698-15.267 10.444-20.79.7 4.055 6.015 34.785 6.015 34.785l4.992 2.516s8.08-16.531 8.112-16.61c.085.138 4.187-1.756 4.187-1.756l.57-.268s-1.252-5.098-1.265-5.157c.17 0 3.244-6.29 3.244-6.29s2.018-4.147 2.037-4.18c.079.02 3.257-2.49 3.257-2.49l.937-.74-11.729-5.95s.525 6.009.525 6.022m75.323 33.802c-.072 0-.091 3.82-.091 3.82l-.027 7.45c-.858.262-1.84 1.062-4.861 1.035-7.417-.059-11.781-6.702-12.816-13.255.065-.046 3.328-3.302 3.328-3.302l.498-.491s-3.02-3.584-3.433-4.076l.216-1.297c1.527-5.242 5.661-10.877 12.672-10.706 5.058.104 8.82 1.336 10.595 3.466-.007-.013.629.773.629.773l1.297 1.612.243-8.02-.505-.347c-3.623-2.458-6.729-3.31-12.285-3.362-10.68-.098-20.397 6.448-23.64 15.916-.014.045-.531 1.965-.55 2.004-.034-.072-3.08 3.093-3.08 3.093l-.446.478 3.38 4.45c1.829 10.686 12.116 18.798 23.844 18.896 8.236.078 10.635-1.12 13.445-2.516l1.638-.82.066-15.056c.105 0 2.15-3.637 2.15-3.637l.635-1.133-15.562-.118s2.647 5.098 2.66 5.143m85.133-11.433c-.026-.066-6.513 2.778-6.513 2.778s-2.523 1.1-3.512 1.54c-.301-.74-4.829-11.539-5.34-12.784 1.147-.491 6.978-3.007 6.991-3.014.013.033 4.253-.21 4.253-.21l1.074-.052-3.728-8.983s-4.062 3.774-4.069 3.774c-.013-.026-6.768 2.903-6.768 2.903s-.086.04-.125.052c-.498-1.179-3.957-9.192-4.455-10.359 1.061-.458 10.005-4.304 10.339-4.462.413.033 7.587.426 7.587.426l-3.675-8.72-1.036.451-27.361 11.886 4.809 3.519c0 .203 4.449 10.575 4.835 11.492-.249.537-2.372 5.078-2.372 5.078s4.836 1.776 5.393 1.979c.23.557 4.888 11.984 4.9 12.016-.065.014-.399 4.168-.399 4.168l-.105 1.277 28.011-12.2-3.604-8.465s-5.104 5.897-5.13 5.91m48.237-64.192c0 1.39-.485 2.693-1.428 3.794 0 .006-1.638 1.959-2.45 2.929-1.003-.918-8.597-7.804-9.528-8.65.63-.746 2.136-2.49 2.136-2.49 1.219-1.44 2.562-2.266 3.97-2.456 1.613-.243 3.238.301 4.719 1.572 1.618 1.396 2.548 3.303 2.581 5.177zm7.149-.767c.602-1.67 1.041-3.367 1.041-4.973 0-3.236-1.16-6.159-3.374-8.072-2.221-1.913-4.836-2.627-7.817-2.188-4.115.602-8.767 3.558-12.442 7.895l-10.38 12.233s5.328 1.58 5.354 1.58v.006c0 .118 8.701 7.712 8.793 7.79-.026 0-.04.092-.04.25 0 1.015.414 4.612.414 4.612l.085.747s5.327-.472 5.897-.518c.478.406 9.992 8.584 9.992 8.584 0 .13 1.71 3.636 1.71 3.636l.511 1.042 9.632-11.165s-5.432-1.402-5.439-1.402c0-.066-8.085-6.939-10.32-8.826.38-.44 1.468-1.67 1.829-2.077.838.19 20.462 4.71 20.462 4.71l7.843-8.982-6.506-.465c-.118-.027-15.98-4.089-17.245-4.417zm52.994-66.74c-1.586-3.545-4.594-6.133-8.486-7.286-1.723-.537-3.793-.42-5.104-.092v.007c-2.182.596-4.108 1.998-4.914 2.739l-2.653 2.6c-.073.066-.918 1.095-1.226 1.468-.55.014-3.852.053-3.852.053s-1.252 4.953-1.298 5.17c-.072.006-.478.445-.478.445-2.975 3.152-4.947 3.158-5.858 2.883-1.92-.753-5.189-3.702-3.616-8.06 1.29-3.61 2.653-5.457 5.032-6.787l.596-.34.033-.826-1.671-3.768-1.01.53c-2.902 1.52-5.45 5.216-7.18 10.406-2.326 6.984-.95 15.935 6.211 18.752 1.127.426 2.798.943 4.416.629 1.979-.4 4.056-1.455 5.858-2.942.026-.026 1.192-1.094 1.192-1.094-.032.033.459-.374.525-.426.039.144 3.263.197 3.263.197l.59.006s1.585-5.615 1.585-5.635c.065.02 3.853-4.252 3.853-4.252 1.448-1.376 3.492-2.182 4.796-1.868 2.201.623 3.721 1.946 4.626 3.716 1.133 2.208 1.264 4.992.386 8.052-1.848 5.157-5.464 6.775-8.17 7.214l-.95.157-.086.97 1.52 3.886.8-.08c3.197-.314 8.786-4.127 11.165-11.63 1.828-5.713 1.86-10.837.105-14.794m-334.909-171.189c0-.138-10.07-8.63-10.234-8.773.013 0 .02-.033.02-.092 0-.668-.675-4.423-.675-4.423l-.125-.7s-4.534.47-5.084.523c-.446-.367-7.444-6.264-8.433-7.096.767-.937 4.16-5.038 4.174-5.065.039.066 5.438-2.358 5.438-2.358l1.166-.518-7.338-5.74-.472.577-22.29 26.602 7.07 5.818 1.716-6.808c.046.033 3.283-3.813 4.377-5.123 1.002.825 8.04 6.617 8.459 6.965.072.543.596 5.156.596 5.156s4.639-.21 5.17-.236c.432.36 10.247 8.623 10.247 8.623 0 .157 1.69 3.8 1.69 3.8l.512 1.101 9.514-11.381s-5.478-.845-5.498-.852m31.884-53.793c-.224.557-1.966 5.104-1.966 5.104s4.848 1.402 5.418 1.572c.282.57 5.904 11.958 5.923 11.99-.072.014-.098 3.775-.098 3.775l-.013 1.278 26.563-13.95-4.017-8.06s-4.416 5.924-4.416 5.937c-.04-.059-8.511 4.423-10.287 5.36a7415.478 7415.478 0 0 1 -6.447-12.6c1.127-.59 7.24-3.8 7.266-3.807 0 .046 3.787-.452 3.787-.452l1.062-.144-3.925-7.882-3.532 3.76c-.013-.032-5.57 2.857-7.188 3.696-.583-1.12-4.652-8.97-5.248-10.097 1.206-.629 10.74-5.57 10.765-5.582.007.072 5.8-.04 5.8-.04l1.23-.026-4.33-8.38-.682.36-26.215 13.78 4.724 2.935c0 .203 5.046 9.96 5.825 11.473m173.731-2.608c1.258-1.18 8.19-7.653 10.372-9.704-.34 2.968-1.408 12.22-1.592 13.845-1.435-.675-7.273-3.433-8.78-4.141zm-9.389 9.258c.36-.367 4.259-4.265 4.895-4.894.878.406 11.925 5.621 12.816 6.04-.105.898-.701 6.238-.754 6.763-.4.327-3.65 3.092-3.65 3.092l13.924 6.526s-1.094-5.805-1.094-5.812c.046 0 1.88-13.353 1.913-13.556.124.105 3.899-3.283 3.899-3.283l.53-.478s-3.833-4.875-3.852-4.888c.176-.013.989-17.71.989-17.71l.033-.512-5.478-2.627-.38.354s-13.386 12.377-13.432 12.41c-.02-.112-5.084.668-5.084.668l-.65.105s.027 4.547.034 5.143c-.492.44-10.562 9.494-10.562 9.494.104-.078-3.617 2.248-3.617 2.248l-1.193.747 10.569 4.96s.118-4.266.144-4.79zm73.162 58.924c3.341 1.048 6.86.662 10.15-1.114 1.585-.832 2.96-2.385 3.563-3.453 1.206-2.05 1.527-4.501 1.534-5.274l.072-3.748c0-.072-.131-1.56-.17-2.064.393-.406 2.633-2.687 2.633-2.687s-2.535-4.318-2.6-4.435c.019-.014.025-.132.025-.276 0-.216-.006-.74-.006-.878 0-3.322.89-5.55 2.549-6.27 1.998-.885 6.565-.773 8.524 3.486 1.67 3.597 2.005 5.975 1.232 8.753l-.184.669 3.86 1.507.255-.787c1.304-4.095-.8-9.428-2.169-12.252-3.204-6.506-10.339-11.8-17.271-8.82-1.075.446-2.569 1.259-3.466 2.576-1.108 1.618-1.841 3.793-2.058 6.12l-.105 1.624c0-.085-.072.734-.085.839-.13-.085-2.359 2.05-2.359 2.05l-.432.414s2.745 4.992 2.752 5.019c-.007 0-.007.059-.007.163 0 .944.25 5.668.25 5.668-.073 2.13-1.023 4.292-2.274 5.078-1.592 1.035-3.637 1.33-5.635.819-1.88-.472-4.58-1.874-6.742-5.838-2.418-5.229-.924-9.101.753-11.414l.564-.78-4.056-1.769-.374.446c-2.312 2.85-3.033 9.37.25 15.856 2.889 5.694 6.702 9.422 11.027 10.772m-149.678-70.089c.4-.51 7.508-9.71 8.61-11.132l7.659 11.414c-.007 0-.007.026-.007.072 0 .485.302 3.119.302 3.119l.078.681 14.67-.02-5.346-5.241c0-.026-8.17-12.148-9.54-14.179.38-.616 1.86-2.955 1.86-2.955l-2.47-2.772 9.894-13.261 4.246-4.908-13.196-.04.452 1.069s1.049 2.444 1.317 3.086c-.465.616-6.932 9.2-8.026 10.647a7384.999 7384.999 0 0 1 -7.11-10.903c.007 0 .007-.026.007-.078 0-.492-.288-3.132-.288-3.132l-.079-.688-13.694.04 4.364 4.992c0 .013 7.607 11.59 8.911 13.57-.36.615-1.86 3.04-1.86 3.04s2.181 2.103 2.856 2.758c-.754 1.003-10.608 14.015-10.608 14.022-.02 0-3.787 3.558-3.787 3.558l-1.422 1.35 13.117-.145zm195.156 97.903 5.642 17.363h18.28l-14.793 10.747 5.648 17.363-14.776-10.732-14.781 10.732 5.648-17.363-14.782-10.746h18.274l5.641-17.363m-371.162-.001 5.648 17.363h18.26l-14.768 10.733 5.642 17.376-14.782-10.732-14.762 10.732 5.635-17.376-14.775-10.733h18.26z" fill="#fff"/><g fill="#212f57"><path d="m238.984 97.811s-2.247-1.821-3.852-2.935c-1.167.098-2.326.249-3.48.38 1.062.4 4.954 1.926 5.491 2.83zm-7.234 2.202s-2.41-2.097-5.896-4.003c-1.402.222-2.785.498-4.174.747 2.588.668 4.993 2.208 7.587 3.479l2.484-.223m-13.741 3.774 4.2-1.337s-5.45-2.68-7.436-2.725c-.99-.472-1.527-.878-2.32-1.01-1.887.466-3.74.97-5.615 1.501 1.219.19 3.722.695 4.646 1.75 2.804-.498 4.75.91 6.526 1.821m-10.824 4.888 4.226-1.487c-.472-.78-5.93-3.152-8.977-3.211-1.107-.878-2.286-1.14-3.276-1.343-1.625.544-3.23 1.114-4.835 1.717.543.117 3.505.805 4.94 2.037 2.929-.498 5.818.95 7.922 2.287m-19.513 1.808c3.145-.301 6.54 1.619 8.584 2.91l4.507-1.154c-2.424-2.182-6.86-3.905-9.409-3.774-1.068-1.598-3.328-.766-4.763-.943l-5.57 2.529c.721 0 6.061-.924 6.651.432m-2.182 9.927 3.938-2.988c-3.086-1.67-7.908-2.588-10.43-2.464-1.259-.439-1.082-.851-2.53-1.028l-5.412 2.942c.688.039 5.261.13 5.87 1.474 3.12-.269 6.572.819 8.564 2.064m-22.893 8.74c3.676-.68 9.062-2.142 14.323-.956l3.951-3.512c-5.943-1.042-12.246-.74-15.437.098-.773-1.192-2.568-2.411-2.568-2.411l-3.761 3.165c1.795.563 2.398 2.083 3.492 3.617m-10.569 11.846c3.04-1.514 9.724-2.582 16.492-1.664l3.486-4.495c-10.254-.734-14.46.57-17.652 2.116-1.094-1.854-2.706-2.935-2.706-2.935l-3.112 2.876c1.795.557 2.372 2.588 3.492 4.102m-6.99 8.695c-1.062-1.861-2.995-3.755-2.995-3.755l-2.464 3.886c2.26 1.245 2.044 2.706 3.132 4.245 3.06-1.54 9.298-4.455 16.086-3.511l3.472-4.495c-10.62.236-16.459 1.173-17.232 3.63m-7.482 13.498c-1.075-2.57-3.932-5.649-3.932-5.649l-1.84 4.416c1.63 1.232 2.653 4.253 3.78 5.792 3.04-1.579 6.971-4.56 13.713-3.577l3.198-5.222c-8.603 0-14.153 1.75-14.92 4.24m-6.322 13.031c-1.357-3.4-4.417-6.316-4.417-6.316l-1.834 4.895c2.287 1.238 2.654 4.258 3.754 5.752 3.047-1.507 7.627-4.324 14.441-3.42l2.811-5.176c-8.282 0-14.008 1.789-14.755 4.265m-6.251 15.647c-1.533-3.04-4.888-6.827-4.888-6.827l-1.507 5.084c2.254 1.265 3.302 4.285 4.403 5.838 3.053-1.553 6.795-4.075 13.583-3.138l2.168-4.895c-10.306.63-12.986 1.494-13.76 3.938m-6.197 14.035c-1.095-1.854-4.895-6.487-4.895-6.487l-1.016 5.078c2.287 1.265 3.31 4.272 4.436 5.832 3.02-1.56 8.105-4.331 14.874-3.434l1.697-5.052c-9.953.597-14.304 1.573-15.096 4.063m-3.67 16.931c-1.08-1.868-5.766-8.354-5.766-8.354l-1.061 5.418c2.247 2.09 3.931 5.97 5.032 7.535 3.047-1.553 7.817-5.798 14.552-4.835l1.062-4.534c-9.848.74-11.42 1.834-13.819 4.77m-4.121 21.89c1.317-2.62 6.29-5.077 13.098-4.514l.845-4.94c-8.072.465-11.709 1.795-12.77 4.108-1.193-1.848-7.201-8.079-7.201-8.079l-.793 5.255c4.004 3.44 5.655 6.736 6.821 8.17m-2.294 18.039c.25-.282.577-1.206 1.252-2.038 1.212-1.461 4.698-3.525 12.194-3.21l.426-4.64c-8.636.099-11.414 2.215-12.148 3.067-.681.596-.95 1.75-1.134 2.398-1.33-3.532-7.043-9.219-7.043-9.219l-.34 5.058c1.991.891 5.68 7.064 6.794 8.584m12.383 28.973-.144-4.96c-6.506-2.922-9.854-2.404-12.24-.989-1.107-1.894-7.64-4.292-7.64-4.292l.309 4.987c2.647.622 5.87 2.253 6.998 3.787 3.033-1.553 7.351-1.409 12.717 1.467m-13.15-14.736c1.409-2.358 2.988-3.577 13.091-1.448l.046-4.822c-11.912-.577-11.748.498-12.121 2.025-1.016-1.894-7.876-7.765-7.876-7.765l.098 5.57c2.235 1.336 5.727 4.855 6.762 6.44m1.56 27.061c.583-1.56 2.483-.694 4.94.393 2.188 1.01 3.813 2.169 6.323 3.545l-.131-4.993c-5.491-3.525-10.864-6.211-11.63-3.76-1.075-1.855-6.782-4.443-6.782-4.443l1.278 5.543c2.955.767 4.894 2.169 6.002 3.715m1.316 12.561c2.602-.315 4.875.681 10.445 4.665l-.413-4.718c-5.687-4.757-8.452-4.488-10.47-4.488-1.108-2.025-5.622-4.501-5.622-4.501l.7 5.025c2.392.976 4.234 2.34 5.36 4.017m232.092-42.884c-1.782-1.245-4.822-2.975-10.444-9.14l-4.16 2.535c1.88 1.409 10.358 11.204 14.322 9.723 0 0-1.795 12.122-1.48 18.386l4.553-2.916c-.157-3.296.066-17.193.878-20.436.177-.17-2.542 2.64-3.67 1.848m12.024-8.315c-4.252-6.225-7.096-9.01-9.566-10.693l-3.047 2.273c1.278.367 4.724 3.8 9.6 11.06l2.915-2.404c.413 8.052 1.048 15.705.17 19.381l3.519-2.732c.707-5.89.524-12.738-.321-18.988zm-158.248 120.671c-5.694 1.448-10.962-1.1-14.88-2.267l-1.088 3.342c5.517 2.857 10.831 2.418 14.86 1.553 2.209 3.151 4.083 4.92 8.984 6.749l1.749-2.543c-5.216-.635-7.26-3.309-9.625-6.834m4.023-9.12c-5.727 1.448-11.761-.642-15.712-1.802l-1.645 3.767c5.97 2.045 11.5 2.464 15.542 1.619 2.057 3.387 4.292 6.604 9.212 8.439l1.809-3.21c-4.076-1.671-7.876-3.84-9.206-8.813m6.428-12.044-.603.957c-5.7 1.468-12.613.197-16.551-.956l-2.025 3.577c5.504 1.71 10.3 1.98 16.42 1.298l.315-.564c2.227 4.082 2.797 6.513 8.53 9.874l2.785-3.21c-3.61-1.455-8.007-7.273-8.871-10.975"/><path d="m212.756 357.612-.321.459c-5.478 1.048-11.978-1.809-15.896-2.962l-2.254 3.388c5.517 2.89 10.89 3.112 15.732 3.112l.288-.42c2.018 4.463 3.958 9.088 8.846 10.936l2.778-3.224c-3.597-1.441-8.302-7.58-9.173-11.289m-10.392-10.451c.498.236 1.055.492 1.619.74v-2.476zm94.227-26.457c-2.961-3.093-2.844-12.246-2.536-17.2l-1.369.813c-5.53-.905-11.506-6.408-14.27-10.163l-.341.138v-28.882c0-10.418 14.428-14.409 14.428-14.409s-3.925-1.559-7.673-4.376l-5.858 1.65c-.13.034-12.849 3.716-12.849 12.352v50.956c0 3.46 1.422 5.766 8.354 5.766h3.585c.013-.334.032-.668.013-1.022v-15.424c3.597 3.158 7.377 5.753 10.24 6.074l1.252-.734c.046 6.205-.478 9.874 1.01 14.218l-3.06-2.843v30.9h-83.279l13.085 12.364h5.674c.839 1.369 1.808 2.43 3 2.765l2.713-2.765h68.89v-33.882l-4.98-4.632z"/><path d="m312.985 294.213-1.357.806c-5.543-.898-11.512-6.401-14.283-10.169l-5.157 2.143c4.672 4.874 10.864 10.201 15.057 10.693l1.258-.74c.052 7.325-.885 11.04 1.874 16.603l5.15-2.136c-2.968-3.086-2.837-12.266-2.542-17.2m19.335-9.533-.183-.308c-1.828.635-4.148.078-6.231-1.684-2.058-1.77-8.918-9.9-8.918-9.9l-5.654 3.086c3.276 3.374 13.995 11.898 16.19 11.97l.314-.235c.033 7.174-.871 10.902 1.88 16.413l5.125-2.15c-2.955-3.072-2.818-12.259-2.523-17.192m32.453-27.048c-2.11-3.669-6.421-8.577-9.69-10.837l-2.942 2.614c2.941 1.743 8.983 7.352 10.798 11.742l1.952-2.077c.583 6.997.544 14.867-.262 18.53l3.623-2.884c.583-6.31.197-13.609-.924-18.955zm9.075-7.076c.904 2.352 1.612 5.209.898 19.388l3.453-3.217c.098-10.634-.479-13.537-1.619-18.89zm8.609-9.081c1.6 5.366 2.602 14.5 1.717 19.794l3.184-4.2c.538-5.989-1.336-13.458-2.443-18.805l-2.458 3.21m6.716-9.736-1.238 2.123c3.466 4.449 4.796 9.455 5.196 16.138l2.45-3.761c-.078-6.978-4.678-16.092-6.408-14.5m4.279-7.135-.681.832.51-.832c-1.847-3.715-4.094-7.738-7.633-10.195l-1.92 2.561c2.91 1.802 5.937 6.153 7.778 10.543l.944-1.553c1.605 1.383 4.468 3.48 6.349 14.343l1.448-3.78c-1.586-10.327-6.402-14.22-6.795-11.92m3.938-8.15-.321.897c-1.828-3.669-3.027-6.185-7.149-9.952l-1.428 2.273c3.866 3.447 5.576 5.353 7.378 10.405l.91-1.926-.11.295c2.168 1.795 4.625 4.678 6.112 12.6l1.127-4.502c-.439-5.713-5.753-12.056-6.52-10.09m-33.985 22.133-2.93 2.614c2.923 1.737 8.97 7.345 10.773 11.742l2.417-2.569c-1.84-3.715-6.702-9.336-10.26-11.787m8.852-8.419-2.772 2.24c2.018 1.35 9.055 7.26 10.877 11.67l2.123-2.929c-1.841-3.741-6.533-8.485-10.228-10.981m14.31 5.477 1.743-2.601c-1.835-3.741-4.921-8.472-8.472-10.936l-2.418 2.569c2.902 1.782 7.306 6.572 9.147 10.968m12.272-23.778 1.088-2.247c-1.842-3.761-2.818-4.764-6.933-8.93l-.773 2.3c2.877 2.47 4.81 4.507 6.618 8.877m.806-1.133c1.278.924 2.555 2.22 3.885 4.33a148.09 148.09 0 0 0 -1.277-5.018l-1.54-1.723-1.068 2.41m-1.422-13.379c-.596-.76-1.415-1.658-2.62-2.843l-.63 2.149c2.15 2.326 4.24 4.796 5.91 8.57-.812-2.66-1.71-5.275-2.66-7.876m-92.379 27.919 12.56 11.892h20.528v-67.75l-11.38-10.64v66.498zm-39.72 5.759c0 8.033 12.915 13.177 13.046 13.23l5.314 2.083c-3.316-2.569-6.408-6.1-6.408-10.543v-43.283l2.044.124c7.941.682 13.668 2.785 17.737 5.864-6.592-6.598-17.226-10.201-31.733-10.24zm-41.095-42.897c-26.477 0-37.282 9.186-37.308 31.949l-.026 5.189h-26.17l11.932 11.185h24.879l.02-4.18c0-23.313 2.286-38.01 27.014-40.474v-3.669h-.34"/></g><path d="m261.89 311.583v-50.956c0-7.994 6.795-12.384 11.526-14.592-4.672-2.614-11.525-7.561-11.525-15.005v-47.254l2.234.125s2.018.104 1.907.104c27.833 0 43.788 12.58 43.788 34.53 0 0-.013 1.258-.02 2.503h13.517v-58.294h-157.756v58.294h18.097c.111-1.192.21-2.385.21-2.385l-.354 1.18c0-24.853 12.796-35.932 41.514-35.932h4.574v47.13c0 8.078-5.858 12.678-10.058 15.083 4.233 2.181 10.058 6.44 10.058 14.513v50.49c0 6.553-4.515 10.465-12.083 10.465h-9.304v22.696h75.056v-22.696h-8.794c-8.36 0-12.586-3.362-12.586-10" fill="#b02534"/></g></svg>