<svg viewBox="0 0 500 502" xmlns="http://www.w3.org/2000/svg"><g fill="none"><path d="m353.19 316.76 5.23 6.22-3.42 3.47c-6.21 6.23-66.17 47.88-132.18 39.59-29-3.63-54.74-16.18-76.91-37.39 23.09 24.17 50.33 38.35 81.33 42.22 66.61 8.35 125.59-33.56 132.19-40.18l3.5-3.51-4.52-5.25h8.71v-17.22l-5.17-.79v12.84zm-46.94-120.23c4 7.62 12.78 24.47 18 34.43.82-1.42 1.73-3 2.68-4.67-5.05-9.92-10.89-21.42-13.74-27l11.29-2.74v-14.55h-5.18v11.76zm-47.01 5.73c-1.47-2.46-2.47-4.14-2.79-4.7l-13.87-2.72v4.16zm75.84-7.42v4.16l6.74 1.32c.79-1.39 1.52-2.65 2.13-3.74zm3.99 64.03v37.13l5.17.8v-35.08l25.21-42.24a47.61 47.61 0 0 1 2.66-16zm85.77-64.1c-8.07 0-16.65 3.86-16.65 11 0 4.52 1.61 7.43 5.86 10.4a11.23 11.23 0 0 1 -1.4-5.7c0-7.16 8.59-11 16.67-11 10.26 0 17.6 4.2 22.11 24.51l-.43-2.26c-3.55-18.13-12.1-26.95-26.16-26.95zm27.03 31.28c.05.28.11.55.17.83l.84 4.34h19.74l-1.72-44-3.44-1.22c-.54-.2-1.07-.38-1.6-.55l1.59 40.62zm-50.4 67.77c-3.48-4.69-5.83-11-7.08-19.06l-.71-4.53h-4.35c1.85 11.16 5.86 18.99 12.14 23.59zm29.32-15.88c-4.48-3.62-10.27-6.15-16.39-8.83l-9.4-4.32c-8.62-4.24-15.5-8.56-20.83-13.2 5.75 6.66 14.26 12.59 26 18.37l9.37 4.32c5.24 2.29 10.21 4.48 14.35 7.32a11.6 11.6 0 0 0 -3.1-3.66z" fill="#79bde8"/><path d="m468.56 249.72c4.66 6.83 6.95 15.14 6.95 25.18 0 27.65-21.2 44.84-55.33 44.84-15.71 0-29.62-2.89-42.44-8.82l.07 2.69 2.89 1.39c13.61 6.73 27.51 9.86 43.72 9.86 34.13 0 55.33-17.18 55.33-44.83 0-12.7-3.67-22.65-11.19-30.31zm-278.56 36.82h31.86c-.67-1.94-1.29-3.71-1.8-5.17h-34.51c-1.23 3.31-3.12 8.42-4.74 12.77 2.78 3 5.76 6.11 9 9.22-1.51-1.55-2.94-3.09-4.33-4.59 1.69-4.55 3.59-9.68 4.52-12.23zm84.75 30.22h-60.36v5.17h110.76c3.81-1.59 7.7-3.31 11.63-5.17zm5.35-18.88c-6.2-15.79-30.32-77.19-40.73-103.67l-2-.39v-4.61c-1.8-4.56-2.84-7.26-2.84-7.26h-5c8.79 22.39 43.28 110.18 44.88 114.25zm-76.31-66.17c-4.62 12.41-10.67 28.66-10.67 28.68h6.38c1.95-5.18 5-13.26 7.28-19.52-.94-2.87-1.95-5.97-2.99-9.16zm-44.16-27.33 6.62 1.79a58.08 58.08 0 0 0 3.87-21c0-16.93-5.88-28.21-14.86-35.69 6 7.24 9.69 17.1 9.69 30.52a57.19 57.19 0 0 1 -5.32 24.38zm-20.81 23.33 3.64 6.11a54.77 54.77 0 0 0 21.61-22.72l-8.23.09a55 55 0 0 1 -17.02 16.52zm-4.6 2.63-.83.36c3.61 5.3 8.61 12.65 8.61 12.65s11.48 16.89 11.58 17 .93 1.22.93 1.22c1.76 2.353 3.547 4.72 5.36 7.1l.44-1.08c-.16-.22-.34-.44-.5-.67l-1.06-1.4-11.6-17-8.57-12.64.83-.36c.28-.14.54-.3.82-.45l-5.38-5-.63.27zm-55.94-63.28 4 3v-13.52c1-.06 2.06-.12 3-.12 9.18 0 16.44 2 21.83 5.93-5.51-7.43-14.46-11.1-27-11.1-.93 0-2 .06-3 .13v67l5.17.06v-46.44zm-73.12 149.71v5.23h102.75v-20.46l-5.17-.92v16.15zm82.57-75.3s-1-1.94-1.08-2l-.1-.17-9.42-3.18v55.76l5.17.91v-51.5l6.46 2.18-.76-1.38zm-82.57-90.4v6l19.94 3.82v-6z" fill="#79bde8"/><g fill="#fff"><path d="m155.84 211.19-6.53.08a49.56 49.56 0 0 1 -13.21 11.85l2.72 4.59a55 55 0 0 0 17.02-16.52z"/><path d="m475.51 274.9c0-10-2.29-18.35-6.95-25.18a38.53 38.53 0 0 0 -5.85-6.72c-8.71-8-18.82-12.47-27.71-16.36l-5.5-2.44-.95-.44c-6.62-3-11.3-5.32-14.5-7.56-4.25-3-5.86-5.88-5.86-10.4 0-7.17 8.58-11 16.65-11 14.06 0 22.61 8.82 26.15 27l.44 2.27.4 2.06h15.62l-1.59-40.62-.14-3.51-3.44-1.2c-14.2-5-25.56-7.19-36.86-7.19a80.22 80.22 0 0 0 -23.21 3.16h-72.3v17l5.17 1 8.92 1.81c-.61 1.09-1.34 2.35-2.13 3.74l-14.9 26c-.95 1.67-1.86 3.25-2.68 4.67-5.21-10-14-26.81-18-34.43l13-2.77v-17h-81.88v17l2 .39 3.21.63 13.87 2.72c.32.56 1.32 2.24 2.79 4.7 8.44 14.22 32.44 54.59 33.63 56.6v37.32l-11.15 2.18c-.54-.15-1.08-.32-1.62-.48l-5.65-1.68c-1.6-4.07-36.09-91.86-44.88-114.25l-2-5.17h-29.99l-37.33 90.83-.44 1.08a710.266 710.266 0 0 1 -5.36-7.1s-.8-1.06-.93-1.22-11.58-17-11.58-17-5-7.39-8.59-12.65l.83-.36.61-.34-4.18-3.93c-1.53.71-3 1.36-4.35 1.88l-.91.5c9.06 13.18 16.79 24.93 23.81 35 3.85 5.1 7.84 10.43 12.08 15.83l39.92-97.12h22.68l46.54 118.45 11 3.27 16.78-3.27v-43.22l-38.4-64.62-17.06-3.35v-7.26h71.16v7.26l-15.7 3.35 25.8 49.36 28.3-49.36-17.06-3.35v-7.26h67.76a73.81 73.81 0 0 1 22.42-3.15c11.64 0 22.88 2.62 35.1 6.9l1.36 34.82h-5.64c-4.06-20.85-14.91-31.28-31.4-31.28-12 0-22 6.51-22 16.39 0 12.29 9.49 16.39 24.43 23.27 9.68 4.48 21.94 8.76 31.84 17.89 7.55 6.89 11 16 11 27.94 0 23.83-17.58 39.48-50 39.48-15.5 0-29.47-3-42.27-9.31l-1-34.64h7c3.47 22.35 15.29 33.71 34.7 33.71 13.76 0 21.91-7.27 21.91-17.33a16.3 16.3 0 0 0 -6.4-13c-7.38-6-17.06-8.94-26.76-13.78-21.91-10.79-32.58-22-32.58-40.42 0-12 4.35-21.93 12.46-28.92l-15 2.11-38.58 64.62v43.15l22.88 3.54v7.26h-142v-7.26l17.85-3.54-8.44-24.6h-42.06l-7.15 19.27c.31.36.6.72.88 1.06 34.21 37.6 80.45 67.51 171.45 21.39l4.14 4.95c-11.22 11.25-150 102.27-234-39.52-2.8-4.23-5.42-8.61-7.91-13l-1.12 4.69-.21-7c-5.39-9.72-10.26-19.53-15.26-28.34a20.2 20.2 0 0 0 -1.39-2.62c-.4-.73-.76-1.37-1.11-2l-12.54-4.23v-6.86c1.76 0 5.1.06 6 .06 9.65 0 17.21-1.93 22.86-5.81l.04-2.04-.28-4.12.06-.5c-4.82 4.77-12.22 7.14-22.58 7.14h-1.4l-5.17-.06v-67c1-.07 2.07-.13 3-.13 12.54 0 21.49 3.67 27 11.1a32.87 32.87 0 0 1 5.54 13.45l5.57 12.88.83-.7v-.4c0-27.37-13.08-41.69-39-41.69-2.62 0-5.48.25-8.35.51v150l25.61 4.52v10.54h-92v-10.67l25.09-4.52v-145.93l-25.05-4.77v-10.29h87.31c45.48 0 66.9 12.79 66.9 44.68a52.28 52.28 0 0 1 -5.13 22.96l5.18 1.4a57.19 57.19 0 0 0 5.37-24.4c0-13.42-3.69-23.28-9.69-30.52-14.12-16.92-40.89-19.48-62.63-19.48h-92.68v20.09l5.16 1 19.94 3.77v137l-25.1 4.53v20.38h102.74v-20.39l-20.44-3.62-5.17-.91v-55.76l9.42 3.18.1.17c0 .09 1.08 2 1.08 2l.3.62.73 1.35 7.24 13.35c5.11 9.7 10.4 19.73 16.68 29.2 10 16.827 21.073 31.057 33.22 42.69 22.17 21.21 47.9 33.76 76.91 37.39 66 8.29 126-33.36 132.18-39.59l3.47-3.47-5.23-6.22h8.77v-17.21l-17.71-2.75-5.17-.8v-37.13l33-55.35a47.61 47.61 0 0 0 -2.66 16v.09c0 13 4.47 23.07 14.74 32 5.33 4.64 12.21 9 20.83 13.2l9.38 4.32c6.12 2.68 11.91 5.21 16.39 8.83a11.6 11.6 0 0 1 3.11 3.66 11 11 0 0 1 1.29 5.21c0 7.38-6.34 12-16.55 12-6.92 0-12.63-1.64-17.17-5-6.28-4.6-10.29-12.43-12.14-23.59 0-.21-.08-.41-.11-.63l-.7-4.53h-17.09l1.2 43.37 2.89 1.43c.73.36 1.47.71 2.21 1 12.82 5.93 26.73 8.82 42.44 8.82 34.13.04 55.33-17.15 55.33-44.8zm-150.36 47c-32 13.31-59.62 17-83.95 11.27-21.76-5.13-38.48-17.42-51.39-29.84-3.24-3.11-6.22-6.21-9-9.22 1.62-4.35 3.51-9.46 4.74-12.77h34.52c.51 1.46 1.13 3.23 1.8 5.17 1.07 3.1 2.31 6.63 3.47 10l-16.12 3.19v17h127.56c-3.93 1.92-7.78 3.64-11.63 5.23z"/><path d="m113.48 193.14v-.14a.37.37 0 0 1 0 .11zm90.64 22.34-15.91 42.72-2.83 7.57 35.17-.09zm-11 44.91s6-16.27 10.67-28.68c1 3.19 2.05 6.25 3 9.14 2.56 7.81 4.75 14.47 6.4 19.49h-13.68z"/></g><g fill="#002d62"><path d="m149.31 211.27-20.1.23 6.89 11.62a49.56 49.56 0 0 0 13.21-11.85z"/><path d="m109.28 270.12c2.49 4.42 5.11 8.8 7.91 13 84 141.79 222.74 50.77 234 39.52l-4.19-4.92c-91 46.12-137.25 16.21-171.46-21.38-.28-.34-.57-.7-.88-1.06l7.16-19.28h42.06l8.55 24.59-17.85 3.54v7.26h142v-7.26l-22.88-3.54v-43.21l38.58-64.62 15-2.11c-8.11 7-12.46 16.87-12.46 28.92 0 18.45 10.67 29.63 32.58 40.42 9.7 4.84 19.38 7.82 26.76 13.78a16.3 16.3 0 0 1 6.4 13c0 10.06-8.15 17.33-21.91 17.33-19.41 0-31.23-11.36-34.7-33.71h-7l1 34.64c12.8 6.33 26.77 9.31 42.27 9.31 32.39 0 50-15.65 50-39.48 0-11.92-3.5-21.05-11-27.94-9.9-9.13-22.16-13.41-31.84-17.89-14.94-6.88-24.43-11-24.43-23.27 0-9.88 10-16.39 22-16.39 16.49 0 27.34 10.43 31.4 31.28h5.64l-1.36-34.82c-12.22-4.28-23.46-6.9-35.1-6.9a73.81 73.81 0 0 0 -22.53 3.22h-67.74v7.26l17.06 3.35-28.32 49.36-25.77-49.36 15.7-3.35v-7.26h-71.16v7.26l17.06 3.35 38.4 64.62v43.22l-16.78 3.27-11-3.27-46.57-118.45h-22.68l-39.92 97.17c-4.24-5.4-8.23-10.73-12.08-15.83-7-10.11-14.75-21.86-23.81-35l.91-.5c1.36-.52 2.82-1.17 4.35-1.88l-8.84-8.3zm78.93-11.92 15.91-42.72 16.43 50.2-35.17.09zm-104.51-34.35c-1 0-4.29 0-6-.06v6.82l12.54 4.23c.35.6.71 1.24 1.11 2a20.2 20.2 0 0 1 1.39 2.62c5 8.81 9.87 18.62 15.26 28.34l-1.44-49.8c-5.65 3.92-13.21 5.85-22.86 5.85z"/><path d="m130.79 196.57 23.66 6.43a52.28 52.28 0 0 0 5.13-23c0-31.89-21.42-44.68-66.9-44.68h-87.31v10.33l25.09 4.77v145.93l-25.09 4.52v10.54h92v-10.54l-25.61-4.52v-149.95c2.87-.26 5.73-.51 8.35-.51 25.88 0 39 14.32 39 41.69v.4l24.77-20.3z"/></g><path d="m82.3 170-4-3 4 5 24.62 30.41-23.51 8.78 22.9-.06a33.2 33.2 0 0 1 7.17-18z" fill="#ffd200"/><path d="m154.45 203-23.66-6.41 13.05-28.89-24.77 20.3-.83.7-5.57-12.9-1.84-4.27 2.64 21.47v.12c.49-.6 1-1.21 1.5-1.79l7.1-5.73-1.81 7.94 8.74-4.9-5.05 10.25 27.05 8.27-27.89.63 6.11 11.61-10-8.53-7.89 31.39-1.12-29-3.71 2.74.06 2.07 1.44 49.7.21 7 1.12-4.69 12.53-52.35 8.84 8.3 4.18 3.93 5.38 5 6.74 6.33-4.49-7.56-3.64-6.11-2.72-4.59-6.94-11.53 20.1-.23 6.53-.08 8.23-.09 19.52-.23-17.34-4.7-6.62-1.79z" fill="#ffd200"/><path d="m111.31 242.26 7.89-31.39 10 8.53-6.11-11.61 27.91-.63-27.08-8.27 5.08-10.25-8.72 4.92 1.81-7.94-7.09 5.73c-.53.58-1 1.19-1.5 1.79a33.2 33.2 0 0 0 -7.17 18 1.6 1.6 0 0 1 0 .23l-.06.5.23 4.13 3.69-2.7z" fill="#fff"/><path d="m479.1 300.76h2.89v7.88h1.97v-7.88h2.9v-1.71h-7.76zm17.52-1.71-2.32 6.26h-.07l-2.22-6.26h-3.41v9.59h1.97v-7.65h.04l2.7 7.65h1.88l2.79-7.65h.04v7.65h1.98v-9.59z" fill="#002d62"/></g></svg>