<svg viewBox="0 0 500 500" xmlns="http://www.w3.org/2000/svg"><g fill="none" fill-rule="evenodd"><path d="M450 295.647c-17.737-12.574-39.106-15.368-59.777-18.163-39.525-5.17-70.67-9.222-75.14-73.91-6.563-94.028-8.798-115.683-32.541-132.867-.838-6.568-5.587-44.15-5.587-44.15-1.536-12.715-13.268-21.796-25.977-20.118L178.77 15.52c-6.145.699-11.592 3.91-15.503 8.8-2.514 3.354-4.19 7.128-4.609 11.178-10.056-.558-19.832 5.449-23.324 15.368 0 0-12.43 35.07-14.804 41.635-14.386 6.427-25.978 26.825-38.827 67.901l-7.263 23.752c-14.106 46.664-25.419 83.55-46.508 106.322C9.777 309.898 0 331.133 0 350.554c0 5.869.838 11.596 2.654 16.905 5.447 16.208 21.648 37.304 68.575 45.828 25.698 4.47 55.587 22.911 84.358 40.795 19.832 12.296 41.061 25.428 60.195 33.392 12.29 5.17 33.38 14.252 92.179-.56 3.073-.698 9.497-3.351 11.592-13.55a37.73 37.73 0 0 0 .698-7.265c0-19.841-13.826-54.35-51.257-86.344 26.676 2.653 56.704 9.082 78.771 16.766 36.593 12.852 105.308 21.656 144.833-6.986 3.212-2.095 6.843-6.847 7.123-15.51 0-18.021-15.084-53.928-49.721-78.378" fill="#FFF"/><path d="M478.212 373.327c-12.15 8.103-28.491 12.155-45.81 13.414-3.77.138-6.145-1.259-6.983-4.191l-12.57-34.092c-1.257-2.794-1.396-5.449 2.514-7.404 0 0 25.698-11.177 28.631-12.715 2.933-1.537 6.425-4.331 9.917-.838 17.178 18.163 24.301 38.003 24.301 45.688.14-.141 0 0 0 .138M260.196 81.047c-1.257.139-2.375-.7-2.514-1.957l-6.285-50.578c-.14-1.256.698-2.375 1.955-2.513 1.257-.14 2.374.698 2.514 1.956l6.285 50.575c.14 1.119-.698 2.375-1.955 2.516m184.776 221.725c-47.346-33.67-131.006 9.642-138.687-98.637-6.844-98.36-9.358-113.449-31.983-128.537l-6.146-48.063c-.977-7.822-8.24-13.552-16.061-12.434l-72.207 9.081c-6.983.838-12.15 6.568-12.57 13.273 2.514.98 7.123 2.516 12.71 4.472l-.559-4.612c-.14-1.257.699-2.374 1.956-2.515 1.257-.14 2.374.699 2.514 1.956l.838 6.846c3.072 1.12 6.424 2.236 9.776 3.493l-1.397-10.756c-.14-1.678.978-3.076 2.514-3.215 1.537-.139 3.073.978 3.213 2.516l1.676 13.69c2.933.98 5.726 2.096 8.52 3.076l-2.096-17.047c-.28-1.956 1.118-3.77 3.073-3.91 1.955-.281 3.77 1.116 4.05 3.072l2.514 20.538c2.793.98 5.447 1.956 7.682 2.794l-3.073-24.169c-.28-1.957 1.117-3.774 3.073-3.913 1.955-.278 3.77 1.119 3.91 3.075l3.492 27.801c.978.42 1.676.56 1.676.56 2.654.979 5.028 2.376 6.983 4.051l-4.19-33.95c-.14-1.537.978-3.074 2.514-3.213 1.536-.14 3.073.977 3.212 2.514l5.587 45.128a22.295 22.295 0 0 1 1.257 7.406c0 2.513-.419 5.168-1.397 7.824 0 0-12.57 35.487-14.944 41.914 2.794 5.589 4.05 11.316 4.05 17.323 0 17.744-10.474 36.885-20.111 54.489-4.05 7.405-7.961 14.53-10.894 21.098-14.805 36.185-21.927 58.539-21.927 73.768 0 8.103 1.955 14.111 6.005 19.28a83.429 83.429 0 0 1 2.933-20.677c9.497 3.075 37.71 11.875 51.816 14.95 0 0-1.118 29.06 2.374 49.879 1.676 1.256 3.073 2.514 4.05 3.351 1.816 1.26 3.632 2.515 5.447 3.912 31.844 1.818 69.693 9.78 94.134 18.304 37.99 13.273 102.095 19.56 137.012-6.007 10.195-6.288-2.235-51.276-42.319-79.779" fill="#B32535"/><path d="M298.743 466.936c-21.648 5.169-36.732 6.706-47.765 6.566-3.911.56-7.123-1.397-7.822-6.006l-4.05-35.627c.14-3.634 1.257-6.707 5.726-6.848 10.615.141 23.324-.978 27.235-2.234 5.866-1.957 7.402-1.259 8.1-.28 14.386 19.28 18.716 35.766 18.716 43.45 0 .421-.14.7-.14.979M167.318 117.09c-1.815-.699-2.793-2.655-2.095-4.61l16.202-45.547c.698-1.815 2.653-2.795 4.609-2.096 1.815.698 2.793 2.654 2.094 4.61l-16.2 45.547c-.699 1.818-2.654 2.795-4.61 2.096m-13.547-4.89c-1.536-.559-2.374-2.235-1.816-3.77l16.62-46.667c.56-1.535 2.235-2.374 3.771-1.816 1.537.559 2.235 2.237 1.816 3.774l-16.76 46.804c-.558 1.397-2.234 2.234-3.631 1.675m-13.687-4.89a2.34 2.34 0 0 1-1.397-2.934l17.04-47.922a2.342 2.342 0 0 1 2.932-1.397 2.343 2.343 0 0 1 1.397 2.935l-17.179 47.92c-.419 1.258-1.676 1.819-2.793 1.398m59.497-37.583c1.816.698 2.793 2.654 2.095 4.61l-16.34 45.547c-.7 1.818-2.654 2.795-4.61 2.236-1.815-.699-2.793-2.653-2.095-4.61l16.201-45.548c.838-1.954 2.933-2.934 4.749-2.235m13.687 4.89c1.536.559 2.374 2.237 1.816 3.774l-16.76 46.664c-.559 1.537-2.235 2.374-3.77 1.815-1.537-.559-2.236-2.235-1.817-3.77l16.76-46.805c.559-1.397 2.235-2.237 3.771-1.678m13.687 4.89a2.343 2.343 0 0 1 1.397 2.935l-17.179 47.92a2.337 2.337 0 0 1-2.933 1.398 2.34 2.34 0 0 1-1.396-2.934l17.178-47.922c.42-1.256 1.676-1.815 2.933-1.397M68.156 390.653c-24.86-5.73-40.363-15.929-45.111-30.039-4.749-14.39 1.536-33.252 16.9-51.556 17.457 6.707 32.122 14.812 43.016 22.216-7.682 16.347-12.989 36.884-14.805 59.379m178.771-16.766c-3.491-2.794-23.882-20.4-52.793-39.96-28.91-19.56-22.207-48.758 3.771-112.19 12.71-28.641 41.76-64.407 25.28-88.579l16.2-45.685c2.654-7.546-1.257-15.79-8.798-18.444L162.01 44.72c-7.542-2.654-15.782 1.256-18.436 8.801l-16.061 45.828c-12.57 2.794-24.022 21.235-37.29 63.57-18.017 57.84-29.61 105.203-55.727 133.427-37.29 40.098-41.48 93.888 38.268 108.278 45.81 7.964 99.86 55.326 145.67 74.467 11.034 4.61 28.911 13.971 87.43-.699 12.71-2.513 7.822-58.12-58.938-104.505" fill="#B32535"/></g></svg>