<svg viewBox="0 0 500 500" xmlns="http://www.w3.org/2000/svg"><g fill="none" fill-rule="evenodd"><path d="m143.275 32.844s-82.374 32.266-82.458 137.194c-.103 107.486 79.423 127.805 79.423 127.805s-40.94-51.39-40.818-133.872c.15-88.8 43.853-131.127 43.853-131.127" fill="#24358e"/><path d="m365.847 475.606s-44.6-79.709-65.107-108.27c0 0 15.053-2.38 22.393-4.49 6.696-1.913 11.57-3.835 11.57-3.835 17.482 8.801 42.472 47.816 55.826 79.727 14.39 28.794 24.681 36.98 24.681 36.98zm-103.582-133.321v-16.54c1.523-.055 3.063-.14 4.558-.14 4.884 0 9.338 0 12.98 1.009 4.062.504 8.134 1.521 11.776 3.043l1.233-3.557c11.757-34.468 21.497-71.98 24.737-100.886h-19.07c-9.692 25.975-21.804 45.417-36.214 58.41v-80.092h19.649c38.885 0 59.345 26.04 59.345 65.615 0 51.596-20.834 74.146-78.994 73.138zm135.81-69.787c.177 52.734-64.37 66.025-64.37 66.025s23.84-14.364 23.86-65.437c.027-51.559-22.815-66.147-22.815-66.147s63.156 5.693 63.324 65.559zm-152.125 202.968h-34.627v-268.49l34.627-2.39zm-185.133-305.432c.084-104.92 82.458-137.195 82.458-137.195s-43.704 42.337-43.853 131.137c-.122 82.472 40.818 133.862 40.818 133.862s-79.526-20.318-79.423-127.804zm362.563 294.175c-17.033-16.753-48.12-104.704-73.81-110.49 9.422-4.723 68.674-18.528 68.945-82.565-.27-69.246-64.426-91.675-128.58-91.675-13.635 0-38.494 1.008-63.754 2.502-32.078 2.006-48.513 3.509-72.952 5.506v23.549c34.459 0 41.677 8.018 41.677 45.595v44.791c-47.476-10.014-78.648-62.824-78.648-137.045 0-78.588 36.943-133.852 90.9-133.852 20.302 0 38.148 8.12 52.352 22.82 14.222 14.691 24.354 35.99 28.818 61.854h19.07l-3.624-105.964h-15.044c-1.616 5.068-3.633 7.103-7.312 7.103-10.133 0-34.058-15.214-77.49-15.214-47.076 0-87.259 17.239-115.246 47.657-28.417 30.922-44.657 73.007-44.657 123.707 0 34.983 10.142 74.529 33.301 105.955 23.113 31.445 60.457 54.256 114.816 54.256.943 0 1.84-.074 2.764-.093v98.852c0 36.569-8.012 44.082-41.677 44.082v23.549h151.946v-23.549c-31.284 0-42.91-4.508-42.91-41.571v-67.137h21.254s78.312 132.285 80.45 132.276c5.547-.019 93.534-.056 93.534-.056v-23.428s-17.678 2.903-34.123-11.415z" fill="#c4ced3"/><path d="m211.325 475.465h34.627v-270.88l-34.627 2.39zm146.242-202.377c-.019 51.073-23.869 65.437-23.869 65.437s64.547-13.29 64.38-66.025c-.178-59.866-63.325-65.56-63.325-65.56s22.842 14.589 22.814 66.148m32.958 165.652c-13.354-31.91-38.334-70.934-55.825-79.727 0 0-4.875 1.923-11.57 3.837-7.34 2.1-22.385 4.489-22.385 4.489 20.498 28.551 65.099 108.27 65.099 108.27l49.363.102s-10.291-8.176-24.682-36.97" fill="#24358e"/></g></svg>