<svg viewBox="0 0 500 500" xmlns="http://www.w3.org/2000/svg"><g fill="none" fill-rule="evenodd"><path d="m442.22 369.504c-35.465 10.604-109.867 32.116-175.114 50.275l.028-22.957a987.244 987.244 0 0 1 6.768-5.894c2.23-1.904 4.334-3.73 6.398-5.534 3.028 2.85 7.948 5.307 13.61 5.76 5.142.41 14.28-.702 22.1-11.145 1.466 1.72 3.26 2.9 5.374 3.47 8.346 2.29 18.004-5.446 26.416-12.873 1.052-.93 1.965-1.738 2.507-2.159.338-.27.659-.564.997-.835 1.793 1.699 3.88 3.032 6.298 3.88 8.33 2.943 19.371-.023 26.82-7.207 3.133-3.005 6.415-7.526 9.332-12.69 4.179 5.308 12.231 8.883 23.605 7.632 10.704-1.168 19.122-5.839 24.43-13.47 6.132 2.916 9.442 7.648 9.06 13.05-.36 4.958-3.814 9.253-8.629 10.697zm-199.798 92.216c-.775 3.912-1.832 4.195-2.779 4.444-.42.116-1.334.354-2.667-1.223-2.353-2.734-3.935-8.396-4.306-14.584a2692.5 2692.5 0 0 1 10.704-3.63c-.072 6.874-.31 11.75-.952 14.993zm-65.203-16.914a351.288 351.288 0 0 0 -12.171 2.934c9.542-4.992 12.17-12.254 13.405-18.74 0 0 0-.01.005-.01a7.01 7.01 0 0 0 .144-1.462c0-.852-.188-1.5-.437-2.075 15.015-3.697 23.633-18.967 25.664-34.795a61.25 61.25 0 0 0 .493-7.61c0-.183-.017-.354-.017-.537 2.086-.88 4.046-1.937 5.811-3.171-.05 2.192-.1 4.815-.1 4.815v.077c.017 4.29.272 10.577 2.148 15.845 3.016 8.418 8.756 10.195 13.05 10.2 3.061.011 6.172-.686 9.299-2.08-6.531 7.355-12.918 16.088-16.073 25.292-.094.254-.166.559-.243.84-18.768 5.054-32.582 8.596-40.978 10.477zm-9.846-58.37c0-2.873.298-5.68.808-8.087.747.548 1.538 1.09 2.402 1.578 5.213 2.988 10.958 4.765 16.836 5.196-.028 7.073-1.788 13.36-4.738 16.537-1.516 1.638-3.293 2.435-5.39 2.44-2.978 0-5.164-1.278-6.863-4.028-2.175-3.509-3.055-8.667-3.055-13.637zm8.766-22.487c.222-.493 1.323-1.135 2.956-.51 1.688.654 3.282 2.314 4.627 4.782-2.74-.492-4.622-1.178-5.081-1.439-1.826-1.046-2.546-2.092-2.546-2.634 0-.072.006-.144.044-.2zm67.295 56.595c0 1.87-.005 3.84-.005 5.789-1.705.47-3.382.93-5.053 1.394 1.433-2.33 3.116-4.72 5.058-7.183zm58.158-88.894c1.91-3.675 4.594-5.584 7.389-5.224 1.81.22 3.37 1.405 3.857 2.86v2.724c0 6.082-.083 11.75-.138 16.06a378.897 378.897 0 0 0 -.067 5.983v.515c0 5.092-2.523 11.174-6.021 14.49-1.102 1.04-2.779 2.274-4.527 2.18-.41-.034-1.65-.1-3.011-2.469-3.94-6.945-3.553-25.425 2.518-37.119zm118.645-32.692c-.022.426-.022.842-.022 1.279 0 4.422.808 9.458 1.655 14.638.57 3.46 1.14 7.012 1.477 10.388-4.095-.276-8.479-.1-13.714.543-1.805.216-3.504.57-5.114 1.024 3.98-9.315 9.74-21.468 15.718-27.872zm-5.075 41.31c2.618-.36 4.638-.615 6.57-.66-1.45 2.685-3.698 4.312-6.947 4.96-4.19.863-6.17.05-6.636-.499a.425.425 0 0 1 -.127-.32c0-.117.033-.25.105-.421.443-1.14 2.153-2.436 4.981-2.8zm-309.644 39.78c-4.721-1.107-9.83-1.123-15.48-.055 0-6.48.221-12.076.653-17.007 1.25-14.146 4.356-23.455 9.818-29.305a3.585 3.585 0 0 0 .393-4.366c-.2-.3-.443-.57-.703-.786 4.965.232 9.763 2.208 13.704 5.717 5.28 4.693 8.507 11.467 8.844 18.584.554 11.473-6.564 22.276-17.229 27.218zm261.974-106.216c0-1.101.205-1.71.332-1.976 1.002.272 3.709 2.557 5.446 8.75 1.113 3.93 1.644 8.197 1.644 12.674 0 9.785-2.579 20.577-7.41 31.042.016-9.69.027-21.108.027-30.688 0-9.834-.017-17.699-.039-19.686zm92.046 68.256c-3.166-4.383-7.422-7.842-12.364-10.266.885-5.756.542-11.988-1.19-18.275-6.426-23.355-.316-28.829 1.682-30.622a3.426 3.426 0 0 0 1.002-3.547 3.407 3.407 0 0 0 -2.822-2.38c-15.077-1.976-27.33 2.712-37.442 14.345-8.457 9.757-14.157 23.034-19.194 34.767-5.684 13.25-11.058 25.763-18.43 28.275-.614.227-1.212.128-1.788-.243-.753-.498-1.334-1.423-1.638-2.524 10.106-12.43 17.102-26.969 20.234-42.16 1.201-5.784 1.794-11.48 1.794-16.914 0-8.119-1.318-15.657-3.952-22.071-4.577-11.196-12.713-17.899-22.891-18.884-4.018-.382-7.987 1.008-11.163 3.924-4.378 4.007-6.742 10.327-6.664 17.799 0 .609-.028 64.16.022 70.314l.011 3.205c.006 4.04.011 5.706.188 7.023.034.227.083.42.122.648-.897.808-1.754 1.643-2.673 2.413-3.526 2.972-5.291 3.88-6.066 4.173-.216-.554-.482-1.633-.753-3.83l.028-47.812c0-1.112-.51-2.158-1.378-2.823a3.606 3.606 0 0 0 -3.077-.642l-16.372 4.19a3.627 3.627 0 0 0 -2.202 1.677c-2.452-.603-4.954-.697-6.664-.653-7.55.188-14.744 4.339-20.777 11.998-7.975 10.112-12.613 24.778-12.613 38.476 0 3.215.265 6.353.802 9.38-1.743 1.893-3.863 3.952-6.17 6.11l.049-48.88a3.568 3.568 0 0 0 -1.422-2.844 3.536 3.536 0 0 0 -3.11-.598l-16.594 4.621a3.558 3.558 0 0 0 -2.6 3.426l-.172 43.102c0 .116-.045 3.332-.056 4.15-1.832 6.277-6.542 9.194-8.042 9.15-.597-.466-1.488-3.022-1.488-5.435 0-.095 0-.178.005-.272v-.11l.033-46.041a3.566 3.566 0 0 0 -1.383-2.817 3.571 3.571 0 0 0 -3.072-.648l-15.762 4.002a3.577 3.577 0 0 0 -2.685 3.53c.25 12.071-2.905 20.185-9.414 24.236a34.163 34.163 0 0 0 -1.085-2.673c-4.024-9.055-10.897-14.783-19.343-16.133-5.297-.852-10.35.327-14.29 3.298-8.8 3.11-15.813 10.732-19.76 21.563-2.285 6.248-3.397 13.166-3.397 19.78 0 8.235 1.732 16.01 5.136 21.506 6.254 10.394 14.628 12.68 19.06 13.095.278.033.527.022.798.038-3.824 2.884-8.662 4.123-13.25 3.315-6.796-1.2-12.83-6.624-17.456-15.7-4.361-8.568-9.22-17.13-15.38-23.572 16.758-8.085 27.645-23.615 26.676-39.997-.548-9.325-4.975-18.092-12.447-24.683-9.807-8.645-24.18-13.023-39.467-11.999-23.102 1.522-37.874 10.698-46.203 18.136-9.747 8.7-16.084 19.852-16.93 29.825a27.033 27.033 0 0 0 -.089 2.098c0 7.488 3.609 12.9 9.719 14.373 5.65 1.361 10.964.448 15.364-2.624 6.641-4.626 9.802-12.956 10.543-19.22a3.602 3.602 0 0 0 -1.937-3.604 3.582 3.582 0 0 0 -4.051.565c-1.279 1.206-2.923 1.754-3.493 1.705-.094-.189-.32-.77-.32-2.07 0-.532.033-1.168.138-1.948.509-4.085 4.748-9.22 11.074-13.416 6.52-4.3 14.512-7.244 22.825-8.418-5.29 2.258-9.857 5.59-13.604 9.946a.167.167 0 0 1 -.044.044c-11.767 14.124-12.691 44.818-13.45 69.49-.331 11.013-.608 20.533-1.792 26.21a1.846 1.846 0 0 0 -.034.123c-.797 4.615-4.056 7.62-6.713 8.074-1.937.338-3.531-.564-4.782-2.723a3.543 3.543 0 0 0 -2.967-1.782 3.515 3.515 0 0 0 -3.077 1.572c-5.59 8.252-5.385 17.45.51 24.003 6.536 7.255 17.86 9.01 26.925 4.178 7.455-3.946 19.626-14.666 17.49-41.768-.986-12.519-1.655-23.217-2.004-32.465.886.006 1.81.117 2.74.399 3.17.918 5.905 3.475 8.124 7.61.792 1.466 1.805 3.802 2.984 6.491 5.888 13.366 15.723 35.764 33.644 42.233 3.709 1.345 7.56 1.871 11.529 1.666-13.46 4.367-23.937 9.17-31.686 14.534-11.395 7.859-17.44 17.046-19.044 28.89-.205 1.477.598 2.921 1.96 3.552a3.402 3.402 0 0 0 3.962-.83c7.898-8.85 17.118-13.393 27.396-13.531 7.643-.1 14.545 2.374 18.148 4.538.82.492 1.826.62 2.75.337a3.507 3.507 0 0 0 2.104-1.826c1.638-3.57 9.885-14.334 27.994-21.285 10.206-3.913 21.17-7.914 33.146-12.154.67 8.523 3.238 16.908 8.197 22.758 4.943 5.805 11.501 8.19 18.962 6.918 16.714-2.845 23.865-16.332 23.865-45.056v-.16c30.307-9.785 60.565-18.94 88.293-27.33 33.888-10.232 65.917-19.918 91.387-28.728 11.485-3.969 18.37-12.84 18.453-23.726v-.173c0-5.839-2.01-11.838-5.69-16.913z" fill="#fff"/><path d="m162.917 444.844c8.468-4.217 10.842-10.333 12.044-16.526.453-2.33-.947-2.457-2.513-.714-8.927 8.33-26.45 10.095-37.796-12.159-5.856-11.511-11.6-20.66-18.729-26.321 18.203-6.608 30.617-22.132 29.654-38.652-1.195-20.035-21.618-35.11-48.117-33.34-54.887 3.62-70.732 53.108-52.906 57.398 13.571 3.265 20.429-9.564 21.524-18.795-3.398 3.176-11.019 5.534-9.663-5.363 1.284-10.377 18.784-23.704 41.017-25.386 15.519-1.107 28.143 12.33 28.89 27.666.637 13.515-8.003 25.984-20.616 31.209-5.451-1.495-11.717-1.378-19.188.658-.399-28.308 2.845-44.131 11.373-53.268-4.942 1.676-10.35 4.676-14.915 9.995-16.117 19.31-10.588 75.323-14.512 94.15-1.777 10.151-12.923 15.514-18.11 6.526-11.423 16.902 7.738 31.059 22.814 23.029 7.162-3.803 17.523-13.903 15.597-38.343-1.08-13.664-1.804-25.53-2.12-35.885 4.6-1.057 12.17-.819 17.689 9.47 6.248 11.65 21.717 63.059 58.583 44.651" fill="#212f57"/><path d="m443.194 372.77c-34.032 10.172-111.998 32.747-179.658 51.547l.028-29.128c5.955-5.257 11.938-10.271 17.251-15.02 1.987 5.6 22.482 16.637 35.46-7.172 5.978 18.567 26.981-3.62 31.846-7.372 1.212-.93 2.347-1.893 3.487-2.856 6.835 9.99 21.862 7.328 30.462-.946 4.483-4.317 8.944-11.612 11.927-18.28.726 7.122 8.684 13.863 23.008 12.297 11.628-1.273 19.31-6.852 23.478-14.428.785.348 1.621.725 2.49 1.123 16.997 7.82 12.99 26.416.221 30.235zm-202.66 96.846c-7.062 1.849-11.39-9.707-11.484-21.623a1840.819 1840.819 0 0 1 17.927-6.054c-.023 20.19-.858 26.21-6.443 27.677zm6.492-58.67c-.022 6.464-.027 12.768-.033 17.954-5.247 1.438-10.41 2.855-15.436 4.222.089-.21.15-.426.238-.63 3.271-7.439 8.761-14.64 15.231-21.546zm51.4-80.952c5.767-11.107 16.499-7.576 17.993-1.25.067 11.494-.243 22.16-.216 25.701.061 9.398-6.863 20.776-14.334 20.345-10.953-.626-11.623-29.045-3.443-44.796zm78.138-50.313c4.698 16.686-.067 38.597-12.475 57.84.022-18.557.066-58.665 0-63.53-.117-8.716 8.755-7.454 12.475 5.69zm49.755 11.595c-6.104 5.905-.116 22.735.648 36.521.028.443.011.869.022 1.3-4.82-.724-9.984-.763-16.947.09-5.579.674-9.586 2.584-12.248 5.058 6.703-16.753 17.02-41.088 28.525-42.97zm-7.92 45.15c.05-.006.106-.017.161-.023.82-.083 1.61-.15 2.39-.183.04 0 .084-.005.128-.005.78-.033 1.555-.033 2.341.005h.1c.791.034 1.605.122 2.446.244.033.005.056.017.089.017.094.01.216.044.31.066-1.257 5.745-4.478 10.05-10.898 11.362-14.23 2.911-13.715-9.375-2.784-10.77 2.18-.277 4.018-.537 5.717-.714zm-241.097 71.233c-15.602.033-15.375-26.682-10.743-35.825 1.395 1.827 3.265 3.542 5.795 4.992 6.049 3.476 12.48 4.937 18.507 4.843.891 12.613-3.165 25.956-13.56 25.99zm3.071-47.547c4.068 1.556 7.068 6.288 8.817 12.198-5.905-.072-10.903-1.616-12.326-2.43-8.567-4.903-2.889-12.225 3.51-9.768zm262.943-26.288c1.423-6.077 1.185-12.79-.62-19.37-6.182-22.487-1.544-30.268 2.701-34.081-50.132-6.575-50.304 69.318-73.51 77.243-3.93 1.34-7.732-2.02-8.103-7.05 32.521-38.835 26.931-92.834-1.577-95.58-7.062-.686-14.208 6.016-14.086 18.292 0 0-.033 64.11.011 70.325.04 6.227 0 8.446.183 9.818.122.897.315 1.705.498 2.519-1.34 1.25-2.69 2.507-4.112 3.702-10.112 8.512-11.789 5.518-12.713-2.158l.039-48.039-16.372 4.184s-.105 1.539-.083 3.57c-2.158-2.031-6.37-2.518-9.575-2.435-19.337.481-34.104 32.741-28.862 57.386-3.382 3.863-8.175 8.274-13.566 13.094l.056-56.965-16.599 4.615-.155 43.108c-.022.752-.05 2.407-.072 4.693-2.186 8.185-8.744 12.635-12.198 12.12-3.52-.52-4.533-6.547-4.455-9.347l.017-46.041-15.752 3.996c.382 18.396-6.907 26.327-15.187 29.316-2.668-10.422-8.888-18.701-18.773-20.284-4.87-.78-9.022.515-12 2.95-21.772 7.062-25.979 42.897-16.73 57.801 5.44 9.06 12.513 11.041 16.371 11.418 22.714 2.202 33.733-21.651 32.543-42.582 5.712-1.854 10.472-5.175 13.261-9.458l-.304 13.63c.044 9.121 1.24 22.47 11.634 22.498 7.903.011 15.508-5.761 21.85-12.973-.005 2.12-.016 4.345-.016 6.625-10.854 10.46-21.065 22.093-25.255 34.286a36.32 36.32 0 0 0 -.736 2.424c-18.303 4.953-33.705 8.943-43.098 11.047-57.045 12.8-73.35 28.507-75.979 48.027 19.892-22.287 43.237-13.62 49.84-9.652 1.593-3.448 9.851-15.347 29.88-23.034 12.138-4.66 24.823-9.243 37.741-13.753-.044 16.526 7.45 33.627 23.179 30.948 12.12-2.064 21.048-10.15 20.882-42.349l.011-1.799c67.721-21.916 135.271-40.628 182.143-56.832 24.314-8.413 19.194-37.385-2.352-45.853z" fill="#212f57"/><path d="m341.552 16.404c0-8.49-6.907-15.397-15.403-15.397s-15.403 6.907-15.403 15.397c0 5.551 2.978 10.377 7.389 13.083v4.533c0 11.39-9.254 20.643-20.611 20.643-11.318 0-20.539-9.259-20.539-20.654v-4.516c4.422-2.712 7.394-7.538 7.394-13.089 0-8.49-6.907-15.397-15.397-15.397-8.507 0-15.408 6.907-15.408 15.397 0 5.457 2.861 10.222 7.15 12.962v4.643c0 11.395-9.242 20.654-20.605 20.654-11.324 0-20.533-9.28-20.533-20.698v-4.395c4.494-2.695 7.527-7.56 7.527-13.166 0-8.49-6.907-15.397-15.397-15.397-8.501 0-15.403 6.907-15.403 15.397 0 5.424 2.823 10.172 7.068 12.917h-.1v4.705c0 11.384-9.248 20.637-20.616 20.637-11.33 0-20.561-9.27-20.561-20.682v-4.66c4.256-2.734 7.09-7.493 7.09-12.917 0-8.49-6.913-15.397-15.403-15.397-8.496 0-15.403 6.907-15.403 15.397 0 5.34 2.728 10.045 6.868 12.807v59.328h.139v172.59l94.436 55.267 94.432-55.266v-172.59h.072v-59.142c4.317-2.729 7.217-7.516 7.217-12.995" fill="#fff"/><path d="m150.149 88.595v169.812l89.682 52.477 89.683-52.477v-169.812z" fill="#212f57"/><path d="m326.149 27.052c5.883 0 10.648-4.77 10.648-10.648 0-5.883-4.765-10.654-10.648-10.654-5.878 0-10.649 4.77-10.649 10.654 0 5.878 4.771 10.648 10.649 10.648m-1.063 6.968h-2.191c0 14.013-11.363 25.408-25.371 25.408s-25.293-11.406-25.293-25.42h-6.747c0 14.014-11.351 25.42-25.365 25.42-14.008 0-25.282-11.456-25.282-25.463l-6.807.06c0 14.014-11.346 25.403-25.365 25.403-14.008 0-25.31-11.445-25.31-25.447l-7.344-.077v49.881h179.575v-49.765h-6.691m-169.105-6.968c5.884 0 10.65-4.77 10.65-10.648 0-5.883-4.766-10.654-10.65-10.654-5.883 0-10.648 4.77-10.648 10.654 0 5.878 4.765 10.648 10.649 10.648m57.925 0c5.877 0 10.648-4.77 10.648-10.648 0-5.883-4.77-10.654-10.648-10.654-5.89 0-10.654 4.77-10.654 10.654 0 5.878 4.765 10.648 10.654 10.648m57.266 0c5.872 0 10.649-4.77 10.649-10.648 0-5.883-4.777-10.654-10.649-10.654-5.878 0-10.654 4.77-10.654 10.654 0 5.878 4.776 10.648 10.654 10.648" fill="#ad8f60"/><path d="m214.334 121.558v3.486c1.715 0 3.42.028 4.876.255.22-2.712-1.965-3.531-4.876-3.741m-45.367.044v3.426l1.937.055c2.368-.022 4.826.51 6.934 1.749-2.025-3.365-5.429-4.904-8.871-5.23m23.566 12.674-.017 30.24 2.657-1.495.924-1.306.011-23.859c0-8.987 5.59-12.32 11.07-12.729v-5.136h-3.587v1.55c-5.474.41-11.058 3.747-11.058 12.735m50.647 64.924c-3.985-6.747-9.398-18.28-17.965-25.984 9.204 10.382 14.223 24.5 18.087 27.312-.061-.437-.072-.891-.122-1.328m-.958-77.736c-3.68 0-8.252 0-14.323 7.515-7.787 9.602-23.234 32.902-23.234 32.902 1.865.139 3.603.526 5.29 1.019 4.224-6.299 15.304-22.67 21.52-30.351 6.076-7.505 10.642-7.505 14.328-7.505h2.38v-5.08h-3.575v1.5zm-56.104 98.252h-17.151v3.58h41.46v-5.036l-1.932-.06c-.543.005-1.096-.045-1.65-.095v1.61h-20.727m131.585 9.57c-1.123-1.987-2.418-3.183-3.725-3.797.05.078.106.133.15.216 2.811 4.964-2.236 28.497-28.503 28.497-11.573 0-20.821-4.594-28.487-11.59 8.324 8.96 18.624 15.17 32.073 15.17 26.256 0 31.304-23.532 28.492-28.496m-125.126-55.045-.16 9.945.1 17.671c0 5.784 2.335 9.193 5.45 11.014-1.134-1.882-1.87-4.278-1.87-7.439l-.094-17.67.16-9.935c3.15-3.072 10.87-8.368 20.611-.2-11.406-13.01-20.66-6.823-24.197-3.386m117.743 9.286a44.85 44.85 0 0 1 .398 3.576h5.186v-38.204h-3.58v34.628z" fill="#1a1918"/><path d="m282.226 154.371c-21.562-.659-25.608 24.285-25.907 41.298-.426 25.11 6.298 39.859 15.032 47.258-6.918-8.196-11.816-22.127-11.446-43.677.305-17.019 4.334-41.957 25.902-41.304 6.027.188 10.582 2.131 14.058 4.915-3.714-4.638-9.26-8.23-17.639-8.49m24.386 77.615c.216.614.586 1.2 1.101 1.76-.016-.88-.41-1.39-1.101-1.76" fill="#1a1918"/><path d="m314.128 225.704c-.044-.083-.1-.138-.15-.216-6.17-10.388-16.985 1.799-7.516 6.398.056.028.094.072.15.1.692.37 1.085.88 1.101 1.76.006.625-.127 1.394-.592 2.562-4.832 12.214-22.592 17.782-35.77 6.619-8.734-7.4-15.458-22.149-15.032-47.258.299-17.013 4.345-41.957 25.907-41.298 8.38.26 13.925 3.852 17.64 8.49 5.672 7.095 7.006 16.658 7.266 20.665h5.192v-38.21h-6c-1.085 4.417-1.81 8.396-9.84 6.177-8.037-2.203-11.523-1.86-14.33-1.981-24.695-1.085-41.625 26.731-38.974 49.688.05.437.06.89.122 1.328-3.864-2.811-8.883-16.93-18.087-27.312-4.14-4.671-9.144-8.54-15.26-10.316-1.687-.493-3.425-.88-5.29-1.019 0 0 15.447-23.3 23.234-32.902 6.071-7.515 10.643-7.515 14.323-7.515h2.386v-5.081h-33.855v5.08c1.223 0 2.446.012 3.58.095 2.912.21 5.098 1.029 4.877 3.74-.078.93-.36 2.02-1.09 3.46-2.84 5.617-15.98 24.418-22.023 32.957l-.924 1.306-2.657 1.495.017-30.24c0-8.988 5.584-12.325 11.058-12.735v-5.136h-38.205v5.042l1.937.055c.542-.005 1.096.05 1.644.1 3.442.326 6.846 1.865 8.871 5.23 1.135 1.882 1.877 4.278 1.877 7.444v67.58c0 9.713-6.542 12.829-12.392 12.763l-1.937.066v5.03h41.46v-5.03l-1.932-.066c-2.37.027-4.832-.504-6.946-1.75-3.116-1.82-5.452-5.23-5.452-11.013l-.1-17.671.161-9.945c3.537-3.437 12.79-9.625 24.197 3.387.31.354.615.658.925 1.04 10.88 13.283 20.09 46.284 39.44 63.945 7.665 6.995 16.913 11.589 28.486 11.589 26.267 0 31.314-23.533 28.503-28.497" fill="#fff"/></g></svg>