<svg height="500" viewBox="0 0 500 500" width="500" xmlns="http://www.w3.org/2000/svg" xmlns:xlink="http://www.w3.org/1999/xlink"><defs><path id="a" d="m159.378518 344.139759 12.142591-41.729648 12.115875 41.729648zm42.953247 149.23473h140.681733c-12.990836-8.825243-24.492234-24.272757-29.60174-41.956621l-39.333178-134.882027c-4.241224-14.519595 2.664958-29.03919 13.732215-38.859109-15.689189-4.826513-29.621777-15.694513-33.989903-30.73481l-22.027649-75.495217c31.311588-10.474135 51.729575-29.012486 51.729575-50.561567 0-28.1312975-34.83147-51.1623785-83.328363-57.7579461l-18.414259-63.1251892h-20.605002l-18.40758 63.1318649c-48.5035724 6.5955675-83.3751163 29.6266486-83.3751163 57.7512704 0 21.549081 20.4513824 40.087432 51.7896863 50.561567l-22.0209693 75.495217c-4.3547686 15.040297-18.3007145 25.908297-33.9965828 30.73481 11.0405405 9.819919 17.980118 24.339514 13.7455731 38.859109l-39.3465362 134.882027c-5.2096924 17.683864-16.6042249 33.131378-29.56166507 41.956621h140.68173327c-11.501398-8.825243-17.786424-24.272757-12.630164-41.956621l3.453091-11.742514h80.008853l3.413017 11.742514c5.14958 17.683864-1.135446 33.131378-12.596769 41.956621z"/><mask id="b" height="497.324486" width="346.963494" x="-1.976" y="-1.976"><path d="m-1.973996-1.973997h346.963494v497.324486h-346.963494z" fill="#fff"/><use xlink:href="#a"/></mask></defs><g fill="none" fill-rule="evenodd" transform="translate(76 3)"><use fill="#fefefe" fill-rule="evenodd" xlink:href="#a"/><use mask="url(#b)" stroke="#fff" stroke-width="3.952" xlink:href="#a"/><path d="m146.483861 353.736043 25.03992-85.702324 24.946412 85.702324zm172.861603 130.068865c-6.712488-8.758486-12.049083-18.965594-15.181578-29.660027l-39.072693-133.994162c-6.18484-21.255351 5.276483-36.369081 6.765921-38.772324-13.571917-7.349919-23.510407-18.551703-27.284094-31.762865l-23.770892-81.536703c33.522367-8.932054 56.364865-26.682676 56.364865-47.197027 0-25.9216486-36.721653-47.5641892-85.372165-52.3573243l-17.171948-58.92618921h-6.224915l-17.178627 58.92618921c-48.67055 4.7864594-85.4389559 26.429-85.4389559 52.3573243 0 20.514351 22.8758931 38.264973 56.4116189 47.197027l-23.7775711 81.536703c-3.8337993 13.211162-13.738894 24.412946-27.3174899 31.762865 1.5228332 2.403243 12.9908357 17.516973 6.7726002 38.772324l-39.045977 133.994162c-3.1324945 10.694433-8.4757689 20.901541-15.2082945 29.660027h97.4012113c-7.847934-17.33673-3.713575-29.973784-.193693-41.889865l3.453091-11.849324h94.435694l3.486486 11.849324c3.446412 11.916081 7.594129 24.553135-.260484 41.889865z" fill="#003263"/><path d="m126.289624 368.873805 45.230817-154.802243 45.103914 154.802243zm167.157658 99.767973c-2.083877-4.499405-3.940665-9.112297-5.329916-13.845351l-37.356167-127.779108c-5.864243-19.953595-2.644921-28.578568 1.62302-40.621487-11.234235-8.59827-18.694781-19.793378-22.334887-32.410405l-58.528891-200.9645405-58.615719 200.9645405c-3.640106 12.617027-11.033861 23.812135-22.3081703 32.410405 4.2345449 12.042919 7.4872631 20.667892 1.6296987 40.621487l-37.3828829 127.779108c-1.4026095 4.733054-3.1992855 9.345946-5.3766698 13.845351h53.2457283c-1.275707-8.044189-.066791-18.658513 2.224138-26.195351l7.968158-27.517135h117.14461l8.075023 27.517135c2.13731 7.536838 3.3863 18.151162 2.13731 26.195351z" fill="#cd1041"/><g fill="#910027"><path d="m171.523781 214.068224 45.103914 154.802244 29.922336 23.057783-75.02625-257.086946z"/><path d="m293.449953 468.643781-29.661851-17.743946-17.23206-58.972919h-150.1259705l16.4773225 23.004379h117.14461l8.075023 27.510459c2.13731 7.543514 3.3863 18.157838 2.13731 26.202027z"/><path d="m184.849239 98.7793054c-4.368127-.1935946-8.796365-.3538108-13.32479-.3538108v-45.407946l-13.351507 45.7617568h-.026716l-45.237497 155.2027836c-3.640105 12.623703-11.04054 23.812135-22.3081698 32.410406 4.2345449 12.049594 7.4872631 20.674567 1.6296986 40.628162l-37.3895619 127.779108c-1.4026095 4.733054-3.1926064 9.345946-5.3766698 13.845351h53.2457289l-23.9645857-16.181838 92.7792797-317.621973v-27.924351c5.383348 0 10.686548.20027 15.802733.487324z"/></g><path d="m141.304893 156.686119 4.294657-14.813324c-27.190588-3.244379-46.493166-11.448784-46.493166-20.988325 0-12.403405 32.40028-22.4569727 72.414725-22.4569727 39.967692 0 72.394688 10.0535677 72.394688 22.4569727 0 9.539541-19.335974 17.743946-46.53324 20.988325l4.26794 14.813324c35.038521-5.240405 60.178627-19.232622 60.178627-35.801649 0-20.928243-40.448587-37.9512159-90.308015-37.9512159-49.979652 0-90.3347312 17.0229729-90.3347312 37.9512159 0 16.569027 25.0733142 30.561244 60.1185152 35.801649" fill="#999596"/></g></svg>