<svg viewBox="0 0 500 500" xmlns="http://www.w3.org/2000/svg"><g fill="none" fill-rule="evenodd"><path d="m249.287 500c137.67 0 249.287-111.705 249.287-249.495 0-137.796-111.616-249.5-249.287-249.5s-249.287 111.703-249.287 249.499c0 137.791 111.616 249.496 249.287 249.496" fill="#fff"/><path d="m249.28 392.998c-78.507 0-142.37-63.918-142.37-142.493s63.863-142.5 142.37-142.5c78.508 0 142.384 63.925 142.384 142.5s-63.876 142.493-142.384 142.493zm0-375.242c-128.228 0-232.543 104.41-232.543 232.75 0 128.344 104.315 232.749 232.544 232.749 128.234 0 232.555-104.405 232.555-232.75 0-128.339-104.32-232.75-232.555-232.75z" fill="#143c31"/><path d="m249.28 483.255c-128.228 0-232.543-104.405-232.543-232.75 0-128.339 104.315-232.75 232.544-232.75 128.234 0 232.555 104.411 232.555 232.75 0 128.345-104.32 232.75-232.555 232.75zm0-472.583c-132.12 0-239.614 107.592-239.614 239.833s107.494 239.833 239.615 239.833c132.127 0 239.627-107.592 239.627-239.833 0-132.24-107.5-239.833-239.627-239.833z" fill="#f2af35"/><path d="m249.28 114.66c-74.838 0-135.721 60.942-135.721 135.845 0 74.897 60.883 135.839 135.722 135.839 74.845 0 135.728-60.942 135.728-135.839 0-74.903-60.883-135.844-135.728-135.844" fill="#fff"/><path d="m249.28 386.344c-74.838 0-135.721-60.942-135.721-135.839 0-74.903 60.883-135.844 135.722-135.844 74.845 0 135.728 60.941 135.728 135.844 0 74.897-60.883 135.839-135.728 135.839zm0-278.338c-78.507 0-142.37 63.924-142.37 142.5 0 78.574 63.863 142.492 142.37 142.492 78.508 0 142.384-63.918 142.384-142.493s-63.876-142.5-142.383-142.5z" fill="#f2af35"/><path d="m224.672 262.336 19.474-67.36 15.428 67.36zm100.484 42.208c-3.737 2.696-8.126 4.517-12.286 3.746-3.346-.602-7.853-3.063-10.386-11.426 0 0-27.514-114.048-27.564-114.31-2.086-13.861-9.43-21.479-15.24-25.418-7.45-5.064-16.757-6.953-24.883-5.058-12.696 2.964-17.395 9.562-19.152 14.726 5.327-2.653 10.939-1.467 14.477.832 2.266 1.392 7.562 4.667 4.073 14.049l-4.898 12.862-2.633-.758c-2.948-.845-6.028-1.007-9.15-.472-5.37.913-9.126 3.026-11.181 6.263-1.285 2.032-1.676 4.225-1.788 6.176 4.47-2.51 8.99-1.796 12.23.31 2.297 1.492 4.308 3.461 4.308 7.506 0 1.305-.205 2.834-.695 4.623l-29.222 97.937-1.458.484c-14.943 5.015-18.96 13.272-19.966 18.566 4.557-2.616 11.895-5.965 22.188-6.99 4.271-.423 9.418.888 14.39 2.15 4.03 1.019 8.195 2.075 11.225 2.007 3.818-.1 6.723-1.206 8.629-3.293 1.98-2.144 2.508-4.953 2.576-7.32-1.694-.944-4.712-2.628-7.45-4.17-.657.958-1.47 1.76-2.464 2.319-1.62.92-4.457 1.67-8.685.024l-2.54-.994 11.53-40.22h42.537l2.303-.062 7.643 29.918c5.115 20.834 20.238 25.823 31.636 23.767 10.846-1.951 18.637-12.496 21.896-27.774z" fill="#143c31"/><path d="m232.606 256.364c1.465-5.064 7.25-25.096 10.87-37.603 2.893 12.644 7.493 32.732 8.61 37.603zm8.343-50.329-16.277 56.3h34.902l-15.428-67.36z" fill="#f2af35"/><path d="m271.624 308.551-7.643-29.918-2.303.063h-42.538l-11.528 40.22 2.539.993c4.228 1.647 7.065.895 8.685-.024.993-.56 1.807-1.361 2.465-2.318 2.737 1.54 5.755 3.225 7.45 4.17-.069 2.366-.597 5.175-2.577 7.319-1.906 2.087-4.811 3.193-8.63 3.293-3.029.068-7.195-.988-11.224-2.007-4.972-1.262-10.119-2.573-14.39-2.15-10.293 1.025-17.631 4.374-22.188 6.99 1.006-5.294 5.023-13.551 19.966-18.566l1.458-.484 29.222-97.937c.49-1.79.695-3.318.695-4.623 0-4.045-2.011-6.014-4.308-7.505-3.24-2.107-7.76-2.821-12.23-.311.112-1.951.503-4.144 1.788-6.176 2.055-3.237 5.81-5.35 11.18-6.263 3.123-.535 6.203-.373 9.151.472l2.633.758 4.898-12.862c3.489-9.382-1.807-12.657-4.073-14.049-3.538-2.299-9.15-3.485-14.477-.832 1.757-5.164 6.456-11.762 19.152-14.726 8.126-1.895 17.432-.006 24.882 5.058 5.81 3.939 13.155 11.557 15.241 25.419.05.26 27.564 114.309 27.564 114.309 2.533 8.363 7.04 10.824 10.386 11.426 4.16.77 8.549-1.05 12.286-3.746-3.26 15.278-11.05 25.823-21.896 27.774-11.398 2.056-26.521-2.933-31.636-23.767zm54.544-13.06c-2.986 3.89-8.288 7.648-12.23 6.928-2.483-.448-4.414-2.852-5.711-7.121.037.143-27.459-113.886-27.459-113.886-1.819-12.222-8.145-22.692-17.736-29.216-8.804-5.977-19.873-8.196-29.582-5.928-27.167 6.344-24.752 27.992-24.727 28.216l.937 7.456 4.42-6.07c4.514-6.196 10.045-5.009 12.342-3.518 1.72 1.07 2.974 1.84 2.974 3.822 0 .863-.242 1.957-.776 3.405 0 0-2.043 5.368-3.08 8.083-2.96-.51-5.965-.745-9.032-.23-7.127 1.224-12.255 4.25-15.253 9.016-4.55 7.257-2.192 15.726-2.093 16.08l1.584 5.5 3.6-4.437c3.918-4.84 7.438-3.653 9.194-2.516 1.416.92 2.198 1.435 1.124 5.499.019-.069-24.963 83.651-28.352 95.016-20.444 7.53-22.834 21.374-22.834 27.103 0 1.565.168 2.522.174 2.572l.95 4.927 3.88-3.2c.087-.062 9.113-7.375 24.038-8.86 3.234-.317 7.853.851 12.335 1.988 4.42 1.131 8.99 2.293 12.845 2.187 5.413-.136 9.87-1.944 12.863-5.213 3.042-3.305 4.482-7.897 4.178-13.26l-.1-1.64-16.972-9.494-.726 4.132c-.094.528-.354 1.467-1.031 1.858-.242.13-.571.18-.95.199 1.378-4.778 7.68-26.768 8.667-30.222h35.746c.95 3.697 6.463 25.313 6.463 25.313 5.699 23.251 23.441 30.925 38.477 28.21 15.688-2.822 26.577-18.952 28.409-42.103l.254-3.219h-3.228c-1.564 0-2.278.932-3.582 2.623z" fill="#f2af35"/><path d="m337.076 219.133s-3.508-1.056-3.564-1.068c-2.675-.87-7.654-2.48-7.654-7.22 0-4.188 4.147-6.698 8.163-6.698 2.813 0 5.588 1.068 8.17 2.622 1.03-2.02 2.18-4.244 3.253-6.326-4.116-1.913-9.045-3.243-13.39-3.243-9.543 0-15.943 6.213-15.943 15.465 0 8.326 3.65 10.203 13.08 12.887 3.347.938 9.555 2.703 9.555 8.096 0 4.48-3.67 7.612-8.94 7.612-3.8 0-7.55-1.71-11.355-4.487-1.16 2.175-2.545 4.797-3.638 6.848 4.787 2.926 10.15 4.734 15.483 4.734 5.346 0 10.163-1.578 13.534-4.442 3.092-2.635 4.669-6.841 4.669-12.508 0-6.238-3.409-9.91-11.423-12.272" fill="#143c31"/><path d="m343.83 243.913c-3.37 2.864-8.188 4.442-13.534 4.442-5.332 0-10.696-1.808-15.483-4.734 1.093-2.05 2.477-4.673 3.638-6.848 3.806 2.778 7.556 4.487 11.355 4.487 5.27 0 8.94-3.132 8.94-7.612 0-5.393-6.208-7.158-9.555-8.096-9.43-2.684-13.08-4.56-13.08-12.887 0-9.252 6.4-15.465 15.942-15.465 4.346 0 9.275 1.33 13.391 3.243-1.074 2.082-2.222 4.306-3.253 6.326-2.582-1.554-5.357-2.622-8.17-2.622-4.016 0-8.163 2.51-8.163 6.698 0 4.74 4.979 6.35 7.654 7.22.056.012 3.564 1.068 3.564 1.068 8.014 2.362 11.423 6.034 11.423 12.272 0 5.667-1.577 9.873-4.669 12.508zm-5.444-29.148-3.508-1.05c-1.645-.54-4.47-1.447-4.47-2.87 0-1.324 2.099-2.138 3.613-2.138 2.626 0 5.34 1.057 7.649 2.977l2.185 1.82 7.773-15.136-1.906-1.081c-4.973-2.82-11.914-4.648-17.669-4.648-12.074 0-20.499 8.24-20.499 20.026 0 12.601 8.474 15.012 15.955 17.137 2.632.746 6.68 1.901 6.68 3.846 0 2.97-3.93 3.057-4.383 3.057-3.427 0-6.928-1.603-10.703-4.909l-2.154-1.895-8.176 15.403 1.651 1.156c5.917 4.157 12.975 6.45 19.872 6.45 6.426 0 12.286-1.957 16.477-5.524 4.172-3.548 6.276-8.916 6.276-15.981 0-11.029-8.375-14.782-14.663-16.64z" fill="#f2af35"/><path d="m297.89 199.63c1.378-.081 3.44-.206 4.638 1.453.478.671.658 1.423.658 2.181 0 1.094-.38 2.206-.727 3.076-.788 1.951-1.515 3.013-2.272 3.933.906-.534 1.844-1.118 2.31-1.516 2.179-1.883 4.165-5.101 4.165-8.96 0-1.497-.285-3.082-.98-4.734-.932-2.194-3.018-2.821-4.173-3.002-2.023-.304-4.178.274-5.127 1.392-1.453 1.721-1.497 3.778-.9 4.965.421.87 1.154 1.28 2.408 1.211" fill="#143c31"/><path d="m296.382 193.453c.95-1.118 3.104-1.696 5.127-1.392 1.155.18 3.241.808 4.172 3.002.696 1.652.981 3.237.981 4.734 0 3.859-1.986 7.077-4.165 8.96-.466.398-1.404.982-2.31 1.516.757-.92 1.484-1.982 2.272-3.933.348-.87.727-1.982.727-3.076 0-.758-.18-1.51-.658-2.18-1.199-1.66-3.26-1.535-4.638-1.455-1.254.069-1.987-.341-2.409-1.211-.596-1.187-.552-3.244.9-4.965zm1.502 10.737c.087 0 .304-.006.484-.006-.056.193-.136.441-.136.441-1.292 3.212-1.826 3.455-3.266 4.107l-2.477 1.125.98 2.504 2.968 4.3 1.503-.342c2.247-.51 6.202-2.983 7.512-4.095 4.538-3.914 7.642-11.277 4.42-18.932-1.304-3.088-4.104-5.182-7.667-5.73-3.65-.565-7.289.591-9.288 2.946-2.433 2.858-3.048 6.854-1.52 9.935 1.253 2.498 3.675 3.909 6.487 3.747z" fill="#f2af35"/><g fill="#fff"><path d="m103.216 357.358 5.532-5.549-.087-.118-6.96 3.554-12.44 6.021 4.568 6.356zm19.804-8.202-33.555 40.81-6.916-9.612 5.761-6.73-6.574-9.133-8.157 3.399-6.444-8.954 49.056-19.293zm33.25 32.608-6.145 7.208-6.699-5.71-26.993 31.657-8.443-7.214 27-31.65-6.631-5.661 6.152-7.22 21.76 18.59m21.163 12.023-8.282 18.187 10.231 4.679 8.282-18.193 10.1 4.61-21.175 46.495-10.1-4.61 8.957-19.672-10.23-4.672-8.971 19.684-10.095-4.617 21.189-46.501zm40.452 56.033-.025-.012zm11.435 1.883-.012.068.006-.068zm-1.49 9.22c.162-.776 1.528-9.245 1.528-9.245h-.05c-.329-.093-11.441-1.895-11.441-1.895.024 0 6.667-41.04 6.667-41.04l.012-.037-10.982-1.783-.006.03h-.006l-.05.342c-.645 3.778-8.145 50.1-8.145 50.1.025.03 22.449 3.672 22.449 3.672l.006-.02.019-.123zm40.614-51.161.497 9.476-11.237.584.577 11.103 9.896-.522.484 9.476-9.89.51.59 11.519 11.386-.597.497 9.476-22.467 1.168-2.651-51.05zm40.123-10.271 2.75 9.078-8.4 2.56 12.113 39.822-10.622 3.225-12.112-39.804-8.332 2.536-2.762-9.078zm22.517-11.886 24.87 44.631-9.691 5.412-24.876-44.625z"/><path d="m331.06 387.574-9.685 5.412c0 .074 24.864 44.668 24.864 44.668.037.019 9.728-5.393 9.728-5.393 0-.068-24.857-44.675-24.857-44.675l-.025-.025zm40.812-19.902c-1.285.684-2.421 1.423-3.476 2.355-7.314 6.48-5.153 15.341.055 21.219 5.023 5.685 14.397 9.88 21.648 3.467 1.056-.95 1.906-2.137 2.695-3.386l6.32 7.158c-.82 1.547-1.925 2.889-3.266 4.07-11.994 10.624-27.34 6.654-36.218-3.4-8.394-9.493-10.095-25.363 1.235-35.391 1.434-1.286 3.067-2.274 4.861-3.05zm23.548-28.656c-2.713.857-5.5 2.286-7.227 4.809-1.924 2.84-1.589 5.691.994 7.45 6.934 4.735 16.855-8.966 28.259-1.174 7.5 5.12 9.914 13.719 4.035 22.343-1.775 2.585-4.68 5.288-7.505 6.425l-7.947-5.418c2.812-1.237 5.14-2.722 6.984-5.437 2.024-2.951 1.832-6.518-.968-8.426-3.24-2.218-6.4-.23-9.846 1.218-6.854 3.082-12.212 4.194-18.37 0-6.643-4.56-9.51-12.743-4.135-20.628 2.006-2.94 4.55-5.102 7.618-6.705zm-276.95-194.761c4.668-5.71-5.023-14.316-8.158-16.888-3.514-2.87-13.49-10.358-18.165-4.648-4.668 5.717 4.65 14.012 8.157 16.895 3.148 2.572 13.497 10.364 18.165 4.641zm-.665-26.059c14.838 12.135 14.167 24.3 7.897 31.98s-18.06 10.75-32.89-1.391c-14.838-12.141-14.174-24.307-7.897-31.98 6.27-7.687 18.053-10.75 32.89 1.391zm25.155-25.208-5.363-5.698-.125.081 3.328 7.07 5.637 12.64 6.487-4.381zm-7.58-20.063 39.738 34.826-9.827 6.636-6.537-5.971-9.325 6.294 3.142 8.258-9.145 6.176-17.749-49.676zm48.337-22.723 6.636 21.853.143-.037 2.198-24.55 10.833-3.293-3.055 25.58 19.183 22.935-11.18 3.405-17.333-21.94-.143.044 7.561 24.91-10.616 3.23-14.85-48.906 10.623-3.23m60.634-10.253 1.1 41.611 11.62-.31.243 9.488-22.71.609-1.347-51.106zm51.354 26.761.633-7.81-.124-.031-3.042 7.201-5.643 12.632 7.592 1.908zm9.846-19.05.627 52.851-11.479-2.889.068-8.854-10.907-2.74-4.054 7.854-10.69-2.69 25.086-46.384zm49.379 20.846-4.569 33.503.211-.037c.714-2.424 1.925-4.785 3.334-7.028l12.162-19.485 9.405 5.884-27.049 43.339-8.92-5.567 4.699-33.423-.193.044-2.278 4.635-1.056 1.827-12.416 19.89-9.418-5.885 27.062-43.345zm39.993 68.64c4.979-4.182 11.423-12.52 5.544-19.541l-25.224 21.169c5.432 7.114 14.794 2.467 19.68-1.628zm-33.754-1.044 39.111-32.844 5.414 6.45c1.23 1.484 18.146 17.652-3.7 35.988-11.144 9.37-23.206 11.42-34.461-2.001z"/></g></g></svg>