<svg viewBox="0 0 500 502" xmlns="http://www.w3.org/2000/svg"><g fill="none" fill-rule="evenodd"><g fill="#fff"><path d="m493.177 285.505c-9.104 65.092-42.996 122.727-95.442 162.312-27.632 20.873-58.593 35.417-92.03 43.228-32.31 7.566-65.314 8.511-98.134 2.844h-.02c-61.77-10.686-116.592-44.15-154.374-94.2-39.585-52.446-56.392-117.166-47.289-182.246 9.091-65.092 42.983-122.72 95.43-162.312 27.637-20.86 58.598-35.399 92.043-43.229 32.297-7.546 65.325-8.498 98.146-2.824 61.776 10.68 116.592 44.13 154.374 94.18 39.585 52.447 56.393 117.18 47.296 182.247zm-44.528-184.333c-38.305-50.763-93.903-84.68-156.55-95.517-33.28-5.75-66.763-4.779-99.533 2.868-33.923 7.95-65.325 22.696-93.336 43.834-53.196 40.153-87.567 98.6-96.778 164.6-9.23 66 7.811 131.63 47.964 184.825 38.311 50.763 93.916 84.686 156.543 95.524h.019c33.274 5.75 66.75 4.785 99.508-2.881 33.898-7.931 65.307-22.67 93.33-43.828 53.202-40.146 87.573-98.6 96.79-164.6 9.223-65.994-7.811-131.635-47.957-184.825z"/><path d="m323.621 95.315c5.567 4.123 13.75 2.907 17.873-2.654 4.117-5.554 2.913-13.743-2.642-17.866-5.573-4.123-13.743-2.913-17.879 2.641-4.123 5.56-2.919 13.75 2.648 17.88m-230.367 55.566c5.56 4.13 13.743 2.919 17.866-2.648 4.13-5.56 2.92-13.744-2.641-17.873-5.554-4.123-13.744-2.9-17.873 2.648-4.123 5.56-2.906 13.75 2.648 17.873m84.043-63.119c5.554 4.129 13.737 2.919 17.86-2.648 4.13-5.554 2.913-13.731-2.635-17.867-5.573-4.116-13.75-2.912-17.873 2.654-4.129 5.56-2.912 13.738 2.648 17.86m-82.947 242.699c2.245-1.059 2.592-3.669 1.306-6.374l-1.702-3.6-7.036 3.336 1.709 3.6c.825 1.746 2.969 4.343 5.724 3.038m240.069 81.812.58 7.4 5.246-2.754z"/><path d="m407.683 283.954 7.994 9.62-24.625-2.01-8.094-.65-7.156-.593-2.39 4.602-1.115 2.163-3.524-6.765-37.076 3.026-2.793.227 7.988-9.62-48.865-42.151 3.814-1.318 5.132-1.765-2.08-25.293 23.023 3.934 4.381-11.127s13.92 13.548 16.58 16.12c.101.076.165.145.234.208.548.53 1.122.92 1.702 1.242.517.284 1.021.48 1.52.574.226.044.472.094.693.094.958 0 1.784-.447 2.345-1.393.328-.599.549-1.418.624-2.427a12.03 12.03 0 0 0 -.006-2.13c-.404-3.992-3.335-34.36-3.341-34.416l13.453 5.428 16.183-26.434h.013l16.177 26.434 13.466-5.428c-.006.056-2.024 20.848-2.938 30.28-.195 1.966-.347 3.442-.403 4.135-.334 3.67.712 5.472 2.263 5.863.22.063.454.088.7.088 1.223 0 2.622-.706 3.915-1.91.063-.063.138-.132.227-.208 2.648-2.56 16.574-16.107 16.58-16.12l4.388 11.127 22.998-3.934-2.074 25.293 4.482 1.538 4.477 1.545-48.872 42.15zm28.685 71.825s-.132.29-.403.763c-1.337 2.396-6.538 10.251-17.268 10.75h-.032l-1.664-5.75h.038c2.333-.114 3.354-.215 5.113-.63 4.135-.96 7.61-3.62 9.803-7.497 2.055-3.675 2.635-7.723 1.595-11.373-.77-2.742-2.547-4.968-5.27-6.62-2.692-1.62-5.56-1.796-5.882-1.809-4.313-.138-7.231 2.37-10.333 5.025-.278.24-.568.473-.839.712l-1.538 1.267-.17.14c-3.36 3.019-7.168 6.423-12.287 3.536-5.435-3.07-6.834-8.688-3.449-14.223 3.972-6.5 9.835-7.054 12.168-6.998h.069l2.452 6.815-.1-.05c-6.204-3.127-9.59 1.797-9.961 2.364-1.696 2.648-1.5 5.12.491 6.519.29.195.498.347.914.542 1.797.845 3.594-.05 7.395-3.625l.17-.164c3.897-3.682 12.017-11.341 23.56-4.835 4.974 2.792 8.007 7.69 8.328 13.428.22 3.883-.775 7.918-2.9 11.713zm-20.029 3.474-2.005-6.973.082.045c.038.018 4.66 1.998 7.566.46.516-.233 2.27-1.129 3.454-3.436 1.45-2.806.63-5.977-1.065-6.922-2.749-1.545-5.643.265-9.734 3.921l-.39.353c-5 4.495-11.235 10.08-21.095 4.533a19.842 19.842 0 0 1 -1.892-1.21c-4.18-3.04-6.543-7.295-6.827-12.357-.22-3.77.807-7.71 3.051-11.714 2.957-5.245 9.04-9.576 14.475-10.313l1.305-.17h.013v.043l1.86 5.145h-.039c-7.88-.183-12.135 6.027-13.251 7.93-2.119 3.594-2.73 7.427-1.772 10.775.87 2.957 2.888 5.371 5.85 6.972 6.122 3.335 10.567.101 15.743-4.463.031-.032 3.183-2.717 5.755-4.413 3.008-1.973 6.23-1.923 9.86.145 4.647 2.648 5.876 8.731 2.882 14.16l-.095.176c-.063.1-.126.233-.208.366-1.91 3.43-4.747 5.585-8.416 6.38-.044.006-3.197.775-5.038.567zm-18.383 44.622-.038.038-14.86-15.452-11.908-35.733 6.752-6.506c-1.677 5.296-.807 7.206-.53 8.334l10.497 31.232 9.639 9.91c2.194 1.841 4.514 2.402 7.59 1.305zm-8.953 8.618c.915-2.402 1.01-5.661-1.733-8.397l-8.814-9.236-30.916-11.707c-3.045-.914-4.426-1.148-8.095.075l6.594-6.335 35.28 13.251 14.884 15.427zm-21.239 17.224-41.237-32.53 3.506 52.401-8.127 4.28c1.419-1.96 2.245-5.05 2.308-10.42l-3.102-56.481 44.944 34.51c3.209 2.15 6.254 4.054 9.456 4.155zm-36.893-2.793-1.696-24.663 19.405 15.345zm34.371 4.117-9.166 4.829c2.27-3.152.076-5.39-1.324-6.538l-5.504-4.28-12.653 6.657.423 6.626c.53 2.931 2.44 4.854 4.57 5.17l-9.078 4.772-.157.082-1.23-18.838 19.45-10.244 14.859 11.67zm-63.465 25.702c-2.699 2.85-6.38 4.912-10.649 5.977 0 0-11.48 3.934-20.772-5.075l3.108-5.22c1.69 1.627 2.44 2.288 4.01 3.348 3.568 2.389 8.353 2.824 12.35 1.847 4.28-1.066 7.4-3.398 9.406-6.487 2.818-4.357 1.008-9.703 1.008-9.703l-9.128-36.792 8.82-2.194s-2.938 3.455-2.043 7.326l7.76 31.288c.133.423.416 1.948.43 2.062.724 4.98-.7 9.84-4.3 13.623zm56.985-122.121c-1.4.202-2.806.435-4.224.706 1.11-3.02 2.85-6.91 4.362-9.57-1.935-3.335-3.499-5.926-4.13-9.923a87.77 87.77 0 0 1 3.954-.492c.359 2.484 1.254 6.28 4.35 9.91-1.356 2.541-3.007 6.16-4.312 9.369zm-16.102-13.283a228.472 228.472 0 0 1 3.94-3.928c.48 2.522 1.684 6.512 5.983 9.236-1.097 2.263-2.748 6.317-4.13 9.91-1.632.36-3.284.738-4.93 1.154a99.778 99.778 0 0 1 2.939-7.962c.334-.788.655-1.5.94-2.106-2.334-1.935-3.809-3.865-4.742-6.304zm-8.448 8.952c.858-.952 1.709-1.885 2.535-2.774.97.77 2.15 1.406 3.593 1.81-1.191 2.269-2.622 6.449-3.726 10.212-1.595.442-3.177.896-4.722 1.356.864-3.65 2.17-7.27 3.19-10.138-.302-.138-.586-.309-.87-.466zm-49.035 82.631c-.763-3.14-3.329-5.207-5.245-5.516l8.832-2.175s9.35 37.687 9.356 37.75c1.5 6.122-3.24 11.039-8.744 12.4-1.412.354-5.882 1.362-10.093-1.235 0 0-3.165-2.055-4.634-3.726l3.745-6.292s1.55 4.956 4.772 6.053c.07.019 2.339.914 5.214.094 2.868-.807 5.195-3.392 4.495-6.285zm71.006-41.899s.82 1.305 2.824 2.34l12.956 5.307-4.873-13.213c-1.047-2.837-1.854-3.146-2.283-3.373-.599-.17-1.916-.322-4.04.643l8.44-8.133 10.958 32.594-32.197-12.149.177-.176 8.315-8c-.397 1.172-1.097 2.704-.277 4.16zm9.614-50.29c-.706-1.834-1.16-3.776-1.418-5.894a76.512 76.512 0 0 1 3.953-.208c.132 1.81.46 4.199 1.6 6.594a138.298 138.298 0 0 0 6.93-13.623 134.551 134.551 0 0 0 4.393-11.323l8.158.656c-6.468 19.909-17.293 38.746-32.55 55.011-19.732 21.07-44.199 35.008-70.204 41.754a489.697 489.697 0 0 1 6.544-10.194c21.39-7.042 41.375-19.38 57.86-36.975a139.194 139.194 0 0 0 16.752-21.826 21.42 21.42 0 0 1 -2.018-3.972zm-204.557-37.605c-13.296-9.293-21.75-14.368-40.278-17.822-38.501-7.168-69.903-19.317-79.152-26.025-2.137-1.683-1.632-2.471.328-2.458 2.03.025 4.275.056 6.702.107 33.892 1.084 63.787 4.236 91.104 8.139-1.93 12.47 12.943 21.025 28.685 27.48 54.337 22.311 84.402 62.893 97.257 94.42 12.842-22.48 31.95-42.774 41.848-55.043l-19.279.076c4.42-12.193 13.706-27.985 23.232-42.535l17.532 15.124-4.539 5.478-8.347 10.05 13.012-1.066 27.14-2.22c-4.148 3.241-57.16 45.682-102.78 134.29-24.07-70.628-63.522-127.758-92.465-147.995zm47.856 89.572c-1.538.07-3.064.101-4.577.12-.63-3.852-.643-7.212.095-10.169-4.432-1.923-6.241-8.309-6.166-12.81 1.627.132 3.26.22 4.911.27.19 3.292 1.892 9.634 6.714 12.345-1.67.17-1.506 5.78-.977 10.244zm-14.355-10.61c-1.72-.057-2.068 4.495-1.929 9.545a89.06 89.06 0 0 1 -4.558-.624c-.277-4.123-.088-7.326 1.097-9.665a8.285 8.285 0 0 1 -1.425-1.135c-2.969-3.02-3.606-8.523-2.956-12.388 1.582.347 3.183.669 4.81.952-.322 3.26.39 10.08 4.961 13.315zm-13.712-2.54c-1.727-.272-2.534 3.334-3.064 9.191a77.163 77.163 0 0 1 -4.274-1.254c.208-4.495.75-7.08 2.289-9.42-3.688-2.918-3.928-9.317-2.78-13.604a88.734 88.734 0 0 0 4.538 1.475c-.605 3.436-.46 10.894 3.291 13.611zm-31.969-.845c-25.665-24.058-40.777-55.17-45.145-87.517a359.71 359.71 0 0 0 8.29 1.803 138.749 138.749 0 0 0 11.827 38.336c.094-.145.195-.283.296-.428.07-.114.151-.221.227-.322a123.754 123.754 0 0 0 2.597 3.228c-.346.523-.7 1.09-1.027 1.696.384.75.788 1.481 1.191 2.219.334.63.669 1.28 1.034 1.91.076-.214.158-.41.233-.611.372-.914.763-1.79 1.217-2.617.971.971 1.967 1.93 2.982 2.888-.422.845-.82 1.79-1.172 2.786-.234.656-.454 1.33-.618 2.03a139.184 139.184 0 0 0 3.17 4.943c.266-2.32 1.091-4.59 2.157-6.538 1.053.896 2.1 1.797 3.171 2.68-.195.422-.385.882-.567 1.355-.795 2.087-1.425 4.653-1.406 7.263.536.744 1.103 1.456 1.651 2.168a153.904 153.904 0 0 0 3.62 4.533c.012-.025.024-.038.03-.063 0-.006.026-.019.039-.025v-.013a11.66 11.66 0 0 1 -.864-3.14c-.404-3.126.447-6.171 1.897-8.636.379.29.795.56 1.192.857.807.58 1.589 1.16 2.402 1.721-.22.46-.422.996-.612 1.564-.914 2.78-1.405 6.79.038 10.623a.67.67 0 0 0 -.283-.07c-.202.02-.417.133-.63.31-.09.081-.184.157-.272.27.87.984 1.759 1.96 2.673 2.913.908.958 1.835 1.91 2.761 2.85a23.03 23.03 0 0 1 .725-1.57c.19-.353.366-.694.561-1.009-2.395-4.23-1.903-9.104-.088-12.69a90.952 90.952 0 0 0 3.764 2.225c-.24.58-.46 1.324-.637 2.162-.479 2.301-.599 5.39.296 8.429.246.826.549 1.652.959 2.452a.71.71 0 0 0 -.284-.025c-.063.025-.132.063-.202.101-.038.019-.056.025-.082.038l-.138.12c-.05.056-.114.088-.164.151-.492.542-.99 1.576-1.45 2.774.006.019.031.031.044.057l.025.025c.284.258.567.504.845.763 1.4 1.292 2.824 2.54 4.268 3.757.441.378.882.763 1.33 1.141.378-1.992 1.021-3.669 2.289-5.699-2.194-3.934-2.592-9.406-1.318-13.176.983.473 1.992.933 3.007 1.393.303.133.618.297.94.442-.75 2.944-.927 9.078 1.872 13.358-.278-.056-.53.026-.788.246-.927.776-1.696 3.316-2.263 6.43 17.86 13.814 38.248 22.646 59.342 26.574a495.856 495.856 0 0 1 3.997 8.718c-28.602-4.21-56.247-16.895-78.949-38.153zm78.596 55.03-26.245-6.235-10.402 43.834 27.746 6.57-2.087 4.854h-.006l-36.667-8.706c3.96-.454 5.637-3.468 6.23-5.63l9.683-40.783c.693-2.938-.498-5.586-2.446-7.389l34.535 8.215-.34 5.27zm-.706 10.787s-1.544-3.474-7.95-5.012l-11.801-2.8-1.854 7.825 9.79 2.326c4.401 1.046 6.841-1.664 6.841-1.664l-1.765 7.464-21.088-5 4.091-17.254 24.291 5.768zm-7.218 31.118-25.583-6.058 4.646-19.519 20.855 4.962-1.76 7.401s-.951-3.284-5.39-4.495l-.132-.038-9.38-2.212-2.396 10.061s13.27 3.159 13.371 3.171c4.955 1.01 7.275-.296 9.324-1.513zm-78.49-34.686c3.31 2.105 7.522 1.626 9.331-1.009 5.781-9.129 16.725-26.377 16.725-26.377 1.722-2.736 2.056-4.867.347-7.622l7.704 4.886-20.615 32.517c-3.266 5.075-10.421 5.718-16.322 1.98-5.895-3.745-8.246-10.654-5.069-15.654l20.571-32.436 7.71 4.899c-3.12-.158-5.163 1.059-6.751 3.55 0 0-.101.17-.31.504-.062.1-14.53 22.903-16.403 25.86-1.583 2.768-.24 6.809 3.083 8.902zm37.114-20.376-17.204 27.134c-5.889 9.274-16.688 10.44-26.977 3.852-10.534-6.733-13.384-16.43-7.565-25.747 0 0 17.192-27.128 17.205-27.134 1.96-3.133 1.834-5.018.36-7.622l7.69 4.886-20.25 31.931c-.567.902-.73 1.186-.73 1.186-2.27 3.587-1.854 8.29.56 12.331.045.088.095.145.14.227 1.336 2.162 3.246 4.142 5.667 5.674 7.017 4.47 15.597 3.55 19.134-2.049 0 0 .485-.75.769-1.204l20.237-31.913 7.66 4.848c-2.522-.296-4.83.75-6.696 3.6zm-71.176-.019-.006.006-15.988-17.942 35.727-31.83.038.031 6.046 6.79c-2.92-1.784-7.452 1.582-7.452 1.582-.076.07-.152.126-.22.183-.013.006-.02.006-.032.019-3.279 2.894-23.068 20.565-26.649 23.767 2.629 2.938 7.036 7.893 7.036 7.893l.176.196c3.96 4.356 8.89 4.615 8.89 4.615zm-2.042 1.33-4.483 2.806-23.395-26.258c3.07 1.085 5.598 1.047 8.416-1.305a49965.127 49965.127 0 0 0 31.137-27.745c2.699-2.497 3.14-4.93 2.427-7.225l6.065 6.821-37.548 33.432 17.355 19.48.026-.012zm-48.096-59.828-9.192-19.367c2.263 2.352 5.056 2.705 8.587 1.11l37.567-17.823c3.108-1.4 4.28-3.789 4.293-6.273l8.953 18.876c4.627 9.626 1.582 20.312-6.96 24.379v.012h-.013c-5.832 2.743-9.81.895-9.81.895-1.065 5.057-4.16 8.436-8.347 10.422h-.006v.012c-5.466 2.572-17.665 3.335-25.072-12.243zm-16.442-109.223c5.252-5.793 25.211-15.118 83.526-24.77 5.353-8.485 9.01-12.028 16.14-15.048 1.28 11.512 7.647 25.11 23.723 26.232h.157c15.244 0 18.106-15.962 34.378-15.962 16.442 0 19.216 16.02 34.888 16.02h56.456l.775 9.361h-56.411c-.467 0-.971.013-1.488.013-15.061.473-18.005 15.994-34.207 15.994-16.348 0-19.19-15.799-34.586-16.007h-2.434c-8.284 0-12.615 2.806-15.01 5.97-3.758-.075-7.603-.151-11.53-.208-47.548-1.601-74.707-.643-94.08.17-.732-.22-1.054-.712-.297-1.765zm23.988-73.773 9.665 2.023c-1.28.896-2.932 2.384-3.859 4.634l-2.578 6.323 26.598 10.894c1.891.788 3.72.656 5.188.038l-4.854 11.833c-.523-1.481-1.601-2.679-3.745-3.549l-26.598-10.894-2.339 5.725c-.826 2.156-1.16 3.782-.674 6.058l-8.196-5.264zm19.14-31.163c7.067-9.507 20.508-11.555 29.958-4.545 9.45 7.004 11.386 20.458 4.319 29.983-7.067 9.52-20.508 11.575-29.958 4.558-9.45-7.016-11.38-20.457-4.319-29.996zm41.634-40.77.132-.094c1.841-1.343 4.193-2.39 4.678-2.579 2.427-.946 4.836-1.311 6.973-1.065 1.38.183 2.641.56 4.085 1.229l.246.12c1.79.914 3.347 2.27 4.634 4.04a13.253 13.253 0 0 1 2.099 4.143c.189.611 1.021 3.883-.725 8.353l-.277.706 14.544 4.962c2.099.573 4.016.92 5.566 1.008l-9.462 6.885-22.078-7.818 8.517 11.708c1.267 1.55 2.364 2.685 4.3 2.85l-10.062 7.318c.233-1.412-.101-2.71-.574-3.75l-19.663-27.343c-1.135-1.55-2.78-2.15-4.23-2.452l11.297-8.22zm42.41-22.342c7.06-9.52 20.495-11.563 29.951-4.546 9.45 7.004 11.386 20.464 4.319 29.984-7.074 9.525-20.508 11.568-29.959 4.558-9.456-7.017-11.385-20.47-4.312-29.996zm77.971-15.698c-.176-1.873-.44-3.096-1.28-4.085l10.85-.644c-.85 1.28-.933 2.894-.863 4.4l2.187 37.323-25.967-20.401.964 16.832.007.07c.17 2.282.277 3.587 1.361 4.715l-11.448.675c1.292-1.463 1.418-3.222 1.317-4.962l-2.162-36.823 26.062 20.375zm29.707-2.862 29.466 5.976-.17 9.879c-1.122-1.097-2.881-2.433-5.27-2.913l-6.708-1.355-5.706 28.161c-.416 2.005.063 3.777.94 5.094l-12.414-2.515c1.444-.857 2.232-2.213 2.673-4.369l5.706-28.161-6.065-1.23c-2.263-.397-3.934-.429-6.084.48zm38.645 26.1c7.061-9.52 20.508-11.563 29.965-4.546 9.444 7.01 11.38 20.458 4.312 29.984-7.067 9.52-20.508 11.568-29.952 4.551-9.45-7.004-11.386-20.457-4.325-29.99zm-95.252 68.88a137.42 137.42 0 0 0 -4.98-.29c.876-2.32.73-7.16-2.806-12.141 2.017-1.431 4.684-6.242 6.367-9.715 1.513.132 3.045.283 4.596.491-1.311 3.064-3.688 7.704-5.106 9.501 2.805 3.474 3.064 8.366 1.929 12.155zm14.033 2.056a276.883 276.883 0 0 0 -4.76-.845c.618-2.257.423-6.638-1.897-10.862-.328-.612-.7-1.21-1.11-1.797 2.011-1.43 5.252-5.447 7.313-8.48 1.551.285 3.096.593 4.634.902-1.683 2.875-5.302 6.752-6.72 8.555 2.931 3.411 3.606 8.637 2.54 12.527zm15.137-.693c-1.677.24-3.348.479-4.993.712-.258-3.196-1.387-7.483-4.098-10.755 1.942-1.614 4.83-5.485 6.651-8.46 1.5.371 2.982.73 4.451 1.096-1.488 2.862-4.211 6.487-5.478 8.366 2.212 2.2 3.278 5.712 3.467 9.04zm12.773-1.961c-1.539.246-3.058.492-4.577.719-.618-2.068-1.57-4.11-3.077-5.731 1.898-1.765 4.577-5.201 6.153-7.962 1.463.416 2.92.844 4.344 1.248-1.343 2.894-3.972 6.323-5.132 8.277.977.915 1.734 2.112 2.289 3.449zm16.536-7.345c-.788 1.703-2.03 3.461-3.177 5.031-2.421.46-4.842.877-7.257 1.286a1.03 1.03 0 0 1 -.12-.157 23.045 23.045 0 0 0 1.64-1.57c1.714-1.753 3.524-4.029 4.69-6.002 1.431.473 2.85.946 4.224 1.412zm-131.402 30.085a122.66 122.66 0 0 0 -3.038 2.37 13.902 13.902 0 0 0 -.694-1.198c-.17-.264-.34-.53-.542-.788a137.6 137.6 0 0 0 -3.36 4.287c.132.202.24.423.366.643.063.126.138.252.201.385-.693.605-1.374 1.23-2.049 1.84a92.3 92.3 0 0 0 -.75.663 2.2 2.2 0 0 1 -.1-.177.379.379 0 0 1 -.045-.088 138.085 138.085 0 0 0 -15.18 27.77 659.792 659.792 0 0 0 -9.161 1.608c6.6-17.955 16.845-34.939 30.759-49.785 48.153-51.387 124.555-60.459 182.624-25.728a221.872 221.872 0 0 1 -10.13 3.404 138.549 138.549 0 0 0 -22.079-9.38c-.245-.083-.485-.165-.737-.247-.126-.044-.252-.075-.385-.12-27.758-8.769-57.66-8.592-85.235.391v.007h-.006c-.851 3.146-2.717 7.748-3.883 9.753v.006c1.311 1.103 2.25 2.509 2.862 4.035.479 1.179.737 2.427.857 3.681a15.587 15.587 0 0 1 -.17 4.256c-.158.012-.303.025-.46.031a91.438 91.438 0 0 0 -4.59.297c.164-.757.19-1.797.044-2.989v-.019c0-.069-.019-.138-.019-.201-.353-2.61-1.513-5.895-4.047-8.625.183-.182.378-.397.567-.655 1.368-1.734 2.699-4.943 3.688-7.774-.775.278-1.531.593-2.3.896a139.633 139.633 0 0 0 -6.98 2.925c-.655 2.137-1.424 4.28-2.042 5.649a1.747 1.747 0 0 1 -.126.29c-.05.094-.088.195-.139.283 2.856 3.48 3.947 7.666 3.43 11.291a89.868 89.868 0 0 0 -5.126 1.034l.013-.094.038-.183c.573-2.333.46-5.926-3.77-10.711.876-.958 1.733-2.881 2.477-5.044v-.006a143.552 143.552 0 0 0 -8.183 4.508c-.07.245-.132.466-.189.693-.214.782-.416 1.45-.605 1.936 0 0 0 .006.006.006h-.006c.328.309.611.637.889.977a15.928 15.928 0 0 1 2.704 4.646c.58 1.576.914 3.197.978 4.747-1.671.48-3.31.99-4.937 1.551.133-2.433-.63-6.146-4.886-10.049.221-.283.423-.674.63-1.11a101.057 101.057 0 0 0 -3.07 2.087c-.964.669-1.929 1.356-2.868 2.05l-.006.012c2.307 2.087 3.852 4.829 4.596 7.584.12.473.24.958.315 1.431-.057.025-.12.057-.177.076a86.336 86.336 0 0 0 -4.053 1.759c-.057.025-.12.05-.17.082-.02-.17-.057-.353-.076-.53a11.09 11.09 0 0 0 -1.022-3.196 14.114 14.114 0 0 0 -2.004-2.944 20.23 20.23 0 0 0 -1.261-1.312h-.006a119.14 119.14 0 0 0 -4.514 3.739c.346.334.655.712.97 1.072a16.684 16.684 0 0 1 1.659 2.294c.611 1.04 1.122 2.1 1.494 3.178-1.293.68-2.573 1.374-3.827 2.08-.492-1.734-1.488-3.84-3.474-5.794-.328.29-.643.593-.952.883a126.51 126.51 0 0 0 -3.738 3.625c.283.334.548.687.813 1.047a18.935 18.935 0 0 1 1.954 3.492c-.182.114-.359.24-.542.353-.895.593-1.803 1.185-2.68 1.784a14.097 14.097 0 0 0 -2.32-3.807c-.005 0-.005.012-.012.018-.006.007-.012.007-.019.02-.737.787-1.45 1.607-2.168 2.42-.568.643-1.173 1.274-1.721 1.923a16.172 16.172 0 0 1 1.695 2.686zm232.208-60.673s-.245 10.301-3.738 18.604c9.16-5.22 18.478-8.02 28.243-9.495-10.055 11.531-17.494 21.624-22.519 35.217 8.864-6.204 14.582-8.505 22.709-8.801-8.108 7.735-10.888 24.41-14.753 40.152l-11.095-18.131-4.69-7.647-18.422 30.134-17.558-7.092.87 9.009c.026.258 2.182 22.576 3.033 31.37a6379.22 6379.22 0 0 1 -14.078-13.705l-5.92-5.762-3.026 7.685-2.742 6.966-18.61-3.178-6.986-1.191.41 4.955c-12.57-.744-20.937-2.32-33.57-5.396-10.27-2.49-25.407-8.46-39.58-12.861 8.36-1.104 18.246-1.324 30.293-.227 0 0-51.122-16.612-74.977-.265-3.121 1.891-5.454 4.199-6.715 6.708-3.246 6.506-.718 12.899-.718 12.899-9.646 0-17.842-10.756-17.13-22.028 7.213-10.919 17.628-21.996 37.934-28.653 30.954-10.15 150.479-9.52 193.335-59.267zm50.032 13.939a218.676 218.676 0 0 0 -11.543-14.065c-.07-.076-.145-.17-.278-.31-33.526-37.56-78.552-62.652-128.609-71.314-61.662-10.654-123.13 4.218-173.048 41.899-47.724 36.023-78.558 88.456-86.836 147.679-8.265 59.21 7.017 118.106 43.034 165.836 34.371 45.53 84.257 75.955 140.448 85.682l.025.013c61.65 10.654 123.105-4.23 173.023-41.924 47.711-36.017 78.559-88.45 86.83-147.673 8.277-59.204-7.004-118.106-43.046-165.823z"/><path d="m76.566 328.69-9.513 4.507 1.582 3.367c2.592 5.623 4.773 5.466 7.055 5.188.826-.094 1.879-.725 2.446-1.267 1.45-1.406 2.162-3.947.025-8.448zm60.1-226.83c3.593-2.61 3.202-5.612 3.146-5.952-.082-.467-.688-2.364-2.182-3.19-2.2-1.223-4.255-.87-7.098 1.185l-2.844 2.08 5.92 8.102 3.058-2.226"/><path d="m400.358 428.847c-3.43 2.9-6.948 5.724-10.56 8.46-36.395 27.48-80.103 43.45-125.047 46.444-2.54.17-5.075.31-7.603.391-9.822.334-19.682.05-29.51-.876a224.967 224.967 0 0 1 -17.823-2.364l-.019-.007c-26.037-4.495-50.763-13.277-73.345-25.81a232.22 232.22 0 0 1 -21.838-13.756c-19.21-13.68-36.395-30.324-50.926-49.57-12.61-16.714-22.765-34.738-30.381-53.65a230.408 230.408 0 0 1 -15.358-61.544c-2.01-18.843-1.708-38.06.984-57.306 5.787-41.445 22.216-79.706 47.46-111.707 12.274-15.565 26.622-29.656 42.862-41.918 31.503-23.78 68.472-38.916 106.998-44.508a214.213 214.213 0 0 1 11.808-1.413 234.905 234.905 0 0 1 19.55-1.027 233.613 233.613 0 0 1 35.72 2.42c1.986.297 3.965.612 5.939.946a234.409 234.409 0 0 1 35.657 9.116c43.759 14.91 82.152 42.536 110.44 80.015 25.507 33.804 41.01 72.998 45.593 114.002.056.41.113.813.145 1.191 0 .026.006.032.006.05 2.005 18.832 1.708 38.029-.983 57.263-2.63 18.85-7.471 37.02-14.337 54.262-13.913 35.008-36.2 66.1-65.432 90.896zm83.892-144.578c8.75-62.697-7.427-125.047-45.562-175.582-36.395-48.222-89.206-80.437-148.72-90.732-31.622-5.466-63.428-4.54-94.552 2.73a236.717 236.717 0 0 0 -30.835 9.475c-20.57 7.893-39.931 18.642-57.836 32.165a240.3 240.3 0 0 0 -25.898 22.625c-35.777 36.086-58.876 82.511-66.032 133.734a240.282 240.282 0 0 0 -2.326 35.153c.39 50.51 16.896 99.382 47.894 140.417a237.266 237.266 0 0 0 30.217 33.08c32.99 29.901 73.855 49.955 118.484 57.672h.025c27.67 4.791 55.472 4.678 82.845-.296a237.685 237.685 0 0 0 11.695-2.428c32.196-7.546 62.035-21.56 88.664-41.665 50.523-38.135 83.167-93.657 91.937-156.348z"/></g><path d="m484.25 284.275c-8.77 62.685-41.414 118.22-91.937 156.342-26.63 20.117-56.468 34.12-88.664 41.665-3.89.915-7.792 1.715-11.695 2.428-27.373 4.986-55.175 5.093-82.845.302h-.025c-44.629-7.716-85.494-27.777-118.484-57.678a237.266 237.266 0 0 1 -30.217-33.08c-30.998-41.028-47.503-89.9-47.894-140.416a240.282 240.282 0 0 1 2.326-35.153c7.156-51.223 30.255-97.648 66.032-133.734a239.61 239.61 0 0 1 25.898-22.626c17.905-13.523 37.265-24.272 57.836-32.165a236.717 236.717 0 0 1 30.835-9.476c31.124-7.269 62.93-8.195 94.552-2.73 59.514 10.296 112.325 42.51 148.72 90.733 38.135 50.535 54.312 112.885 45.562 175.588zm-192.743-275.197c-32.82-5.674-65.85-4.722-98.146 2.824-33.445 7.83-64.406 22.368-92.044 43.23-52.446 39.589-86.337 97.218-95.429 162.31-9.103 65.08 7.704 129.8 47.29 182.246 37.781 50.05 92.604 83.514 154.374 94.2h.019c32.82 5.667 65.823 4.722 98.133-2.844 33.438-7.81 64.399-22.355 92.031-43.228 52.446-39.585 86.338-97.22 95.442-162.312 9.097-65.067-7.71-129.8-47.296-182.246-37.782-50.05-92.598-83.501-154.374-94.181z" fill="#204078"/><path d="m384.376 430.114c-49.918 37.694-111.373 52.578-173.023 41.924l-.025-.013c-56.19-9.727-106.077-40.152-140.448-85.682-36.017-47.73-51.299-106.626-43.034-165.836 8.278-59.223 39.112-111.656 86.836-147.68 49.918-37.679 111.386-52.551 173.048-41.897 50.057 8.662 95.083 33.753 128.61 71.315.132.138.207.233.277.309a218.676 218.676 0 0 1 11.543 14.065c36.042 47.717 51.323 106.619 43.046 165.823-8.271 59.223-39.119 111.656-86.83 147.673zm81.414-92.163c6.866-17.243 11.708-35.412 14.337-54.262 2.691-19.234 2.988-38.431.983-57.262 0-.02-.006-.025-.006-.05-.032-.379-.089-.782-.145-1.192-4.584-41.004-20.086-80.198-45.593-114.002-28.288-37.48-66.681-65.105-110.44-80.015a234.409 234.409 0 0 0 -35.657-9.116 306.43 306.43 0 0 0 -5.939-.945 233.613 233.613 0 0 0 -35.72-2.421c-6.538.07-13.063.416-19.55 1.027-2.806.259-5.592.574-8.366.934-1.154.15-2.295.308-3.442.479-38.526 5.592-75.495 20.728-106.998 44.508-16.24 12.262-30.588 26.353-42.863 41.918-25.243 32-41.672 70.262-47.459 111.707-2.692 19.247-2.995 38.463-.984 57.306a230.408 230.408 0 0 0 15.358 61.543c7.616 18.913 17.772 36.937 30.38 53.65 14.532 19.247 31.718 35.89 50.927 49.571a232.22 232.22 0 0 0 21.838 13.756c22.582 12.533 47.32 21.315 73.345 25.81l.019.007a224.967 224.967 0 0 0 17.822 2.364c9.829.927 19.689 1.21 29.511.876a220.82 220.82 0 0 0 7.603-.39c44.944-2.995 88.652-18.964 125.047-46.445 3.612-2.736 7.13-5.56 10.56-8.46 29.233-24.795 51.512-55.888 65.432-90.896z" fill="#204078"/><path d="m164.67 361.567c.567-3.115 1.336-5.655 2.263-6.43.258-.221.51-.303.788-.247-2.8-4.28-2.623-10.414-1.873-13.358-.321-.145-.636-.31-.939-.442-1.015-.46-2.024-.92-3.007-1.393-1.274 3.77-.876 9.242 1.318 13.176-1.268 2.03-1.91 3.707-2.289 5.7-.448-.38-.889-.764-1.33-1.142a125.424 125.424 0 0 1 -4.268-3.757c-.278-.259-.561-.505-.845-.763l-.025-.025c-.013-.026-.038-.038-.044-.057.46-1.198.958-2.232 1.45-2.774.05-.063.113-.095.164-.151l.138-.12c.026-.013.044-.019.082-.038.07-.038.139-.076.202-.1.1-.013.202 0 .284.024-.41-.8-.713-1.626-.959-2.452-.895-3.039-.775-6.128-.296-8.429.177-.838.397-1.582.637-2.162a90.952 90.952 0 0 1 -3.764-2.226c-1.815 3.587-2.307 8.46.088 12.691-.195.315-.372.656-.56 1.009a23.03 23.03 0 0 0 -.725 1.57c-.927-.94-1.854-1.892-2.762-2.85a96.793 96.793 0 0 1 -2.673-2.913c.088-.113.183-.189.271-.27.214-.177.429-.29.63-.31a.67.67 0 0 1 .284.07c-1.443-3.833-.952-7.843-.038-10.623.19-.568.391-1.103.612-1.564-.813-.56-1.595-1.14-2.402-1.72-.397-.297-.813-.568-1.192-.858-1.45 2.465-2.3 5.51-1.897 8.637a11.66 11.66 0 0 0 .864 3.14v.012c-.013.006-.038.019-.038.025-.007.025-.02.038-.032.063a153.904 153.904 0 0 1 -3.619-4.533c-.548-.712-1.115-1.424-1.651-2.168-.02-2.61.611-5.176 1.406-7.263.182-.473.372-.933.567-1.355-1.072-.883-2.118-1.784-3.171-2.68-1.066 1.948-1.891 4.218-2.156 6.538a139.184 139.184 0 0 1 -3.171-4.943c.164-.7.384-1.374.618-2.03.353-.996.75-1.941 1.172-2.786a144.461 144.461 0 0 1 -2.982-2.888c-.454.826-.845 1.703-1.217 2.617-.075.201-.157.397-.233.611-.365-.63-.7-1.28-1.034-1.91-.403-.738-.807-1.469-1.191-2.22.328-.604.68-1.172 1.027-1.695a123.754 123.754 0 0 1 -2.597-3.228c-.076.101-.158.208-.227.322-.1.145-.202.283-.296.428a138.749 138.749 0 0 1 -11.827-38.336 359.71 359.71 0 0 1 -8.29-1.803c4.368 32.347 19.48 63.46 45.145 87.517 22.702 21.258 50.347 33.942 78.95 38.153a495.856 495.856 0 0 0 -3.998-8.718c-21.094-3.928-41.482-12.76-59.342-26.573m-16.556-205.245c.007-.012.013-.012.02-.019.006-.006.006-.018.012-.018a14.097 14.097 0 0 1 2.32 3.807c.876-.599 1.784-1.191 2.68-1.784.182-.113.359-.24.541-.353a18.935 18.935 0 0 0 -1.954-3.492c-.265-.36-.53-.713-.813-1.047a126.51 126.51 0 0 1 3.738-3.625c.31-.29.624-.593.952-.883 1.986 1.955 2.982 4.06 3.474 5.794 1.254-.706 2.534-1.4 3.827-2.08-.372-1.078-.883-2.137-1.494-3.178-.48-.807-1.04-1.57-1.659-2.294-.315-.36-.624-.738-.97-1.072a119.14 119.14 0 0 1 4.514-3.739h.006c.466.442.87.87 1.26 1.312.87.996 1.533 1.998 2.005 2.944a11.09 11.09 0 0 1 1.022 3.196c.019.177.057.36.075.53.05-.032.114-.057.17-.082a86.336 86.336 0 0 1 4.054-1.76c.057-.018.12-.05.177-.075a16.617 16.617 0 0 0 -.315-1.431c-.744-2.755-2.289-5.497-4.596-7.584l.006-.013c.94-.693 1.904-1.38 2.869-2.049a101.057 101.057 0 0 1 3.07-2.086c-.208.435-.41.826-.63 1.11 4.255 3.902 5.018 7.615 4.885 10.048a97.638 97.638 0 0 1 4.937-1.55c-.064-1.551-.398-3.172-.978-4.748a15.928 15.928 0 0 0 -2.704-4.646 9.95 9.95 0 0 0 -.89-.977h.007c-.006 0-.006-.006-.006-.006.189-.486.39-1.154.605-1.936.057-.227.12-.448.19-.693a143.552 143.552 0 0 1 8.182-4.508v.006c-.744 2.163-1.601 4.086-2.477 5.044 4.23 4.785 4.343 8.378 3.77 10.71l-.038.184-.013.094c1.69-.39 3.392-.737 5.126-1.034.517-3.625-.574-7.81-3.43-11.29.05-.089.088-.19.139-.284.05-.095.088-.177.126-.29.618-1.368 1.387-3.512 2.042-5.65a139.633 139.633 0 0 1 6.98-2.924c.769-.303 1.525-.618 2.3-.896-.99 2.831-2.32 6.04-3.688 7.774a5.527 5.527 0 0 1 -.567.655c2.534 2.73 3.694 6.015 4.047 8.625 0 .063.02.132.02.201v.02c.144 1.19.12 2.231-.045 2.988a91.438 91.438 0 0 1 4.59-.297c.157-.006.302-.019.46-.031.246-1.33.309-2.793.17-4.256-.12-1.254-.378-2.502-.857-3.681-.612-1.526-1.551-2.932-2.862-4.035v-.006c1.166-2.005 3.032-6.607 3.883-9.753h.006v-.007c27.576-8.983 57.477-9.16 85.235-.39.133.044.259.075.385.12.252.081.492.163.737.245a138.549 138.549 0 0 1 22.078 9.381 221.872 221.872 0 0 0 10.131-3.404c-58.069-34.731-134.471-25.659-182.624 25.728-13.914 14.846-24.158 31.83-30.759 49.785a659.792 659.792 0 0 1 9.16-1.607 138.085 138.085 0 0 1 15.181-27.771c.013.038.032.07.044.088a2.2 2.2 0 0 0 .101.177 92.3 92.3 0 0 1 .75-.662c.675-.612 1.356-1.236 2.05-1.841-.064-.133-.14-.259-.202-.385-.127-.22-.234-.441-.366-.643a137.6 137.6 0 0 1 3.36-4.287c.202.259.372.524.542.788.259.404.492.801.694 1.198a122.66 122.66 0 0 1 3.038-2.37 16.172 16.172 0 0 0 -1.695-2.686c.548-.65 1.153-1.28 1.72-1.923.72-.813 1.432-1.633 2.17-2.42m145.088 227.183a489.697 489.697 0 0 0 -6.544 10.194c26.005-6.746 50.472-20.685 70.205-41.754 15.256-16.265 26.081-35.102 32.55-55.011l-8.159-.656a134.551 134.551 0 0 1 -4.394 11.323 138.298 138.298 0 0 1 -6.928 13.623c-1.141-2.395-1.47-4.785-1.601-6.594a77.272 77.272 0 0 0 -3.953.208c.258 2.118.712 4.06 1.418 5.894a21.42 21.42 0 0 0 2.018 3.972 139.194 139.194 0 0 1 -16.751 21.826c-16.486 17.595-36.47 29.933-57.861 36.975" fill="#cf292a"/><path d="m184.97 347.823c-.65 3.865-.013 9.369 2.956 12.388.429.429.908.807 1.425 1.135-1.185 2.339-1.374 5.542-1.097 9.665 1.5.246 3.026.454 4.558.624-.139-5.05.208-9.602 1.93-9.545-4.571-3.234-5.284-10.055-4.962-13.315a113.838 113.838 0 0 1 -4.81-.952m-11.77-3.36c-1.148 4.287-.908 10.686 2.78 13.605-1.539 2.339-2.08 4.924-2.289 9.419 1.412.46 2.837.876 4.274 1.254.53-5.857 1.337-9.463 3.064-9.192-3.75-2.717-3.896-10.175-3.29-13.61a88.734 88.734 0 0 1 -4.54-1.476m163.415-4.923c1.104-3.764 2.535-7.944 3.726-10.214a10.085 10.085 0 0 1 -3.593-1.809c-.826.889-1.677 1.822-2.535 2.774.284.157.568.328.87.466-1.02 2.869-2.326 6.488-3.19 10.138 1.545-.46 3.127-.914 4.722-1.356m6.91-1.828c1.645-.416 3.297-.794 4.93-1.154 1.38-3.593 3.032-7.647 4.13-9.91-4.3-2.724-5.504-6.714-5.984-9.236a228.472 228.472 0 0 0 -3.94 3.928c.933 2.44 2.408 4.369 4.741 6.304a62.115 62.115 0 0 0 -.94 2.106 99.778 99.778 0 0 0 -2.937 7.962m11.246-21.876c.631 3.997 2.195 6.588 4.13 9.923-1.513 2.66-3.253 6.55-4.362 9.57a93.658 93.658 0 0 1 4.224-.706c1.305-3.209 2.956-6.828 4.312-9.368-3.096-3.632-3.991-7.427-4.35-9.91a88.975 88.975 0 0 0 -3.953.491m-95.486-188.197c-1.576 2.76-4.255 6.197-6.153 7.962 1.507 1.62 2.459 3.663 3.077 5.73 1.519-.226 3.038-.472 4.577-.718-.555-1.337-1.312-2.534-2.289-3.449 1.16-1.954 3.79-5.383 5.132-8.277-1.425-.404-2.881-.832-4.344-1.248m7.483 11.789c.038.056.076.113.12.157a375.76 375.76 0 0 0 7.257-1.286c1.147-1.57 2.389-3.328 3.177-5.03-1.374-.467-2.793-.94-4.224-1.413-1.166 1.973-2.976 4.25-4.69 6.002a23.045 23.045 0 0 1 -1.64 1.57m-21.195-15.357c-1.822 2.975-4.71 6.846-6.65 8.46 2.71 3.272 3.839 7.559 4.097 10.755 1.645-.233 3.316-.473 4.993-.712-.19-3.33-1.255-6.84-3.467-9.04 1.267-1.88 3.99-5.505 5.478-8.367-1.469-.365-2.95-.725-4.45-1.097m-13.152-2.786c-2.061 3.032-5.302 7.048-7.313 8.48.41.585.782 1.184 1.11 1.796 2.32 4.224 2.515 8.605 1.898 10.862 1.595.271 3.183.549 4.76.845 1.065-3.89.39-9.116-2.541-12.527 1.418-1.803 5.037-5.68 6.72-8.555a273.485 273.485 0 0 0 -4.634-.901m-14.998-2.219c-1.683 3.473-4.35 8.284-6.367 9.715 3.537 4.98 3.682 9.822 2.805 12.142 1.64.07 3.298.157 4.98.29 1.136-3.789.877-8.681-1.928-12.155 1.418-1.797 3.795-6.437 5.106-9.5a98.072 98.072 0 0 0 -4.596-.492m-7.351 243.392c-4.822-2.711-6.525-9.053-6.714-12.344a96.914 96.914 0 0 1 -4.91-.271c-.076 4.501 1.733 10.887 6.165 12.81-.738 2.957-.725 6.317-.095 10.169 1.513-.019 3.039-.05 4.577-.12-.53-4.463-.693-10.074.977-10.244" fill="#cf292a"/><path d="m146.86 190.6c-.713 11.271 7.483 22.027 17.129 22.027 0 0-2.528-6.393.718-12.9 1.261-2.508 3.594-4.816 6.715-6.707 23.855-16.347 74.977.265 74.977.265-12.047-1.097-21.933-.877-30.292.227 14.172 4.4 29.309 10.37 39.578 12.86 12.634 3.077 21 4.653 33.571 5.397l-.41-4.955 6.986 1.191 18.61 3.178 2.742-6.966 3.026-7.685 5.92 5.762c.114.126 9.261 9.028 14.078 13.705-.851-8.794-3.007-31.112-3.033-31.37l-.87-9.009 17.558 7.092 18.421-30.134 4.69 7.647 11.096 18.131c3.865-15.742 6.645-32.417 14.753-40.152-8.127.296-13.845 2.597-22.709 8.8 5.025-13.592 12.464-23.685 22.52-35.216-9.766 1.476-19.084 4.275-28.244 9.495 3.493-8.303 3.738-18.604 3.738-18.604-42.856 49.747-162.38 49.117-193.335 59.267-20.306 6.657-30.721 17.734-37.933 28.653" fill="#204078"/><path d="m356.486 296.834-27.14 2.219-13.013 1.065 8.347-10.049 4.54-5.478-17.533-15.124c-9.526 14.55-18.812 30.342-23.232 42.535l19.28-.076c-9.899 12.269-29.007 32.562-41.85 55.044-12.854-31.528-42.92-72.11-97.256-94.42-15.742-6.456-30.614-15.011-28.685-27.481-27.317-3.903-57.212-7.055-91.104-8.14-2.427-.05-4.672-.081-6.702-.106-1.96-.013-2.465.775-.328 2.458 9.249 6.708 40.65 18.857 79.152 26.025 18.528 3.454 26.982 8.53 40.278 17.822 28.943 20.237 68.396 77.367 92.466 147.995 45.618-88.608 98.631-131.049 102.78-134.29m-164.203-86.287c-1.141 4.627-.498 8.606-.24 10.636h-5.491c-.132-4.124 2.326-8.36 5.73-10.636zm-57.307 23.887c3.928.057 7.773.133 11.53.208 2.396-3.164 6.727-5.97 15.011-5.97h2.434c15.395.208 18.238 16.007 34.586 16.007 16.202 0 19.146-15.521 34.207-15.994.517 0 1.021-.013 1.488-.013h56.411l-.775-9.362h-56.456c-15.672 0-18.446-16.02-34.888-16.02-16.272 0-19.134 15.963-34.378 15.963h-.157c-16.076-1.122-22.444-14.72-23.724-26.232-7.13 3.02-10.786 6.563-16.139 15.048-58.315 9.652-78.274 18.977-83.526 24.77-.757 1.053-.435 1.545.296 1.765 19.374-.813 46.533-1.771 94.08-.17z" fill="#0f182a"/><path d="m192.283 210.546c-3.405 2.276-5.863 6.512-5.731 10.636h5.491c-.258-2.03-.901-6.009.24-10.636" fill="#fff"/><path d="m222.871 83.015c.101 1.74-.025 3.5-1.317 4.962l11.448-.675c-1.084-1.128-1.191-2.433-1.361-4.715l-.007-.07-.964-16.832 25.967 20.4-2.187-37.321c-.07-1.507.012-3.12.863-4.4l-10.85.643c.84.99 1.104 2.212 1.28 4.085l1.028 17.475-26.062-20.375zm-132.265 49.994c4.13-5.548 12.319-6.771 17.873-2.648 5.56 4.13 6.77 12.312 2.641 17.873-4.123 5.567-12.306 6.777-17.866 2.648-5.554-4.123-6.771-12.313-2.648-17.873zm-2.56 24.89c9.45 7.016 22.892 4.961 29.959-4.559 7.067-9.525 5.132-22.979-4.319-29.983-9.45-7.01-22.89-4.962-29.958 4.545-7.06 9.539-5.132 22.98 4.319 29.996zm189.856-103.102 6.065 1.23-5.706 28.161c-.441 2.156-1.229 3.512-2.673 4.369l12.414 2.515c-.877-1.317-1.356-3.089-.94-5.094l5.706-28.161 6.707 1.355c2.39.48 4.149 1.816 5.27 2.913l.171-9.879-29.466-5.976-3.632 9.046c2.15-.908 3.82-.876 6.084-.479m-215.836 131.295 2.34-5.725 26.597 10.894c2.144.87 3.222 2.068 3.745 3.55l4.854-11.834c-1.469.618-3.297.75-5.188-.038l-26.598-10.894 2.578-6.323c.927-2.25 2.579-3.738 3.859-4.634l-9.665-2.023-11.392 27.82 8.196 5.265c-.486-2.276-.152-3.902.674-6.058m68.466-92.189c2.843-2.055 4.898-2.408 7.098-1.185 1.494.826 2.1 2.723 2.182 3.19.056.34.447 3.341-3.146 5.951l-3.058 2.226-5.92-8.102zm-12.237 3.902 19.663 27.342c.473 1.04.807 2.34.574 3.751l10.061-7.319c-1.935-.164-3.032-1.299-4.3-2.85l-8.516-11.707 22.078 7.818 9.462-6.885c-1.55-.088-3.467-.435-5.566-1.008l-14.544-4.962.277-.706c1.746-4.47.914-7.742.725-8.353a13.253 13.253 0 0 0 -2.1-4.142c-1.286-1.772-2.843-3.127-4.633-4.041l-.246-.12c-1.444-.668-2.705-1.046-4.085-1.23-2.137-.245-4.546.12-6.973 1.066-.485.19-2.837 1.236-4.678 2.579l-.132.094-11.297 8.221c1.45.303 3.095.902 4.23 2.452zm56.355-27.903c4.122-5.566 12.3-6.77 17.872-2.654 5.548 4.136 6.765 12.313 2.635 17.867-4.123 5.567-12.306 6.777-17.86 2.648-5.56-4.123-6.777-12.3-2.648-17.86zm-2.567 24.884c9.45 7.01 22.885 4.967 29.959-4.558 7.067-9.52 5.131-22.98-4.319-29.984-9.456-7.017-22.89-4.974-29.952 4.546-7.073 9.525-5.144 22.979 4.312 29.996zm148.89-17.35c4.136-5.554 12.306-6.764 17.88-2.641 5.554 4.123 6.758 12.312 2.64 17.866-4.122 5.56-12.305 6.777-17.872 2.654-5.567-4.13-6.77-12.318-2.648-17.879zm-2.553 24.883c9.444 7.017 22.885 4.968 29.952-4.551 7.067-9.526 5.132-22.973-4.312-29.984-9.457-7.017-22.904-4.974-29.965 4.546-7.06 9.532-5.125 22.985 4.325 29.99zm-163.856 283.873c.208-.335.309-.505.309-.505 1.588-2.49 3.63-3.707 6.752-3.55l-7.71-4.898-20.572 32.436c-3.177 5-.826 11.91 5.069 15.654 5.9 3.738 13.056 3.095 16.322-1.98l20.615-32.517-7.704-4.886c1.709 2.755 1.375 4.886-.347 7.622 0 0-10.944 17.248-16.725 26.377-1.81 2.635-6.02 3.114-9.33 1.009-3.323-2.093-4.666-6.134-3.083-8.902 1.872-2.957 16.34-25.76 16.404-25.86" fill="#204078"/><path d="m177.392 392.13-20.237 31.913c-.284.454-.77 1.204-.77 1.204-3.536 5.598-12.116 6.519-19.133 2.049-2.42-1.532-4.331-3.512-5.668-5.674-.044-.082-.094-.139-.138-.227-2.415-4.041-2.831-8.744-.561-12.331 0 0 .163-.284.73-1.186l20.25-31.931-7.69-4.886c1.474 2.604 1.6 4.489-.36 7.622-.013.006-17.205 27.134-17.205 27.134-5.819 9.318-2.97 19.014 7.565 25.747 10.29 6.588 21.088 5.422 26.977-3.852l17.204-27.134c1.866-2.85 4.174-3.896 6.696-3.6zm220.116 3.568-9.64-9.91-10.496-31.232c-.277-1.128-1.147-3.038.53-8.334l-6.752 6.506 11.908 35.733 14.86 15.452.038-.038 7.142-6.872c-3.076 1.097-5.396.536-7.59-1.305m-49.363-20.835-.177.176 32.197 12.149-10.957-32.594-8.442 8.133c2.125-.965 3.442-.814 4.041-.643.43.227 1.236.536 2.283 3.373l4.873 13.213-12.956-5.308c-2.004-1.034-2.824-2.339-2.824-2.339-.82-1.456-.12-2.988.277-4.16zm-2.105 2.03-6.595 6.335c3.67-1.223 5.05-.99 8.095-.075l30.916 11.707 8.814 9.236c2.742 2.736 2.648 5.995 1.733 8.397l7.2-6.922-14.885-15.427-35.279-13.251m-40.392 64.165-7.76-31.288c-.895-3.871 2.042-7.326 2.042-7.326l-8.82 2.194 9.13 36.792s1.809 5.346-1.01 9.703c-2.004 3.089-5.125 5.421-9.406 6.487-3.996.977-8.781.542-12.35-1.847-1.57-1.06-2.32-1.721-4.01-3.348l-3.107 5.22c9.292 9.009 20.772 5.075 20.772 5.075 4.269-1.065 7.95-3.127 10.649-5.977 3.6-3.782 5.024-8.643 4.3-13.623-.014-.114-.297-1.64-.43-2.062" fill="#204078"/><path d="m288.38 450.275c-2.875.82-5.145-.075-5.214-.094-3.221-1.097-4.772-6.053-4.772-6.053l-3.745 6.292c1.469 1.67 4.634 3.726 4.634 3.726 4.21 2.597 8.68 1.589 10.093 1.236 5.504-1.362 10.244-6.28 8.744-12.4-.006-.064-9.356-37.751-9.356-37.751l-8.832 2.175c1.916.309 4.482 2.376 5.245 5.516l7.698 31.068c.7 2.893-1.627 5.478-4.495 6.285" fill="#204078"/><path d="m78.59 346.89c-7.704 3.644-12.508-3.511-14.651-8.1l-3.871-8.14 18.308-8.687 3.858 8.145h.006c1.784 3.776 4.993 12.665-3.65 16.782zm17.785-33.457 3.99 8.423c2.68 5.547 1.11 11.637-3.537 13.838-4.444 2.105-9.5-.492-12.261-6.336l-4.004-8.423zm-9.715 22.853-.076-.53.422.322c3.84 2.85 7.395 3.436 10.856 1.797 5.85-2.774 7.912-10.276 4.697-17.066l-5.03-10.604-40.676 19.298 4.892 10.333c4.306 9.046 10.982 12.495 17.873 9.223 5.131-2.427 7.754-7.294 7.042-12.773z" fill="#fff"/><g fill="#204078"><path d="m93.954 320.488 1.702 3.6c1.286 2.704.94 5.314-1.305 6.373-2.755 1.305-4.899-1.292-5.724-3.039l-1.709-3.6zm2.874 15.206c4.647-2.2 6.217-8.29 3.537-13.838l-3.99-8.423-15.812 7.502 4.004 8.423c2.76 5.844 7.817 8.441 12.261 6.336zm-18.692 4.791c-.567.542-1.62 1.173-2.446 1.267-2.282.278-4.463.435-7.055-5.188l-1.582-3.367 9.513-4.507 1.595 3.347c2.137 4.501 1.425 7.042-.025 8.448zm4.104-10.377h-.006l-3.858-8.145-18.308 8.687 3.87 8.14c2.144 4.589 6.948 11.744 14.652 8.1 8.643-4.117 5.434-13.006 3.65-16.782z"/><path d="m61.745 339.836-4.892-10.333 40.675-19.298 5.031 10.604c3.215 6.79 1.154 14.292-4.697 17.066-3.46 1.64-7.016 1.053-10.856-1.797l-.422-.321.076.53c.712 5.478-1.91 10.345-7.042 12.772-6.891 3.272-13.567-.177-17.873-9.223zm20.37 14.456h.005c4.187-1.986 7.282-5.365 8.347-10.422 0 0 3.978 1.848 9.81-.895h.013v-.012c8.542-4.067 11.587-14.753 6.96-24.38l-8.953-18.875c-.012 2.484-1.185 4.874-4.293 6.273l-37.567 17.823c-3.53 1.595-6.324 1.242-8.587-1.11l9.192 19.367c7.407 15.578 19.606 14.815 25.072 12.243v-.012zm5.642 28.123 37.548-33.432-6.065-6.821c.713 2.295.272 4.728-2.427 7.225 0 .006-.107.1-.302.27-.07.07-27.607 24.607-30.835 27.475-2.818 2.352-5.346 2.39-8.416 1.305l23.395 26.258 4.483-2.806v-.006l-.026.013-17.355-19.48"/><path d="m105.68 391.058s-4.407-4.955-7.036-7.893c3.581-3.202 23.37-20.873 26.649-23.767.012-.013.019-.013.031-.019.07-.057.145-.113.22-.183 0 0 4.534-3.366 7.453-1.582l-6.046-6.79-.038-.031-35.727 31.83 15.988 17.942.006-.006 7.565-4.69s-4.93-.259-8.889-4.615zm108.283 57.855c-.1-.012-13.371-3.17-13.371-3.17l2.395-10.062 9.381 2.212.133.038c4.438 1.21 5.39 4.495 5.39 4.495l1.759-7.401-20.855-4.962-4.646 19.519 25.583 6.058 3.555-8.24c-2.049 1.217-4.369 2.522-9.324 1.513m-14.84-21.251 21.088 4.999 1.765-7.464s-2.44 2.71-6.84 1.664l-9.79-2.326 1.853-7.824 11.801 2.799c6.406 1.538 7.95 5.012 7.95 5.012l.555-8.347-24.29-5.768z"/><path d="m195.908 407.639-9.684 40.783c-.592 2.162-2.27 5.176-6.229 5.63l36.667 8.706h.006l2.087-4.855-27.746-6.569 10.402-43.834 26.245 6.235.34-5.27-34.534-8.215c1.948 1.803 3.14 4.451 2.446 7.389m138.512 4.634 5.826 4.646-5.246 2.755zm-5.245-10.012 1.696 24.663 17.709-9.318z"/><path d="m321.112 386.967 3.102 56.48c-.063 5.372-.89 8.461-2.308 10.422l8.127-4.281-3.506-52.402 41.237 32.53 7.748-4.084c-3.202-.101-6.247-2.005-9.456-4.155z"/><path d="m331.123 429.521 1.23 18.838.157-.082 9.078-4.773c-2.13-.315-4.04-2.238-4.57-5.17l-.423-6.625 12.653-6.657 5.504 4.28c1.4 1.148 3.593 3.386 1.324 6.538l9.166-4.83.19-.094-14.86-11.67zm99.817-98.883c-11.543-6.506-19.663 1.153-23.56 4.835l-.17.164c-3.801 3.575-5.598 4.47-7.395 3.625-.416-.195-.624-.347-.914-.542-1.992-1.4-2.187-3.871-.491-6.519.372-.567 3.757-5.491 9.96-2.364l.101.05-2.452-6.815h-.07c-2.332-.056-8.195.498-12.167 6.998-3.385 5.535-1.986 11.153 3.449 14.223 5.119 2.887 8.927-.517 12.287-3.537l.17-.139 1.538-1.267c.271-.24.561-.473.839-.712 3.102-2.654 6.02-5.163 10.333-5.025.321.013 3.19.19 5.882 1.81 2.723 1.651 4.5 3.877 5.27 6.62 1.04 3.65.46 7.697-1.595 11.372-2.194 3.877-5.668 6.538-9.803 7.496-1.76.416-2.78.517-5.113.63h-.039l1.664 5.75h.032c10.73-.498 15.931-8.353 17.268-10.749.27-.473.403-.763.403-.763 2.125-3.795 3.12-7.83 2.9-11.713-.321-5.737-3.354-10.636-8.328-13.428"/><path d="m421.446 358.686c3.669-.795 6.506-2.95 8.416-6.38.082-.133.145-.265.208-.366l.095-.177c2.994-5.428 1.765-11.511-2.882-14.16-3.63-2.067-6.852-2.117-9.86-.144-2.572 1.696-5.724 4.381-5.755 4.413-5.176 4.564-9.62 7.798-15.742 4.463-2.963-1.6-4.98-4.015-5.85-6.972-.959-3.348-.348-7.18 1.77-10.774 1.117-1.904 5.372-8.114 13.252-7.931h.038l-1.86-5.145v-.044h-.012l-1.305.17c-5.434.738-11.518 5.07-14.475 10.314-2.244 4.004-3.272 7.944-3.051 11.714.284 5.062 2.648 9.318 6.827 12.356.587.423 1.217.833 1.892 1.21 9.86 5.549 16.095-.037 21.094-4.532l.391-.353c4.091-3.656 6.985-5.466 9.734-3.921 1.696.945 2.515 4.116 1.065 6.922-1.185 2.307-2.938 3.203-3.454 3.436-2.907 1.538-7.528-.442-7.566-.46l-.082-.045 2.005 6.973h.07c1.84.208 4.993-.561 5.037-.567"/></g><path d="m447.596 238.72 2.074-25.293-22.998 3.934-4.388-11.127c-.006.013-13.932 13.56-16.58 16.12a4.063 4.063 0 0 0 -.227.208c-1.293 1.204-2.692 1.91-3.915 1.91-.246 0-.48-.025-.7-.088-1.55-.39-2.597-2.194-2.263-5.863.056-.693.208-2.169.403-4.136l2.938-30.28-13.466 5.429-16.177-26.434h-.013l-16.183 26.434-13.453-5.428c.006.056 2.937 30.424 3.34 34.415.07.8.064 1.507.007 2.131-.075 1.009-.296 1.828-.624 2.427-.561.946-1.387 1.393-2.345 1.393-.22 0-.467-.05-.694-.094-.498-.095-1.002-.29-1.519-.574a7.955 7.955 0 0 1 -1.702-1.242c-.07-.063-.133-.132-.233-.208-2.66-2.572-16.58-16.12-16.58-16.12l-4.382 11.127-23.024-3.934 2.08 25.293-5.131 1.765-3.814 1.318 48.865 42.15-7.988 9.621 2.793-.227 37.076-3.026 3.524 6.765 1.116-2.163 2.39-4.602 7.155.593 8.094.65 24.625 2.01-7.994-9.62 48.872-42.151-4.477-1.545z" fill="#cf292a"/></g></svg>