<svg height="500" viewBox="0 0 500 500" width="500" xmlns="http://www.w3.org/2000/svg" xmlns:xlink="http://www.w3.org/1999/xlink"><mask id="a" fill="#fff"><path d="m.375 500h493.6125v-493.9875h-493.6125z" fill="#fff" fill-rule="evenodd"/></mask><g fill="none" fill-rule="evenodd"><path d="m0 253.00625c0-136.40625 110.5875-246.99375 247-246.99375 136.40625 0 246.9875 110.5875 246.9875 246.99375 0 136.4125-110.58125 246.99375-246.9875 246.99375-136.4125 0-247-110.58125-247-246.99375" fill="#fff" mask="url(#a)"/><path d="m246.91875 422.66875c94.225 0 170.6125-76.39375 170.6125-170.61875s-76.3875-170.61875-170.6125-170.61875c-94.23125 0-170.61875 76.39375-170.61875 170.61875s76.3875 170.61875 170.61875 170.61875zm-230.9875-170.61875c0-127.56875 103.41875-230.9875 230.9875-230.9875 127.5625 0 230.99375 103.41875 230.99375 230.9875s-103.43125 230.99375-230.99375 230.99375c-127.56875 0-230.9875-103.425-230.9875-230.99375z" fill="#1e2e53"/><g fill="#be2531"><path d="m322.03125 300.26875c-15.88125 24.68125-43.59375 41.025-75.1125 41.025-49.2875 0-89.24375-39.95625-89.24375-89.24375s39.95625-89.24375 89.24375-89.24375c32.4875 0 60.93125 17.3625 76.5375 43.325l43.9375-42.81875c-27.2625-36.91875-71.0625-60.88125-120.475-60.88125-82.63125 0-149.625 66.9875-149.625 149.61875s66.99375 149.625 149.625 149.625c48.88125 0 92.28125-23.44375 119.59375-59.7z"/><path d="m220.525 266.86875v-54.2625h26.8625v54.90625c0 19.725-4.6375 24.35625-20.2875 24.35625h-27.9625c-12.86875 0-17.0375-8.3375-17.0375-25.74375v-53.51875h26.85625v54.2625c0 7.40625 11.56875 7.40625 11.56875 0"/><path d="m257.10625 291.86875v-79.2625h42.45c15.98125 0 22.8375 3.79375 22.8375 22.3125 0 9.725-1.85625 14.81875-7.41875 17.59375 7.41875 4.16875 7.41875 12.0375 7.41875 18.9875 0 17.5875-7.7875 20.36875-22.8375 20.36875z"/></g><path d="m296.79375 234.2375c-.10625-3.25-3.15625-3.025-11.45-3.025v11.11875c4.63125 0 11.45.45625 11.45-3.70625z" fill="#fff"/><path d="m296.59375 266.48125c-1.41875-3.7875-2.21875-3.31875-11.25-3.31875v11.1125c5.79375 0 11.25.4625 11.25-3.70625 0-1.0375.28125-3.30625 0-4.0875" fill="#fff"/><path d="m376.025 291.86875c14.4625 0 21.93125-3.9375 21.93125-16.71875 0-1.56875-.09375-16.15-.075-17.76875.075-9.26875-6.6-15.2875-15.9375-15.2875h-19.34375c-5.25625 0-4.08125-7.6375-4.08125-9.95 0-3.70625 10.93125-4.8625 10.93125 1.15625v3.7h28.50625c0-18.51875-3.34375-24.39375-21.93125-24.39375-4.3125.0875-20.15.0875-25.04375.0875-11.91875 0-18.43125 4.63125-18.875 18.51875-.44375 13.89375 0 7.875 0 12.96875 0 5.0875-.7875 16.4375 14.79375 16.4375h19.6875c5.55 0 4.45 6.475 4.45 6.475v4.16875c0 4.63125-9.4 4.8625-11.5125 1.01875-1.4-2.54375-.66875-6.56875-.66875-6.56875h-26.75c0 5.55-3 26.15625 13.15625 26.15625z" fill="#be2531"/></g></svg>