<svg height="500" viewBox="0 0 500 500" width="500" xmlns="http://www.w3.org/2000/svg" xmlns:xlink="http://www.w3.org/1999/xlink"><mask id="a" fill="#fff"><path d="m4.79486378 413.411221h108.97702322v-407.5153424h-108.97702322z" fill="#fff" fill-rule="evenodd"/></mask><g fill="none" fill-rule="evenodd" transform="translate(18)"><path d="m20.8172918 155.616405c-1.5530747-3.967385 9.2088196-13.380796 18.8500639-13.794572-3.6664745 6.462212-17.2848081 17.768042-18.8500639 13.794572zm-20.36050511-91.907022c-1.73578941 15.7417549 1.23636929 26.2382865 13.43561901 31.3557259 8.9469285 3.7483267 19.3312125-4.2290373 22.3155522-8.7014725 4.9028437-7.3201899 5.5545261-15.1393453 5.5545261-15.1393453s-17.0716411 16.4171839-26.9016905 1.4360472c-5.67633589-8.6588779-2.6432723-34.4042838 30.7874225-52.5374224 33.4306949-18.12705366 50.0150968-3.3345503 50.0150968-3.3345503 20.1047042 11.348424 20.9878252 45.0042594 15.0617792 71.1330169-4.433876 19.4779115-13.6670572 40.0267735-34.6366113 43.8298645-7.8810929 1.448218-10.895885.584155-18.0643908.285993 1.5713462-3.577948 7.4425778-16.684922 9.1479147-37.6475601 4.9820201-61.4701229 11.6754677-67.3786053 17.7355044-76.5242789-45.4533204 23.0619447-32.3283163 101.642935-41.21434 114.55519-33.345428 4.904467-40.9463584 32.116345-34.32599672 36.363637 5.01247252 3.212851 27.65082062-2.920774 43.06584862-27.783863 11.1882286-.200803 46.8541329 9.577705 68.6154501-30.010953 14.732894-26.834611 19.373846-73.57308-4.232889-96.7019592-34.0580157-33.3515881-110.98089341.7301935-116.35879531 49.4219302z" fill="#1e2e53" transform="translate(0 211.963004)"/><path d="m448.680244 212.437629c-13.995944 21.126932-52.311211 35.913351-163.85852 76.445175.986659-7.040282 2.728539-19.812584 4.153714-28.319338 2.503191-4.375076 5.438807-9.182183 8.642404-13.824997l.87703-1.259584c2.521463-3.584033 5.207368-7.009857 7.954179-10.021906 2.600639 4.265547 6.589909 10.082756 14.824251 9.863698 27.608187-.711939 39.716079-52.482658 44.022055-72.678594 2.082947.438117 4.805396.815383 6.778714.736279-2.00377 6.547402-17.430979 41.529755 3.039155 47.474747 20.397048 5.951077 32.986089-50.328587 36.628201-62.601922 12.375874 14.336132 9.275815 29.438968 2.953887 32.597054-3.227959 1.600341-6.918795-3.304125-10.500003.103445-5.371811 5.087014-1.808875 13.563344 5.591069 14.847267 10.536546 1.77072 17.534518-5.476451 24.562943-12.808811 2.186485-2.269684 10.414736-7.265425 15.512476-3.717902 7.661835 5.306073 2.137761 18.114884-1.181555 23.165389zm-182.793851 42.564196c-11.316128 2.123647-7.625292-41.840087 9.074829-43.805525 3.185326-.395521 6.522914 3.529269 5.871232 9.918462-.383701 3.620543-1.315546 11.342339-3.313226 17.628088-2.131671 6.71778-5.700698 15.133261-11.632835 16.258975zm65.424035-68.51649c8.35006 4.271632-6.175756 21.759767-12.814389 28.946088.980568-16.185956 9.087009-30.862846 12.814389-28.946088zm-59.954775 106.961178s-3.885732 1.649021-5.694608 2.269685c2.527553-3.711817 7.09542-12.38895 8.08817-14.0258-.401972 2.908604-2.393562 11.756115-2.393562 11.756115zm-18.843974 52.172326c-7.399944 1.314348-3.587298-17.44554 2.156033-26.408665 7.515664-2.866009 13.868044-5.896312 13.868044-5.896312-3.904003 18.47998-7.162415 30.735061-16.024077 32.304977zm-28.911552-101.10746c-.140081 1.910673-2.277842 18.553-2.722448 20.378483-2.131671 8.531095-6.413285 14.543021-12.381965 14.311793-10.256383-.371182-5.627612-43.744676 8.995653-42.278204 2.911254.279908 6.498552 2.227091 6.10876 7.587928zm-67.147642 59.675064c-8.429237-1.636851-8.106441-24.084216-2.302205-33.887064 3.770013 6.863819 13.685329 7.587928 19.745366 6.675186.462877 9.754168-7.119782 29.21991-17.443161 27.211878zm17.138636-37.611051s-2.710267.736279-5.335268.425947c-4.238981-.492881-7.302497-2.506998-7.674017-4.265547-2.009861-9.468176 12.546408-8.135573 13.009285 3.8396zm288.853628-77.674333c-4.921115-14.03797-23.612826-11.25715-28.357317-6.80297 0-18.51649-9.348901-23.445296-19.026688-34.81806-2.149943-7.977364 4.104989-10.593891 4.98202-17.415115 1.766242-13.818912-19.940262-9.772423-13.801049 18.461726-2.582367 13.173908-16.560039 53.523184-23.838174 54.545454-4.196347.608495-4.415605-6.170135-2.265662-14.196178 2.149943-8.056469 13.758415-22.599489 6.60209-29.944019-4.147623-4.277717-11.931268 2.141901-18.862245-1.722039 0 0 .225349-5.823294-1.583527-7.995619-1.808875-2.160156-4.963748-1.350858-6.876162.109529-5.23173 4.040404-5.505802 15.115005-2.655453 20.76792-2.137762 13.776317-3.873551 19.337958-10.609632 37.903128-6.900524 19.09456-23.314393 28.203724-26.999139 16.569307 32.724199-31.48351 25.494788-43.592552 20.269148-47.882439-8.429237-6.900328-34.569616 5.604235-35.8608 45.296337-.030452 1.630766.219258 3.736157.554235 5.725934-2.582368 3.036388-7.138054 8.616284-12.844842 16.526713 2.673725-17.609833 6.437647-43.087501 7.655745-52.525252 0 0-6.529004 4.210782-13.752324 5.087014l-.968388 6.553487c-6.997972-10.526956-39.563818-.657174-38.412715 50.784958-1.62007 15.790434-10.122393 17.585494-10.341651 13.770232-1.12065-18.759888 10.548727-74.041621 14.495364-94.091517 0 0-7.704468 4.308142-13.636605 4.393331 0 0-10.049307 50.906657-10.280745 50.967506-5.243912-4.143848-8.770305-3.584033-12.82048-2.653036-12.260155 2.823415-21.803951 20.037726-22.382548 31.008884-2.149942 2.141901-4.659224 4.113423-7.180686 5.373007-1.540894-6.553487-4.543505-12.571498-11.249134-14.5917-22.236375-6.76646-40.373852 26.110502-34.508711 57.088962 0 0 2.143852 8.628453 10.493913 14.086649 15.622104 7.782646 36.025243-13.313861 36.250591-46.221248 3.014792-1.959353 5.749422-5.61032 5.749422-6.048436-1.333817 9.991481 1.680975 28.690519 12.978832 30.309115 12.046988 1.72204 18.813521-12.741877 20.689392-18.753803 1.455627 3.675307 5.164734 6.863819 9.683877 6.6691 10.299017-.425946 13.539158-13.605939 15.469843-19.204089 9.172276 14.530851 23.959984 1.1318 27.181853-7.460143l-1.078017 7.119386c-8.356151 10.034076-23.947803 35.012779-23.947803 35.012779-28.88719 10.453937-85.16331 31.221857-108.386345 65.960813 18.868336-3.730072 35.056856 1.08312 35.056856 1.08312 3.763922-10.204454 26.737247-30.668127 60.448104-41.907022-8.283065 16.757941-6.662995 41.395887 7.491302 41.122064 24.471585-.480711 32.535393-42.503347 35.946067-58.45199 21.712594-9.340392 60.551643-24.278934 101.1143-41.694049 37.700128-16.179871 91.631409-43.22137 79.413888-77.917731z" fill="#1e2e53"/><g fill="#fff"><path d="m331.919477 81.349641c8.057717-4.8862115 14.343102-12.5714981 17.388346-22.027504 3.081788-9.5533649 2.332657-19.4170622-1.333817-27.9968358-17.05337 10.3261531-23.929532 31.7269076-16.054529 50.0243398"/><path d="m298.817668 85.1831569c4.007542 1.2960934 8.155165 1.9532676 12.314969 1.9532676 5.310907 0 10.408646-1.0466107 15.110504-2.9511987-9.397625-21.4007546-1.303365-46.5620056 18.80743-58.4763296-4.841939-7.7096264-12.302788-13.8310819-21.633417-16.83704516-4.001452-1.28392357-8.142984-1.94109772-12.302788-1.94109772-5.432717 0-10.652266 1.07703541-15.4333 3.0668127 4.470419 10.33223808 5.079468 21.77802118 1.583527 32.57880008-3.459397 10.788609-10.621813 19.7091396-20.250876 25.4837532 4.835848 7.8434952 12.363693 14.0866496 21.803951 17.1230376"/><path d="m291.24719 40.6413533c2.959978-9.2004381 2.497101-18.9424364-1.212007-27.7595229-7.923726 4.8862115-14.087301 12.5167336-17.108184 21.8571254-3.045245 9.437751-2.357019 19.1858343 1.187645 27.6925886 8.136894-4.9957406 14.166478-12.6140928 17.132546-21.7901911"/></g><g fill="#d72331"><path d="m297.264593 42.5763661c3.495941-10.8007789 2.886892-22.246562-1.583527-32.57880008 4.781034-1.98977729 10.000583-3.0668127 15.4333-3.0668127 4.159804 0 8.301336.65717415 12.302788 1.94109772 9.330629 3.00596326 16.791478 9.12741876 21.633417 16.83704516-20.110795 11.914324-28.205055 37.075575-18.80743 58.4763296-4.701858 1.904588-9.799597 2.9511987-15.110504 2.9511987-4.159804 0-8.307427-.6571742-12.314969-1.9532676-9.440258-3.036388-16.968103-9.2795424-21.803951-17.1230376 9.629063-5.7746136 16.791479-14.6951442 20.250876-25.4837532zm-24.337594-7.8374103c3.020883-9.3403918 9.184458-16.9709139 17.108184-21.8571254 3.709108 8.8170865 4.171985 18.5590848 1.212007 27.7595229-2.966068 9.1760983-8.995652 16.7944505-17.132546 21.7901911-3.544664-8.5067543-4.23289-18.2548376-1.187645-27.6925886zm76.380824 24.5831812c-3.045244 9.4560059-9.330629 17.1412925-17.388346 22.027504-7.875003-18.2974322-.998841-39.6981867 16.054529-50.0243398 3.666474 8.5797736 4.415605 18.4434709 1.333817 27.9968358zm3.160964-33.4672021c-5.670245-11.0320068-15.287128-19.21017404-27.120948-23.0010953-4.616591-1.49689668-9.415896-2.25751491-14.233473-2.25751491-20.238696 0-38.010743 12.94267981-44.216951 32.20761831-7.850641 24.3580383 5.60325 50.5659 29.983478 58.4154801 4.628771 1.4847268 9.421986 2.2392601 14.251744 2.2392601 20.238696 0 38.004652-12.9365948 44.20477-32.1954484 3.806556-11.8108799 2.777263-24.382378-2.86862-35.4082999z"/><path d="m97.1128492 361.530972c-1.5348033-.857977-3.4533074-.298162-4.3120663 1.223074l-25.1841726 45.278083c-.846578 1.527321-.2984339 3.450164 1.2363693 4.295971.4872391.267738 1.0171117.401607 1.5348033.401607 1.1145595 0 2.1925761-.584155 2.7711725-1.624681l25.1780821-45.278082c.858759-1.527321.3045245-3.450164-1.2241883-4.295972"/><path d="m171.83706 233.272484 48.516837-86.771328c.852668-1.527321.298434-3.462334-1.230279-4.308142-1.534803-.851892-3.459398-.298162-4.312066 1.235244l-48.516837 86.771328c-.846578 1.533407-.298434 3.462334 1.224189 4.314227.49942.267737 1.029292.395521 1.540893.395521 1.11456 0 2.204757-.57807 2.777263-1.63685"/><path d="m261.647413 65.7235001c-1.534803-.8397226-3.459398-.2981624-4.305976 1.2413289l-32.888641 59.133504c-.846578 1.521236-.292344 3.444079 1.224188 4.302056.49942.273823 1.023202.395522 1.546984.395522 1.108469 0 2.186486-.59024 2.765083-1.624681l32.900822-59.1335033c.840487-1.5273214.280162-3.4623342-1.24246-4.3142266"/><path d="m151.695813 377.00499c-1.607889-.699769-3.47767.024339-4.171985 1.618595l-17.065551 38.907144c-.694316 1.600341.030453 3.468419 1.626161 4.174273.420244.164293.852668.273822 1.279002.273822 1.218098 0 2.381382-.718023 2.899073-1.904588l17.05946-38.894973c.706497-1.606426-.030452-3.48059-1.62616-4.174273"/><g transform="translate(164.443207 86.223683)"><path d="m85.7845394 65.7539248c.4141533.1764634.858759.2677376 1.2668217.2677376 1.2241884 0 2.3874718-.7180236 2.9051634-1.8985031l23.5458305-53.7787514c.706497-1.61251061-.024362-3.47450404-1.62616-4.18035776-1.595708-.70585372-3.477669.03042473-4.171985 1.63685043l-23.5458312 53.77875133c-.7064967 1.5881709.0365429 3.4623342 1.6261606 4.1742729" mask="url(#a)"/><path d="m42.6273334 298.509188c-1.668794-.523305-3.4472168.401607-3.9649084 2.081052l-33.7291288 109.084824c-.5055106 1.667275.41415326 3.444079 2.09512826 3.9613.31670543.091274.62122989.139953.94402581.139953 1.33990761 0 2.59454833-.882317 3.02088263-2.233175l33.7230383-109.078739c.5176916-1.67336-.4202438-3.437994-2.0890378-3.955215" mask="url(#a)"/></g><path d="m218.758189 346.933187c-1.668794-.511135-3.447217.413777-3.958818 2.081052l-6.005223 19.392722c-.511601 1.667275.420244 3.44408 2.101219 3.955215.310615.103444.62732.152124.937935.152124 1.352089 0 2.60673-.882318 3.014793-2.233176l5.999131-19.386637c.517692-1.67336-.414153-3.450164-2.089037-3.9613"/><path d="m294.627412 101.582086c-1.674885-.511136-3.453308.419861-3.97709 2.093221l-24.971005 80.771571c-.517692 1.673361.420244 3.450165 2.082947 3.9613.322796.109529.645592.133869.944026.133869 1.352089 0 2.606729-.851892 3.020883-2.221005l24.989276-80.777656c.511602-1.67336-.426334-3.450165-2.089037-3.9613"/><path d="m255.50211 377.370086c-1.717518-.377266-3.410674.687599-3.782194 2.385299l-9.385444 41.925277c-.37761 1.70987.694316 3.3954 2.405743 3.784836.231439.054765.468968.079105.694316.079105 1.455627 0 2.765082-1.004016 3.081787-2.488743l9.385444-41.919192c.377611-1.703785-.700406-3.401485-2.399652-3.766582"/><path d="m301.856822 316.989169c-1.717518-.310332-3.380221.815383-3.709108 2.537422l-11.809458 61.098941c-.316705 1.72204.803945 3.364975 2.527553 3.693563.24362.042594.475058.060849.700406.048679 1.455627-.048679 2.728539-1.09529 3.002611-2.580017l11.809459-61.105026c.322796-1.70987-.810035-3.364975-2.521463-3.693562"/><path d="m316.735887 103.511014c-1.711427-.383352-3.404583.693684-3.788284 2.391383l-14.714622 65.82086c-.383701 1.703784.694316 3.401484 2.399653 3.772666.237529.054765.462877.073019.688225.073019 1.449537 0 2.758992-.991846 3.100059-2.458318l14.714622-65.820859c.37152-1.70987-.694316-3.40757-2.399653-3.778751"/><path d="m343.095524 88.4872825c-1.723608-.3285871-3.374131.8275526-3.684746 2.5374224l-12.095711 65.9060481c-.310615 1.70987.822216 3.37106 2.545824 3.681393.188805.030424.383701.054764.578597.054764 1.486079 0 2.819896-1.07095 3.106149-2.592187l12.089621-65.8999634c.316706-1.7220396-.816125-3.3771449-2.539734-3.6874771"/></g></g></svg>