<svg viewBox="0 0 500 500" xmlns="http://www.w3.org/2000/svg" xmlns:xlink="http://www.w3.org/1999/xlink"><clipPath id="a"><path d="m0 0h500v421.283h-500z" transform="translate(0 39)"/></clipPath><g clip-path="url(#a)"><path d="m223.417 436.299 46.967 23.984 26.587-11.214c15.487 5.243 32.082 8.085 49.343 8.085 84.879 0 153.686-68.746 153.686-153.549 0-44.169-18.667-83.983-48.548-111.996l1.582-34.775s0-15.641-11.482-18.77l-277.626-99.064-33.399 6.257s-1.044 22.941 15.656 40.668l-110.633-39.625-35.486 6.256s-3.131 37.54 34.442 59.439c0 0-5.218 32.326 30.268 53.182 0 0-4.175 30.24 25.049 46.925 0 0-5.219 23.983 29.224 46.925l42.792 126.176 45.923 22.94 22.961-7.299z" fill="#00385d"/><path d="m243.248 377.903-9.393 54.224 34.442 16.685 34.442-152.246-58.447-23.983-6.263 21.898 19.831 17.727-5.219 28.156s-2.087 7.299-10.437 8.341l-39.661 8.343-31.311-88.637 58.448-86.55 85.583 33.369 1.045-30.241s2.086-8.342-8.35-12.513l-91.847-33.369-87.671 122.005 40.704 117.834 38.618 19.813z" fill="#e50022"/><path d="m328.31 284.575-18.787 5.213-56.36-23.983 16.699-5.214zm-124.201-19.813-22.962 7.299 28.181 75.081 20.874-5.215zm140.9-154.332-16.699 5.215-181.605-65.696 18.786-4.17zm12.525 4.172-16.699 4.171 78.278 29.198s4.175 0 8.349 6.256l16.178-5.735s0-4.171-12.525-7.299zm-35.486 6.256-15.655 21.899-97.065-34.412s-13.569-11.47-14.613-33.37zm-134.638-49.01s1.044 17.727 8.349 31.283l-30.267-10.427s-24.005-17.728-26.093-37.54zm135.682 100.107s-3.131-6.257-15.656-9.386l-79.322-29.197 17.744-5.214 86.627 31.283s7.306 2.086 8.35 6.257zm-90.803-47.968-18.787 5.214-197.26-70.91 21.917-4.17zm-24.006 10.427-24.004 32.327-68.886-27.113s-45.923-14.598-45.923-54.224z" fill="#fff"/><path d="m61.121 82.275-53.229-19.813s-2.087 37.54 69.928 62.567c0 0-14.09-13.035-16.699-42.754m118.982 91.765-17.742 23.983-34.443-12.512s-34.442-13.556-35.486-45.883zm-96.021-37.54s-2.087 16.685 12.525 35.455c0 0-51.142-11.471-55.317-55.268 0 0 29.746 15.121 42.792 19.813m73.06 68.823-15.656 20.856s-26.092-11.471-28.18-39.626zm-50.62-20.334s-3.131 14.599 12.525 33.369c0 0-44.88-12.513-46.967-47.968zm16.178 67.26 14.612-17.728s-30.268-12.513-39.661-17.727c0 0 .521 23.463 25.049 35.455z" fill="#fff"/><path d="m422.244 169.869c2.087-11.47-6.263-14.599-6.263-14.599l-86.627-32.325-15.134 22.419 16.7 5.214s45.923-5.214 88.714 17.727z" fill="#e50022"/><path d="m343.964 159.105c-.676-.391 1.566-.019 2.35-.019 79.887 0 144.648 64.704 144.648 144.519 0 79.817-64.761 144.52-144.648 144.52-15.671 0-30.759-2.49-44.892-7.095l38.891-160.105-69.929-28.155-33.398 10.428-8.35 33.368 19.83 18.771-3.131 19.812s-1.043 5.214-7.306 5.214l-27.136-79.251 40.704-61.524 66.798 27.113 30.267-11.471 2.088-45.882s-1.046-6.93-6.786-10.243z" fill="#fff"/><path d="m457.208 374.775c4.175 2.085 1.043 10.428 1.043 10.428h2.088c3.132-3.129 1.044-10.428 1.044-10.428 2.088 0 10.437-11.471 10.437-11.471h-4.175c-2.088 5.214-10.437 11.471-10.437 11.471zm1.565-10.949h-3.131s-2.087 8.342-8.35 11.471c0 0 4.697 4.692 1.566 10.949l2.609.521s3.131-10.428-1.043-11.47c0 0 7.306-4.172 8.349-11.471zm-15.595.786s-1.883 9.406-7.532 13.169c0 0 6.59 4.703 3.295 10.817l2.825-.94s.706-9.172-2.589-10.112c0 0 6.589-7.055 7.061-12.699zm-10.357 3.292h-3.295c-.47 8.466-5.177 13.639-5.177 13.639 4.236 1.412 5.177 10.348 5.177 10.348h2.354c1.413-4.703-4.237-10.818-4.237-10.818 1.883-1.411 5.178-13.169 5.178-13.169zm-16.946 18.343s5.649-12.229 3.295-14.11l-3.295.941s-.471 12.228-3.766 14.58c0 0 9.885 5.173 7.061 9.406l3.295-1.411s-1.177-5.409-6.59-9.406zm-12.475 6.82s4.707-10.348 3.06-15.286l-3.766 1.881s-.471 12.699-2.825 14.58c0 0 9.886 3.762 8.944 8.466l2.59-1.176s-1.884-7.055-8.003-8.465m-11.768 6.114s4.707-10.347 3.059-15.286l-3.765 1.882s-.471 12.698-2.825 14.579c0 0 9.886 3.763 8.944 8.466l2.59-1.176s-1.884-7.054-8.003-8.465m-11.063 5.879c1.883-3.762.471-14.11.471-14.11l-3.766 1.881c2.354 5.174-.941 13.64-.941 13.64 4.001 1.175 10.591 7.76 10.591 7.76l3.531-1.646c-1.412-4.233-9.886-7.525-9.886-7.525zm-12.004 4.938s.942-12.228-.471-12.699l-3.059 1.646s2.354 6.115-.472 12.699c0 0 9.887 3.292 11.769 8.466l2.354-1.411s-5.413-7.76-10.121-8.701zm-12.239 6.114s2.354-11.287 0-14.11l-3.059 1.647s2.824 9.877-.942 13.639c0 0 9.415 2.351 12.239 7.996l3.531-1.646s-6.59-7.996-11.769-7.526zm-9.886 4.233s.942-12.228-.47-12.699l-3.06 1.647s2.353 6.114-.471 12.698c0 0 9.886 3.292 11.769 8.466l2.353-1.411s-5.413-7.76-10.121-8.701zm-11.062 4.939c1.883-4.704-1.412-13.64-1.412-13.64l-2.824 1.882c3.295 1.881.941 12.698.941 12.698 3.295.941 11.298 7.996 11.298 7.996l2.824-.941c-1.412-5.173-10.827-7.995-10.827-7.995zm-10.356 2.821c.471-3.762-.942-13.169-.942-13.169l-3.295 1.882c2.825 1.411 1.412 12.228 1.412 12.228 2.825.47 10.827 7.525 10.827 7.525l2.354-.94c-2.354-3.763-10.356-7.526-10.356-7.526zm-10.357 2.352c1.883-2.822-.941-12.699-.941-12.699l-3.295 1.882c3.295 2.822.941 11.758.941 11.758 3.295 0 10.827 7.525 10.827 7.525l2.825-.941c-1.883-4.233-10.357-7.525-10.357-7.525zm153.462-188.129s-.471 12.699 1.883 15.05l2.353-1.411s-3.06-9.171-2.353-16.461c0 0-5.179.471-8.002-4.703l-1.884 1.881s3.295 7.055 8.003 5.644zm-6.59 9.877s-1.412 13.169-.471 15.051l2.825-1.882s-.707-11.993 0-16.461c0 0-7.533-.471-9.415-6.114l-1.883 2.351s6.119 6.585 8.944 7.055zm-9.415 7.525s-3.296 10.818-1.412 14.11l3.294-1.411s-1.177-7.29 1.413-15.05c0 0-8.003-2.352-9.886-8.466l-2.824 1.882s5.649 7.525 9.415 8.935m-14.122 18.343 3.295-.471c-.941-5.643 3.766-15.049 3.766-15.049-8.238-1.176-9.886-10.348-9.886-10.348l-3.765 1.411c.47 6.114 9.414 10.817 9.414 10.817-2.353 5.175-2.824 13.64-2.824 13.64zm-14.829-23.516h-4.472c-.47 7.055 8.944 12.699 8.944 12.699-4.707 2.352-4.707 12.698-4.707 12.698h4.237c-.942-5.173 5.648-14.11 5.648-14.11-8.238-.705-9.65-11.287-9.65-11.287zm-16.711 25.867h4.707c-.47-5.173 7.061-12.698 7.061-12.698-6.355-3.528-8.472-13.169-8.472-13.169h-2.825c-2.354 3.292 7.061 13.169 7.061 13.169-3.295 1.411-7.532 12.698-7.532 12.698zm-15.299-1.175h4.236s3.767-9.407 8.238-11.523c0 0-7.061-6.585-6.59-14.58l-4.707-.941s2.353 11.758 6.119 15.051c0 0-7.767 7.76-7.296 11.993zm-17.182-2.587 4.707.47s2.589-9.172 9.886-11.287c0 0-7.061-9.407-5.649-15.522l-4.708-.94s2.354 13.169 5.178 15.521c0 0-8.472 7.055-9.414 11.758zm-.942-13.639s-7.061-7.525-5.178-16.932l-5.178-1.411s1.412 15.05 5.178 16.932c0 0-9.415 6.114-9.885 11.287l4.472.706s2.824-7.996 10.591-10.582zm-30.127 4.233 4.236 1.41s5.885-9.171 10.357-9.406c0 0-5.649-11.288-4.236-17.872l-4.238-.941s.471 12.228 3.766 16.461c0 0-8.002 4.703-9.885 10.348zm-15.064-5.174 4.472 1.647s5.178-8.937 11.062-9.643c0 0-4.707-8.465-3.765-17.402l-3.766-1.411s-.471 13.64 2.354 16.462c0 0-7.532 4.233-10.357 10.347zm-14.593-5.174 3.766 1.882s4.943-9.172 11.298-10.348c0 0-4.707-10.817-2.824-16.461l-4.237-1.411s.941 14.11 2.824 15.991c0 0-8.944 4.703-10.827 10.347m-1.882-29.159-4.237-.941s0 12.699 2.354 15.05c0 0-8.474 4.703-10.357 10.817l3.766.941s4.472-9.171 11.298-9.877c0 0-4.707-13.169-2.824-15.99m-14.123-3.763-4.237-.471s-1.412 10.818 1.883 14.11c0 0-9.885 7.525-9.885 11.758l4.001.705s5.178-10.347 11.062-11.052c0 0-4.707-6.585-2.824-15.05m-13.651-2.822h-4.708s-1.412 10.817 1.883 13.169c0 0-9.885 7.055-11.297 12.228l4.236.471s6.355-9.642 11.769-11.288c0 0-4.237-10.817-1.883-14.58m-13.181-.47-4.237-.471s-1.412 9.877.941 12.699c0 0-8.473 6.585-10.355 12.699l3.53.235s5.178-10.817 11.063-11.993c0 0-4.238-7.996-.942-13.169m-12.24-.471h-3.765s-1.884 10.347 0 13.169c0 0-8.003 6.114-8.945 11.288h3.061s4.236-9.172 9.649-11.288c0 0-3.295-8.466 0-13.169m-11.297 1.411h-3.766s-1.883 9.877.471 12.699c0 0-6.591 6.114-8.003 11.288h3.06s3.766-9.172 8.238-11.758c0 0-3.766-7.526 0-12.229" fill="#e50022"/></g></svg>