<svg viewBox="0 0 500 500" xmlns="http://www.w3.org/2000/svg"><g fill="none" fill-rule="evenodd"><path d="m249.97 16.857c-96.547.718-219.918 57.604-249.911 215.568l-.058.32 249.969 249.915 249.645-249.686c-30.046-172.356-176.443-216.677-249.645-216.117" fill="#fff"/><path d="m250.064 28.862c68.281-.525 204.873 40.833 233.053 201.13-.046 0-233.117 233.108-233.117 233.108 0-.122-232.325-232.396-233.083-233.154 28-147.348 143.086-200.419 233.147-201.084" fill="#b02534"/><path d="m250.04 50.492c-118.117 1.08-195.75 90.905-208.825 174.88l-.21 1.36 209.059 208.374 208.039-208.374-.216-1.348c-12.75-83.987-89.909-173.819-207.794-174.892h-.052" fill="#fff"/><path d="m250.064 55.9c114.282 1.055 189.221 87.597 202.233 168.994-2 2-198.514 198.843-202.233 202.565-3.737-3.722-201.236-200.552-203.247-202.565 13.326-81.391 88.726-167.939 203.247-168.994" fill="#253666"/><g fill="#fff"><path d="m130.127 154.901-2.07.14v28.875l2.63-.508c9.805-1.872 15.343-8.236 14.451-16.607-.938-8.493-5.987-12.49-15.011-11.9m220.158 54.302c0-.315-.023-.619-.046-.899 0 0-.537-1.411-.537-1.458-.944-.607-2.483-.712-4.203-.28-3.008.758-5.852 2.852-7.217 5.332l-.058.07c-3.037 3.622-4.483 8.19-4.086 10.348.093.53.297.88.705 1.131l1.819.613c2.891-.04 7.508-2.695 10.283-5.915 2.256-2.648 3.34-6.358 3.34-8.942"/><path d="m407.357 233.51c-.636 4.876-4.798 12.961-12.038 15.668-4.536 1.691-12.01 1.86-21.972-7.467.192-.344 4.821-8.33 8.255-9.286 3.614 3.657 6.85 5.08 9.135 4.001 1.836-.869 2.926-3.325 2.926-6.445 0-.484-.023-.992-.082-1.505-.495-4.772-3.579-10.85-10.464-12.71-.717 2.63-7.374 25.91-24.367 32.91-9.024 3.716-19.424 2.06-30.85-4.637-.426 1.073-1.97 2.403-3.83 3.447-6.75 3.774-16.66 4.731-24.478-3.482-1.242.95-18.387 13.568-32.686-.98-1.015.91-8.482 7.344-17.326 6.982-4.372-.18-8.26-2.135-11.636-5.658-.845.863-5.9 5.763-12.988 5.845-4.401.052-8.575-1.931-12.423-5.74-2.815 4.083-11.385 6.44-17.82 4.748-4.886-1.283-7.614-4.626-7.69-9.415l.012-24.534c-.997-4.521-4.372-4.183-5.375-3.967-2.28.478-4.168 2.322-3.859 3.873v26.343c.146 2.934-1.154 5.326-3.661 6.738-2.938 1.65-6.978 1.54-9.613-.257-2.157-1.476-3.125-3.862-2.728-6.667v-73.826c-.408-3.412.921-6.37 3.65-8.114 2.803-1.796 6.458-1.907 9.1-.28 2.302 1.412 3.52 3.908 3.52 7.088 0 .437-.023.892-.07 1.359v29.277c2-1.161 9.427-5.023 15.7-2.065 4.365 2.059 7.053 7.011 7.991 14.787v21.11c.251 3.022 3.143 4.533 5.87 4.463 2.473-.064 5.003-1.458 5.096-4.422v-19.588c-.263-3.745 1.043-6.801 3.573-8.382 2.122-1.33 4.78-1.388 6.926-.146 2.582 1.493 3.987 4.556 3.859 8.394v18.223c-.163 2.123.635 3.856 2.233 4.888 1.632 1.05 3.76 1.132 5.421.21 1.772-.974 2.723-2.905 2.693-5.436v-48.93c-.239-6.177.875-10.482 3.393-13.153 1.947-2.054 4.722-3.086 8.482-3.15 4.297-.117 7.748 1.592 9.98 4.946 2.07 3.092 3.078 7.426 3.078 12.734 0 9.625-3.328 22.435-9.752 36.802-.572 3.04-.8 5.29-.8 7.04 0 3.21.77 4.702 1.563 6.248 0 0 .327.648.332.706 2.46 2.112 5.195 2.864 7.48 2.06 1.982-.695 4.593-2.853 5.76-9.089l.005-46.147c-.443-5.588.53-9.689 2.868-12.174 2.7-2.87 6.745-3.19 10.348-3.126 3.317.099 6.325 2.158 8.47 5.798.822 1.388 1.457 3.127 2.005 5.017.81 2.8 1.242 6.13 1.207 9.957-.07 8.756-2.623 20.014-9.531 33.436-2.623 9.707.221 14.128 2.145 15.901 2.262 2.089 5.579 2.684 8.64 1.575 3.346-1.213 5.63-4.141 6.115-7.781l.006-16.922c-.403-4.626 3.282-8.074 6.983-8.4 3.236-.28 6.89 1.756 7.474 8.359l-.03 21.186c.904 2.176 2.822 3.383 4.658 2.928 1.778-.437 3.702-2.671 3.282-7.589 1.895-26.99 16.574-31.19 21.016-31.837 8.179-1.179 16.008 3.085 18.649 10.144 3.41 9.152-2.88 19.967-16.638 28.682-.046.175-.07.408.245.653 1.41 1.143 6.902.927 12.61-2.024 5.934-3.074 15.716-10.996 14.742-29.966l9.986-7.122.257.408s1.416 2.375 1.416 2.433l2.845 2.076c10.779 7.846 21.01 15.301 21.01 28.823 0 1.324-.094 2.706-.303 4.153zm-92.55 21.064c4.232-.205 8.22-1.43 11.426-3.22 1.142-.636 1.731-1.342 2.582-2.013 5.393 2.777 10.604 4.52 15.606 5.233zm62.807 4.835c4.396-.105 14.294 1.43 11.438 13.178-3.37 7.665-15.005 10.418-22.269-1.325h-253.562c-6.838-.204-8.068-10.838-.099-11.853zm-68.584-5.255c1.137.227 2.28.367 3.404.42h-3.311c-.03-.135-.058-.28-.093-.42zm-151.656-74.864c-5.34 10.966-17.104 16.199-29.725 20.544v33.617c0 4.626-2.087 8.931-5.882 12.116-3.934 3.313-9.234 4.865-13.827 4.054-3.44-.6-5.853-2.52-6.81-5.401-.32-.969-.465-2.007-.465-3.104 0-4.824 3.008-10.762 8.44-16.35v-66.377c-5.17 2.421-8.977 7.298-8.977 10.331 0 .233.024.45.064.653.368 1.733 2.291 2.054 3.836 2.013l.525-.012-.082.53c-.064.386-1.62 9.58-7.77 12.892-3.032 1.64-6.635 1.535-10.715-.297-3.463-1.552-5.783-4.748-6.547-9.012-1.376-7.759 2.542-17.033 10.493-24.82 12.476-12.169 37.414-15.826 54.466-7.987 2.22 1.027 4.168 2.246 5.952 3.576 4.617 3.442 7.73 7.84 9.135 12.997.728 2.66 1.043 5.5.85 8.522-.28 4.468-1.363 8.219-2.96 11.515zm32.372-.455s6.634-32.491 6.838-33.518h27.492v6.4c-12.93.466-24.047 13.736-25.429 30.793l-.314 9.963c-.857-.66-1.755-1.266-2.746-1.733-4.547-2.146-9.298-1.615-13.157-.501v-11.422zm43.226.058h1.457c.17 0 .315.105.38.257a.414.414 0 0 1 -.118.437s-.74.654-1.748 1.534c-2.425 2.118-6.53 5.688-6.64 5.577.006.023 3.684 11.958 3.684 11.958a.259.259 0 0 1 .018.117c0 .122-.059.25-.17.327a.393.393 0 0 1 -.46-.018s-8.902-6.89-8.913-7.233l-9.34 7.233a.412.412 0 0 1 -.472.018.426.426 0 0 1 -.151-.444s3.573-11.561 3.795-11.567c-.012-.018-8.5-7.502-8.5-7.502a.41.41 0 0 1 -.128-.297c0-.047 0-.094.024-.14a.386.386 0 0 1 .367-.257l9.467.263 4.349-12.408a.383.383 0 0 1 .367-.262.41.41 0 0 1 .379.262s3.999 11.41 3.999 12.116c0 .017-.006.03-.006.03h8.36zm44.106-33.576h27.492a3496 3496 0 0 0 2.384 11.719c-1.177 2.922-4.955 12.32-6.43 15.983-3.94-12.226-13.064-20.924-23.446-21.303zm45.132 34.27s-8.237 7.269-8.388 7.111c0 .023 3.678 11.958 3.678 11.958a.261.261 0 0 1 .023.117.4.4 0 0 1 -.169.327.403.403 0 0 1 -.466-.018s-8.896-6.89-8.902-7.233c-.035.023-9.344 7.233-9.344 7.233a.404.404 0 0 1 -.467.018.393.393 0 0 1 -.163-.327c0-.041 0-.082.012-.117 0 0 3.561-11.561 3.8-11.567-.023-.018-8.517-7.502-8.517-7.502a.41.41 0 0 1 -.128-.297c0-.047 0-.094.024-.14a.403.403 0 0 1 .367-.257l9.473.263 4.349-12.408a.389.389 0 0 1 .367-.262.41.41 0 0 1 .379.262s3.993 11.41 3.993 12.116c0 .017-.006.03-.006.03h9.829a.39.39 0 0 1 .361.256.41.41 0 0 1 -.105.437zm-.64 28.46c-1.482 3.349-2.717 7.321-3.522 12.081v-9.566c-.227-2.602-.84-4.73-1.708-6.493 2.046 1.552 3.952 3.005 5.23 3.979zm67.674-11.1s-1.218-.898-2.04-1.487c-.455-.765-3.737-6.242-3.737-6.242l-16.095 11.491.163 2.695c.064.893.087 1.768.087 2.625 0 6.324-1.573 11.679-4.506 15.896 2.443-4.398 3.34-8.417 3.34-11.585 0-2.951-.647-5.22-1.119-6.498-3.352-8.995-13.21-14.455-23.429-12.973-3.561.507-12.498 3.045-18.637 13.825a9540.36 9540.36 0 0 1 -4.104-17.01c.35-.35 5.381-5.437 8.815-8.896l22.822-.058v-32.491h-7.56v-50.23c-.094-.344-7.55-12.402-7.55-12.402l-.192-.315-23.039-.105c-.239.041-17.803 6.685-17.803 6.685l-45.103-.04h-43.302c0-.047-17.325-6.604-17.325-6.604-.24-.04-22.91.064-22.91.064h-.374l-7.642 12.373s-.1 49.273-.105 50.574h-.944c-2.857-3.01-6.442-5.571-10.727-7.543-18.847-8.674-45.476-4.707-59.356 8.832-8.995 8.802-13.39 19.541-11.74 28.729 1.002 5.652 4.301 10.12 9.058 12.25 6.489 2.904 11.397 1.697 14.382.169 2.046-1.056 3.719-2.538 5.124-4.171v38.797c-4.973 5.81-7.934 11.783-7.934 17.143 0 1.634.239 3.203.734 4.696 1.54 4.673 5.434 7.881 10.68 8.803 5.841 1.038 12.236-.8 17.116-4.894 4.733-3.979 7.444-9.66 7.444-15.599v-30.291c9.916-3.762 19.377-8.347 25.638-15.895v54.045c-.04.396-.093.805-.093 1.201 0 3.769 1.679 7.035 4.751 9.13 4.01 2.747 9.875 2.928 14.27.472 3.807-2.14 5.941-5.81 5.941-10.15 0-.227-.012-.455-.023-.688l.006-25.456c.116-.053.192-.105.291-.129.03.094.04.105.076.204v23.893c.093 6.388 3.737 11.218 9.759 13.283-.105.49-.222 1.009-.327 1.499h-79.212l-.303.046c-5.8.741-9.735 5.07-9.735 10.617 0 .192.006.385.023.577.268 5.694 4.693 10.115 10.278 10.284h71.359c-6.937 12.869-13.606 19.583-18.754 24.675-6.179 6.12-10.423 10.325-10.423 20.696 0 .881.03 1.803.093 2.777l.035.612h82.797c.129-3.505-.332-6.194-.763-8.551 0 0-.59-6.107-.59-6.13.187-2.124-.774-3.454-1.987-5.128-1.06-1.482-2.268-3.15-2.699-5.571l-1.236-1.797s-1.737-3.412-1.731-3.465c.116-1.178-.408-1.965-1.335-3.255 0 0-2.011-3.949-2.017-4.019-.484-2.788.169-4.579.728-6.16.508-1.4.927-2.607.6-4.555l-.005-.129h2.915c.076.514.134 1.015.134 1.459 0 1.732-.466 3.027-.898 4.217-.385 1.073-.729 2.036-.729 3.302 0 .396.041.828.117 1.3l1.533 2.876c.898 1.249 1.895 2.649 1.895 4.62 0 .181-.006.374-.024.572l.927 1.207s2.017 3.401 2.012 3.36c.314 1.721 1.218 2.981 2.186 4.323 1.311 1.82 2.798 3.89 2.53 7.07l.553 5.372c.455 2.485.933 5.326.805 9.082h.233v3.932c-.84.648-5.41 4.41-5.83 10.377-.017.28-.034.56-.034.846 0 4.025 2.04 8.044 6.068 11.947l-.204 9.03v.659h18.474v-10.168c3.836-3.453 5.864-7.443 5.864-11.468 0-.286-.011-.56-.034-.846-.414-5.967-4.99-9.73-5.83-10.377v-3.932h85.95l.036-.612c.07-.98.087-1.902.087-2.783 0-10.365-4.238-14.57-10.417-20.69-5.13-5.087-11.793-11.789-18.73-24.675h47.703c4.18 5.379 9.67 8.324 15.57 7.916 5.911-.408 11.065-4.042 13.466-9.473l.17-.39.099-.415c1.679-6.907-.269-11.217-2.204-13.609-4.186-5.203-11.21-5.606-14.05-5.547h-23.667c2.262-.345 4.471-.916 6.616-1.803 4.005-1.645 7.34-4.17 10.348-6.97 11.373 9.968 20.45 9.63 26.081 7.53 8.441-3.15 13.974-12.267 14.883-19.244a34.7 34.7 0 0 0 .344-4.73c0-15.774-12.079-24.57-22.852-32.41z"/><path d="m249.68 174.594c-.537-.332-1.143-.362-1.732-.105l-.262.123v29.107l.513-.081c2.401-.374 3.888-6.23 4.64-18.427-.14-3.302-.997-9.287-3.16-10.617m29.509 0c-.536-.332-1.136-.362-1.731-.105l-.262.123v29.107l.513-.081c2.378-.368 3.905-6.411 4.64-18.462-.128-3.267-.997-9.246-3.16-10.582"/></g><path d="m113.221 271.262h253.562c7.264 11.743 18.9 8.99 22.269 1.325 2.856-11.749-7.042-13.283-11.438-13.178h-264.492c-7.969 1.015-6.739 11.65.1 11.853m17.465-87.854-2.63.508v-28.876l2.07-.14c9.024-.59 14.073 3.407 15.011 11.9.892 8.37-4.646 14.735-14.451 16.607zm19.663-37.152c-1.784-1.33-3.731-2.549-5.952-3.576-17.052-7.84-41.99-4.182-54.466 7.986-7.951 7.788-11.869 17.062-10.493 24.82.764 4.265 3.084 7.461 6.547 9.013 4.08 1.832 7.683 1.937 10.714.297 6.15-3.313 7.707-12.506 7.771-12.891l.082-.53-.525.01c-1.545.042-3.468-.28-3.836-2.012a3.31 3.31 0 0 1 -.064-.653c0-3.033 3.807-7.91 8.978-10.33v66.376c-5.433 5.588-8.441 11.526-8.441 16.35 0 1.097.145 2.135.466 3.104.956 2.881 3.37 4.8 6.809 5.401 4.593.811 9.893-.74 13.827-4.054 3.795-3.185 5.882-7.49 5.882-12.116v-33.617c12.621-4.345 24.385-9.578 29.725-20.544 1.598-3.296 2.682-7.047 2.962-11.515a25.837 25.837 0 0 0 -.851-8.522c-1.405-5.157-4.518-9.555-9.135-12.997zm184.493 77.191c-.408-.25-.612-.6-.705-1.131-.397-2.159 1.049-6.726 4.086-10.348l.058-.07c1.365-2.48 4.21-4.574 7.217-5.332 1.72-.432 3.26-.327 4.203.28 0 .047.537 1.458.537 1.458.023.28.046.584.046.899 0 2.584-1.084 6.294-3.34 8.942-2.775 3.22-7.392 5.874-10.283 5.915zm-57.135-19.81-.513.082v-29.107l.262-.123c.595-.257 1.195-.227 1.731.105 2.163 1.336 3.032 7.315 3.16 10.582-.735 12.051-2.262 18.094-4.64 18.462zm-29.51 0-.512.082v-29.107l.262-.123c.589-.257 1.195-.227 1.731.105 2.163 1.33 3.02 7.315 3.16 10.617-.752 12.197-2.239 18.053-4.64 18.427zm138.452-3.103-2.845-2.076c0-.058-1.416-2.433-1.416-2.433l-.257-.408-9.986 7.122c.974 18.97-8.808 26.892-14.743 29.966-5.707 2.951-11.198 3.167-12.609 2.024-.315-.245-.291-.478-.245-.653 13.758-8.715 20.048-19.53 16.638-28.682-2.641-7.059-10.47-11.323-18.649-10.144-4.442.647-19.12 4.847-21.016 31.837.42 4.918-1.504 7.152-3.282 7.59-1.836.454-3.754-.753-4.657-2.929l.029-21.186c-.583-6.603-4.238-8.64-7.474-8.36-3.701.327-7.386 3.775-6.983 8.4l-.006 16.923c-.484 3.64-2.77 6.568-6.115 7.781-3.061 1.109-6.378.514-8.64-1.575-1.924-1.773-4.768-6.194-2.145-15.901 6.908-13.422 9.461-24.68 9.531-33.436.035-3.827-.396-7.157-1.207-9.957-.548-1.89-1.183-3.629-2.005-5.017-2.145-3.64-5.153-5.7-8.47-5.798-3.603-.064-7.649.256-10.348 3.126-2.337 2.485-3.31 6.586-2.868 12.174l-.006 46.147c-1.166 6.236-3.777 8.394-5.76 9.088-2.284.805-5.018.053-7.479-2.059-.005-.058-.332-.706-.332-.706-.793-1.546-1.562-3.039-1.562-6.247 0-1.75.227-4.002.799-7.04 6.424-14.368 9.752-27.178 9.752-36.803 0-5.308-1.008-9.642-3.078-12.734-2.232-3.354-5.683-5.063-9.98-4.946-3.76.064-6.535 1.096-8.482 3.15-2.518 2.671-3.632 6.976-3.393 13.154v48.929c.03 2.531-.92 4.462-2.693 5.436-1.661.922-3.789.84-5.421-.21-1.598-1.032-2.396-2.765-2.233-4.888v-18.223c.128-3.838-1.277-6.9-3.86-8.394-2.144-1.242-4.803-1.184-6.925.146-2.53 1.58-3.836 4.637-3.573 8.382v19.588c-.093 2.964-2.623 4.358-5.095 4.422-2.728.07-5.62-1.44-5.87-4.463v-21.11c-.94-7.776-3.627-12.728-7.993-14.787-6.272-2.958-13.7.904-15.699 2.065v-29.277a13.7 13.7 0 0 0 .07-1.36c0-3.179-1.218-5.675-3.52-7.087-2.642-1.627-6.297-1.516-9.1.28-2.729 1.744-4.058 4.702-3.65 8.114v73.826c-.397 2.805.571 5.191 2.728 6.667 2.635 1.797 6.675 1.908 9.613.257 2.507-1.412 3.807-3.804 3.661-6.738v-26.343c-.309-1.551 1.58-3.395 3.86-3.873 1.002-.216 4.377-.554 5.374 3.967l-.012 24.534c.076 4.79 2.804 8.132 7.69 9.415 6.435 1.692 15.005-.665 17.82-4.748 3.848 3.809 8.022 5.792 12.423 5.74 7.089-.082 12.143-4.982 12.988-5.845 3.376 3.523 7.264 5.477 11.636 5.658 8.844.362 16.311-6.072 17.326-6.982 14.3 14.548 31.444 1.93 32.686.98 7.817 8.213 17.727 7.256 24.478 3.482 1.86-1.044 3.404-2.374 3.83-3.447 11.426 6.696 21.826 8.353 30.85 4.637 16.993-7 23.65-30.28 24.367-32.91 6.885 1.86 9.969 7.938 10.464 12.71.059.513.082 1.02.082 1.505 0 3.12-1.09 5.576-2.926 6.445-2.286 1.08-5.521-.344-9.135-4.001-3.434.956-8.063 8.942-8.255 9.286 9.963 9.328 17.436 9.158 21.972 7.467 7.24-2.707 11.402-10.792 12.038-15.668.21-1.447.303-2.83.303-4.153 0-13.522-10.231-20.977-21.01-28.823z" fill="#b02534"/><path d="m220.619 166.748a.41.41 0 0 0 -.379-.262.383.383 0 0 0 -.367.262l-4.35 12.408-9.466-.263a.386.386 0 0 0 -.367.257c-.024.046-.024.093-.024.14 0 .11.047.221.128.297 0 0 8.488 7.484 8.5 7.502-.222.006-3.795 11.567-3.795 11.567a.426.426 0 0 0 .152.443.412.412 0 0 0 .472-.017l9.339-7.233c.011.344 8.913 7.233 8.913 7.233.128.105.315.11.46.018a.399.399 0 0 0 .17-.327c0-.041 0-.082-.018-.117 0 0-3.678-11.935-3.684-11.958.11.11 4.215-3.46 6.64-5.577 1.008-.88 1.748-1.534 1.748-1.534a.414.414 0 0 0 .117-.437.413.413 0 0 0 -.379-.257h-9.817s.006-.012.006-.029c0-.706-3.999-12.116-3.999-12.116m91.506 12.145s.006-.012.006-.029c0-.706-3.993-12.116-3.993-12.116a.41.41 0 0 0 -.38-.262.389.389 0 0 0 -.366.262l-4.35 12.408-9.472-.263a.403.403 0 0 0 -.367.257c-.024.046-.024.093-.024.14 0 .11.047.221.129.297 0 0 8.493 7.484 8.516 7.502-.239.006-3.8 11.567-3.8 11.567-.012.035-.012.076-.012.117 0 .122.052.25.163.327a.404.404 0 0 0 .467-.018s9.31-7.21 9.344-7.233c.006.344 8.902 7.233 8.902 7.233.134.105.332.11.466.018a.399.399 0 0 0 .17-.327.261.261 0 0 0 -.024-.117s-3.678-11.935-3.678-11.958c.151.158 8.388-7.11 8.388-7.11a.41.41 0 0 0 .105-.438.39.39 0 0 0 -.361-.257z" fill="#253666"/></g></svg>