<svg height="500" viewBox="0 0 500 500" width="500" xmlns="http://www.w3.org/2000/svg" xmlns:xlink="http://www.w3.org/1999/xlink"><mask id="a" fill="#fff"><path d="m.32258065 344h495.33870935v-338.76475h-495.33870935z" fill="#fff" fill-rule="evenodd"/></mask><g fill="none" fill-rule="evenodd" transform="translate(0 78)"><path d="m278.602151 344c138.032258 0 217.059139-90.085 217.059139-171.854875 0-97.911-109.392473-166.909875-226.198924-166.909875v.005375c-93.774194 0-158.774194 55.47-194.11828 97.475625-48.532258 57.6845-75.344086 65.02675-75.344086 65.02675 37.5860215 32.92725 55.2688172 49.670375 72.7150538 68.547375 49.2204302 53.24475 89.9892472 107.709625 205.8870972 107.709625" fill="#cb2437" mask="url(#a)"/><path d="m276.204301 320.78c-100.268817 0-139.693548-42.994625-186.1290322-92.28875-19.0376344-20.21-30.9462365-38.47425-61.7795699-61.2105l6.3333334 14.65225c29.6451612 24.246625 41.8870967 41.76375 60.9301075 61.968375 46.4301072 49.2995 85.1774192 88.101625 185.4462362 88.101625 87.790323 0 155.736559-43.360125 187.693549-96.7285l-4.806452-11.223c-31.951613 53.363-99.908602 96.7285-187.688172 96.7285" fill="#1a1918"/><path d="m278.768817 69.7675c-98.05914 0-136.55914 65.171875-136.55914 96.3845 0 18.09225 5.268818 34.00225 14.241936 47.558-5.876344-11.024125-7.258065-27.632875-7.258065-38.372125 0-31.218 37.021506-94.127 132.903226-94.127 57.672043 0 101.182796 26.611625 115.801075 49.708h72.607527c-1.327957-2.628375-4.569892-11.438-4.569892-11.438h-69.33871c-14.612903-23.096375-60.16129-49.713375-117.827957-49.713375" fill="#1a1918"/><path d="m90.0752688 228.49125c46.4354842 49.294125 85.8602152 92.28875 186.1290322 92.28875 87.77957 0 155.736559-43.3655 187.688172-96.7285h-68.564516c-32.069892 24.354125-71.376344 44.005125-121.333333 44.005125-46.112904 0-94.290323-19.226375-117.543011-54.346625-8.973118-13.55575-14.241936-29.46575-14.241936-47.558 0-31.212625 38.5-96.3845 136.55914-96.3845 57.666667 0 103.215054 26.617 117.827957 49.713375h69.33871c-32.16129-63.4895-115.172043-101.743375-198.182796-101.743375-81.537634 0-143.833333 47.015125-179.596774 89.354-47.3870968 56.12575-59.8602151 60.18925-59.8602151 60.18925 30.8333334 22.73625 42.7419355 41.0005 61.7795699 61.2105" fill="#fff"/><g fill="#1a1918"><path d="m319.629032 159.782625h-15.435484v-7.396h-23.053763v15.023125h7.596774v-7.433625h15.204301l7.844086 7.396h15.430108v-20.511l-7.586022-7.584125z"/><path d="m255.543011 207.948 7.483871 7.594875h64.188172v-20.054125l-7.586022-7.5895v20.04875z"/><path d="m281.139785 180.28825v15.007h7.596774v-7.4175h18.973118v-12.8785l-7.591397-7.5895v12.8785z"/><path d="m255.543011 152.386625 7.483871 7.5895h2.693548v-7.5895z"/><path d="m167.354839 152.386625 7.586021 7.5895h2.698925v-7.5895z"/><path d="m167.354839 207.948 7.586021 7.594875h35.994624v-12.642l-7.596774-7.5895v12.636625z"/><path d="m222.580645 176.778375 8 18.533h4.317204l-4.731182-10.9435 11.430107-9.368625v-15.098375l-7.596774-7.5895v15.098375z"/><path d="m193.05914 180.132375v15.179h7.591398v-7.594875h10.231182l-3.26344-7.584125z"/><path d="m239.177419 207.948h-19.60215l7.591398 7.594875h19.60215v-12.642l-7.591398-7.5895z"/><path d="m218.575269 159.976125v-4.33225l-3.89785-3.25725h-21.618279v15.087625h7.591398v-7.498125z"/></g><path d="m281.139785 152.386625h23.053763v7.396h15.435484v-20.505625h-64.188172v13.109625h10.27957v42.908625h-10.177419v.016125h-.102151v12.636625h64.188172v-20.04875h-15.435484v7.396h-23.053763v-15.007h18.978495v-12.8785h-18.978495z" fill="#fff"/><path d="m200.650538 167.47425h-7.591398v-15.087625h21.618279l3.89785 3.25725v8.723625l-3.72043 3.10675zm38.526881 27.837125h-8.596774l-8-18.533 11.419355-9.368625v-15.098375l-15.510753-13.034375h-51.134408v13.109625h10.284946v42.92475h-10.284946v12.636625h35.983871v-12.636625h-10.27957v-15.179h14.55914l11.956989 27.815625h19.60215z" fill="#fff"/><g fill="#1a1918"><path d="m335.913978 152.386625 7.478495 7.5895h2.693549v-7.5895z"/><path d="m384.564516 159.976125v-4.33225l-3.897849-3.25725h-19.155914v42.908625h7.586021v-35.319125z"/><path d="m399.978495 195.23075-15.5 12.71725h-48.564517l7.478495 7.594875h43.83871l20.344086-16.667875v-38.974125l-7.596774-7.5895z"/><path d="m450.704301 180.28825h-19.456989l-15.424731-12.8785 24.435484 20.468h14.311827v-4.359125z"/><path d="m477.494624 187.87775-7.586022-7.5895.086022 14.765125-15.494624 13.03975h-19.301075l-4.043011-3.40775v3.585125h-15.333333l7.591397 7.5895h15.327957v-3.5905l4.048388 3.40775h14.801075l19.973118-16.37225z"/><path d="m454.569892 159.782625v-4.133375l-3.935483-3.294875-15.193549.026875-3.962365 3.30025v8.519375l3.854838 3.208875h3.736559v-4.144125l3.962366-3.294875 11.306452-.016125 7.82258 7.4175h15.333334v-20.511l-7.586022-7.584125v20.505625z"/><path d="m434.913978 195.18775 4.129033.03225-7.887097-7.4605v4.3z"/></g><path d="m369.096774 195.29525h-7.586021v-42.908625h19.155914l3.897849 3.25725v36.544625l-3.72043 3.10675zm30.881721-.0645v-42.919375l-15.5-13.034375h-48.682796v13.109625h10.290323v42.908625h-10.172044v.016125h-.118279v12.636625h48.682796z" fill="#fff"/><path d="m431.155914 204.685375 4.043011 3.40775h19.301075l15.494624-13.03975-.086022-14.765125-15.424731-12.8785h-19.150538l-3.854838-3.208875v-8.519375l3.962365-3.30025 15.193549-.026875 3.935483 3.294875v4.133375h15.33871v-20.505625h-15.33871v3.337875l-3.967741-3.337875h-19.037635l-15.741935 13.034375v15.098375l15.424731 12.8785h19.456989l3.865591 3.230375v8.659125l-3.741935 3.12825-11.784946-.086-4.129033-.03225-3.758064-3.12825v-4.3h-15.333333v20.511h15.333333z" fill="#fff"/></g></svg>