<svg viewBox="0 0 500 500" xmlns="http://www.w3.org/2000/svg"><g fill="none" fill-rule="evenodd"><path d="m342.008 334.514c-13.17 3.053-19.712 3.18-33.632 0v59.61c2.863 1.307 7.258 3.302 10.043 4.19 6.521-3.124 19.457-8.846 23.589-11.011zm0-121.862c-12.9-4.678-22.065-3.145-33.632-.98v57.595c8.768 3.982 26.154 1.902 33.632.142zm0-100.501c-12.9-4.679-22.065-3.145-33.632-.973v36.716c9.065-2.42 17.953-3.954 33.632.121zm-6.592-100.43c52.11 0 107.785 32.556 104.844 111.142-1.765 46.627-12.61 234.88 6.655 312.152-70.97-5.438-111.485 22.781-144.762 64.985-34.39-18.883-63.238-24.996-102.044-24.996-31.045 0-60.424 6.347-97.019 17.187-5.047 1.498-34.05 11.926-34.291 4.941-.262-7.575 4.316-23.71 8.186-29.95 15.346-24.698 21.47-26.331 19.194-26.523-5.968-.504-34.603-1.335-26.969-25.961 4.295-13.907 21.625-16.924 21.625-56.913 0 0 2.155-54.031-1.042-52.192-11.589 6.737-25.155 8.724-32.214-3.884-13.524-24.136 7.215-56.629 7.215-56.629-27.947-11.5 2.623-82.775 27.16-93.38 2.149-31.151 7.145-42.843 26.013-56.069-24.977-6.254-68.887-68.611-58.73-95.347 0 0 14.438 6.638 26.367 8.668 11.284 1.917 21.349 2.769 36.878 2.769z" fill="#fff"/><path d="m357.601 102.148c-17.861-11.131-44.951-11.528-64.491-2.236v68.492c22.234-10.578 43.916-10.578 64.492 2.229v-68.485zm-64.491 177.057c22.234 10.571 43.916 10.571 64.492-2.229v-73.503c-20.576-12.8-42.258-12.8-64.492-2.215zm0 124.17 25.573 12.239c11.128-6.68 27.798-14.475 38.92-17.826v-86.858c-20.577 12.814-42.259 12.814-64.493 2.236v90.208zm-61.14-285.637v270.594l21.121 3.337v-297.876c-10.015 1.114-21.121 7.794-21.121 23.945zm-107.851-90.748h213.466c52.266 0 87.826 35.623 87.826 84.62 0 46.762-13.34 231.614 4.458 308.454-48.935-3.337-97.84 18.926-131.19 61.257-34.468-18.94-56.702-21.169-95.622-21.169-31.123 0-75.606 10.024-110.067 23.391-13.113 5.083-8.896-1.682-1.12-12.813 20.023-28.617 60.041-64.034 102.299-80.724v-287.296c-15.565 15.582-22.235 32.294-22.235 63.465v170.385c0 30.057-11.135 51.212-27.798 65.694-16.685 14.475-37.8 18.926-48.928 21.155-11.114 2.215-15.565 0-6.67-11.13 8.903-11.14 17.798-20.056 17.798-60.137v-81.277c-8.895 3.322-19.69 12.438-25.573 21.141-5.847 8.64-11.114 6.155-11.114-3.336 0-26.721 16.671-52.335 36.687-62.366v-20.04c-8.895 3.343-18.903 12.253-25.573 21.162-6.202 8.27-11.114 6.56-11.114-3.344 0-26.735 16.671-52.34 36.687-62.365 0-41.203 16.664-55.678 43.357-70.153-38.36-6.644-72.828-51.184-76.812-73.091 12.32 6.318 34.56 8.476 51.239 8.519z" fill="#111b2b"/></g></svg>