<svg height="500" viewBox="0 0 500 500" width="500" xmlns="http://www.w3.org/2000/svg" xmlns:xlink="http://www.w3.org/1999/xlink"><mask id="a" fill="#fff"><path d="m0 500h355.924068v-498.8597561h-355.924068z" fill="#fff" fill-rule="evenodd"/></mask><g fill="none" fill-rule="evenodd" transform="translate(70)"><path d="m54.6223729 42.8109756c-12.9111865 13.7195122-25.3708475 40.9390244-27.1586441 59.4024394-.5735593 5.896341-.860339 11.378048-.860339 16.518292 0 18.493903 3.7891526 32.670732 12.0569492 46.469513 10.3667796 17.27439 26.7681356 31.481707 47.458983 41.07317 19.501017 9.048781 47.599322 21.652439 50.955254 23.018293 1.134916.457317 2.629831 1.158537 4.21017 1.926829-6.431187 4.670732-10.220339 7.414634-13.289492 9.634147-17.383729-3.957318-39.2338981-.908537-44.3227116.292682-20.6664407 4.890244-39.6122034 14.189025-53.3532204 26.195122-14.0094915 12.237805-24.50440675 26.286586-28.06779658 37.609757-3.96610169 12.585365-2.69084745 21.52439 3.79525424 26.560975 9.55525424 7.432927 21.88067794-.176829 25.92610174-2.689024 8.3105084-5.256098 23.6074576-14.865854 42.8888135-17.72561 16.7674576-2.487805 39.2705081-.20122 49.6006781 6.54878v18.262196c-2.489492 2.27439-5.137627 4.689024-5.137627 4.689024-2.611526 2.609756-3.99661 6.170732-3.99661 9.853659 0 1.725609.311186 3.475609.927457 5.158536 1.751187 4.70122 5.68678 6.676829 5.68678 6.676829 33.345763 20.304878 33.339661 20.304878 55.781695 33.97561-.32339.121951-.988475.146342-1.238644.25-2.953221 1.298781-9.817627 5.597561-9.817627 17.567073v48.780488l29.007457 27.70122c6.431187 6.432926 12.661017 7.481707 16.755254 7.219512 5.088814-.310976 9.68339-2.786586 12.941695-6.97561 0 0 19.311865-24.762195 31.277289-40.115854 8.865762 13.713415 22.844745 35.310976 22.844745 35.310976-.152542-.243902.329492.75.329492.75 1.623051 3.47561 4.985085 10.707317 12.911186 12.756098 3.514577.908536 9.079322 1.012195 15.51661-3.67683 8.670509-6.29878 28.848814-22.02439 32.314577-25.481707l.634576-.640244c2.404068-2.353658 6.022373-5.939024 6.022373-11.835366v-46.567073c0-5.006098-2.684746-11.335366-8.835254-13.810976-4.503051-1.79878-9.652882-1.79878-15.797289 3.20122-2.745762 2.231707-7.437966 5.621951-14.259661 10.77439-3.947796-6.304878-6.065084-9.676829-9.054915-14.445122 5.875932-7.384146 19.824407-24.957317 27.616271-34.786585 1.00678.79878 3.044746 2.396341 3.044746 2.396341l.36.231708c8.194576 5.457317 14.454915 3.432926 17.444746 1.731707 8.139661-4.597561 8.310508-14.835366 8.157966-17.865854l.018305-39.109756-24.644746-25.481707c-3.575593-4.030488-8.566779-6.091464-13.692203-5.670732-5.235254.426829-10.061695 3.384147-12.905085 7.902439-1.330169 1.908537-13.051525 16.628049-25.218305 31.786586v-51.170732c1.501017-1.512195 3.063051-3.085366 3.063051-3.085366 2.202712-1.914634 7.193898-8.097561 7.193898-15.323171 0-1.725609-.274576-3.512195-.964068-5.317073-1.415593-3.792683-4.838644-8.079268-12.355932-9.847561 2.202712-8.560975 3.075255-16.835366 3.178983-23.213414 0-.597561.012204-1.20122.012204-1.792683 0-17.079269-3.929492-31.481708-11.715255-42.841464-9.244067-13.5-16.413559-18.030488-26.31661-24.310975l-2.55661-1.628049c-11.538305-7.359756-72.054915-39.140244-74.62983-40.4878051-.219661-.1158537-23.192543-11.4878049-23.192543-11.4878049-15.187118-7.6768292-16.27322-13.0426829-16.27322-15.9634146 0-.1890244.012203-.3536585.018305-.5182927.353898-1.7621951 4.472542-8.1280488 13.143051-8.1280488 8.884068 0 15.12.2804878 26.810847 4.2012195 18.530848 6.2134147 19.055594 13.75 19.067797 16.542683-.048814.6829268-.622373 8.4939024-.622373 8.4939024l38.538305 26.3048782 57.764746-74.085366-46.897627-31.347561-6.217627 6.2195122c-2.080678 2.0792683-3.374238 3.25-4.161356 3.8353659-.903051-.1524391-3.331526-.5670732-3.331526-.5670732l-10.342373-3.9146341c-16.279322-6.5731708-43.529491-17.5853659-68.320678-17.5853659-43.3586436 0-66.1240674 20.5853659-85.7288131 41.6707317" fill="#fff" mask="url(#a)"/><path d="m131.406102 254.292683 30.075254-21.817073v-1.121951c-.347797-5.060976-14.747797-11.72561-19.824407-13.914635-2.855593-1.231707-30.569491-13.57317-50.4732202-22.810975-18.36-8.506098-32.839322-20.981708-41.8759322-36.060976-6.6142373-11.02439-12.3315254-25.335366-9.439322-55.201219 1.5071186-15.5487808 12.8501695-40.3048784 23.7966101-51.9268296 18.4393221-19.8353659 38.1416953-37.6280488 76.3871183-37.6280488 22.32 0 48.16678 10.4390244 63.61017 16.6768293 5.930847 2.3963414 10.232542 4.1341463 12.654915 4.6158536 8.475254 1.695122 10.72678 1.3841464 17.877966-5.5609756 2.477288 1.6524391 23.338983 15.6036586 26.609492 17.7865854-2.654238 3.402439-39.502373 50.6707317-41.827119 53.6585367-2.84339-1.9390245-20.62983-14.0792684-22.417627-15.3048782.061017-.7804878.109831-1.5975609.109831-1.6036585 0-13.25-9.396611-23.0426829-27.927458-29.25-13.515254-4.5304878-21.355932-4.8841463-30.96-4.8841463-16.663729 0-25.852881 13.2865853-26.109153 20.402439-.427118 11.4817073 6.815594 20.3597561 23.448814 28.7743902.018305.0060976 23.027797 11.3963418 23.027797 11.3963418.573559.310975 62.670508 32.902439 73.757288 39.981707l2.617627 1.664634c9.561356 6.067073 14.83322 9.408537 22.600678 20.731707 6.504407 9.512196 9.695593 22.024391 9.457627 37.195122-.140339 8.847561-1.543729 21.756098-7.431865 32.981708l-1.897627 3.597561 11.727458-1.085366c4.204068.012195 7.053559.871951 7.614915 2.378049.738305 1.945122-1.726779 5.591463-2.648135 6.396341l-7.645424 7.780488.158644.713415v65.25l1.592542.469512c3.52678 1.036585 9.762712 3.560975 11.477288 5.908536l1.696272 2.329269 1.812203-2.25c3.142373-3.896342 30.813559-38.243903 32.589153-41.067074.677288-1.07317 1.867118-1.82317 3.050847-1.926829 1.061695-.079268 2.056271.384147 2.965424 1.384147 0 0 18.311186 18.969512 21.410847 22.164634v34.463414c.006102.164634.006102.347561.006102.524391 0 2.158536-.518644 4.981707-1.635254 5.609756-.689492.390244-2.153899-.079269-3.92339-1.25 0-.012195-12.715932-9.981708-12.715932-9.981708l-41.351187 52.091464 21.441356 34.176829 25.541695-19.304878c1.604746-1.52439 2.55661-1.792683 2.95322-1.628049.53695.22561.97017 1.243903.97017 1.926829v46.652439c0 .512196-1.018983 1.512196-2.190509 2.664635l-.689491.682926c-2.465085 2.47561-21.770848 17.640244-30.825763 24.213415-1.897627 1.390244-3.484068 1.932927-4.686102 1.621951-2.013559-.518292-3.416949-3.518292-4.435932-5.713414l-1.18983-2.298781-32.778305-50.670732-42.547119 54.554879c-.658983.859756-1.824407 1.908536-3.545085 2.012195-2.074576.134146-4.417627-1.073171-6.827796-3.463415 0 0-23.943051-22.878049-25.254916-24.134146v-43.347561c0-3.554878 1.073899-5.292683 2.080678-5.737805 1.122712-.487805 2.910509.25 4.783729 1.97561.024407.030487 21.227797 18.926829 21.227797 18.926829l29.495593-36.02439-7.981017-13.292683s-21.538983 16.432926-23.692881 18.085366c-2.507797-1.518293-77.058305-46.939025-77.186441-47.012196-.079322-.182926-.146441-.396341-.146441-.658536 0-.286586.061017-.573171.195255-.713415l8.920678-8.121951.024406-.993902v-30.445122l-1.031186-.652439c-6.004068-3.847561-10.87322-6.670732-19.549831-8.865854-14.631864-3.689025-31.8935589-4.341464-43.9077962-2.426829-22.0088136 3.506097-39.5389831 14.262195-47.9349153 19.579268-8.0969491 5-10.6169491 3.914634-11.2027118 3.463415-1.2325424-.957318-1.8122034-4.810976.6040678-12.518293 2.8006779-8.884146 12.3315254-21.371951 24.2847457-31.817073 12.2155933-10.658537 29.2271187-18.969513 47.9044068-23.384147 7.340339-1.737805 30.178983-4.006097 43.09017.695122l1.110508.396342zm-70.9810173-205.8780489c-11.678644 12.4146342-23.3511864 37.8963415-24.9681355 54.5304879-.5369492 5.579268-.8176272 10.75-.8176272 15.579268 0 16.981708 3.4230509 29.890244 10.8732204 42.317073 9.4942373 15.841464 24.6447457 28.908537 43.8101695 37.798781 20.3918641 9.457317 47.6725421 21.670732 50.6684741 22.890244 5.589153 2.27439 14.064407 6.878049 16.291526 9.262195-2.922712 2.121951-25.267119 18.323171-26.682712 19.347561-14.698983-4.768293-37.8061017-2.109756-44.3532203-.554878-19.3728814 4.579268-37.0555933 13.231707-49.7959322 24.359756-12.7220339 11.103658-22.521356 24.067073-25.59661021 33.823171-2.79457627 8.865853-2.48949153 14.695122.90915251 17.32317 3.2888136 2.560976 8.6033899 1.512196 16.2488136-3.213414 8.1640678-5.158537 25.120678-15.798781 46.2264407-18.939025 15.6264406-2.329268 31.3566099-.518292 43.1450849 2.396342 0 0 9.091525 2.79878 16.285424 7.646341v26.993903c-1.238645 1.121951-7.645424 6.969512-7.645424 6.969512-1.067797 1.060976-1.494915 2.487805-1.494915 3.835366 0 .786585.14644 1.554878.39661 2.219512.579661 1.567073 2.135593 2.365854 2.135593 2.365854l79.492881 48.432926s18.890848-14.420731 22.179661-16.920731c1.299661 2.158536 2.941017 4.884146 3.837966 6.384146-1.726779 2.109756-22.094237 26.981707-24.608135 30.048781-2.861695-2.548781-17.755932-15.829269-17.755932-15.829269-4.423729-4.07317-7.871187-3.463414-9.530848-2.737805-3.008135 1.310976-4.722712 4.884147-4.722712 9.774391v45.231707l26.548475 25.371951c4.210169 4.195122 7.877288 4.896342 10.226441 4.75 2.635932-.158536 5.021694-1.47561 6.772881-3.713414 0 0 30.70983-39.378049 38.703051-49.640244 3.014237 4.670731 29.404068 45.445122 29.404068 45.445122l.896949 1.77439c1.311864 2.823171 3.294915 7.073171 7.334237 8.121951 2.550508.652439 5.375593-.121951 8.402034-2.323171 8.64-6.286585 28.525424-21.841463 31.35661-24.676829l.652881-.646341c1.958644-1.939025 3.508475-3.463415 3.508475-5.817074v-46.652439c0-2.201219-1.250847-4.969512-3.661017-5.987804-1.610847-.689025-4.240678-.847561-7.541695 2.335365.164746-.146341-16.016949 12.073171-21.496271 16.219513-2.135593-3.396342-15.809492-25.189025-17.218983-27.439025 1.781695-2.237805 34.2-43.079268 36.677288-46.195122 2.465085 1.932927 9.402712 7.365854 9.402712 7.365854 3.508474 2.347561 6.382373 2.823171 8.688813 1.518293 4.100339-2.323171 3.892882-9.304878 3.862373-10.085366v-36.140244l-22.527457-23.317073c-1.824407-2.042683-4.17356-3.054878-6.638644-2.853659-2.550509.213415-5.00339 1.737805-6.425085 3.969512-1.189831 1.902439-18.604068 23.652439-30.862373 38.896342-3.172881-2.542683-7.700339-4.371951-10.134915-5.189025v-61.097561c.805423-.817073 5.985762-6.054878 5.985762-6.054878.848136-.737804 4.295594-4.737804 4.295594-8.896341 0-.798781-.122034-1.597561-.421017-2.390244-1.305763-3.469512-5.338983-5.22561-11.971526-5.22561-.103728.006098-2.202712.195122-4.204067.384147 4.875254-11.073171 6.309152-22.97561 6.437288-31.402439 0-.554878.012203-1.109757.012203-1.658537 0-15.359756-3.441356-28.176829-10.256949-38.103659-8.261695-12.07317-14.137627-15.79878-23.875932-21.963414l-2.599322-1.652439c-11.257627-7.182927-71.56678-38.847561-74.129492-40.195122-.048813-.02439-23.058305-11.4207319-23.058305-11.4207319-18.128136-9.1646341-21.026441-17.1219512-21.026441-23.7621951 0-.2987805 0-.597561.018305-.8963414.189153-5.4756098 8.035933-16.1402439 21.691526-16.1402439 9.475932 0 16.651525.3231707 29.55661 4.652439 16.767458 5.6219512 24.919322 13.7682927 24.925424 24.9146341-.018305.0121952-.305085 3.9634147-.305085 3.9634147l27.957966 19.0853655 47.300339-60.6829265-33.541017-22.4207317-1.293559 1.2804878c-7.2 7.2134146-7.505085 7.152439-15.199322 5.6097561-2.025763-.402439-6.364068-2.1585366-11.88-4.3780488-15.73017-6.3597561-42.071187-16.99390244-65.251526-16.99390244-40.021017 0-60.492203 18.45731704-79.6271183 39.01829264z" fill="#c1c9ca"/><g fill="#1a1918"><path d="m354.868475 494.536585h-2.263729v-8.786585h-.048814l-3.20339 8.786585h-2.172203l-3.093559-8.786585h-.048814v8.786585h-2.263729v-11.04878h3.911187l2.568813 7.219512h.048814l2.672542-7.219512h3.892882zm-15.12-9.079268h-3.337628v9.079268h-2.251525v-9.079268h-3.325424v-1.969512h8.914577z"/><path d="m204.181017 355.243902-25.773559-15.743902v-39.02439c10.8-1.914634 37.134915-14.463415 50.784406-28.091464.164746 2.579269.115933 28.652439.054916 46.323171l-15.815594-25.195122-24.113898 17.121951v30.658537l13.338305-8.835366 9.994576 15.908537zm-25.773559-94.457317 14.717288-10.768292c3.99661 3.32317 8.71322 6.341463 13.399322 9.036585-.311187.27439-.549153.487805-.549153.487805s-16.974915 14.518293-27.567457 16.006097zm161.054237 89.481708v-33.140244l-20.739661-18.640244-57.429153 71.27439-8.078644-12.865854c6.998644-5.225609 16.010848-11.926829 17.017627-12.426829 1.659661-.835366 5.802712-3.310975 7.865085-3.310975 1.879322 0-2.892203-8.286586-16.578305-8.286586v-73.329268l7.877288-8.70122s-9.579661 1.506098-14.094915.128049c-.951864-.292683-2.574915-1.067073-4.527458-2.085366 2.568814-4.103658 4.875255-8.75 6.608136-14.195122 9.408813-29.701219 3.252203-57.121951-19.073898-74.030487-15.663051-11.859757-80.005424-44.396342-80.005424-44.396342s-38.922712-19.0609755-43.120678-23.2560974c-2.995932-3.0060976-9.109831-7.6646342-9.109831-22.3719513 0-8.7682926 9.768814-18.4268292 13.985085-20.4207317 6.736271-3.1890244 8.938983-4.6951219 22.582373-4.8963414 7.724746-.1158537 14.888136 1.7439024 15.864407 1.8475609 8.493559.8963415 28.604746 7.5182927 38.971525 21.542683 3.972204 3.9695122 4.765424 15.5975609 4.765424 15.5975609l16.16339 10.3536586 35.237288-45.9817073-19.067797-12.8414634c-5.381695 5.804878-15.748474 6.2134146-19.897627 4.1463414-4.149152-2.0731707-39.722034-15.0243902-44.774237-16.6341463-9.536949-3.0487805-30.258305-5.3231708-41.448814-3.6646342-11.19661 1.6585366-29.5688132 5.0548781-43.9505081 20.2987805-16.7857627 17.8109756-16.9932204 32.1036586-16.9932204 39.7682927 0 12.0121951 3.1057628 27.902439 16.5783051 41.365854 19.4216954 19.396341 48.9172884 31.542683 55.5559324 35.213414 11.788474 6.512195 48.929491 25.932927 54.305085 29.060976 22.795932 13.256097 31.50305 27.341463 29.025762 45.152439-.128135.878049-.39661 1.689024-.591864 2.542683-9.994576-5.878049-24.04678-14.72561-29.684746-20.353659 0 0-3.410847 3.621952-5.589152 5.798781l-16.547797 12.384146c1.946441-8.042683 2.178305-21.786585 1.830508-23.152439-.414915-1.658536-1.659661-14.920732-13.265084-23.201219-7.871187-5.621952-25.492882-16.158537-40.625085-23.609756-6.498305-3.20122-27.6223729-15.97561-37.720678-24.384147 0 0-17.4081356-16.219512-20.1050848-26.164634-5.1864406-11.3902439-5.3877966-38.3170731-2.6969491-41.0121951 0 0-6.6325424 7.4573171-11.1966102 22.3719512-2.2271186 7.2865854-3.7281356 16.7804879-3.7281356 23.2012199 0 10.768292 1.861017 29.615853 13.68 45.57317 5.2108475 7.024391 13.3871187 15.024391 22.021017 20.72561 10.5681356 6.969512 21.1972881 11.067073 21.9172877 11.579268 2.904407 2.073171 30.264407 13.609757 32.753899 14.853659 2.48339 1.243902 15.028474 7.073171 17.694915 8.5 9.439322 5.04878 14.302373 8.286585 17.286102 16.329268l-28.354577 21.219512s1.244746 2.274391 1.244746 5.798781v2.682927c-3.825763-1.262195-7.712542-2.371951-11.599322-3.036586-18.658983-3.170731-30.0081355-2.975609-44.7742372.664635-16.3769491 4.036585-33.5776271 10.646341-49.7471186 26.804878-18.2562712 18.237804-18.0305085 30.469512-18.0305085 30.469512l18.2318644-10.75c15.2542373-8.567073 35.3349153-13.689025 49.5457627-13.689025 33.8949152 0 51.4800002 9.774391 56.3735592 15.219513v32.835365c0 6.524391-1.964746 7.347561-3.410847 8.591464-.561356.481707-1.04339.518293-3.008136 1.865854 0 0 2.489492.926829 3.111865 1.560975 1.653559 1.237805 66.191186 40.176829 66.191186 40.176829l24.992542-18.292683 12.337627 19.640244-34.297627 42.567074-23.625762-21.548781v40.189024l26.938983 24.859757 47.574915-59.682927 39.069152 62.164634 31.509153-25.268293v-39.768293l-25.279322 19.054879-25.639322-40.847561 46.360678-58.164635z"/></g></g></svg>