<svg height="500" viewBox="0 0 500 500" width="500" xmlns="http://www.w3.org/2000/svg" xmlns:xlink="http://www.w3.org/1999/xlink"><mask id="a" fill="#fff"><path d="m.34043478 498.694517h448.70439122v-497.75000003h-448.70439122z" fill="#fff" fill-rule="evenodd"/></mask><g fill="none" fill-rule="evenodd" transform="translate(25)"><g fill="#fff"><path d="m271.275457 146.376335-2.956109-6.914773-3.710739 6.244319-7.557652.607954 4.715021 5.471591-1.895087 7.346591 6.842739-3.039773 6.371805 4.227273-.476609-7.539773 5.787391-4.465909z"/><path d="m241.169674 145.637699-2.910717-4.022727-1.475218 4.5625-4.777435 1.494318 3.829892 2.840909-.147522 5.011363 3.966065-2.960227 4.720696 1.789773-1.407131-4.789773 3.069587-3.721591z"/><path d="m326.465609 189.120653-3.069587-4.403409-1.656783 4.835228-5.157587 1.460227 4.295152 3.102273-.300717 5.40909 4.431326-2.982954 4.788783 1.943182-1.367413-5.051137 3.166043-4.278409z"/><path d="m87.5711739 368.29679c.2099348-.170455.4028478-.323864.6184565-.5-.0397174-.056818-.1134782-.176137-.1361739-.210228-.2326304-.090909-1.0780435-.414772-2.0936739-.806818.5276739.517046 1.0780435 1.005682 1.6113913 1.517046"/><path d="m309.500609 154.961562-7.744892 3.539773-7.6995-4.465909.896479 8.4375-6.740609 5.829546 8.64137 1.642045 3.330586 8.346591 4.573174-7.602273 8.561935-.4375-5.577456-6.636363z"/><path d="m258.656674 215.632017c-9.129326-4.3125-18.933848-3.414773-21.867261.948864-.731935 1.085227-1.617065 2.471591-1.792956 3.045454-.192914.625-.408522 1.25-.607109 1.875.187239-.585227.408522-1.215909.590087-1.795454.175891-.568182 1.055348-1.954546 1.792956-3.045455 2.927739-4.363636 12.732261-5.261364 21.867261-.948864 9.169044 4.323864 15.68837 14.494319 13.140783 21.164773.011348-.005682.011348-.011363.011348-.017045 2.604326-6.676137-3.94337-16.892046-13.135109-21.227273"/><path d="m102.669457 305.870653c6.542021 7.267046 26.298586-15.715909 22.270108-22.215909-5.344826-6.732954-28.1199128 15.727273-22.270108 22.215909"/><path d="m83.7015652 263.137699c-12.9365217 12.863636-34.0888695 15.403409-44.4210652 4.215909-12.7719783-13.8125 3.0922826-37.829546 16.1876739-60.693182 13.3961087-23.392045 23.5410652-44.011364 7.7619131-47.107954-10.1733261-2.005682-21.6573261 11.119318-27.0532174 21.0625-5.2426957 9.664772-11.6655653 23.914772-10.116587 46.170454 0 34.988636 9.5435217 67.721591 25.8616957 96.102273z"/><path d="m89.784 370.35929c-.0567391-.090909-.1021304-.164773-.1588696-.255682-.0170217.017045-.0340434.034091-.0567391.051136.0737609.073864.1418478.136364.2156087.204546"/><path d="m355.680587 275.92179c-3.500804-4.903409-17.135217 6.278409-17.889848 13.073863 10.905261-.431818 20.704109-9.147727 17.889848-13.073863"/><path d="m287.729804 291.444517c9.577566-1.244318 19.177826-9.244318 17.572109-12.903409-2.258217-5.125-15.50113 4.119318-17.572109 12.903409"/><path d="m357.286304 78.0979261c-.998608 1.1136363-2.082326 2.3806818-3.188739 3.7102272 2.802913.9715909 8.352 2.8977273 11.126544 3.8579546-2.575957-2.5965909-5.22-5.1193182-7.937805-7.5681818"/><path d="m387.987848 283.489972c-2.252544 2.176136-4.749065 4.119318-7.109413 5.738636-.051065 7.318182-7.591696 7.607954-7.983196 7.215909-1.299326 1.426136-.295043 7.5625 6.190239 7.886364 10.797457.545454 10.632913-13.670455 9.208761-18.954546-.164543-.613636-.23263-1.255682-.306391-1.886363"/><path d="m256.733217 281.143381c-1.37876-3.068182-9.532174-1.926137-14.496847.0625l-5.049783 7.840909-2.002891 3.221591c11.081152.886363 23.909869-5.846591 21.549521-11.125" mask="url(#a)"/><path d="m401.179696 298.018381c-.516326 1.818181-1.259609 3.602272-2.502196 5.278409-4.732043 6.414772-12.834391 7.284091-19.569326 6.136363-4.300826-.727272-9.117978-3.590909-11.109522-6.823863-.834065-1.340909-1.350391-2.636364-1.730543-3.886364-16.99337 10.221591-38.083305 13.028409-43.235218 2.988636-.697891-1.363636-1.072369-2.738636-1.219891-4.119318-18.871435 13.573864-43.723174 17.8125-48.999913 6.238637-.658174-1.431819-.953217-2.897728-1.009957-4.357955l-.504978 2.0625c-12.130826 11.028409-25.175152 15.147727-29.470304 11.857955-7.171826-5.482955-.635478-12.613637-4.278131-15.6875-.998608-.835228-2.661065-1.051137-5.390217-.852273l5.027087-7.806818 4.834174-7.767046c.068087-.028409.147522-.045454.215609-.073863l4.022804-6.25c7.569-3.886364 19.921109-5.971591 21.997761 1.113636 2.893695 9.909091-10.905261 18.471591-20.482826 20.056818 7.290978 1.335227.079434 9.460227 7.54063 10.4375 3.245478.426137 12.539348-6.193182 17.685587-13.028409 6.837065-16.028409 40.449326-30.136364 45.158674-18.096591 4.062522 10.380682-15.183391 19.670455-31.053326 19.818182-.663848.005682-.431217-.164773-.499304.005682-1.384435 4.022727.578739 8.4375 8.011565 8.369318 7.205869-.068182 17.799065-3.017045 27.995087-11.721591 5.906543-15.875 40.460674-29.261364 43.626717-18.073864 2.785891 9.795455-14.372022 18.170455-28.908587 19.295455-.658174.056818-.436891-.164773-.49363.005682-1.384435 4.022727.567391 8.443182 8.011565 8.369318 6.088109-.056818 12.692543-2.545455 20.891348-7.107955.584413-7.892045 9.515152-12.215909 13.696826-8.380681 2.995826-2.119319 6.156196-4.744319 8.58463-7.613637.15887-1.397727.368805-2.772727.584413-4.073863 1.424153-8.710228 12.68687-17.778409 16.675631-14.931819 2.729152 1.954546 1.231239 8.431819-6.150522 14.789773-1.373087 1.346591-2.280913 1.568182-.278022 5.681818.964566 1.994319 2.207152 5.267046 2.785892 8.977273 13.084043-9.659091 20.255869-25.659091 21.543847-62.551136l-.124826-.159091c0-53.607955-21.169369-102.232955-55.541934-138.068182-.312066.5170454-.885131.8125-1.475218.6079545l-13.708174-4.7556818c-1.492239 1.8295455-2.978804 3.6818182-4.346217 5.4147727 3.217109 1.5340909 10.451348 4.9829546 10.451348 4.9829546.459587.2215909.731934.6818182.731934 1.1647727 0 .1818182-.045391.375-.119152.5511364-.312065.6420454-1.078043.9147727-1.719195.6136363 0 0-7.750566-3.6988636-10.962-5.2670454-1.015631 1.3011363-1.934805 2.4829545-2.63837 3.3863636 24.046044 17.4090914 40.829478 44.5625004 43.927435 75.0738634-.022696.301137-36.233609 20.909091-46.162957 26.551137-.408521-2.710228-.964565-5.375-1.645434-7.988637l39.74576-25.715909c.374479-2.886363-1.974521-12.744318-2.791565-14.352273l-40.959978 28.392046c-2.729152-6.221591-6.252652-12.017046-10.417304-17.284091l39.740087-34.931818c-5.742-9.034091-11.603153-15.238637-18.967892-21.670455l-34.043478 43.409091c-7.166152-5.625-15.29687-10.051136-24.1425-12.9375l19.228891-50.0056817c-9.310891-3.0113636-19.892739-4.1534091-30.474587-3.1534091l-8.2215 49.5056818c-1.628413-.102273-3.239804-.25-4.896587-.25-5.378869 0-10.632913.551136-15.716739 1.585227l.930522-44.9659088c-4.363239 1.5738637-10.008783 4.2954546-14.162087 7.5909091l.794348 41.0852277c-3.29087 1.267045-6.513652 2.681818-9.577565 4.357954-.714913-11.448863-2.797239-45.0454544-2.558935-45.2159089 16.908261-11.9943182 37.561304-19.0454546 59.859782-19.0454546 21.487109 0 41.595457 6.9204546 58.395914 18.4829546.720586-.9261364 1.634086-2.0909091 2.61-3.3465909l-10.144957-10.159091c-.504978-.5056818-.504978-1.3238636 0-1.8295454.499304-.5 1.322022-.5 1.821326 0 0 0 7.688152 7.7045454 9.906652 9.9829545 1.361739-1.7386363 2.859652-3.5909091 4.351892-5.4204545l-7.637087-10.9261364c-.408522-.5852272-.266674-1.3920454.312065-1.8011363.590087-.4090909 1.384435-.2670455 1.79863.3181818 0 0 5.463979 7.8181818 7.234239 10.3522727 1.208544-1.4488636 2.383044-2.8181818 3.478109-4.0454545-35.059109-30.8693182-81.017804-49.6363637-131.368109-49.6363637-55.139087 0-105.029804 22.4602273-141.0818474 58.7215909.6354782.5284091 1.2539347 1.0568182 1.8837391 1.5909091l14.5819565-5.4090909c.6638478-.2443182 1.4071308.0965909 1.6567828.7670455.051065.1477272.079435.2954545.079435.4431818 0 .5284091-.323413 1.0170454-.83974 1.2102273 0 0-9.299543 3.4488636-13.2202169 4.9034091 2.1333913 1.8806818 4.1986956 3.8181818 6.2299565 5.7840909l13.5266084-5.0795455c.663848-.25 1.407131.0852273 1.656783.7556818.249652.6647728-.085109 1.4090909-.754631 1.6590909l-12.3464343 4.6363637c1.0042826 1 1.9631739 2.0340909 2.9447609 3.0511363l13.7081734-4.3977272c.68087-.2159091 1.401457.1590909 1.62274.8352272.215608.6818182-.15887 1.4034091-.834066 1.625l-12.533674 4.0170457c1.480892 1.579545 2.944761 3.164773 4.357566 4.784091l17.311108-2.704546c.703566-.113636 1.36174.369318 1.469544 1.073864.113478.704545-.368804 1.363636-1.07237 1.471591l-15.76213 2.465909c1.441174 1.704545 2.882348 3.403409 4.261109 5.153409l17.112521-2.448864c.709239-.096591 1.361739.392046 1.458196 1.096591.10213.704546-.385826 1.357955-1.089391 1.454546l-15.716739 2.25c2.507869 3.295454 4.896586 6.664772 7.171826 10.102272l19.711174-1.715909c.703565-.0625 1.327695.465909 1.390108 1.176137.062413.704545-.459587 1.329545-1.168826 1.392045l-18.298369 1.596591c2.241195 3.505682 4.385934 7.068182 6.383152 10.704546l19.206195-.545455c.70924-.022727 1.299326.539773 1.322022 1.25v.039773c0 .693182-.550369 1.267045-1.253935 1.289772 0 0-13.345043.380682-17.957934.505682 1.764587 3.335228 3.415695 6.721591 4.981695 10.159091l18.16787 1.085227c.714913.039773 1.253935.647728 1.208543 1.363637-.039717.710227-.646826 1.25-1.361739 1.210227 0 0-12.159196-.727273-16.828826-1.011364 1.844022 4.232955 3.585913 8.511364 5.11787 12.869319l19.336695 1.613636c.709239.056818 1.236913.681818 1.1745 1.392045-.056739.710228-.680869 1.238637-1.390108 1.176137 0 0-13.373413-1.113637-18.264327-1.522727 1.446848 4.335227 2.723479 8.738636 3.852587 13.1875l17.997653 4.715909c.686543.176136 1.100739.880681.919174 1.573863-.181566.6875-.885131 1.102273-1.577348.920455l-16.596196-4.346591c1.112087 4.698864 2.042609 9.454545 2.802913 14.261364.15887.28409.198587.5625.124826.875.005674.028409.011348.0625.011348.090909l16.698326 5.852272c.675196.232955 1.026978.971591.794348 1.647728-.238304.670454-.970239 1.022727-1.639761.789772l-15.444391-5.414772c.828391 6.045454 1.378761 12.159091 1.622739 18.329545l17.889848 7.602273c.663848.267045.964565 1.034091.686543 1.6875-.272348.659091-1.032652.960227-1.685152.681818 0 0-12.510978-5.3125-16.811804-7.136364.039717 1.602273.136174 3.198864.136174 4.806819 0 4.25-.15887 8.369318-.41987 12.426136l16.647261 6.721591c.658174.267045.975913 1.017045.709239 1.676136-.266674.664773-1.01563.982955-1.673804.715909 0 0-11.994653-4.846591-15.926674-6.431818-.442565 5.482955-1.123435 10.914773-2.093674 16.392046l16.999043 7.136363c.6525.272727.964566 1.028409.692218 1.6875-.278022.653409-1.032652.960227-1.690826.693182 0 0-13.010283-5.465909-16.443-6.909091-.635479 3.318182-1.384435 6.681818-2.229848 10.102273l8.266891 6.954545c.544696.454546.618457 1.261364.15887 1.8125-.459587.545455-1.270957.613637-1.815653.159091l-8.868326-7.454545c-.062413-.045455-.051065-.136364-.10213-.193182-.107804-.130682-.164544-.25-.215609-.420455-.056739-.164772-.085108-.295454-.068087-.471591 0-.068181-.051065-.136363-.034043-.215909.839739-3.340909 1.53763-6.596591 2.173109-9.823863-4.357566 1.772727-14.462805 5.892045-14.462805 5.892045-.658174.267046-1.40713-.051136-1.673804-.710227s.045391-1.414773.709239-1.681818l15.989087-6.511364c.964565-5.335227 1.628413-10.619318 2.076652-15.948864-3.597261 2.40341-12.579065 8.397728-12.579065 8.397728-.590087.392045-1.390109.232954-1.787283-.357955-.3915-.590909-.23263-1.392045.357457-1.789773l14.309608-9.551136c.261-4.017045.41987-8.085227.41987-12.295454 0-1.488637-.090783-2.960228-.124826-4.443182-3.5235 2.789772-13.373413 10.607954-13.373413 10.607954-.561717.443182-1.373087.352273-1.809978-.204545-.442566-.5625-.351783-1.375.209934-1.8125l14.882674-11.8125c-.255326-6.284091-.834065-12.511364-1.702174-18.670455l-11.472652 11.488637c-.504978.5-1.316348.5-1.821326 0-.499304-.505682-.499304-1.323864 0-1.829546l12.845739-12.857954c-.771652-4.846591-1.730543-9.647728-2.871-14.392046l-3.858261 3.863637c-.499304.5-1.316347.5-1.821326 0-.504978-.505682-.504978-1.318182 0-1.823864l4.930631-4.9375c-1.095065-4.278409-2.326305-8.505682-3.727761-12.681818-2.797239 2.806818-11.971957 11.994318-11.971957 11.994318-.504978.5-1.316347.5-1.821326 0-.499304-.505682-.499304-1.318182 0-1.823864l12.891131-12.909091c-1.526283-4.329545-3.2625-8.568181-5.100848-12.761363-2.717804 2.659091-11.415913 11.170454-11.415913 11.170454-.510652.5-1.327696.488637-1.821326-.017045-.499305-.511364-.487957-1.329546.017022-1.823864l12.102456-11.840909c-1.543304-3.375-3.177391-6.704545-4.919283-9.982954-2.71213 2.840909-10.786108 11.3125-10.786108 11.3125-.487957.517045-1.305.53409-1.821326.039772-.510653-.488636-.527674-1.306818-.039718-1.818182l11.393218-11.954545c-1.98587-3.613636-4.130609-7.142045-6.360457-10.619318l-10.02013 10.869318c-.482283.522727-1.299326.556818-1.821326.073864-.522-.482955-.556044-1.301137-.073761-1.823864l10.303826-11.170455c.051065-.056818.1305-.045454.181565-.085227-1.787283-2.704545-3.642652-5.363636-5.571783-7.977273l-8.329304 12.517046c-.397174.590909-1.197196.75-1.787283.357954-.59576-.397727-.75463-1.198863-.357456-1.789772l8.828609-13.272728c-.323413-.426136-.635479-.863636-.970239-1.295454-.272348-.153409-.44824-.403409-.544696-.721591-1.095065-1.397727-2.241196-2.755682-3.381652-4.130682l-7.1604786 13.573864c-.3290869.630682-1.106413.869318-1.7362174.539773-.6298043-.335228-.8737826-1.113637-.5390217-1.744319l7.6484347-14.494318c-.113478-.125-.221283-.261363-.334761-.392045-.431217-.159091-.794348-.448864-.868108-.931818-.005674-.022728.022695-.045455.022695-.073864-.862435-.982955-1.736217-1.948864-2.6156737-2.914773l-5.5263913 13.590909c-.266674.659091-1.0213044.977273-1.6794783.710228-.6581739-.267046-.975913-1.022728-.7035652-1.681819l5.9689565-14.681818c-1.7248696-1.829545-3.461087-3.6534089-5.2710652-5.4204544l-5.7590218 13.6420454c-.2893695.653409-1.038326.960227-1.690826.681818-.6525-.284091-.9588913-1.034091-.6808696-1.6875l6.1391739-14.5284088c-1.8723913-1.784091-3.7561304-3.5454546-5.7079565-5.2556819-1.1461305 3.5227273-4.6015435 14.0965907-4.6015435 14.0965907-.2212826.676137-.9475435 1.045455-1.6227391.823864-.6808696-.221591-1.0496739-.948864-.8283913-1.625l4.9306304-15.096591c-.6014348-.5113637-1.2085435-1.0284091-1.8213261-1.5397728-21.0615652 21.7443178-37.2435652 48.2613638-46.7133261 77.8011368l-20.7608478 22.022727c17.8444565-100.2897728 105.3645657-176.4375001 210.6440217-176.4375001 118.164913 0 213.963261 95.9318181 213.963261 214.2670451l.136174.357955c.096456 5.528409-.731935 21.448864-3.716413 27.619318-10.377587 21.409091-26.746826 39.323864-33.464739 45.045455zm-17.101174 22.193181-3.2625 8.971591h-2.2185l-3.16037-8.971591h-.051065v8.971591h-2.303609v-11.278409h3.983087l2.627022 7.369318h.051065l2.734826-7.369318h3.954718v11.278409h-2.303609v-8.971591zm-22.145283-.301136v-2.005682h9.095283v2.005682h-3.398674v9.272727h-2.303609v-9.272727zm-48.829696-13.414773c-.068086-.710227.453914-1.340909 1.157479-1.409091l5.724978-.573863c.703565-.068182 1.33337.443182 1.40713 1.153409.068087.704545-.442565 1.340909-1.151804 1.409091l-5.724978.573863c-.703565.073864-1.33337-.443181-1.412805-1.153409zm-19.172152-31.573863c-1.214217.443182-4.238413 2.0625-6.581739 3.545454-4.720695-5.375-21.322565-16.892045-30.196565-19.977272-.136174-.045455 2.24687-3.176137 2.24687-3.176137 9.157695 3.721591 30.951195 16.386364 34.389586 19.539773zm-67.916739-132.534091c13.015957-9.022727 44.5005-16.789773 72.677152-1.573864 20.7495 11.204546 35.768348 29.653409 40.057826 56.585227l-15.739434 9.02841c-14.871326-16.909091-28.324174-26.931819-38.622326-32.09091-10.303827-5.15909-34.338522-15.47159-57.227087-16.619318zm-82.18663 151.823863c.550369.448864.629804 1.255682.181565 1.806819-.453913.556818-1.265283.630681-1.815652.1875l-3.143348-2.579546c-.55037-.448863-.635478-1.261363-.181565-1.8125.448239-.556818 1.259608-.630682 1.809978-.181818zm5.361848 5.460228c.385826-.602273 1.180173-.778409 1.781608-.392046l2.848305 1.829546c.59576.380682.771652 1.181818.385826 1.778409-.385826.602273-1.180174.778409-1.775935.386363l-2.848304-1.829545c-.595761-.380682-.771653-1.176136-.3915-1.772727zm-9.708066 11c.476609-.528409 1.287979-.568182 1.821326-.090909l6.008674 5.448863c.527674.477273.567392 1.284091.090783 1.818182-.476609.528409-1.293652.568182-1.821326.090909l-6.008674-5.443182c-.527674-.471591-.567391-1.295454-.090783-1.823863zm85.063305 129.159091c-23.665892 0-46.412609-3.909091-67.689783-11.011364-7.364739 14.4375-13.923783 27.823864-17.708283 36.579545-2.655391 6.147728-3.285195 8.931819-.646826 12.034091.510653.596591 1.327696 2.090909 1.46387 2.636364.55037 2.107955-1.844022 4.840909-3.109304 5.670455-2.615674 1.710227-8.24987 2.142045-18.360783-2.5-10.116587-4.636364-12.6585-10.27841-12.81737-13.40341-.07376-1.511363.726261-5.056818 2.757522-5.852272.516326-.210228 2.201478-.426137 2.990152-.363637 4.051174.318182 6.269674-2.318181 9.679696-8.090909 4.834174-8.181818 11.580457-20.159091 18.752283-33.176136-75.8942613-32.795455-129.0645004-108.301136-129.2630873-196.284091 0 .125-.0283696.238636-.0283696.363636l.0170217-.863636c0 .164773.0113479.329545.0113479.5.3971739-19.852273 11.745-35.971591 17.7820434-46.471591 7.4158044-12.886364 30.8206957-40.068182 52.3588696-21.863636 26.9794563 22.795454-46.3218261 92.903409-27.603587 105.846591 9.4300435 6.528409 25.9297826-2.221591 36.086087-11.755682l31.5185873-58.715909 17.844456-.5-76.9779781 145.511363c6.071087 8.659091 12.8400652 16.778409 20.1423913 24.352273.068087.017046.1361739-.022727.198587-.005682l7.4385 2.863637c.261.102272.4822826.289772.6298043.522727l.1758913.289773c1.9234565-1.778409 3.6993913-3.6875 5.5434131-5.539773-.0170218-.022727-.0794348-.085227-.0907826-.096591-.6695218-.193182-11.3705218-3.329545-11.3705218-3.329545-.5617174-.164773-.9248478-.676137-.9248478-1.238637 0-.119318.0113478-.238636.0510652-.363636.198587-.6875.9135-1.073864 1.5943696-.875l11.7336522 3.443182c.2326304.0625.4425652.198863.6014347.375l.2326305.267045c1.5603261-1.619318 3.1149781-3.244318 4.6128911-4.926136-.062413-.068182-.192913-.198864-.215609-.221591-.62413-.193182-12.8400647-3.920455-12.8400647-3.920455-.5560435-.164772-.9135-.676136-.9135-1.232954 0-.119318.0226956-.25.062413-.375.2042609-.676137.9248478-1.0625 1.6000435-.852273l13.1634782 4.005682c.215609.0625.408522.1875.561717.352273l.255327.267045c2.377369-2.738636 4.743391-5.5 6.950543-8.386364-.085109-.125-.23263-.323863-.266674-.380681-1.061022-.102273-13.1578043-1.369319-13.1578043-1.369319-.6638478-.073863-1.1518043-.625-1.1518043-1.284091 0-.039772 0-.085227.0056739-.130681.0737609-.710228.7035652-1.221591 1.4128044-1.147728l13.7365433 1.4375c.368804.034091.703565.232955.919174.528409l.085109.125c1.883739-2.545454 3.75613-5.09659 5.509369-7.75-3.466761-.40909-12.794674-1.505681-12.794674-1.505681-.6525-.079546-1.134782-.630682-1.134782-1.278409 0-.051137 0-.102273.005674-.15341.085108-.710227.726261-1.215909 1.429826-1.130681l14.059956 1.653409c1.503587-2.357955 2.888022-4.806818 4.289479-7.244318l-10.893913-1.011364c-.703566-.068182-1.225566-.693182-1.163153-1.403409.068087-.710227.697892-1.232955 1.401457-1.164773l12.10813 1.125c.164544-.289773.346109-.556818.504979-.846591.034043-.039773.017021-.107954.056739-.153409.011348-.017045.034043-.011364.051065-.022727.158869-.301137.351783-.568182.510652-.863637.340435-.630681 1.117761-.869318 1.741891-.522727.629805.335227.862435 1.119318.527674 1.744318-.062413.113637-.136174.221591-.198587.329546l10.059848 9.284091c.522.482954.556044 1.301136.073761 1.823863-.482283.522728-1.299326.556819-1.821326.073864l-9.657-8.903409c-1.753239 3.119318-3.55187 6.215909-5.469652 9.221591l8.998826 11.403409c.442565.556818.346109 1.369318-.209935 1.8125-.561717.443182-1.373087.340909-1.809978-.210227 0 0-6.088109-7.715909-8.459805-10.721591-1.951826 2.960227-4.028478 5.806818-6.139173 8.636363l7.489565 10.551137c.414195.579545.278022 1.380682-.300718 1.795454-.584413.414773-1.384434.272728-1.79863-.306818 0 0-4.374587-6.159091-6.973239-9.818182-2.139065 2.772728-4.454022 5.409091-6.751957 8.051137l7.6995 8.159091c.487957.522727.465261 1.335227-.051065 1.823863-.516326.488637-1.333369.465909-1.821326-.051136 0 0-4.715022-5-7.500913-7.954546-1.514935 1.698864-3.10363 3.335228-4.6866522 4.971591l6.6498262 7.545455c.470935.534091.419869 1.352273-.113478 1.818182-.533348.471591-1.344718.420454-1.815653-.107955 0 0-4.0908909-4.642045-6.5476952-7.431818-1.9007609 1.914773-3.7391087 3.897727-5.7306522 5.727273-.0453913.039772-.0737609.068181-.1191522.102272l4.1533044 6.653409c.1475217.238637.1418478.505682.1248261.761364 15.5408481 13.335227 33.0051521 24.3125 51.7631091 32.403409 11.154913-20.511363 22.111239-41.227273 27.626282-52.454545 2.939087-5.994318 12.329413-24.403409 23.0985-47.147728-5.3505 4.102273-16.357891 9.471591-19.177826 5.09091-5.861152-9.125 12.057065-23.602273 8.669739-27.647728-2.042608-2.426136-10.457022 3.909091-17.32813 11.829546 0 0-3.818544 7.323863-9.015848 16.556818l-12.232957.113636c-.748956-.573863 15.55787-24.471591 12.391827-27.255682-4.499414-3.931818-30.877435 38.761364-43.274935 29.698864-1.044-.767045-3.841239-3.943182-.113479-11.920454-5.549086 7.335227-19.0359778 13.272727-24.7098908 8.34659-12.1875652-10.579545 20.8913478-46.045454 34.2250438-33.755681 1.049674.960227 1.424152 1.892045 1.350391 2.636363l1.787283-2.829545 12.068413-.107955c-5.486674 14.772728-16.851522 28.147728-13.935131 30.25 5.072478 3.647728 34.242065-41.125 44.171413-31.369318 3.086609 3.034091 2.871 7.011364 2.070978 9.170455 7.035653-7.346591 21.878609-14.426137 26.684414-9.4375 5.838456 6.068181-11.93224 23.971591-8.01724 26.477272 1.59437 1.017046 5.549087-1.386363 7.659783-2.823863 8.408739-18 17.282739-38.022728 24.471587-56.625-.368804-.164773-15.665674-6.880682-30.162522-12.539773-16.879891-6.590909-34.3215-24.920455-30.043369-46.420455 5.038434-25.318181 37.305978-25.823863 51.791478-26.931818 4.119261-.3125 6.774652 1.034091 0 1.721591-7.648435.772727-11.733652 1.142046-19.172152 4.579546 18.026021-.568182 50.554565 5.755681 77.114152 19.056818 19.450174 9.744318 40.630891 25.522727 52.784413 37.965909 6.173217 6.3125 8.38037 7.409091 3.727761-1.431818-.890805-1.6875-1.900761-3.289773-4.005783-6.017046-2.967456-3.840909-7.222891-10.107954 1.713522-1.721591 9.157696 8.596591 20.817587 30.517046 15.086935 57.448864 0 0-.096457 1.460227-.272348 2.198864-.15887.198863-5.532065 2.397727-7.506587 3.801136 2.76887-5.823864 5.032761-13.170455 4.993043-21.329545-.85676-13.34091-3.143347-17.568182-16.204695-30.1875-11.393218-11.005682-34.576826-27.875-51.893609-36.573864-39.967043-20.073864-100.138891-30.630682-104.150348 1.431818-2.417087 19.318182 16.023131 33.528409 26.326957 37.539773 7.926456 3.085227 22.888565 8.022727 31.473195 12.602273l-1.344717 4.130681c1.866717-4.846591 3.648326-9.625 5.225674-14.198863.556043-1.607955 1.01563-3.102273 1.526283-4.664773-.482283 1.4375-.981587 2.886364-1.509261 4.397727-14.491174-9.681818-23.002044-20.090909-19.064348-27.607954 7.308-13.954546 30.11713-11.602273 53.941891.113636 23.836109 11.715909 39.950022 29.505682 33.215087 42.3125-3.988761 7.590909-17.645869 7.443182-34.304478 1.875-.02837.039773-.051065.073864-.085109.113636-23.870152 33.232955-60.13213 93.40341-73.743848 117.198864-6.071087 10.619318-16.8345 30.517046-27.302869 50.619318 19.189174 6.284091 39.399652 9.647728 60.012978 9.471591 57.601565-.5 109.393044-24.005682 145.745804-62.369318l-7.966174 5.460227c-.584413.403409-1.384434.25-1.781608-.335227-.15887-.221591-.232631-.471591-.232631-.727273 0-.414772.198587-.818182.561718-1.068182 0 0 5.316456-3.636363 8.425761-5.767045-1.707848-1.147727-3.495131-2.511364-5.361848-4.0625l-11.920892 7.954545c-.59576.397728-1.390108.232955-1.792956-.352272-.385826-.596591-.23263-1.397728.36313-1.789773 0 0 9.537848-6.375 11.359174-7.539773-.992934-.869318-1.991543-1.772727-3.007174-2.721591-.323413.051137-.669521-.017045-.958891-.232954-.351783-.255682-.470935-.647727-.465261-1.056818-.107804.204545-.198587.420454-.408522.556818l-12.590413 7.443182c-.607108.369318-1.40713.159091-1.758913-.448864-.368804-.613636-.164543-1.403409.453913-1.772727l12.590413-7.443182c.011348-.011364.034044 0 .051066-.011364-1.225566-1.221591-2.462479-2.477272-3.699392-3.767045l-14.627347 6.630682c-.646827.301136-1.407131.011363-1.707848-.636364-.28937-.653409 0-1.414773.646826-1.704545 0 0 10.837174-4.914773 13.895413-6.21591-1.685152-1.795454-3.358957-3.636363-4.998718-5.5-.158869.170455-.351782.306819-.567391.375l-13.736543 4.005682c-.68087.198864-1.395783-.1875-1.59437-.880682-.039717-.113636-.051065-.238636-.051065-.352272 0-.5625.368804-1.073864.924848-1.244318 0 0 12.374804-3.613637 13.299652-3.880682-1.787283-2.079546-3.540522-4.147728-5.208652-6.1875l-16.840174.5625c-.714913.022727-1.305-.534091-1.327696-1.244318-.028369-.710228.533348-1.3125 1.242587-1.335228l14.90537-.5c-2.717805-3.403409-5.197305-6.653409-7.262609-9.534091l-12.522326 2.278409c-.697891.125-1.373087-.335227-1.492239-1.039772-.017022-.073864-.022696-.153409-.022696-.232955 0-.607954.431218-1.153409 1.049674-1.261363 0 0 8.590304-1.568182 11.359174-2.073864-1.560326-2.267046-2.836957-4.261364-3.665348-5.778409-.346109-.625-.124826-1.409091.504978-1.755682.624131-.340909 1.401457-.113636 1.741892.511364.817043 1.477272 2.042608 3.397727 3.540521 5.585227 1.282305-1.278409 3.012848-3.011364 3.012848-3.011364.493631-.505682 1.316348-.505682 1.815652 0 .504979.5.504979 1.323864 0 1.823864l-3.324913 3.335227c1.861044 2.613637 4.068196 5.539773 6.502305 8.625l7.54063-8.568182c.470935-.528409 1.282305-.585227 1.815652-.113636.533348.471591.584413 1.284091.107805 1.818182l-7.835674 8.903409c1.912108 2.375 3.937695 4.8125 6.042717 7.255682 2.570283-3.0625 7.290978-8.676137 7.290978-8.676137.453913-.539772 1.265283-.607954 1.809979-.153409.544695.460228.618456 1.278409.153195 1.818182l-7.551978 8.982955c1.719196 1.960227 3.472435 3.886363 5.237022 5.778409 2.229848-2.772728 7.200195-8.954546 7.200195-8.954546.442566-.551136 1.253935-.636363 1.809979-.1875.550369.443182.641152 1.25.198587 1.806818 0 0-5.044109 6.261364-7.483892 9.1875 1.628413 1.698864 3.251153 3.306819 4.85687 4.875l8.017239-11.045454c.414196-.573864 1.225565-.698864 1.798631-.278409.578739.414773.697891 1.221591.283695 1.801136l-8.2215 11.318182c.998609.931818 1.980196 1.806818 2.950435 2.659091 2.275239-2.767046 6.666848-8.107955 6.666848-8.107955.448239-.556818 1.265282-.630681 1.815652-.176136s.629804 1.261364.175891 1.8125c0 0-4.312174 5.238636-6.717913 8.130682 2.076652 1.721591 4.068196 3.215909 5.917892 4.397727.431217-.869318 3.801521-7.619318 3.801521-7.619318.312065-.642046 1.089392-.897727 1.730544-.573864.629804.3125.896478 1.085228.573065 1.727273l-2.967457 5.943182c16.567827-18.659091 29.583783-40.573864 38.020892-64.920455 0 0 15.869935-14.090909 21.884282-23.551136 0 0-.919174 4.210227-1.781608 7.653409-22.718348 93.897727-107.208587 163.636364-207.954587 163.636364zm-.022696-438.88636403c-123.804783 0-224.522413 100.85795503-224.522413 224.83522703 0 86.1875 47.9105217 163.323864 125.041696 201.5625-.323413.636364-1.066696 2.085228-1.066696 2.085228-3.580239 7-11.035761 21.568181-13.316674 22.636363l-4.215717 1.318182c-2.076652.5-4.221392 1.017045-6.116479 2.477273-2.0369343 1.568182-5.1632604 7.505682-5.1632604 10.568182l-.1531957 1.051136c-.1758913.914773-.4198696 2.193182-.4198696 3.755682 0 4.982954 2.4568044 12.857954 17.4132387 21.142045.017022.011364 3.024196 1.596591 3.024196 1.596591 20.352326 9.596591 27.461739 2.0625 30.134152-.767045l.760305-.744319c2.473826-1.789772 5.458304-7.801136 5.532065-10.375.005674-.085227.005674-.1875.005674-.28409 0-2.267046-.800022-4.227273-1.583022-6.125l-1.395783-4.198864c-.011347-.0625-.017021-.125-.017021-.198864 0-2.852272 7.824326-17.914772 11.637195-25.25 0 0 1.662457-3.215909 2.184457-4.221591 20.142391 5.8125 41.067782 8.806819 62.237152 8.806819 123.804783 0 224.522413-100.863637 224.522413-224.835228 0-123.977272-100.71763-224.83522703-224.522413-224.83522703z" mask="url(#a)"/></g><path d="m242.23637 281.205881c-.068087.028409-.147522.045454-.215609.073863l-4.834174 7.767046z" fill="#d72331"/><path d="m234.996457 219.626335c.175891-.573863 1.061021-1.960227 1.792956-3.045454 2.933413-4.363637 12.737935-5.261364 21.867261-.948864 9.191739 4.335227 15.739435 14.551136 13.135109 21.227273 0 .005682 0 .011363-.011348.017045 0 .022727 0 .039773-.011348.0625-.476609 1.221591-1.429826 2.846591-1.787283 3.323864-1.469543 1.954545-3.012847 4.056818-4.601543 6.272727 16.658609 5.568182 30.315717 5.715909 34.304478-1.875 6.734935-12.806818-9.378978-30.596591-33.215087-42.3125-23.824761-11.715909-46.633891-14.068182-53.941891-.113636-3.937696 7.517045 4.573174 17.926136 19.064348 27.607954.527674-1.511363 1.026978-2.960227 1.509261-4.397727.436891-1.323864.890804-2.659091 1.287978-3.943182.198587-.625.414195-1.25.607109-1.875" fill="#253666"/><path d="m257.153087 258.489972c8.874 3.085227 25.47587 14.602272 30.196565 19.977272 2.343326-1.482954 5.367522-3.102272 6.581739-3.545454l-.141848-.068182c-3.438391-3.153409-25.231891-15.818182-34.389586-19.539773 0 0-2.383044 3.130682-2.24687 3.176137" fill="#253666"/><path d="m379.085478 304.330881c-6.485282-.323864-7.489565-6.460228-6.190239-7.886364.3915.392045 7.932131.102273 7.983196-7.215909 2.360348-1.619318 4.856869-3.5625 7.109413-5.738636.073761.630681.141848 1.272727.306391 1.886363 1.424152 5.284091 1.588696 19.5-9.208761 18.954546zm-73.783565-25.789773c1.605717 3.659091-7.994543 11.659091-17.572109 12.903409 2.070979-8.784091 15.313892-18.028409 17.572109-12.903409zm50.378674-2.619318c2.814261 3.926136-6.984587 12.642045-17.889848 13.073863.754631-6.795454 14.389044-17.977272 17.889848-13.073863zm-1.583022-194.1136367c1.106413-1.3295454 2.190131-2.5965909 3.188739-3.7102272 2.717805 2.4488636 5.361848 4.9715909 7.937805 7.5681818-2.774544-.9602273-8.323631-2.8863637-11.126544-3.8579546zm84.263283 143.5454547-.136174-.357955c0-118.335227-95.798348-214.2670451-213.963261-214.2670451-105.279456 0-192.7995652 76.1477273-210.6440217 176.4375001l20.7608478-22.022727c9.4697609-29.539773 25.6517609-56.056819 46.7133261-77.8011368.6127826.5113637 1.2198913 1.0284091 1.8213261 1.5397728l-4.9306304 15.096591c-.2212826.676136.1475217 1.403409.8283913 1.625.6751956.221591 1.4014565-.147727 1.6227391-.823864 0 0 3.455413-10.5738634 4.6015435-14.0965907 1.9518261 1.7102273 3.8355652 3.4715909 5.7079565 5.2556819l-6.1391739 14.5284088c-.2780217.653409.0283696 1.403409.6808696 1.6875.6525.278409 1.4014565-.028409 1.690826-.681818l5.7590218-13.6420454c1.8099782 1.7670455 3.5461956 3.5909094 5.2710652 5.4204544l-5.9689565 14.681818c-.2723478.659091.0453913 1.414773.7035652 1.681819.6581739.267045 1.4128043-.051137 1.6794783-.710228l5.5263913-13.590909c.8794567.965909 1.7532387 1.931818 2.6156737 2.914773 0 .028409-.028369.051136-.022695.073864.07376.482954.436891.772727.868108.931818.113478.130682.221283.267045.334761.392045l-7.6484347 14.494318c-.3347609.630682-.0907826 1.409091.5390217 1.744319.6298044.329545 1.4071305.090909 1.7362174-.539773l7.1604786-13.573864c1.140456 1.375 2.286587 2.732955 3.381652 4.130682.096456.318182.272348.568182.544696.721591.33476.431818.646826.869318.970239 1.295454l-8.828609 13.272728c-.397174.590909-.238304 1.392045.357456 1.789772.590087.392046 1.390109.232955 1.787283-.357954l8.329304-12.517046c1.929131 2.613637 3.7845 5.272728 5.571783 7.977273-.051065.039773-.1305.028409-.181565.085227l-10.303826 11.170455c-.482283.522727-.448239 1.340909.073761 1.823864.522.482954 1.339043.448863 1.821326-.073864l10.02013-10.869318c2.229848 3.477273 4.374587 7.005682 6.360457 10.619318l-11.393218 11.954545c-.487956.511364-.470935 1.329546.039718 1.818182.516326.494318 1.333369.477273 1.821326-.039772 0 0 8.073978-8.471591 10.786108-11.3125 1.741892 3.278409 3.375979 6.607954 4.919283 9.982954l-12.102456 11.840909c-.504979.494318-.516327 1.3125-.017022 1.823864.49363.505682 1.310674.517045 1.821326.017045 0 0 8.698109-8.511363 11.415913-11.170454 1.838348 4.193182 3.574565 8.431818 5.100848 12.761363l-12.891131 12.909091c-.499304.505682-.499304 1.318182 0 1.823864.504979.5 1.316348.5 1.821326 0 0 0 9.174718-9.1875 11.971957-11.994318 1.401456 4.176136 2.632696 8.403409 3.727761 12.681818l-4.930631 4.9375c-.504978.505682-.504978 1.318182 0 1.823864.504979.5 1.322022.5 1.821326 0l3.858261-3.863637c1.140457 4.744318 2.099348 9.545455 2.871 14.392046l-12.845739 12.857954c-.499304.505682-.499304 1.323864 0 1.829546.504978.5 1.316348.5 1.821326 0l11.472652-11.488637c.868109 6.159091 1.446848 12.386364 1.702174 18.670455l-14.882674 11.8125c-.561717.4375-.6525 1.25-.209934 1.8125.436891.556818 1.248261.647727 1.809978.204545 0 0 9.849913-7.818182 13.373413-10.607954.034043 1.482954.124826 2.954545.124826 4.443182 0 4.210227-.15887 8.278409-.41987 12.295454l-14.309608 9.551136c-.590087.397728-.748957 1.198864-.357457 1.789773.397174.590909 1.197196.75 1.787283.357955 0 0 8.981804-5.994318 12.579065-8.397728-.448239 5.329546-1.112087 10.613637-2.076652 15.948864l-15.989087 6.511364c-.663848.267045-.975913 1.022727-.709239 1.681818s1.01563.977273 1.673804.710227c0 0 10.105239-4.119318 14.462805-5.892045-.635479 3.227272-1.33337 6.482954-2.173109 9.823863-.017022.079546.034043.147728.034043.215909-.017021.176137.011348.306819.068087.471591.051065.170455.107805.289773.215609.420455.051065.056818.039717.147727.10213.193182l8.868326 7.454545c.544696.454546 1.356066.386364 1.815653-.159091.459587-.551136.385826-1.357954-.15887-1.8125l-8.266891-6.954545c.845413-3.420455 1.594369-6.784091 2.229848-10.102273 3.432717 1.443182 16.443 6.909091 16.443 6.909091.658174.267045 1.412804-.039773 1.690826-.693182.272348-.659091-.039718-1.414773-.692218-1.6875l-16.999043-7.136363c.970239-5.477273 1.651109-10.909091 2.093674-16.392046 3.932021 1.585227 15.926674 6.431818 15.926674 6.431818.658174.267046 1.40713-.051136 1.673804-.715909.266674-.659091-.051065-1.409091-.709239-1.676136l-16.647261-6.721591c.261-4.056818.41987-8.176136.41987-12.426136 0-1.607955-.096457-3.204546-.136174-4.806819 4.300826 1.823864 16.811804 7.136364 16.811804 7.136364.6525.278409 1.412804-.022727 1.685152-.681818.278022-.653409-.022695-1.420455-.686543-1.6875l-17.889848-7.602273c-.243978-6.170454-.794348-12.284091-1.622739-18.329545l15.444391 5.414772c.669522.232955 1.401457-.119318 1.639761-.789772.23263-.676137-.119152-1.414773-.794348-1.647728l-16.698326-5.852272c0-.028409-.005674-.0625-.011348-.090909.073761-.3125.034044-.59091-.124826-.875-.760304-4.806819-1.690826-9.5625-2.802913-14.261364l16.596196 4.346591c.692217.181818 1.395782-.232955 1.577348-.920455.181565-.693182-.232631-1.397727-.919174-1.573863l-17.997653-4.715909c-1.129108-4.448864-2.405739-8.852273-3.852587-13.1875 4.890914.40909 18.264327 1.522727 18.264327 1.522727.709239.0625 1.333369-.465909 1.390108-1.176137.062413-.710227-.465261-1.335227-1.1745-1.392045l-19.336695-1.613636c-1.531957-4.357955-3.273848-8.636364-5.11787-12.869319 4.66963.284091 16.828826 1.011364 16.828826 1.011364.714913.039773 1.322022-.5 1.361739-1.210227.045392-.715909-.49363-1.323864-1.208543-1.363637l-18.16787-1.085227c-1.566-3.4375-3.217108-6.823863-4.981695-10.159091 4.612891-.125 17.957934-.505682 17.957934-.505682.703566-.022727 1.253935-.59659 1.253935-1.289772v-.039773c-.022696-.710227-.612782-1.272727-1.322022-1.25l-19.206195.545455c-1.997218-3.636364-4.141957-7.198864-6.383152-10.704546l18.298369-1.596591c.709239-.0625 1.231239-.6875 1.168826-1.392045-.062413-.710228-.686543-1.238637-1.390108-1.176137l-19.711174 1.715909c-2.27524-3.4375-4.663957-6.806818-7.171826-10.102272l15.716739-2.25c.703565-.096591 1.191521-.75 1.089391-1.454546-.096457-.704545-.748957-1.193182-1.458196-1.096591l-17.112521 2.448864c-1.378761-1.75-2.819935-3.448864-4.261109-5.153409l15.76213-2.465909c.703566-.107955 1.185848-.767046 1.07237-1.471591-.107804-.704546-.765978-1.1875-1.469544-1.073864l-17.311108 2.704546c-1.412805-1.619318-2.876674-3.204546-4.357566-4.784091l12.533674-4.0170457c.675196-.2215909 1.049674-.9431818.834066-1.625-.221283-.6761363-.94187-1.0511363-1.62274-.8352272l-13.7081734 4.3977272c-.981587-1.0170454-1.9404783-2.0511363-2.9447609-3.0511363l12.3464343-4.6363637c.669522-.25 1.004283-.9943181.754631-1.6590909-.249652-.6704545-.992935-1.0056818-1.656783-.7556818l-13.5266084 5.0795455c-2.0312609-1.9659091-4.0965652-3.9034091-6.2299565-5.7840909 3.9206739-1.4545455 13.2202169-4.9034091 13.2202169-4.9034091.516327-.1931819.83974-.6818182.83974-1.2102273 0-.1477273-.02837-.2954546-.079435-.4431818-.249652-.6704546-.992935-1.0113637-1.6567828-.7670455l-14.5819565 5.4090909c-.6298044-.5340909-1.2482609-1.0625-1.8837391-1.5909091 36.0520434-36.2613636 85.9427604-58.7215909 141.0818474-58.7215909 50.350305 0 96.309 18.7670455 131.368109 49.6363637-1.095065 1.2272727-2.269565 2.5965909-3.478109 4.0454545-1.77026-2.5340909-7.234239-10.3522727-7.234239-10.3522727-.414195-.5852273-1.208543-.7272727-1.79863-.3181818-.578739.4090909-.720587 1.2159091-.312065 1.8011363l7.637087 10.9261364c-1.49224 1.8295454-2.990153 3.6818182-4.351892 5.4204545-2.2185-2.2784091-9.906652-9.9829545-9.906652-9.9829545-.499304-.5-1.322022-.5-1.821326 0-.504978.5056818-.504978 1.3238636 0 1.8295454l10.144957 10.159091c-.975914 1.2556818-1.889414 2.4204545-2.61 3.3465909-16.800457-11.5625-36.908805-18.4829546-58.395914-18.4829546-22.298478 0-42.951521 7.0511364-59.859782 19.0454546-.238304.1704545 1.844022 33.7670459 2.558935 45.2159089 3.063913-1.676136 6.286695-3.090909 9.577565-4.357954l-.794348-41.0852277c4.153304-3.2954545 9.798848-6.0170454 14.162087-7.5909091l-.930522 44.9659088c5.083826-1.034091 10.33787-1.585227 15.716739-1.585227 1.656783 0 3.268174.147727 4.896587.25l8.2215-49.5056818c10.581848-1 21.163696.1420455 30.474587 3.1534091l-19.228891 50.0056817c8.84563 2.886364 16.976348 7.3125 24.1425 12.9375l34.043478-43.409091c7.364739 6.431818 13.225892 12.636364 18.967892 21.670455l-39.740087 34.931818c4.164652 5.267045 7.688152 11.0625 10.417304 17.284091l40.959978-28.392046c.817044 1.607955 3.166044 11.46591 2.791565 14.352273l-39.74576 25.715909c.680869 2.613637 1.236913 5.278409 1.645434 7.988637 9.929348-5.642046 46.140261-26.25 46.162957-26.551137-3.097957-30.511363-19.881391-57.664772-43.927435-75.0738634.703565-.9034091 1.622739-2.0852273 2.63837-3.3863636 3.211434 1.5681818 10.962 5.2670454 10.962 5.2670454.641152.3011364 1.40713.0284091 1.719195-.6136363.073761-.1761364.119152-.3693182.119152-.5511364 0-.4829545-.272347-.9431818-.731934-1.1647727 0 0-7.234239-3.4488637-10.451348-4.9829546 1.367413-1.7329545 2.853978-3.5852272 4.346217-5.4147727l13.708174 4.7556818c.590087.2045455 1.163152-.0909091 1.475218-.6079545 34.372565 35.835227 55.541934 84.460227 55.541934 138.068182l.124826.159091c-1.287978 36.892045-8.459804 52.892045-21.543847 62.551136-.57874-3.710227-1.821326-6.982954-2.785892-8.977273-2.002891-4.113636-1.095065-4.335227.278022-5.681818 7.381761-6.357954 8.879674-12.835227 6.150522-14.789773-3.988761-2.84659-15.251478 6.221591-16.675631 14.931819-.215608 1.301136-.425543 2.676136-.584413 4.073863-2.428434 2.869318-5.588804 5.494318-8.58463 7.613637-4.181674-3.835228-13.112413.488636-13.696826 8.380681-8.198805 4.5625-14.803239 7.051137-20.891348 7.107955-7.444174.073864-9.396-4.346591-8.011565-8.369318.056739-.170455-.164544.051136.49363-.005682 14.536565-1.125 31.694478-9.5 28.908587-19.295455-3.166043-11.1875-37.720174 2.198864-43.626717 18.073864-10.196022 8.704546-20.789218 11.653409-27.995087 11.721591-7.432826.068182-9.396-4.346591-8.011565-8.369318.068087-.170455-.164544 0 .499304-.005682 15.869935-.147727 35.115848-9.4375 31.053326-19.818182-4.709348-12.039773-38.321609 2.068182-45.158674 18.096591-5.146239 6.835227-14.440109 13.454546-17.685587 13.028409-7.461196-.977273-.249652-9.102273-7.54063-10.4375 9.577565-1.585227 23.376521-10.147727 20.482826-20.056818-2.076652-7.085227-14.428761-5-21.997761-1.113636l-4.022804 6.25c4.964673-1.988637 13.118087-3.130682 14.496847-.0625 2.360348 5.278409-10.468369 12.011363-21.549521 11.125l2.002891-3.221591-5.027087 7.806818c2.729152-.198864 4.391609.017045 5.390217.852273 3.642653 3.073863-2.893695 10.204545 4.278131 15.6875 4.295152 3.289772 17.339478-.829546 29.470304-11.857955l.504978-2.0625c.05674 1.460227.351783 2.926136 1.009957 4.357955 5.276739 11.573863 30.128478 7.335227 48.999913-6.238637.147522 1.380682.522 2.755682 1.219891 4.119318 5.151913 10.039773 26.241848 7.232955 43.235218-2.988636.380152 1.25.896478 2.545455 1.730543 3.886364 1.991544 3.232954 6.808696 6.096591 11.109522 6.823863 6.734935 1.147728 14.837283.278409 19.569326-6.136363 1.242587-1.676137 1.98587-3.460228 2.502196-5.278409 6.717913-5.721591 23.087152-23.636364 33.464739-45.045455 2.984478-6.170454 3.812869-22.090909 3.716413-27.619318z" fill="#d72331"/><path d="m148.236652 433.433153-.204261.375c0 .085228 0 .159091.005674.25-.124826-.102272-.045391.181819-.164543.079546.039717.153409-.011348.318182-.102131.397727-.187239.176136-.204261.301136-.295043.522727-.005674.011364.073761.085228.034043.119319-.158869.136363-.124826.369318-.266674.545454-.187239.25-.748956.420455-.907826.721591.380152-.767045.771652-1.534091 1.185848-2.073864.317739-.426136.034044-.142045.226957-.556818.1305-.295454.907826-2.460227 1.044-2.784091 3.580239-8.414772 65.170565-117.596591 100.303434-174.664772 8.153413-12.693182 17.532392-27.852273 18.372131-29.193182.499304.409091 1.441174 1.926136 1.350391 3.215909-.085109 1.142045-16.851522 26.147727-17.912543 27.755682-38.332957 58.403409-98.158696 166.818181-102.669457 175.289772zm-2.825609 5.409091c-.045391.153409.039718.352273-.039717.477273-.448239.642045-.414196 1.261364-.641152 1.994318-.02837.090909-.266674.130682-.266674.181818.056739.704546-.783 1.176137-.936196 1.806819-.289369 1.142045-.788674 2.039772-1.225565 3.170454-.034043.079546-.261.107955-.272348.181818-.062413.454546-.539021.619318-.669521 1-.039718.096591.022695.267046-.02837.295455-.28937.204545-.397174.488636-.612783.721591-.079434.090909.017022.318182-.039717.465909-.107804.301136-.374478.534091-.431217.846591-.261 1.375-.692218 2.659091-1.242587 3.846591-.136174.301136-.357457.715909-.238305 1.125-.380152-.011364.113479.539772-.323413.5 0 .329545.085109.6875-.034043.977272-.340435.875-.436892 1.738637-.641152 2.659091-.039718.159091-.261.323864-.249653.505682.034044.704546-.748956 1.284091-.75463 1.994318 0 .607955-.36313 1.005682-.62413 1.636364-.153196.357954-.459587.693182-.714913 1.056818-.380153.545455-1.009957 1.079546-1.310674 1.653409-.096457.1875.340434.511364.119152.613637-.119152.056818-.243978.073863-.306392.198863-.23263.454546.255327 1.096591-.323413 1.323864-.357456 1.227273-1.690826 2.295454-2.070978 3.517045-.1305.403409.408522.909091.238305 1.272728-.425544.90909-.453914 1.573863-.760305 2.517045-.039717.130682-.175891.25-.300717.153409-.136174-.107954-.170218-.284091-.204261-.471591-.022696-.125-.357457-.136363-.317739-.5.147522-1.244318.919174-1.755682 1.225565-2.903409.402848-1.551136.6525-2.914773.936196-4.380682.073761-.397727.226956-.744318.272347-1.170454.017022-.125-.079434-.215909-.068086-.346591.062413-.465909.470934-.818182.351782-1.318182.709239-.880682.522-2.079545 1.253935-3.022727.113478-.142046.465261-.443182.561717-.619318.544696-1.022728.397174-2.02841 1.026979-3.051137.062413-.113636.1305-.0625.187239-.1875.107804-.227273.703565-.653409.771652-.909091.051065-.210227-.249652-.454545-.096457-.698863.051066-.079546-.005674-.215909.02837-.3125.175891-.465909.561717-.823864.714913-1.3125.181565-.573864.380152-1.1875.794348-1.630682.096456-.107955.23263-.244318.243978-.392046.017022-.159091-.141848-.329545.346109-.494318-.039718-.653409.573065-1.022727.731935-1.642045.062413-.278409.408521-.573864.516326-.875.136174-.369318.300717-.727273.385826-1.142046.034043-.130682.153195-.215909.312065-.170454 0-.164773-.045391-.352273.022696-.482955.510652-.982954 1.316347-1.710227 1.628413-2.835227.022695-.079546.23263-.096591.278021-.1875.068087-.130682-.034043-.357955.051066-.460227.601434-.732955.743282-1.551137 1.242587-2.369319.07376-.119318-.017022-.329545.039717-.47159.158869-.414773.431217-.77841.612783-1.181819.056739-.136363-.034044-.346591.039717-.471591.192913-.306818.397174-.579545.584413-.875.357456-.573863.726261-1.340909 1.100739-2.102272-.175891.607954.090783 1.511363-.278022 2.090909-.028369.045454-.561717.068182-.595761.204545zm-18.826043 30.051137c-.641152 2.232954-1.4355 5.551136-2.070978 8.454545-.3915 1.806818-1.344718 2.181818-2.343326 1.8125-.612783-.232954-1.248261-.681818-1.781609-1.113636-.306391-.244318-.720587-.318182-1.20287-.5625-.141847-.068182-.289369.164772-.442565.0625-.243978-.164773-.510652-.676137-.777326-.789773-.402848-.181818-.992935-.551136-1.424152-.767045-.368804-.181819-.686544-.659091-1.004283-.801137-.238304-.102273-.476608.119318-.737608-.017045-.658174-.329546-1.117761-.8125-1.639761-1.107955-.334761-.1875-.924848-.534091-1.112087-.693182-.431218-.363636-.357457-.659091-.204261-.886363.226956-.340909.970239-.528409 1.299326-.573864.36313-.051136 1.622739.409091 3.041217 1.096591 1.146131.545455 2.383044 1.289773 3.347609 1.579545.805696.232955 1.775935.011364 2.2185-.420454.323413-.318182.141848-.738636.170217-1.176136.034044-.568182.522-1.164773.221283-1.579546-.374478-.517045-.748956-.664773-1.117761-.886364-.459587-.272727-.9135-.568181-1.373087-.744318-.828391-.318182-1.1745-1.642045-.181565-1.818182 0 0 .88513-.335227 1.441174-.875.317739-.301136.187239-.670454.561717-1.079545.164544-.1875.618457-.375.748957-.573864.107804-.159091-.119152-.3125.028369-.477272.164544-.159091.073761-.380682.334761-.659091.221283-.232955.788674-.511364 1.009957-.818182.215609-.255682.431217-.528409.658174-.823864 4.522108-5.846591 12.000326-18.943182 18.440217-30.784091-2.961782 5.556819-5.645543 10.6875-6.825717 13.261364-2.490848 5.426136-6.439892 14.818182-8.357674 20.119318-.102131.284091.1305.556818.034043.8125-.482282 1.352273-.828391 2.352273-.958891 2.829546zm-10.536457-4.130682c2.371696-.613637 6.882457-6.346591 7.126435-6.846591.243979-.5.902152-1.005682.578739.073864-.487956 2.488636-2.2185 4.920454-3.642652 6.5-.851087.948863-1.384435 1.585227-2.05963 1.75-1.6965.397727-2.320631-.232955-2.490848-.721591-.005674-.829546.15887-.664773.487956-.755682zm38.412392-55.215909c1.299326-2.255682.164543-.005682.005674.488636-.079435.232955-3.330587 6.176136-7.143457 13.227273 3.438391-6.482955 6.127826-11.710227 7.137783-13.715909zm54.486587-94.852273c3.568891-6.988636 46.531761-79.221591 53.380174-89.545455.312065-1.65909-1.685153-2.795454-1.685153-2.795454-6.797347 11.732954-81.954 139.914773-84.473217 144.778409 3.251152-5.982955 24.948196-49.840909 32.988131-65.352273 8.442782-16.295454 35.83076-83.420454 36.466239-86.403409 7.597369-.238636 15.938021 3.1875 20.414739 9.323864.079435-.164773-1.707848 2.789773-1.707848 2.789773-1.719196 2.630681-30.162522 48.636363-32.72713 53.227272-2.604327 4.659091-68.330935 116.823864-68.330935 116.823864 16.238739-31.596591 42.100435-75.863636 45.675-82.846591zm30.349761-94.954545 1.651108-.352273c-12.862761 38.869318-38.59963 92.971591-43.859348 100.210227 27.529827-52.443182 40.8465-94.789773 42.20824-99.857954zm-151.2438265 147.84659c.0226957.034091.0964565.15341.1361739.210228-.2156087.176136-.4085217.329545-.6184565.5-.5333478-.511364-1.0837174-1-1.6113913-1.517046 1.0156304.392046 1.8610435.715909 2.0936739.806818zm1.7305435 2.772728c-.0737609-.068182-.1418478-.130682-.2156087-.204546.0226957-.017045.0397174-.034091.0567391-.051136.0567392.090909.1021305.164773.1588696.255682zm-53.6071304-189.744318c5.3958913-9.943182 16.8798913-23.068182 27.0532174-21.0625 15.7791521 3.09659 5.6341956 23.715909-7.7619131 47.107954-13.0953913 22.863636-28.9596522 46.880682-16.1876739 60.693182 10.3321957 11.1875 31.4845435 8.647727 44.4210652-4.215909l-31.7795869 59.75c-16.318174-28.380682-25.8616957-61.113637-25.8616957-96.102273-1.5489783-22.255682 4.8738913-36.505682 10.116587-46.170454zm66.4925874 125.255681c-5.8498048-6.488636 16.925282-28.948863 22.270108-22.215909 4.028478 6.5-15.728087 29.482955-22.270108 22.215909zm331.611847-37.329545c-6.014347 9.460227-21.884282 23.551136-21.884282 23.551136-8.437109 24.346591-21.453065 46.261364-38.020892 64.920455l2.967457-5.943182c.323413-.642045.056739-1.414773-.573065-1.727273-.641152-.323863-1.418479-.068182-1.730544.573864 0 0-3.370304 6.75-3.801521 7.619318-1.849696-1.181818-3.84124-2.676136-5.917892-4.397727 2.405739-2.892046 6.717913-8.130682 6.717913-8.130682.453913-.551136.374479-1.357955-.175891-1.8125s-1.367413-.380682-1.815652.176136c0 0-4.391609 5.340909-6.666848 8.107955-.970239-.852273-1.951826-1.727273-2.950435-2.659091l8.2215-11.318182c.414196-.579545.295044-1.386363-.283695-1.801136-.573066-.420455-1.384435-.295455-1.798631.278409l-8.017239 11.045454c-1.605717-1.568181-3.228457-3.176136-4.85687-4.875 2.439783-2.926136 7.483892-9.1875 7.483892-9.1875.442565-.556818.351782-1.363636-.198587-1.806818-.556044-.448863-1.367413-.363636-1.809979.1875 0 0-4.970347 6.181818-7.200195 8.954546-1.764587-1.892046-3.517826-3.818182-5.237022-5.778409l7.551978-8.982955c.465261-.539773.3915-1.357954-.153195-1.818182-.544696-.454545-1.356066-.386363-1.809979.153409 0 0-4.720695 5.613637-7.290978 8.676137-2.105022-2.443182-4.130609-4.880682-6.042717-7.255682l7.835674-8.903409c.476608-.534091.425543-1.346591-.107805-1.818182-.533347-.471591-1.344717-.414773-1.815652.113636l-7.54063 8.568182c-2.434109-3.085227-4.641261-6.011363-6.502305-8.625l3.324913-3.335227c.504979-.5.504979-1.323864 0-1.823864-.499304-.505682-1.322021-.505682-1.815652 0 0 0-1.730543 1.732955-3.012848 3.011364-1.497913-2.1875-2.723478-4.107955-3.540521-5.585227-.340435-.625-1.117761-.852273-1.741892-.511364-.629804.346591-.851087 1.130682-.504978 1.755682.828391 1.517045 2.105022 3.511363 3.665348 5.778409-2.76887.505682-11.359174 2.073864-11.359174 2.073864-.618456.107954-1.049674.653409-1.049674 1.261363 0 .079546.005674.159091.022696.232955.119152.704545.794348 1.164772 1.492239 1.039772l12.522326-2.278409c2.065304 2.880682 4.544804 6.130682 7.262609 9.534091l-14.90537.5c-.709239.022728-1.270956.625-1.242587 1.335228.022696.710227.612783 1.267045 1.327696 1.244318l16.840174-.5625c1.66813 2.039772 3.421369 4.107954 5.208652 6.1875-.924848.267045-13.299652 3.880682-13.299652 3.880682-.556044.170454-.924848.681818-.924848 1.244318 0 .113636.011348.238636.051065.352272.198587.693182.9135 1.079546 1.59437.880682l13.736543-4.005682c.215609-.068181.408522-.204545.567391-.375 1.639761 1.863637 3.313566 3.704546 4.998718 5.5-3.058239 1.301137-13.895413 6.21591-13.895413 6.21591-.646826.289772-.936196 1.051136-.646826 1.704545.300717.647727 1.061021.9375 1.707848.636364l14.627347-6.630682c1.236913 1.289773 2.473826 2.545454 3.699392 3.767045-.017022.011364-.039718 0-.051066.011364l-12.590413 7.443182c-.618456.369318-.822717 1.159091-.453913 1.772727.351783.607955 1.151805.818182 1.758913.448864l12.590413-7.443182c.209935-.136364.300718-.352273.408522-.556818-.005674.409091.113478.801136.465261 1.056818.28937.215909.635478.284091.958891.232954 1.015631.948864 2.01424 1.852273 3.007174 2.721591-1.821326 1.164773-11.359174 7.539773-11.359174 7.539773-.59576.392045-.748956 1.193182-.36313 1.789773.402848.585227 1.197196.75 1.792956.352272l11.920892-7.954545c1.866717 1.551136 3.654 2.914773 5.361848 4.0625-3.109305 2.130682-8.425761 5.767045-8.425761 5.767045-.363131.25-.561718.65341-.561718 1.068182 0 .255682.073761.505682.232631.727273.397174.585227 1.197195.738636 1.781608.335227l7.966174-5.460227c-36.35276 38.363636-88.144239 61.869318-145.745804 62.369318-20.613326.176137-40.823804-3.1875-60.012978-9.471591 10.468369-20.102272 21.231782-40 27.302869-50.619318 13.611718-23.795454 49.873696-83.965909 73.743848-117.198864.034044-.039772.056739-.073863.085109-.113636 1.588696-2.215909 3.132-4.318182 4.601543-6.272727.357457-.477273 1.310674-2.102273 1.787283-3.323864.011348-.022727.011348-.039773.011348-.0625 2.547587-6.670454-3.971739-16.840909-13.140783-21.164773-9.135-4.3125-18.939522-3.414772-21.867261.948864-.737608 1.090909-1.617065 2.477273-1.792956 3.045455-.181565.579545-.402848 1.210227-.590087 1.795454-.397174 1.284091-.851087 2.619318-1.287978 3.943182-.510653 1.5625-.97024 3.056818-1.526283 4.664773-1.577348 4.573863-3.358957 9.352272-5.225674 14.198863-.085109.227273-.170217.448864-.255326.676137-7.188848 18.602272-16.062848 38.625-24.471587 56.625-2.110696 1.4375-6.065413 3.840909-7.659783 2.823863-3.915-2.505681 13.855696-20.409091 8.01724-26.477272-4.805805-4.988637-19.648761 2.090909-26.684414 9.4375.800022-2.159091 1.015631-6.136364-2.070978-9.170455-9.929348-9.755682-39.098935 35.017046-44.171413 31.369318-2.916391-2.102272 8.448457-15.477272 13.935131-30.25l-12.068413.107955-1.787283 2.829545c.073761-.744318-.300717-1.676136-1.350391-2.636363-13.333696-12.289773-46.412609 23.176136-34.2250438 33.755681 5.673913 4.926137 19.1608048-1.011363 24.7098908-8.34659-3.72776 7.977272-.930521 11.153409.113479 11.920454 12.3975 9.0625 38.775521-33.630682 43.274935-29.698864 3.166043 2.784091-13.140783 26.681819-12.391827 27.255682l12.232957-.113636c5.197304-9.232955 9.015848-16.556818 9.015848-16.556818 6.871108-7.920455 15.285522-14.255682 17.32813-11.829546 3.387326 4.045455-14.530891 18.522728-8.669739 27.647728 2.819935 4.380681 13.827326-.988637 19.177826-5.09091-10.769087 22.744319-20.159413 41.15341-23.0985 47.147728-5.515043 11.227272-16.471369 31.943182-27.626282 52.454545-18.757957-8.090909-36.222261-19.068182-51.7631091-32.403409.0170217-.255682.0226956-.522727-.1248261-.761364l-4.1533044-6.653409c.0453913-.034091.0737609-.0625.1191522-.102272 1.9915435-1.829546 3.8298913-3.8125 5.7306522-5.727273 2.4568043 2.789773 6.5476952 7.431818 6.5476952 7.431818.470935.528409 1.282305.579546 1.815653.107955.533347-.465909.584413-1.284091.113478-1.818182l-6.6498262-7.545455c1.5830222-1.636363 3.1717172-3.272727 4.6866522-4.971591 2.785891 2.954546 7.500913 7.954546 7.500913 7.954546.487957.517045 1.305.539773 1.821326.051136.516326-.488636.539022-1.301136.051065-1.823863l-7.6995-8.159091c2.297935-2.642046 4.612892-5.278409 6.751957-8.051137 2.598652 3.659091 6.973239 9.818182 6.973239 9.818182.414196.579546 1.214217.721591 1.79863.306818.57874-.414772.714913-1.215909.300718-1.795454l-7.489565-10.551137c2.110695-2.829545 4.187347-5.676136 6.139173-8.636363 2.371696 3.005682 8.459805 10.721591 8.459805 10.721591.436891.551136 1.248261.653409 1.809978.210227.556044-.443182.6525-1.255682.209935-1.8125l-8.998826-11.403409c1.917782-3.005682 3.716413-6.102273 5.469652-9.221591l9.657 8.903409c.522.482955 1.339043.448864 1.821326-.073864.482283-.522727.448239-1.340909-.073761-1.823863l-10.059848-9.284091c.062413-.107955.136174-.215909.198587-.329546.334761-.625.102131-1.409091-.527674-1.744318-.62413-.346591-1.401456-.107954-1.741891.522727-.158869.295455-.351783.5625-.510652.863637-.017022.011363-.039717.005682-.051065.022727-.039718.045455-.022696.113636-.056739.153409-.15887.289773-.340435.556818-.504979.846591l-12.10813-1.125c-.703565-.068182-1.33337.454546-1.401457 1.164773-.062413.710227.459587 1.335227 1.163153 1.403409l10.893913 1.011364c-1.401457 2.4375-2.785892 4.886363-4.289479 7.244318l-14.059956-1.653409c-.703565-.085228-1.344718.420454-1.429826 1.130681-.005674.051137-.005674.102273-.005674.15341 0 .647727.482282 1.198863 1.134782 1.278409 0 0 9.327913 1.096591 12.794674 1.505681-1.753239 2.65341-3.62563 5.204546-5.509369 7.75l-.085109-.125c-.215609-.295454-.55037-.494318-.919174-.528409l-13.7365433-1.4375c-.7092392-.073863-1.3390435.4375-1.4128044 1.147728-.0056739.045454-.0056739.090909-.0056739.130681 0 .659091.4879565 1.210228 1.1518043 1.284091 0 0 12.0967823 1.267046 13.1578043 1.369319.034044.056818.181565.255681.266674.380681-2.207152 2.886364-4.573174 5.647728-6.950543 8.386364l-.255327-.267045c-.153195-.164773-.346108-.289773-.561717-.352273l-13.1634782-4.005682c-.6751957-.210227-1.3957826.176136-1.6000435.852273-.0397174.125-.062413.255682-.062413.375 0 .556818.3574565 1.068182.9135 1.232954 0 0 12.2159347 3.727273 12.8400647 3.920455.022696.022727.153196.153409.215609.221591-1.497913 1.681818-3.052565 3.306818-4.6128911 4.926136l-.2326305-.267045c-.1588695-.176137-.3688043-.3125-.6014347-.375l-11.7336522-3.443182c-.6808696-.198864-1.3957826.1875-1.5943696.875-.0397174.125-.0510652.244318-.0510652.363636 0 .5625.3631304 1.073864.9248478 1.238637 0 0 10.701 3.136363 11.3705218 3.329545.0113478.011364.0737608.073864.0907826.096591-1.8440218 1.852273-3.6199566 3.761364-5.5434131 5.539773l-.1758913-.289773c-.1475217-.232955-.3688043-.420455-.6298043-.522727l-7.4385-2.863637c-.0624131-.017045-.1305.022728-.198587.005682-7.3023261-7.573864-14.0713043-15.693182-20.1423913-24.352273l76.9779781-145.511363-17.844456.5-31.5185873 58.715909c-10.1563044 9.534091-26.6560435 18.284091-36.086087 11.755682-18.7182391-12.943182 54.5830433-83.051137 27.603587-105.846591-21.5381739-18.204546-44.9430652 8.977272-52.3588696 21.863636-6.0370434 10.5-17.3848695 26.619318-17.7820434 46.471591.1985869 87.982955 53.368826 163.488636 129.2630873 196.284091-7.171826 13.017045-13.918109 24.994318-18.752283 33.176136-3.410022 5.772728-5.628522 8.409091-9.679696 8.090909-.788674-.0625-2.473826.153409-2.990152.363637-2.031261.795454-2.831282 4.340909-2.757522 5.852272.15887 3.125 2.700783 8.767046 12.81737 13.40341 10.110913 4.642045 15.745109 4.210227 18.360783 2.5 1.265282-.829546 3.659674-3.5625 3.109304-5.670455-.136174-.545455-.953217-2.039773-1.46387-2.636364-2.638369-3.102272-2.008565-5.886363.646826-12.034091 3.7845-8.755681 10.343544-22.142045 17.708283-36.579545 21.277174 7.102273 44.023891 11.011364 67.689783 11.011364 100.746 0 185.236239-69.738637 207.954587-163.636364.862434-3.443182 1.781608-7.653409 1.781608-7.653409z" fill="#d72331"/><path d="m10.5648261 226.433153c0-.125.0283696-.238636.0283696-.363636 0-.170455-.0113479-.335227-.0113479-.5z" fill="#d72331"/><path d="m138.869022 291.813835c-.453913.551137-.368805 1.363637.181565 1.8125l3.143348 2.579546c.550369.443181 1.361739.369318 1.815652-.1875.448239-.551137.368804-1.357955-.181565-1.806819l-3.149022-2.579545c-.55037-.448864-1.361739-.375-1.809978.181818" fill="#d72331"/><path d="m152.429674 303.274062c.595761.392046 1.390109.21591 1.775935-.386363.385826-.596591.209934-1.397727-.385826-1.778409l-2.848305-1.829546c-.601435-.386363-1.395782-.210227-1.781608.392046-.380153.596591-.204261 1.392045.3915 1.772727z" fill="#d72331"/><path d="m147.402587 317.847926c.476609-.534091.436891-1.340909-.090783-1.818182l-6.008674-5.448863c-.533347-.477273-1.344717-.4375-1.821326.090909-.476608.528409-.436891 1.352272.090783 1.823863l6.008674 5.443182c.527674.477273 1.344717.4375 1.821326-.090909" fill="#d72331"/><path d="m320.241326 307.075199c.709239-.068182 1.219891-.704546 1.151804-1.409091-.07376-.710227-.703565-1.221591-1.40713-1.153409l-5.724978.573863c-.703565.068182-1.225565.698864-1.157479 1.409091.079435.710228.70924 1.227273 1.412805 1.153409z" fill="#d72331"/><path d="m329.796196 198.48429-4.788783-1.943182-4.431326 2.982954.300717-5.40909-4.295152-3.102273 5.157587-1.460227 1.656783-4.835228 3.069587 4.403409 5.129217.034091-3.166043 4.278409zm-25.038979-27.795455-4.573174 7.602273-3.330586-8.346591-8.64137-1.642045 6.740609-5.829546-.896479-8.4375 7.6995 4.465909 7.744892-3.539773-1.758913 8.65341 5.577456 6.636363zm-31.671782-10.369318-6.371805-4.227273-6.842739 3.039773 1.895087-7.346591-4.715021-5.471591 7.557652-.607954 3.710739-6.244319 2.956109 6.914773 7.12076 1.9375-5.787391 4.465909zm-28.71-5.965909-4.720696-1.789773-3.966065 2.960227.147522-5.011363-3.829892-2.840909 4.777435-1.494318 1.475218-4.5625 2.910717 4.022727 4.868217.204545-3.069587 3.721591zm40.012435 19.982954c10.298152 5.159091 23.751 15.181819 38.622326 32.09091l15.739434-9.02841c-4.289478-26.931818-19.308326-45.380681-40.057826-56.585227-28.176652-15.215909-59.661195-7.448863-72.677152 1.573864l1.146131 15.329545c22.888565 1.147728 46.92326 11.460228 57.227087 16.619318z" fill="#253666"/><path d="m227.69413 240.177472c-8.58463-4.579546-23.546739-9.517046-31.473195-12.602273-10.303826-4.011364-28.744044-18.221591-26.326957-37.539773 4.011457-32.0625 64.183305-21.505682 104.150348-1.431818 17.316783 8.698864 40.500391 25.568182 51.893609 36.573864 13.061348 12.619318 15.347935 16.84659 16.204695 30.1875.039718 8.15909-2.224173 15.505681-4.993043 21.329545 1.974522-1.403409 7.347717-3.602273 7.506587-3.801136.175891-.738637.272348-2.198864.272348-2.198864 5.730652-26.931818-5.929239-48.852273-15.086935-57.448864-8.936413-8.386363-4.680978-2.119318-1.713522 1.721591 2.105022 2.727273 3.114978 4.329546 4.005783 6.017046 4.652609 8.840909 2.445456 7.744318-3.727761 1.431818-12.153522-12.443182-33.334239-28.221591-52.784413-37.965909-26.559587-13.301137-59.088131-19.625-77.114152-19.056818 7.4385-3.4375 11.523717-3.806819 19.172152-4.579546 6.774652-.6875 4.119261-2.034091 0-1.721591-14.4855 1.107955-46.753044 1.613637-51.791478 26.931818-4.278131 21.5 13.163478 39.829546 30.043369 46.420455 14.496848 5.659091 29.793718 12.375 30.162522 12.539773.085109-.227273.170217-.448864.255326-.676137z" fill="#253666"/><g fill="#fff"><path d="m118.051435 466.239972c.675195-.164773 1.208543-.801137 2.05963-1.75 1.424152-1.579546 3.154696-4.011364 3.642652-6.5.323413-1.079546-.33476-.573864-.578739-.073864-.243978.5-4.754739 6.232954-7.126435 6.846591-.329086.090909-.49363-.073864-.487956.755682.170217.488636.794348 1.119318 2.490848.721591"/><path d="m135.867522 445.132017c1.180174-2.573864 3.863935-7.704545 6.825717-13.261364-6.439891 11.840909-13.918109 24.9375-18.440217 30.784091-.226957.295455-.442565.568182-.658174.823864-.221283.306818-.788674.585227-1.009957.818182-.261.278409-.170217.5-.334761.659091-.147521.164772.079435.318181-.028369.477272-.1305.198864-.584413.386364-.748957.573864-.374478.409091-.243978.778409-.561717 1.079545-.556044.539773-1.441174.875-1.441174.875-.992935.176137-.646826 1.5.181565 1.818182.459587.176137.9135.471591 1.373087.744318.368805.221591.743283.369319 1.117761.886364.300717.414773-.187239 1.011364-.221283 1.579546-.028369.4375.153196.857954-.170217 1.176136-.442565.431818-1.412804.653409-2.2185.420454-.964565-.289772-2.201478-1.03409-3.347609-1.579545-1.418478-.6875-2.678087-1.147727-3.041217-1.096591-.329087.045455-1.07237.232955-1.299326.573864-.153196.227272-.226957.522727.204261.886363.187239.159091.777326.505682 1.112087.693182.522.295455.981587.778409 1.639761 1.107955.261.136363.499304-.085228.737608.017045.317739.142046.635479.619318 1.004283.801137.431217.215909 1.021304.585227 1.424152.767045.266674.113636.533348.625.777326.789773.153196.102272.300718-.130682.442565-.0625.482283.244318.896479.318182 1.20287.5625.533348.431818 1.168826.880682 1.781609 1.113636.998608.369318 1.951826-.005682 2.343326-1.8125.635478-2.903409 1.429826-6.221591 2.070978-8.454545.1305-.477273.476609-1.477273.958891-2.829546.096457-.255682-.136174-.528409-.034043-.8125 1.917782-5.301136 5.866826-14.693182 8.357674-20.119318"/><path d="m264.330587 227.489972s1.787283-2.954546 1.707848-2.789773c-4.476718-6.136364-12.81737-9.5625-20.414739-9.323864-.635479 2.982955-28.023457 70.107955-36.466239 86.403409-8.039935 15.511364-29.736979 59.369318-32.988131 65.352273 2.519217-4.863636 77.67587-133.045455 84.473217-144.778409 0 0 1.997218 1.136364 1.685153 2.795454-6.848413 10.323864-49.811283 82.556819-53.380174 89.545455-3.574565 6.982955-29.436261 51.25-45.675 82.846591 0 0 65.726608-112.164773 68.330935-116.823864 2.564608-4.590909 31.007934-50.596591 32.72713-53.227272"/><path d="m145.184087 438.649062c-.187239.295455-.3915.568182-.584413.875-.073761.125.017022.335228-.039717.471591-.181566.403409-.453914.767046-.612783 1.181819-.056739.142045.034043.352272-.039717.47159-.499305.818182-.641153 1.636364-1.242587 2.369319-.085109.102272.017021.329545-.051066.460227-.045391.090909-.255326.107954-.278021.1875-.312066 1.125-1.117761 1.852273-1.628413 2.835227-.068087.130682-.022696.318182-.022696.482955-.15887-.045455-.278022.039772-.312065.170454-.085109.414773-.249652.772728-.385826 1.142046-.107805.301136-.453913.596591-.516326.875-.15887.619318-.771653.988636-.731935 1.642045-.487957.164773-.329087.335227-.346109.494318-.011348.147728-.147522.284091-.243978.392046-.414196.443182-.612783 1.056818-.794348 1.630682-.153196.488636-.539022.846591-.714913 1.3125-.034044.096591.022696.232954-.02837.3125-.153195.244318.147522.488636.096457.698863-.068087.255682-.663848.681818-.771652.909091-.056739.125-.124826.073864-.187239.1875-.629805 1.022727-.482283 2.028409-1.026979 3.051137-.096456.176136-.448239.477272-.561717.619318-.731935.943182-.544696 2.142045-1.253935 3.022727.119152.5-.289369.852273-.351782 1.318182-.011348.130682.085108.221591.068086.346591-.045391.426136-.198586.772727-.272347 1.170454-.283696 1.465909-.533348 2.829546-.936196 4.380682-.306391 1.147727-1.078043 1.659091-1.225565 2.903409-.039718.363637.295043.375.317739.5.034043.1875.068087.363637.204261.471591.124826.096591.261-.022727.300717-.153409.306391-.943182.334761-1.607955.760305-2.517045.170217-.363637-.368805-.869319-.238305-1.272728.380152-1.221591 1.713522-2.289772 2.070978-3.517045.57874-.227273.090783-.869318.323413-1.323864.062414-.125.18724-.142045.306392-.198863.221282-.102273-.215609-.426137-.119152-.613637.300717-.573863.930521-1.107954 1.310674-1.653409.255326-.363636.561717-.698864.714913-1.056818.261-.630682.62413-1.028409.62413-1.636364.005674-.710227.788674-1.289772.75463-1.994318-.011347-.181818.209935-.346591.249653-.505682.20426-.920454.300717-1.784091.641152-2.659091.119152-.289772.034043-.647727.034043-.977272.436892.039772-.056739-.511364.323413-.5-.119152-.409091.102131-.823864.238305-1.125.550369-1.1875.981587-2.471591 1.242587-3.846591.056739-.3125.323413-.545455.431217-.846591.056739-.147727-.039717-.375.039717-.465909.215609-.232955.323413-.517046.612783-.721591.051065-.028409-.011348-.198864.02837-.295455.1305-.380682.607108-.545454.669521-1 .011348-.073863.238305-.102272.272348-.181818.436891-1.130682.936196-2.028409 1.225565-3.170454.153196-.630682.992935-1.102273.936196-1.806819 0-.051136.238304-.090909.266674-.181818.226956-.732954.192913-1.352273.641152-1.994318.079435-.125-.005674-.323864.039717-.477273.034044-.136363.567392-.159091.595761-.204545.368805-.579546.102131-1.482955.278022-2.090909-.374478.761363-.743283 1.528409-1.100739 2.102272"/><path d="m250.906109 258.143381c1.061021-1.607955 17.827434-26.613637 17.912543-27.755682.090783-1.289773-.851087-2.806818-1.350391-3.215909-.839739 1.340909-10.218718 16.5-18.372131 29.193182-35.132869 57.068181-96.723195 166.25-100.303434 174.664772-.136174.323864-.9135 2.488637-1.044 2.784091-.192913.414773.090782.130682-.226957.556818-.414196.539773-.805696 1.306819-1.185848 2.073864.15887-.301136.720587-.471591.907826-.721591.141848-.176136.107805-.409091.266674-.545454.039718-.034091-.039717-.107955-.034043-.119319.090782-.221591.107804-.346591.295043-.522727.090783-.079545.141848-.244318.102131-.397727.119152.102273.039717-.181818.164543-.079546-.005674-.090909-.005674-.164772-.005674-.25l.204261-.375c4.510761-8.471591 64.3365-116.886363 102.669457-175.289772"/><path d="m240.948391 219.387699-1.651108.352273c-1.36174 5.068181-14.678413 47.414772-42.20824 99.857954 5.259718-7.238636 30.996587-61.340909 43.859348-100.210227"/><path d="m154.466609 410.035426c.158869-.494318 1.293652-2.744318-.005674-.488636-1.009957 2.005682-3.699392 7.232954-7.137783 13.715909 3.81287-7.051137 7.064022-12.994318 7.143457-13.227273"/></g></g></svg>