<svg viewBox="1 51.337 607.812 689.326" xmlns="http://www.w3.org/2000/svg" xmlns:xlink="http://www.w3.org/1999/xlink"><linearGradient id="a" gradientUnits="userSpaceOnUse" x1="3.27411" x2="76.36984699999" y1="353.196072" y2="353.196072"><stop offset=".11" stop-color="#fff"/><stop offset=".24" stop-color="#dcdfe1"/><stop offset=".44" stop-color="#a8afb3"/><stop offset=".54" stop-color="#949ca1"/></linearGradient><linearGradient id="b" gradientUnits="userSpaceOnUse" x1="568.40137" x2="568.40137" y1="386.96005" y2="178.65775"><stop offset="0" stop-color="#fff"/><stop offset=".35" stop-color="#fff"/><stop offset=".56" stop-color="#949ca1"/><stop offset="1" stop-color="#949ca1"/></linearGradient><linearGradient id="c" gradientUnits="userSpaceOnUse" x1="24.44722" x2="305.24452" y1="625.38805" y2="625.38805"><stop offset=".15" stop-color="#fff"/><stop offset=".21" stop-color="#fafafa"/><stop offset=".29" stop-color="#ebeced"/><stop offset=".37" stop-color="#d2d5d7"/><stop offset=".45" stop-color="#afb5b9"/><stop offset=".51" stop-color="#949ca1"/></linearGradient><linearGradient id="d" gradientUnits="userSpaceOnUse" x1="471.59638" x2="139.03765" y1="611.38846" y2="136.61065"><stop offset="0" stop-color="#949ca1"/><stop offset=".01" stop-color="#99a1a6"/><stop offset=".12" stop-color="#c2c6c8"/><stop offset=".2" stop-color="#dbddde"/><stop offset=".25" stop-color="#e4e5e6"/><stop offset=".75" stop-color="#e4e5e6"/><stop offset=".8" stop-color="#dcdedf"/><stop offset=".87" stop-color="#c7cacd"/><stop offset=".97" stop-color="#a3aaae"/><stop offset="1" stop-color="#949ca1"/></linearGradient><linearGradient id="e"><stop offset=".25" stop-color="#fff"/><stop offset=".34" stop-color="#fafafa"/><stop offset=".45" stop-color="#ebeced"/><stop offset=".57" stop-color="#d2d5d7"/><stop offset=".7" stop-color="#afb5b9"/><stop offset=".79" stop-color="#949ca1"/></linearGradient><linearGradient id="f" gradientUnits="userSpaceOnUse" x1="121.10722" x2="305.24452" xlink:href="#e" y1="105.5989" y2="105.5989"/><linearGradient id="g" gradientUnits="userSpaceOnUse" x1="305.08342" x2="596.99662" y1="557.40385" y2="557.40385"><stop offset=".2" stop-color="#fff"/><stop offset=".33" stop-color="#fafbfb"/><stop offset=".47" stop-color="#edeeef"/><stop offset=".63" stop-color="#d7dadc"/><stop offset=".79" stop-color="#b8bdc1"/><stop offset=".93" stop-color="#949ca1"/></linearGradient><linearGradient id="h" gradientUnits="userSpaceOnUse" x1="305.08342" x2="488.89852" xlink:href="#e" y1="105.5989" y2="105.5989"/><linearGradient id="i" gradientUnits="userSpaceOnUse" x1="13.49242" x2="130.28992" y1="129.52225" y2="129.52225"><stop offset=".39" stop-color="#fff"/><stop offset=".47" stop-color="#fafafa"/><stop offset=".57" stop-color="#ebeced"/><stop offset=".67" stop-color="#d2d5d7"/><stop offset=".79" stop-color="#afb5b9"/><stop offset=".87" stop-color="#949ca1"/></linearGradient><path d="m33.54 468.734c0-62.666 29.32-86.508 35.442-145.63-8.216 52.034-42.69 94.563-42.69 145.79 0 19.655 2.74 37.697 7.732 53.807 21.748 72.01 86.025 112.123 148.37 127.91-96.176-24.326-148.854-105.034-148.854-181.877zm549.496 0c0-32.702-9.02-58.316-18.687-82.158-11.76-28.353-24.488-53.967-24.488-85.38 0 76.198 36.407 97.785 36.407 167.54 0 76.84-52.68 157.39-148.692 181.875 86.67-22.07 155.458-85.38 155.458-181.876zm-34.796 181.554c-13.05 0-23.52 10.632-23.52 23.52 0 13.05 10.47 23.52 23.52 23.52s23.52-10.632 23.52-23.52c0-12.887-10.633-23.52-23.52-23.52zm0 41.885c-10.15 0-18.526-8.216-18.526-18.526 0-10.15 8.216-18.526 18.526-18.526s18.526 8.217 18.526 18.527c-.16 10.47-8.377 18.526-18.526 18.526zm9.666-23.842c0-4.35-3.544-7.893-7.894-7.893h-11.277v26.742h5.155v-10.794h3.544l5.155 10.793h5.637l-5.316-11.279c2.74-1.127 4.996-4.027 4.996-7.57zm-8.055 3.062h-6.282v-5.8h6.283c1.612 0 2.9 1.29 2.9 2.9s-1.288 2.9-2.9 2.9z" fill="#fff"/><path d="m551.3 165.07c-19.653-5.8-33.83-20.62-42.528-44.14l-19.976-54.61-9.183 34.473c18.848 84.736 88.602 90.858 88.602 90.858l28.353-13.21-45.267-13.37zm-328.793 308.497-36.407-55.9-40.597 30.447s14.176.322 14.176 15.304v105.195l28.513-21.426v-74.427l32.702 49.78 30.286-22.715v-131.13l-28.513 21.425v83.447zm115.826-121.787-32.22 24.163v-48.49l-43.656 32.702s14.176.322 14.176 15.304v105.194l29.32-22.07v-48.006l32.218-24.164v48.006l27.87-21.103v-131.13l-27.87 21.102v48.49h.163zm81.675-12.244v-97.624l-43.657 32.702s14.177.322 14.177 15.304v105.195l81.03-60.894c-1.77-20.943 0-33.348 0-33.348l-51.55 38.664z" fill="#e4e5e6"/><path d="m49.65 301.518c0 74.426-36.406 89.247-36.406 167.378 0 23.842 4.027 46.234 11.277 66.693 2.256-4.673 5.64-9.345 9.506-12.728-4.994-16.27-7.57-34.152-7.57-53.806 0-51.067 34.473-93.757 42.69-145.63.643-6.766 1.127-13.854 1.127-21.748 0-59.444-28.353-109.706-28.353-109.706l-28.353-13.37 19.33 43.656c9.344 21.75 16.754 48.652 16.754 79.26z" fill="url(#a)"/><path d="m539.863 301.196c0 31.575 12.726 57.19 24.487 85.38l15.304-.483c-9.505-23.52-19.17-46.073-19.17-84.736 0-30.447 7.41-57.51 16.915-79.42l19.33-43.657-28.353 13.21c-.16.16-28.514 50.262-28.514 109.706z" fill="url(#b)"/><path d="m282.594 673.325c-23.198-8.377-54.61-11.277-100.362-22.875-62.344-15.788-126.782-55.9-148.368-127.91-3.866 3.544-7.088 8.055-9.505 12.727 24.647 69.432 86.185 118.244 152.878 135.32 42.69 10.793 62.505 11.92 94.402 20.78 4.188 4.35 33.508 36.086 33.508 36.086v-30.447c-.162 0-19.493-20.78-22.554-23.68z" fill="url(#c)"/><path d="m187.387 630.474c50.906 12.888 84.092 14.337 106.323 25.13 0 0 8.216 7.41 11.277 10.794 3.06-3.383 11.277-10.793 11.277-10.793 22.392-10.632 55.578-12.243 106.323-25.13 64.116-16.272 133.387-72.816 133.387-161.58 0-63.47-36.407-86.83-36.407-167.538 0-54.45 20.46-96.174 20.46-96.174s-47.363-9.505-69.433-69.593c0 0-31.413 29.48-74.91 29.48-54.45 0-90.534-38.18-90.534-38.18s-36.246 38.18-90.535 38.18c-43.335 0-74.748-29.48-74.748-29.48-22.07 60.088-69.432 69.593-69.432 69.593s20.46 41.885 20.46 96.335c0 80.71-36.408 104.067-36.408 167.54-.487 88.6 68.784 144.984 132.9 161.416zm345.066-161.74c0 75.392-60.088 124.85-115.827 139.025-40.274 10.148-89.408 15.625-104.23 24.002-3.382 2.416-7.41 6.927-7.41 6.927s-4.026-4.35-7.57-6.767c-14.983-8.377-64.117-13.693-104.23-24.003-1.45-.322-3.06-.805-4.51-1.29l316.714-237.772c10.63 37.697 27.063 62.344 27.063 99.88zm-22.553-250.986c-6.445 19.33-13.855 49.134-13.855 83.447 0 14.337.967 27.064 2.74 38.502l-339.75 255.175c-42.53-21.91-79.743-63.794-81.676-121.466l390.493-293.193c13.694 18.687 29.16 30.447 42.046 37.535zm-396.133 83.448c0-34.474-7.57-64.277-13.854-83.447 14.982-8.217 33.83-22.715 48.65-47.846 16.11 9.02 38.825 18.043 65.728 18.043 40.758 0 72.494-17.72 90.698-31.09 18.043 13.37 49.778 31.09 90.535 31.09 6.444 0 12.726-.483 18.687-1.45l-332.663 249.858c9.504-37.535 32.22-68.787 32.22-135.158z" fill="url(#d)"/><path d="m214.45 143.967c54.773 0 90.698-46.395 90.698-46.395v-28.998l-28.514 28.353c-14.66 14.5-38.18 26.42-62.022 26.42-17.72 0-34.474-7.894-48.973-19.976l-44.624-36.89 9.344 34.474c-.162 0 41.723 43.013 84.09 43.013z" fill="url(#f)"/><path d="m583.036 468.734c0 96.335-68.788 159.806-155.457 181.876-45.59 11.6-77.165 14.5-100.363 22.875-2.9 2.74-22.23 23.68-22.23 23.68v30.448s29.318-31.736 33.507-36.085c31.736-8.86 51.712-9.988 94.24-20.62 86.187-22.23 164.157-97.3 164.157-201.852 0-37.535-8.376-60.572-17.236-82.642l-15.143.483c9.505 23.52 18.526 49.135 18.526 81.837z" fill="url(#g)"/><path d="m395.522 143.967c42.368 0 84.092-43.012 84.092-43.012l9.183-34.474-44.3 36.73c-14.5 12.083-31.253 19.977-48.974 19.977-23.68 0-47.362-11.92-62.022-26.42l-28.513-28.353v28.995c0 .16 35.924 46.557 90.535 46.557z" fill="url(#h)"/><path d="m130.198 100.954-9.344-34.474-19.976 54.61c-8.538 23.52-22.875 38.342-42.53 44.14l-45.106 13.372 28.353 13.21c0-.16 69.755-6.283 88.603-90.858z" fill="url(#i)"/><path d="m81.548 436.354 332.66-249.697c-5.96.967-12.242 1.61-18.686 1.61-40.596 0-72.332-17.72-90.535-31.09-18.204 13.37-49.778 31.09-90.535 31.09-26.742 0-49.617-9.02-65.727-18.042-14.982 24.97-33.83 39.468-48.65 47.845 6.443 19.33 13.853 49.134 13.853 83.447-.16 66.05-22.876 97.302-32.38 134.837zm106.967 170.278c1.61.322 3.06.967 4.51 1.29 40.275 10.148 89.57 15.625 104.39 24.002 3.384 2.416 7.572 6.927 7.572 6.927s4.027-4.35 7.41-6.765c14.982-8.377 64.116-13.693 104.39-24.003 55.738-14.176 115.826-63.794 115.826-139.025 0-37.535-16.432-62.183-27.225-99.88l-316.873 237.455zm-148.047-305.114c0 71.526-36.407 87.797-36.407 167.378 0 114.54 88.603 189.448 170.923 210.55 41.563 10.15 54.128 10.794 91.663 19.977 3.06 3.383 38.34 41.24 38.34 41.24s35.12-38.018 38.18-41.24c37.696-9.344 50.1-9.988 91.663-19.976 82.32-21.103 170.92-96.174 170.92-210.55 0-79.582-36.406-95.69-36.406-167.38 0-25.935 5.477-51.388 16.11-75.875l23.358-52.84-54.933-16.108c-16.755-4.994-28.998-18.043-36.73-38.663l-24.166-66.691-54.128 44.946c-14.337 11.92-28.997 18.043-43.173 18.043-19.17 0-41.08-9.344-55.578-23.842l-35.12-34.474-34.957 34.636c-14.66 14.337-36.407 23.842-55.578 23.842-14.337 0-28.997-5.96-43.173-18.043l-54.45-45.107-24.166 66.529c-7.57 20.62-19.976 33.67-36.57 38.663l-55.09 16.11 23.36 52.838c10.63 24.648 16.108 50.1 16.108 76.038zm18.042-136.448c19.655-5.8 33.992-20.62 42.53-44.14l19.976-54.61 44.3 36.73c14.66 12.08 31.253 19.975 48.974 19.975 23.842 0 47.362-11.92 62.022-26.42l28.514-28.353 28.514 28.353c14.66 14.5 38.18 26.42 62.022 26.42 17.72 0 34.474-7.894 48.973-19.976l44.3-36.73 19.977 54.61c8.538 23.52 22.875 38.34 42.53 44.14l45.106 13.37-19.17 43.658c-9.666 21.91-16.915 48.973-16.915 79.42 0 38.502 9.827 61.055 19.33 84.736 8.86 22.07 17.238 44.945 17.238 82.642 0 104.712-77.808 179.782-163.994 202.013-42.53 10.792-62.505 11.92-94.24 20.78-4.19 4.35-33.51 36.085-33.51 36.085s-29.317-31.733-33.507-36.083c-31.737-8.86-51.55-9.988-94.403-20.62-66.37-17.4-127.91-66.05-152.557-135.48-7.25-20.46-11.277-42.852-11.277-66.694 0-78.13 36.407-92.952 36.407-167.378 0-30.447-7.25-57.51-16.915-79.42l-19.17-43.496zm100.524 429.802 339.75-255.175c-1.773-11.438-2.74-24.164-2.74-38.502 0-34.474 7.572-64.277 13.854-83.447-12.888-6.927-28.353-18.687-42.046-37.535l-390.492 293.193c1.932 57.672 39.145 99.557 81.674 121.466zm260.974-352.96v97.625l51.712-38.824s-1.772 12.565 0 33.347l-81.03 60.894v-105.196c0-14.982-14.177-15.304-14.177-15.304l43.495-32.54zm-113.894 85.542v48.49l32.22-24.164v-48.49l27.868-21.103v131.13l-27.87 21.104v-48.005l-32.218 24.164v48.005l-29.32 22.07v-105.195c0-14.82-14.175-15.304-14.175-15.304l43.494-32.702zm-120.177 90.213 36.407 55.9v-83.287l28.514-21.425v131.13l-30.286 22.715-32.702-49.778v74.426l-28.514 21.426v-105.194c0-14.983-14.176-15.305-14.176-15.305zm-116.955-94.724c-5.96 59.444-35.44 83.125-35.44 145.79 0 76.843 52.677 157.39 148.85 181.877 45.59 11.6 77.327 14.5 100.524 22.875 2.9 2.74 22.392 23.68 22.392 23.68s19.33-20.94 22.392-23.68c23.198-8.377 54.772-11.277 100.362-22.875 96.174-24.325 148.852-104.873 148.852-181.715 0-69.754-36.407-91.34-36.407-167.54 0-59.443 28.514-109.705 28.514-109.705s-69.753-6.122-88.6-90.696c0 0-41.886 43.173-84.093 43.173-54.61 0-90.535-46.395-90.535-46.395s-35.924 46.395-90.535 46.395c-42.368 0-84.092-43.012-84.092-43.012-18.848 84.736-88.602 90.858-88.602 90.858s28.514 50.262 28.514 109.706c-1.128 7.248-1.45 14.66-2.095 21.263zm.967-117.92s47.36-9.506 69.43-69.594c0 0 31.576 29.48 74.75 29.48 54.45 0 90.696-38.18 90.696-38.18s36.085 38.18 90.535 38.18c43.497 0 74.91-29.48 74.91-29.48 22.07 60.087 69.432 69.592 69.432 69.592s-20.46 41.885-20.46 96.335c0 80.71 36.408 104.067 36.408 167.54 0 88.923-69.27 145.307-133.387 161.738-50.745 12.888-83.93 14.337-106.323 25.13 0 0-8.216 7.41-11.277 10.794-3.06-3.384-11.277-10.794-11.277-10.794-22.23-10.632-55.578-12.243-106.323-25.13-64.114-16.272-133.385-72.816-133.385-161.58 0-63.47 36.407-86.83 36.407-167.538.484-54.61-20.136-96.496-20.136-96.496z" fill="#111"/></svg>