<svg enable-background="new 0 0 400 400" viewBox="0 0 400 400" xmlns="http://www.w3.org/2000/svg"><path d="m356.2 121.3v-22.9l-5.6-5.7c-72-68.5-226.2 21.4-278.6 64.8l-25.9 40.1 32.2-8c-49.4 62-31.8 102.7-29.7 106.9 5.2 14.6 17.1 26.3 36.3 34 14.6 5.8 31.2 6.6 45.4 5.9 61.4-2.9 134-41.2 180.9-81.9l1.1-.9 9.3-47.1-18.2 10.1c-63.3 27.8-114.2 43.2-114.2 43.2-33.3 10.4-48.6 12.1-59.5 9.5l-1.3-.4c-3-1.2-3.5-3.9-3.5-4.6-.5-20.8 35.4-65.6 53.4-85 16.8-18.1 43.3-37.9 65.7-47.3 15-6.3 24.7-8.8 29.2-8.4-1.2 3.9-3.3 8.7-6.2 14.5 0 0-24 47.3-25 49.2z" fill="#bc945c"/><path d="m213.9 118c-20.6 10.9-44.3 32.8-51.7 40.7-60.4 64.3-102.7 150.3 29.5 109.1 0 0 51.4-15.6 115.2-43.6-180.6 152.6-351.1 88.8-183.3-71.7-15.3 3.5-30.7 6.8-45.8 11 53.7-44.5 201.1-127.4 266.9-64.8l-70.3 43.1c30.2-59.1-24.2-45.2-60.5-23.8" fill="#860038"/></svg>