<svg enable-background="new 0 0 400 400" viewBox="0 0 400 400" xmlns="http://www.w3.org/2000/svg"><path d="m318.6 100.7c-20.1-24.2-48.9-37.7-81.3-37.7h-129.5l-60.1 273.1 110.6.1 15.9-66.1h53.8c37 .3 67.4-12.3 87.9-36.3 37.1-40.4 30.5-99.5 2.7-133.1z" fill="#bec0c2"/><path d="m168.4 262.9-15.8 66.1h-96l56.9-258.8 123.7.1c30.8.1 57.2 12.5 75.8 35 27.4 33.1 30.1 88.1-2.7 123.9-20.1 23.6-49.6 34-82.3 33.7z" fill="#002d62"/><g fill="#fdbb30"><path d="m100.8 127.7h54.2c6.2 0 12.9 5.2 10 13.1-1.8 4.9-3.1 10.6-3.8 15.9-.5 4.2 4.2 6.8 6.8 6.8l110.5.1c2.1 0 3.2-.6 3.2-1.6s-.1-4.7-.5-7.2c-.4-2.4-.8-2.9-2.8-2.9-13.8 0-19.4-6.1-33.8-15.5-14.4-9.3-35.6-14.7-53.8-14.7l-88.7-.1zm66.9 71.6c-1.9-4.1-3.7-9-4.8-13.4-1.4-5.7-6.2-10.4-14.5-10.4h-58.2l1.4-6.5 188.5.1c1.9 0 1.5.8 1.4 2.9s-.6 5.9-.9 8.2-2.2 1.7-4 1.8c-4.2.1-12.1 1.1-16.7 4.5-7.8 5.9-24.5 16.2-33.8 19.2-10 3.2-47.6 14.7-58.6-6.5"/><path d="m79.9 222.8 98.4.1c4.3 0 8.1 1 11 3.4 8.3 6.9 19.1 11.8 30.5 15.1 5.1 1.5 14-.4 21.9-4.9 19.7-11.1 32.4-32.3 36.5-46 1.1-3.6-1-3.3-3.8-3.1-8.3.6-17 8.1-28.5 15.4s-34.8 14.2-57 14.2l-107.8-.1zm144.3-131.8c1.4-.2 6.4-.5 9.1.5 18.7 7.4 36.4 26.8 43.8 47.5 1.4 4 1.8 6.5 0 6.7-8.6.9-12.6-3.3-22.6-10.1-10.1-6.8-19.4-11.5-32.1-15.5-12.6-4-35.5-4.6-38.5-4.7s-2.6-1.3-1.3-2.6c11-10.9 25.7-18.9 41.6-21.8zm89.7 71c.1.8-.8 1.7-1.8 1.7h-21.6c-2.8 0-2.8-1.3-2.9-2.9s-.6-4.7-.6-6.6c-.1-1.8-.8-3.9 1.7-4.9 6-2.5 11.7-8.4 14.3-13.4.9-1.7 2.2-4.5 3.6-2.1 5.1 8 6.7 18.1 7.3 28.2zm-7.7 38.7c-.4.7-1.7 1.3-2.2.1-3.1-8.4-10.6-14.2-15.8-17.1-1.6-.9-1.7-1.9-1.5-3.4s.9-6.4 1-8.5c.1-1.6.7-2.8 2-2.8h22.5c.8 0 1.8.7 1.8 1.3-.1 10.7-3.3 21.3-7.8 30.4z"/><path d="m247.8 242.9c-1.6.2-5-.3.4-3.5 16.3-9.5 30.9-31.8 34.7-44.5 1.5-4.9 1.6-5.1 3.5-4.6 2.5.7 6.4 4.1 9.4 8.3 3 4.1 4.3 12.2 2.6 14.6-11.6 15.6-30.3 26.7-50.6 29.7zm41.5-100.8c-3.8 2-4.5 1.7-5.3-1.2-7.1-24.9-28-43.3-36.6-48.7-1.6-1-1.2-1.7 0-1.6 20.5 2.7 40.5 13.9 50.6 29.2 5.8 8.7-5 20.3-8.7 22.3z"/></g></svg>