<svg enable-background="new 0 0 400 400" viewBox="0 0 400 400" xmlns="http://www.w3.org/2000/svg"><path d="m289.4 53-19 33.8-3.3 27-34 60.4h-44.5l33.2-58.6v-62.6h-34.4l-18.2 33.5-3.2 27.3-48.4 86.2 8.2 20.3h30.1l-13.7 34.8-25.8-27.7 3.1 40.7-44.5 1.8 35.4 25-25.2 37.6 40.7-13.3 16.7 40.3 12.8-43.9 45.5 11.7-29.4-34 36.1-29.8-37.3 2.4 40.4-45.6h53l58.7-104v-63.3z" fill="#fff"/><path d="m289.4 53-19 33.8-3.3 27-34 60.4h-44.5l33.2-58.6v-62.6h-34.4l-18.2 33.5-3.2 27.3-48.4 86.2 8.2 20.3h30.1l-13.7 34.8-25.8-27.7 3.1 40.7-44.5 1.8 35.4 25-25.2 37.6 40.7-13.3 16.7 40.3 12.8-43.9 45.5 11.7-29.4-34 36.1-29.8-37.3 2.4 40.4-45.6h53l58.7-104v-63.3z"/><path d="m282.3 83.1h16.1l11.2-21h-15.5zm-101.1.1 17.3-.1 11.1-21h-16.8zm-4.1 26.4h15.6l1.4-18h-15zm100.7 0h15.7l1.4-18h-15.1zm-3.3 10.8-35.2 62h-84.5l35.2-62h-16.6l-42.5 75h47.2l-35.7 79.9-14.8-16.5.8 19.4-23.9 1.4 19.2 13.5-13.7 20.3 22.1-7.2 9.1 21.9 6.9-23.8 24.6 6.3-15.8-18.4 19.5-16.1-30.2 1.4 55.5-82h47.3l41.8-75-16.3-.1zm-138.2 177.4c-4 0-7.2-3.2-7.2-7.1 0-4 3.2-7.1 7.2-7.1s7.1 3.2 7.1 7.1-3.2 7.1-7.1 7.1" fill="#c2ccd2"/></svg>