<svg xmlns="http://www.w3.org/2000/svg" height="265.441" width="251.203" xmlns:v="https://vecta.io/nano"><clipPath id="A"><path d="M0 792h612V0H0z"/></clipPath><linearGradient id="B" gradientUnits="userSpaceOnUse" spreadMethod="pad" x1="218.875" x2="394.095" y1="558.505" y2="558.505"><stop offset="0" stop-color="#e42226"/><stop offset="1" stop-color="#751c2c"/></linearGradient><clipPath id="C"><path d="M0 792h612V0H0z"/></clipPath><radialGradient id="D" cx="0" cy="0" gradientTransform="matrix(94.837013 0 0 -94.837013 306.48825 538.53174)" gradientUnits="userSpaceOnUse" r="1" spreadMethod="pad"><stop offset="0" stop-color="#4599d9"/><stop offset="1" stop-color="#1f2a53"/></radialGradient><g transform="matrix(1.25 0 0 -1.25 -256.847 805.50125)"><g clip-path="url(#A)"><path d="M406.435 632.062l-.003 12.339H206.543v-12.339l-.006-69.613c0-14.955 2.432-29.65 7.23-43.676 3.993-11.686 9.564-22.726 16.589-32.893l-24.878-24.876 17.45-17.45 23.312 23.309c5.576-5.554 11.633-10.624 18.128-15.153 11.832-8.25 24.819-14.513 38.601-18.615l3.52-1.047 3.518 1.047a134.46 134.46 0 0 1 38.603 18.612 135.39 135.39 0 0 1 30.519 29.332c8.688 11.464 15.446 24.154 20.082 37.713 4.796 14.021 7.229 28.714 7.229 43.673l-.005 69.637" fill="#fff"/></g><path d="M218.883 632.266l-.008-69.715c0-29.536 10.441-56.635 27.832-77.806l147.388 147.386v.135z" fill="url(#B)"/><g clip-path="url(#C)"><path d="M306.488 444.972c50.667 15.08 87.611 62.016 87.611 117.579l-.005 69.58-147.387-147.387c15.324-18.655 36.047-32.708 59.781-39.772" fill="#fff"/><path d="M252.139 505.545l-1.545 3.466.985.987 3.537-3.536-.647-.643-2.761 2.764-.016-.019 1.707-3.819-.48-.478-3.821 1.706-.017-.017 2.765-2.764-.644-.642-3.536 3.536.996.995zm-4.635-.741l-1.082-1.078 2.977-2.98-.684-.683-2.978 2.975-1.082-1.081-.557.56 2.847 2.847.559-.56z" fill="#1f2a53"/><g fill="#fff"><path d="M285.193 562.646l2.233-6.879-5.85 4.252-5.852-4.252 2.235 6.879-5.854 4.252h7.236l2.235 6.885 2.233-6.885h7.234zm-33.681 0l5.854 4.252h-7.235l-2.239 6.885-2.234-6.885h-7.234l5.851-4.252-2.234-6.879 5.851 4.252 5.853-4.252zm15.461-18.153l-2.239 6.882-2.234-6.882h-7.234l5.852-4.251-2.235-6.883 5.851 4.252 5.854-4.252-2.237 6.883 5.853 4.251zm-21.897 45.098l-6.637 15.111h-.209v-20.171c0-.313-.211-.528-.525-.528h-5.95a.5.5 0 0 0-.531.528v34.76c0 .318.213.527.531.527h6.264c.42 0 .688-.156.84-.527l9.06-20.434h.216l8.896 20.434c.156.371.42.527.846.527h6.16c.314 0 .524-.209.524-.527v-34.76c0-.313-.21-.528-.524-.528h-5.951a.5.5 0 0 0-.528.528v20.171h-.21l-6.635-15.111c-.211-.477-.529-.689-1.004-.689h-3.631c-.475 0-.789.212-1.002.689m24.833-5.588h23.33a.5.5 0 0 1 .528.527v5.848c0 .315-.211.525-.528.525h-15.798c-.209 0-.317.106-.317.319v28.069c0 .317-.21.526-.528.526h-6.687c-.315 0-.525-.209-.525-.526V584.53c0-.312.21-.527.525-.527m43.289 21.541l-1.895.264c-4.107.578-5.582 1.894-5.582 3.951 0 2.266 1.631 3.896 4.791 3.896 2.95 0 5.582-.947 8.321-2.74.263-.155.527-.101.738.162l3.213 4.791c.262.371.21.578-.104.791-3.004 2.315-7.429 3.739-12.168 3.739-7.743 0-12.692-4.373-12.692-10.957 0-6.319 4.053-9.74 11.324-10.743l1.896-.259c4.265-.58 5.527-1.901 5.527-4.004 0-2.528-2.104-4.269-5.844-4.269-3.791 0-7.004 1.792-9.375 3.687-.26.211-.579.211-.788-.051l-4.005-4.583c-.261-.317-.159-.684.054-.894 2.791-2.688 8.213-4.898 13.801-4.898 9.266 0 14.059 4.791 14.059 11.268s-3.897 9.847-11.271 10.849"/></g></g><path d="M214.768 636.38v-4.111l-.006-69.718c0-14.046 2.283-27.848 6.787-41.023 4.353-12.735 10.695-24.658 18.855-35.431l.783-1.017-24.076-24.076 5.816-5.815 23.522 23.521a126.91 126.91 0 0 1 22.623-20.189 125.92 125.92 0 0 1 36.243-17.489l1.174-.349 1.171.349c12.939 3.849 25.136 9.731 36.245 17.489 10.956 7.643 20.599 16.922 28.667 27.576a126.24 126.24 0 0 1 18.856 35.431c4.503 13.175 6.787 26.977 6.787 41.023l-.008 69.718v4.111zm32.193-145.316c-7.627 10.076-13.559 21.22-17.628 33.127-4.21 12.312-6.346 25.218-6.346 38.36l.008 65.603H384.26L247.053 490.945l-.092.119m26.815-25.799c-7.939 5.543-15.143 12.008-21.498 19.275l137.705 137.701.005-59.69c0-13.142-2.135-26.048-6.343-38.36-4.07-11.907-10.001-23.051-17.629-33.127-7.545-9.969-16.569-18.647-26.818-25.799-10.052-7.014-21.053-12.39-32.709-15.994-11.659 3.604-22.659 8.98-32.713 15.994" fill="url(#D)"/></g></svg>