<svg xmlns="http://www.w3.org/2000/svg" viewBox="0 0 720.6 990" xmlns:v="https://vecta.io/nano"><g transform="matrix(.347 0 0 .347 200 258)"><path d="M1428.8-418.9c-86.6 64.9-259.7 151.5-476 97.4-382.3-93.8-490.5-421.9-490.5-421.9S353.4-415.7-28.2-321.6c-219.6 54.1-389.5-33.2-479.7-97h-68.5v1767.1c0 46.9 10.8 133.4 83.3 223.6 89.8 108.2 241.3 177.8 450.8 208.1 169.5 24.2 292.1 76.8 378.7 160.8 64.9 61.7 126.2 168.4 126.2 168.4s63.1-108.9 124.8-168.4c87.3-84 211-136.3 378.7-160.8 209.9-30.3 360.6-101 450.8-209.5 72.5-88 83.3-176.4 83.3-220.7V-417.1h-68.9" fill="#fff"/><path d="M1436-350.4s-208.1 161.9-501.3 88.7c-341.5-85.5-476-341.2-476-341.2S326-346.8-17.4-261.7c-288.5 72.1-497.7-90.2-497.7-90.2v1698.6c0 57.7 24.2 302.9 483.3 367.9 180.7 26.1 315.6 84 411.1 177.4 34.9 33.5 61.3 67.4 81.5 98.8 20.3-31.3 46.9-65.3 81.5-98.8 97-93.4 231.9-151.5 411.1-177.4 458-66 479.7-311.2 483.3-367.9V-351.9" fill="#013369"/><path d="M462.3 1821.7S595 1658 938.3 1605c396.7-60.9 382.3-246.3 382.3-255.7V458.5H-399.7v890.8c0 9.4-11.7 194.7 382.3 255.7 344.8 53.4 476 216.7 476 216.7" fill="#fff"/><path d="M58.4 1110.2l-.1-421.9-53-29.8V548.8h242v109.6l-50.5 29.8v861.9l-129.1-38.6-186.8-551.8v364.2l59.5 45.4v112.2l-259.3-66v-95.6l59.5-23.2V687.4l-60.9-30.1V547.6h196.2L59 1110.2m446.6 385.9l51.9 62v109.6l-257.1-95.9v-93l56.6-23.2V687.4l-56.3-28.5V547.8h447.2V771h-98.1l-29.7-91.6H506.5v258.2h85.1l33.5-49h68.5v229.7h-68.5l-32.3-46.5h-86.6v425.6m284.3 38.3v-109.6l63.8-52.3V688.6l-54.5-28.5V549H1057v111.1l-50.5 28.5v645.5l110.7-29.9 21.2-168.8h105.7v282l-454.4 121.2" fill="#d50a0a"/><g fill="#fff"><path d="M-354.6 277.1l-77.9-58.4h95.2l31.4-90.2 31.4 90.2h95.2l-77.9 58.8 28.6 91.6-77.5-54.5-77.5 54.5 28.6-91.6m337.6-.4l-77.9-58.4H-.1l31.4-90.2 31.4 90.2H158l-77.9 58.8 28.6 91.6-77.5-54.5-77.5 54.5 28.6-91.6M-354.6-25.8l-77.9-58.4h95.2l31.4-90.2 31.4 90.2h95.2l-77.9 58.8 28.6 91.6-77.4-54.5-77.5 54.5 28.6-91.6"/><path d="M-17.4-25.8l-77.9-58.4H-.1l31.4-90.2 31.4 90.2H158L80.1-25.5l28.6 91.6-77.5-54.4-77.5 54.5 28.6-91.6m1323.9 392.7l-77.5-54.5-77.5 54.5 28.6-91.6-77.9-58.8h95.2l31.4-90.2 31.4 90.2h95.2l-77.9 58.8 28.7 91.6m-338.7 0l-77.5-54.5-77.5 54.5 28.6-91.6-77.9-58.8H858l31.4-90.2 31.4 90.2h95.2l-77.9 58.8 28.7 91.6"/><path d="M1306.2 64.3l-77.5-54.5-77.5 54.5 28.6-91.6-77.9-58.8h95.2l31.4-90.2 31.4 90.2h95.2l-77.9 58.8 28.7 91.6m-338.7 0L889.6 9.9l-77.5 54.5 28.6-91.6L762.8-86H858l31.4-90.2L920.8-86h95.2l-77.9 58.8 28.7 91.6M534.4-94.4c-34.7-28.6-73.6-46.9-114.7-55.9 10-9.4 20.2-17.6 29.2-25.1 51.6 12.4 86.2 35.5 110 55.2l-24.4 25.7zm-50.1 60.3c-33-27.7-73.2-48.3-118.7-57.7 7-9 15.1-18.5 22.9-27.4 34.8 6.2 79.3 24.5 118.3 56.6-7.9 9.5-15.4 19.2-22.4 28.4zM439.2 29C403.6-.7 362-19 321.3-26.6l19.6-31c49.8 9.9 90.2 33.2 118.7 57-7.4 10.4-14.2 20.4-20.4 29.6zm235.5-301.5s-40.4 21-96.7 76.5c12.7 7.2 27 17.2 35.2 24-8.5 7.5-17.2 15.7-25.3 23.3-36.8-30.2-74.7-45.4-104.2-52.7 9.8-7 20.2-14 30.5-20.7 15.9 4 31.2 10.3 31.2 10.3 63.5-48.3 118.7-69.2 118.7-69.2s-6.4-3.1-23.4-2.9C390.8-280.7 161-94.2 204.3 224.6c4.7 33.9 17.8 95.6 34.5 122.6 5.6-53 25.5-170.6 84.8-296.8C303.1 43 286.1 40 286.1 40c6.1-12.7 14.5-28.9 14.5-28.9 44 8.3 82.6 26.6 116.1 53.4l-17.3 28.2c-11.8-9.3-23.7-17.2-36.8-24.5-66.7 116.5-97.4 226.5-110 283.8.7 3.5 7.9 5.4 13.8 4.6 273.7-35.5 400.3-175.3 440-326.4 25.6-99.2 17.2-203-17.1-287.8-2.4-6-7.1-15.8-15.1-15.1"/></g></g></svg>