<svg xmlns="http://www.w3.org/2000/svg" viewBox="0 0 762.9 865.3" xmlns:v="https://vecta.io/nano"><path d="M757.4 170.5l5.5-12.5-13.1-3.9-66-19.5c-16.3-4.8-28.4-17.9-36.1-38.9L618.4 16l-5.8-16-13.1 10.8-65.1 53.9c-15 12.4-30 18.7-44.3 18.7-19.8 0-43.2-10.1-58.3-25.1l-42-41.3-8.4-8.3L373 17l-42 41.4c-15.1 15-38.6 25.1-58.4 25.1-14.4 0-29.3-6.3-44.4-18.7l-65-53.9-13-10.9-5.8 16-29.2 79.8c-7.7 21-19.9 34.1-36.1 38.9l-66 19.5L0 158l5.5 12.5 28 63.6C45.8 262 52 291 52 320.3c0 39.5-9.8 64.2-20.2 90.3-11.6 29.2-23.6 59.3-23.6 110.6 0 143.9 111 238 214.2 264.5h.1.1c25.6 6.3 42.1 9.6 58.1 12.7 14.6 2.9 28.5 5.7 48.5 10.5l43.6 46.9 8.8 9.5 8.8-9.5c.4-.4 33.8-36.4 43.5-46.9 20-4.9 33.9-7.6 48.5-10.5 16-3.2 32.5-6.5 58.1-12.7h.1.1c103.2-26.5 214.2-120.6 214.2-264.5 0-51.3-12-81.5-23.6-110.7-10.4-26.1-20.2-50.7-20.2-90.2-.1-29.4 6.1-58.4 18.4-86.1zM699 320.3c0 85.9 43.8 105.4 43.8 200.9 0 137.5-106.4 227.5-205.2 252.9-49.9 12.2-65 13-110.1 24.1l-46 49.5-46-49.5c-45.1-11.1-60.2-11.9-110.1-24.1-98.9-25.4-205.2-115.4-205.2-252.9 0-95.4 43.8-115 43.8-200.9 0-31-6.6-61.7-19.5-91l-28-63.6 66-19.5c20.1-5.9 34.9-21.5 44-46.3l29.2-79.8 65 53.9c17.3 14.3 34.8 21.5 52 21.5 23 0 49.3-11.2 66.8-28.6l41.9-41.4 41.9 41.4c17.5 17.4 43.8 28.6 66.8 28.6 17.3 0 34.7-7.2 52-21.5l65.1-53.9 29.2 79.8c9.1 24.8 23.9 40.4 44 46.3l66 19.5-28 63.6c-13 29.4-19.5 60-19.4 91z" fill="#fff"/><path d="M718.4 229.3l28-63.6-66-19.5c-20.1-5.9-34.9-21.5-44-46.3l-29.2-79.8L542.1 74c-17.3 14.3-34.7 21.5-52 21.5-23 0-49.3-11.2-66.8-28.6l-41.9-41.4-41.9 41.4c-17.5 17.4-43.8 28.6-66.8 28.6-17.2 0-34.7-7.2-52-21.5l-65-53.9-29.2 79.8c-9.1 24.8-23.9 40.4-44 46.3l-66 19.5 28 63.6c12.9 29.3 19.5 60 19.5 91 0 85.9-43.8 105.5-43.8 200.9 0 137.5 106.3 227.5 205.2 252.9 49.9 12.2 65 13 110.1 24.1l46 49.5 46-49.5c45.1-11.1 60.2-11.9 110.1-24.1 98.8-25.4 205.2-115.4 205.2-252.9 0-95.5-43.8-115-43.8-200.9-.1-31 6.4-61.6 19.4-91zm-7.2 192.8c10.5 26.4 20.7 54 20.7 99.2 0 125.6-93.5 215.9-197.1 242.5-51.2 12.9-75 14.2-113.2 24.9-5 5.2-40.2 43.3-40.2 43.3l-40.2-43.3c-38.2-10.7-62-12-113.2-24.9-80-20.6-153.9-79.1-183.5-162.5-8.7-24.6-13.6-51.4-13.6-80 0-93.8 43.8-111.6 43.8-200.9 0-36.6-8.8-69-20.4-95.4l-23-52.3 54.2-16c23.6-7 40.8-24.8 51.1-53l23.9-65.5 53.3 44.1c17.5 14.5 37.6 24 58.9 24 28.5 0 56.8-14.2 74.4-31.7l34.3-33.9 34.3 33.9c17.6 17.5 45.9 31.7 74.4 31.7 21.3 0 41.3-9.5 58.9-24l53.3-44.1 23.9 65.5c10.3 28.2 27.5 46 51.1 53l54.2 16-23 52.3c-11.6 26.4-20.4 58.8-20.4 95.4 0 46.3 11.7 73.3 23.1 101.7zm-13.6-233.5s-83.7-7.3-106.3-109c0 0-50.2 51.7-101 51.7-65.6 0-108.7-55.7-108.7-55.7s-43.2 55.7-108.7 55.7c-50.9 0-101-51.7-101-51.7-22.7 101.7-106.4 109-106.4 109s34 60.2 34 131.6a263.38 263.38 0 0 1-1.3 26.1c-7.2 71.2-42.5 99.8-42.5 175 0 92.2 63.2 189.1 178.6 218.3C289.1 753.4 327 757 354.8 767c3.6 3.3 26.7 28.5 26.7 28.5l26.7-28.5c27.9-10.1 65.7-13.6 120.5-27.4 115.4-29.2 178.6-126 178.6-218.3 0-83.8-43.8-109.7-43.8-201.1 0-71.4 34.1-131.6 34.1-131.6zm-14.9 332.7c0 106.6-83.1 174.5-160.1 194.1-61 15.5-100.9 17.3-127.7 30.2 0 0-9.8 8.9-13.4 13-3.7-4.1-13.4-13-13.4-13-26.8-12.9-66.7-14.7-127.7-30.2-77-19.6-160.1-87.4-160.1-194.1 0-76.3 43.8-104.3 43.8-201.1 0-65.3-24.7-115.6-24.7-115.6s57-11.5 83.5-83.6c0 0 37.8 35.3 90 35.3 65.3 0 108.7-45.9 108.7-45.9s43.4 45.9 108.7 45.9c52.2 0 89.9-35.3 89.9-35.3 26.5 72.1 83.5 83.6 83.5 83.6S639 254.9 639 320.2c-.1 96.8 43.7 124.8 43.7 201.1zm-71.8-201.1c0-41.4 9-77.2 16.7-100.3-15.4-8.5-34.2-22.5-50.5-45.2L108.3 526.8c2.2 69.2 47 119.7 98.1 145.9l408-306.4c-2.2-13.7-3.5-28.9-3.5-46.1zM316.7 558.7l-36.3 27.2-39.1-59.8v89.3L207 641.1V514.8c0-17.8-17-18.3-17-18.3l48.6-36.5 43.8 67.1v-100l34.3-25.8zm138.4-103.9L421.5 480v-57.6l-38.7 29.1v57.6l-35.3 26.5V409.2c0-17.8-17-18.3-17-18.3l52.3-39.3v58.2l38.7-29.1v-58.2l33.6-25.2zm126.7-95.1l-97.3 73.1V306.5c0-17.9-17-18.3-17-18.3l52.3-39.3v117.2l62.1-46.6c-.1 0-2.2 15-.1 40.2zm-69-177.3l-399.4 300c11.5-45.2 38.7-82.5 38.7-162.3 0-41.4-9-77.2-16.7-100.3 17.9-9.8 40.5-27.3 58.5-57.3 19.3 10.8 46.7 21.7 78.9 21.7 48.8 0 86.9-21.3 108.7-37.3 21.8 16 59.9 37.3 108.7 37.3 7.8 0 15.3-.6 22.6-1.8zm109.1 218.8c13 45.3 32.8 75 32.8 120.1 0 90.5-72 150-139 167-48.3 12.3-107.4 18.6-125.3 28.8-4 3-8.9 8.2-8.9 8.2s-5-5.3-9-8.2c-17.9-10.2-77-16.5-125.3-28.8l-5.5-1.5z"/><path d="M711.2 422.1c-11.4-28.4-23.1-55.4-23.1-101.7 0-36.6 8.8-69 20.4-95.4l23-52.3-54.2-16c-23.6-7-40.8-24.8-51.1-53l-23.9-65.5L549 82.3c-17.6 14.5-37.6 24-58.9 24-28.5 0-56.8-14.2-74.4-31.7l-34.3-33.9-34.3 33.9c-17.6 17.5-45.9 31.7-74.4 31.7-21.3 0-41.4-9.5-58.9-24l-53.3-44.1-23.9 65.5c-10.3 28.2-27.5 46-51.1 53l-54.2 16 23 52.3c11.6 26.4 20.4 58.8 20.4 95.4 0 89.3-43.8 107.1-43.8 200.9 0 28.6 4.9 55.4 13.6 80C74.1 684.7 148 743.2 228 763.8c51.2 12.9 75 14.2 113.2 24.9l40.2 43.3 40.2-43.3c38.2-10.7 62-12 113.2-24.9 103.6-26.6 197.1-116.9 197.1-242.5 0-45.2-10.2-72.8-20.7-99.2zM528.7 739.6c-54.8 13.8-92.6 17.3-120.5 27.4-3.5 3.4-26.7 28.5-26.7 28.5L354.8 767c-27.8-10-65.7-13.6-120.5-27.4C118.9 710.4 55.7 613.5 55.7 521.3c0-75.2 35.3-103.8 42.5-175a263.38 263.38 0 0 0 1.3-26.1c0-71.4-34-131.6-34-131.6s83.7-7.3 106.4-109c0 0 50.1 51.7 101 51.7 65.5 0 108.7-55.7 108.7-55.7s43.1 55.7 108.7 55.7c50.8 0 101-51.7 101-51.7 22.6 101.7 106.3 109 106.3 109s-34.1 60.2-34.1 131.6c0 91.4 43.8 117.3 43.8 201.1 0 92.3-63.2 189.1-178.6 218.3zM282.4 427.1l34.3-25.8v157.4l-36.3 27.2-39.1-59.8v89.3L207 641.1V514.8c0-17.8-17-18.3-17-18.3l48.6-36.5 43.8 67.1zm381.3-222.5s-57-11.5-83.5-83.6c0 0-37.7 35.3-89.9 35.3-65.3 0-108.7-45.9-108.7-45.9s-43.4 45.9-108.7 45.9c-52.2 0-90-35.3-90-35.3-26.5 72.1-83.5 83.6-83.5 83.6s24.7 50.3 24.7 115.6c0 96.8-43.8 124.8-43.8 201.1 0 106.7 83.1 174.5 160.1 194.1 61 15.5 100.9 17.3 127.7 30.2 0 0 9.7 8.9 13.4 13 3.6-4.1 13.4-13 13.4-13 26.8-12.9 66.7-14.7 127.7-30.2 77-19.6 160.1-87.5 160.1-194.1 0-76.3-43.8-104.3-43.7-201.1 0-65.3 24.7-115.6 24.7-115.6zM152.1 320.1c0-41.4-9-77.2-16.7-100.3 17.9-9.8 40.5-27.3 58.5-57.3 19.3 10.8 46.7 21.7 78.9 21.7 48.8 0 86.9-21.3 108.7-37.3 21.8 16 59.9 37.3 108.7 37.3 7.8 0 15.3-.6 22.6-1.8l-399.4 300c11.5-45.2 38.7-82.5 38.7-162.3zm54.3 352.6c-51.1-26.2-95.9-76.7-98.1-145.9l468.8-352.1c16.3 22.7 35.1 36.7 50.5 45.2-7.7 23.1-16.7 58.9-16.7 100.3 0 17.2 1.3 32.4 3.5 46.1zm448.3-151.4c0 90.5-72 150-139 167-48.3 12.3-107.4 18.6-125.3 28.8-4 3-8.9 8.2-8.9 8.2s-5-5.3-9-8.2c-17.9-10.2-77-16.5-125.3-28.8l-5.5-1.5 380.2-285.6c13 45.3 32.8 75 32.8 120.1zM421.5 322.5l33.6-25.2v157.5L421.5 480v-57.6l-38.7 29.1v57.6l-35.3 26.5V409.2c0-17.8-17-18.3-17-18.3l52.3-39.3v58.2l38.7-29.1zm160.4-3c-.1 0-2.2 15-.1 40.2l-97.3 73.1V306.5c0-17.9-17-18.3-17-18.3l52.3-39.3v117.2z" fill="#e4e5e6"/></svg>