<svg xmlns="http://www.w3.org/2000/svg" fill-rule="evenodd" height="92.795" image-rendering="optimizeQuality" shape-rendering="geometricPrecision" viewBox="0 0 5080 2455" width="192" xmlns:v="https://vecta.io/nano"><path d="M1915 1042h215l-211 661h-270l-128-465-135 465h-265l-211-661h215l128 465 130-465h270l130 465 130-465zM959 281c7-24 28-57 35-83 7-22 4-37-4-41 7-72-43-139-115-154-78-15-154 35-172 113-15 78 35 154 113 172 11 2 22 2 33 2 7 2 11 7 13 9 7 7 11 30 4 41-4 11-35 43-70 80s-46 41-76 78c-15 17-20 39-20 39s-28 15-48 41c-20 28-46 80-46 80s-22 13-35 22c-11 11-20 17-37 39 0-20 7-28 20-37 9-7 22-39 24-78 17-9 30-28 30-50 0-30-26-57-57-57-13 0-24 4-33 11-22-11-50-15-83-9-11 2-22 7-24 15-7 2-17 7-30 26-15 22-9 37-11 46-2 7-26 20-15 70 4 20 2 35 4 41 2 9 4 13 13 15 4 2 11 4 15 7 9 2 11 4 13 13v4 13c0 2-2 7-7 7l-54 2c-33-2-50 9-50 9s-33 2-54 15c-22 13-50 48-57 78-4 13-7 22-13 33-4 7-24 20-39 35-9-33-22-72-22-100v-7c0-9 0-17 4-26 9-13 15-28 13-46 0-11 2-24 4-35 2-9 0-15 4-22 2-4 7-11 7-17-2-7-11-7-15-4-11 4-13 15-17 26-2 7-2 15-7 17-4 2-11 2-15-2-4-7-7-11-11-17-2-7-15-50-26-72-4-4-7-11-13-13-4-2-11 2-9 7 4 13 11 26 15 39-4-9-11-17-15-24-4-4-9-11-15-13-4-2-9 0-11 4 0 2 2 7 2 9 9 11 17 24 24 39-4-4-9-9-15-9-2 0-7 0-9 2 0 2 0 7 2 9 7 9 15 17 20 26 4 7 9 15 13 22 0-4-6-4-6 2 4 9 15 15 17 26 9 22 7 46 4 72-2 28 2 102-4 135-11 52-9 72 4 130 7 35 41 35 67 17 43-28 89-93 100-107 9-11 15-28 22-26 15 17 26 89 13 152-2 13-11 37-9 43 2 9 9 11 9 13-2 48-33 57-46 107-11 50-7 85 2 135 11 50 33 100 52 137 20 37 24 65 24 65h17s26 107 80 189c159 239 215 346 226 370 11 22-4 22-4 33s9 22 35 39c28 17 50 78 61 111 9 33 33 96 80 89 50-7 48-70 39-109-11-39-50-59-57-85-7-24-33-65-35-115 0-7 0-13 2-22 2-28 20-65 17-87-2-22-59-61-72-85s-22-74-26-76c-7-2-13-2-13-2s-9-165-30-233c-17-50-61-93-61-93s20-37 46-133c30-115-15-170-28-235-11-52 2-130 35-207 13-30 37-107 39-146 0-17 11-30 28-54s33-50 39-72c7-22 24-43 50-80 13-20 20-37 20-37s48-48 83-96c41-54 48-87 50-98s20-24 28-43c9-13 15-43 22-67zm3117 1237c0 130-109 183-274 183h-580v-661h524c180 0 280 48 280 174 0 76-43 120-96 139-2 0-4 2-4 4s2 4 4 4c83 11 146 63 146 156zm-659-217h330c57 0 78-17 78-46 0-33-24-48-78-48h-330v93zm456 183c0-26-20-43-72-43h-385v91h385c54 2 72-17 72-48zm1206 217h-233l-76-141h-370l-74 141h-233l356-661h267l361 661zm-391-302l-104-198-102 198h207zm-1828 89l-374-446h-278v661h196v-448l372 446h278v-659h-198v446z" fill="#fa4d00" fill-rule="nonzero"/></svg>