<svg viewBox="0 0 800 800" xmlns="http://www.w3.org/2000/svg"><path d="m653.09 36.73h-530.23v452.15a278.5 278.5 0 1 0 557 0v-452.15z"/><path d="m315.19 98.65h15.17v72.66a14 14 0 0 1 -14 14h-28.63a13.74 13.74 0 0 1 -13.83-14v-72.66h15.17v69.35a3.4 3.4 0 0 0 3.5 3.37h19.12a3.4 3.4 0 0 0 3.5-3.37zm-65.81 13.95v72.67h-15.17v-28.41h-26.12v28.41h-15.17v-72.67a14 14 0 0 1 14-14h28.67a13.74 13.74 0 0 1 13.79 14zm-15.17 3.31a3.4 3.4 0 0 0 -3.5-3.37h-19.12a3.4 3.4 0 0 0 -3.5 3.37v25.78h26.12zm195.84-3.37h21.88v72.73h15.17v-72.73h21.9v-13.89h-58.95zm78.5 72.73h15.17v-86.63h-15.17zm-110.41-48.52c-4.9-1.41-9.24-2.52-13.45-3.6-3.75-1-7.29-1.86-10.92-2.91-1.66-.44-3.46-1.66-3.46-3.75v-10.58a3.4 3.4 0 0 1 3.5-3.37h18.61a3.4 3.4 0 0 1 3.5 3.37v7.26h15.17v-10.57a14 14 0 0 0 -13.95-14h-28.14a13.74 13.74 0 0 0 -13.82 14v17.46c0 8.57 7.76 11.93 13.59 13.7 5.56 1.66 9.58 2.7 13.83 3.81 3.12.81 6.24 1.61 10.16 2.7 3 .75 3.46 2.59 3.46 3.62v14.11a3.4 3.4 0 0 1 -3.5 3.37h-19.17a3.4 3.4 0 0 1 -3.5-3.37v-7.09h-15.17v10.4a14 14 0 0 0 14 14h28.68a13.75 13.75 0 0 0 13.83-14v-20.86c-.04-6.63-4.49-11.24-13.25-13.7zm197-38.11v42l-32.21-42h-14.69v86.63h14.66v-58.06l32.24 41.88v16.18h14.66v-86.63z" fill="#fff"/><path d="m290.16 577.72h-13.73v-49.06a11.49 11.49 0 0 1 11.47-11.47h32.62v12.81h-29.21a1.08 1.08 0 0 0 -1.15 1v14.73h30.36v13.73h-30.36zm192.14-49.06v37.59a11.49 11.49 0 0 0 11.47 11.47h32.62v-12.81h-29.22a1.08 1.08 0 0 1 -1.15-1v-32.86a1.08 1.08 0 0 1 1.15-1h29.22v-12.86h-32.62a11.49 11.49 0 0 0 -11.47 11.47zm104.17-62.13-.13 1.12 1.12-.14a36.68 36.68 0 0 0 31.73-32.32l.12-1.12-1.11.14a36.71 36.71 0 0 0 -31.73 32.32zm-48.72-56.39a37.54 37.54 0 0 0 -5.34 3.2 36.45 36.45 0 0 0 -7.18 6.75 36.83 36.83 0 0 0 -8.1 22.54v1.13l1.09-.26a36.69 36.69 0 0 0 28.4-35.28v-1.13l-1.1.26a36.83 36.83 0 0 0 -7.77 2.79zm-75.65-21.63-.27-1.09-1 .53a36.63 36.63 0 0 0 -18.52 40.48c.07.31.12.63.2.94l.28 1.09 1-.53a35.88 35.88 0 0 0 4.41-2.77 36.55 36.55 0 0 0 14.17-37.42c-.1-.41-.16-.82-.27-1.23zm86.9-30.1 1.11-.19a36.66 36.66 0 0 0 30.48-33.5l.08-1.12-1.11.18a36.69 36.69 0 0 0 -30.48 33.5zm-75.34-20.41.23 1.1 1-.49a36.67 36.67 0 0 0 20-40.62l-.24-1.11-1 .49a36.69 36.69 0 0 0 -20 40.63zm-72.36 2.32v-.06l.05.06.69-.89a36.66 36.66 0 0 0 0-45.29l-.7-.89-.7.89a36.7 36.7 0 0 0 0 45.29zm-207.52 116.51a36.88 36.88 0 0 0 21.44 10.68l1.12.14-.12-1.12a36.74 36.74 0 0 0 -31.73-32.32l-1.12-.14.13 1.12a36.83 36.83 0 0 0 10.28 21.64zm83.67-36.74a36.67 36.67 0 0 0 -7.17-6.75 37.09 37.09 0 0 0 -5.35-3.2 36.55 36.55 0 0 0 -7.77-2.79l-1.1-.26v1.13a36.69 36.69 0 0 0 28.4 35.28l1.1.26v-1.13a36.83 36.83 0 0 0 -8.11-22.54zm64.4-32.09-1-.53-.28 1.09c-.1.41-.17.82-.26 1.23a36.74 36.74 0 0 0 18.58 40.19l1 .53.28-1.09c.07-.31.12-.63.19-.94a36.6 36.6 0 0 0 -18.51-40.48zm-110.28-41.26a36.88 36.88 0 0 0 21 11.48l1.12.19-.09-1.13a36.69 36.69 0 0 0 -30.48-33.5l-1.12-.18.08 1.12a36.86 36.86 0 0 0 9.49 22.02zm96.2-8.13 1 .49.23-1.1a36.7 36.7 0 0 0 -20-40.63l-1-.49-.23 1.11a36.68 36.68 0 0 0 20 40.62zm-86.11 57.14c52.25 0 68.37-23.06 106.15-23.06 11.52 0 22.08 4.19 31 11.51a142.4 142.4 0 0 1 14.19-17.69c-10.66-13.68-19.62-27.09-19.62-49 0-25.13 11.92-39 18.23-45.83l-10.8-17.1a96.15 96.15 0 0 0 -21.81 33.82c-9.67-14.14-26.66-19.9-31-19.9v20.21c9.8 0 23.93 15 26 36.23a97.22 97.22 0 0 0 8.15 30.64 51.5 51.5 0 0 0 -16.75-3.11c-19.83 0-40 8.78-40 8.78-10.78-42.48-28.36-59.2-58.83-66.53v20.18c17.4 5 30.22 16.71 39.61 52.94 0 0-19.07 7.78-37 7.78-12.62 0-24-2.69-33.7-15.93l-18.69 7.31s8.84 28.75 44.87 28.75zm-98.39-338.61h516.18v431.74c0 142.31-115.78 258.12-258.09 258.12s-258.09-115.81-258.09-258.12zm230.44 529.29c-21.88 40.25-65.82 89.89-130.06 90.25a245.73 245.73 0 0 0 63.24 38.63c16.65-10.98 62.73-52.83 66.82-128.88zm185.36 90.25c-64.24-.36-108.18-50-130.06-90.25 4.09 76.05 50.18 117.9 66.82 128.88a245.56 245.56 0 0 0 63.24-38.63zm-403.07-462.53h490.73v-144.28h-490.73zm0 274.73a244.07 244.07 0 0 0 46 142.84c105.53 0 171.6-34.11 171.6-123.51 0-32.42-16.73-38.1-36.55-38.1-41.63 0-78.13 36.78-111.42 36.78-22.25 0-37.6-9.29-46.34-13.32l8.39-18.25s19.12 11.33 34.33 11.33c16.15 0 32.44-10.52 32.44-10.52a62.5 62.5 0 0 1 -22.66-19.05c-6.2-8.35-10.51-21.2-12.11-31.94h20.22c2.72 12.64 11.35 36.52 37.67 36.55 8.89 0 27.71-9.66 38.2-9.66-14.86-18.26-21.79-48.5-21.79-48.5s8.73-3.21 18.91-7.16c17.81 64.74 31.9 35.82 61.63 62.78 0-83.13 54.77-87.41 54.77-141.66 0-25.13-11.91-39-18.22-45.83l10.8-17.1a96.15 96.15 0 0 1 21.82 33.85c9.66-14.14 26.65-19.9 31-19.9v20.21c-9.81 0-23.94 15-26 36.23a97.22 97.22 0 0 1 -8.15 30.64 51.42 51.42 0 0 1 16.75-3.11c19.83 0 40 8.78 40 8.78 10.78-42.48 28.36-59.2 58.84-66.53v20.17c-17.4 5-30.22 16.71-39.61 52.94 0 0 19.06 7.78 37 7.78 12.63 0 24-2.69 33.7-15.93l18.67 7.31s-8.83 28.73-44.86 28.73c-52.26 0-68.38-23.06-106.15-23.06-24.63 0-60.1 20.92-60.1 93.36v26.73s-.42 73.69-.42 76.07c0 81.85-16.36 139.17-25.36 163.28a246.27 246.27 0 0 0 64.64 0c-9-24.08-25.32-81.43-25.32-163.26 0-2.38-.42-76.07-.42-76.07 0-11.32 0-18.87 0-26.73 0-38 12.6-53.45 12.6-53.45 7.84 18.84 7.57 42.68 7.57 46.61 29.78-27.07 43.83 2 61.67-62.84 4.94 1.93 18.9 7.16 18.9 7.16s-6.81 30.24-21.64 48.47c10.5 0 29.31 9.64 38.21 9.66 26.31 0 34.94-23.91 37.66-36.55h20.23c-1.6 10.74-5.91 23.59-12.11 31.94a62.57 62.57 0 0 1 -22.67 19.05s16.29 10.52 32.45 10.52c15.21 0 34.32-11.33 34.32-11.33l8.39 18.25c-8.74 4-24.09 13.32-46.34 13.32-33.29 0-69.78-36.78-111.42-36.78-19.82 0-36.55 5.68-36.55 38.1 0 89.4 66.07 123.47 171.6 123.51a244 244 0 0 0 46-142.84v-262h-490.77zm536.59-464.88v464.88a291.23 291.23 0 1 1 -582.46 0v-464.88zm-12.73 12.73h-557v452.15a278.5 278.5 0 1 0 557 0z" fill="#00b140"/></svg>