<svg viewBox="0 0 800 800" xmlns="http://www.w3.org/2000/svg"><circle cx="400" cy="400" r="347"/><circle cx="400" cy="400" fill="#0085ca" r="194.32"/><g fill="#fff"><path d="m400 726.18c-179.86 0-326.18-146.32-326.18-326.18s146.32-326.18 326.18-326.18 326.18 146.32 326.18 326.18-146.32 326.18-326.18 326.18zm319.24-326.18c0-176-143.24-319.24-319.24-319.24s-319.24 143.24-319.24 319.24 143.24 319.24 319.24 319.24 319.24-143.24 319.24-319.24z"/><path d="m400 622.08c-122.46 0-222.08-99.62-222.08-222.08s99.62-222.08 222.08-222.08 222.08 99.62 222.08 222.08-99.62 222.08-222.08 222.08zm215.14-222.08c0-118.63-96.51-215.14-215.14-215.14s-215.14 96.51-215.14 215.14 96.51 215.14 215.14 215.14 215.14-96.51 215.14-215.14z"/><path d="m489.15 498.35-4.15 11.93a5.49 5.49 0 0 1 -3.07 3.28c-7.27 3-32.2 11.56-79.4 11.56-47.81 0-76.57-9.4-84.72-12.49a5.39 5.39 0 0 1 -3.22-3.34l-4-11.67a1.79 1.79 0 0 1 2.17-2.32 329.23 329.23 0 0 0 87.24 11.42 348.19 348.19 0 0 0 87-10.72 1.79 1.79 0 0 1 2.15 2.35zm-89.15-5.51c47.16 0 83.39-10.1 93.22-13.13a5.47 5.47 0 0 0 3.55-3.46l49.23-142.66a5.22 5.22 0 0 0 -2.71-3.13 5.06 5.06 0 0 0 -6.58 2c-10.92 18.48-21.9 24.17-25.52 26l-.12.06a5.71 5.71 0 0 0 -2.93 6.27s0 .11 0 .16v.14c.2.88.47 2.17.71 3.82.16 1.43.32 3.2.47 5.17a54.15 54.15 0 0 1 -.42 12.54c-10.28 6.35-24.17 12.49-35.18 8.54-8.72-3.16-15.42-16.92-17.82-45.49a51.83 51.83 0 0 1 11-14.45l.1-.09a5.74 5.74 0 0 0 1.2-6.83.94.94 0 0 1 -.06-.15l-.07-.13c-.41-.79-1-2-1.67-3.5-.52-1.33-1.13-3-1.78-4.87-1.86-6-3.46-14.91-2.57-27.45a5.42 5.42 0 0 0 -3.95-5.78 5.11 5.11 0 0 0 -6.1 3.58c-5.75 20.75-14.88 29.17-17.88 32l-.1.09a5.73 5.73 0 0 0 -1.2 6.83l.06.15.07.13c.41.79 1 2 1.67 3.5.52 1.33 1.13 3 1.78 4.87a60.74 60.74 0 0 1 2.21 10.39c-14.61 27.19-25.3 36.68-38.61 36.76-13.31-.08-24-9.57-38.63-36.79a60.74 60.74 0 0 1 2.21-10.39c.65-1.87 1.26-3.54 1.78-4.87.66-1.53 1.26-2.71 1.67-3.5l.07-.13.06-.15a5.73 5.73 0 0 0 -1.2-6.83l-.1-.09c-3-2.78-12.13-11.2-17.88-32a5.11 5.11 0 0 0 -6.1-3.6 5.42 5.42 0 0 0 -3.95 5.78c.9 12.54-.71 21.47-2.57 27.45-.65 1.86-1.26 3.54-1.78 4.87-.66 1.53-1.26 2.71-1.67 3.5l-.07.13a.94.94 0 0 1 -.06.15 5.74 5.74 0 0 0 1.2 6.83l.1.09a52 52 0 0 1 11 14.45c-2.38 28.62-9.08 42.38-17.82 45.54-11 3.95-24.9-2.19-35.18-8.54a53.52 53.52 0 0 1 -.41-12.54c.14-2 .3-3.74.46-5.17.24-1.65.51-2.94.71-3.82v-.14c0-.05 0-.11 0-.16a5.71 5.71 0 0 0 -2.93-6.27l-.12-.06c-3.61-1.87-14.6-7.56-25.52-26a5.06 5.06 0 0 0 -6.58-2 5.22 5.22 0 0 0 -2.71 3.13l48.86 141.68a5.47 5.47 0 0 0 3.46 3.42c9.84 3.22 46.57 14.15 93.7 14.15zm-69.91-49a11.87 11.87 0 1 1 -11.87 11.87 11.88 11.88 0 0 1 11.87-11.92zm139.82 0a11.87 11.87 0 1 1 -11.91 11.82 11.88 11.88 0 0 1 11.91-11.87zm-93.22 5.51a11.87 11.87 0 1 1 -11.86 11.87 11.89 11.89 0 0 1 11.86-11.92zm46.61 0a11.87 11.87 0 1 1 -11.87 11.87 11.88 11.88 0 0 1 11.87-11.92z"/><path d="m207 232.41c.35 5.47-1.68 12.17-6.56 17.83-7.2 8.36-19.49 8.38-28.9.27-9.68-8.34-11.13-20.77-3.75-29.35a29.55 29.55 0 0 1 13.65-8.81l.08-.21-8.2-7.07a43 43 0 0 0 -10.46 9c-12 14-12.76 33.16 2 45.87 12.65 10.9 30 10.35 41.57-3.07a36.92 36.92 0 0 0 8.71-17l-7.93-7.59z"/><path d="m252.36 188.22-16.6-19.77c-4.66-5.57-7-9.53-9-14.68l-11.85 9.91c4.72 2.86 8.2 5.91 12.86 11.48l5.31 6.35-18.18 15.2-5.31-6.34c-4.66-5.57-7.05-9.54-9-14.69l-11.85 9.91c4.72 2.87 8.2 5.92 12.86 11.49l16.26 19.43c4.66 5.57 7.05 9.53 9 14.69l11.46-10.33c-4.72-2.87-8.2-5.92-12.86-11.49l-5-6 18.19-15.2 5.09 6.11c4.66 5.57 7 9.54 9 14.69l12.49-9.23c-4.73-2.91-8.23-5.96-12.87-11.53z"/><path d="m359.6 136c6.23-4.74 9.09-10.56 7.82-17.57-1.66-9.21-10.78-15.61-26.21-12.83l-14.36 2.59c2.71 4.83 4.24 9.2 5.53 16.35l4.49 24.93c1.29 7.14 1.39 11.77.53 17.24l15.36-3.55c-2.71-4.83-4.24-9.19-5.53-16.34l-1.67-9.32c6.53 6.79 12.35 12.46 17.66 17 3.83 3.22 7.12 5.13 9.33 5.54l9.93-1-.05-.29c-9.5-8.56-16.23-14.83-22.83-22.75zm-14.23.43-4.37-24.26c7.64-1.38 14.54 2.1 15.85 9.38 1 5.51-2.66 11.03-11.48 14.84z"/><path d="m407.81 151.41 1.37-34.41c.29-7.25 1.2-11.79 3.22-16.94l-15.74-.63c1.61 5.3 2.15 9.89 1.86 17.15l-1 25c-.29 7.25-1.19 11.79-3.22 17l30.73 1.07 5.83-12.71-.14-.15c-5.09 2.28-15.49 4.34-22.91 4.62z"/><path d="m484.09 111c-17.09-5-34.19 4.41-38.92 20.65-4.35 14.92 3.05 32.36 21.59 37.76 17.29 5 34.38-3.52 39.46-20.95s-5.47-32.56-22.13-37.46zm10.12 37c-3.11 10.67-12.67 17.26-23.06 14.23-12.55-3.65-17.55-17.37-13.94-29.78 3.43-11.78 13.45-16.8 22.65-14.12 11.85 3.4 18.04 16.93 14.35 29.67z"/><path d="m559.89 159.14 10.11-7.67-40.4-23.05-9.27 8.93.06.2a40 40 0 0 1 18.79 5.45l-16.68 29.28c-3.6 6.31-6.43 10-10.66 13.56l13.69 7.8c1-5.43 2.65-9.77 6.24-16.08l16.68-29.28c5.65 3.3 9.01 6.63 11.44 10.86z"/><path d="m607.27 198.54 11.54-5.37-34.67-31-10.94 6.77v.21a39.87 39.87 0 0 1 17.22 9.29l-22.42 24.96c-4.84 5.41-8.38 8.37-13.28 11l11.74 10.51c2.14-5.1 4.65-9 9.49-14.4l22.47-25c4.78 4.41 7.36 8.38 8.85 13.03z"/><path d="m316.29 159.69-25.29-23.44a102.94 102.94 0 0 1 -10.88-11.15l-8.35 3.82a97.17 97.17 0 0 1 1 15.67v35c0 7.42-.54 11.67-1.68 15.86l.09.2 14.54-8.34a14.62 14.62 0 0 1 -.95-1.73c-.94-2.07-1.41-4.75-1.58-8.93l23.92-10.93c3.17 3.08 4.76 5 5.71 7.11a7.56 7.56 0 0 1 .62 1.88l15.64-5.76-.09-.2a49.06 49.06 0 0 1 -12.7-9.06zm-15.88-.44-17.41 7.95-.43-24.93z"/><path d="m629.62 206.14c-3.08 4.59-6.29 7.93-12.08 12.3l-19.89 15.05c-5.8 4.38-9.88 6.55-15.15 8.26l24.12 32.7 13-3.39v-.21c-6.76-3.89-13-9.58-19.73-18.76l-3.27-4.49 14.6-11 3.35 4.43c3.75 5.33 6.66 10.62 7.47 14.11l11.8-1.37-16.5-21.77 14.3-10.83 3.43 4.4a38.72 38.72 0 0 1 7.54 17.85l12.09-2.67z"/><path d="m178.21 550.59 11.16-7.69c2.46 3.56 4.42 7.77 4.68 10.6l8.23-1-13.95-20.24a33.68 33.68 0 0 1 -8.94 8.36l-14.81 10.2a33.51 33.51 0 0 1 -11 5.39l6.34 9.21a33.73 33.73 0 0 1 8.95-8.36l4.88-3.36c2.63 3.82 4 6.77 4.22 9.48l8.1-1.14z"/><path d="m221.73 573.47c-8.81-9.05-22.66-9.23-31.26-.85-7.9 7.7-9.43 21.06.14 30.88 8.92 9.16 22.47 9.84 31.7.86s8.02-22.06-.58-30.89zm-6.65 26.34c-5.65 5.51-13.86 6.24-19.22.73-6.47-6.64-4.77-16.86 1.8-23.26 6.24-6.09 14.18-5.69 18.93-.81 6.11 6.27 5.21 16.8-1.51 23.34z"/><path d="m261.75 606.87c-10.49-7-24.07-4.35-30.76 5.63-6.13 9.16-4.87 22.53 6.52 30.17 10.61 7.11 24 5 31.18-5.72s3.31-23.23-6.94-30.08zm-1.07 27.13c-4.39 6.55-12.27 9-18.65 4.69-7.7-5.16-8.15-15.51-3-23.13 4.85-7.23 12.7-8.49 18.35-4.7 7.23 4.88 8.52 15.36 3.3 23.14z"/><path d="m287.29 623-5.85 7 .05.13a28.46 28.46 0 0 1 13.69 2.39l-9.73 22.48a32.51 32.51 0 0 1 -6.46 10.4l10.26 4.45a33.65 33.65 0 0 1 3.16-11.85l9.73-22.47a20.64 20.64 0 0 1 8.91 6.78l6.57-6.21z"/><path d="m422.33 685.07-2-24.34a33.81 33.81 0 0 1 .79-12.22l-11.14.93a33.77 33.77 0 0 1 2.8 11.92l1.5 17.93a33.81 33.81 0 0 1 -.79 12.22l21.62-1.81 3.11-9.83-.11-.09c-3.42 2.09-10.57 4.45-15.78 5.29z"/><path d="m461.63 679.26-5.4-23.83a33.84 33.84 0 0 1 -.92-12.21l-10.9 2.47a33.94 33.94 0 0 1 4.43 11.41l4 17.55a33.78 33.78 0 0 1 .91 12.21l21.16-4.8 1.72-10.16-.13-.08c-3.09 2.55-9.84 5.87-14.87 7.44z"/><path d="m539.26 644.76a18.68 18.68 0 0 1 -9.49 9.92c-7.17 3.52-15.31.15-19.18-7.76-4-8.15-1.37-16.73 6-20.33a21.73 21.73 0 0 1 11.56-2.05l.12-.12-3.38-6.9a31.6 31.6 0 0 0 -9.52 3.06c-12 5.87-18 18.3-11.94 30.7 5.21 10.65 16.84 15.06 28.37 9.41a27.15 27.15 0 0 0 10.68-8.78l-3.06-7.17z"/><path d="m574.41 621.87c-1.86 3.53-6.82 9.19-10.87 12.56l-14.12-19.93a33.66 33.66 0 0 1 -5.52-10.93l-9.13 6.43a33.53 33.53 0 0 1 8.47 8.84l10.4 14.67a33.86 33.86 0 0 1 5.52 10.93l17.71-12.54-2.32-10z"/><path d="m593.51 576.45a33.56 33.56 0 0 1 -7.14-9.94l-8 7.79a33.55 33.55 0 0 1 9.73 7.43l10.37 10.68a8.94 8.94 0 0 1 -.2 12.89c-3.43 3.34-8 3.3-12.83-1.68l-9.65-10a33.56 33.56 0 0 1 -7.14-9.94l-8 7.79a33.55 33.55 0 0 1 9.73 7.43l9.58 9.86c7.64 7.88 14.91 8.79 20.82 3.05 2.74-2.66 4.58-6.53 5.57-11.79a15.74 15.74 0 0 1 2.68 3.27l6.77-6.56a33.55 33.55 0 0 1 -9.73-7.43z"/><path d="m341 642.52-14.19-3.86a33.52 33.52 0 0 1 -1.44 12.16l-4.72 17.37a33.84 33.84 0 0 1 -4.93 11.22l14.28 3.89c8.21 2.23 16.35-.58 18.24-7.49 1.2-4.43-.38-8.07-4.43-12.22 3.8-1.21 6.59-3.6 7.5-6.93 1.69-6.07-2.31-11.97-10.31-14.14zm-.33 31.27c-1.09 4-5.65 6.43-11.62 4.81l-3.15-.86 4.31-15.74c8.91 2.45 11.69 7.39 10.49 11.79zm3.17-18.79c-.92 3.38-6 5-12.58 3.21l3.53-13 3.14.86c4.23 1.14 6.94 5.13 5.91 8.93z"/><path d="m637.18 550c-3.67-2.76-7.63-2.64-13-.4.28-4-.92-7.46-3.68-9.54-5-3.77-12-2.23-16.95 4.37l-8.83 11.76a33.59 33.59 0 0 1 10.8 5.81l14.38 10.8a33.62 33.62 0 0 1 8.61 8.72l8.9-11.84c5.1-6.81 5.5-15.41-.23-19.68zm-33.42 1.22 2-2.61c2.63-3.5 7.34-4.54 10.47-2.19 2.79 2.1 2.43 7.42-1.68 12.88zm28.92 17.65-2 2.6-13-9.78c5.55-7.39 11.16-8.14 14.81-5.4 3.34 2.46 3.91 7.6.19 12.55z"/><path d="m387.32 659.56a73.46 73.46 0 0 1 -3-10.68l-6.63-.51a67.63 67.63 0 0 1 -4.87 10.07l-11.82 21.07a39.54 39.54 0 0 1 -6.61 9.27v.15l11.51.89a11 11 0 0 1 0-1.4c.14-1.8.92-3.86 2.61-7l.23-.43 18.14 1.39.1.31c1.21 3.72 1.63 5.72 1.49 7.51a5.47 5.47 0 0 1 -.26 1.38l11.67.9v-.15a34.81 34.81 0 0 1 -4.92-10zm-15.42 15.44 7.81-14.66h.31l4.9 15.62z"/></g><path d="m656 313.88a5.23 5.23 0 0 1 6.55 3.41 5.15 5.15 0 0 1 -3.41 6.55 5 5 0 0 1 -3.95-.33 5.11 5.11 0 0 1 -2.6-3.08 5.29 5.29 0 0 1 3.41-6.55z" fill="#0085ca"/><path d="m655 338.53 11.85 9.15c2.47 1.93 3.78 2.37 5.45 2 1.86-.37 2.87-2 2.42-4.3-.4-2-1.92-3.31-3.77-2.94a4.36 4.36 0 0 0 -1.6.71l-2.43-6.33a8.23 8.23 0 0 1 2.88-1.18 7.47 7.47 0 0 1 6.27 1.67 11.39 11.39 0 0 1 3.88 7c1.26 6.39-1.09 10.8-5.68 11.71-3.34.67-6-.36-9.87-3.29l-6.28-4.73 2.15 10.89-5.38 1.07-4.07-20.58z" fill="#0085ca"/><path d="m672 396.66a13.87 13.87 0 0 1 -10.38-3.3 14.79 14.79 0 0 1 -1.06-19.87c2.42-2.68 5.75-4.14 10-4.36s7.74.88 10.42 3.3a14.8 14.8 0 0 1 1 19.88 13.91 13.91 0 0 1 -9.98 4.35zm-9-13.34a6.21 6.21 0 0 0 2.49 4.9 9.08 9.08 0 0 0 6.12 1.56 9.25 9.25 0 0 0 6-2.19 6.29 6.29 0 0 0 1.94-5.12 6.15 6.15 0 0 0 -2.45-4.86 9.1 9.1 0 0 0 -6.1-1.61 8.94 8.94 0 0 0 -5.92 2.23 6.07 6.07 0 0 0 -2.02 5.09z" fill="#0085ca"/><path d="m662 408.57 9 11.94c1.88 2.53 3 3.29 4.72 3.41 1.89.13 3.3-1.17 3.46-3.5.15-2-1-3.7-2.86-3.83a4.15 4.15 0 0 0 -1.73.26l-.59-6.75a8.13 8.13 0 0 1 3.08-.37 7.49 7.49 0 0 1 5.62 3.25 11.4 11.4 0 0 1 1.89 7.81c-.46 6.5-3.89 10.13-8.55 9.8-3.39-.24-5.71-1.95-8.66-5.78l-4.78-6.31-.78 11.07-5.47-.39 1.47-20.92z" fill="#0085ca"/><path d="m658.74 442.39 7.44 13c1.53 2.74 2.57 3.64 4.24 4 1.85.37 3.42-.74 3.88-3 .4-2-.5-3.79-2.35-4.17a4.16 4.16 0 0 0 -1.75 0l.19-6.78a8.35 8.35 0 0 1 3.11 0 7.51 7.51 0 0 1 5.15 4 11.45 11.45 0 0 1 .87 8c-1.28 6.39-5.15 9.55-9.73 8.62-3.33-.67-5.41-2.66-7.84-6.84l-3.95-6.91-2.19 10.88-5.38-1.08 4.14-20.56z" fill="#0085ca"/><path d="m658.8 477.46a5.23 5.23 0 0 1 3.38 6.56 5.15 5.15 0 0 1 -6.57 3.38 5.22 5.22 0 0 1 -3.37-6.56 4.88 4.88 0 0 1 2.59-3 4.93 4.93 0 0 1 3.97-.38z" fill="#0085ca"/><path d="m155.09 481.79-26.09 7.09-1.77-6.53 17-12.9-21.23-2.54-1.78-6.53 26.12-7.09 1.6 5.89-14.29 3.88 4.26.21 11.56 1.55 1.48 5.45-9.19 7.18-3.57 2.33 14.29-3.88z" fill="#0085ca"/><path d="m146 443.82-26.73 4.27-1-6.19 26.73-4.27z" fill="#0085ca"/><path d="m143.48 427.94-27 1.69-.39-6.25 14.71-10.84a18.67 18.67 0 0 1 2-1.28l-17.44 1.08-.38-6.09 27-1.69.39 6.25-14.77 10.84a18.9 18.9 0 0 1 -2.06 1.29l17.56-1.09z" fill="#0085ca"/><path d="m120.5 396-5.48-.3 1.19-22.22 5.48.29-.43 8 21.53 1.15-.33 6.25-21.53-1.17z" fill="#0085ca"/><path d="m144.1 367.54-26.7-4.41 3.22-19.49 5.41.89-2.19 13.31 4.84.8 2-12.24 5.26.87-2 12.24 5.76.95 2.22-13.46 5.42.9z" fill="#0085ca"/><path d="m149.07 339.87-26-7.47 2.41-8.4c1.24-4.34 3.36-7.52 6.32-9.56s6.61-2.41 10.84-1.2 7.09 3.48 8.52 6.75 1.58 7.13.33 11.48zm-2.86-10.52c1.42-4.94-.51-8.71-5.31-10.09s-8.43.8-9.85 5.74l-.84 2.94 15.16 4.35z" fill="#0085ca"/></svg>