<svg viewBox="0 0 800 800" xmlns="http://www.w3.org/2000/svg" xmlns:xlink="http://www.w3.org/1999/xlink"><clipPath id="a"><path d="m75.8 3h648.39v794h-648.39z"/></clipPath><g clip-path="url(#a)"><path d="m722.76 200.43-321.18-196.98a3 3 0 0 0 -3.16 0l-321.17 197a3 3 0 0 0 -1.45 2.55v394a3 3 0 0 0 1.45 2.57l321.17 197a3 3 0 0 0 3.16 0l321.18-197a3 3 0 0 0 1.44-2.57v-394a3 3 0 0 0 -1.44-2.58" fill="#101820"/></g><g fill="#ff6b00"><path d="m400 776.37-306.67-188.09v-376.56l306.67-188.09 306.67 188.09v376.56zm-295-195.08 295 180.94 295-180.94v-362.58l-295-180.94-295 180.94z"/><path d="m511.59 175.32 14.31-14.31-8.17-8.19-17.71 17.71v26.64h11.57z"/><path d="m478.53 197.17h11.57v-26.64l-17.71-17.7-8.18 8.18 14.32 14.31z"/><path d="m305.5 218.66v-11.57h-63.43l-22.25-22.55-8.18 8.18 25.94 25.94z"/><path d="m549.78 207.09h-191.37v11.57h186.58l38.87 38.86v89.22l-39.18 39.17h-23.27v11.57h28.06l45.96-45.94v-98.81z"/><path d="m468.61 385.91h-231.03l-25.94 25.63 8.18 8.49 22.55-22.56h226.24z"/><path d="m237.58 228.58h11.57v147.41h-11.57z"/><path d="m305.5 240.15v-11.57h-46.43v147.41h209.54v-11.57h-197.98v-124.27z"/><path d="m535.73 364.42h-14.31v11.57h19.1l33.42-33.42v-81.01l-33.01-32.98h-182.52v11.57h177.73l26.21 26.21v71.41z"/><path d="m315.43 429.24-14.32 14.31 8.18 8.19 17.71-17.71v-26.63h-11.57z"/><path d="m348.49 407.4h-11.57v26.63l17.7 17.7 8.18-8.17-14.31-14.32z"/><path d="m478.54 285.75h-130.05v-108.93-1.5l14.31-14.31-8.17-8.18-17.71 17.7v26.64 100.15h153.19v-47.25h-11.57z"/><path d="m336.92 354.5h11.57v-35.69h130.05v110.43l-14.32 14.32 8.18 8.17 17.7-17.7v-126.78h-153.18z"/><path d="m511.55 323.65 21.37-21.37-21.32-21.32v-30.89h-11.57v35.68l16.53 16.53-16.57 16.58v115.03l17.7 17.7 8.18-8.17-14.32-14.32z"/><path d="m315.43 281.26-21.03 21.03 21.01 21v31.21h11.57v-36l-16.22-16.21 16.24-16.24v-88.89-26.63l-17.71-17.7-8.18 8.18 14.32 14.31z"/><path d="m436.31 677.48h-28.57l19.82-40.17-47.64 52.03h28.57l-19.82 40.17z"/></g><path d="m196.28 510.8h-28.47v-31.28h-13.97v78.71h13.97v-34.35h28.47v34.35h13.97v-78.71h-13.97z" fill="#fff"/><path d="m242.2 479.52-13.26 13.26v52.22l13.26 13.25h31.8l13.24-13.25v-52.22l-13.24-13.26zm6.68 65.62-6-6v-40.57l6-6h18.42l6 6v40.61l-6 6z" fill="#fff"/><path d="m349.48 539.18-5.97 5.96h-17.64l-5.97-5.96v-59.66h-13.96v65.45l13.25 13.26h30.34l13.26-13.26v-65.45h-13.31z" fill="#fff"/><path d="m399.87 512.13-5.97-5.97v-7.59l5.97-5.97h16.66l8.95 8.72 9.82-9.82-12.11-11.98h-30.01l-13.25 13.26v19.18l13.25 13.25h23.78l5.96 5.97v8l-5.96 5.96h-19.56l-9.96-9.59-9.81 9.81 13.12 12.87h32.89l13.25-13.26v-19.59l-13.25-13.25z" fill="#fff"/><path d="m444.7 492.6h22.1v65.63h13.97v-65.63h22.11v-13.08h-58.18z" fill="#fff"/><path d="m525.83 479.52-13.25 13.26v52.22l13.25 13.25h31.79l13.25-13.25v-52.22l-13.25-13.26zm6.68 65.62-6-6v-40.57l6-6h18.43l6 6v40.61l-6 6z" fill="#fff"/><path d="m632.9 479.52v53.56l-26.92-53.56h-16.18v78.71h13.3v-53.54l.44 1.12 26.93 52.42h15.73v-78.71z" fill="#fff"/><path d="m255.39 577.65 6.22 6.22v27l-6.22 6.22h-26.2v-39.44zm-4.53 9.9-1.7-1.7h-9.22v23.08h9.22l1.7-1.69z" fill="#fff"/><path d="m286.04 592.13.91 4.41h.28l1.02-4.41 5.88-14.48h9.9l-11.99 26.53v12.96h-11.88v-12.96l-11.99-26.53h12.22z" fill="#fff"/><path d="m328.36 617.14-7.07-20.14-.97-4.76h-.51v24.9h-9.22v-39.49h14.14l7.08 20.14.96 4.75h.51v-24.89h9.22v39.49z" fill="#fff"/><path d="m372.65 609.67h-9.65l-1.81 7.47h-10.19l10.86-39.49h12.73l11.77 39.49h-11.9zm-8.21-8h7l-2.32-9.28-.79-4.87h-.56l-.91 4.87z" fill="#fff"/><path d="m409.53 577.65 5.6 20.71 1.07 4.97h.4l1.02-4.97 5.65-20.71h14.37v39.49h-10.75v-23.82h-.45l-.96 5.15-5.6 18.67h-8.32l-5.88-18.67-.97-5.15h-.45v23.82h-9.22v-39.49z" fill="#fff"/><path d="m448.78 583.59 6.22-6.22h20.08l6.23 6.22v27.61l-6.23 6.22h-20.08l-6.22-6.22zm20.08 2h-7.63l-1.7 1.7v20.25l1.7 1.7h7.63l1.7-1.7v-20.27z" fill="#fff"/><path d="m504.89 577.65h26.65v8.6h-15.9v9.05h13.98v8.09h-13.98v13.75h-10.75z" fill="#fff"/><path d="m539.91 611.2v-27.61l6.22-6.22h19.75l5.71 5.88-7.75 6.56-4.19-4.24h-7.29l-1.7 1.69v20.26l1.7 1.7h7.63l4.92-4.7 7.25 6.96-5.94 5.94h-20.09z" fill="#fff"/></svg>