<svg viewBox="0 0 800 800" xmlns="http://www.w3.org/2000/svg"><circle cx="400" cy="400" fill="#231f20" r="348.66"/><path d="m400 755c-195.75 0-355-159.25-355-355s159.25-355 355-355 355 159.25 355 355-159.25 355-355 355zm0-697.32c-188.75 0-342.32 153.57-342.32 342.32s153.57 342.32 342.32 342.32 342.32-153.57 342.32-342.32-153.57-342.32-342.32-342.32z" fill="#f7b5cd"/><path d="m585.12 631.94-4.02-18.14-4 18.15-18.2 4 18.21 3.98 4.02 18.14 3.99-18.14 18.21-4.01z" fill="#f7b5cd"/><path d="m222.89 631.94-4.02-18.14-3.99 18.15-18.2 4 18.2 3.98 4.02 18.14 4-18.14 18.2-4.01z" fill="#f7b5cd"/><circle cx="400" cy="400" fill="#231f20" r="250.74"/><path d="m400 653.91c-140 0-253.91-113.91-253.91-253.91s113.91-253.91 253.91-253.91 253.91 113.91 253.91 253.91-113.91 253.91-253.91 253.91zm0-501.48c-136.51 0-247.57 111.06-247.57 247.57s111.06 247.57 247.57 247.57 247.57-111.06 247.57-247.57-111.06-247.57-247.57-247.57z" fill="#f7b5cd"/><path d="m220.62 191.57v204.52a296.35 296.35 0 0 0 169.38 267.77l10.39 4.92 11-5.28a296.32 296.32 0 0 0 168-267.11v-204.82z" fill="#231f20"/><path d="m524.68 548.45a285.15 285.15 0 0 0 43.83-152v-194h-337v193.7a285.5 285.5 0 0 0 163.19 258l5.67 2.69 6.3-3a285.12 285.12 0 0 0 118.01-105.39zm-120.78 99.63-3.56 1.71-2.94-1.39a279.13 279.13 0 0 1 -159.56-252.25v-187.32h324.32v187.62a279.15 279.15 0 0 1 -158.26 251.63z" fill="#f7b5cd"/><path d="m400 367.51c-9.64 0-18-4.27-22-10.47a22 22 0 0 0 44-.04c-4 6.24-12.36 10.51-22 10.51z" fill="#f7b5cd"/><path d="m444.18 357-22-9.08 15.65-13.86-21.29 5.56 5.58-21-16.26 15.13-5.86-20.91-5.86 20.92-16.26-15.13 5.58 21-21.29-5.56 15.65 13.93-22 9.08h22.18a22 22 0 1 1 44 0z" fill="#f7b5cd"/><path d="m495.32 350.73a22 22 0 0 0 -15.64-6.48h-9.68a6.59 6.59 0 0 1 -6.65-6 6.45 6.45 0 0 1 6.42-6.88h58.54l-45.9-8.3a6.66 6.66 0 0 0 -6.26-4.38h-38.47l18.85 5.3a19.1 19.1 0 0 0 -5.92 14 19.39 19.39 0 0 0 19.53 18.95h9.54a9.12 9.12 0 0 1 4.35 1 9.46 9.46 0 0 1 -3.9 17.84h-29.88a47.29 47.29 0 0 0 -40.57 22.94 44.3 44.3 0 0 0 -6.19 22.89l33.05-33h10l-43 43v15.26l58.28-58.27h10l-68.24 68.24v17.22l86.16-86.15 5.86-6.05a22.1 22.1 0 0 0 -.18-31.11zm-27.07-27.79h7.64v4.23h-7.64z" fill="#fff"/><path d="m298.19 366.39a22 22 0 0 0 6.31 15.45l5.86 6.05 86.16 86.15v-17.2l-68.25-68.24h10l58.28 58.27v-15.26l-43-43h10l33.05 33a44.3 44.3 0 0 0 -6.19-22.89 47.29 47.29 0 0 0 -40.57-22.94h-29.97a9.46 9.46 0 0 1 -3.87-17.78 9.12 9.12 0 0 1 4.35-1h9.54a19.39 19.39 0 0 0 19.5-19 19.1 19.1 0 0 0 -5.92-14l18.85-5.3h-38.43a6.66 6.66 0 0 0 -6.26 4.38l-45.9 8.3h58.54a6.45 6.45 0 0 1 6.42 6.88 6.59 6.59 0 0 1 -6.65 6h-9.72a22.14 22.14 0 0 0 -22.13 22.14zm33.56-39.22h-7.64v-4.23h7.64z" fill="#fff"/><path d="m463.78 452.08v-28.58l-6.34 6.35v19.6l-13 13v-19.6l-6.34 6.34v19.61l-38.06 38.05-38.04-38.07v-19.46l-6.34-6.32v19.45l-13-13v-19.45l-6.35-6.35v28.43l19.33 19.32v100.85h-19.42v6.34h25.78v-100.84l33.57 33.57-16.76 16.77 21.26 21.23 21.24-21.23-16.77-16.77 33.58-33.57v100.84h25.66v-6.34h-19.32v-100.85zm-51.44 76-12.27 12.27-12.29-12.28 12.28-12.28z" fill="#f7b5cd"/><path d="m347.37 244.48h12.86v44.55h-12.86z" fill="#f7b5cd"/><path d="m322.88 244.48v.02l-.02-.02-17.84 17.84-17.82-17.82v-.02h-.01-.01-12.85v44.56h12.87v-27.16l17.82 17.82 17.86-17.86v27.2h12.86v-44.56z" fill="#f7b5cd"/><path d="m409.14 244.48h-18.28l-21.94 44.52h13.68l6-12.1 11.4 11.47 11.43-11.43 6 12.1h13.68zm-9.14 29.29-6.62-6.62 6.62-13.45 6.62 13.45z" fill="#f7b5cd"/><path d="m512.8 244.48h12.86v44.55h-12.86z" fill="#f7b5cd"/><path d="m488.31 244.48v.02l-.02-.02-17.84 17.84-17.82-17.82v-.02h-.01-.01-12.85v44.56h12.87v-27.16l17.82 17.82 17.86-17.86v27.2h12.86v-44.56z" fill="#f7b5cd"/><g fill="#fff"><path d="m156.59 572.54a20 20 0 0 1 -27.69-27l7.43 4.23a11.43 11.43 0 1 0 8.84-5.5l-.5-8.54a20 20 0 0 1 11.92 36.77z"/><path d="m110.18 528.72-3.18-7.92 27.78-11.24-5.92-14.64 7.57-3.06 9.13 22.55z"/><path d="m117.78 483.5-22.41 5.34-2-8.31 22.52-5.36c4.44-1.06 6.48-4.52 5.5-8.65s-4.37-6.3-8.81-5.24l-22.52 5.36-2-8.31 22.46-5.33c9.24-2.2 16.82 2.73 18.94 11.61s-2.46 16.69-11.68 18.89z"/><path d="m84.44 431.48-.82-14.31a11.33 11.33 0 0 1 10.66-11.95 9 9 0 0 1 6.7 2.36 9.93 9.93 0 0 1 8.69-5.93 11.27 11.27 0 0 1 11.86 10.94l1 16.72zm14.62-14.22a3.83 3.83 0 0 0 -4-3.75 3.88 3.88 0 0 0 -3.64 4.19l.28 4.82 7.61-.44zm14.69-3.53a3.82 3.82 0 1 0 -7.61.49l.42 7.45 7.61-.44z"/><path d="m87.39 347.89 1.5-8.41 37.54 6.74-1.51 8.4z"/><path d="m140 298.93-28.36 9.78 22.25 7.76-2.81 8.06-36.01-12.53 2.42-7 28.3-9.75-22.2-7.74 2.83-8.11 36 12.55z"/><path d="m128.71 252.55-4.77 8.45-7.1-4 13.8-24.51 7.1 4-4.81 8.56 26.1 14.7-4.22 7.48z"/><path d="m143.58 213.51 14.9-19 6.42 5-9.64 12.29 5.37 4.21 7.65-9.76 6.42 5-7.65 9.76 5.37 4.21 9.63-12.22 6.42 5-14.9 19z"/><path d="m178.43 173.1 11.2-10c5.36-4.8 12.24-4 16.46.68 3.3 3.68 3.45 7.8 1 12.3l21.24 3.53-7.63 6.84-19.94-3.27-1 .93 10.49 11.72-6.36 5.7zm20.57 1.9c1.88-1.68 2.27-4 .8-5.62s-3.79-1.5-5.67.18l-4.13 3.68 4.87 5.45z"/><path d="m264.92 155.92-28.07-10.6 12.15 20.19-7.31 4.4-19.69-32.65 6.3-3.79 28 10.58-12.14-20.14 7.36-4.44 19.67 32.65z"/><path d="m289.6 102.9 7.28-2.61 28.22 30.38-8.39 3-5.9-6.44-14.81 5.33-.47 8.72-8.39 3zm15.78 18.41-8.37-9.2-.62 12.42z"/><path d="m336.82 108.36a20 20 0 0 1 35.7-14.82l-6.81 5.16a11.44 11.44 0 1 0 1.56 10.3l8 2.9a20 20 0 0 1 -38.49-3.54z"/><path d="m396 83.15h8.53v38.12h-8.54z"/><path d="m425.26 102.63a19.7 19.7 0 1 1 16.55 22.37 19.71 19.71 0 0 1 -16.55-22.37zm30.42 4.58a11.09 11.09 0 1 0 -12.68 9.66 11.3 11.3 0 0 0 12.68-9.66z"/><path d="m502.88 140.68-9.61-28.44-7.9 22.21-8.05-2.86 12.79-35.93 6.89 2.47 9.57 28.37 7.89-22.16 8.09 2.88-12.78 35.92z"/><path d="m558.43 125.53 6.64 3.95-5.45 41.1-7.62-4.58 1.21-8.65-13.56-8.06-7 5.19-7.72-4.48zm-4.15 23.89 1.77-12.32-10 7.44z"/><path d="m597.67 152.11 6.49 5.55-19.48 22.77 12 10.27-5.31 6.2-18.49-15.82z"/><path d="m649.8 204.51 7.52 10.59a19.06 19.06 0 1 1 -31.09 22.05l-7.51-10.6zm-17.17 28.11c3.72 5.25 10.39 5.85 15.39 2.31s6.63-10 2.91-15.29l-2.58-3.64-18.3 13z"/><path d="m679.89 250.92 10.61 21.71-7.34 3.58-6.86-14-6.13 3 5.45 11.14-7.33 3.59-5.45-11.15-6.13 3 6.86 14-7.33 3.59-10.62-21.71z"/><path d="m707.07 320.85 5.07 22.92-8 1.76-3.2-14.53-6.71 1.49 2.52 11.38-8 1.76-2.52-11.38-14.57 3.23-1.85-8.34z"/><path d="m692.3 366 23-1.42.53 8.52-23.1 1.43c-4.56.28-7.17 3.35-6.91 7.58s3.23 6.95 7.78 6.67l23.11-1.42.52 8.52-23 1.42c-9.48.59-16.11-5.57-16.67-14.68s5.25-16.03 14.74-16.62zm35.7 14.7.55 8.89-8.83-6.17-.37-5.95z"/><path d="m707.68 425.31.92-9.68 8.12.77-2.66 28-8.12-.78.93-9.78-29.82-2.84.81-8.55z"/><path d="m710.18 466.14-3.55 13.86a11.33 11.33 0 0 1 -13.78 8.17 9 9 0 0 1 -5.66-4.28 10 10 0 0 1 -10.08 3 11.25 11.25 0 0 1 -8-14l4.15-16.23zm-33.31 8.06a3.83 3.83 0 0 0 2.71 4.79 3.88 3.88 0 0 0 4.69-3l1.85-7.23-7.39-1.89zm15.07 1.08a3.83 3.83 0 0 0 2.66 4.78 3.88 3.88 0 0 0 4.73-2.89l1.19-4.69-7.38-1.88z"/><path d="m678.79 506.7a19.7 19.7 0 1 1 -26.14 9.63 19.7 19.7 0 0 1 26.14-9.63zm-12.89 27.93a11.09 11.09 0 1 0 -5.75-14.84 11.31 11.31 0 0 0 5.75 14.84z"/><path d="m667.53 570.16-4.83 7-24.7-16.9-8.93 13-6.72-4.61 13.75-20.05z"/><path d="m308.09 679.25-6.46 23.1-8.11-2.77 10.36-36.9 7.53 2.52 6.94 18.8 15.71-12.45 7.74 1.77-10.37 37-8.36-2 6.48-23.13-14.87 11.91z"/><path d="m366.19 691.59-1.68 24-8.51-1.15 2.7-38.28 7.85 1 10.62 17.06 13-15.5 7.85.14-2.69 38.37-8.6-.1 1.68-24-12.16 14.59z"/><path d="m433.11 702-8.38 14.36-9.63.63 12.13-21-15.7-17.42 10.19-.72 9.83 11 7-12.89 10.14-1.67-11.29 20.53 16.6 17.73-9.46 1.57z"/><path d="m484.09 691.65-5.83 15.6-9.38 2.29 8.39-22.83-18.5-14.53 9.94-2.43 11.59 9.18 4.77-14 9.66-3.37-7.62 22.23 19.37 14.68-9.13 3.12z"/></g></svg>