<svg fill="none" height="480" viewBox="0 0 480 480" width="480" xmlns="http://www.w3.org/2000/svg" xmlns:xlink="http://www.w3.org/1999/xlink"><clipPath id="a"><path d="m0 0h480v480h-480z"/></clipPath><g clip-path="url(#a)"><path d="m240 480c132.548 0 240-107.452 240-240s-107.452-240-240-240-240 107.452-240 240 107.452 240 240 240z" fill="#003da6"/><path d="m240 363.556c68.238 0 123.556-55.318 123.556-123.556s-55.318-123.556-123.556-123.556-123.556 55.318-123.556 123.556 55.318 123.556 123.556 123.556z" fill="#000"/><path d="m465.556 240c0-124.556-100.978-225.5555-225.556-225.5555s-225.5555 100.9995-225.5555 225.5555c0 22.111 3.2 43.467 9.1333 63.644l-6.8889 2.378c28.4667 96.422 117.6671 166.778 223.3111 166.778s194.844-70.356 223.311-166.778l-6.889-2.378c5.934-20.2 9.134-41.555 9.134-63.666zm-440.8893 0c0-118.933 96.4003-215.3333 215.3333-215.3333s215.333 96.4003 215.333 215.3333c0 20.933-3 41.178-8.577 60.333l-206.778-71.311-206.7335 71.289c-5.5778-19.133-8.5778-39.378-8.5778-60.311z" fill="#000"/><path d="m240 0c-132.556 0-240 107.444-240 240s107.444 240 240 240 240-107.444 240-240-107.444-240-240-240zm0 465.556c-124.578 0-225.5556-100.978-225.5556-225.556s100.9776-225.5556 225.5556-225.5556 225.556 100.9776 225.556 225.5556-100.978 225.556-225.556 225.556z" fill="#c1c5c8"/><path d="m118.622 284.133-19.7553 6.823v111.711c24.7553 21.489 54.4663 37.422 87.1773 45.866v-91.2c-31.155-14.355-55.622-40.733-67.422-73.2z" fill="#003da6"/><path d="m381.089 290.933-19.733-6.8c-11.8 32.467-36.267 58.845-67.423 73.2v91.178c32.711-8.444 62.423-24.378 87.178-45.867v-111.711z" fill="#003da6"/><path d="m240 369.111c-19.267 0-37.533-4.222-53.956-11.778v91.2c17.245 4.445 35.334 6.822 53.956 6.822s36.711-2.377 53.956-6.822v-91.178c-16.423 7.556-34.689 11.778-53.956 11.778z" fill="#000"/><path d="m37.0889 312.244c12.5555 35.289 34.0666 66.334 61.8 90.4v-111.711z" fill="#000"/><path d="m442.911 312.267-61.822-21.311v111.711c27.733-24.067 49.244-55.111 61.822-90.4z" fill="#000"/><g fill="#fff"><path d="m191.511 402.244c.845-.089 2.022-.266 2.778-.044l2.778.8c.889.267 1.066.533.866 1.267l-6.555 22.666c-.222.734-.534.867-1.4.622l-4.6-1.333c-.889-.244-1.067-.533-.867-1.266l4.756-16.467-5.223-1.489c-.888-.267-1.066-.533-.866-1.267l.489-1.711c.111-.422.244-.689.889-.844 0 0 6.111-.845 6.955-.934z"/><path d="m211.4 415.2c.489-4.978 5.067-8.711 11.178-8.089 9.022.911 10.778 6.845 10.066 13.956-.733 7.311-4.511 13.244-13.266 12.355-3.556-.355-6.267-1.844-8.6-4.378-.556-.6-.356-.844.266-1.377l2.556-2.067c.622-.489.956-.6 1.533.044 1.378 1.534 2.823 2.445 5.311 2.689 2.889.289 5.2-2.044 5.6-6-.888.911-2.511 2.089-6.777 1.667-4.756-.467-8.356-3.556-7.845-8.822zm6.467.244c-.2 2.112 1.511 3.934 3.822 4.156 2.6.267 4.355-1.222 4.578-3.333.222-2.223-1.223-3.934-3.823-4.2-2.511-.245-4.355 1.133-4.577 3.355z"/><path d="m246 417.4c-.467-4.978 3.311-9.511 9.422-10.089 9.045-.844 11.889 4.645 12.556 11.778.689 7.311-1.889 13.867-10.645 14.689-3.555.333-6.511-.6-9.289-2.645-.644-.489-.511-.755 0-1.4l2.112-2.511c.511-.6.822-.778 1.511-.244 1.644 1.244 3.244 1.866 5.711 1.622 2.889-.267 4.711-3 4.355-6.978-.711 1.067-2.066 2.534-6.333 2.934-4.756.444-8.889-1.889-9.378-7.156zm6.4-1c.2 2.111 2.222 3.578 4.556 3.356 2.6-.245 4.044-2.023 3.844-4.134-.2-2.222-1.956-3.622-4.556-3.378-2.511.245-4.044 1.956-3.844 4.178z"/><path d="m285.711 417.822c-.822.222-1.111.089-1.311-.666l-.756-2.667c-.2-.733-.044-1.022.778-1.245l3.222-.888c2.712-.756 3.445-2.289 3.089-3.6-.511-1.823-1.889-2.578-4.6-1.823-2.4.667-3.111 1.734-4.177 3.6-.4.689-.8.689-1.489.311l-2.734-1.555c-.689-.422-.933-.622-.489-1.311 1.867-2.911 3.734-4.956 7.489-6 4.4-1.245 10.623-.667 12.067 4.511.689 2.489-.356 4.733-1.8 6.222v.045c2.2.377 4.578 1.155 5.444 4.244 1.445 5.178-2.688 8.867-8.577 10.511-3.756 1.045-6.934.422-10.023-1.089-.733-.355-.644-.644-.266-1.378l1.533-2.711c.4-.689.756-.866 1.445-.511 1.977.934 3.533 1.4 5.911.734 3.489-.978 4.089-2.512 3.577-4.334-.355-1.311-1.911-2.2-4.622-1.444l-3.755 1.044z"/><path d="m77.5333 194.689c-.4889-.822-.2667-1.222.5111-1.733l3.4667-2.245c.8-.511 1.1333-.622 1.6222.2 2 3.511 2.6889 8.533 1.7333 13-1.9555 9.089-10.4444 15.133-18.7777 13.333-8.3334-1.8-13.6-10.777-11.6667-19.866.9556-4.467 3.6444-8.778 6.9111-11.156.7778-.555 1.0222-.311 1.5556.489l2.2444 3.467c.4889.778.5333 1.222-.2444 1.778-2.4 1.6-3.9334 3.844-4.5556 6.688-1.2222 5.712 2.7333 10 7.3778 11 4.5778.978 10-1.266 11.2444-7 .6223-2.866.1334-5.511-1.4-7.977z"/><path d="m95.8444 168.111c.8.422.8889.8.4223 1.667l-2.4 4.555c-.4667.867-.8223 1-1.6223.6l-24.5333-12.866c-.8-.423-.8889-.8-.4222-1.667l9.9555-18.978c.4667-.866.8223-1 1.6223-.6l3.2 1.667c.8.422.8888.8.4222 1.667l-6.9778 13.288 5.3556 2.8 6.7555-12.866c.4667-.867.8222-1 1.6222-.578l3.2 1.667c.8.422.8889.777.4223 1.666l-6.7556 12.867z"/><path d="m147.933 108.444c0 .889 0 1.445-.355 1.689l-.489.356c-.356.244-.867.089-1.711-.2l-15.489-4.822 5.844 11.066c.445.845.445 1.111-.355 1.689l-4.178 3c-.8.578-1.333.578-1.711-.2l-13.645-25.9554c-.133-.2667-.155-.3778.111-.5556l.312-.2222c.155-.1111.311-.1333.688 0l24.334 7.6002.578-25.4891c0-.3778.088-.5333.244-.6444l.311-.2223c.267-.2.356-.1555.578.0667l20.2 21.2445c.578.6444.444 1.1111-.356 1.6888l-4.177 2.9998c-.8.578-1.089.511-1.712-.2l-8.511-9.3553-.466 16.4893z"/><path d="m185.311 57.3999c8.911-2.6667 18.289 1.8667 20.733 10.0445 2.445 8.1777-2.888 17.1333-11.8 19.8-8.911 2.6666-18.288-1.8667-20.733-10.0445-2.444-8.1778 2.889-17.1333 11.8-19.8zm7.2 24.0445c5.778-1.7334 7.422-7.2889 6.089-11.7556-1.356-4.5555-5.756-8.2222-11.556-6.4889-5.6 1.6667-7.444 7.2-6.088 11.7556 1.333 4.4889 5.933 8.1555 11.555 6.4889z"/><path d="m303.4 60.3333c.955.2667 1.155.5778.911 1.4667l-1.044 3.7555c-.245.8667-.578 1.0445-1.534.7778l-8.955-2.4889-6.045 21.8222c-.244.8667-.578 1.0445-1.533.7778l-4.956-1.3778c-.955-.2666-1.155-.5777-.911-1.4444l6.045-21.8222-8.956-2.4889c-.955-.2667-1.155-.5778-.911-1.4667l1.044-3.7556c.245-.8666.578-1.0444 1.534-.7777l25.311 7zm-70.445 18.7555c0 .9112-.288 1.1556-1.266 1.1556h-5.134c-1 0-1.266-.2667-1.266-1.1556v-29.0444c0-.2889.089-.3778.422-.3778h.467c.333 0 .555.1334.889.3778l20 16.4222v-15.0889c0-.9111.288-1.1555 1.266-1.1555h5.134c1 0 1.266.2666 1.266 1.1555v29.0445c0 .2889-.089.3778-.422.3778h-.467c-.333 0-.555-.1334-.889-.3778l-20-16.6445z"/><path d="m333.644 94.8444 1.112 13.6666c.066 1.289-.845 1.244-1.712.733l-4.088-2.444c-.845-.511-1.156-1.089-1.267-2.111l-1.067-13.2891-2.266-1.3555-5.578 9.3111c-.467.7775-.845.8445-1.689.3333l-4.422-2.6444c-.845-.5111-.956-.8667-.489-1.6445l14.222-23.7778c.467-.7777.844-.8444 1.689-.3333l10.089 6.0222c4.622 2.7556 9.266 7.9334 5.689 13.9111-2.467 4.1334-6.445 4.6445-10.245 3.6223zm-1.933-7.1556c2.845 1.6889 4.645 1.6222 5.778-.2889 1.155-1.9111.355-3.5333-2.489-5.2222l-4.378-2.6222-3.311 5.5111 4.378 2.6222z"/><path d="m348.333 121.889c-.689-.711-.689-1.089-.044-1.711l20.022-19.156c.645-.622 1.022-.6 1.711.111l14.8 15.467c.689.711.689 1.089.045 1.711l-2.6 2.489c-.645.622-1.023.6-1.711-.111l-10.378-10.845-4.378 4.178 9.955 10.4c.689.711.689 1.089.045 1.711l-2.6 2.489c-.644.622-1.022.6-1.711-.111l-9.956-10.4-4.489 4.289 10.378 10.844c.689.712.689 1.089.045 1.712l-2.6 2.488c-.645.623-1.023.6-1.712-.111l-14.8-15.466zm35.467-15.911c-.711-.111-1.333-.422-1.867-.956l-2.733-2.866c-.578-.623-.444-1.023.956-.978l8.355.178c.911-.023 1.156.6.956 1.555l-.645 3.045c-.2.777-.422.977-1.467.822l-3.533-.778z"/><path d="m390.822 180.867c-.333.555-1.066.444-1.4-.178l-2.8-5.356c-.4-.755-.289-1.111.267-2l2.755-4.266-6.155-11.756-5.067-.178c-1.044-.044-1.4-.177-1.8-.933l-2.8-5.356c-.333-.622.022-1.244.645-1.244l32.711 1.533c.866.089 1.311 0 1.511.378l.067.133c.2.378-.112.689-.556 1.467l-17.4 27.733zm8.534-24.645-10.067-.155 4.511 8.622 5.6-8.356-.044-.089z"/><path d="m404.311 215.911c.2.978 0 1.289-.867 1.489l-3.533.733c-.889.178-1.2-.044-1.4-1l-4.022-19.022c-.2-.978 0-1.289.867-1.489l27.111-5.711c.889-.178 1.2.044 1.4 1l1.066 5.022c.2.978 0 1.289-.866 1.489l-22.467 4.733 2.689 12.734z"/></g><path d="m293.956 326.6c5.244-6.978 10.155-14.533 14.644-22.6 19.911-35.822 30.644-78.889 31.067-124.533.044-5.956-.134-12.934-.511-19.734-8.978-2.777-25.134-7.289-45.223-10.666l.023 177.577zm0 20.222c-2 2.222-4.023 4.378-6.089 6.445l-.045.044c-4.111 4.133-8.333 7.978-12.711 11.556-.067.044-.133.111-.2.155-3.267 2.645-6.6 5.134-9.978 7.445-.022 0-.044.044-.089.044-1.066.733-2.133 1.422-3.2 2.111-.133.089-.244.156-.377.245-1.067.666-2.111 1.333-3.178 1.977-.045.023-.111.067-.156.112-2.289 1.377-4.622 2.666-6.955 3.866-.089.045-.2.089-.289.156-1.022.533-2.067 1.044-3.111 1.533-.2.089-.378.178-.578.267-1.022.489-2.044.955-3.067 1.4-.133.066-.244.111-.377.178-1.178.511-2.356 1-3.534 1.488-.422-.177-.844-.355-1.266-.533-.623-.267-1.267-.511-1.889-.778-.556-.244-1.134-.489-1.689-.755-.534-.245-1.045-.467-1.578-.734-.578-.266-1.156-.555-1.733-.822-.511-.244-1-.489-1.511-.755-.578-.289-1.178-.578-1.756-.889-.489-.245-.956-.511-1.422-.778-1.089-.6-2.2-1.2-3.289-1.822-.445-.245-.867-.489-1.311-.756-.622-.355-1.222-.733-1.822-1.111-.423-.267-.867-.533-1.289-.8-.623-.378-1.223-.778-1.823-1.178-.422-.266-.822-.533-1.244-.822-.622-.422-1.244-.822-1.867-1.244-.311-.223-.644-.445-.955-.667-1.311-.911-2.6-1.845-3.867-2.8-.267-.2-.533-.4-.822-.6-.645-.489-1.267-.978-1.911-1.489-.356-.267-.711-.556-1.045-.822-.622-.511-1.244-1.022-1.866-1.534-.334-.266-.667-.555-1-.844-.645-.533-1.289-1.089-1.934-1.644-.2-.156-.377-.334-.577-.511-1.445-1.267-2.889-2.578-4.312-3.912-.133-.111-.266-.244-.377-.355-.645-.622-1.311-1.245-1.956-1.889-.267-.267-.555-.533-.822-.8-.622-.622-1.267-1.267-1.889-1.889-.267-.267-.511-.533-.778-.8-.644-.667-1.289-1.356-1.933-2.044-.089-.089-.156-.178-.245-.267-.733-.8-1.466-1.578-2.2-2.4-1.066-1.2-2.133-2.422-3.177-3.645-.245-.288-.489-.577-.734-.888-2.089-2.489-4.133-5.045-6.133-7.689-.244-.311-.467-.622-.711-.956-1.978-2.644-3.911-5.378-5.778-8.178-.222-.333-.467-.688-.689-1.022-.933-1.4-1.844-2.822-2.755-4.266-.911-1.445-1.8-2.912-2.667-4.378-.222-.356-.444-.734-.644-1.111-.867-1.489-1.734-2.978-2.578-4.489-20.956-37.689-32.245-82.889-32.689-130.667-.045-5.178.089-10.889.333-16.511.2-4.4.467-8.778.8-12.844 0 0 .045 0 .134-.045.044 0 .088-.044.155-.067.045 0 .111-.044.178-.066s.155-.045.244-.089c.067-.022.156-.045.245-.089.066-.022.133-.044.2-.067.111-.044.222-.089.355-.111.067 0 .111-.044.178-.066.2-.067.4-.134.622-.223.067 0 .111-.044.178-.066.178-.067.378-.134.6-.2.067-.023.156-.045.222-.067.556-.178 1.178-.4 1.867-.622.067-.022.156-.045.222-.067.311-.089.622-.2.956-.311.066 0 .111-.044.178-.067.4-.133.822-.266 1.244-.4h.022c.422-.133.845-.266 1.289-.4.067-.022.156-.044.245-.066.444-.134.888-.267 1.355-.423h.067c.511-.155 1.044-.311 1.578-.466.044 0 .088-.022.133-.045.489-.155 1-.289 1.533-.444.067 0 .156-.045.222-.067 1.134-.333 2.356-.666 3.623-1.022.066 0 .155-.044.222-.067.578-.155 1.156-.311 1.756-.489.066 0 .133-.044.222-.066 1.333-.356 2.711-.734 4.155-1.089.089-.022.178-.045.289-.067.689-.178 1.378-.355 2.089-.533.044 0 .067 0 .111-.022.778-.2 1.556-.378 2.356-.578h.044c.756-.178 1.511-.356 2.289-.556.111-.022.2-.044.311-.066 1.622-.378 3.289-.756 5-1.134.089 0 .178-.044.267-.066.778-.178 1.578-.334 2.355-.511.111-.023.2-.045.311-.067 1.756-.378 3.534-.733 5.378-1.111.134-.022.289-.045.422-.089.845-.156 1.689-.333 2.556-.489.067 0 .156-.022.222-.044.956-.178 1.934-.356 2.911-.534h.111c.912-.155 1.823-.311 2.734-.489.155-.022.333-.066.489-.089.955-.155 1.933-.333 2.889-.488 0 0 .111 0 .155-.023 1.778-.289 3.578-.555 5.422-.822.223-.044.467-.067.689-.089 1.8-.266 3.622-.511 5.467-.755.133 0 .267-.045.4-.045 1.911-.244 3.867-.466 5.822-.689.222-.022.445-.044.667-.066 1.933-.2 3.911-.4 5.889-.578.089 0 .2 0 .289-.022 2.044-.178 4.088-.334 6.177-.489.2 0 .423-.022.645-.045 2.066-.133 4.155-.266 6.266-.355h.156c2.133-.111 4.311-.178 6.467-.222h.577c2.2-.045 4.4-.089 6.623-.089h2.266 2.267c2.244 0 4.467.022 6.667.089h.466c4.445.111 8.8.311 13.111.6h.334c4.355.288 8.622.688 12.778 1.133h.111c6.333.689 12.422 1.533 18.222 2.467.978.155 1.956.333 2.933.488.156.023.311.045.467.089.933.156 1.844.311 2.755.489h.112c.977.178 1.977.356 2.933.534.067 0 .133.022.2.044.867.156 1.733.333 2.578.489.133.022.266.044.422.089 1.844.355 3.644.733 5.378 1.111.111 0 .2.044.311.067.8.177 1.578.333 2.355.511.089 0 .178.044.289.066 1.711.378 3.378.756 4.978 1.134.111.022.2.044.311.066.778.178 1.533.356 2.267.556h.066c.8.2 1.6.4 2.378.578h.067c.711.177 1.422.355 2.111.533.089.022.2.044.289.067 1.444.377 2.844.733 4.178 1.111.066 0 .133.044.2.044.6.156 1.2.334 1.777.489.089 0 .156.045.245.067 1.267.355 2.467.689 3.6 1.022.089.022.155.044.244.067.534.155 1.045.311 1.534.444.022 0 .066 0 .089.022.555.156 1.088.311 1.6.467h.066c.467.133.934.289 1.378.422.067.022.156.045.222.067.445.133.889.267 1.311.4.445.133.845.267 1.245.4.066 0 .133.044.2.067.311.111.622.2.911.288.089.023.178.045.244.089.689.223 1.311.423 1.867.623.067.022.156.044.222.066.2.067.4.134.578.2.067 0 .133.045.2.067.222.067.422.155.622.222.067.022.134.045.178.067.133.044.244.089.356.133.066.022.133.045.2.067.088.022.155.066.222.089.111.044.222.089.311.111.044 0 .089.022.111.044.2.067.311.111.311.111.467 5.756.822 12.178 1.022 18.445.111 3.755.156 7.444.111 10.911-.4 43.8-9.933 85.422-27.644 121.089-1.622 3.244-3.289 6.444-5.022 9.578-.845 1.511-1.689 3-2.556 4.466-.222.378-.444.734-.644 1.111-.867 1.467-1.756 2.934-2.667 4.378-.911 1.445-1.822 2.845-2.755 4.245-.223.355-.467.688-.689 1.044-1.867 2.8-3.8 5.511-5.778 8.156-.245.333-.489.644-.733.977-1.978 2.622-4.023 5.178-6.112 7.667-.244.311-.511.6-.755.911-1.045 1.222-2.089 2.444-3.178 3.644zm-107.889-20.222v-177.556s-.023 0-.045 0c-20.044 3.378-36.2 7.867-45.178 10.667-.377 6.8-.555 13.778-.511 19.733.423 45.645 11.156 88.711 31.067 124.534 4.489 8.066 9.4 15.622 14.644 22.622z" fill="#000"/><path d="m140.844 159.711c-.377 6.8-.555 13.778-.511 19.733.423 45.645 11.156 88.712 31.067 124.534 4.489 8.066 9.4 15.622 14.644 22.622v-177.556c-20.066 3.378-36.222 7.867-45.2 10.667z" fill="#003da6"/><path d="m308.6 304c19.911-35.822 30.644-78.889 31.067-124.533.044-5.956-.134-12.934-.511-19.734-8.978-2.777-25.134-7.289-45.223-10.666v177.555c5.267-6.978 10.178-14.533 14.667-22.6z" fill="#003da6"/><path d="m336.822 233.267c-22.044-3.556-42.978 15.911-58.622 53-8.511 20.2-11.778 33.244-14.733 49.489-5.334.044-13.6 0-13.6 0s1.533-10.778 5.133-26.112c3.578-15.311 18-53.688 23.2-71.955.733-2.533 1.289-5.022 1.711-7.467 6.4-37.222-20.933-62.111-39.911-74.622-19 12.511-46.356 37.4-39.933 74.622.422 2.467.955 4.956 1.689 7.467 5.2 18.289 19.622 56.644 23.222 71.955 3.578 15.334 5.133 26.112 5.133 26.112s-8.289.044-13.6 0c-2.978-16.245-6.244-29.267-14.755-49.489-15.623-37.089-36.556-56.534-58.623-53-2.044.333-4.044.866-5.977 1.577 4.666 23.312 12.155 45.378 22.311 65.467.066 0 .111-.022.177-.022 10.934-1.733 21.623 1.178 29.2 8.133 11.734 10.778 11.778 27.311 11.778 27.311h-18.666c5.622 7.089 11.622 13.6 17.911 19.445h27.155c-.889 5.222-4.666 9.978-10.044 13.733 7.422 5.089 15.133 9.333 23.022 12.622 7.889-3.266 15.6-7.511 23-12.6-5.378-3.755-9.178-8.533-10.067-13.755h27.2c6.289-5.845 12.289-12.334 17.911-19.445h-18.733s.045-16.533 11.8-27.311c7.578-6.955 18.222-9.866 29.178-8.133.089 0 .155.022.244.044 10.156-20.089 17.667-42.155 22.334-65.466-1.978-.734-3.978-1.267-6.045-1.6z" fill="#fff"/><path d="m200.044 230.2c.423 2.467.956 4.956 1.689 7.467 5.2 18.289 19.623 56.644 23.223 71.955 3.577 15.334 5.133 26.111 5.133 26.111h9.889v-180.155c-19 12.511-46.356 37.4-39.934 74.622z" fill="#c1c5c8"/><path d="m447.911 296.311-79.511-27.422c2.089-9.289 3.2-18.956 3.2-28.889 0-22.067-5.444-42.889-15.044-61.156.044-8.844-.378-19.577-1.156-28.955l-.2-2.556-2.4-.889c-.245-.088-11.689-4.288-29.933-8.688-22.623-18.356-51.445-29.356-82.845-29.356s-60.244 11-82.866 29.356c-18.223 4.4-29.689 8.6-29.934 8.688l-2.4.889-.2 2.556c-.778 9.378-1.2 20.111-1.155 28.955-9.6 18.267-15.067 39.089-15.067 61.156 0 9.933 1.133 19.578 3.2 28.867l-79.5111 27.422c.7111 2.622 1.4666 5.2 2.2666 7.778l79.2445-27.334c12.089 41.623 44.178 74.734 85.156 88.245 12.377 10.711 25.777 19.044 39.755 24.622l1.489.6 1.489-.6c13.978-5.578 27.378-13.933 39.755-24.622 40.978-13.511 73.067-46.622 85.156-88.222l79.244 27.333c.8-2.578 1.556-5.178 2.267-7.778zm-207.911-179.867c22.4 0 43.889 5.934 62.689 17.023-17.556-3.245-38.422-5.845-60.422-5.845h-2.267-2.244c-22 0-42.867 2.578-60.445 5.845 18.8-11.111 40.289-17.023 62.689-17.023zm-87.378 210.934c-23.333-23.334-36.2-54.356-36.2-87.378 0-14.911 2.645-29.422 7.667-43 2.711 42 13.844 81.533 32.555 115.2 7.8 14.022 16.8 26.689 26.734 37.689-11.2-5.8-21.578-13.333-30.756-22.511zm-4.311-52.734c.778 2.112 1.578 4.2 2.4 6.289-.822-2.089-1.622-4.177-2.4-6.289zm2.578 6.712c.844 2.111 1.711 4.2 2.622 6.288-.889-2.066-1.778-4.177-2.622-6.288zm2.622 6.311c1.867 4.289 3.845 8.511 5.933 12.622-2.088-4.133-4.066-8.333-5.933-12.622zm63.845 81.533c.8.556 1.6 1.089 2.4 1.622-.512-.333-1.045-.666-1.556-1.022-.289-.2-.556-.4-.844-.6zm22.644 12.356c-.956-.4-1.933-.823-2.889-1.245.956.422 1.933.845 2.889 1.245v-26.489l-12.978.133c-.889 5.222-4.689 9.978-10.044 13.756-4.845-3.334-9.578-7-14.156-11.045-14.911-13.155-28.244-29.955-39.155-49.6-1.445-2.622-2.867-5.267-4.223-7.955.067 0 .134-.023.2-.045 10.934-1.733 21.623 1.178 29.2 8.133 8.734 8.023 11 19.223 11.578 24.445-3.666-46.022-32.689-65.2-52.155-58.356-10.6-28.844-16.311-60.644-16.734-93.755 0-.4 0-.8 0-1.2-.044-4.4.045-9.334.245-14.356.155-4.044.378-8.111.666-12.022 2.423-.822 6.6-2.178 12.178-3.778 4.534-1.289 10-2.755 16.222-4.222 19.823-4.689 47.312-9.489 76.934-9.489h2.244 2.267c29.622 0 57.111 4.8 76.933 9.489 6.222 1.467 11.689 2.933 16.222 4.222 5.578 1.6 9.756 2.956 12.178 3.778.289 3.911.511 8 .667 12.044.2 5.023.289 9.956.244 14.356v1.222c-.422 33.111-6.155 64.911-16.733 93.734-19.467-6.8-48.467 12.377-52.111 58.377.578-5.222 2.844-16.422 11.578-24.444 7.577-6.956 18.244-9.867 29.2-8.133.044 0 .111 0 .155.022-1.355 2.689-2.755 5.355-4.222 7.978-10.911 19.644-24.244 36.444-39.156 49.6-4.955 4.377-10.088 8.355-15.377 11.888-7.045 4.734-14.334 8.667-21.8 11.778zm-20.222-10.734c.911.6 1.822 1.178 2.755 1.734-.911-.578-1.844-1.156-2.755-1.734zm2.844 1.8c.889.534 1.778 1.067 2.645 1.6-.889-.511-1.778-1.044-2.645-1.6zm2.867 1.734c.844.488 1.689.955 2.533 1.422-.844-.467-1.689-.934-2.533-1.422zm2.889 1.644c.8.422 1.578.844 2.378 1.267-.8-.423-1.578-.823-2.378-1.267zm2.911 1.533c.755.378 1.511.756 2.244 1.134-.755-.378-1.511-.734-2.244-1.134zm2.911 1.445c.733.355 1.467.689 2.222 1.022-.733-.333-1.489-.667-2.222-1.022zm97.489-104.356c-.778 2.111-1.578 4.222-2.422 6.311.822-2.089 1.644-4.2 2.422-6.311zm-2.578 6.711c-2.6 6.489-5.467 12.823-8.555 18.978 3.111-6.155 5.955-12.467 8.555-18.978zm-1.755 46.045c-9.178 9.178-19.534 16.711-30.756 22.511 9.933-11 18.933-23.667 26.733-37.689 18.711-33.667 29.845-73.2 32.556-115.178 5.022 13.578 7.667 28.089 7.667 43 0 33-12.845 64.022-36.2 87.378z" fill="#c1c5c8"/></g></svg>