<svg viewBox="0 0 800 800" xmlns="http://www.w3.org/2000/svg"><path d="m400 60.09a340 340 0 0 1 240.43 580.25 337.65 337.65 0 0 1 -240.43 99.57c-90.83 0-176.19-35.3-240.34-99.39s-99.57-149.52-99.57-240.52a339.8 339.8 0 0 1 339.91-339.91m0-15.51c-95.08 0-184.39 37-251.5 104.21a353.23 353.23 0 0 0 -103.92 251.21c0 95.1 37 184.42 104.12 251.49s156.3 103.93 251.3 103.93a355.47 355.47 0 0 0 251.31-606.82 353.14 353.14 0 0 0 -251.31-104.02z" fill="#0a2240"/><path d="m400 60.09a340 340 0 0 1 240.43 580.25 337.65 337.65 0 0 1 -240.43 99.57c-90.83 0-176.19-35.3-240.34-99.39s-99.57-149.52-99.57-240.52a339.8 339.8 0 0 1 339.91-339.91" fill="#fff"/><g fill="#0a2240"><path d="m126.33 377.87c-8 0-13.85 5.4-13.85 12.91s5.64 12.22 12.44 12.22a10.15 10.15 0 0 0 8.45-4c-.47 6.57-4.93 10.32-11.5 10.32a15.88 15.88 0 0 1 -6.57-1.64l-1.88 6.32c1.88 1.17 5.4 1.88 8.45 1.88 12.44 0 19-7.75 19-20.66.01-11.71-6.56-17.35-14.54-17.35zm-.23 18.55c-3.52 0-6.34-2.35-6.34-5.87a6.34 6.34 0 0 1 12.67 0 6.07 6.07 0 0 1 -6.33 5.87z"/><path d="m83.38 385.62v5.16h8.69v24.41h7.74v-36.38h-6.81c-.7 3.76-4.46 6.81-9.62 6.81z"/><path d="m668 377.87c-8 0-13.84 5.4-13.84 12.68 0 7.51 5.63 12.2 12.44 12.2 3.75 0 7-1.64 8.45-3.75-.47 6.57-4.93 10.09-11.5 10.09a16.18 16.18 0 0 1 -6.58-1.41l-1.87 6.1a17.81 17.81 0 0 0 8.45 2.12c12.43 0 19-7.75 19-20.89.04-11.5-6.55-17.14-14.55-17.14zm-.23 18.55a5.79 5.79 0 0 1 -6.1-6.11 5.86 5.86 0 0 1 6.1-5.87c3.52 0 6.34 2.35 6.34 5.87.03 3.76-2.79 6.11-6.31 6.11z"/><path d="m707.7 390.78a10 10 0 0 0 -8.7 4.22c.7-6.81 5.86-10.57 12-10.57a15.66 15.66 0 0 1 6.1 1.41l2.11-6.33a15.79 15.79 0 0 0 -7.74-1.65c-12 0-20.19 8.22-20.19 21.36 0 10.8 6.81 16.67 14.79 16.67s14.08-5.4 14.08-12.91-5.15-12.2-12.45-12.2zm-1.64 18.54a6.1 6.1 0 0 1 -6.34-6.1c0-3.75 2.82-6.1 6.34-6.1s6.33 2.35 6.33 6.1-2.81 6.1-6.33 6.1z"/><path d="m304.24 642.39-24.88 25.82 3.52-35.68-8.92-4.23-3.52 48.35 8.22 3.99 34.03-34.5z"/><path d="m224.67 593.33-13.14-12-30.75 33.1 6.58 6.1 11.73-12.91 3.29 3.29-5.17 18.77 7.28 6.57 5.4-19.95c5.4 2.59 11.5 1.41 16-3.05 5.36-5.83 5.11-13.81-1.22-19.92zm-5.67 13.85c-2.58 2.82-6.1 3.05-9.62-.23l-5.17-4.7 8.69-9.15 5.16 4.69c3.33 3.05 3.56 6.81.94 9.39z"/><path d="m218.1 646.61 23.47 15.73 4.7-6.81-16.2-11.03 5.64-8.45 15.02 9.62 4.22-6.57-14.79-9.62 5.64-8.45 16.43 10.8 4.69-7.05-23.47-15.72z"/><path d="m495.06 643.56 16.89 42.01 8.22-3.28-16.9-42.02z"/><path d="m532.37 624.55c-10.56 6.1-15.49 19.48-8.21 32.15s21.36 14.79 31.92 8.92c10.8-6.33 15.73-19.71 8.45-32.39-7.53-12.67-21.59-14.78-32.16-8.68zm19.48 33.56c-5.86 3.29-14.78 2.82-19.71-6.1-5.16-8.92-1.64-16.43 4.46-20.18 6.1-3.29 14.79-2.82 19.95 5.86 5.16 8.92 1.45 16.67-4.7 20.42z"/><path d="m582.84 587.93 20.18 22.3-34.03-9.86-8.45 7.28 30.28 34.03 6.57-5.86-21.6-24.18 36.85 10.33 7.04-6.1-30.04-33.8z"/><path d="m338.74 652.48c-12-2.82-24.88 3.28-28.16 17.6-3.76 14.32 4.93 25.59 16.9 28.4 12 3 24.87-3.28 28.16-17.37 3.76-14.31-4.93-25.81-16.9-28.63zm8.26 26.29c-2.59 10.09-10.8 12.91-17.37 11.5-6.81-1.65-12.68-8.22-10.33-18.08 2.58-10.09 10.8-12.9 17.37-11.26 6.77 1.41 12.63 7.98 10.33 17.84z"/><path d="m379.81 660.23-8.91-.71-2.82 45.3 30.28 2.11.47-8.68-21.36-1.18z"/><path d="m486.14 647.32-36.15 9.85 2.12 7.98 13.84-3.75 9.63 35.67 8.44-2.34-9.62-35.68 14.08-3.52z"/><path d="m441.07 658.58-8.68 1.18 2.82 28.16c.7 5.87-2.35 9.39-7.51 9.86s-8.92-2.35-9.63-8.22l-2.34-28.16-8.92.7 2.81 29.11c.94 11 9.16 16.19 18.78 15.25s16.9-7.74 15.72-18.77z"/><path d="m190.41 238.22-24.41-20.42 37.78 4.93 6.11-7.27-34.74-29.11-5.63 6.81 23 19.25-35.21-4.93-7.04 8.45 34.51 29.1z"/><path d="m265.98 172.03-6.1-33.32 24.41 23.7 7.75-4.22-10.1-45.54-8.21 3.52 7.74 31.69-23.7-23-7.98 4.46 5.87 32.15-22.54-23.7-7.27 5.16 31.92 33.57z"/><path d="m241.81 188.23-5.4-6.34-15.02 12.44-6.81-8.21 13.61-11.27-4.92-6.1-13.62 11.5-6.8-8.22 15.25-12.43-5.39-6.34-21.83 18.07 28.87 34.74z"/><path d="m582.13 166.4-4.69 38.03 7.04 6.1 29.1-34.74-6.8-5.63-19.25 22.76 4.93-34.97-8.45-7.04-29.1 34.74 6.8 5.63z"/><path d="m524.39 155.84 16 8.92-1.4 10.8 8.21 4.69 6.8-47.88-8.69-4.93-37.32 31 8.22 4.46zm20.42-17.37-3 17.84-10.81-5.87z"/><path d="m504.91 148.56-18.77-6.8 12.2-34.74-8.45-3.05-14.78 42.72 27.22 9.85z"/><path d="m629.07 191.52-35.2 28.4 10.32 12.67c8 10.09 20.66 12.44 31.69 3.52 11.27-9.15 11.5-22.06 3.52-31.92zm.94 37.31c-7.51 6.11-14.78 4-19.71-1.64l-4.7-5.4 22.77-18.3 4.46 5.39c4.69 5.87 4.93 13.62-2.83 19.95z"/><path d="m407.75 90.59-8.92.24 1.17 30.04-19.95-29.34-11.03.47 1.64 45.06 8.92-.47-1.17-31.68 21.59 31.22 9.39-.47z"/><path d="m337.8 134.95-2.11-10.32 17.37-3.53-1.88-7.74-17.13 3.52-2.35-10.09 19.25-3.99-1.88-8.22-27.7 6.11 9.63 44.35 27.69-5.86-1.64-8.22z"/><path d="m455.16 135.89-.24 5.16 7 1.18 3.8-23.23-22.3-3.75-1.17 7.51 14.08 2.58c-.94 2.82-4.93 8-13.38 6.81-7.28-1.41-13.14-7.75-11.73-17.84 1.87-10.56 10.09-14.08 16.66-12.91 7.28 1.17 10.33 6.57 10.8 10.56l8.68-1.64c-1.17-7.28-6.34-15-18.07-17.14-12.21-2.11-24.41 5.17-26.76 19.72-2.34 14.32 6.57 25.11 18.78 26.76 6.34 1.16 11.5-1.19 13.85-3.77z"/><path d="m639.93 398.86a125 125 0 0 0 -64.93-109.66 52.39 52.39 0 0 0 -65.2-65 125.06 125.06 0 0 0 -220 .67 52.41 52.41 0 0 0 -64.21 64 125.07 125.07 0 0 0 -.34 219.8 52.38 52.38 0 0 0 65.1 65.25 125.08 125.08 0 0 0 219.3 0 52.41 52.41 0 0 0 65.27-65.31 125 125 0 0 0 65.01-109.75z"/></g><path d="m349.85 426.86-31 25.52a.22.22 0 0 1 0 .08l-55 45.28a168.24 168.24 0 0 1 3-201.48c.41-.54.84-1.07 1.26-1.6l1-1.26c2.19-2.72 4.46-5.38 6.82-7.95-55.63 5-99.3 53.93-99.3 113.59s43.67 108.61 99.3 113.59l10.07.93s.75 11.16.85 12.12c6.15 54.47 54.51 96.89 113.31 96.89 59.66 0 108.61-43.67 113.59-99.29-2.57 2.35-5.23 4.62-8 6.82l-1.25 1c-.54.42-1.07.85-1.61 1.26a168.24 168.24 0 0 1 -201.47 3l82.8-100c-2-3-4.11-5.37-6.26-6.62l-26.58-3.1-1.52 1.24m-155.86-27.88c0-48.2 28.43-88.77 67.09-100.92-28.27 19.54-47.45 57.4-47.45 100.92s19.18 81.42 47.45 101c-38.66-12.19-67.09-52.75-67.09-101zm206.12 206.16c-48.2 0-88.77-28.42-100.92-67.09 19.54 28.28 57.4 47.45 100.92 47.45s81.38-19.17 100.88-47.45c-12.11 38.67-52.67 67.09-100.88 67.09zm127.33-319.36h-.12c-1.13-.12-2.26-.25-3.4-.34l-9.37-.88s-.89-9.78-.85-9.74c-5-55.63-53.93-99.3-113.59-99.3s-108.61 43.67-113.59 99.3q3.87-3.54 8-6.83l1.26-1c.53-.42 1.06-.85 1.6-1.26a168.25 168.25 0 0 1 201.49-3l-17.08 20.82-20.17 24.43-64.76 79c14.84.07 27.58.13 34.16.13h.79l105.59-85.46a168.31 168.31 0 0 1 -4 200.16c-.41.54-.83 1.07-1.26 1.61l-1 1.25c-2.2 2.72-4.47 5.38-6.82 7.95 55.62-5 99.29-53.93 99.29-113.59.03-58.56-42.03-106.76-96.17-113.25zm-127.33-73.24c-43.52 0-81.38 19.17-100.92 47.45 12.15-38.67 52.72-67.09 100.92-67.09s88.77 28.43 100.88 67.08c-19.5-28.27-57.36-47.44-100.88-47.44zm139 287.4c28.28-19.54 47.45-57.4 47.45-100.92 0-42.79-18.54-80.1-46-99.91l.29-.23-.31-.31c38 12.68 65.7 52.83 65.7 100.45-.01 48.21-28.43 88.77-67.1 100.96zm22.33 23.75a36.65 36.65 0 0 1 -45.07 35.71 124.06 124.06 0 0 0 4.4-13.39 22.6 22.6 0 0 0 26.67-22.32 22.18 22.18 0 0 0 -.38-4 125.51 125.51 0 0 0 13.39-4.39 36.39 36.39 0 0 1 1.02 8.39zm-285.23-285a36.34 36.34 0 0 1 6.89.66 123.28 123.28 0 0 0 -4.26 13.51 20.75 20.75 0 0 0 -2.63-.17 22.72 22.72 0 0 0 -22.69 22.69 20.89 20.89 0 0 0 .13 2.39 123.54 123.54 0 0 0 -13.51 4.32 37.13 37.13 0 0 1 -.62-6.71 36.73 36.73 0 0 1 36.72-36.65zm270.94 39.29a23.4 23.4 0 0 0 .32-3.67 22.56 22.56 0 0 0 -26.58-22.33 124.17 124.17 0 0 0 -4.35-13.41 36.65 36.65 0 0 1 44 43.82 124.44 124.44 0 0 0 -13.39-4.41zm-263.11 282.56a36.68 36.68 0 0 1 -43.38-44.79 124.63 124.63 0 0 0 12.46 4 22.43 22.43 0 0 0 -.37 4 22.72 22.72 0 0 0 22.7 22.69 23.11 23.11 0 0 0 3.74-.33 123.16 123.16 0 0 0 4.85 14.43z" fill="#ce0e2d"/><path d="m334.07 519.8 16.48-29.75c3 23.55 14.82 37.24 14.82 37.24l-9.08 11.07zm-34.75-93.8c0-4.11.69-11.62 10-11.62h10.46v19.62a141.53 141.53 0 0 1 -.95 18.36l31-25.54v-12.47h32.31a52.57 52.57 0 0 1 20.86 16.38c26.55 34.73 42.32 86.8 78.6 93.88l45.23-44.85-12.87-11.49s-18.39 18.15-33.68 17.4c-18.15-.88-25.45-25.24-35.68-43.66a212.59 212.59 0 0 0 -17.86-27.66h1.26s27.66.89 43.59-7.74c21.34-11.56 34.7-32.13 37.9-57.3l-43.67 22.69c-7.1 9.38-18.51 15.15-34.77 15.15-13.2 0-51.21-.22-81.2-.41v-78.67c14.32-8.44 37.41-21.31 69.92-18.73 18.6 1.47 32.59 8.77 41.83 18.71l20.08-24.51a91 91 0 0 0 -23.86-13.23c-53.02-20.21-104.09 5.69-124.82 17.69-22.79 13.28-41.37 6.2-41.37 6.2l-4.65 23a52.46 52.46 0 0 0 32.75 3.86v65.46l-10.05-.06c-9.29 0-10-7.52-10-11.62v-16.41h-16.37l-.41 84h16.42z" fill="#fff"/></svg>