<svg viewBox="0 0 800 800" xmlns="http://www.w3.org/2000/svg"><path d="m400 56c-189.67 0-344 154.34-344 344s154.3 344 344 344 344-154.33 344-344-154.33-344-344-344z" fill="#011e41"/><path d="m708.18 400c0-170.21-138-308.19-308.17-308.19s-308.19 137.98-308.19 308.19 137.98 308.19 308.18 308.19 308.18-137.98 308.18-308.19z" fill="#6aaae4"/><path d="m115.39 416.47-6.74-20.74 17.64-12.82 17.65 12.82-6.74 20.74z" fill="#011e41"/><path d="m662.66 416.47-6.75-20.74 17.65-12.82 17.64 12.82-6.74 20.74z" fill="#011e41"/><path d="m640.36 400c0-132.76-107.61-240.37-240.35-240.37s-240.37 107.61-240.37 240.37 107.61 240.37 240.36 240.37 240.36-107.61 240.36-240.37z" fill="#011e41"/><path d="m400 729.88c-181.91 0-329.9-148-329.9-329.88s148-329.91 329.9-329.91 329.89 148 329.89 329.91-147.99 329.88-329.89 329.88zm0-652.6c-178 0-322.73 144.72-322.73 322.72s144.73 322.72 322.73 322.72 322.73-144.78 322.73-322.72-144.73-322.72-322.73-322.72z" fill="#ff5100"/><path d="m400 625.48c-124.34 0-225.5-101.16-225.5-225.48s101.17-225.48 225.5-225.48 225.49 101.13 225.49 225.48-101.16 225.48-225.49 225.48zm0-442.6c-119.74 0-217.14 97.4-217.14 217.12s97.41 217.13 217.14 217.13 217.12-97.41 217.12-217.13-97.39-217.12-217.12-217.12z" fill="#fff"/><path d="m449.87 334.11v18.34h14.77v97.27l-121.98-115.74-21.76.13h-15.82v18.34h14.29v107.37h-14.6v18.34h48.74v-18.34h-14.97v-103.96l129.04 121.98.41.38 15.84-.08v-125.69h14.78v-18.34z" fill="#fff"/><path d="m409.46 570.86v-140.7l-19.7-18.65v159.35h-14.9v19.73h50.25v-19.73z" fill="#fff"/><path d="m457.29 285.89-58.15 55.54-61.44-58.7-27-26.24h9.38v-19.43h-52.9v19.43h15.41l37.87 36.64 69.74 66.62v11.92l19.43 19.1v-32.44l65.14-62.24a134.17 134.17 0 0 0 -17.48-10.2z" fill="#fff"/><path d="m477.57 236.43v20.14h10l-7.44 7.24a150.41 150.41 0 0 1 16.79 10.92l18.75-18.16h15v-20.14z" fill="#fff"/><path d="m382.81 532.59c-66.03-8.73-115.81-65.53-115.81-132.15a133.45 133.45 0 0 1 46.09-100.73c.45-.41 1-.87 1.55-1.36l1.81-1.58-14.45-13.63-1 .84c-.72.65-1.45 1.31-2.13 2a152.94 152.94 0 0 0 83.54 266.49l1.53.2v-19.91z" fill="#fff"/><path d="m527.82 298.54v17.23a154.72 154.72 0 0 0 -10.24-13.58l.11-.11-.86-.93c-.65-.73-1.32-1.47-2-2.15a153.91 153.91 0 0 0 -16.28-15.81l-1.42-1.28-.05.06a151.15 151.15 0 0 0 -91.74-34.51h-.5c-1.59 0-3.08-.05-4.51-.05a152.92 152.92 0 0 0 -70.92 17.5l-1.7.89 15.19 14.4.84-.41a132 132 0 0 1 56.59-12.68 133.34 133.34 0 0 1 83.76 29.72l4.46 4.05c16.31 14.78 29.42 34.13 37.94 56l.34.87h20.66v-59.21z" fill="#fff"/><path d="m527.87 439.6-.3 1c-14.12 48.71-58.75 85.76-111.07 92.21l-1.21.13v19.81l1.54-.19c61.37-6.83 114.06-51.49 131.11-111.12l.49-1.74z" fill="#fff"/><g fill="#011e41"><path d="m179.3 207.8 5.28-5.41 28.61 3.51-16.41-16 5.64-5.8 26.66 26-4.87 5-29.54-3.62 16.94 16.52-5.61 5.8z"/><path d="m212.31 175.69 22.33-17 4.43 5.8-15.87 12.07 4.57 6 14-10.64 4.43 5.79-14 10.64 4.74 6.24 16.06-12.26 4.42 5.77-22.54 17.2z"/><path d="m242 152.64 7.81-4 18.35 18.91-4.16-26.31 6.25-3.22 18.94 18.76-4.61-26 7.62-3.89 5.8 39.19-6.34 3.24-18.56-17.85 3.61 25.5-6.35 3.24z"/><path d="m335.72 138.05-19-18.8 9.34-2.13 12 12.58 5.48-16.58 9.08-2.07-9 25 3.38 14.49-8 1.83z"/><path d="m358.37 129v-.11c-.85-10.56 6.79-19.84 18.24-20.77s20.33 7 21.18 17.53v.11c.83 10.53-6.8 19.84-18.25 20.77s-20.33-7.01-21.17-17.53zm30.9-2.45v-.11c-.52-6.37-5.59-11.3-12.16-10.78s-10.73 6.07-10.22 12.44v.11c.5 6.37 5.59 11.29 12.15 10.78s10.73-6.11 10.23-12.45z"/><path d="m408 107.6 17 1.3c4.72.36 8.27 2 10.52 4.6a11.7 11.7 0 0 1 2.53 8.71v.11a11.57 11.57 0 0 1 -8.85 10.89l8 14-9.54-.74-7-12.49h-.1l-6.31-.49-.91 11.87-8.17-.63zm15 19.26c4 .33 6.41-1.63 6.66-4.76v-.1c.27-3.48-2-5.47-6-5.77l-8.11-.62-.83 10.64z"/><path d="m450.27 111.76 8 1.8-3.59 15.86 18.32-12.52 9.65 2.18-18.26 12.06 10.71 24.41-9.59-2.18-7.75-18-5.19 3.4-2.57 11.09-8-1.79z"/><path d="m499.85 144.77v-.08a18.91 18.91 0 0 1 25.72-9.28c6.36 2.94 9.19 6.83 10.9 11.38l-7.27 3.26c-1.5-3.56-3.48-6.26-6.86-7.83-5.69-2.65-12 .19-14.68 6v.08c-2.7 5.8-.93 12.5 4.87 15.19 3.85 1.77 6.94 1.33 10.71.16l2.5 7c-5.2 2.1-10.12 2.61-16.64-.41a18.79 18.79 0 0 1 -9.25-25.47z"/><path d="m547.62 147.82 7 4.22-19.28 31.84-7-4.24z"/><path d="m567.63 169.92-9-6.8 4.53-6.05 24.66 18.54-4.55 6-9.05-6.8-17.84 23.7-6.54-4.93z"/><path d="m587.05 205.76 5.72-26.1 6.79 6.75-4.21 16.88 16.95-4.29 6.6 6.56-25.9 5.86-10.5 10.58-5.81-5.77z"/><path d="m206.42 566.37 19.08 20.11-4.33 4.08-14.57-15.35-7.36 7 12.91 13.63-4.31 4.09-12.93-13.61-11 10.42-4.49-4.74z"/><path d="m216.59 604v-.08a19.06 19.06 0 0 1 27.23-3.21c9 7 10 18.77 3.55 27v.08a19.05 19.05 0 0 1 -27.23 3.21c-9.02-7-10-18.72-3.55-27zm25.29 19.7.07-.08c4.44-5.71 4-13.69-1.85-18.23s-13.52-3-18 2.66l-.07.09c-4.44 5.71-4 13.68 1.85 18.23s13.55 3.06 18-2.66z"/><path d="m253.78 632.18.05-.11a19.47 19.47 0 0 1 34.36 18.31l-.05.09a19.08 19.08 0 0 1 -26.31 7.75c-10.07-5.41-13.01-16.82-8.05-26.04zm28.22 15.16.06-.11c3.41-6.37 1.61-14.15-4.9-17.67s-13.86-.7-17.27 5.67l-.06.08c-3.41 6.39-1.62 14.18 4.9 17.66s13.9.73 17.27-5.63z"/><path d="m307.81 644.26-11.1-4 2.07-5.69 28.4 10.29-2.07 5.72-11.09-4-10.64 29.22-6.19-2.23z"/><path d="m332.65 646.38 16.35 3.46c4.16.87 7.19 2.72 8.83 5.22a8.35 8.35 0 0 1 1.16 6.56v.11c-.93 4.38-3.92 6.18-6.93 7 4 2.35 6.41 5.42 5.36 10.37v.11c-1.39 6.51-7.48 8.85-15.59 7.13l-16.86-3.59zm10.35 34.32c4.37.93 7.39-.22 8.08-3.51v-.11c.65-3.07-1.41-5.39-6.45-6.48l-10.15-2.15-2.12 10zm1.4-15.81c4.11.9 7.2-.14 7.91-3.48v-.09c.61-2.88-1.31-5.11-5.42-6l-9.2-2-1.99 9.68z"/><path d="m382.14 654.06 6.06.35 14.19 38.38-6.9-.41-3.25-9.17-17.58-1-4.35 8.76-6.69-.38zm8 23.21-5.52-15.27-7.24 14.51z"/><path d="m409.63 655 6.52-.54 2.55 31.19 19.52-1.65.49 6-26 2.15z"/><path d="m441.35 651.88 6.39-1.33 6.43 30.59 19.14-4 1.23 5.82-25.54 5.33z"/><path d="m493.6 657.76v-.08a18.84 18.84 0 0 1 9.95-25.31 19.41 19.41 0 0 1 15.67-.47l-1.91 6.1c-3.84-1.36-7.52-1.8-11.41-.11-6.54 2.86-8.95 10.26-6.05 17v.08c2.9 6.69 10 10.1 16.53 7.27 4.2-1.83 6.15-4.69 7.89-8.69l5.54 2.23c-1.94 5.22-4.81 9.22-11.23 12.02a18.73 18.73 0 0 1 -24.98-10.04z"/><path d="m522.22 624.09 5.59-3.4 16.19 26.73 16.74-10.15 3.09 5.09-22.32 13.55z"/><path d="m561.33 625-13.47-16.65 5.08-4.11 13.31 16.46c4.36 5.37 9.46 6 14 2.34s5.07-8.6.76-13.93l-13.47-16.68 5.09-4.11 13.26 16.41c7 8.65 5.64 16.93-1.94 23s-15.83 5.64-22.62-2.73z"/><path d="m578.13 582.94 11.3-12.3c2.87-3.13 6-4.81 9-4.95a8.43 8.43 0 0 1 6.24 2.34l.08.08c3.28 3 3.32 6.5 2.5 9.53 4.06-2.21 8-2.75 11.67.65l.08.08c4.9 4.49 3.82 10.94-1.8 17l-11.65 12.71zm22-.7c2.85-3.11 3.53-6.29 1-8.6l-.08-.06c-2.15-2-5.06-1.5-7.91 1.61l-6.35 6.94 7.28 6.69zm12.87 9.22c3-3.29 3.56-6.48 1.09-8.73l-.07-.09c-2.32-2.12-5.38-1.52-8.86 2.26l-7 7.65 7.52 6.91z"/></g></svg>