<svg viewBox="0 0 800 800" xmlns="http://www.w3.org/2000/svg"><path d="m400 771.9c-52.85-21.24-156.22-72.77-233.94-173.71-138.06-179.37-86.5-393.43-51.15-515 55.44-23.81 148.88-55.34 285.09-55.34s229.65 31.53 285.09 55.34c35.34 121.57 86.94 335.63-51.15 515-77.72 100.94-181.09 152.47-233.94 173.71" fill="#60269e"/><path d="m400 27.85c136.21 0 229.65 31.53 285.09 55.34 35.34 121.57 86.94 335.63-51.15 515-77.72 100.94-181.09 152.47-233.94 173.71-52.85-21.24-156.22-72.77-233.94-173.71-138.06-179.37-86.5-393.43-51.15-515 55.44-23.81 148.88-55.34 285.09-55.34m0-3.3c-105.58 0-199.26 18.19-286.4 55.62l-1.43.6-.43 1.5c-19.55 67.24-39.53 147.95-39.59 236.73-.07 107.81 30.65 202.41 91.3 281.19 77.79 101 180.82 152.87 235.32 174.77l1.23.49 1.23-.49c54.49-21.9 157.53-73.73 235.32-174.77 60.64-78.78 91.35-173.38 91.3-281.19-.06-88.78-20.06-169.49-39.6-236.73l-.44-1.5-1.42-.6c-87.13-37.43-180.81-55.62-286.39-55.62" fill="#fff"/><path d="m400 58.1c95.47 0 180.35 16 259.24 49 17.63 61.65 35 134.82 35.07 214.52.06 99-27.95 185.67-83.23 257.72-69 89.89-159.72 137.59-211.08 159-51.36-21.43-142.12-69.13-211.08-159-55.28-72.05-83.29-158.76-83.23-257.72 0-79.7 17.44-152.87 35.07-214.52 78.89-33 163.75-49 259.24-49m0-14.48c-129.6 0-218.51 30.1-271.26 52.84-33.63 116.06-82.74 320.43 48.67 491.68 73.95 96.38 172.3 145.58 222.59 165.86 50.29-20.28 148.64-69.48 222.57-165.86 131.43-171.25 82.31-375.62 48.69-491.68-52.76-22.74-141.66-52.84-271.26-52.84" fill="#fff"/><path d="m446.23 399.43v17.67c0 .14-.27.17-.27.17l-6.54-1.2s-.89 7.67-5.41 11.14c-2.38 1.85-10.42 4.68-13.76 8.94 0 0-.13 0-.14 0-1.41-3.32-9.11-3.78-9.11-3.78l-11 13.38-11.07-13.38s-7.72.46-9.11 3.79a.11.11 0 0 1 -.16 0c-3.35-4.26-11.2-7-13.75-8.93-4.52-3.46-5.4-11.14-5.4-11.14l-6.71 1.23a.21.21 0 0 1 -.1-.19v-17.7c0-2.64 1-4.51 4.81-7 3.61-2.3 9.16-4.51 15.27-6.53 6.28-2.06 18.24-3 26.15-3h.07c7.91 0 19.87.94 26.15 3 6.12 2 11.66 4.23 15.28 6.53 3.84 2.46 4.8 4.33 4.8 7m142.94-37.64a57.24 57.24 0 0 1 -38-2.17c4.74 5.92 7.47 11.87 10.11 18.08 5.37 12.77 19.57 27.82 31.52 24.51 5.17-1.44-10.35 12.74-29.19 12.38a62 62 0 0 1 -35.09-12.1c2.44 6.56 3 12.54 3.71 19.12 1.42 13.79 10.59 32.34 23 32.66 5.39.14-13.61 9.15-31.53 3.3a63.66 63.66 0 0 1 -31.61-23.57c.72 8.09-.41 15-1.82 21.83-2.81 13.56.35 34 12.07 38.06 5.08 1.75-15.74 4.62-31.07-6.35a63.63 63.63 0 0 1 -22.59-30.78 68.72 68.72 0 0 1 -7.42 18.82c-6.67 12.14-9.66 32.62.34 39.91 4.36 3.18-16.91-.2-28.33-15.19-5.19-6.79-10.14-14.25-13.23-22.57-3.09 8.32-8.05 15.78-13.23 22.57-11.42 15-32.68 18.37-28.34 15.19 10-7.29 7-27.77.35-39.91a68.41 68.41 0 0 1 -7.42-18.82 63.69 63.69 0 0 1 -22.59 30.78c-15.33 11-36.16 8.1-31.06 6.35 11.71-4.05 14.86-24.5 12.08-38.06-1.42-6.83-2.57-13.7-1.83-21.83a63.56 63.56 0 0 1 -31.51 23.53c-17.92 5.85-36.91-3.16-31.54-3.3 12.38-.32 21.56-18.87 23-32.66.67-6.58 1.27-12.56 3.71-19.12a62 62 0 0 1 -35.08 12.1c-18.84.36-34.37-13.82-29.19-12.38 11.94 3.31 26.13-11.74 31.51-24.51 2.63-6.21 5.38-12.16 10.12-18.08a57.3 57.3 0 0 1 -38.07 2.17c-18.1-5.19-28.81-23.28-24.27-20.39 10.44 6.67 28.43-3 37.32-13.68 4.48-5.37 9.14-10.66 15.91-15.26a63.51 63.51 0 0 1 -38-10c-15.74-10.38-20.52-30.84-17-26.72 7.95 9.49 28.19 5.1 39.84-2.39a73.5 73.5 0 0 1 18.29-9 63.48 63.48 0 0 1 -32.15-20.49c-12-14.57-10.5-35.54-8.41-30.57 4.81 11.41 25.43 13.21 38.78 9.5a73.18 73.18 0 0 1 20.65-3.14 63.63 63.63 0 0 1 -25-29.38c-7.09-17.46.55-37 1.06-31.68 1.2 12.32 20.6 19.91 34.47 20.34a149.91 149.91 0 0 1 17.97 1.11 63.64 63.64 0 0 1 -13.14-32.91c-1.62-18.79 11.46-35.23 10.38-30-2.51 12.13 13.48 25.27 26.58 29.78 5.78 2 12.14 3.54 18.56 6.6a63.48 63.48 0 0 1 -3-36.18c4.21-18.29 21.6-30.07 18.99-25.37-6.06 10.8 5.22 28.16 16.37 36.39 2.61 1.95 5.26 3.92 7.84 6.14 15.81-25.1 25.16-50.81 27.09-50.81s11.31 25.62 27.14 50.7c2.55-2.18 5.15-4.11 7.71-6 11.14-8.23 22.42-25.59 16.37-36.39-2.61-4.7 14.83 7 18.93 25.44a63.55 63.55 0 0 1 -2.93 36.18c6.41-3.06 12.76-4.61 18.55-6.6 13.11-4.51 29.1-17.65 26.59-29.78-1.09-5.26 12 11.18 10.38 30a63.74 63.74 0 0 1 -13.15 32.81 149.72 149.72 0 0 1 18.07-1c13.85-.43 33.27-8 34.45-20.34.52-5.36 8.16 14.22 1.07 31.68a63.72 63.72 0 0 1 -25 29.38 73.23 73.23 0 0 1 20.64 3.14c13.36 3.71 34 1.91 38.78-9.5 2.08-5 3.57 16-8.4 30.57a63.56 63.56 0 0 1 -32.15 20.49 73 73 0 0 1 18.27 9c11.67 7.49 31.9 11.88 39.86 2.39 3.45-4.12-1.33 16.34-17 26.72a63.57 63.57 0 0 1 -38 10c6.75 4.6 11.41 9.89 15.91 15.26 8.83 10.56 26.83 20.28 37.28 13.61 4.53-2.89-6.16 15.2-24.28 20.39m-291.58-173.64a33.21 33.21 0 0 1 12.79-1.57c7.43-.32 18.43 3.06 28.06 7.35 13.71 6.12 24.47-6.49 15.7-12.56-.1-.08.1-.2.3-.19 20.13.93 36.25 9 45.62 21.85 9.39-12.84 25.54-21 45.76-21.86.14 0 .11.2 0 .3-8.52 6.12 2.19 18.54 15.84 12.46 9.61-4.29 20.6-7.67 28-7.35a33.24 33.24 0 0 1 12.34 1.42c.68.21.78-.2.11-.63-8.47-5.78-20.57-8-32.3-6.12-5.15-1.13-20.49-6.93-12.43-21.55a.24.24 0 0 0 -.28-.37c-12 5.12-28.05 6.88-33.85 14.34-11.84-9.73-21.56-35.6-23.05-37.61-.07-.08-.12-.12-.16-.12s-.08 0-.15.12c-1.51 2.06-11.23 27.9-23.05 37.61-5.76-7.41-21.64-9.2-33.63-14.24-.3-.13-.61.09-.49.31 8 14.62-7.36 20.41-12.46 21.51-12-1.91-24.42.42-32.92 6.5-.46.32-.29.58.25.38m118.23 144.87c2.12-1.3 8.62-.26 10.41-1.33 8.17-4.91 10.65-11.42 11.25-13.51.13-.42 0-.55-.31-.36a17.5 17.5 0 0 1 -9.09 2.74c-2.81-.08-3.94-1.72-10.37-1.72s-7.96 3.18-17.71 3.18c-9.77 0-11.29-3.15-17.72-3.15s-7.55 1.64-10.38 1.72a17.42 17.42 0 0 1 -9-2.66c-.41-.24-.58-.2-.48.14.54 1.93 2.95 8.64 11.3 13.65 1.79 1.07 8.29 0 10.39 1.33 2.26 1.35-.14 5.07 2.14 6.71 6.31 4.5 11.82 9.29 13.33 16a.4.4 0 0 0 .38.32.43.43 0 0 0 .4-.32c1.51-6.73 7-11.52 13.31-16 2.28-1.64-.1-5.36 2.14-6.71m-52.15-37.9a23.35 23.35 0 0 0 -.62 3c-.11.73 0 .84.41.05 2.29-4.61 10.27-20.73 13.07-25.68 5.11-9.05 7.59-14.7 6.15-16.83-16.47 17.12-27.21-8.7-40.54-10.74-9.59-1.46-12.68-.45-21.06-1.72 2.2 6.58 4.12 14.63 14.56 20.17 15.75 8.36 24.2 4.5 31.18 8.07 4.65 2.39-1.14 18-3.15 23.67m100.76-31.74c10.44-5.54 12.12-13.59 14.32-20.17-8.38 1.27-11.23.26-20.8 1.72-13.34 2-24.08 27.86-40.55 10.74-1.45 2.13 1 7.78 6.15 16.83 2.88 5.07 11.17 21.85 13.21 26 .3.6.41.52.31-.06a23.41 23.41 0 0 0 -.66-3.32c-2-5.65-7.81-21.28-3.14-23.67 7-3.57 15.42.29 31.16-8.07m18.15 62c6.41-13.83 27.33-22.59 45.09-23.1.21 0 .21-.22 0-.31-9.52-4.3-17.6-7.51-25.92-6.89 0 0-.07-.1 0-.16 8.1-13.76 11.66-24.75 9.14-47.58a42.79 42.79 0 0 0 7.12-34.2c-.13-.59-.54-.69-.62-.15-1 5.41-3.69 11.32-7.49 16.88a2.7 2.7 0 0 1 -.27.39.12.12 0 0 0 0 0 4.34 4.34 0 1 1 -3.76-7 .14.14 0 0 0 .06-.17c-6.81-12.55-18.77-11-20.88-16.65a4.71 4.71 0 0 1 .62-4.5c-6.94-.36-12.39 4-9.31 9.16 1.83 3.08 8.76 4 16.94 10.13a.19.19 0 0 1 0 .1.07.07 0 0 1 0 .07c-6.08 2.85-.27 9 1.64 13.42 3.08 7.2 8.32 17 4.64 35.22-4.12 20.3-17.74 33.4-29.1 41.8-.24 2.41.3 11.29-15.17 27.71-1.82 1.91 2.35 1 7-1.51h.19a88.22 88.22 0 0 1 2.32 15.46s-.1.11-.15.11c-10-.94-22.17-.69-27 0-2.81.41 2.43 2.67 5.26 3a195.86 195.86 0 0 1 21.08 4.54.7.7 0 0 1 .16.13 25.65 25.65 0 0 1 -1.82 8.14s-.17.06-.23 0c-12-3.48-23.1-6.09-31.9-6.6-2.8-.17 1 2.45 3.51 3.13 5.29 1.44 14.68 6 25.25 10.58 0 0 .08.13.05.17-3.9 6.46-6.71 9.95-10 12.32a.33.33 0 0 1 -.24 0 114.22 114.22 0 0 0 -17.7-8.16c-3.56-1.24-7.52-2.86-11.44-4.47-6.59-3.33-17.68-7.25-19.4-11.64a.29.29 0 0 0 -.2-.08.28.28 0 0 0 -.19.08c-1.64 4.21-11.93 8-18.57 11.23-4.24 1.73-8.57 3.52-12.45 4.88a112.41 112.41 0 0 0 -17.64 8.14.3.3 0 0 1 -.19 0c-3.25-2.37-6-5.86-9.92-12.27a.14.14 0 0 1 0-.14c10.58-4.59 20-9.15 25.27-10.59 2.48-.68 6.33-3.3 3.53-3.13-8.82.51-19.93 3.12-32 6.63a.47.47 0 0 1 -.14 0 25.28 25.28 0 0 1 -1.82-8.17s.07-.11.1-.11a193 193 0 0 1 21.17-4.47c2.83-.34 8.07-2.6 5.25-3-4.84-.7-17-.95-27.05 0 0 0-.12 0-.1-.08a85.43 85.43 0 0 1 2.31-15.46s.09-.08.12-.07c4.7 2.48 8.91 3.45 7.09 1.54-15.46-16.42-14.92-25.3-15.16-27.71-11.37-8.4-25-21.5-29.09-41.8-3.69-18.24 1.55-28 4.62-35.22 1.92-4.44 7.71-10.56 1.65-13.42 0 0-.06 0 0-.09s.06-.08.08-.11c8.18-6.09 15.08-7 16.9-10.1 3.07-5.2-2.36-9.52-9.3-9.16a4.76 4.76 0 0 1 .62 4.5c-2.11 5.69-14.1 4.09-20.89 16.68-.06.11 0 .14.05.15a4.33 4.33 0 1 1 -4.23 6.36c-3.78-5.59-6.49-11.52-7.39-16.93-.08-.47-.45-.27-.56.28a42.82 42.82 0 0 0 7.15 34.39c-2.51 22.78 1 33.75 9.14 47.5 0 .06 0 .16-.06.16-8.36-.62-16.49 2.63-26.1 7-.14.07-.13.21 0 .21 17.8.45 38.85 9.22 45.28 23.11a.1.1 0 0 1 -.1.13c-14.31-4.73-28.58 4.31-41.32 14.64-.14.11-.07.24.12.19 16.62-5 38.4-2.76 48.79 8.86a.09.09 0 0 1 -.07.14c-15.05-.2-23.41 12.57-32.51 27.47-.12.21-.07.48.09.4 9.91-5 23.89-8.35 34.21-7.42 0 0 .1.08.07.13-13.52 25.13 6.31 47.89 32.76 66.19 20.82 12.4 33.75 22.4 40.56 28.6 6.13-6.51 19.33-16.23 40.26-28.47 26.54-18.32 46.48-41.12 32.94-66.31a.18.18 0 0 1 .1-.15c10.32-.92 24.3 2.42 34.2 7.46.16.07.21-.19.08-.37-9.11-14.88-17.48-27.49-32.56-27.28 0 0 0-.11 0-.18 10.4-11.58 32.15-14 48.73-9.05.2.06.19-.16 0-.33-12.69-10.26-26.91-19.22-41.15-14.54-.07 0-.16 0-.13-.11" fill="#f0d283"/><g fill="#fff"><path d="m382.77 656.1h-8.82v-50.1h9.16v50.1z"/><path d="m415.47 656.1h-8.65v-40.99h-14.32v-9.11h36.31l4.16 9.11h-16.82v40.99z"/><path d="m463.29 656.1h-8.66v-21.01l-16.17-29.09h10.39l10.45 19.59 10.45-19.59h10.38l-16.18 29.09v21.01z"/><path d="m244 592.29a25.87 25.87 0 1 1 26.06-25.81 26 26 0 0 1 -26.06 25.81m0-42.8a16.93 16.93 0 1 0 16.75 16.92 16.85 16.85 0 0 0 -16.75-16.92"/><path d="m556.07 592.29a25.87 25.87 0 1 1 26-25.81 26 26 0 0 1 -26 25.81m0-42.8a16.93 16.93 0 1 0 16.75 16.92 16.85 16.85 0 0 0 -16.75-16.92"/><path d="m333.9 591.29v-49.92h9.16v41.32h24.69l-4.27 8.6z"/><path d="m468.45 591.59-32.22-30.76v30.64l-9-18.88v-32.9l32.06 29.99v-28.31h9.16z"/><path d="m494.24 591.47h-14.51v-50.1h14.64c7.38 0 12.47 1 18.35 6 5.44 4.68 8.33 11.28 8.33 19.06a24.31 24.31 0 0 1 -8.18 18.67c-5.92 5.26-10.88 6.32-18.63 6.32m-5.34-8.78h5.66c5.54 0 9-.61 13-4.38 3.08-2.87 4.48-7.29 4.48-11.9 0-4.81-1.52-9.39-4.7-12.18-4-3.54-7.41-4.09-12.81-4.09h-5.63z"/><path d="m312.88 591.43-20.88-25.23h3.88a32.53 32.53 0 0 0 6.48-.37c4.81-1.36 5.64-5.28 5.64-8a7 7 0 0 0 -4.11-6.28c-2.08-1.09-4.78-1.11-8-1.11h-5.44v40.95h-9.28v-50.02h15.22c5.61 0 9.21.55 12 1.89a16 16 0 0 1 9.08 14.65 15.39 15.39 0 0 1 -9.01 14.09c-.1 0 .16.07.16.07l16.27 19.38z"/><path d="m424.72 591.29h-9.66l-6.22-13.64h-12.51l3.95-8.59h4.63l-4.68-9.71-15.05 31.94h-9.61l24.66-51.56z"/><path d="m362.66 639.86a16.94 16.94 0 1 1 0-17.69v-12.77a25.87 25.87 0 1 0 0 43.23z"/></g></svg>