<svg viewBox="0 0 800 800" xmlns="http://www.w3.org/2000/svg"><path d="m465.41 556.56a65.74 65.74 0 0 0 -12-37l-26.67.32-7.94-25.49a66.61 66.61 0 0 0 -38.88 0l-7.92 25.51-26.68-.32a65.81 65.81 0 0 0 -12 37l21.74 15.42-8.55 25.26a66.22 66.22 0 0 0 31.49 22.84l21.4-15.94 21.4 15.94a66.25 66.25 0 0 0 31.45-22.86l-8.6-25.24zm-14.89-33.4a61.38 61.38 0 0 1 10.48 32.2l-15.85 11.22 7.48-26.3-21.5-16.88zm-68.08-24.88a62.05 62.05 0 0 1 33.83 0l5.78 18.55-22.7-15.23-22.7 15.23zm-28.85 68.3-15.85-11.22a61.39 61.39 0 0 1 10.45-32.2l19.43.24-21.5 16.88zm24.59 48.92a61.81 61.81 0 0 1 -27.37-19.91l6.23-18.4 9.41 25.67 27.32 1zm21.17-15.5-3.45-16.34-20.31-14.76-16.59 1.78 14.46-8.32 7.76-23.86-6.8-15.24 12.38 11.18h25.1l12.39-11.18-6.8 15.24 7.75 23.86 14.46 8.32-16.59-1.76-20.31 14.76zm48.54-4.43a61.75 61.75 0 0 1 -27.37 19.91l-15.58-11.62 27.31-1 9.42-25.67z" fill="#fff"/><path d="m380.06 567.17 13.83-18.46 20.21-7.5h-25.95z" fill="#fff"/><g fill="#daa900"><path d="m102.59 0v305.23c0 342.58 296.76 494.77 296.76 494.77s296.76-152.19 296.76-494.77v-305.23zm582.31 305.23c0 306.88-246.67 459.35-285.55 481.53-38.88-22.18-285.53-174.65-285.53-481.53v-294h571.08z"/><path d="m399.35 760.26c59-35.62 263.1-177.86 263.1-455v-271.59h-526.18v271.56c0 277.17 204.09 419.41 263.08 455.03zm-251.87-715.37h503.75v260.34c0 262.88-188 401.79-251.88 441.78-63.87-40-251.87-178.9-251.87-441.78z"/><path d="m521.55 201.13a193.07 193.07 0 0 1 58.6 110.52 198.56 198.56 0 0 0 -56.25-115.54z"/><path d="m325 524.09a193.57 193.57 0 0 1 -53.14-334.19l-6.11-13.12a199.11 199.11 0 0 0 58.4 349.22c.27-.67.56-1.27.85-1.91z"/><path d="m457.87 340.72q-19.78-17.79-43.66-20.83s71.24-5.46 71.24-46.84c0-19.9-24.89-46.81-102.45-46.81h-91.12s12.12 6.76 12.12 12.53v88.23c11.28 5.52 26.68 10.62 42 16.83v-17.08h25c13.27 0 20.86 3 27.78 8.79l72.67 67.66c10.17 8.71 30.35 19.31 47.91 19.31 22.56 0 31.57-7.53 31.57-7.53s-14.55-.91-25.61-10.38zm-81.6-25h-30.27v-78.04h30.29c38.1 0 63.54 13.06 63.54 39-.02 21.12-26.43 39.06-63.56 39.06z"/><path d="m304 373.74v29.35c0 6.75-10.85 12.48-10.85 12.48h64.31s-11.46-5.73-11.46-12.48v-9.94c-9.93-7.06-25.73-12.83-42-19.41z"/><path d="m259.4 132c4.8 11.36 6.84 15.34 6.84 15.34l-3.87 14.18 15 6.6 9.31 20.07s43.85-19.76 112.63-19.76 112.69 19.71 112.69 19.71l9.31-20.07 15-6.6-3.87-14.18s2-4 6.83-15.34 28.1-23.6 28.1-23.6c-19.67-20.23-36 20.23-56.75.57-7.16 10.7 7.86 23.6 7.86 23.6a23.73 23.73 0 0 1 -17.56 13.48c-15.79 2.66-32.28 1.67-35.46-27.41 0 0-10.71 29.4-35.45 23-16.12-4.18-22.56-17-24.83-23.53 16-1.94 28.25-11.73 28.25-23.5h-23.34c-.9-12-10.74-21.91-10.74-21.91s-9.84 9.89-10.74 21.91h-23.34c0 11.77 12.21 21.56 28.25 23.5-2.28 6.5-8.72 19.35-24.83 23.53-24.74 6.44-35.44-23-35.44-23-3.19 29.08-19.68 30.07-35.46 27.41a23.7 23.7 0 0 1 -17.58-13.43s15-12.9 7.85-23.6c-20.77 19.66-37.07-20.8-56.75-.57 0-.05 23.31 12.2 28.09 23.6z"/><path d="m511 213.76a7.81 7.81 0 0 0 .82-3.42c0-15.78-50.37-28.56-112.47-28.56s-112.47 12.78-112.47 28.56a7.94 7.94 0 0 0 .81 3.42c23.94-12.67 65-21 111.66-21s87.73 8.33 111.65 21z"/><path d="m346.12 540.28 21.5-16.88-19.43-.24a61.39 61.39 0 0 0 -10.45 32.2l15.85 11.22z"/><path d="m416.27 498.28a62.05 62.05 0 0 0 -33.83 0l-5.79 18.55 22.7-15.23 22.7 15.23z"/><path d="m431.09 523.4 21.5 16.88-7.48 26.3 15.89-11.22a61.38 61.38 0 0 0 -10.44-32.2z"/><path d="m357 577.19-6.23 18.4a61.81 61.81 0 0 0 27.37 19.91l15.59-11.62-27.32-1z"/><path d="m432.25 602.86-27.31 1 15.58 11.62a61.75 61.75 0 0 0 27.37-19.91l-6.22-18.4z"/></g><path d="m113.82 11.21v294c0 306.88 246.65 459.35 285.53 481.53 38.88-22.16 285.55-174.63 285.55-481.51v-294zm548.63 294c0 277.17-204.11 419.41-263.1 455-59-35.62-263.08-177.86-263.08-455v-271.54h526.18z" fill="#a32035"/><path d="m602.22 340.57a215 215 0 0 1 -124.31 195.11 80.29 80.29 0 0 1 2.45 12.57 218.85 218.85 0 0 0 53-370l-3.26 1.41a214.74 214.74 0 0 1 72.12 160.91z" fill="#a32035"/><path d="m318.07 551.21c.18-2.46.48-4.88.88-7.28a215 215 0 0 1 -118.14-99.52 218.51 218.51 0 0 0 117.26 106.8z" fill="#a32035"/><path d="m406.08 284.65v19.42c17-6.06 26.8-17 26.8-27.36a28.74 28.74 0 0 0 -.3-4h-36.58s10.08 2.56 10.08 11.94z" fill="#a32035"/><path d="m406.08 351.8v89.48c0 9.38-10.06 12-10.06 12h118.87c47.65 0 31.28-28 31.28-28s-9.31 16.28-37.53 16.28h-67.15v-56.8z" fill="#a32035"/><path d="m370.21 309.74s12.26-6.09 12.26-17.22c0-10.81-13.5-16.67-29.56-19.61v13.55c11.16 5.1 16.59 13.4 17.3 23.28z" fill="#a32035"/><path d="m247.12 425.21c0 16 30.38 30.36 73.14 30.36 53.71 0 76.06-27.83 76.06-54.13 0-56.36-116.76-55.21-116.76-92.29 0-9.68 7.34-17.58 17.51-22.53v-13.31c-24 5.61-47 19.53-47 44.07 0 52.23 113.16 50.5 113.16 91.62 0 21.15-14.78 35.57-43 35.57-32 0-59.09-16.65-52.38-41.54.03-.03-20.73 4.82-20.73 22.18z" fill="#a32035"/><path d="m333.86 563.79a36.41 36.41 0 0 0 7.88 26.13l2.47-7.61s-8.94-8.09-10.35-18.52z" fill="#a32035"/><path d="m385 621.79a36.51 36.51 0 0 0 27.28.58l-6.46-4.7s-10.45 6-20.82 4.12z" fill="#a32035"/><path d="m458.51 570s2.49 11.79-2.51 21.05a36.44 36.44 0 0 0 9-25.77z" fill="#a32035"/><path d="m427 497.56 2.47 7.58s12 1.31 19.27 8.92a36.4 36.4 0 0 0 -21.74-16.5z" fill="#a32035"/><path d="m373.21 497.21a36.44 36.44 0 0 0 -22.41 15.57h8s4.93-11.01 14.41-15.57z" fill="#a32035"/><path d="m417.49 538.5 6.8-15.24-12.39 11.18h-25.1l-12.38-11.18 6.8 15.24-7.76 23.86-14.46 8.32 16.59-1.76 20.31 14.76 3.45 16.32 3.45-16.34 20.31-14.76 16.59 1.76-14.46-8.32zm-23.6 10.21-13.83 18.46 8.09-26h26z" fill="#a32035"/><path d="m147.48 44.89v260.34c0 262.88 188 401.79 251.87 441.78 63.87-40 251.88-178.9 251.88-441.78v-260.34zm194.26 545a36.41 36.41 0 0 1 -7.88-26.13c1.41 10.43 10.35 18.52 10.35 18.52zm43.26 31.9c10.35 1.88 20.82-4.12 20.82-4.12l6.46 4.7a36.51 36.51 0 0 1 -27.28-.58zm73.51-51.79 6.46-4.69a36.44 36.44 0 0 1 -9 25.77c5.03-9.29 2.54-21.08 2.54-21.08zm-14.86 2 8.55 25.26a66.25 66.25 0 0 1 -31.45 22.86l-21.4-15.94-21.35 15.92a66.22 66.22 0 0 1 -31.44-22.86l8.5-25.24-21.77-15.42a65.81 65.81 0 0 1 12-37l26.68.32 7.93-25.49a66.61 66.61 0 0 1 38.88 0l7.94 25.49 26.67-.32a65.74 65.74 0 0 1 12 37zm-123.39-127.43c28.23 0 43-14.42 43-35.57 0-41.12-113.16-39.39-113.16-91.62 0-24.54 22.95-38.46 47-44.07v13.31c-10.17 4.95-17.51 12.85-17.51 22.53 0 37.08 116.76 35.93 116.76 92.29 0 26.3-22.35 54.13-76.06 54.13-42.76 0-73.14-14.41-73.14-30.36 0-17.36 20.76-22.18 20.76-22.18-6.74 24.89 20.37 41.54 52.35 41.54zm37.21-29h-64.31s10.84-5.73 10.84-12.48v-29.35c16.26 6.58 32.06 12.35 42 19.41v9.94c0 6.75 11.47 12.48 11.47 12.48zm153.53-201.81c-23.92-12.67-65-21-111.65-21s-87.72 8.36-111.66 21a7.94 7.94 0 0 1 -.81-3.42c0-15.78 50.37-28.56 112.47-28.56s112.47 12.78 112.47 28.56a7.81 7.81 0 0 1 -.82 3.42zm-62.31 300.3c-7.26-7.61-19.27-8.92-19.27-8.92l-2.42-7.58a36.4 36.4 0 0 1 21.69 16.5zm-75.48-16.85c-9.48 4.56-14.43 15.57-14.43 15.57h-8a36.44 36.44 0 0 1 22.43-15.57zm22.81-44s10.06-2.58 10.06-12v-89.41l35.41 33v56.78h67.15c28.22 0 37.53-16.28 37.53-16.28s16.37 28-31.28 28zm123.33-30.73c-17.56 0-37.74-10.6-47.91-19.31l-72.67-67.66c-6.92-5.81-14.51-8.83-27.78-8.79h-24.99v17.12c-15.29-6.21-30.69-11.31-42-16.83v-88.24c0-5.76-12.13-12.53-12.13-12.53h91.13c77.56 0 102.45 26.91 102.45 46.81 0 41.38-71.24 46.84-71.24 46.84q23.88 3.06 43.66 20.83l67.44 63.88c11.06 9.47 25.61 10.38 25.61 10.38s-9.01 7.53-31.57 7.53zm2.2-221.38 2.35-5a198.56 198.56 0 0 1 56.25 115.54 193.07 193.07 0 0 0 -58.6-110.51zm-.26-33.06-9.29 20.1s-43.85-19.76-112.63-19.76-112.63 19.76-112.63 19.76l-9.31-20.07-15-6.6 3.87-14.18s-2-4-6.84-15.34-28.09-23.6-28.09-23.6c19.68-20.23 36 20.23 56.75.57 7.17 10.7-7.85 23.6-7.85 23.6a23.7 23.7 0 0 0 17.52 13.48c15.78 2.66 32.27 1.67 35.46-27.41 0 0 10.7 29.4 35.44 23 16.11-4.18 22.55-17 24.83-23.53-16-1.94-28.25-11.73-28.25-23.5h23.34c.9-12 10.74-21.91 10.74-21.91s9.84 9.89 10.74 21.91h23.34c0 11.77-12.21 21.56-28.25 23.5 2.27 6.5 8.71 19.35 24.83 23.53 24.74 6.44 35.45-23 35.45-23 3.18 29.08 19.67 30.07 35.46 27.41a23.73 23.73 0 0 0 17.58-13.43s-15-12.9-7.86-23.6c20.77 19.66 37.08-20.8 56.75-.57 0 0-23.31 12.25-28.1 23.6s-6.83 15.34-6.83 15.34l3.87 14.18zm-255.54 8.71 6.11 13.12a193.57 193.57 0 0 0 53.14 334.22c-.27.64-.56 1.24-.83 1.86a199.11 199.11 0 0 1 -58.4-349.17zm-64.94 267.66a215 215 0 0 0 118.19 99.52c-.4 2.4-.7 4.82-.88 7.28a218.51 218.51 0 0 1 -117.31-106.8zm279.55 103.84a80.29 80.29 0 0 0 -2.45-12.57 215.36 215.36 0 0 0 52.18-356l3.26-1.41a218.85 218.85 0 0 1 -53 370z" fill="#001e61"/><path d="m439.81 276.71c0-26-25.44-39-63.54-39h-30.27v78.06h30.29c37.11-.03 63.52-17.97 63.52-39.06zm-69.6 33c-.71-9.88-6.14-18.18-17.3-23.28v-13.52c16.06 2.94 29.56 8.8 29.56 19.61 0 11.13-12.26 17.22-12.26 17.22zm35.87-5.67v-19.39c0-9.38-10.06-11.95-10.06-11.95h36.56a28.74 28.74 0 0 1 .3 4c0 10.39-9.79 21.3-26.8 27.37z" fill="#001e61"/></svg>