<svg viewBox="0 0 800 800" xmlns="http://www.w3.org/2000/svg"><path d="m692.89 53.54c-1.37-.42-33.89-10.54-86.14-20.61-30.57-5.93-61.75-10.63-92.68-14.02a1044.89 1044.89 0 0 0 -113.74-6.44h-.62a1045.49 1045.49 0 0 0 -113.71 6.44c-30.91 3.39-62.09 8.11-92.68 14-52.27 10.09-84.82 20.21-86.16 20.62l-16 5v351.09a440.48 440.48 0 0 0 5.4 51.14 405.72 405.72 0 0 0 10.7 46.91 382.07 382.07 0 0 0 34.4 81.33c24.56 43.35 57.81 82.23 98.83 115.58a471.31 471.31 0 0 0 52.39 36.89 481.84 481.84 0 0 0 46.74 25c25.48 11.83 47.87 19.33 56.82 20.6l3.6.45 3.55-.45c8.94-1.27 31.36-8.77 56.83-20.6a478.75 478.75 0 0 0 46.72-25 469.41 469.41 0 0 0 52.41-36.89c41-33.35 74.25-72.23 98.82-115.58a383.54 383.54 0 0 0 34.34-81.33 407.4 407.4 0 0 0 10.68-46.91 439.5 439.5 0 0 0 5.4-51.19v-351.07z"/><path d="m176.85 564.7c21.51 38.18 50.69 72.53 86.72 102.11 64.76 53.2 127.93 72.29 135.21 73.3l1.18.21 1.16-.21c7.3-1 70.47-20.08 135.24-73.3 36-29.58 65.21-63.93 86.72-102.11 26.57-47.14 41.41-100.17 44.15-157.62.17-3.82 0-315.35 0-315.35l-4.15-1.3c-1.18-.36-119.34-36.74-262.84-36.84h-.57c-143.48.1-261.67 36.48-262.84 36.84l-4.14 1.3s-.17 311.53 0 315.36c2.73 57.44 17.58 110.47 44.16 157.61zm-38.25-468.64s116.84-36.48 261.07-36.57h.57c144.24.09 261.09 36.57 261.09 36.57 0 6.6.29 304.38 0 310.75-8.27 174.94-127.59 265.19-202.33 303.77l-63.42-114.93c-2.36-.08-4.68-.21-7-.42a127.95 127.95 0 0 1 -102.58-185.76c.46-.91.94-1.8 1.42-2.7.13-.23 1.4-2.53 2-3.45l-81.55-147.64h-6.73l81.51 147.64a133.09 133.09 0 0 0 -16.59 64.45c0 71.16 55.8 129.46 125.92 133.6l61.77 111.9c-28.09 14-48.93 20.38-53.45 21h-.34-.35c-16.47-2.35-249.34-80.58-261-327.47-.33-6.36-.01-304.14-.01-310.74z" fill="#003da6"/><path d="m582.35 255.68h-62.87l30.21 59.53z" fill="#003da6"/><path d="m256.16 255.68 81.33 147.38a89.78 89.78 0 0 1 50.59-24.41l-66.4-123z" fill="#003da6"/><path d="m483.76 434.98.11.18 32.91-59.98-62.18-119.5h-66.04l85.63 161.28z" fill="#003da6"/><path d="m549.68 315.22-32.9 60h113.22c0-13.67 0-33 0-60z" fill="#003da6"/><path d="m483.87 435.2a90.42 90.42 0 0 1 1.94 60h127.87a320.66 320.66 0 0 0 13.67-60z" fill="#003da6"/><path d="m454.05 615.14h84a317 317 0 0 0 47.37-60h-164.42z" fill="#003da6"/><g fill="#fff"><path d="m255.54 684.9c68 55.23 136.76 74.66 144.17 75.72h.29.25c7.71-1.16 76.4-20.61 144.17-75.7 60.34-49.07 133.7-137 140.35-277.37.14-2.79 0-331.93 0-331.93-10-3-134.43-39.64-284.47-39.74h-.61c-150 .1-274.44 36.71-284.46 39.74 0 0-.1 329.91 0 331.93 6.59 140.34 79.94 228.28 140.31 277.35zm-122.85-593.17 4.14-1.3c1.18-.36 119.36-36.74 262.84-36.84h.57c143.5.1 261.66 36.48 262.84 36.84l4.15 1.3s.17 311.53 0 315.35c-2.74 57.45-17.58 110.48-44.15 157.62-21.51 38.18-50.71 72.53-86.72 102.11a423.27 423.27 0 0 1 -42.75 30.84l-78.21-141.55c-1 .18-2 .31-3 .48a93.2 93.2 0 0 1 -12.49.88 89.65 89.65 0 0 1 -68.19-147.88c.54-.63 1.08-1.29 1.65-1.93l-83.92-151.97h-19.37l83 150.31a106.51 106.51 0 0 0 86.86 168.41q3.09 0 6.1-.17l73 132.19c-40.83 23.55-72.9 33-78 33.69l-1.16.21-1.18-.21c-7.28-1-70.45-20.1-135.21-73.3-36-29.58-65.21-63.93-86.72-102.11-26.58-47.14-41.43-100.17-44.16-157.61-.09-3.83.08-315.36.08-315.36z"/><path d="m355.78 222h7v13.36a6 6 0 0 1 -1.45 4.47c-1.51 1.52-3.56 1.61-5.53 1.65h-4v-4.59h1.57c1.49-.07 2.36-.12 2.43-2z"/><path d="m384.86 222.45a9.71 9.71 0 0 1 6.06 9.24 10.2 10.2 0 0 1 -1.43 5.3 9 9 0 0 1 -2.3 2.62c-2.65 2.11-5.79 2.59-9.32 2.59-6.8 0-9.58-2.39-11-4.36a9.23 9.23 0 0 1 -1.87-5.84 10.52 10.52 0 0 1 1.82-6.1c2.73-3.87 7.35-4.5 10.81-4.56a19.28 19.28 0 0 1 7.25 1.14m-12.69 9.31c0 3 1.63 6.12 5.85 6.12a6 6 0 0 0 2.82-.56c2.15-1.07 2.9-3.61 2.9-5.56 0-2.14-.95-6.07-5.72-6.1-4.39-.07-5.85 3.41-5.85 6.1"/><path d="m399.87 227.06a1.16 1.16 0 0 0 .22.69c.47.6 2.43 1 3.5 1.27 1.33.28 2.69.55 4 .86a12.31 12.31 0 0 1 2.52.7 4.75 4.75 0 0 1 3.42 4.64 6.12 6.12 0 0 1 -1 3.34c-1.63 2.46-4.91 3.54-10.15 3.54-2 0-5.86-.17-8.15-2.2a6.33 6.33 0 0 1 -2-4.18l6.88-.19c.23 1.27 1.54 2.24 4.31 2.24a5.13 5.13 0 0 0 2.41-.48 1.8 1.8 0 0 0 1-1.49 1.61 1.61 0 0 0 -1.28-1.49c-.86-.27-5.24-1.06-6.21-1.27a21.94 21.94 0 0 1 -2.25-.6 5.23 5.23 0 0 1 -3.85-4.93 5.42 5.42 0 0 1 1.56-3.81c2.19-2.28 6.11-2.49 8.26-2.49a20.7 20.7 0 0 1 5.92.75 5.72 5.72 0 0 1 4.31 4.94l-6.83.38c-.17-.65-.5-1.79-3.42-1.79-.93 0-3.07.12-3.07 1.57"/><path d="m436.12 222.03v4.39h-13.55v3.17h12.53v4.42h-12.55v3.09h13.85v4.41h-20.81v-19.48z"/><path d="m278.75 227.06a1.1 1.1 0 0 0 .23.69c.46.6 2.43 1 3.5 1.27 1.33.28 2.67.55 4 .86a12 12 0 0 1 2.52.7 4.75 4.75 0 0 1 3.42 4.64 6 6 0 0 1 -1 3.34c-1.62 2.46-4.92 3.54-10.17 3.54-1.94 0-5.84-.17-8.13-2.2a6.37 6.37 0 0 1 -2-4.18l6.87-.19c.26 1.27 1.55 2.24 4.3 2.24a5.14 5.14 0 0 0 2.42-.48 1.77 1.77 0 0 0 1-1.49 1.63 1.63 0 0 0 -1.3-1.49c-.86-.27-5.25-1.06-6.21-1.27a21.58 21.58 0 0 1 -2.23-.6c-.73-.26-3.87-1.38-3.87-4.93a5.37 5.37 0 0 1 1.59-3.81c2.16-2.28 6.08-2.49 8.25-2.49a20.86 20.86 0 0 1 5.92.75 5.75 5.75 0 0 1 4.31 4.94l-6.84.38c-.17-.65-.51-1.79-3.43-1.79-.92 0-3.07.12-3.07 1.57"/><path d="m332.59 222.03.15 10.65-9.44-10.65h-5.79v16.17l1.45 3.31h5.46l-.11-10.74 9.36 10.74h5.79v-19.48z"/><path d="m308.53 222.03h-7.94l-8.39 19.48h7.63l4.75-14.08 2.31 6.61h-2.77l-1.44 4.31h5.67l1.04 3.16h7.6z"/><path d="m169.9 228.79h87.51v5.87h-87.51z"/><path d="m428.3 126.59h21v80.48h-16.42l-4.58-14zm69.22 0h-24.52l-23.41 38.69 25.29 41.79h24.52l-25.3-41.79z"/><path d="m405.27 207.06-3.37-10.27h-23.53l5.52-16.78h12.49l-9.29-28.55-18.19 55.6h-21.34l26.47-80.42h26.24l26.47 80.42z"/><path d="m313.55 191.14c-4.38 0-8.14-1.39-10.55-3.91-3.93-3.83-3.93-8.74-3.93-12.34v-48.26h-21.3v45.94c.24 9 .48 18.36 8.65 26.31 7.29 7 15.58 10.1 26.87 10.1 12.83 0 19.84-4 26.3-10.13 9.91-9.43 9.91-22.32 9.91-32.48v-39.74h-21.25v48.26c0 3.6 0 8.54-4.07 12.48a15.48 15.48 0 0 1 -10.63 3.77"/><path d="m259.57 189.91a52.31 52.31 0 0 0 8.61-16.3 55.56 55.56 0 0 0 2.62-16.82 50.84 50.84 0 0 0 -4-20.23 52.32 52.32 0 0 0 -11-16.58 54.17 54.17 0 0 0 -16.53-11.19 49.82 49.82 0 0 0 -20.27-4.17 50.78 50.78 0 0 0 -20.32 4.1 53 53 0 0 0 -16.58 11.2 52.41 52.41 0 0 0 -11 16.64 53.63 53.63 0 0 0 0 40.5 51.53 51.53 0 0 0 11 16.49 53.53 53.53 0 0 0 16.58 11.13 50.44 50.44 0 0 0 20.32 4.1 53.25 53.25 0 0 0 11.65-1.27 56.33 56.33 0 0 0 11.65-4.08l.18-.14.12.21 2.21 3.5h25.59l-10.65-16.77zm-71.2-33.21a30.63 30.63 0 0 1 30.63-30.86 30.2 30.2 0 0 1 17.16 5.28 4.51 4.51 0 0 1 .55.39l.64.46a31.21 31.21 0 0 1 8.53 39.49h-23.88l8.59 13.3.21.34-.19.17-.86.34-.31.11-.92.32-.54.18c-.25.08-.52.14-.79.22l-.66.18-.77.18-.7.16c-.29.06-.58.12-.88.16s-.39.06-.6.09a9 9 0 0 1 -1.16.15h-.33c-1 .1-2.09.16-3.13.16-.54 0-1.06 0-1.59 0a30.59 30.59 0 0 1 -29-30.82z"/><path d="m599.48 156.19c-6.49-1.26-10.75-2.57-10.75-7 0-3.72 3.3-5.87 9.08-5.87 2 0 8.81.22 14.1 3a16 16 0 0 1 5.49 5l13.67-12.49a34 34 0 0 0 -10.28-8.42 47.14 47.14 0 0 0 -22.13-5c-15 0-25.94 5.86-30.16 16.05a26.15 26.15 0 0 0 -2 10c0 15.42 11.24 20.51 19.71 22.88 1.06.26 3.45.77 6.21 1.35 5.1 1.07 11.45 2.4 13.2 3.08 4 1.4 4.55 4.13 4.55 5.64 0 6.18-9 6.67-11.83 6.67a31.94 31.94 0 0 1 -10.65-1.85 18.75 18.75 0 0 1 -7.17-4.24 29.23 29.23 0 0 1 -2.65-3.06c-.07-.09-.22-.33-.46-.68s-.54-.91-.54-.91l-15 9.91h-36.93v-16.6h28.68v-16.75h-28.68v-13.46h34.41v-16.81h-55.35v80.44h58.67v-11.94a36.59 36.59 0 0 0 17.77 11.79 56.46 56.46 0 0 0 17.08 2.36c12.46 0 21.87-3.41 27.95-10.12a25.46 25.46 0 0 0 6.45-17.56c-.04-19.43-16.51-22.47-32.44-25.41z"/></g><path d="m541.06 228.79h89v5.87h-89z" fill="#ce0e2d"/><path d="m449.54 224.89a10.72 10.72 0 0 0 6.15-2.54h4.87v18.81h-6.48v-12.29h-4.54z" fill="#ce0e2d"/><path d="m473.37 234.82c-4.59 0-8.42-1.82-8.42-6.06a6 6 0 0 1 3.78-5.52 20.44 20.44 0 0 1 7.14-1.21c6.52 0 10.74 2.69 10.74 9.25 0 2.09-.38 5.77-3.61 8.22-2.44 1.82-5.45 2.08-8.2 2.08a17.19 17.19 0 0 1 -5.37-.74c-3-.93-4-2.57-4.49-4.42l7.25-.17a3.11 3.11 0 0 0 2.8 1.22 4.89 4.89 0 0 0 3.18-1 5 5 0 0 0 1.67-3.86c-1 .83-2.47 2.18-6.47 2.18m-1.76-6.37c0 2.28 3.05 2.31 3.84 2.31 2.75 0 4.17-.75 4.17-2.27 0-1.83-1.55-2.44-4.35-2.35-1.47.05-3.66.32-3.66 2.31" fill="#ce0e2d"/><path d="m518.61 222.84h7.47v10.9h3.26v4.38h-3.34v3.39h-6.21v-3.39h-12.23v-4.12zm1.23 4.94-5.9 6h5.9z" fill="#ce0e2d"/><path d="m509.36 226.42c-11.84 7.86-11.45 15.09-11.45 15.09h-7.4s.49-9.8 12.43-15.09h-14.21v-4.42h20.63z" fill="#ce0e2d"/><path d="m331.75 481.77c-6.65-12.82-8.93-26.67-9.51-30.95a30 30 0 0 1 -5.48.61 86.68 86.68 0 0 0 -1.57 16.49 84.36 84.36 0 0 0 14 46.65l3.11-1.4c-4.08-15.55-2-26.56-.55-31.4z" fill="#a6a8ab"/><path d="m333.5 515.93-2.93.65a84.62 84.62 0 0 0 34.29 28.5c-.6-1-2.08-3.89-4.19-10.3-4.8-2.11-19.99-9.32-27.17-18.85z" fill="#333"/><path d="m398.9 383.14-3.08 14.23a86.61 86.61 0 0 0 -22.55 15.79 262.45 262.45 0 0 0 -30.64 2.77 35.33 35.33 0 0 1 -1.52-9 84.28 84.28 0 0 1 57.79-23.79zm2.08 0 3.09 14.23a86.23 86.23 0 0 1 22.54 15.79 262.93 262.93 0 0 1 30.66 2.77 35.8 35.8 0 0 0 1.52-9 84.29 84.29 0 0 0 -57.79-23.79z" fill="#fff"/><path d="m436.76 479.82c-4 11.68-14.28 29.54-16.68 33.65a108.43 108.43 0 0 1 -21 2 87.56 87.56 0 0 1 -19.29-2c-2.38-4.1-12.71-22-16.67-33.65 3.79-5.7 13.34-19.33 23.78-29.28h26.1c10.42 9.95 20 23.58 23.76 29.28zm-66.95-59.19a166.69 166.69 0 0 0 -27.44-2.63c-9.92 12.39-16.75 27.49-18.41 31.35 2.25 14.25 9 27.05 10.3 29.39 4.62.42 9.41.62 14.26.62 6.58 0 11.37-.37 13.14-.53a275.14 275.14 0 0 1 16.62-35zm87.79-2.63a167.62 167.62 0 0 0 -27.53 2.61l-8.46 23.17a274.08 274.08 0 0 1 16.62 35.05c1.77.16 6.56.53 13.14.53 4.87 0 9.66-.2 14.28-.62 1.35-2.36 8.09-15.17 10.32-29.46-1.68-3.92-8.4-18.89-18.37-31.28z" fill="#c8c8c8"/><path d="m332.28 513.17-3.11 1.4a84.36 84.36 0 0 1 -14-46.65 86.68 86.68 0 0 1 1.57-16.49 30 30 0 0 0 5.48-.61c.58 4.28 2.86 18.13 9.51 30.95-1.43 4.84-3.51 15.85.55 31.4zm135.36 0 3.1 1.4a85.06 85.06 0 0 0 12.38-63.14 30.15 30.15 0 0 1 -5.47-.61c-.57 4.28-2.86 18.13-9.48 30.95 1.44 4.84 3.51 15.85-.53 31.4z" fill="#98989a"/><path d="m360.67 534.78c2.11 6.41 3.59 9.29 4.19 10.3a84.62 84.62 0 0 1 -34.29-28.5l2.93-.65c7.18 9.53 22.37 16.74 27.17 18.85zm78.59 0c-2.11 6.41-3.59 9.29-4.2 10.3a84.68 84.68 0 0 0 34.31-28.5l-2.94-.65c-7.17 9.53-22.37 16.74-27.17 18.85z" fill="#54565a"/><path d="m435 533.19c-1.21-1.19-3.07-3.07-5.06-5.19a87.48 87.48 0 0 1 -9.22-11.53 87.6 87.6 0 0 1 -41.45-.07c-4 6.14-12 14.55-15.13 17.64a53.37 53.37 0 0 0 2.77 11.56c.07.18.15.33.23.49a85.14 85.14 0 0 0 65.23.19c1.95-4.31 2.9-11 3.1-12.62z" fill="#76777a"/></svg>