<svg viewBox="0 0 800 800" xmlns="http://www.w3.org/2000/svg"><path d="m400 18.42 68.5 114.64 33.5-56.06 194 324.52-191.22 319.85-34.41-57.56-70.37 117.75-70.39-117.75-34.41 57.56-191.15-319.85 193.95-324.52 33.52 56.05zm0-18.42-8.12 13.6-60.4 101.05-25.41-42.49-8.07-13.6-8.11 13.6-193.96 324.5-2.93 4.86 2.9 4.82 191.19 319.87 8.11 13.58 8.11-13.58 26.3-44 62.25 104.18 8.14 13.61 8.12-13.57 62.28-104.2 26.3 44 8.13 13.55 8.09-13.55 191.18-319.9 2.9-4.82-2.9-4.86-194-324.5-8.1-13.56-8.12 13.57-25.38 42.49-60.39-101.05z" fill="#98989a"/><path d="m329.61 663.81 70.36 117.75 70.4-117.75 34.41 57.56 191.17-319.85-193.94-324.52-33.51 56.06-68.5-114.64-68.52 114.64-33.52-56.06-193.91 324.52 191.15 319.85z" fill="#12284c"/><path d="m596.07 456.55-91.29 152.71-8.38-14.07-21.52 36 29.9 50 134.28-224.64zm-300.87 152.71-91.2-152.71h-43l134.2 224.65 29.92-50-21.52-36zm232.05-152.71-127.25 212.87-127.24-212.87h-43l170.24 284.83 170.25-284.83z" fill="#8ab7e9"/><g fill="#fff"><path d="m161 346.45h41.85l95.15-159.2 8.18 13.65 20.93-35-29.11-48.7zm341-229.25-29.1 48.69 21 35 8.1-13.64 95.15 159.2h41.85z"/><path d="m300.59 295.01 99.41-166.35 99.42 166.35h41.88l-141.3-236.42-141.28 236.42z"/><path d="m140.53 371h14.62l9.72 39h.13l12.74-39h12.48l12.65 40h.13l10.26-40h13.6l-17.8 60.85h-11.95l-13.41-42.13h-.19l-13.4 42.12h-11.52z"/><path d="m233.32 371h13.42v22.69h26.06v-22.69h13.41v60.85h-13.41v-26.29h-26.06v26.28h-13.42z"/><path d="m300.83 371h13.4v60.85h-13.4z"/><path d="m341.59 382.84h-17.36v-11.84h48.14v11.85h-17.37v49h-13.41z"/><path d="m382.85 371h41.37v12.39h-28v11.36h20.66v12.35h-20.61v12.37h29.48v12.37h-42.9z"/><path d="m474.52 386.8c-2.67-3.17-6.54-5-11.53-5-10.14 0-17.63 8.26-17.63 19.6s7.49 19.6 17.2 19.6a14.55 14.55 0 0 0 12.55-6.54l11.18 8.34c-5.08 7.22-13.66 10.59-22 10.59-19 0-32.84-12.49-32.84-32s13.83-32 32.84-32c6.8 0 15.4 2.33 20.55 8.92z"/><path d="m513.89 371h11.11l26.5 60.85h-15.16l-5.25-12.85h-23.66l-5.06 12.88h-14.79zm5.16 17.7-7.39 18.93h14.87z"/><path d="m557.51 371h22.61c12.65 0 23.12 4 23.12 18.49 0 14.26-9.72 18.66-22.51 18.66h-9.81v23.7h-13.41zm13.41 25.79h9c4.71 0 9.46-1.62 9.46-7.3 0-6.3-6.37-7.16-11.53-7.16h-6.88z"/><path d="m643.48 385.84c-2.15-2.73-6.46-4-9.72-4-3.78 0-9 1.7-9 6.27 0 11.09 28 4 28 25.28 0 13.59-10.92 20-23.48 20-7.81 0-14.7-2.31-20.45-7.64l9.53-10.5a14.92 14.92 0 0 0 11.71 5.75c4.37 0 9.28-2.06 9.28-6.37 0-11.16-28.56-5.14-28.56-25.44 0-13 11.28-19.77 23.23-19.77 6.87 0 13.49 1.79 18.65 6.34z"/><path d="m350.74 456.2h40.84v12.37h-27.42v12.43h19.62v12.4h-19.62v23.72h-13.42z"/><path d="m436.72 472c-2.66-3.17-6.54-5-11.53-5-10.13 0-17.62 8.26-17.62 19.59s7.49 19.62 17.19 19.62a14.61 14.61 0 0 0 12.57-6.56l11.17 8.36c-5.07 7.23-13.67 10.57-22 10.57-19 0-32.85-12.46-32.85-32s13.84-32 32.85-32c6.78 0 15.38 2.31 20.55 8.93z"/><path d="m244 311.88h8.75l8.6 22.79h.09l8.74-22.79h8.2l-14.38 34.79h-6.15z"/><path d="m288.1 311.88h6.33l15.14 34.79h-8.64l-3-7.37h-13.52l-2.88 7.37h-8.46zm2.95 10.12-4.23 10.81h8.51z"/><path d="m313.75 311.88h10.43l14.82 24.17h.11v-24.17h7.67v34.79h-10l-15.19-24.76h-.09v24.76h-7.67z"/><path d="m377 320.9a8.25 8.25 0 0 0 -6.58-2.82c-5.8 0-10.07 4.69-10.07 11.18s4.27 11.22 9.82 11.22a8.32 8.32 0 0 0 7.18-3.74l6.39 4.77c-2.89 4.13-7.83 6.05-12.58 6.05-10.86 0-18.77-7.13-18.77-18.3s7.86-18.26 18.72-18.26c3.87 0 8.79 1.3 11.74 5.11z"/><path d="m404.9 311c10.86 0 18.77 7.1 18.77 18.26s-7.91 18.3-18.77 18.3-18.76-7.13-18.76-18.3 7.86-18.26 18.76-18.26zm0 29.48c6.52 0 10.81-4.72 10.81-11.22s-4.29-11.18-10.81-11.18-10.8 4.69-10.8 11.18 4.27 11.22 10.8 11.22z"/><path d="m459.49 333.25c0 8.21-5 14.31-14.66 14.31s-14.69-6.1-14.69-14.31v-21.37h7.67v21.12c0 4.28 2.95 7.53 7 7.53s7-3.25 7-7.53v-21.12h7.68z"/><path d="m463.72 311.88h8.77l8.58 22.79h.11l8.74-22.79h8.2l-14.34 34.79h-6.14z"/><path d="m502.74 311.88h23.64v7.12h-16v6.49h15.09v7.06h-15.07v7.08h16.86v7.08h-24.52z"/><path d="m534.08 311.88h13.44c7.15 0 13.14 2.46 13.14 10.57 0 4.85-2.61 8.63-7.53 9.52l8.86 14.7h-9.2l-7.27-13.91h-3.78v13.91h-7.66zm7.66 14.38h4.54c2.77 0 6.41-.09 6.41-3.86 0-3.49-3.15-4-5.94-4h-5z"/></g></svg>