<svg enable-background="new 0 0 400 400" viewBox="0 0 400 400" xmlns="http://www.w3.org/2000/svg"><path d="m42.4 200.4c0-86.9 70.4-157.3 157.3-157.3s157.3 70.4 157.3 157.3-70.4 157.3-157.3 157.3-157.3-70.4-157.3-157.3" fill="#fff"/><path d="m199.8 56.1c-79.6 0-144.3 64.7-144.3 144.3s64.7 144.3 144.3 144.3 144.3-64.7 144.3-144.3c0-79.5-64.8-144.3-144.3-144.3m104.3 64.2c16.5 21.4 25.9 47 27.2 73.9h-54.4c1.3-27 10.7-52.5 27.2-73.9m-208.6 0c16.5 21.4 25.9 47 27.3 73.9h-54.6c1.4-27.1 10.7-52.5 27.3-73.9m0 160.3c-16.5-21.4-25.9-47-27.2-73.9h54.4c-1.3 27-10.7 52.5-27.2 73.9m110.6 51.4v-37.7h-12.7v37.7c-34.3-1.6-66-16.3-89.6-41.4 19.3-24.1 30.1-53 31.4-83.7v-12.7c-1.3-30.7-12.2-59.6-31.4-83.7 23.6-25.1 55.3-39.8 89.6-41.4v37.4h12.7v-37.6c34.3 1.6 66 16.3 89.6 41.4-19.3 24.1-30.1 53-31.4 83.7v12.7c1.3 30.7 12.2 59.6 31.4 83.7-23.6 25.2-55.4 39.9-89.6 41.6m98-51.4c-16.5-21.4-25.9-47-27.3-73.9h54.4c-1.3 27-10.6 52.5-27.1 73.9"/><path d="m167.6 140v120.4h64.4v-16.5h-47.2v-103.9z" fill="#c8102e"/><path d="m253.8 180.3v-49.6c0-7.5-3-10.5-10.3-10.5h-87.6c-7.2 0-10.2 3.1-10.2 10.5v139.4c0 7.5 3 10.5 10.2 10.5h87.6c7.3 0 10.3-3.1 10.3-10.5v-49.7h-17.4v44.9h-73.4v-129.8h73.5v44.8z" fill="#1d428a"/><path d="m232 239.2v-99.2h-41.9l-.4 99.2h16.7l.3-30.9h8.5l-.1 30.9zm-16.9-47.5h-8.4v-35.2h8.4z" fill="#c8102e"/></svg>