<svg enable-background="new 0 0 400 400" viewBox="0 0 400 400" xmlns="http://www.w3.org/2000/svg"><path d="m350 200.1c0 82.9-67.2 150.1-150.1 150.1s-150.1-67.2-150.1-150.1c-.1-82.9 67.1-150.1 150.1-150.1 82.9 0 150.1 67.2 150.1 150.1" fill="#b3b2b1"/><path d="m345.7 200.1c0 80.5-65.3 145.8-145.8 145.8s-145.8-65.3-145.8-145.8 65.3-145.8 145.8-145.8 145.8 65.3 145.8 145.8" fill="#1d428a"/><path d="m324.2 200.1c0 68.6-55.6 124.4-124.4 124.4-68.6 0-124.4-55.6-124.4-124.4 0-68.6 55.6-124.4 124.4-124.4s124.4 55.8 124.4 124.4" fill="#c8102e"/><g fill="#fff"><path d="m199.9 75.7c-68.5 0-124.4 55.8-124.4 124.4s55.8 124.4 124.4 124.4 124.4-55.8 124.4-124.4c-.1-68.5-55.9-124.4-124.4-124.4m-117.2 128.1h22.9v-7.3h-22.9c.1-2.7.2-5.5.5-8.2 8.1-40.9 57.3-72.3 116.6-72.3s108.5 31.5 116.6 72.3c.3 2.7.4 5.5.5 8.2h-23v7.3h22.9c-.1 2.7-.2 5.5-.5 8.2-8.1 40.8-57.4 72.3-116.6 72.3s-108.4-31.5-116.5-72.3c-.2-2.7-.3-5.5-.5-8.2m117.2-120.9c49.6 0 92.2 31 109.2 74.7-20.8-28.5-61.9-48-109.2-48s-88.4 19.4-109.2 48c17-43.6 59.5-74.7 109.2-74.7m0 234.5c-49.6 0-92.2-31-109.2-74.7 20.8 28.5 61.9 48 109.2 48s88.4-19.4 109.2-48c-17.1 43.5-59.6 74.7-109.2 74.7"/><path d="m147.3 203.4h8.7v39.5h-8.7zm33.7 0h-.3c-2.4 0-11.5-.1-13.2 0h-.4c-2.6 0-4.4 1.2-4.8 3.6-.1.4-.1.6-.1.6 0 .1-.6 7.5.1 9.6 1.2 3.4 4 4.7 6.4 5.4.1 0 .2.1.3.1.2 0 .3.1.5.2.3.1.5.3.6.4v14.2h-7.2v5.3h9.6c3.4-.1 5.6-1.6 6.4-4.1.2-1.9.3-15.2.1-17.9-.1-1-.5-1.9-1.5-2.6-.4-.3-.8-.6-1.4-.9-.5-.3-1.1-.5-1.6-.8-2-1-4.4-2.1-4.4-4.8v-2.2h6.9c1.4 0 2.5-.7 3.3-2 .5-1 .7-2 .7-2 .1-.6 0-1.2 0-1.6zm40.3 0c-1.9 0-4.1.1-5.7.5-4.3 1-6.4 3.9-6.4 8.8v23.5c0 6 4.3 7.2 10.8 7.2 7.8 0 12.3-2.7 12.3-7.6v-24.5c-.1-7.9-5.1-7.9-11-7.9m-3 8.9c0-1 .1-1.8.3-2.4l.2-.1c.4-.1.8-.1 1.2-.1h.2c2.9 0 3.1.9 3.1 6.3v17.9c0 .5-.1.9-.2 1.3l-.2.2c-.5.1-1 .1-1.5.1-1.1 0-1.8-.2-2.3-.7-.7-.7-.7-1.9-.7-3.4v-16.7c-.1 0-.1-1.8-.1-2.4m34.3 7.8c-4.2-15.3-11-16.9-13.7-16.9-.7 0-1.1.1-1.2.1l-.2.1v39.5h8.9v-15.9l6.2 15.9h9.1v-39.5h-9.1zm-116-16.7h-22.5v.3s-.2 4.7 5 5.8v33.5h9.2v-16.8h7.6c4.1 0 6.4-2.6 6.4-7.3v-1.4c-.1-11.3-.5-13.5-5.7-14.1m-3.5 17.5h-5v-11.5s2.6-.1 3.1 0c1 .1 1.8.5 1.8 1.7.1.4.1 9.8.1 9.8m73.3-17.4h-20.5v6.2h5.9v33.3h9.1v-33.4h.3c1.6 0 2.9-.5 3.9-1.4 1.6-1.7 1.5-4.4 1.5-4.5zm79.2-.1h-.3c-2.4 0-11.5-.1-13.2 0h-.4c-2.6 0-4.4 1.2-4.8 3.6-.1.4-.1.6-.1.6 0 .1-.6 7.5.1 9.6 1.2 3.4 4 4.7 6.4 5.4.1 0 .2.1.3.1.2 0 .3.1.5.2.3.1.5.3.6.4v14.2h-7.2v5.3h9.6c3.4-.1 5.6-1.6 6.4-4.1.2-1.9.3-15.2.1-17.9-.1-1-.5-1.9-1.5-2.6-.4-.3-.8-.6-1.4-.9-.5-.3-1.1-.5-1.6-.8-2-1-4.4-2.1-4.4-4.8v-2.2h6.9c1.4 0 2.5-.7 3.3-2 .5-1 .7-2 .7-2 .1-.6 0-1.2 0-1.6zm-80.7-24.5h1.5c1.4 0 4 .5 4 3.2 0 1.2.1 5.2.2 6.7v.6c0 .2.1 2.1.2 2.5.6 2.3 2.4 3.7 5.2 4h2.5v-14c0-1.2-.6-2.8-1.6-4.1l-.2-.2c1.4-1.6 1.9-3.2 1.9-5.6v-1.4c0-10.9-.4-13.1-5.5-13.6h-17.1v38.5h8.7v-16.6zm0-16h1.7c2.3 0 3.2 0 3.1 4.1 0 3.3 0 3.5-.1 5v.3c0 .5-.2 1-.5 1.3-.2.2-.4.3-.7.3h-3.6v-11zm54.5-6.1h-8.6v38.5h8.6zm-82.3 38.6h8.8v-32.5h.3c1.6 0 2.8-.5 3.8-1.4 1.6-1.7 1.5-4.2 1.5-4.4v-.3h-20.1v6.1h5.7zm92.6 0h8.8v-32.5h.3c1.6 0 2.8-.5 3.8-1.4 1.6-1.7 1.5-4.2 1.5-4.4v-.3h-20.1v6.1h5.7zm-103-6.2h-9.2v-9.4h6.3v-8.4h-6.3v-8.6h9.2v-6h-17.7l-.2 38.5h17.9zm-28.9-32.4h-22v.2c0 .1-.3 2.3 1.1 4 .9 1.1 2.2 1.6 4.1 1.8v32.4h16.4c3.8 0 6.2-3.2 6.2-7.9v-17.9c0-9.8 0-12.4-5.8-12.6m-3.1 32.4h-4.9v-26.3c3.1-.1 3.7.1 3.8.2 1.1.4 1.1 2.5 1.1 2.6.2 3 0 21.1 0 23.5m100.5-32.4c-1.9 0-4 .1-5.7.5-4.3 1-6.3 3.9-6.3 8.6v23c0 5.9 4.3 7.1 10.7 7.1 7.7 0 12.2-2.7 12.2-7.4v-24c.1-7.8-5-7.8-10.9-7.8m-2.9 8.7c0-1 .1-1.8.3-2.4l.2-.1c.4-.1.8-.1 1.2-.1h.2c2.9 0 3.1.9 3.1 6.2v17.6c0 .5-.1.9-.2 1.3l-.2.1c-.5.1-1 .1-1.5.1-1.1 0-1.8-.2-2.3-.7-.7-.7-.7-1.9-.7-3.3v-16.2c-.1 0-.1-1.9-.1-2.5"/></g></svg>