<svg enable-background="new 0 0 648 648" viewBox="0 0 648 648" xmlns="http://www.w3.org/2000/svg"><path d="m324.4 611.7c-52.6 0-103.4-19-143.1-53.5-39.2-34.1-65-81.2-72.6-132.4l-57-390.1h545.1l-56.8 389.9c-7.6 51.3-33.4 98.4-72.6 132.5-39.6 34.6-90.4 53.6-143 53.6z" fill="#fff"/><path d="m324.4 600.2c-49.8 0-98-18-135.5-50.7-37.2-32.3-61.6-76.9-68.8-125.4l-55-376.9h518.5l-54.9 376.8c-7.2 48.6-31.6 93.2-68.8 125.5-37.5 32.7-85.7 50.7-135.5 50.7z" fill="#9ea2a2"/><path d="m324.4 583.5c-45.8 0-90-16.5-124.5-46.6-34.2-29.7-56.6-70.7-63.2-115.3l-52.3-357.7h479.9l-52.1 357.7c-6.6 44.6-29 85.6-63.2 115.3-34.6 30.1-78.8 46.6-124.6 46.6z" fill="#363b37"/><path d="m294.1 430v-.8h-14.5v.8c0 20.2-10.2 38.5-27.3 49.1-9.3-7.9-17.4-17.3-23.8-28h-16.5c21.3 41.7 64.9 69 112.2 69 47.4 0 90.9-27.3 112.1-69h-16.6c-6.3 10.6-14.3 20-23.6 27.8-17-10.7-27.1-28.9-27.1-49v-.9h-14.5v.9c0 23.2 10.8 44.5 29.3 58.1-15.5 9.9-33.4 16-52.2 17.3v-94.8h-14.5v94.8c-18.8-1.2-36.8-7.3-52.4-17.2 18.5-13.5 29.4-34.8 29.4-58.1z" fill="#4891ce"/><path d="m324.4 547.5c-63.2 0-119.3-38.8-142.2-96.3h-15.5c23.7 65.9 86.6 110.8 157.7 110.8s134-44.9 157.6-110.8h-15.5c-22.9 57.5-79 96.3-142.1 96.3zm-118.4-254.7 2.1-5.4 22-57.4-6.8-45.8 19.1 13.9 5.4-14-91.1-66.4 27.9 190.5-19.7 51.4-38.3-258.6h153.1l5.6-14.5h-175.5l48.8 330.1zm-30-143 30.8 22.4 8.3 56.2-19.9 52.1zm187.3-63.4 5.6 14.5h153.1l-38.3 258.6-19.4-50.8 28-191.1-91.4 66.5 5.4 14 19.2-14-6.9 45.7 20.8 54.5 3.2 8.3 47.3 123.6 48.9-330.1h-175.5zm70.2 142 8.4-56.1 31-22.6-19.3 131.3z" fill="#e3173e"/><path d="m226.3 133.7 31.9 23.2 16.5 12 7.1 5.2-97.4 255.4 70.3-.1 13.5-39.4h112.1l13.7 39 70.3-.1-98.2-254.3 7.8-5.7 16.5-12 32-23.2h-72.1l-18.1-46.9-7.9-24.3-.7 2.1v-.1l-26.4 69.2zm97.6 93.9 36.3 104.3h-72.1z" fill="#fff"/></svg>