<svg enable-background="new 0 0 400 400" viewBox="0 0 400 400" xmlns="http://www.w3.org/2000/svg"><path d="m354.8 193.9c-6.5-2.7-22.6-7.8-39.2-12.4.2-6.8.4-14.1.2-21.6 11.1-14 16.1-24.9 15-32.2-.6-3.9-2.7-5.6-3.4-6l-2-1.4-2.2 1c-6.3 2.7-12.6 4.9-19.9 6.7-9.6-3.8-19-6.9-28-9.2 6.2-21.8 6.9-36.8 2.2-44.6-2.4-3.9-5.4-4.7-6.2-4.9l-2.4-.4-1.7 1.8c-15.9 16.9-32 26.7-40.3 31-.8-5.4-2.8-14.1-6.6-28.7-4-15.2-9.9-35.1-13.3-43.1l-.3-.8-.3-.3c-.3-.9-.7-1.6-1.1-2.1-.9-1.5-2.6-3-4.7-3-2.4 0-4.2 1.8-5.1 3.5l-1.2 2.3c-3.3 7.5-8.9 27.3-12.9 43.5-3.6 14.6-5.4 23.5-6.2 29-8.4-4.4-24.9-14.3-41-32.1l-1.7-1.8-2.4.5c-.9.2-3.8 1-6.2 4.9-4.8 7.8-4.1 22.8 2 44.8-9.4 2.4-18.6 5.4-27.6 9-7-2.1-13.3-4.3-19.2-6.9l-2.2-.9-2 1.3c-.7.4-2.8 2.1-3.5 6-1.2 7.1 3.5 17.7 14 31.3-.4 8.2-.2 16.2 0 23.6-16.1 4.5-32 9.5-38.8 12.4-3 1-6.4 2.9-6.4 6.6 0 3.8 3.6 5.3 5.1 5.9l.6.3.3.1c7.2 3.1 27 8.5 42.8 12.6.9 5.3 1.9 10.6 3.1 16-14.1 12.5-21.3 22.7-21.4 30.5-.1 4.2 1.9 6.3 2.5 6.8l1.8 1.7 2.4-.7c7.8-2.2 16-3.5 24.4-4 5.5 15.2 12.3 29.4 20.3 42.2l1 1.5 1.8.4c19.2 4.8 38 7.8 56 9 4.4 18.3 10.5 40.3 14.1 48.4l1.1 2.1c.9 1.7 2.6 3.5 5.1 3.5 2.2 0 3.8-1.5 4.8-3 .4-.6.8-1.3 1.1-2.1l.3-.3.3-.8c3.4-8 9.9-29.3 14.4-47.9 17.5-1.2 35.5-4.1 53.8-8.5l1.8-.4 1-1.5c7.5-11.9 14.4-26 20.4-42 6 .4 14.5 1.5 24.8 4.2l2.4.6 1.8-1.7c.6-.6 2.5-2.7 2.4-6.8-.1-7.8-7.3-18.2-21.2-31 1.2-5.3 2.2-10.9 3-16.5 17.2-4.2 36.2-9.8 43.4-12.7l.6-.2c1.7-.7 5.3-2.2 5.3-6-.6-2.6-2.6-4.7-6.8-6.5" fill="#fff"/><path d="m353 198.1c-7-2.9-25.2-8.6-42.1-13.1.3-8.6.5-17.4.2-26.5 22-27.4 13.6-33 13.6-33-8 3.5-15.3 5.6-22 7.3-10.7-4.3-22-8-33.3-10.7 13.9-45.9.8-48.3.8-48.3-21.4 22.8-43.1 33-47.7 34.9 2.4-3.2-14-63-19.9-76.9 0 0-.3-.3-.5-.8-.3-.8-.5-1.3-.8-1.6-.3-.5-.8-1.1-1.1-1.1s-.8.5-1.1 1.1c-.3.5-.5 1.1-1.1 2.1-6.2 13.9-22.4 78.6-18.7 77.8h-.3c0-.3-.3-.3-.3-.3s-24.4-9.6-48.3-35.9c0 0-13.1 2.4.6 48.5-11.3 2.7-22.2 6.2-33 10.5-6.4-1.9-13.7-4.3-21.2-7.5 0 0-8.3 5.4 12.6 32.2-.5 9.7-.2 19.3 0 28.4-16.9 4.6-34.8 10.2-41.8 13.2 0 0-3.5 1.1-3.5 2.4 0 1 2.1 1.6 3.2 2.1 7 2.9 27.1 8.6 45.1 13.1 1.1 7.2 2.4 14.2 4 21.2-28.9 25-20.9 32.5-20.9 32.5 10.7-3 20.6-4 28.7-4.3 5.6 16.3 12.6 31.1 21 44.5 19.3 4.8 38.9 8 58.5 9.1 4.6 19.3 11 42.9 14.5 50.7l1.1 2.1c.3.5.8 1.1 1.1 1.1s.8-.5 1.1-1.1c.3-.3.5-.8.8-1.6.3-.5.5-.8.5-.8 3.5-8 10.4-31.4 15-50.4 18.8-1.1 37.5-4.1 56.3-8.6 8.3-13.1 15.3-28.2 21.1-44.3 8 .3 18 1.6 29 4.5 0 0 8-7.5-20.7-33 1.6-7 2.9-14.2 4-21.7 18-4.3 38.3-10.2 45.6-13.2 1.3-.6 3.2-1.2 3.2-2.1.2-1.1-3.3-2.5-3.3-2.5" fill="#f05023"/><path d="m300 191.4c.8-13.2.6-24.6.4-33.2 10.9-8.2 9.5-9.4 9.5-9.4-.9-.7-4.6.2-9.8 2.1 0-.8-.1-1.5-.1-2.3 12.2-9.9 8.8-11.1 8.8-11.1-1.5-1-5.7 0-11.1 2l-2.4-.7c-13-3.9-25.1-6.9-37-9.1 5.8-11.3 11.2-23.4 8.2-24.4-1.7-.7-11.3 8.5-19.2 22.5-.4-.1-.8-.1-1.2-.2 6-11.5 11.6-24 8.6-25-1.7-.8-11.9 8.9-19.9 23.6-7.3-.8-14.5-1.3-22-1.6.2-24.9-2.8-40.2-5.6-40.2 0 0-5.9-.4-6.5 40h-2c.2-24.8-2.6-40-5.6-40 0 0-6-.4-6.5 40.2-6.5.3-12.9.7-19.3 1.4-7.9-14.6-18-24.1-19.7-23.4-3 1 2.6 13.4 8.6 24.8-.5.1-1 .1-1.4.2-7.8-13.9-17.3-23-19.2-22.3-2.8 1 2.6 12.8 8.4 24.1-12.4 2.3-25 5.4-38.6 9.5l-2.1.7c-5.4-2-9.5-3-11-2 0 0-3.6 1.2 8.7 11 0 .7-.1 1.5-.1 2.3-5.1-1.8-8.9-2.8-9.7-2 0 0-1.4 1.2 9.5 9.5-.4 8.9-.7 20.2-.1 33.2-24.8 2.4-23.5 5-23.5 5 .4 2.2 10.7 2.6 23.9 2.3v.5c-21.7 2.6-19.4 4.6-19.4 4.6.2 2.2 8.7 2.6 20 2.3 1 10.6 2.7 22.1 5.5 34.1-16.8 6.4-17.4 10-17.4 10s2.8 2.1 19.5-1.6c.3 1 .5 2 .8 3-8.4 3-14.7 5.7-14.4 7.2 0 0 1.2 1.9 16-1.7 4.3 14.2 10.2 29 18.1 44l1.3 2.7 3 .5c24.4 4.8 48.8 7.7 66.8 7.7s42.4-3 66.7-7.8l2.9-.5 1.3-2.7c7.5-15 13.1-29.9 17.2-44.2 15.4 3.8 16.5 1.8 16.5 1.8.5-1.5-6.2-4.3-15-7.4.3-1 .5-1.9.8-2.9 17.5 3.8 20.3 1.7 20.3 1.7s-.6-3.7-18.3-10.3c2.7-12 4.4-23.3 5.5-33.8 12.2.4 21.7 0 21.9-2.3 0 0 2.7-2.1-21.2-4.8v-.4c14.1.4 25.4 0 25.7-2.3.1.2 1.4-2.5-25.1-4.9m-44.7-55.7c10.9 2 21.8 4.6 33.1 7.8-11.3 5.2-24.2 12.2-31.1 16-1.3-4.9-4.3-9-8.5-12.1 1.4-2.5 3.8-6.8 6.5-11.7m-42.4-4.6c6.5.2 12.8.7 19 1.3-1.3 2.9-2.5 6-3.5 9.2h-15.9c.1-3.6.3-7.1.4-10.5m-26.3.1c0 3.2 0 6.7.1 10.4h-12.8c-1-3.2-2.2-6.3-3.5-9.3 5.3-.4 10.7-.8 16.2-1.1m-39.6 4.3c2.6 4.8 5 9.1 6.5 11.7-4.6 3.1-8 7.4-9.8 12.5-6.8-3.8-19.9-10.8-31.3-16 11.8-3.4 23.2-6.1 34.6-8.2m-40.3 55.7c-.5-11-.4-20.8-.1-28.7 11.1 6.1 28.5 10.8 36.1 12.6v12.8c-9.7 1-22.8 2.2-36 3.3m1.1 15.1c11.6-.6 24.9-1.7 35.1-2.7v23.4c.1.9.2 1.8.4 2.7-13 3.3-22.9 6.2-30.4 8.8-2.5-11.3-4.1-22.1-5.1-32.2m170.9 62c-8.4-2.6-37.1-10.1-78.1-10-42.2 0-71.5 8-78.9 10.4-1.6-4.3-2.9-8.5-4.2-12.8 8.4-2.3 19.9-6 35.8-11.7 5.1 3.6 11.8 5.8 19.1 5.7l55.8-.1c7.9 0 14.7-2 19.8-5.6 15.3 5.4 26.5 9 34.8 11.2-1.3 4.4-2.6 8.6-4.1 12.9m8.6-30.3c-7.4-2.5-17-5.3-29.6-8.5.4-1.3.5-2.9.5-4.6v-21.5c9.8.9 22.7 2 34.3 2.6-1.1 10-2.7 20.7-5.2 32m6.4-47.1c-13.2-1.2-26.3-2.4-35.6-3.2v-12.6c7.6-1.9 25.1-6.6 36-12.7.2 7.9.2 17.5-.4 28.5" fill="#fff"/><path d="m197.1 274.9v-10.2c-7.4.1-14.4.4-20.9.8 2.7 2.7 4.4 6.3 4.9 10.2 5.2-.4 10.5-.7 16-.8zm27.8-9.4c-6.6-.5-13.6-.7-21.1-.8v10.2c5.5.1 10.8.3 16 .8.5-3.8 2.2-7.5 5.1-10.2zm1.4 10.9c13.1 1.5 24.9 4.2 34.6 7.9 3.6 1.4 7 2.9 10 4.6 2.1-4.9 3.9-9.1 5.9-14.4-3.2-1-9.6-2.8-18.9-4.6-6.2-1.2-13.5-2.3-22-3.2-5.7 1.1-8.9 5-9.6 9.7zm-6.1 5.8c-5.3-.5-10.8-.8-16.4-.8v24.8h.6c1.6 0 3.2-.1 4.8-.1 8.5-.4 17.4-1.3 26.3-2.5-6.5-6.7-13.3-13.4-15.3-21.4zm20.6 17.6c.8.9 1.7 1.8 2.6 2.7 7.9-1.2 15.6-2.6 22.6-4 .7-1.3 1.3-2.6 1.9-4-2.7-1.5-5.9-3-9.4-4.3-8.6-3.2-19.3-5.7-31.4-7.2 2.3 5 7.7 11 13.7 16.8zm-48.8 6.3c1.5 0 3.1.1 4.6.1h.6v-24.8c-5.6.1-11.1.4-16.4.9-1.9 8-8.6 14.7-15 21.4 8.8 1.1 17.8 2 26.2 2.4zm-18.1-23.1c-12 1.5-22.8 4.1-31.4 7.2-3.6 1.4-6.7 2.9-9.5 4.4.7 1.3 1.3 2.6 2 3.9 7.1 1.4 14.9 2.8 22.9 4 .9-.9 1.7-1.8 2.6-2.7 5.7-5.7 11-11.7 13.4-16.8zm-33.6 1.3c9.6-3.7 21.4-6.4 34.6-8-.8-4.7-3.9-8.5-9.8-9.8-8.5.9-16 2.1-22.2 3.3-8.7 1.7-15.6 3.6-19 4.6 1.9 4.8 4 9.6 6.2 14.4 3.1-1.5 6.5-3.1 10.2-4.5zm8.5-57.9c1.1 10.5 11.8 17.4 23.6 17.4l55.8-.1c11.5 0 21.4-4.8 23.6-15.3.3-1.3.5-2.7.5-4.3v-16.1h-.8c-6.7 0-12.6 1.6-17.4 5.4-4.6 3.2-6.2 6.7-6.2 6.7l-53.9.1v-48.8l53.9-.1.3 12.1c12.3 0 23.9-5.4 23.8-17.5v-.5c0-12.3-11.5-17.7-23.9-17.7l-55.8.1c-11.8 0-22.5 7-23.6 17.7v30.3z" fill="#0a2240"/></svg>