<svg enable-background="new 0 0 400 400" viewBox="0 0 400 400" xmlns="http://www.w3.org/2000/svg"><path d="m188.5 188.9c10.8-3.3.1 19.1-13.9 17.8 1.8-7.4 6.9-15.7 13.9-17.8z" fill="#fff"/><path d="m358.2 172.3c-2-4.9-7-8.1-12.3-7.8 0 0-.9 0-1.6.1.9-2.2 1.3-4.5 1.3-6.8 0-4.9-2-8.3-3.2-9.9-2.2-2.9-5.2-5-8.7-6-22.6-51.4-74-87.4-133.7-87.4-80.5 0-146 65.5-146 146 0 17.3 3 33.8 8.5 49.2-1.9 4-3 8.4-3.1 12.8 0 8.3 3.4 16.2 9.6 22.3 5.2 5 11.8 8.2 19 9.3 26.8 32 67 52.4 111.9 52.4 73.2 0 134-54.1 144.4-124.5 12.3-10 15.8-21.9 16.4-30.7.1-1.1.1-2.2.1-3.2.2-8.6-2.3-15-2.6-15.8z" fill="#002d62"/><path d="m325.5 196.2h9.2c.1 1.4.1 2.9.1 4.3 0 74.3-60.4 134.7-134.7 134.7-7.4 0-14.6-.6-21.7-1.8-3.4.9-7 1.5-10.7 1.5-13.2 0-24.9-6.4-32.2-16.2-41.7-22.9-70.1-67.3-70.1-118.1 0-74.3 60.4-134.7 134.7-134.7 60.3 0 111.4 39.8 128.6 94.5h-9.7s-17 28 6.5 35.8z" fill="#ffd520"/><path d="m319.9 191.6v-14.6h6c-11.1-59.4-63.3-104.5-125.9-104.5-70.6 0-128.1 57.4-128.1 128s57.4 128 128.1 128c70.6 0 128-57.4 128-128 0-3-.1-6-.3-8.9z" fill="#e03a3e"/><path d="m200 77c-68.1 0-123.5 55.4-123.5 123.5s55.4 123.5 123.5 123.5 123.5-55.4 123.5-123.5-55.4-123.5-123.5-123.5z" fill="#002d62"/><path d="m200 286.5c-20.5 0-39.4-7.2-54.2-19.2h-7c16.1 14.8 37.6 23.8 61.2 23.8 40.3 0 74.5-26.4 86.2-62.8h-4.8c-11.5 33.8-43.7 58.2-81.4 58.2zm-81.8-112.7c11.2-34.4 43.7-59.4 81.8-59.4 44.7 0 81.6 34.3 85.7 78h4.6c-4.1-46.2-43-82.6-90.3-82.6-40.7 0-75.2 27-86.6 63.9h4.8z" fill="#e03a3e"/><path d="m106.6 135.1h4.8v18.5h-4.8z" fill="#ffd520" transform="matrix(.52609519 -.85042569 .85042569 .52609519 -71.110419 161.101827)"/><path d="m116.1 119.6 3.6-3.2 14.1 2.7.1-.1-7.5-8.4 3.6-3.2 12.2 13.8-3.6 3.2-14.1-2.6 7.5 8.5-3.6 3.2zm39.5-22.1 1.1-.4c2.9-1.2 5.6-.2 6.8 2.8 1.3 3.4-.3 5.7-3 6.8l-1 .4zm.9 15.2 6.3-2.5c4.8-1.9 7.2-7.3 5.3-12.1s-7.4-7-12.2-5.1l-6.3 2.6zm35.6-9.6-4.8.5-1.9-18.4 4.8-.5zm28.2-5.2-3.9-.7 3-5.5zm.6 3.8.6 3.4 5.1.9-3.6-19.4-5.2-.9-10.2 17 5 .9 1.8-2.9zm29.2-6.5 4.2 2.5 1.9 14.2h.1l5.6-9.8 4.2 2.4-9.3 16-4.2-2.4-1.9-14.2v-.1l-5.7 9.9-4.2-2.5zm31.1 39.5-2.6-3.1 5.8-2.3zm-2 3.4-1.7 3 3.3 3.9 9.6-17.3-3.4-4-18.7 6.5 3.3 3.9 3.3-1.1z" fill="#ffd520"/><path d="m350.9 175.3c-.7-1.8-2.6-3-4.6-2.9h-3.2s-2.3.4-3 1.8c-1.8 3.4-10.2 13.7-13.7 11.8-3.9-2 7.7-19.6 7.7-19.6 2.8-3.4 3.7-6.4 3.7-8.7 0-2.6-1.1-4.5-1.7-5.2-2.5-3.4-7.5-4.6-11.8-2.8-1.3.6-3.5.4-5.2 0-.5-3.7-2.1-8.5-6.1-10.6-1.6-.8-4.8-1.9-9.1.6-3 1.8-4.6 4.4-5 7.6 0 .5-.1.9-.1 1.4 0 3.4 1.5 6.9 4.1 9.5.2.2.3.3.5.4-1.3 3.2-2.9 6.3-4.5 9.1.1-.7.1-1.4.1-2.1 0-3-.9-6.1-3.6-8.3-4.7-4-10.9-3.3-13.8-2.2-7.5 2.5-22.6 10.8-28.3 26.5 1.2-4.5.7-7.6-.3-9.7-1.2-2.5-3.1-3.4-3.1-3.4-2.4-1.5-5.4-1.8-8.9-.6-8.3 2.7-11.5 12.9-11.5 12.9-4 10.4.9 17 .9 17-.2.5-3.9 5.9-3.9 5.9l-2.2-20.5c-.3-3.3-2-5-3.3-5.8-2.1-1.4-4.6-1.3-6.2-.8l-11.9 3.8c-1.9.6-3.2 2.4-3.2 4.4v4.7c-.4-.4-.8-.8-1.3-1.2-4.7-3.9-10.9-3.3-13.8-2.2-5.6 1.9-11.4 5.2-16.1 9.2-.2-.8-.6-1.6-1.2-2.2-1.2-1.2-3.1-1.7-4.7-1.1 0 0-7.3 2.4-13.6 4.5 2.6-8.9 6.6-17 14.4-21.5 1.4-.8 2.3-2.4 2.3-4v-.3c12.3-3.1 19.7-9.8 24.1-15.6 6.5-8.6 7.7-17.2 7.8-17.6.2-1.4-.2-2.8-1.2-3.8-.9-1-2.3-1.6-3.7-1.5l-2.3.1c-1.5.1-2.9.9-3.7 2.2-6.8 10.7-22.6 13.7-41 17.1-12 2.3-24.5 4.6-36.2 9.4-32.4 13.4-31 33.9-30.7 36.2.8 11.7 11.6 20.7 24.3 20 2.3-.1 4.6-.6 6.7-1.3-.3 1-.5 2.3-.5 3.6 0 2.2.6 4.8 2.2 7.6 1.1 1.9 3.4 2.8 5.4 2.1l4.6-1.4c-6.3 24.1-11.3 29-11.6 29.3-2.1 2-6.2 3.1-8.1 2-.8-.4-1.3-1.1-1.4-1.8-.2-.9.2-1.8.9-2.7 1-1.1 2.5-2 4.1-2.2 1.9-.3 3.4-1.8 3.8-3.7s-.4-3.8-2.1-4.9c-4.1-2.6-9-4.1-14-4.2-7.2-.2-14.1 2.4-19 7.1-4.4 4.2-6.9 10-7 15.9 0 12.7 11 23.4 24.8 24.1.4.1 7.7.9 16.6-2.7 8-3.2 19.1-10.9 25.8-28.8 5.4-12.1 7.7-25 9.9-37.6 0 0 .2-1 .4-2.1 2.3-.7 7.7-2.4 11.9-3.8-1.5 4-2.2 8.2-2.2 12.5 0 1.1.1 2.3.2 3.5.1 1.1 1.3 10.6 8.9 15 1 .6 2.1 1 3.2 1.4-33 13.8-40 30.1-40.4 31.2-.2.6-.3 1.2-.3 1.7 0 1.2.5 2.4 1.4 3.3l5.1 5 .4.4c-.8 2.9-1.2 6-1.2 9.2 0 19.8 16.1 35.9 35.9 35.9 19.9 0 35.9-16.1 35.9-35.9 0-5.2-1.1-10.2-3.1-14.7.8-.3 1.5-.7 2-1.4l1.5-1.7c1.2-1.4 1.3-3.5.6-5.1 0 0-.5-1.3.7-3.6 2.6-4.7 14.7-16.7 70.1-26.3 24.1-4.6 44.8-12.6 60-23.1 13.5-8.8 17.1-20.1 17.7-28.1.7-8.8-1.9-15.3-2-15.6m-223.6 27.8c-1.7.5-3.5 1.1-4.1 1.3 1.5-3.1 2.2-6.5 2.1-10-.2-4.3-1.8-8.4-4.6-11.9-1.2-1.4-3-2-4.8-1.5s-3.1 1.9-3.4 3.7c-.2 1.1-.9 2.1-1.8 2.8-1 .7-2.2 1.1-3.3.9-.5-.1-1.1-.3-1.4-.9-.5-.9-.1-3 1.7-4.6l.2-.2c.1-.1 8.8-8.4 35.1-10-6.1 5.7-11.8 15.1-15.7 30.4z" fill="#fff"/><path d="m191.2 235.8c4.3-3.6 9.7-9.2 15.4-17.6.3 2.5 1 11.6 1.2 13.8-8.5 1.8-16.6 3.8-16.6 3.8zm121.5-34.8c-4.3-2.1-7.2-5.6-8.5-9.9-.3-1.2-.5-2.5-.6-3.7-6.4 9.8-13.4 16.2-16.4 18.7-2.3 2-6.5 4.9-11.2 6.7-7.6 2.7-12.9 1.1-15.9-.8-3.9-2.5-6-6.3-7.2-9.5-3.3 1.3-6.2 2.1-8.7 2.5-6.3 11.5-13.8 19.3-20.9 24.6 7.2-1.1 15-2 23.4-2.7 42.2-3.6 65.9-15 78.3-23.9 0 0 .4-.2.8-.6-7.4 1.3-12.2-1-13.1-1.4z" fill="#002d62"/><path d="m103 212.4c10.2-.5 18.1-8.5 17.6-17.8-.2-3.5-1.5-6.6-3.6-9.2-.4 2.1-1.6 4.2-3.7 5.7-3.8 2.8-8.9 2.4-11.3-1-2.2-3.1-.8-8.1 2.4-10.9.3-.3 11.4-11.5 46.4-11.7 37.8-.2 42.2-30.9 42.2-30.9l-2.3.1c-12.8 20-49.7 16.1-79.3 28.3-30.7 12.6-27.9 31.4-27.9 31.4.6 9.5 9.3 16.6 19.5 16z" fill="#e03a3e"/><path d="m161.1 205.5 3-9.1-21.7 7.1c3-14.1 7.5-26.2 18.6-32.6l-.1-2.4c-7.5.8-22.2 6.6-29.7 38.3l-6.7 2.1s-15.3 4.7-8.8 15.8l2.1-.7c-.3-.9-1.3-4.5 3.8-6.1l7.8-2.5c-8.6 39.9-16.2 45-16.2 45-3.4 3.2-9.5 4.8-13.5 2.6-4.3-2.4-5.1-7.6-1.8-11.5 1.7-2.1 4.3-3.4 7-3.9-3.3-2.1-7.3-3.4-11.6-3.5-11.6-.3-21.1 7.8-21.2 18.3-.1 10.4 9.1 19.2 20.7 19.5 0 0 25.5 3.2 37.5-28.6 5.9-13.1 8-27.9 10.5-41.5zm185.4-28.4h-2.8c-4 7.1-13.7 16.8-20.3 12.8-8.1-4.8 6.8-26.1 6.8-26.1 6.4-7.6.4-11.7-4.2-9.7s-11.3-.7-11.3-.7-.3-13.9-8.5-9.7c-4.4 2.3-3.1 8.2-.1 11.2 1 .9 2 1.5 2.9 1.7-2.9 9-9.2 18.5-11.3 21.6 0 0-14.1 19-23.4 18.3-3.6-.2-5-4-4.6-8.8 6.2.7 12.7-2 17.9-7.6 1.7-1.8 3.2-4.1 4.3-6.2.5-.7 4.8-9.3.4-13-4-3.3-9.3-1.4-9.3-1.4-7.9 2.6-20.3 10.5-25.2 22.8-1 2.6-1.5 5.5-1.7 7.9-2.7 1.4-9 4.7-13 4.6 3.5-6.5 6.4-15.5 5.9-19.4-.4-3.2-3.1-4.2-6.4-3.2-3.5 1.1-6.2 3.9-8.2 8.3-1.6 3.7-2.4 7.3-1.8 10.7.2 1.4 1.1 4.1 3.3 6.1-3.6 6.7-8.3 12.7-13 17.8l-3.3-31.6c-.4-3.6-3.4-2.7-3.4-2.7l-11.9 3.8v2.9l1.1-.3s2.5-.8 2.8 1.9l.6 6c-2.3 4.3-18.8 34.3-31.4 32.2-3.6-.6-5-4-4.6-8.8 6.2.7 12.7-2 17.9-7.6 1.7-1.8 3.2-4.1 4.3-6.2.5-.7 4.8-9.3.4-13-4-3.3-9.3-1.4-9.3-1.4-10.7 3.5-28.8 15.5-26.9 36.8 0 0 2 19 20.4 10.6 0 0 14.6-5.2 30.1-34l2.8 26.8c9.2-4.7 20.1-13.7 28.6-30.3 3 0 7.2-.9 14.9-4.6v.5s1.9 17.9 18.2 12c4-1.6 7.7-4 9.8-5.8 4.9-4.1 12-11.5 17.7-21.4 0 0 5.2-8.8 9.7-18.7 1 .3 2.7.8 4.6.9-5.5 9.1-14.2 27.1-1.4 33.5 0 0 9.4 5.3 23-5.8-.9 9.3-10.2 15.7-10.2 15.7-15.4 11-41.1 21.3-80.6 24.7-101.4 8.9-116.1 45.8-116.1 45.8l3.8 3.8c5.5-12.9 18.2-21.9 33.1-21.9 12.1 0 22.8 6 29.3 15.1.7.6 1.3 1.1 2 1.7l1.5-1.8s-12.3-21.5 74.1-36.5c25.9-4.9 45-13.2 58.2-22.4 23.2-15 13.8-37.9 13.8-37.9m-61.7-11.8c11.1-3.4.1 19.7-14.3 18.4 1.8-7.7 7.1-16.2 14.3-18.4m-96.9 30.9c11.1-3.4.1 19.7-14.3 18.4 1.9-7.6 7.2-16.2 14.3-18.4m50.8-4.3c-.4-.6-.7-1.3-.8-2.2-.2-1.8.1-3.7.9-5.6.7-1.5 1.5-2.6 2.6-3.1 0 0 .6-.3 1-.2.5.2.5.8.5.8-.1 2-2.2 6-4.2 10.3z" fill="#e03a3e"/><path d="m135.7 294.8c0-17.6 14.3-31.9 32-31.9 17.6 0 32 14.3 32 31.9 0 17.7-14.3 32-32 32s-32-14.3-32-32z" fill="#002d62"/><path d="m162.4 317.4c-.9-2-1.1-4-.4-6-2.9-1.1-5.6-2.3-8-3.7-.9 4.2-1.1 8.2-.9 11.8.1.1.3.2.4.2 4.4 2.5 9.3 3.7 14 3.7-2-1.6-4-3.6-5.1-6zm28-39.8c1.3 3.7 2.1 7.8 1.4 11.8s-3 7.3-6.7 9.7c-2.8 1.8-6.1 3-9.4 4.2-5.3 1.9-10.3 3.8-12.1 7.5 8.7 3 18.7 4.3 24.9 2.9.4-.1.7-.2 1-.3 1.2-1.4 2.2-2.8 3.1-4.5 5.7-10.3 4.4-22.5-2.2-31.3zm-46.7 27.4c1.4-.3 2.5-1.1 3.4-2.5-4.2-4.3-5.5-8.8-7.2-14.7-1.5 5.7-1.1 11.7.9 17.1 1 .1 2 .2 2.9.1zm6.2-17.5c.5 5.4.9 10.5-1.3 14.7 1.3 1.2 2.8 2.4 4.7 3.6 1.9-7.7 7.7-24.6 23.7-38-8.5-2.9-17.7-1.7-24.9 3.1-1.2 1.9-2.2 4.2-2.4 6.9-.3 3.2-.1 6.5.2 9.7z" fill="#fff"/><path d="m153 307c-2-1.3-3.6-2.5-5-3.8-1.1 1.6-2.4 2.5-4.1 2.8-.8.1-1.7.1-2.6 0 2.2 5 5.7 9.4 10.6 12.6-.1-3.5.2-7.4 1.1-11.6zm10.1 4.8c-.5 1.7-.4 3.4.4 5.1 1.2 2.7 3.8 4.9 6.1 6.4 6.8-.5 13.4-3.4 18.3-8.4-6.3 1.2-16.2-.1-24.8-3.1zm-8.8-5.3c2.4 1.4 5.1 2.7 8.1 3.8 2-4.3 7.3-6.2 12.8-8.2 3.2-1.2 6.5-2.4 9.1-4.1 3.4-2.2 5.5-5.2 6.2-8.9.9-4.8-.7-10.1-2.7-14.3-1.8-1.9-3.9-3.5-6.3-4.8-1.1-.6-2.3-1.2-3.4-1.7-16.3 13.5-22 30.7-23.8 38.2zm-6.5-5.1c1.8-3.8 1.4-8.7 1-13.8-.3-3.2-.6-6.6-.3-9.9.2-2 .7-3.7 1.4-5.3-2.8 2.2-5.2 5-7.1 8.3-.9 1.6-1.6 3.1-2.2 4.8l.3 1.3c1.7 6.1 3 10.5 6.9 14.6z" fill="#e03a3e"/></svg>