<svg viewBox="0 0 800 800" xmlns="http://www.w3.org/2000/svg"><path d="m746 400c0 191.09-154.92 346-346 346s-346-154.91-346-346 154.91-346 346-346 346 154.91 346 346" fill="#2d2a26"/><path d="m400 738.27a338 338 0 0 1 -239-576.94 338 338 0 1 1 478 478 335.75 335.75 0 0 1 -239 98.94zm0-667.62c-181.78 0-329.66 147.88-329.66 329.66s147.88 329.69 329.66 329.69 329.66-147.92 329.66-329.69-147.88-329.66-329.66-329.66z" fill="#aa9767"/><path d="m257 224.17a226.57 226.57 0 0 0 0 351.66z" fill="#a32035"/><path d="m542.15 223.49v353a226.47 226.47 0 0 0 0-353z" fill="#a32035"/><path d="m452.66 620.34v-440.68a219.92 219.92 0 0 0 -106.22.24v440.2a219.92 219.92 0 0 0 106.22.24z" fill="#a32035"/><path d="m466.83 272.81 22-44.21h-178.04l22 44.22-95.08 282 86.3 56.57 18-51.23h116.6l16.53 50.84 87.46-56.37zm-90.74 186.78 23.85-71.59 24.6 71.64z" fill="#2d2a26"/><path d="m457.89 272.2 17.69-35.39h-151.5l17.68 35.39-96.59 286.45 33.32 31.13 17.3 8.15 20.94 9.33 19.42-55.41h128.47l18.7 57.53 35.3-18.9 37-30.58zm-93.27 195.67 35.2-105.73 36.29 105.74z" fill="#aa9767"/><path d="m364.62 467.87-58.6 42.04 93.98-273.29 93.98 273.29-57.87-42.03-36.29-105.74z" fill="#716134"/><path d="m281.23 582.02 24.79-72.11h187.96l24.21 70.42-37.28 21.65-16.29-50.13h-128.47l-17.5 49.91z" fill="#716134"/><path d="m400 629.52c-126.57 0-229.53-103-229.53-229.52s102.97-229.52 229.53-229.52 229.52 102.96 229.52 229.52-102.96 229.52-229.52 229.52zm0-449.7c-121.42 0-220.2 98.77-220.2 220.18s98.79 220.19 220.2 220.19 220.19-98.78 220.19-220.19-98.78-220.18-220.19-220.18z" fill="#aa9767"/><path d="m400 621.23c-122 0-221.24-99.23-221.24-221.23s99.24-221.23 221.24-221.23 221.24 99.23 221.24 221.23-99.24 221.23-221.24 221.23zm0-434.23c-117.43 0-213 95.54-213 213s95.54 213 213 213 213-95.54 213-213-95.56-213-213-213z" fill="#716134"/><g fill="#aa9767"><path d="m410.19 96.37q.94-3 1.87-6-12-.63-24-.07c.61 2 1.23 4 1.84 6q-8.55 28-17.08 56.53c4.75-.5 9.51-.88 14.27-1.11l2.64-9.39q10.16-.39 20.32.06 1.32 4.7 2.62 9.41 7.14.39 14.26 1.21-8.34-28.62-16.71-56.64m-10.22 9.48q3.24 11.79 6.5 23.67-6.58-.2-13.19-.05 3.35-11.85 6.69-23.62"/><path d="m558.69 208.25q5.52 4.56 10.78 9.42l8.58-4.67q7.4 7 14.19 14.55l-4.91 8.45q4.71 5.37 9.13 11 14.58-26 28.72-51.59l5.58-2.85q-6.74-7.62-14.07-14.66-28.76 14.92-58 30.35m31.06-1.68 21.52-11.8q-6.12 10.59-12.27 21.23-4.47-4.84-9.21-9.44"/><path d="m540.89 123.6q-3.28 5.46-6.59 10.91c4.52 2.35 9 4.78 13.4 7.33l-25.12 41.64q5.73 3.3 11.32 6.83 12.57-20.82 25.12-41.64 5.64 3.56 11.13 7.32l9.79-8.68a336.75 336.75 0 0 0 -39.05-23.71"/><path d="m497.07 105.31q-5.15 17.33-10.27 34.69-3.6-20.3-7.39-39.93-7.08-1.84-14.26-3.25.06 3.1.1 6.19l-15.72 53q6.5 1.33 12.9 3 5.13-17.33 10.27-34.65 3.78 19.66 7.37 40 6 2.07 12 4.46l17.45-58.85q-6.15-2.48-12.41-4.61"/><path d="m184.49 177.9q-7.34 7-14.08 14.66l5.58 2.85q14.15 25.59 28.73 51.59 4.41-5.64 9.13-11c-1.64-2.82-3.28-5.62-4.92-8.43q6.8-7.56 14.19-14.55l8.58 4.67q5.25-4.86 10.79-9.42-29.25-15.44-58-30.35m17.72 38.08q-6.21-10.64-12.31-21.22 10.72 5.85 21.52 11.79-4.72 4.6-9.21 9.44"/><path d="m260.28 123.6 6.59 10.91c-4.52 2.35-9 4.78-13.4 7.33l25.13 41.64q-5.75 3.3-11.33 6.83-12.57-20.82-25.12-41.64-5.64 3.56-11.15 7.33l-9.79-8.68a336.62 336.62 0 0 1 39-23.71"/><path d="m322.43 150.56q-6.69-23.37-13.37-46.75c-4.21 1.31-8.4 2.73-12.54 4.23q8.44 29.5 16.88 59a280.81 280.81 0 0 1 34.2-10q.15-6.56.31-13.09-12.9 2.72-25.48 6.64"/><path d="m304.93 629.16q-6.06-2.62-12-5.46l-25.32 55.92q6 2.82 12 5.45z"/><path d="m365.82 645.87c-1 4.14-1.92 8.27-2.88 12.42q-7.56-1.08-15.05-2.61l-11 47.37q-6.48-1.32-12.89-3l11-47.37q-7.38-1.92-14.66-4.28l2.88-12.4a252.91 252.91 0 0 0 42.6 9.88"/><path d="m399.38 684.64q10.35.06 20.7-.73-.13-6.37-.26-12.75-10.33.81-20.7.73-.11-5.39-.22-10.79a254 254 0 0 0 26.31-1.22l-4.15-12.39a252.34 252.34 0 0 1 -35.64.44q.61 30.68 1.24 61.36a252.34 252.34 0 0 0 35.64-.44c1.22-4.36 2.42-8.72 3.63-13.1a251.09 251.09 0 0 1 -26.3 1.22q-.13-6.16-.25-12.33"/><path d="m492.82 647.36c-2.34-8.38-10.86-12.64-19.18-10.09a260.88 260.88 0 0 1 -28.11 6.94q1.73 2.76 3.46 5.5 7.44 26.63 14.9 53.26a261.36 261.36 0 0 0 26.27-6.59c8.32-2.55 13-11.92 10.7-20.28l-8-28.74m-4.47 33.07a3.12 3.12 0 0 1 -2.07 3.81q-6.4 1.95-12.91 3.58-4.85-17.28-9.67-34.55 6.51-1.63 12.91-3.59a2.93 2.93 0 0 1 3.7 2q4 14.37 8 28.74"/><path d="m259.46 604.24-21.57 29q3.21-19.72 6.8-40-5-4-9.75-8.24-18.33 24.62-36.64 49.24 4.95 4.41 10.12 8.54l21.57-29q-3.59 20.25-6.77 40 5.25 3.62 10.69 7l36.63-49.25q-5.64-3.48-11.08-7.24"/><path d="m209.68 558.61-36.9 28.59a3.13 3.13 0 0 1 -4.32-.48q-3.28-4-6.39-8.18a3.1 3.1 0 0 1 .6-4.28l36.9-28.59q-4.44-6.1-8.49-12.49c-1.26 1.77-2.53 3.53-3.79 5.29l-32.11 24.87c-6.87 5.32-8.67 15.65-3.47 22.63q3.38 4.54 7 8.92c5.52 6.75 16 7.54 22.88 2.22l36.9-28.59q-4.53-4.83-8.78-9.91"/><path d="m558.51 607.81a262.47 262.47 0 0 0 20.18-16.91l-10.78-7.37a264.66 264.66 0 0 1 -29.6 23l5.3 3.72 34.3 43.39q5.48-3.72 10.75-7.71-7.77-9.84-15.55-19.69 8.25-6.24 16-13.13l-7.9-10q-7.76 6.89-16 13.14l-6.69-8.48"/><path d="m622.81 541.19a15.17 15.17 0 0 0 -21.58 3.42q-3.35 4.56-6.83 9a15.17 15.17 0 0 0 2.54 21.71l25.5 19.31c6.92 5.25 17.22 4.19 22.58-2.66q3.5-4.46 6.84-9c5.14-7 3.37-17.22-3.55-22.46l-4-3q-3.65 5.52-7.52 10.88l4 3a3.06 3.06 0 0 1 .62 4.26q-3.06 4.19-6.26 8.27a3.09 3.09 0 0 1 -4.27.55l-25.5-19.32a3 3 0 0 1 -.53-4.19q3.2-4.1 6.26-8.27a3 3 0 0 1 4.18-.62l2.75 2.08q3.87-5.35 7.53-10.87z"/><path d="m630.85 249.88a275.88 275.88 0 0 1 15.86 272.5l7.53 3.75a284.26 284.26 0 0 0 -18.91-284.74z"/><path d="m169 249.88a275.81 275.81 0 0 0 -15.86 272.5l-7.54 3.75a284.26 284.26 0 0 1 18.9-284.74z"/></g></svg>