<svg viewBox="0 0 800 800" xmlns="http://www.w3.org/2000/svg"><path d="m668.59 94.74c19.89 56.39 63.25 209.24 60.92 344.88-74.12 123.05-200.79 231.38-329.51 300.45-128.7-69.07-255.38-177.4-329.5-300.45-2.33-135.64 41-288.49 60.91-344.88 170.69-48.31 367.88-48.31 537.18 0z" fill="#fff" fill-rule="evenodd"/><g fill="#041e42"><path d="m668.59 94.74c19.89 56.39 63.25 209.24 60.92 344.88-74.12 123.05-200.79 231.38-329.51 300.45-128.7-69.07-255.38-177.4-329.5-300.45-2.33-135.64 41-288.49 60.91-344.88 170.69-48.31 367.88-48.31 537.18 0zm-547.75-11.37c184.69-52 365.45-52 558.31 0 22.31 60.29 67.28 221.88 64.09 360.12-79 137-230.87 254.3-343.24 312.16-112.37-57.88-264.27-175.18-343.24-312.18-3.19-138.24 41.77-299.82 64.08-360.1z" fill-rule="evenodd"/><path d="m259.38 384.54-13.41-39.57-16.22 9.29v88.14l16.05-9.19v-43.34l12.89 35.96 16.52-9.46v-88.15l-15.83 9.07z"/><path d="m627.44 126.47v88.14l17.85-10.22v-88.14z"/><path d="m314.68 303.44c-13 7.46-21.78 21.79-21.74 30.54v49.3c0 9 8.63 17.79 22.18 11.3 21.67-10.38 21.2-21.46 21.16-30.21v-12.28l-17.76 10.17v12.41l-7.81 4.47v-54.45l7.81-4.47v17.26l17.76-10.09v-18.09c-.04-8.75-8.75-13.22-21.6-5.86z"/><path d="m154.44 395.22c-13 7.47-21.78 21.79-21.74 30.54v49.31c0 9 8.63 17.78 22.18 11.29 21.68-10.36 21.21-21.46 21.12-30.21v-12.28l-17.72 10.13v12.42l-7.8 4.47v-54.42l7.8-4.47v17.27l17.72-10.1v-18.08c0-8.75-8.71-13.23-21.56-5.87z"/><path d="m352.92 371.9 17.85-10.22v-88.14l-17.85 10.22z"/><path d="m192.69 463.63 17.85-10.22v-88.14l-17.85 10.22z"/><path d="m568.13 177.31 12.23-7v71.29l17.85-10.22v-71.3l12.23-7v-16.87l-42.31 24.23z"/><path d="m419.62 292.82-13.42-39.57-16.21 9.29v88.11l16.04-9.19v-43.3l12.9 35.92 16.51-9.46v-88.12l-15.82 9.07z"/><path d="m483.94 255.92-13.42-39.56-16.21 9.28v88.11l16.05-9.18v-43.31l12.89 35.92 16.52-9.46v-88.11l-15.83 9.06z"/><path d="m527.8 183.73-11.51 94.49 17.48-10 1.23-15.68 10.2-6.06 1.8 14.17 17.17-9.83-13.54-80.36zm7.5 52.81 4.79-34.24 3.29 29.25z"/></g><path d="m586.3 105.46-484.71 277.61c6.91-101.52 34.18-207 52.78-263.94 149.1-39.38 302.03-38.01 431.93-13.67zm-373.73 56v19.66h11.93v16h-11.93v38.88l-19.88 11.45v-101.29h39.11v15.34zm77.66 34.39v22c0 8.76-9.4 18.05-23.77 18.05-14.58 0-24.41-9.29-24.41-18.05v-55.27c0-8.75 9.83-18 24.41-18 14.37 0 23.77 9.29 23.77 18v7.13l-19.66 11.29v-22.11l-8.42 4.83v57.93l8.42-4.82v-9.68z" fill="#003087" fill-rule="evenodd"/><path d="m165.71 518.31 508.95-291.49c14 62.65 25.61 135.83 25.36 204.33-75.21 121-191.15 212.31-300 275.18-107.96-62.87-174.6-120.33-234.31-188.02zm353.6-77.31a36.52 36.52 0 0 0 13.48-6.92s.7 9.15-3.88 17a46 46 0 0 0 -9.6-10.08zm-101.1 8 15.47-8.85s-7.72-1.87-13.07-7.3l41.39-23.75-4.81-6.64h63.77l3.94 6.69s10.57 2.48 16.6 8.44l-9.79 1.52 4.84 5.45c-3.66 4.55-13.21 10.52-22.32 12.37a93.1 93.1 0 0 0 -13.73-7.68l15.3-8.77s-8.86-5.48-29.52-11.27a128.49 128.49 0 0 1 15.91 11.79l-13.31 7.62s23.4 10.73 36.23 33.78l-15.5.34s-17.94 33.2-46.43 52v-18.82s-18.64-2-29.24-10.15l10.39-6.2s-11.85-1.85-22.53-13l13.61-7.72s-8.21-1.05-17.2-9.85zm88-42a18.73 18.73 0 0 0 15.07 6.64l-4.19-6.21zm-157.64 160.27 1.53 13.54c-9.15 6.05-33.05 19.71-52.13 10.37-14.32-7-17.46-27.18-6.73-44.3 12.47-19.86 32.55-20.27 43.63-13 0 0-2.09 13.17-15.95 21.61l2.95-11.79c-6.75-3.41-15.5-.33-20.5 7.87-6.72 11-4.79 23.71 4.3 28.3 15.05 7.62 42.9-12.6 42.9-12.6zm240.71-55.48s9.65 0 10.37 8.42c-4.85-2.25-8.44-.72-8.44-.72a54.54 54.54 0 0 1 -24.53 2.72l-20.48 21.9a84.94 84.94 0 0 0 1.5 9.94c-14.2-4.95-26.78-12.65-34.83-18.24l7.27 13s-5.57 14.24-35.51 33.35l-1.2-12.87s-29.93-18.77-48.09-15.06c-17.16 31.29-47.58 27.37-47.58 27.37l-8.42 30.07s28.38 3.85 22.76 26.64l-7.78-4.64s.73 6-4.46 8.85l-6.32-8.73c2.41 7.22-9.35 10.17-9.35 10.17s-.59-7.85-3-11l-9.12-11.27-8.57-71.06 10.79 4.54c25.8-21.45 35.81-48.66 35.81-48.66s36.72 18.63 62.88 15.71c5.5-.78 34.22-20.85 50.9-53l13.14-.29s10.25 15.51 13.1 33.59l-9.39-1.76a77.5 77.5 0 0 1 5.33 15.51l24.3-14.1c14.5-8.51 35.24-10.14 38.29-1.52 0 0-6.78-.53-8.42 2.56 0 0 9.23-.67 10.13 7 .01.02-7.81-2.21-11.08 1.58zm-131.6 114.07-5.88-4.32c1.17 4.58-2.57 7.5-2.57 7.5a27.84 27.84 0 0 0 -5.73-6.6c.17 4.39-6.25 8-6.25 8a15.38 15.38 0 0 0 -3.9-7.32l-8.11-7.74-22.34-29.9c24.33-1.41 37.17-25.3 37.17-25.3 31.71 30.15-7.67 37-7.67 37l2.43 10.73s26.67-2.01 22.85 17.95zm76.89-159.06c4.33 5.84 9.73 19.11 12.77 33.47l11.66-18.2 3.86 8.83c7.64-14 14.86-26.94 18.67-33.75a12.85 12.85 0 0 0 5.15 1.35v5a10.07 10.07 0 0 0 -.83 4 12.75 12.75 0 0 0 4.62 4.23 12.75 12.75 0 0 0 4.62-4.23 10.21 10.21 0 0 0 -.85-4v-5c1.48-.24 3.1-.73 4.88-1.21 2.36-5.87 1.32-14.54 1.32-14.54a18 18 0 0 0 3.38-6c-2-2.16-5.36-3.57-9.6-4.22v-.53l10.89-6.63v-7.27l-6.87 4.18-.05-90.1-7.81-8.33-7.81 7.86.06 90.61-7.51-4.58v7.63l11.09 6.16v.61c-4 0-7.36.71-9.57 2.39a15.84 15.84 0 0 0 2.42 6.82zm-151.68 18.81-32 18.06c7.1 4.94 29 1.55 44.93-7.1 0 0 34.64 18.84 60.54 19 0 0-.08-14.3-.08-14.3-47.81-11.36-61.8-45-70.93-68.76l-95.51 54.6c12.34 10 48.94-8.25 78-24.06.65 1.29 1.39 2.72 2.23 4.23l-50.56 29c12.59 9.74 38.13-4.2 60.2-14.34.96 1.22 2.08 2.46 3.18 3.67zm134.33-101.75a16.06 16.06 0 0 0 -5.85-5.35 16.15 16.15 0 0 0 -5.84 5.36 22.18 22.18 0 0 0 1.06 6.09h-6.69a34.34 34.34 0 0 0 1.47-9.1 26.18 26.18 0 0 0 -9.55-8.72 26.25 26.25 0 0 0 -9.53 8.74 33.66 33.66 0 0 0 1.49 9.1h-6.68a21.77 21.77 0 0 0 1.06-6.09 16.08 16.08 0 0 0 -5.86-5.34 16.05 16.05 0 0 0 -5.84 5.36 22 22 0 0 0 1.07 6.09v7.47l48.64-.06v-7.41a21.94 21.94 0 0 0 1.05-6.14z" fill="#fe5000" fill-rule="evenodd"/></svg>