<svg viewBox="0 0 800 800" xmlns="http://www.w3.org/2000/svg" xmlns:xlink="http://www.w3.org/1999/xlink"><clipPath id="a"><path d="m144.2 0h511.59v800h-511.59z"/></clipPath><clipPath id="b"><path d="m144.2-.01h511.59v800.01h-511.59z"/></clipPath><g clip-path="url(#a)"><g clip-path="url(#b)"><path d="m482.82 70-9.29 44.58c-2.74 13-6.16 29.18-10 47.14l-2.23 1c4.28-48 4.16-86.27-4.35-104.59a114.59 114.59 0 0 0 -32.06-40.46c-19.53-15.75-32.13-17.67-32.13-17.67l.24 194.55-218.92 101.84c-29.83 14-29.88 49.11-29.88 49.11v334.93l255.8 119.57 255.79-119.57v-608.14l-129.36 60.17a163.79 163.79 0 0 0 -18.54-34.27c-3-4.42-6.06-8.49-9-12.23-5.24-6.66-16.07-16-16.07-16" fill="#c4c7c9"/><path d="m248.91 149.77 11.76 34.01 11.77-34.01 35.31 6.83-23.56-27.19 23.56-27.19-35.31 6.83-11.77-34.01-11.76 34.01-35.32-6.83 23.57 27.19-23.57 27.19z" fill="#c4c7c9"/><path d="m174.08 459.19c-29.83 14-29.88 49.09-29.88 49.09v162.65s0-35.13 29.88-49.09l481.72-224.13v-162.64z" fill="#8ac8ec"/><path d="m603.39 478c14.88-17.67 18-34.19 18-34.19s-127.26 41.4-169.14 55.19c10.49-4.62 18.09-7.24 22.68-9.21 17.07-7.33 127.82-44.58 140.22-67.79 12.09-22.65 11.66-41.33 11.66-41.33s-124.13 71.8-168.69 97.71c10.42-7.5 18.12-12.14 22.68-15.36 16.85-11.91 128.62-78 136.71-106.1 7.91-27.41 3.14-47.61 3.14-47.61s-118 106.4-160.58 145c8.82-9.63 15.58-16 19.57-20.26 15.56-16.86 121.76-114.49 124.09-146.93 2.23-31.62-7.6-52.47-7.6-52.47s-106.56 146.9-142.56 196.77c7.57-12.84 13.58-21.48 17-27.18 13-21.9 105.89-152.53 100.91-188.31-4.85-34.89-20.37-55.27-20.37-55.27s-80.76 181.73-108.94 245.49c5.44-16.39 10.18-27.57 12.62-34.75 9.08-26.8 79.85-190.22 66.17-228-5.82-16.06-12-26.19-19.69-37.72a126.09 126.09 0 0 0 -14.5-18.24c-3.77 17.75-31.77 150.17-50.14 237.22l-10.74 61.41c-3.87 22.19-.23 37 1.51 42.31l1.37 3.91c20.43 60.53 4.68 89.85-3.1 99.71l-.31.39a39.38 39.38 0 0 1 -11.25 9.91 31.67 31.67 0 0 1 -14.67 3.7 30 30 0 0 1 -8.81-1.33c-26.92-8.89-17.13-39.2-17.06-39.49-2.23 12.62 1 20.83 4.05 25.5a24.59 24.59 0 0 0 20.51 11.17c13.68 0 21.19-9.29 23.65-12.36l.31-.37c7.41-9.38 22.42-37.69 1.59-97.57-.57-1.68-6.7-21-2.94-42.65l14.42-83.08c10.42-66.2 32.07-204 14.93-240.85-7.92-17-19.2-29-29.86-37.69a100.71 100.71 0 0 0 -20.34-13.1l.43 328.25c0 17.54.6 32 1.43 43.84 0 0 .62 8.32 1.54 17s5 26.43 7.3 34.5l2.84 9.46c10.66 37.35 5.72 61-2.87 71.84-2.06 2.54-5.49 7.06-12.25 7.06-7.58 0-15.67-9-6-31.62s14.55-46.46-6-66.89a52.33 52.33 0 0 0 -6.33-5.66 232.9 232.9 0 0 0 -31.93-20.68c-4.7-2.56-30.32 2.7-30.32 2.7l-61.38-27.47-.11 1.12s88.09 63.37 104.11 76.82c14.75 12.34 7 31.87-7.18 43-16.19 12.73-64.1 39.65-64.1 39.65v2.9c0 32 4.73 45.22 26.53 72 42 51.54 61 72.3 61 126 2.39 1.65 10.86 5.33 10.86 5.33v-90.92c0-41.25 10.74-68.94 60.77-68.94l-35-32.76c5.08 3.78 8.32 6.73 10.59 8.43 8.8 6.56 60.45 52.19 76 51.67 15.16-.51 24.52-6.23 24.52-6.23s-80.74-46.58-103.26-59.46c7.47 3.31 12.4 6.07 15.53 7.5 11.08 5.1 77.84 42.76 94.64 38.6 16.33-4.07 25.25-12.47 25.25-12.47s-99.61-32.28-126.5-40.89c9.21 1.93 15.42 3.85 19.25 4.7 13.22 3 94.5 28.49 111.76 20.09 16.84-8.18 24.6-19.38 24.6-19.38s-113.62-11.63-147.2-15c8.12.11 16 .6 19.7.63 15 .22 109.28 9.14 126.09-4 16.41-12.79 22.25-26.73 22.25-26.73s-123.23 13-160.86 17.13c10.07-2.11 17.26-3 21.67-3.87 16.4-3.27 120.87-15.33 136.12-33.47"/><path d="m355.82 425.06s-5.15 1.37-9.06-1-5.12-7.55-5.12-7.55 5.15-1.37 9.06 1 5.12 7.53 5.12 7.53" fill="#d14f53"/><path d="m584.89 644.2s2.85-1.23 2.85-5.45v-6.15l-31.3 14.65v52.82l9.52-4.48v-19.31l10.93-5.15a6 6 0 0 0 2.5-5.3v-5.41l-13.39 6.32v-13.63z"/><path d="m616.89 628.87c1.19-.55 2.15-.14 2.15 1v4.13a2.16 2.16 0 0 0 2.14 2.19h.07a2.27 2.27 0 0 0 .75-.19l6.19-2.91v-6.69a8.18 8.18 0 0 0 -8.32-8 8.64 8.64 0 0 0 -3 .56l-17.69 8.23a11.37 11.37 0 0 0 -6.27 10.12v34.07a7.27 7.27 0 0 0 7.25 7.29h.16a7.28 7.28 0 0 0 3.08-.71l18.51-8.68a11.31 11.31 0 0 0 6.23-10.09v-9.66l-7.14 3.31a3.86 3.86 0 0 0 -2 3.41v2.47a3.72 3.72 0 0 1 -2.14 3.07l-12.3 5.93c-1.2.57-2.14.14-2.14-1v-28.59a3.76 3.76 0 0 1 2.14-3.07z"/><path d="m493.89 712.22-18.06-27.29-9.62 4.48v52.87s4-1.91 6.8-3.22c.55-.31 2.74-1.77 2.74-5.47v-31.65l18.51 27.2 9.26-4.33v-52.81l-6.63 3.1c-.66.42-2.91 1.37-2.91 5.38z"/><path d="m448.89 745.8v-26.51l-9.29 25.71-8.1 3.79-10.83-17.61v28.12a5.91 5.91 0 0 1 -3.17 5.7l-6 2.84v-52.84l8.64-4 14 24.73 13.27-37.49 10.72-5v52.76l-5.13 2.4a3 3 0 0 1 -3.9-1.67 3.3 3.3 0 0 1 -.21-.93"/><path d="m511.58 668.22v41.51a7.13 7.13 0 0 0 7.13 7.13h.09a7.47 7.47 0 0 0 3-.69l19.89-9.25a11.25 11.25 0 0 0 6.63-10.22v-45.7l-6.64 3.11c-2.51 1.17-2.91 3.93-2.91 5.55v36.64a3.72 3.72 0 0 1 -2.14 3.05l-13.45 6.27c-1.19.55-2.14.12-2.14-1.06v-36a3 3 0 0 0 -3-3 3.11 3.11 0 0 0 -1.2.25z"/></g></g></svg>