<svg viewBox="0 0 500 500" xmlns="http://www.w3.org/2000/svg" xmlns:xlink="http://www.w3.org/1999/xlink"><radialGradient id="a" cx="250.836" cy="249.278" gradientUnits="userSpaceOnUse" r="223.301"><stop offset="0" stop-color="#1099d6"/><stop offset=".14" stop-color="#1192ce"/><stop offset=".355" stop-color="#127fb9"/><stop offset=".618" stop-color="#156096"/><stop offset=".916" stop-color="#193566"/><stop offset="1" stop-color="#1a2857"/></radialGradient><linearGradient id="b" gradientUnits="userSpaceOnUse" x1="44.544" x2="457.112" y1="202.244" y2="202.244"><stop offset="0" stop-color="#e32726"/><stop offset=".159" stop-color="#db2727"/><stop offset=".403" stop-color="#c62628"/><stop offset=".702" stop-color="#a3252b"/><stop offset="1" stop-color="#79232e"/></linearGradient><path d="m486.165 29.05v-29.05h-470.659v29.05l-.015 163.91a316.242 316.242 0 0 0 56.082 180.286l-58.573 58.574 41.087 41.087 54.883-54.884a318.978 318.978 0 0 0 42.685 35.676 316.47 316.47 0 0 0 90.893 43.834l8.287 2.467 8.288-2.467a317.314 317.314 0 0 0 227.057-304.512l-.015-163.97z" fill="#fff"/><path d="m457.112 28.569h-412.553l-.015 164.149a287.623 287.623 0 0 0 65.533 183.202l347.035-347.034z" fill="url(#b)"/><path d="m250.835 469.566c119.299-35.504 206.292-146.017 206.292-276.848l-.015-163.832-347.035 347.034a289.094 289.094 0 0 0 140.758 93.646z" fill="#fff"/><path d="m111.95 328.684-2.545 2.545 7.011 7.011-1.616 1.616-7.012-7.011-2.545 2.546-1.313-1.313 6.707-6.707zm10.91-1.738-3.636-8.162 2.323-2.323 8.324 8.323-1.515 1.516-6.506-6.506-.04.04 4.021 8.991-1.131 1.131-8.992-4.02-.041.04 6.506 6.506-1.515 1.516-8.324-8.325 2.344-2.343z" fill="#1a2857"/><path d="m200.694 192.496 5.264 16.201-13.781-10.011-13.781 10.011 5.261-16.201-13.778-10.013h17.037l5.261-16.205 5.263 16.205h17.034zm-79.307 0 13.781-10.013h-17.033l-5.265-16.205-5.262 16.205h-17.04l13.784 10.013-5.265 16.201 13.783-10.011 13.777 10.011zm36.402 42.741-5.265-16.202-5.263 16.202h-17.036l13.779 10.014-5.262 16.199 13.782-10.01 13.778 10.01-5.261-16.199 13.779-10.014zm-51.55-106.183-15.626-35.584h-.495v47.491a1.175 1.175 0 0 1 -1.239 1.246h-14.009a1.196 1.196 0 0 1 -.904-.343 1.183 1.183 0 0 1 -.345-.903v-81.84a1.175 1.175 0 0 1 1.248-1.24h14.755a1.897 1.897 0 0 1 1.979 1.24l21.331 48.112h.502l20.951-48.112a1.906 1.906 0 0 1 1.988-1.24h14.506a1.164 1.164 0 0 1 1.236 1.24v81.84a1.17 1.17 0 0 1 -1.236 1.246h-14.014a1.168 1.168 0 0 1 -.898-.346 1.166 1.166 0 0 1 -.337-.9v-47.491h-.498l-15.624 35.584a2.383 2.383 0 0 1 -2.365 1.618h-8.554a2.372 2.372 0 0 1 -2.351-1.618zm58.468 13.153h54.935a1.189 1.189 0 0 0 .9-.345 1.168 1.168 0 0 0 .342-.901v-13.764a1.174 1.174 0 0 0 -1.242-1.24h-37.201a.646.646 0 0 1 -.559-.186.64.64 0 0 1 -.159-.258.641.641 0 0 1 -.027-.301v-66.091a1.164 1.164 0 0 0 -.753-1.166 1.166 1.166 0 0 0 -.486-.073h-15.75a1.17 1.17 0 0 0 -1.238 1.239v81.84c-.01.166.015.332.073.487a1.189 1.189 0 0 0 .679.682c.155.06.321.086.486.077zm101.926-50.723-4.462-.62c-9.671-1.36-13.144-4.46-13.144-9.298 0-5.336 3.842-9.175 11.284-9.175 6.946 0 13.141 2.23 19.592 6.448a1.238 1.238 0 0 0 1.396-.023c.135-.096.25-.217.338-.357l7.566-11.282c.618-.87.495-1.36-.244-1.858-7.073-5.457-17.491-8.804-28.648-8.804-18.232 0-29.884 10.293-29.884 25.792 0 14.881 9.544 22.939 26.662 25.297l4.463.617c10.043 1.365 13.018 4.468 13.018 9.429 0 5.947-4.958 10.043-13.763 10.043-8.927 0-16.488-4.215-22.072-8.68a1.243 1.243 0 0 0 -1.86.122l-9.426 10.79a1.53 1.53 0 0 0 .124 2.11c6.572 6.326 19.342 11.53 32.492 11.53 21.821 0 33.112-11.284 33.112-26.533 0-15.256-9.181-23.191-26.544-25.548z" fill="#fff"/><path d="m466.797 28.568-.001-9.684h-431.92l-.001 9.684-.015 164.15a297.22 297.22 0 0 0 60.372 180.017c.61.804 1.233 1.597 1.85 2.394l-56.69 56.691 13.695 13.695 55.381-55.381a299.495 299.495 0 0 0 53.264 47.536 296.885 296.885 0 0 0 85.341 41.178l2.762.823 2.763-.823a296.885 296.885 0 0 0 85.341-41.178 299.542 299.542 0 0 0 67.5-64.935 297.22 297.22 0 0 0 60.373-180.017zm-356.123 332.475a277.843 277.843 0 0 1 -56.445-168.325l.014-154.465h379.715l-323.069 323.069c-.071-.094-.144-.185-.215-.279zm321.832-77.998a277.92 277.92 0 0 1 -41.509 77.998 280.21 280.21 0 0 1 -63.141 60.744 277.606 277.606 0 0 1 -77.021 37.66 277.594 277.594 0 0 1 -77.019-37.66 280.126 280.126 0 0 1 -50.62-45.381l324.234-324.233.012 140.545a278.631 278.631 0 0 1 -14.936 90.327z" fill="url(#a)"/></svg>