<svg viewBox="0 0 800 800" xmlns="http://www.w3.org/2000/svg"><path d="m500.69 23.76h-198.3l-164.39 137.09v480.82l164.39 137.09h198.3l164.39-137.09v-480.82z" fill="#ece83a"/><g fill="#1f1646"><path d="m494.1 41.86 152.83 127.44v463.92l-152.83 127.44h-185.1l-152.85-127.44v-463.92l152.85-127.44zm3.28-9.07h-191.68l-158.61 132.27v472.4l158.61 132.27h191.68l158.62-132.27v-472.4l-3.26-2.72z"/><path d="m365.18 490.15v-146.44l68.96 146.44h40.11l-145.43-308.84v308.84z"/><path d="m437.9 96.06v146.44l-68.96-146.44h-40.12l145.43 308.83v-308.83z"/><path d="m265.21 145.32h27.26v295.56h-27.26z"/><path d="m210.68 194.58h18.18v197.04h-18.18z"/><path d="m510.61 145.32h27.26v295.56h-27.26z" transform="matrix(-1 0 0 -1 1048.48 586.21)"/><path d="m574.22 194.58h18.18v197.04h-18.18z" transform="matrix(-1 0 0 -1 1166.62 586.21)"/><path d="m396 671.56-20.18-20.19v-14.63h7.42v14.63h12.18v-19.58l-6.3-6.3h-19.17l-6.3 6.3v25.69l19.94 19.94v17.42h-7.65v-17.42h-12.29v22.83l6.3 6.3h19.75l6.3-6.3z"/><path d="m407.66 631.79v68.46l6.3 6.3h19.17l6.3-6.3v-22.83h-12.06v17.42h-7.31v-58.1h7.31v14.63h12.06v-19.58l-6.3-6.3h-19.17z"/><path d="m355.02 572.43-20.17-20.19v-14.62h7.41v14.62h12.18v-19.57l-6.31-6.3h-19.16l-6.3 6.3v25.68l19.94 19.94v17.42h-7.65v-17.42h-12.29v22.83l6.3 6.3h19.75l6.3-6.3z"/><path d="m240.22 526.37 14.84 44.27v-44.27h12.17v81h-11l-15.31-44.16v44.16h-12.07v-81z"/><path d="m378.85 526.37v33.41h7.89v-33.41h12.17v81h-12.17v-35.88h-7.89v35.93h-12.17v-81z"/><path d="m421 526.37 7.4 63.78 7.39-63.78h11.8l-10.87 81h-16.62l-10.87-81z"/><path d="m470 526.37v81h-12.08v-81z"/><path d="m494.09 526.37v69.11h11.49v11.94h-23.67v-81z"/><path d="m527 526.37v69.11h11.5v11.94h-23.65v-81z"/><path d="m574.22 538.31h-14.22v21.47h13.43v11.71h-13.43v24h14.26v11.94h-26.47v-81h26.43z"/><path d="m302.52 607.42h11.8l-10.87-81h-16.65l-10.86 81h11.8l1.57-13.54h11.69zm-11.86-25.25 4.47-38.53 4.46 38.53z"/></g></svg>