<svg viewBox="0 0 800 800" xmlns="http://www.w3.org/2000/svg"><path d="m673.88 198.36s-31.15 4.69-77.14 5.92c0 0 5.86-56.88 3.34-135.25l-200-70.5-199.97 70.47c-2.52 78.37 3.35 135.25 3.35 135.25-46-1.23-77.13-5.92-77.13-5.92s21.86 37.65 33 73.53c-15.75 6.34-28.43 13-28.43 13v191.6s14.91-8.87 33.34-17.22a193.47 193.47 0 0 1 -9.46 20.52s173 86 245.3 320.24c72.26-234.23 245.3-320.24 245.3-320.24a192.37 192.37 0 0 1 -9.38-20.52c18.41 8.35 33.32 17.22 33.32 17.22v-191.61s-12.67-6.62-28.42-13c11.1-35.85 32.98-73.49 32.98-73.49zm-15.26 93v167s-14.11-7.8-39.37-17.78c5.51 22.52 11.84 34.66 11.84 34.66s-159.26 83.4-231 292c-71.73-208.57-231-292-231-292s6.35-12.14 11.85-34.66c-25.25 10-39.38 17.78-39.38 17.78v-167s11.13-5.65 31.09-13.32a431.53 431.53 0 0 0 -27.33-66.78s28.38 3.28 69.74 3.93a1142.27 1142.27 0 0 1 -4.51-138.6l189.55-66.75 189.53 66.78a1138.33 1138.33 0 0 1 -4.5 138.6c41.37-.65 69.73-3.93 69.73-3.93a432.15 432.15 0 0 0 -27.32 66.78c19.96 7.67 31.08 13.32 31.08 13.32z" fill="#fff"/><path d="m195.23 269.88c-3.68-11.44-7.61-22.15-11.51-31.83q16.92.82 33.95 1.12c-.3-2.51-.58-5-.87-7.54-17.43-.23-32.56-.91-44.55-1.67 4.9 11.39 10.59 25.91 15.87 42.4 2.29-.81 4.66-1.65 7.11-2.48z" fill="#fff"/><path d="m592.67 430.94a262.85 262.85 0 0 0 8.74 34.21c-43.65 28-138.44 101.2-201.31 238.26-62.87-137.06-157.67-210.25-201.31-238.26a263 263 0 0 0 8.73-34.21c-2.84.94-5.59 1.91-8.26 2.83a245.77 245.77 0 0 1 -9.51 34.55c37.37 23.19 145.25 100.46 210.35 253.28 65-152.82 173-230.09 210.35-253.28a244.2 244.2 0 0 1 -9.52-34.55c-2.67-.92-5.41-1.89-8.26-2.83z" fill="#fff"/><path d="m605 269.88c2.45.83 4.82 1.67 7.13 2.48 5.27-16.49 11-31 15.86-42.4-12 .76-27.11 1.44-44.55 1.67-.29 2.54-.57 5-.87 7.54 11.34-.18 22.68-.57 33.94-1.12-3.93 9.68-7.87 20.39-11.51 31.83z" fill="#fff"/><path d="m252.25 253.49c-6.64-45.68-10.34-96.83-9.69-154l147.92-52.06-2.78 36.47-1.62 2.25a51.3 51.3 0 0 0 -15.21 9 23.74 23.74 0 0 0 -7.26 13.16c-17.7 3.51-33.31 9.85-41.24 19.14-12.4 5.1-26.61 13.38-26.61 26.12 0 11.1 11.14 18.85 21.53 24 0 14.22 20.41 21.18 31.36 24.24l4.94 35.71c2.71-.21 5.42-.42 8.16-.58l-5.83-41.67c-16.54-3.95-30.48-10.39-30.48-17.7a7.83 7.83 0 0 1 1.68-4.68c-13.5-5.24-21.62-11.94-21.62-19.27s8.25-14.11 21.93-19.37c6.15-8.79 23.19-15.94 45.34-19.21-4.14-6.44 3.55-13.8 3.55-13.8a40.72 40.72 0 0 1 14.82-8.24l4.55-6.28 2.84-39.63c1.52-5.55 3.12 0 3.12 0l2.87 39.63 3.48 4.84c12.82 3.72 17.87 10 17.87 10l-2.62-.18c-11.74 1.44-14.91 7.64-14.46 11.86 30.95 1.36 56.2 9.81 64 21 13.69 5.26 21.94 12 21.94 19.37s-8.12 14-21.62 19.27a7.83 7.83 0 0 1 1.68 4.68c0 7.31-13.93 13.75-30.48 17.7l-5.83 41.67c2.73.16 5.47.37 8.16.58l4.94-35.71c10.94-3.06 31.36-10 31.36-24.24 10.39-5.1 21.55-12.85 21.55-24 0-12.74-14.22-21-26.64-26.12-7.93-9.29-23.53-15.63-41.23-19.14a23.63 23.63 0 0 0 -7.27-13.16 51 51 0 0 0 -15.2-9l-1.65-2.24-2.77-36.47 147.93 52.09c.62 57.14-3.08 108.29-9.71 154 3.58.84 7.07 1.73 10.51 2.59 7.08-48.48 10.94-103 10-164.25l-168.36-59.38-168.38 59.35c-.92 61.25 2.94 115.77 10 164.25 3.45-.86 6.95-1.75 10.53-2.59z" fill="#fff"/><path d="m362.22 400.39c-3.23 37.44-9.3 76.91-16.39 115-17.57-26.18-36.94-61.17-54.12-106.2-3.67.68-7.3 1.39-10.87 2.1 49.74 131.71 119.26 181.6 119.26 181.6s69.52-49.89 119.26-181.63c-3.58-.71-7.2-1.42-10.87-2.1-17.18 45-36.55 80-54.13 106.2-7.09-38.06-13.15-77.53-16.38-115-3-.15-6-.34-9-.49 3.57 42 11.49 89.94 18.17 125.9-4.46 6.26-8.75 11.89-12.82 17-4.65-23.37-9.57-48.58-13.24-68.42-.84-4.58-2.06-7.25-4.08-7-1.61.21-2.39 2.33-2.57 7.54l-6.32 96.77c-5.07 4.82-8 7.12-8 7.12s-3-2.3-8-7.12l-6.32-96.77c-.17-5.21-1-7.33-2.56-7.54-2-.29-3.24 2.38-4.09 7-3.66 19.84-8.59 45.05-13.24 68.42-4.06-5.07-8.36-10.7-12.81-17 6.68-36 14.58-83.94 18.16-125.9-3.07.18-6.06.37-9.04.52z" fill="#fff"/><path d="m459.52 172.16c2.45-6.54-.72-13.69-6.41-19.13a3.59 3.59 0 0 1 2-4.53 71.77 71.77 0 0 1 8.48 7.88c6.78-17.86-31.28-38.38-54.17-22.65a72 72 0 0 1 38 9.53c.85 2.78-2 4.27-2 4.27-7.95-4.11-17.47-5.05-24.47.31-.03 0 24.79 7.1 38.57 24.32z" fill="#fff"/><path d="m428.71 236.37 2.94-35.57s.89-4-3.85-3.06l-9.22 1.49a3.59 3.59 0 0 0 -3.26 4.26v32.41q6.75.17 13.39.47z" fill="#fff"/><path d="m372.41 197.74c-4.76-.89-3.86 3.06-3.86 3.06l2.93 35.57q6.63-.31 13.4-.47v-32.41a3.6 3.6 0 0 0 -3.26-4.26z" fill="#fff"/><path d="m158 301.73v130.65s103.38-49.6 242.12-49.6 242.11 49.6 242.11 49.6v-130.65s-103.39-49.63-242.13-49.63-242.1 49.63-242.1 49.63zm109.8 1.27 6.27-1.21c0 2.39.9 2.41 2.72 2.07l7.68-1.49c1.34-.26 2.69-.71 2.69-2.44 0-2-.74-2-8.82-.39-9.44 1.83-10.51.79-10.51-4.79 0-4.14.33-7.38 8.24-8.93l8.77-1.7c7.24-1.41 7.92 1.21 7.92 5.19v.73l-6.29 1.23c0-1.68-.15-2.33-3.05-1.78l-6.95 1.36c-1.41.29-2.38 1-2.38 2.23 0 2 .77 1.88 7.51.54 9.74-1.93 12-1.7 12 4.93 0 6.12-1.87 7.51-10.21 9.11l-7.6 1.49c-5.72 1.1-8 .34-8-4.58zm-81.88 99.36c-6 2.23-13.24 2.36-17.87.79l3.4-13.17a21.23 21.23 0 0 0 14.83 0c4.34-1.6 6-4.4 6-7.18 0-3-1.38-4.45-9.47-4.94-9.34-.58-12.59-5.21-12.59-12 0-8.3 6.3-18.66 18.67-23.24 5.77-2.1 11.71-2.15 14.83-1l-3.12 12.93c-3-1.1-8-1.73-11.71-.34-4.49 1.68-6.3 4.58-6.3 6.91 0 3.72 2.67 3.95 9.33 4.53 9.91.84 12.88 4.87 12.88 12.15 0 9.03-6.16 19.92-18.88 24.58zm47-17.25c-15.36 4-25.16-5.78-25.16-22s10.27-31.31 25.63-35.29 25.15 5.76 25.15 22.1-10.34 31.21-25.62 35.21zm70.38-66.91v27.25c0 15.47-7.5 24.82-20.13 27s-19.67-4.42-19.67-19.6v-31.62l10.9-2.23v31c0 7.8 2.82 12 9 10.83s9-6.36 9-14.21v-31.07l15.12-2.32zm9-38.63 22.39-2.75v5.29l-16.11 2v3.64l15.26-1.86-2.17 5-13.09 1.62v3.64l16.42-2.09v5.5l-22.75 2.78zm42.65 81.85-34.08-26.91 5.13 7.59v20.9l-12.84 1.52v-53.81l29.07 24.14v-26l12.7-1zm3.64-63.71-7 .52 11.09-23.53 8.15-.58 11.27 22-7 .47-1.94-3.9-12.73.91zm42.81 42.59c0 14-10.87 18.9-16.6 18.74-10.51.37-18.69.44-18.69.44v-46.91l-4.56-5.18s13.18-.84 24.81-1c7.3.37 15 3.09 15 16.7zm43.15-21.21-20.55-1.18v10.13l17.31 1.55-5.84 8.84-11.51-1v11.07l20.6 1.65v10.63l-32.73-1.91v-26.87l-6-5.58 6 .61v-20.5l32.73 1.7zm171.45 28.56a44 44 0 0 1 15.68 10.47l-3.56 9.42a35.94 35.94 0 0 0 -12-8c-9.39-3.4-15.19.71-15.19 10.84a22.72 22.72 0 0 0 15.19 21.91 20.39 20.39 0 0 0 12.53.52l3.49 12c-4.38 1.55-10.41 1.29-16.16-.81-16.35-6-27.45-22-27.45-38.11s11.12-24.21 27.47-18.24zm-59.34 2.59v-23.19l32.34 8.64v11.7l-20.48-5.48v11.47l17.71 4.74-5.89 7.95-11.82-3.16v22.25l-11.86-3.16v-26.7l-6-6.64zm-51.66-67 22.37 4.37v5.23l-16.1-3.11v3.66l15.25 2.94-2.61 4.16-12.64-2.41v3.66l16.48 3.2v5.44l-22.75-4.38zm6.5 64.16c-9-5.53-12.27-11.55-12.4-17.91-.12-7.72 5.8-14 17.71-11.67a34.16 34.16 0 0 1 14.36 6.91l-2.81 10.39c-3-2.67-7.73-5.84-11.34-6.55-4.33-.86-6 .89-6 3.07.06 3.45 2.65 5.1 9.12 9.19 9.61 6.07 12.55 11.38 12.67 18.16.16 8.43-5.62 15.26-17.9 12.85-5.77-1.12-12.79-4.86-17.28-8.79l3.06-10.45c4.16 3.9 9.57 7 14.38 7.94 4.17.81 5.74-.89 5.7-3.49s-1.39-4.9-9.27-9.66zm-16.95 19.6-13.42-2.31-9.26-20.81-5.49-.83v19.81l-11.48-1.26v-46.75l-5.66-6.18 27.12 3c10.53 1.54 16 10.16 16 19.13 0 7.05-4 11.26-8.7 12.73zm-24.09-89.08 6.28.92v16.88l14.1 2v5.87l-20.38-2.86zm-40.38-3.38 23.92 1.7v5.65l-8.82-.63v17.1l-6.27-.45v-17.09l-8.84-.58zm-12.24 5.19-8.81-.19v17.12l-6.28-.13v-17.07l-8.81-.13v-5.68l23.9.44z" fill="#fff"/><path d="m233.11 339.38c-7.84 2.06-13.11 10.62-13.11 20.54s5.28 15.76 13.12 13.75 13.13-10.66 13.13-20.58-5.25-15.76-13.14-13.71z" fill="#fff"/><path d="m377.34 317.07v31.13l5.06-.24c6.81.24 8.44-3.93 8.44-7.85v-14.35c0-10.76-6.97-8.24-13.5-8.69z" fill="#fff"/><path d="m474.5 322.39-8.12-1.21v11.76l8.47 1.25a7.25 7.25 0 0 0 1.52.08c2.87-.18 4.42-1.86 4.48-4.89a7 7 0 0 0 -6.35-6.99z" fill="#fff"/><path d="m362.75 288.54 8.02-.6-4.06-8.25z" fill="#fff"/><path d="m252.25 253.49a644.24 644.24 0 0 1 101.34-16l-4.94-35.71c-10.95-3.06-31.36-10-31.36-24.24-10.39-5.1-21.53-12.85-21.53-24 0-12.74 14.21-21 26.61-26.12 7.93-9.29 23.54-15.63 41.24-19.14a23.74 23.74 0 0 1 7.26-13.16 51.3 51.3 0 0 1 15.21-9l1.62-2.25 2.78-36.47-147.92 52.12c-.65 57.14 3.05 108.29 9.69 153.97z" fill="#638c1c"/><path d="m557.66 99.52-147.93-52.09 2.77 36.47 1.62 2.25a51 51 0 0 1 15.2 9 23.63 23.63 0 0 1 7.27 13.16c17.7 3.51 33.3 9.85 41.23 19.14 12.42 5.1 26.64 13.38 26.64 26.12 0 11.1-11.16 18.85-21.55 24 0 14.22-20.42 21.18-31.36 24.24l-4.94 35.71a643.86 643.86 0 0 1 101.34 16c6.63-45.71 10.33-96.86 9.71-154z" fill="#638c1c"/><path d="m345.83 515.36c7.09-38.06 13.16-77.53 16.39-115a607.07 607.07 0 0 0 -70.51 8.77c17.18 45.06 36.55 80.05 54.12 106.23z" fill="#638c1c"/><path d="m454.36 515.36c17.58-26.18 36.95-61.17 54.13-106.2a606.8 606.8 0 0 0 -70.49-8.77c3.21 37.44 9.27 76.91 16.36 114.97z" fill="#638c1c"/><path d="m582.53 239.17c-.95 7.73-2 15.26-3.06 22.7 9.2 2.67 17.73 5.39 25.49 8 3.68-11.44 7.62-22.15 11.51-31.83-11.26.56-22.6.96-33.94 1.13z" fill="#236092"/><path d="m217.67 239.17q-17-.27-33.95-1.12c3.9 9.68 7.83 20.39 11.51 31.83 7.77-2.62 16.3-5.34 25.5-8-1.1-7.45-2.13-14.98-3.06-22.71z" fill="#236092"/><path d="m541 416.07c-56.28 151.56-140.9 203.42-140.9 203.42s-84.62-51.86-140.92-203.42c-19.28 4.64-36.61 9.79-51.66 14.87a263 263 0 0 1 -8.73 34.21c43.64 28 138.44 101.2 201.31 238.26 62.9-137.06 157.66-210.25 201.31-238.26a262.85 262.85 0 0 1 -8.74-34.21c-15.04-5.08-32.37-10.23-51.67-14.87z" fill="#236092"/><g fill="#1d252c"><path d="m658.62 291.39s-11.12-5.65-31.08-13.32a432.15 432.15 0 0 1 27.32-66.78s-28.36 3.28-69.73 3.93a1138.33 1138.33 0 0 0 4.5-138.6l-189.53-66.78-189.54 66.78a1142.27 1142.27 0 0 0 4.51 138.6c-41.36-.65-69.74-3.93-69.74-3.93a431.53 431.53 0 0 1 27.33 66.78c-20 7.67-31.09 13.32-31.09 13.32v167s14.13-7.8 39.38-17.78c-5.5 22.52-11.85 34.66-11.85 34.66s159.27 83.4 231 292c71.73-208.57 231-292 231-292s-6.33-12.14-11.84-34.66c25.26 10 39.37 17.78 39.37 17.78zm-76.09-52.22c.3-2.51.58-5 .87-7.54 17.44-.23 32.57-.91 44.55-1.67-4.89 11.39-10.59 25.91-15.86 42.4-2.31-.81-4.68-1.65-7.13-2.48-7.76-2.62-16.29-5.34-25.49-8 1.09-7.45 2.11-14.98 3.06-22.71zm-350.81-147.34 168.38-59.35 168.38 59.35c.92 61.25-2.94 115.77-10 164.25-3.44-.86-6.93-1.75-10.51-2.59a643.86 643.86 0 0 0 -101.34-16c-2.69-.21-5.43-.42-8.16-.58l5.83-41.67c16.55-3.95 30.48-10.39 30.48-17.7a7.83 7.83 0 0 0 -1.68-4.68c13.5-5.24 21.62-11.94 21.62-19.27s-8.25-14.11-21.94-19.37c-7.77-11.15-33-19.6-64-21-.45-4.22 2.72-10.42 14.46-11.86l2.62.18s-5.05-6.31-17.87-10l-3.48-4.81-2.87-39.63s-1.6-5.55-3.12 0l-2.84 39.63-4.54 6.27a40.72 40.72 0 0 0 -14.82 8.19s-7.69 7.36-3.55 13.8c-22.15 3.27-39.19 10.42-45.34 19.21-13.68 5.26-21.93 12-21.93 19.37s8.12 14 21.62 19.27a7.83 7.83 0 0 0 -1.68 4.68c0 7.31 13.94 13.75 30.48 17.7l5.83 41.67c-2.74.16-5.45.37-8.16.58a644.24 644.24 0 0 0 -101.34 16c-3.58.84-7.08 1.73-10.52 2.59-7.07-48.46-10.93-102.98-10.01-164.23zm136.83 109s-.9-4 3.86-3.06l9.21 1.49a3.6 3.6 0 0 1 3.26 4.26v32.38q-6.76.16-13.4.47zm84.56-47.83c5.69 5.44 8.86 12.59 6.41 19.13-13.78-17.22-38.6-24.32-38.6-24.32 7-5.36 16.52-4.42 24.47-.31 0 0 2.87-1.49 2-4.27a72 72 0 0 0 -38-9.53c22.89-15.73 60.95 4.79 54.17 22.65a71.77 71.77 0 0 0 -8.48-7.88 3.59 3.59 0 0 0 -1.97 4.53zm-34.53 46.2 9.22-1.49c4.74-.89 3.85 3.06 3.85 3.06l-2.94 35.57q-6.63-.31-13.39-.47v-32.38a3.59 3.59 0 0 1 3.26-4.26zm-246.33 30.8c12 .76 27.12 1.44 44.55 1.67.29 2.54.57 5 .87 7.54.93 7.73 2 15.26 3.06 22.7-9.2 2.67-17.73 5.39-25.5 8-2.45.83-4.82 1.67-7.11 2.48-5.28-16.52-10.97-31.04-15.87-42.39zm438.2 238.36c-37.38 23.15-145.3 100.42-210.35 253.24-65.1-152.82-172.98-230.09-210.35-253.28a245.77 245.77 0 0 0 9.51-34.55c2.67-.92 5.42-1.89 8.26-2.83 15-5.08 32.38-10.23 51.66-14.87 56.3 151.56 140.92 203.42 140.92 203.42s84.62-51.86 140.9-203.42c19.29 4.64 36.62 9.79 51.66 14.87 2.85.94 5.59 1.91 8.26 2.83a244.2 244.2 0 0 0 9.53 34.55zm-244.57 74.4c4.65-23.37 9.58-48.58 13.24-68.42.85-4.58 2.06-7.25 4.09-7 1.6.21 2.39 2.33 2.56 7.54l6.32 96.77c5.06 4.82 8 7.12 8 7.12s2.94-2.3 8-7.12l6.32-96.77c.18-5.21 1-7.33 2.57-7.54 2-.29 3.24 2.38 4.08 7 3.67 19.84 8.59 45.05 13.24 68.42 4.07-5.07 8.36-10.7 12.82-17-6.68-36-14.6-83.94-18.17-125.9 3 .15 6 .34 9 .49a606.8 606.8 0 0 1 70.51 8.77c3.67.68 7.29 1.39 10.87 2.1-49.71 131.78-119.23 181.67-119.23 181.67s-69.52-49.89-119.26-181.63c3.57-.71 7.2-1.42 10.87-2.1a607.07 607.07 0 0 1 70.51-8.77c3-.15 6-.34 9-.49-3.58 42-11.48 89.94-18.16 125.9 4.46 6.26 8.76 11.89 12.82 16.96zm276.33-110.38s-103.37-49.6-242.11-49.6-242.1 49.6-242.1 49.6v-130.65s103.36-49.63 242.1-49.63 242.11 49.63 242.11 49.63z"/><path d="m335.02 294.06-16.47 2.05v-3.64l13.09-1.62 2.17-4.98-15.26 1.86v-3.64l16.11-1.96v-5.29l-22.39 2.75v22.75l22.75-2.78z"/><path d="m233.39 327.83c-15.36 4-25.63 19-25.63 35.29s9.8 26 25.16 22 25.62-19 25.62-35.2-9.87-26.07-25.15-22.09zm-.28 45.84c-7.84 2-13.12-3.85-13.12-13.75s5.28-18.48 13.12-20.54 13.13 3.76 13.13 13.71-5.24 18.51-13.13 20.58z"/><path d="m292.4 346.6c0 7.85-2.82 13.11-9 14.21s-9-3-9-10.83v-30.98l-10.9 2.27v31.68c0 15.18 7 21.8 19.67 19.6s20.13-11.57 20.13-27v-27.33l4.22-5-15.12 2.32z"/><path d="m191.92 365.63c-6.66-.58-9.33-.81-9.33-4.53 0-2.33 1.81-5.23 6.3-6.91 3.75-1.39 8.68-.76 11.71.34l3.12-12.93c-3.12-1.1-9.06-1.05-14.83 1-12.37 4.58-18.67 14.94-18.67 23.24 0 6.81 3.25 11.44 12.59 12 8.09.49 9.47 2 9.47 4.94 0 2.78-1.66 5.58-6 7.18a21.23 21.23 0 0 1 -14.83 0l-3.4 13.17c4.63 1.57 11.86 1.44 17.87-.79 12.72-4.66 18.88-15.55 18.88-24.6 0-7.24-2.97-11.27-12.88-12.11z"/><path d="m490.84 297.7-14.1-1.96v-16.88l-6.28-.92v22.77l20.38 2.86z"/><path d="m527.75 304.93-16.48-3.2v-3.66l12.64 2.41 2.61-4.16-15.25-2.94v-3.66l16.1 3.11v-5.23l-22.37-4.37v22.72l22.75 4.42z"/><path d="m275.8 309.17 7.6-1.49c8.34-1.6 10.21-3 10.21-9.11 0-6.63-2.27-6.86-12-4.93-6.74 1.34-7.51 1.42-7.51-.54 0-1.23 1-1.94 2.38-2.23l6.95-1.36c2.9-.55 3.05.1 3.05 1.78l6.29-1.23v-.73c0-4-.68-6.6-7.92-5.19l-8.77 1.7c-7.91 1.55-8.24 4.79-8.24 8.93 0 5.58 1.07 6.62 10.51 4.79 8.08-1.57 8.82-1.6 8.82.39 0 1.73-1.35 2.18-2.69 2.44l-7.68 1.49c-1.82.34-2.7.32-2.72-2.07l-6.28 1.19v1.57c0 4.94 2.28 5.7 8 4.6z"/><path d="m342.22 334.85-29.07-24.14v53.85l12.84-1.52v-20.94l-5.16-7.57 34.09 26.91v-53.61l-12.7 1.02z"/><path d="m515.08 360.53c-4.81-1-10.22-4-14.38-7.94l-3.06 10.41c4.49 3.93 11.51 7.67 17.28 8.79 12.28 2.41 18.06-4.42 17.9-12.85-.12-6.78-3.06-12.09-12.67-18.16-6.47-4.09-9.06-5.74-9.12-9.19 0-2.18 1.66-3.93 6-3.07 3.61.71 8.38 3.88 11.34 6.55l2.81-10.39a34.16 34.16 0 0 0 -14.36-6.91c-11.91-2.33-17.83 3.95-17.71 11.67.13 6.36 3.36 12.38 12.4 17.91 7.88 4.76 9.22 6.91 9.28 9.65s-1.54 4.34-5.71 3.53z"/><path d="m438.92 297.91 6.27.45v-17.1l8.82.63v-5.65l-23.93-1.68v5.68l8.84.58z"/><path d="m411.79 327.05-6.03-.61 6.03 5.58v26.83l32.73 1.91v-10.63l-20.6-1.65-.04-11.07 11.51 1.02 5.84-8.84-17.31-1.55.03-10.13 20.57 1.21v-10.87l-32.73-1.7z"/><path d="m393.94 279.33 8.81.13v17.09l6.28.13v-17.12l8.82.19v-5.66l-23.91-.44z"/><path d="m616 404c5.75 2.1 11.78 2.36 16.16.81l-3.49-12a20.39 20.39 0 0 1 -12.53-.52 22.72 22.72 0 0 1 -15.14-21.95c0-10.13 5.8-14.24 15.19-10.84a35.94 35.94 0 0 1 12 8l3.56-9.42a44 44 0 0 0 -15.75-10.43c-16.35-6-27.45 2-27.45 18.19s11.1 32.16 27.45 38.16z"/><path d="m492.33 330.76c0-9-5.44-17.59-16-19.13l-27.12-3 5.66 6.18v46.79l11.48 1.28v-19.81l5.49.83 9.26 20.81 13.45 2.29-10.92-23.53c4.69-1.47 8.74-5.66 8.7-12.71zm-16 3.51a7.25 7.25 0 0 1 -1.52-.08l-8.47-1.25v-11.76l8.12 1.21a7 7 0 0 1 6.35 7c-.02 3.02-1.57 4.7-4.44 4.88z"/><path d="m375.06 296.58 7-.47-11.27-22-8.15.58-11.09 23.53 7-.52 1.83-4.14 12.73-.91zm-12.31-8 4-8.85 4 8.25z"/><path d="m556.66 381.96 11.85 3.2v-22.25l11.82 3.16 5.89-7.95-17.71-4.74v-11.47l20.48 5.47v-11.69l-32.33-8.64v23.19l-5.96-1.62 5.96 6.64z"/><path d="m386.33 306.39c-11.63.16-24.81 1-24.81 1l4.56 5.18v46.93s8.18-.07 18.69-.44c5.73.16 16.6-4.71 16.6-18.74v-17.23c0-13.61-7.74-16.33-15.04-16.7zm4.51 33.72c0 3.92-1.63 8.09-8.44 7.85l-5.06.24v-31.13c6.53.45 13.5-2.06 13.5 8.69z"/></g></svg>