<svg viewBox="0 0 800 800" xmlns="http://www.w3.org/2000/svg"><path d="m662.49 107.85c-3-.32-6.24-.67-9.74-1.15-53-7.32-81.7-29-112.11-52-33.11-25.01-70.64-53.36-140.64-53.36s-107.53 28.35-140.64 53.37c-30.41 23-59.13 44.68-112.12 52-3.49.48-6.7.83-9.74 1.15-12 1.28-43.73 4.66-43.73 38.14v327.8c0 83.36 26.21 153.5 77.91 208.47 50.86 54.06 125.81 92.8 222.77 115.11l5.55 1.28 5.55-1.28c97-22.32 171.92-61 222.77-115.11 51.7-55 77.91-125.11 77.91-208.47v-327.8c0-33.49-31.77-36.87-43.74-38.15z" fill="#fff"/><path d="m400 33.55c-59.25 0-89.39 22.77-121.3 46.89-32.36 24.45-65.83 49.73-127.11 58.19-3.86.53-7.4.92-10.75 1.27-15 1.6-15 2.66-15 6.19v327.91c0 74.93 23.28 137.67 69.2 186.49 46.09 49.03 115.04 84.51 204.96 105.43 89.86-20.93 158.81-56.4 205-105.46 45.82-48.82 69.1-111.56 69.1-186.46v-327.91c0-3.53 0-4.59-15-6.19-3.35-.35-6.88-.74-10.74-1.27-61.29-8.46-94.75-33.74-127.11-58.19-31.92-24.12-62.06-46.89-121.25-46.89z" fill="#ec1458"/><path d="m493.68 60.66v674.94q-42.17 18.3-93.74 30.33c-89.87-20.93-158.8-56.42-204.94-105.48-45.92-48.82-69.2-111.55-69.2-186.48v-327.87c0-3.54 0-4.61 15-6.21 3.35-.34 6.88-.73 10.74-1.26 61.28-8.46 94.76-33.76 127.1-58.19 31.93-24.13 62.05-46.89 121.3-46.89 42.38 0 69.85 11.63 93.74 27.11z" fill="#001544"/><path d="m472.56 153c-21-15.33-43.43-23.37-66.35-23.37h-1.41c-46 0-89.92 32.14-123.83 90.55-22.24 38.24-85.21 159.48-146.08 276.77-2.35 4.56-4.74 9.14-7.12 13.72a273.45 273.45 0 0 0 16.87 70.2c71.68-135.87 160.16-302.81 183.18-343.93 25.46-45.47 50.81-67.31 77.74-66.87 26.74-.5 52.07 21.4 77.53 66.87 3.25 5.79 7.78 14.06 13.38 24.38v-86.95a172.43 172.43 0 0 0 -23.91-21.37z" fill="#ec1458"/><path d="m177.25 344.8 21.21-38.37a647.5 647.5 0 0 0 -72.68 19.77v35q25.07-9 51.05-15.71z" fill="#ec1458"/><path d="m159 381.15q-16.84 5.39-33.26 11.76v35.67c3-1.25 6-2.46 9.06-3.66z" fill="#ec1458"/><path d="m318.24 332.8q8.08-.24 16.26-.24a620.51 620.51 0 0 1 162 21.06v-34.23a653.15 653.15 0 0 0 -160.71-20z" fill="#ec1458"/><path d="m408.7 378a601.09 601.09 0 0 0 -71.06-4.71c-2.12-.05-4.21-.05-6.36-.05q-17.52 0-34.86 1.05l-18 34.26-.65 1.25-111.87 213.2a243.64 243.64 0 0 0 23.87 31.72l130-247.41c3.85-.08 7.75-.13 11.63-.13 10.21 0 20.32.23 30.41.73l1.08.07-1 1.87-145.28 271.15a306.81 306.81 0 0 0 29 21.9l155.16-289.4 1.13-2.12a562.78 562.78 0 0 1 94.57 19.82v-35.41a600.07 600.07 0 0 0 -78-16.5c-3.25-.47-6.47-.89-9.77-1.29z" fill="#ec1458"/><path d="m660.67 125.18c-2.88-.31-6.48-.69-10.27-1.22-57.4-7.96-89.29-31.96-120.13-55.31-32.47-24.53-66.04-49.89-130.27-49.89s-97.81 25.37-130.3 49.92c-30.82 23.32-62.7 47.32-120.1 55.32-3.83.54-7.41.91-10.28 1.22-12.63 1.34-28.36 3-28.36 21v327.78c0 78.83 24.65 145 73.25 196.68s120.52 88.6 214.11 110.14l1.65.39 1.69-.39c93.59-21.55 165.63-58.6 214.1-110.14s73.24-117.81 73.24-196.68v-327.79c0-18.01-15.69-19.69-28.33-21.03zm13.3 21v327.82c0 74.88-23.26 137.58-69.15 186.36-46.1 49-115 84.48-204.82 105.39-89.8-20.91-158.71-56.37-204.82-105.39-45.88-48.76-69.18-111.46-69.18-186.36v-327.79c0-3.43 0-4.47 14.88-6.05 3.67-.39 7-.76 10.75-1.27 61.3-8.47 94.77-33.75 127.15-58.21 31.89-24.1 62-46.86 121.19-46.86s89.3 22.76 121.19 46.86c32.37 24.45 65.84 49.74 127.15 58.21 3.71.51 7.06.87 10.74 1.27 14.95 1.58 14.95 2.62 14.95 6.05z" fill="#001544"/><g fill="#fff"><path d="m515.32 244.68c0-41 9.21-56.7 40.67-56.7h4.78c31.46 0 40.67 15.67 40.67 56.7v12c0 37.92-8 53.83-33.13 56.46v-36.65c7.89-2.27 9.45-6.93 9.45-25.35v-1c0-22.49-4.78-25.6-18.06-25.6h-2.7c-13.16 0-18 3.11-18 25.6v1c0 18.42 1.56 23.08 9.45 25.35v36.61c-25.11-2.63-33.13-18.54-33.13-56.46z"/><path d="m516.52 323.3h83.73v35.88h-83.73z"/><path d="m516.52 403.45h58.25v-36h25.48v107.88h-25.48v-36h-58.25z"/><path d="m516.52 526.9h36.12l47.61-47.37v43.9l-24.64 23.21v1.19l24.64 23.08v39.24l-47.61-47.37h-36.12z"/><path d="m631.49 265.13c-3.37 0-4.92 2.73-4.92 13.12 0 8.61.95 11.21 3.46 11.21s3.1-1.82 3.6-12.17c.64-13.9 2.83-19.41 10-19.41s9.25 7.15 9.25 19.09-3 19.32-10.89 19.32v-8.2c3.51 0 4.37-3.51 4.37-12 0-8.06-.77-10-3.14-10s-2.92 1.92-3.46 11.21c-.69 12.58-1.37 20.37-9.44 20.37-8.52 0-10.25-8.06-10.25-19.87 0-13.07 2.23-20.87 11.44-20.87z"/><path d="m645.53 338.91v-15.49h-25v-8.2h25v-15.49h6.87v39.18z"/><path d="m627.39 397.27h-6.88v-32.81h31.89v8.2h-25z"/><path d="m636.5 400.6c10.57 0 16.36 6 16.36 20s-5.86 20.1-16.36 20.1-16.45-6.06-16.45-20.05 5.83-20.05 16.45-20.05zm0 31.9c6.47 0 9.48-3.29 9.48-11.85s-3-11.85-9.48-11.85-9.57 3.33-9.57 11.85 3.07 11.85 9.57 11.85z"/><path d="m620.05 465.07c0-14 5.33-20.05 16.45-20.05h15.9v8.2h-15.9c-4.46 0-9.57 1.23-9.57 11.85s5.15 11.85 9.57 11.85h15.9v8.2h-15.9c-11.07 0-16.45-6.06-16.45-20.05z"/><path d="m620.51 497.87v-8.2h31.89v8.2z"/><path d="m631.49 510.2c-3.37 0-4.92 2.74-4.92 13.13 0 8.61.95 11.21 3.46 11.21s3.1-1.83 3.6-12.17c.64-13.9 2.83-19.41 10-19.41s9.25 7.15 9.25 19.09-3 19.32-10.89 19.32v-8.2c3.51 0 4.37-3.51 4.37-12 0-8.07-.77-10-3.14-10s-2.92 1.91-3.46 11.21c-.69 12.58-1.37 20.37-9.44 20.37-8.52 0-10.25-8.07-10.25-19.87 0-13.08 2.23-20.87 11.44-20.87z"/><path d="m359.84 681.35c0 3.79 3.09 5.54 14.79 5.54 9.71 0 12.63-1.08 12.63-3.9 0-3-2.05-3.5-13.71-4.06-15.66-.72-21.87-3.18-21.87-11.24s8.06-10.43 21.52-10.43 21.8 3.39 21.8 12.28h-9.25c0-4-4-4.93-13.55-4.93-9.09 0-11.25.87-11.25 3.54s2.16 3.28 12.63 3.9c14.18.77 23 1.54 23 10.63 0 9.6-9.09 11.55-22.39 11.55-14.74 0-23.52-2.51-23.52-12.88z"/><path d="m425.31 657.26c14.32 0 21.51 5.44 22.43 15.82h-9.39c-.87-5.81-5.34-8.07-13-8.07-9.4 0-13.36 3.34-13.36 10.68s4 10.79 13.36 10.79c7.65 0 12.17-2.31 13-8.17h9.39c-.92 10.43-8.11 15.92-22.43 15.92-15.82 0-22.6-6.57-22.6-18.54s6.78-18.43 22.6-18.43z"/></g></svg>