<svg enable-background="new 0 0 400 400" viewBox="0 0 400 400" xmlns="http://www.w3.org/2000/svg"><circle cx="200.5" cy="200.5" fill="#061922" r="145.5"/><path d="m200.3 75.2c-73.6.4-129.5 62.5-124.8 134 4.4 66.9 60.8 117.4 126.1 116.5 65-.9 120.4-52.5 124-119 3.9-71-52-131.9-125.3-131.5zm-18.4 111.3-13 2.2v-50l13-4.6z" fill="#4d90cd"/><path d="m167.6 200.4-13 2.4v109l13 4.5z" fill="#061922"/><path d="m167.6 200.4-13 2.4v109l13 4.5z" fill="#061922"/><path d="m198.4 118.5v202.2c.7 0 1.4.1 2.1.1 9.8 0 19.4-1.2 28.7-3.4v-128.4l-14.3-2.4v-62.7l-6.5-2.1v-41.3c-1.8-.1-3.6-.2-5.4-.2v39.7z" fill="#fff"/><path d="m301.7 115.2c-2.6-3.1-5.3-6-8.2-8.8-23.9-23.6-56.8-38.2-93-38.2-36.3 0-69.1 14.6-93 38.2-2.9 2.8-5.6 5.8-8.2 8.8-19.5 23.1-31.2 52.8-31.2 85.4 0 3.4.1 6.7.4 10 .3 4.6.9 9.1 1.7 13.6.4 2.3.9 4.7 1.4 7 4.9 20.5 14.5 39.2 27.7 54.8 2.6 3.1 5.3 6 8.2 8.8 23.9 23.6 56.8 38.2 93 38.2s69.1-14.6 93-38.2c2.9-2.8 5.6-5.8 8.2-8.8 13.2-15.6 22.8-34.3 27.7-54.8.5-2.3 1-4.6 1.4-7 .8-4.4 1.4-9 1.7-13.6.2-3.3.4-6.6.4-10 0-32.6-11.8-62.4-31.2-85.4zm-221.6 85.3c0-28.2 9.6-54.9 27.4-76.4 13.1 15.9 21.8 34.7 25.4 54.9-18.7 5.7-36.4 13.8-52.8 23.8.1-.7 0-1.5 0-2.3zm3.9 30.5c-1.2-4.8-2.2-9.7-2.9-14.6 10.8-7.1 22.3-13.2 34.3-18.3 6.2-2.6 12.6-5 19-7 .2 3.1.4 6.2.4 9.4 0 10.4-1.3 20.7-3.9 30.5-4.4 16.7-12.3 32.3-23.4 45.9-11.1-13.5-19.1-29.1-23.5-45.9zm104.3-109.2-6.5 2.1v62.7l-14.3 2.4v127.3c-19.4-5.5-37.2-15.8-51.9-30.4 13.2-15.6 22.8-34.3 27.7-54.8 2.3-9.8 3.5-20 3.5-30.5 0-4.3-.2-8.6-.6-12.8 7.5-1.9 15-3.3 22.7-4.4v-12.2c-8.3 1.1-16.4 2.6-24.4 4.6-4.3-22.8-14.5-43.6-28.9-60.6 19.8-19.7 45.2-31.6 72.7-34.4zm12.2 199c-.7 0-1.4 0-2.1-.1v-202.2l-4.7 1.5v-39.6c2.2-.1 4.5-.2 6.8-.2 32 0 62.1 12.4 84.8 35-14.4 17.1-24.6 37.8-28.9 60.6-13.4-3.3-27.3-5.5-41.5-6.4v12.1c13.5.9 26.8 3 39.8 6.3-.4 4.2-.6 8.5-.6 12.8 0 10.5 1.2 20.7 3.5 30.5 4.8 20.5 14.5 39.2 27.7 54.8-22.7 22.5-52.8 34.9-84.8 34.9zm116.4-89.8c-4.4 16.7-12.3 32.3-23.4 45.9-11.2-13.5-19.1-29.1-23.5-45.9-2.6-9.8-3.9-20.1-3.9-30.5 0-3.2.1-6.3.4-9.4 6.4 2 12.8 4.4 19 7 12 5.1 23.5 11.2 34.3 18.3-.6 5-1.6 9.8-2.9 14.6zm3.9-28.2c-16.4-10-34.1-18.1-52.8-23.8 3.6-20.2 12.3-39 25.4-54.9 17.7 21.5 27.4 48.2 27.4 76.4.1.8 0 1.6 0 2.3z" fill="#ffd520"/></svg>