<svg enable-background="new 0 0 400 400" viewBox="0 0 400 400" xmlns="http://www.w3.org/2000/svg"><path d="m297.2 193.7c-.5-.6-49.6-58.3-86.8-161.7l-10-27.7-9.6 27.8c-.3 1-35.2 100.9-87 161.6l-5.8 6.8 5.8 6.7c.5.6 49.6 58.3 86.8 161.7l9.9 27.7 9.6-27.8c.3-1 35.2-100.9 87-161.6l5.8-6.8z" fill="#b4975a"/><path d="m206.2 33.5-5.7-15.8-5.5 15.9c-.3 1-35.4 101.7-87.8 163l-3.3 3.9 3.3 3.9c.5.6 50.1 58.8 87.7 163.1l5.7 15.8 5.5-15.9c.3-1 35.4-101.7 87.8-163l3.3-3.9-3.3-3.9c-.6-.6-50.2-58.8-87.7-163.1z" fill="#061922"/><path d="m228.2 235.7c-7-11.1-13.7-20.8-20.5-30.1h-26s16.1 18.7 34.6 50.4c3.9 6.7 7.9 13.9 11.9 21.7 4-7.8 8-15.1 11.9-21.8 18.5-31.7 34.6-50.3 34.6-50.3h-26c-6.9 9.6-13.6 19.1-20.5 30.1m-27.4 51.1c-17.9-37.6-33.1-60.2-48.3-81.3h-26s48.8 56.6 74.2 139.9c6.6-21.6 13.8-39 22.3-56.5-3.9-8-7.8-15.6-11.8-22.6-3.6 6.9-6.5 12.1-10.4 20.5" fill="#ce1141"/><path d="m186.6 168.7c7.3 2.8 12 9 13.7 22.6 1.7-13.6 6.4-19.8 13.7-22.6-7.3-2.8-12-9-13.7-22.6-1.6 13.6-6.4 19.8-13.7 22.6" fill="#b4975a"/><path d="m200.6 113.8c17.9 37.6 33.1 60.2 48.3 81.3h26s-48.8-56.6-74.2-139.9c-25.4 83.3-74.2 139.9-74.2 139.9h26c15.7-21.6 29.7-42 48.1-81.3" fill="#fff"/></svg>