<svg enable-background="new 0 0 400 400" viewBox="0 0 400 400" xmlns="http://www.w3.org/2000/svg"><path d="m201.3 53.8c-81-.4-147 64.9-147.5 145.9-.4 81 64.9 147 145.9 147.5 81 .4 147-64.9 147.5-145.9.4-81.1-64.9-147.1-145.9-147.5" fill="#fdb927"/><path d="m172.1 293c0 3.7-.3 8.8-2.9 10.6-1.3.9-3 .9-5.2 0-3.5-1.4-5-3.2-5-6.5v-46c0-2.5.7-3.8 2.6-4.6 1.3-.6 1.6-.7 1.6-.7l.6-.2v-4.7l-20.7 9.3v4.9l1.1-.7s.4-.2 1.7-.8c.7-.3 1.3-.4 1.5-.3s.5.5.5 2.1v39.2c0 1.5-.3 2-.5 2.2-.3.2-.8.1-1.5-.2-1.2-.5-1.6-.7-1.6-.7l-1.1-.6v5.1l34.9 13.3v-19.6l-5.9-2.2v1.1zm88.7.7c-.1.1-.3 0-.4 0-1.3-.7-2.5-5.1-3.2-8.1l-12.7-46.6-1.6.6c-1.7.6-3.2 2.6-3.7 5.1l-11.3 50.5c-1.5 6.5-2.5 11.3-5.4 12.3l-.5.2v5l14.2-5.1v-5l-1 .4c-1.5.5-2.6.6-3.1.2s-.5-1.4-.4-1.9c.1-.9.8-4.3 1.3-6.7l.7-3 13.1-4.7 1.3 4.7c.3 1.1 1.1 3.5 1.3 4.1.4 1.3-1.4 2.6-3.1 3.3l-.5.2v5l16.2-5.8v-5zm-25.6-9.6 5.1-22.7 4.8 19.1z" fill="#552583"/><path d="m201.2 61.8c-76.6-.4-139 61.4-139.4 137.9-.4 76.6 61.4 139 137.9 139.4 76.6.4 139-61.4 139.4-137.9.5-76.6-61.3-139-137.9-139.4zm122.6 129.2c-26.5-25-61.6-24.7-76.6-23.1l13.6-5-4.6-10.4 13.4 7.1 8.4-3.1-4.8-10.7 13.9 7.4 23.7-8.8c7.1 14.2 11.7 29.9 13 46.6zm-17.7-54.9c-30.1-11.3-58.9-1.8-73.9 5.2l5.8-7.1-9.3-6.6 15.2-.7 5.7-7-9.6-6.8 15.7-.7 12.5-15.4c15.4 10.1 28.3 23.5 37.9 39.1zm-90.6 21.3c1.2-2.9 3.3-4.7 5.3-5.9 6.2 5.1 10.5 12.5 11.4 20.9-3.8-6.6-9.6-11.9-16.7-15zm15.9 26.6c-.8 3.2-2.2 6.2-3.9 8.9-.5-6.2-4-12-7.1-17.1-3-4.8-5.8-9.4-5.8-13.5 8.6 4 14.7 11.8 16.8 21.7zm-98.2-87.3 12.8 15.7 15.7.7-9.6 6.8 5.7 7 15.2.7-9.3 6.6 5.8 7.1c-15.2-7.1-44.4-16.7-74.8-4.9 9.7-15.9 22.9-29.5 38.5-39.7zm52.2 51.9c3.9-2.2 8.3-3.6 13.1-4v10c-2.6.2-5.1.6-7.5 1.2-1.2-3.2-3.3-5.5-5.6-7.2zm1.8 13.8c0 4.1-2.8 8.7-5.8 13.5-3.1 5.1-6.6 10.9-7.1 17.1-1.7-2.7-3.1-5.7-3.9-8.9 2.2-10 8.2-17.8 16.8-21.7zm-.9-5c-7.1 3-12.9 8.3-16.7 15.1.9-8.4 5.2-15.8 11.4-20.9 2 1.1 4.2 2.9 5.3 5.8zm-95.9-13.2 24.3 9 13.9-7.4-4.8 10.7 8.4 3.1 13.4-7.1-4.6 10.4 13.6 5c-15.2-1.6-50.7-1.9-77.4 23.9 1.2-17.1 5.8-33.2 13.2-47.6zm-13.6 55.7v-.3l26.1-.7 10.1-12-.5 11.7 9-.2 9.8-11.6-.5 11.3 18.8-.5c-19.3 7.5-49.2 24.1-60.5 56.8-7.9-16.5-12.4-35-12.3-54.5zm113.1 123.8c-43.4-3.7-80.4-29.8-99.4-66.6l27.5-12.3 4.8-14.9 4.1 11 8.2-3.7 4.6-14.5 3.9 10.6 37.9-16.9 8.4 12.5zm8.6-116.3c-6.7-.5-12.9-3.1-17.8-7.2-3.8-7.3.3-14.1 5-21.8 3.3-5.4 6.5-10.6 6.5-16.1 0-.6 0-1.2-.1-1.8 2.1-.6 4.2-.9 6.4-1.1zm-53-117.7c16.7-8.3 35.6-13 55.6-12.9 19.6.1 38.1 4.8 54.6 13-29 8.1-46.9 30.5-54.9 42.7-7.9-12.3-26-34.8-55.3-42.8zm57.9 54.9c4.7.4 9.2 1.8 13.1 4-2.3 1.7-4.4 4-5.6 7.3-2.4-.7-4.9-1.1-7.5-1.2zm0 14.9c2.2.2 4.4.5 6.4 1.1 0 .6-.1 1.2-.1 1.8 0 5.5 3.1 10.6 6.5 16.1 4.7 7.7 8.8 14.4 5 21.8-4.9 4.1-11 6.7-17.8 7.2zm8.7 164.1v-94.8l7.9-12.4 38 16.9 3.9-10.6 4.6 14.5 8.2 3.7 4.1-11 4.8 14.9 27 12c-18.8 36.8-55.5 62.8-98.5 66.8zm39.9-126 18.8.5-.5-11.3 9.8 11.6 9 .2-.5-11.7 10.1 12 25.4.7v1.6c-.1 18.8-4.4 36.5-11.9 52.4-11.5-32.2-41.1-48.6-60.2-56z" fill="#552583"/><path d="m200.8 132.6c7.9-12.3 25.9-34.6 54.9-42.7-16.4-8.2-35-12.9-54.6-13-20-.1-38.9 4.6-55.6 12.9 29.3 7.9 47.4 30.4 55.3 42.8zm-43-5.6-5.7-7 9.6-6.8-15.7-.7-12.8-15.7c-15.6 10.2-28.8 23.8-38.5 39.7 30.5-11.8 59.6-2.3 74.8 4.9l-5.8-7.1 9.3-6.6zm-43.1 26.2-24.3-9c-7.4 14.4-12 30.5-13.2 47.5 26.6-25.7 62.2-25.4 77.4-23.9l-13.6-5 4.6-10.4-13.4 7.1-8.4-3.1 4.8-10.7zm196-8.8-23.7 8.8-13.9-7.4 4.8 10.7-8.4 3.1-13.4-7.1 4.6 10.4-13.6 5c15-1.5 50.1-1.9 76.6 23.1-1.2-16.7-5.8-32.4-13-46.6zm-42.5-47.4-12.6 15.4-15.7.7 9.6 6.8-5.7 7-15.2.7 9.3 6.6-5.8 7.1c15.1-7.1 43.8-16.5 73.9-5.2-9.5-15.6-22.4-29-37.8-39.1z" fill="#fff"/></svg>