<svg enable-background="new 0 0 400 400" viewBox="0 0 400 400" xmlns="http://www.w3.org/2000/svg"><path d="m320.1 216.9h-7.1c4.6-9.4 9-19.3 13.2-29.7 0 0-20.7-12.2-59.3-20l6.2-20.4-4.6 3.7c.9-4.4 1.4-9 1.4-13.8 0-23.2-11.5-44.8-30.7-57.7-3.5-2.3-7.2-4.4-11-6.1l-2-1c-29.9-11.3-31.8-33.3-31.8-33.3s-7.3 13.6-3.7 25.7c.9 3.1 2.3 6.3 4.1 9.3-8.3-4.1-20.8-8.7-35-11.2-31.2-5.4-30-35.4-30-35.4s-28.6 37.7 2.8 68.8c-15.8-9.6-24.4-25.5-24.4-25.5s-5.3 28.6 8.4 45.5c2.6 3.2 4.8 6.7 7.4 10 4.3 5.6 8.2 19.6 8.1 24.9l-5-3.9 6.1 20.2.1.3c-38.4 7.8-59 19.9-59 19.9 4.2 10.4 8.6 20.2 13.2 29.7h-22.4v63.1h58.8c4.6 6.7 9.1 13 13.5 18.9.9 1.2 1.9 2.5 2.8 3.7l3.9 5.1 2.4 3c1.4 1.7 2.8 3.4 4.1 5.1.7.9 1.5 1.8 2.2 2.6 1.2 1.4 2.3 2.8 3.5 4.1.9 1.1 1.8 2.1 2.7 3.1.9 1.1 1.9 2.1 2.8 3.2.6.6 1.1 1.2 1.7 1.9 1.4 1.6 2.8 3.1 4.2 4.6.5.5 1 1 1.4 1.5 1.4 1.5 2.8 2.9 4.1 4.3l1.3 1.3c1.3 1.4 2.6 2.6 3.9 3.9l1.2 1.2c1.2 1.2 2.4 2.3 3.5 3.4l1.1 1.1c.7.6 1.3 1.3 2 1.9.4.4.8.8 1.2 1.1.9.8 1.8 1.6 2.6 2.4.4.3.8.7 1.1 1 .7.7 1.4 1.3 2.1 1.9.4.3.7.6 1 .9.6.5 1.1.9 1.6 1.3.3.3.7.6 1 .8s.6.5.8.7c.4.3.7.6 1 .8.2.2.4.3.6.5.1.1.3.2.4.3.4.3.7.5.7.5s.3-.2.9-.7c0 0 .1 0 .1-.1.2-.1.4-.3.6-.4.3-.3.7-.6 1.1-.9.2-.1.3-.3.5-.4.5-.4 1.1-.9 1.7-1.4.1-.1.2-.1.3-.2.7-.6 1.5-1.3 2.3-2l.3-.3c.9-.8 1.8-1.6 2.8-2.5.1-.1.3-.2.4-.4 1.1-1 2.2-2 3.3-3.1l.2-.2c2.5-2.3 5.3-5 8.3-8l.1-.1 4.6-4.6c.1-.1.2-.3.4-.4 1.6-1.6 3.2-3.3 4.8-5.1l.3-.3c3.4-3.6 7-7.6 10.7-11.9.1-.1.2-.3.4-.4 1.8-2.1 3.6-4.2 5.4-6.4.2-.3.5-.6.7-.9 1.8-2.2 3.6-4.4 5.5-6.7.2-.3.5-.6.7-.9 1.9-2.4 3.8-4.9 5.7-7.4 4.7-6.3 9.6-13 14.4-20.1h59.3v-63.1h-16z"/><path d="m228.8 150.7c-1.1 8.9-6.9 17.8-17 26.2l7.1 7.1 16.1-20c1.1-4.7 1.9-9.7 2.2-15.2-2.7.6-5.5 1.3-8.4 1.9zm19.1-6.4c-2 1-4.2 2-6.5 2.9-.2 7.3-1.3 13.9-2.8 19.8l3.7 3.8 14.2-11.1c-5.1-4.1-7.6-9.5-8.6-15.4z" fill="#86cebc"/><path d="m138.9 227.2v6h-4.2v30h4.2v6h-14.8l-21.4-19.1.2 19.1h-18.5v-6h4.1v-30h-4.1v-6h14.8l21.3 18.2v-18.2zm177.6 0h-18.4v14.8l-17.6 3.6v-18.4h-18.5v6h4.4v22.2l31.7-6.7v14.5h-31.7v6h45.9v-36h4.2zm-58.8-49.8-7.2 9.8-8.9-8.9-5.9-6.1-.1.1-16.3 20.2-19.2-18.7-.2 39.6 14.4-17.8 5.5 5.6 15-18.7-2 25.6 14.6-15.8 4.4 4.4z" fill="#fff"/><path d="m180.9 192.5-16.4-20.3-14.7 15.1-7.3-9.9 5.8 19.3 15.8-15.8 4.6 29.3 7.2-14.6 4.5 5.6 19.7-19.6v-7.8zm8.3 50.1c-.8 0-1.4-.1-2.1-.1-12.6-1.1-26.6-7.3-26.6-7.3 7.6 7 15.7 9 19.4 9.6-.6 2.6-1 5.9.9 6.7 4.9 2 16.7-.4 17.3-4.5.7-5.2-4.3-4.1-8.9-4.4zm5.2 17.5c-1.7.3-3.4.4-4.8.4-12.7-1.2-26.7-7.6-26.7-7.6 7.9 7.5 16.4 9.4 19.8 10-.9 2.9-1.7 4.2 2 4.5 10 1 15.9-5 15.8-6.9-.2-1.9-.1-1.3-6.1-.4zm-1.2 15c-1.1.2-2.2.4-3.2.5-12.8-1.1-27.2-7.7-27.2-7.7 8.1 7.6 16.8 9.5 20.1 10-.7 2.8-1.4 4 1.9 4.1 9 .4 14-5.1 13.8-6.8s-.1-1.1-5.4-.1zm.1 13.4c-1 .2-2 .3-3 .4-10.1-.9-21.2-6-21.2-6 5.5 5.2 11.4 7.1 14.6 7.7-.7 3-1.7 4.3 1.7 4.4 8.5.4 13.2-4.8 13-6.4s-.1-1.1-5.1-.1zm-2 10 .8 7s2 3.5 8 3.5l.4-15.5c-4 3.9-7.8 4.8-9.2 5z" fill="#86cebc"/><path d="m200.1 309 .4-15.5s7-5.7-.6-11.1c0 0 9.1-6.9 1-12 0 0 10.6-6.8 4.4-14.9 0 0 4.3 4.8 8 5.7l-5.1 44.3s-2.5 3.9-8.1 3.5" fill="#fff"/><path d="m200 314.6c-5.1 0-7.4-1.2-9.5-4.5-.7.8-1.1 1.7-1.1 2.7 0 3.4 4.7 6.2 10.6 6.2 3.5-2.3 0-4.4 0-4.4z" fill="#86cebc"/><path d="m210.6 312.7c0-1-.4-1.9-1.1-2.7-2.3 3.3-4.4 4.5-9.5 4.5 0 0 3.4 2.1 0 4.4h.7c.8-.1 2.1-.2 3.6-.5 3.8-1 6.3-3.2 6.3-5.7zm18 8.8c10-11.1 21.4-25 33.1-41.6h-7.7c-9.1 12.7-18 23.6-26.1 32.9zm-56.4-9.3c-7.9-9.1-16.6-19.9-25.5-32.3h-7.7c11.6 16.4 22.8 30 32.7 41.1zm135.3-120.4c-7.7-3.1-22.8-8.6-44.2-12.8l-1.8 6.1c18.6 3.6 32.5 8.2 40.7 11.3-3.2 7.1-6.5 13.8-9.8 20.4h7c3.4-6.7 6.7-13.6 9.9-20.9l1.3-3zm-168.7-6.6-1.8-6.1c-21.2 4.2-36.3 9.6-43.9 12.7l-3 1.2 1.3 3c3.2 7.2 6.5 14.1 9.9 20.9h7c-3.4-6.6-6.7-13.4-9.8-20.4 8.1-3.2 21.8-7.7 40.3-11.3z" fill="#fff"/><path d="m200 223.9c-23.5 0-43.3-6.9-49.1-16.3-2.1-.5-5.9-.7-7.2 3.3-.1.6-.3 1.1-.3 1.7 0 12.1 25.3 22 56.5 22 7.6-6.1.2-10.7.1-10.7z" fill="#86cebc"/><path d="m256.6 212.6c0-.5-.1-1-.2-1.5-1.1-4.2-5-4-7.2-3.5-5.8 9.4-25.6 16.3-49.1 16.3 0 0 7.4 4.6 0 10.7 31.2 0 56.5-9.8 56.5-22z" fill="#fff"/><g fill="#86cebc"><path d="m335.9 210.5h-12.9c3.1-6.7 6.2-13.6 9.1-20.9l2.1-5.1-4.8-2.8c-1.3-.7-22.3-12.8-60.7-20.6l-1.9 6.2c38.6 7.8 59.3 20 59.3 20-4.2 10.4-8.6 20.2-13.2 29.7h22.9v63.1h-59.3c-4.9 7.2-9.7 13.9-14.4 20.1-1.9 2.6-3.9 5-5.7 7.4-.2.3-.5.6-.7.9-1.8 2.3-3.7 4.6-5.5 6.7-.2.3-.5.6-.7.9-1.8 2.2-3.6 4.3-5.4 6.4-.1.1-.2.3-.4.4-3.7 4.3-7.3 8.3-10.7 11.9l-.3.3c-1.7 1.8-3.3 3.5-4.8 5.1-.1.1-.2.3-.4.4-1.4 1.5-2.8 2.9-4.2 4.2-1-14.6-3.9-57.1-3.6-57.3 10.4-7 15.6-27.2 15.9-28 .9-2 2.7-9.4 2.8-12.9 0-.4 0-.8-.1-1.1v-.1l-.1-.1s-1.5-1.7-3.2-3.3c-1.8-1.6-3.8-3.3-5.2-3.4-.1 0-.3 0-.4.1-5.5 1.7-11.1 2.4-11.1 2.4-1.5.5-3.1.6-4.5.6-1.2 0-2.4-.1-3.4-.1s-1.8.1-2.4.4c-.7.4-1 1.1-1.1 2.1v.1c0 2.5 3.5 7.4 8.1 9.3 1.6.7 3.3.9 4.9.9 3.8 0 7.1-1.3 8.7-2-2 3.6-4.9 7.3-7.3 10.1-1.3 1.5-2.4 2.8-3.3 3.7l-5.5 38.7c.6.6 1.2 1.4 1.7 2.4 1.2 1.7 1.8 3.6 1.8 5.6 0 4.3-2.9 7.9-7.3 10v.6c-.1 2.8-.5 8.9-.9 13.3 1.2 1.7 2 3.7 2 5.9 0 5.4-4.3 9.8-9.7 9.9v13.4l-.2.2s-.2-.2-.7-.5c-.1-.1-.2-.2-.4-.3s-.4-.3-.6-.5c-.3-.2-.7-.5-1-.8-.2-.2-.5-.4-.8-.7s-.6-.5-1-.8c-.5-.4-1-.8-1.6-1.3-.3-.3-.7-.6-1-.9-.7-.6-1.4-1.2-2.1-1.9-.4-.3-.7-.7-1.1-1-.8-.7-1.7-1.5-2.6-2.4-.4-.4-.8-.7-1.2-1.1-.6-.6-1.3-1.2-2-1.9-.4-.3-.7-.7-1.1-1.1-1.1-1.1-2.3-2.2-3.5-3.4l-1.2-1.2-3.9-3.9-1.3-1.3c-1.3-1.4-2.7-2.8-4.1-4.3-.5-.5-1-1-1.4-1.5-1.4-1.5-2.8-3-4.2-4.6-.6-.6-1.1-1.2-1.7-1.9-.9-1-1.9-2.1-2.8-3.2-.9-1-1.8-2.1-2.7-3.1-1.2-1.3-2.3-2.7-3.5-4.1-.7-.9-1.5-1.7-2.2-2.6-1.4-1.7-2.7-3.3-4.1-5.1l-2.4-3c-1.3-1.6-2.6-3.3-3.9-5.1-.9-1.2-1.9-2.4-2.8-3.7-4.5-5.9-9-12.2-13.5-18.9h-58.4v-63.1h22.4c-4.6-9.4-9-19.3-13.2-29.7 0 0 20.6-12.1 59-19.9l-1.9-6.2c-38.2 7.8-59.1 19.8-60.3 20.6l-4.8 2.8 2.1 5.1c2.9 7.2 6 14.1 9.1 20.9h-18.8v75.9h61.9c10.9 15.8 21.2 29 30.2 39.4 25.5 29.8 44.8 44.6 45.6 45.2l3.9 2.9 3.9-2.9c.8-.6 20.1-15.4 45.7-45.2 9-10.5 19.4-23.7 30.2-39.4h62.3v-75.9h-6.5zm-111.2-63.6c0-1.1-.2-2.3-.4-3.4-2.5-13.1-13-15.9-33-20.3-2.1-.5-4.3-.9-6.6-1.5-1.3-.3-2.8-.7-4.3-1.1-31.5-6.9-57.8-21.6-67.6-35.4 0 0-2.6 18.6 16.4 35.8 34.1 27.7 73 29.3 95.5 25.9z"/><path d="m192.3 119.1c19.2 4.2 33.1 7.2 36.3 23.6.2 1.2.3 2.3.4 3.5 3.2-.6 6-1.3 8.3-2.1 0-3.8-.2-7.8-.7-11.9-3.4-28.6-27.6-45.7-43.8-54.1-8.2-4-20.1-8.6-33.6-10.2-16.7-2-29.9-13.5-31.5-25.2 0 0-.5 1-1.1 2.6-5.6 14.6-2.4 31.1 8 42.8 13.8 15.5 36.7 26.2 51.3 29.5 2.1.6 4.3 1.1 6.4 1.5z"/><path d="m236.4 83.1c-3.2-2.2-6.7-4.1-10.3-5.7-11.9-5.8-25.2-11.5-31.2-25.1 0 0-4.6 13.8 14.6 31.1 18.3 13.1 29.1 29.8 31.3 48.4.4 3.8.7 7.4.7 10.9 2.2-.9 4.2-1.8 6-2.9-.3-7.8 1.5-16 3-23.1.6-2.6 1.1-5.1 1.5-7.4 1.1-6.1-1.2-11.8-4.1-16.2-3.4-3.8-7.3-7.2-11.5-10zm19.8 26.9c-.4 2.3-1 4.9-1.5 7.5-1.4 6.2-2.8 13.1-2.9 19.6 6.2-4.2 10-8.6 12.2-11.7-1.3-7.4-3.9-14.4-7.5-20.7 0 1.7 0 3.5-.3 5.3zm8.5 21.4c-3 3.4-7.1 7.2-12.7 10.7.7 5.8 3 11.1 8.1 15l2.1-1.6c1.8-5.9 2.8-12.2 2.8-18.7-.1-1.9-.2-3.6-.3-5.4zm-99.8 32.1 16.4 20.4 18.7-18.7v-.1.1l8.6 8.6c7.3-6 14-13.6 15.6-22.4-5.2.8-10.9 1.2-17 1.2-22.2 0-48.8-5.9-73-22.4l-3.1-2s5.8 8.9 7 27.4l19.4 15.2zm37.1 176.5 1.1-15.7c-1 .1-2 .2-3 .2s-2-.1-2.9-.2l1.1 15.7c-.8.6-1.3 1.4-1.3 2.5 0 1.7 1.4 3.1 3.1 3.1s3.1-1.4 3.1-3.1c.1-1.1-.5-1.9-1.2-2.5z"/></g></svg>