<svg enable-background="new 0 0 400 400" viewBox="0 0 400 400" xmlns="http://www.w3.org/2000/svg"><path d="m221.3 289.4-19.4 6c-2.3.7-6.5 2-11 2-4 0-8.1-1-11.3-4.3-1.8-1.9-2.9-4.1-3.4-6.3l-.2-.8-6.2 8.7c.1.1.1.3.2.4l.3-.4 5.6-7.8c.6 2.3 1.6 4.5 3.5 6.5 7.1 7.3 18.4 3.7 22.7 2.4l19.4-6c5.3-1.6 19.9-6.2 26.9-20 .3-.6.6-1.3.9-2h-.4c-6.6 15.1-22.1 19.9-27.6 21.6zm23.1-53.5.1.4-.1-.4c-3 .5-6 .9-9 1.1h-.2l-.1.2c-.9 2.7-1.9 5.5-2.8 8.2.1 0 .3 0 .4-.1.9-2.7 1.8-5.4 2.7-8 3-.2 6-.6 9-1.1 20.5-3.6 38.3-13.5 51.7-27.4.8-1 1.5-2 2.3-3-13.6 15.3-32.3 26.3-54 30.1zm-111.6-54.1c1.6 0 3.1.2 4.5.5 2.2.6 4.1 1.6 5.8 3.1l.6-.4c-4-8-6.9-16.6-8.5-25.8-1-5.5-1.4-11-1.4-16.4 0-45 32.3-84.8 78.1-92.8 5.4-.9 10.7-1.4 16-1.4-1.6-.1-3.3-.1-4.9-.1-.4 0-.9 0-1.4-.1-.4 0-.9.1-1.3.1h-.5c-2.4.2-4.8.5-7.2.9-.3 0-.5.1-.8.1-51.5 9-86 58.1-77 109.7 1.6 9.3 4.6 17.9 8.5 25.9-1.7-1.5-3.6-2.5-5.8-3.1-.2 0-.3-.1-.5-.1-.1 0-.3-.1-.5-.1-3.1-.7-6.8-.5-10.9.6 0 .1.1.2.1.3 2.7-.5 5-.9 7.1-.9z" fill="#fff"/><path d="m249.4 267.5c-.1.1-.1.2-.2.4-.3.7-.6 1.3-.9 2-.6 1.5-1.4 3-2.2 4.4-8.3 13.5-26.2 19.6-31.3 21.2l-19.4 6c-2.3.7-6.5 2-10.9 2-4 0-8.1-1-11.3-4.3-1.2-1.2-2-2.6-2.6-3.9-.1-.1-.1-.3-.2-.4l-.3.4-.2.3-1.9 2.7c-1.3 1.8-2.5 3.3-3.8 4.8l-.3.3c-.8.9-1.5 1.7-2.3 2.4-.6.8-1.2 1.5-1.9 2.2-6.6 7.3-14 10.9-22.1 12.4-1.7.3-3.2.5-4.7.5-6.6 0-10.4-3.1-12.2-5.2-1.5-1.7-2.9-4.1-3.5-7.5 0-.2-.1-.4-.1-.5l-.3.5-.3.5-4.3 6.6c-.4.7-1.4 2.2-3 4-.1.1-.2.2-.3.4-.7.8-1.5 1.6-2.5 2.5-.6.7-1.2 1.4-1.9 2-4.2 4.3-10.1 8.9-19.4 11.8l-16.7 5.2-17.4 5.4 5.5-17.3 32.5-103.5-12.5-6.4-21.5-11.2-.3.3-.3.3-11.3 10.9 21.7 11.1 12.2 6.2-32.3 103.1-5.7 18 18-5.6 16.7-5.2c12.6-3.9 23.2-11 32.6-24.3.7 1.7 1.6 3.1 2.5 4.1 2.3 2.6 7.5 6.7 17.2 4.9 8.7-1.6 23.1-8.7 34-23 .4.6.9 1.1 1.4 1.7 7.1 7.2 18.4 3.7 22.7 2.4l19.4-6c5.7-1.8 34.9-13.5 44-33.9.7-1.6 1.3-3.2 1.7-4.9 0-.1.1-.2.1-.3v-.2zm-141.5 52.9c0 .1-.1.1-.1.2 0-.1.1-.1.1-.2zm-.8 1c-.1.1-.1.2-.2.3 0-.1.1-.2.2-.3zm137.4-85.1c-3 .5-6 .9-9 1.1-.9 2.6-1.8 5.4-2.7 8 .1 0 .3 0 .4-.1.8-.1 1.6-.2 2.4-.4 23-4 43.4-15.8 58.3-33.3.8-.9 1.6-1.9 2.3-2.8-13.4 13.9-31.2 23.9-51.7 27.5zm-118.8-54.2c-.1 0-.1 0 0 0 0 .1.1.2.1.3 4.1-1.1 7.7-1.3 10.9-.6.2 0 .3.1.5.1s.3.1.5.1c-.1-.1-.1-.3-.2-.4-3.1-6.9-5.4-14.3-6.8-22.1-1-5.5-1.4-11-1.4-16.4 0-44.1 31.1-83.3 75.5-92.3.9-.2 1.7-.3 2.6-.5 1.8-.3 3.5-.6 5.3-.8 2.4-.4 4.8-.7 7.2-.9h.5c.4 0 .9-.1 1.3-.1h.3c-1.8-.1-3.5-.1-5.3 0-5 .1-10.1.6-15.2 1.5-53.8 9.4-89.9 60.9-80.5 114.7.9 5.9 2.6 11.8 4.7 17.4z" fill="#1d1160"/><path d="m104.3 323.9c.7-.7 1.3-1.4 1.9-2-3.3 3-8.1 6.2-14.6 8.2l-16.7 5.2-18 5.6 5.7-18 32.5-103.2-12.2-6.2-21.7-11.1-.3.3-5.8 5.6-.3.3 21.5 11 12.2 6.2-32.5 103-5.6 18 18-5.6 16.7-5.2c10.8-3.3 17.1-9.1 21.4-14-.7.7-1.4 1.3-2.2 1.9zm145.1-56.4c-.1.1-.1.2-.2.4-.3.7-.6 1.3-.9 2-7 13.8-21.6 18.4-26.9 20l-19.4 6c-4.3 1.3-15.6 4.8-22.7-2.4-1.9-2-3-4.2-3.5-6.5l-5.6 7.8c0 .1.1.3.2.4l-.3.4c.6 1.3 1.5 2.7 2.6 3.9 7.1 7.3 18.4 3.7 22.6 2.4l19.4-6c5.7-1.8 26.9-9 33.7-25.7.2-.6.5-1.2.7-1.8 0-.1.1-.2.1-.3v-.2l.2-.4.2-.6c0 .1-.1.3-.2.6zm-87.9 38.3c-5.1 4.9-10.5 7.7-17.4 9-9.7 1.9-15-2.2-17.2-4.9-2-2.3-3.9-6-3.9-11.3l-6 9-.3.5c0 .2.1.4.1.5.7 3.2 2 5.6 3.5 7.3 2.3 2.6 7.5 6.7 17.2 4.9 8.9-1.7 17.1-5.9 24.2-14.7.7-.9 1.4-1.7 2.1-2.7-.8.8-1.5 1.6-2.3 2.4zm51-256.7c-1.8.2-3.5.5-5.3.8-51.5 9-86 58.1-77 109.7 1.3 7.7 3.6 15.1 6.7 22 .1.1.1.3.2.4.2 0 .3.1.5.1 2.2.6 4.1 1.6 5.8 3.1-4-8-6.9-16.7-8.5-25.9-9-51.5 25.4-100.6 77-109.7.3 0 .5-.1.8-.1 2.4-.4 4.8-.7 7.2-.9h.5c-2.8 0-5.3.2-7.9.5z" fill="#bec0c2"/><path d="m296.2 208.8c-13.4 13.9-31.2 23.8-51.7 27.4-3 .5-6 .9-9 1.1-.9 2.6-1.8 5.4-2.7 8-.9 2.7-1.8 5.3-2.6 7.8l8.5-2.6 16.6-5.2h.1l-4.1 17c-.4 1.6-.9 3.1-1.4 4.5-.1.2-.2.4-.2.6-.1.1-.1.2-.2.4-.3.7-.6 1.3-.9 2-7 13.8-21.6 18.4-26.9 20l-19.4 6c-4.3 1.3-15.6 4.8-22.7-2.4-1.9-2-3-4.2-3.5-6.5l-5.6 7.8-.3.4-.2.3-1.9 2.7c-1.3 1.8-2.5 3.3-3.8 4.8l-.3.3c-.8.9-1.5 1.7-2.3 2.4-5.1 4.9-10.5 7.7-17.4 9-9.7 1.9-15-2.2-17.2-4.9-2-2.3-3.9-6-3.9-11.3l-6 9-.3.5-.3.5-4.3 6.6c-.4.7-1.4 2.2-3 4-.1.1-.2.2-.3.4-.3.3-.5.7-.8 1 0 .1-.1.1-.1.2-.2.3-.5.6-.7.8-.1.1-.1.2-.2.3s-.2.3-.4.4l-2.1 1.8c-3.2 2.5-7.3 4.9-12.6 6.5l-16.7 5.2-18.7 5.8 5.9-18.7 32.4-102.9-12-6.1-21.7-11.1-.1-.1.3-.3 23.3-7.2 39.7-12.2c.6-.2 1.1-.3 1.7-.5 4.1-1.1 7.7-1.3 10.9-.6.2 0 .3.1.5.1s.3.1.5.1c2.2.6 4.1 1.6 5.8 3.1-4-8-6.9-16.7-8.5-25.9-9-51.5 25.4-100.6 77-109.7.3 0 .5-.1.8-.1 2.4-.4 4.8-.7 7.2-.9-2.5.1-5 .3-7.5.6h.2c2.6-.3 5.2-.5 7.8-.6.4 0 .9-.1 1.3-.1h.3c47.7-3.2 91.1 30 99.5 78.2 4.9 31.1-5.5 61.3-25.8 82.3z" fill="#061922"/><path d="m312.1 167.7c-5.4 15.8-15.1 29.5-28.2 39.7-12.8 9.9-28 16-44.1 17.6l-.6.1.2-.5 3.1-9.2.6-1.9.2.5.5-.2-.7-.2c3.6-10.6 2.7-18.7-2.6-24.2-5.6-5.8-14.2-5.8-18.6-4.5-11.6 3.4-15.7 8-21.2 15l-.8 1 .1-1.3c.6-6.3-.9-11.3-4.5-15-5.8-6-14.2-5.4-17.9-4.2-3.7 1.1-6.9 2.5-9.8 4-2.4 1.3-8.3 1.4-9.3-.3-12.9-21.5-15.6-47.4-7.6-71.1 7.3-21.5 22.6-38.9 43-48.9s43.5-11.5 65-4.2 38.9 22.6 48.9 43c10.2 20.2 11.7 43.2 4.3 64.8z" fill="#e56020"/><g fill="#061922"><path d="m314.1 103.8c2.2 3.7 1.8 3.7 1.8 3.7l.1.1 28.1-33c-164.4 15-246 79-246 79s39.6-19.4 65.1-27.3c55.1-17 145.1-32.4 150.9-22.5z"/><path d="m320.6 134c2 3.5 2.2 5 2.2 5.3l31.8-35.7c-173.5 15.8-259.7 83.4-259.7 83.4s41.8-20.5 68.8-28.8c56.9-17.6 150.1-35.7 156.9-24.2z"/><path d="m317.8 165.9-1.4 10.1h.1l36.9-40.8c-174.7 15.9-251.4 77.5-251.4 77.5s32.9-17.1 59.6-25.3c57.2-17.5 149.4-33.1 156.2-21.5z"/></g><path d="m344.2 74.6 7.7-9c-168.8 20.7-253.9 88-253.9 88s.3-.1.7-.4c6.8-5.2 88.4-64.3 245.5-78.6zm17.8 20.6c-176.3 20.6-267.1 91.8-267.1 91.8s86.2-67.6 259.6-83.4zm-1 31.6c-104.6 12.5-175.4 39.8-215.9 60.2.1.1.2.3.3.4 39.7-18.9 107.7-43.1 207.9-52.2z" fill="#bec0c2"/><path d="m109.4 211.6-20.2-10.3 40.6-12.5c2.1-.6 4.1-1.1 5.9-1.1 1.7 0 3.2.4 4.3 1.5s1.7 2.7 1.7 5c0 2.1-.5 4.9-1.6 8.4l-17 54.3 34.1-49.2c7.2-10.5 11.9-17.6 26.2-22.1.5-.1 1.5-.3 2.7-.3 1.6 0 3.6.3 5.2 1.5s2.8 3.3 2.8 6.7c0 2.3-.5 5.2-1.8 8.8l-15.3 44.3 30.3-39.9c7.7-10.1 9.7-13.6 20.3-16.7.5-.1 1.5-.3 2.8-.3 1.7 0 3.9.3 5.7 1.6s3.1 3.5 3.1 7.2c0 2.3-.5 5-1.7 8.5l-19.5 57.4 26.9-8.4-.2.6c-3.4 14.1-17.1 18.7-23.2 20.6l-19.4 6c-3.5 1.1-6.2 1.6-8.3 1.6s-3.7-.5-4.7-1.5-1.4-2.4-1.4-4.1c0-2.3.7-5 1.8-8.1l12.8-37.4-39.4 55.5c-5.8 8.1-10.8 11.4-17.8 12.7-1.1.2-2.1.3-3 .3-2.4 0-4.2-.7-5.3-2.1-1.1-1.3-1.6-3.1-1.6-5.1 0-2.3.6-4.9 1.5-7.5l19.3-55.8-49.2 74.7s-4.5 7.7-15.2 11.1l-17.4 5.4 35.2-111.3zm108.2 53.7-.3-.1z" fill="#fff"/></svg>