<svg enable-background="new 0 0 400 400" viewBox="0 0 400 400" xmlns="http://www.w3.org/2000/svg"><path d="m341.3 152.3-140.9-102.7-140.7 102.7-.2 56.3c0 54.8 27.7 96.1 58.6 118.2 28.8 20.5 59.5 24.6 82.2 24.6s53.7-4.1 82.5-24.6c31-22.1 58.6-63.5 58.6-118.2z" fill="#2c5235"/><path d="m332 208.6-.2-51.7-131.4-96.2-131.3 96.3-.2 51.7c-.1 35.1 13.5 68.2 38.2 93.1s58.5 38.8 93.3 38.8 68.6-13.9 93.4-38.8c24.7-25 38.3-58.1 38.2-93.2zm-255.8-48 35.3-25.8c12.9 12.7 23.6 29.3 30.1 46.9 2.4-.5 4.7-.9 7-1.4-6.8-18.6-17.9-36.1-31.4-49.7l83.1-61 83.2 61c-13.5 13.6-24.6 31.2-31.4 49.7 2.3.4 4.7.9 7 1.4 6.6-17.6 17.2-34.1 30.1-46.9l35.3 25.8.2 48.1h-248.7zm212.5 136.1c-13.8-13.9-24.9-32.1-31.2-51.1h-7.5c6.4 20.8 18.5 40.8 33.5 56-22.7 20.5-52.8 31.8-83.2 31.9-30.4 0-60.4-11.4-83.1-31.9 15-15.1 27.1-35.2 33.5-56h-7.5c-6.2 19.1-17.4 37.3-31.2 51.1-21.5-21.7-34-50-35.8-80.4h248.4c-1.7 30.4-14.3 58.7-35.9 80.4z" fill="#fee11a"/><path d="m198 245.2h14.9l-6.9 16h9l-24.5 36.7 6.4-28.2h-9z" fill="#78be20"/><path d="m206.9 152.3c0-.5-1.4-.7-2.9-.7l-3.6-55.9-3.5 55.9c-1.5 0-2.9.2-2.9.7v5.9h12.9zm71.9 44c-18.1-10-55.5-9.7-55.5-17.1 0-3.7 7.6-7.6 7.6-7.6s-.1-1.8-2.4-2.9c-3.5-1.6-12.7-3.1-28.2-3.1-13.3 0-24.5 1.5-28 3.1-2.3 1-2.4 2.9-2.4 2.9s7.6 3.8 7.6 7.6c0 7.4-37.4 7.2-55.5 17.1zm-140.8 31.2-11.5 7.9h147.9l-11.5-7.9zm32.8 17.7h-7.3l1.9 8.1c4.1 17.9 10.4 48.7 12.8 78.2 2.3.4 4.7.8 7.1 1.1-2.7-33.2-10.6-70.3-14.4-86.9zm57.9 6.7c-4.4 18.4-11.1 50.3-13.6 80.7 2.4-.3 4.8-.6 7.2-1 2.6-29.4 9.1-60.1 13.3-78l1.9-8.1h-7.3z" fill="#fff"/></svg>