<svg viewBox="0 0 500 500" xmlns="http://www.w3.org/2000/svg" xmlns:xlink="http://www.w3.org/1999/xlink"><clipPath id="a"><path d="m0 0h353v418h-353z" transform="translate(73 41)"/></clipPath><g clip-path="url(#a)"><path d="m411.832 60.827c-.864-.173-86.134-19.827-162.246-19.827-76.198 0-161.467 19.654-162.331 19.827l-14.255 3.276v212.146c0 58.532 34.039 113.013 86.738 138.787l89.762 43.964 89.762-43.964c52.699-25.774 86.738-80.255 86.738-138.787v-212.147z" fill="#62cbc9"/><path d="m388.678 56.085c-.691-.086-8.38-1.552-8.639-1.638-41.382 118.444-258.054 113.616-306.434 234.991 1.9 21.55 8.38 42.325 18.574 60.945 39.395-138.701 261.338-155.683 296.499-294.298zm-282.244 315.764c6.739 8.534 14.341 16.464 22.808 23.447-8.467-6.983-16.069-14.913-22.808-23.447zm27.732 27.412c-1.382-1.121-2.851-2.155-4.233-3.276a140.425 140.425 0 0 1 4.233 3.276zm-48.639-225.939v-99.306l4.579-1.035c.864-.172 84.492-19.481 159.48-19.481 37.063 0 76.371 4.74 106.609 9.568 2.505-3.534 4.751-7.413 6.825-11.465-31.447-5.258-73.779-10.603-113.52-10.603-76.112 0-161.381 19.654-162.245 19.827l-14.255 3.276v121.374c4.06-4.31 8.207-8.362 12.527-12.155zm281.553-121.116c-1.382-.258-2.678-.43-4.06-.69 1.382.173 2.678.432 4.06.69zm-227.299 351.106c-1.555-1.121-3.11-2.155-4.578-3.362 1.468 1.207 3.023 2.241 4.578 3.362zm5.962 3.966c-1.901-1.207-3.715-2.328-5.443-3.621a99.111 99.111 0 0 0 5.443 3.621z" fill="#081f2d"/><path d="m358.959 206.854 6.22 18.965h19.871l-16.069 11.638 6.134 18.964-16.156-11.723-16.069 11.723 6.134-18.964-16.155-11.638h19.956zm0 63.36 6.22 18.965h19.871l-16.069 11.637 6.134 18.965-16.156-11.724-16.069 11.724 6.134-18.965-16.155-11.637h19.956z" fill="#fff"/><path d="m73 185.478v73.1c63.239-105.168 263.411-104.306 300.905-205.25-3.455-.603-7.17-1.207-10.972-1.896-47.861 94.565-201.726 38.705-289.933 134.046zm330.97-126.375c-.259-.086-.518-.086-.778-.172.346.086.605.172.778.172zm7.862 1.724c-.173 0-2.851-.69-7.517-1.637-.691 4.137-1.468 8.189-2.419 12.24 4.493.949 6.998 1.552 7.171 1.552l4.579 1.034v202.234c0 53.791-31.274 103.875-79.741 127.581l-84.319 41.206-84.319-41.206c-5.875-2.93-11.576-6.206-16.933-9.827a115.443 115.443 0 0 0 -2.332 13.276c-.087 0-.173-.087-.173-.087v.087a146.566 146.566 0 0 0 13.909 7.758l89.762 43.964 89.762-43.964c52.699-25.776 86.738-80.256 86.738-138.789v-212.146z" fill="#081f2d"/><path d="m404.229 59.188c-.605-.086-8.38-1.724-9.157-1.896-31.62 146.718-262.634 170.424-292.439 309.47a155.744 155.744 0 0 0 38.272 37.326c1.727 1.034 3.369 2.155 5.097 3.19 14.946-128.702 234.901-201.113 258.227-348.09z" fill="#081f2d"/><path d="m249.5 53.5c-21.598 0-43.801 1.638-64.708 3.88v356.105l64.708 31.637 64.708-31.637v-356.106c-20.821-2.327-43.11-3.879-64.708-3.879z" fill="#cf3339"/><path d="m236.455 185.563 8.553-14.482 20.907 58.705h25.658l-31.792-83.876 28.423-48.705h-25.572l-26.177 48.36v-48.36h-23.413v132.581h23.413zm27.473 150.597c-.173 9.569-.432 12.241-1.124 15.258-1.9 7.759-6.047 11.466-12.699 11.466-5.097 0-9.503-2.845-11.145-7.155-1.469-4.138-2.073-8.966-2.073-18.62v-43.016c0-10.344.604-13.792 2.937-17.758 1.814-3.534 5.529-5.43 10.281-5.43 8.898 0 13.391 6.982 13.391 20.775v8.275h23.412v-9.482c0-26.206-13.736-41.809-36.89-41.809-12.613 0-22.807 4.483-28.768 12.672-6.307 8.534-7.948 16.034-7.948 36.809v36.205c0 19.655 1.382 27.24 6.479 35.516 5.961 9.741 16.674 15.172 30.41 15.172 24.363 0 37.235-15.431 37.235-44.481v-6.207h-23.585z" fill="#fff"/></g></svg>