<svg viewBox="0 0 500 500" xmlns="http://www.w3.org/2000/svg"><path d="m250 45c-113.018 0-205 91.982-205 205s91.982 205 205 205 205-91.982 205-205-91.874-205-205-205z" fill="#170031"/><path d="m250 52.513c-108.94 0-197.487 88.547-197.487 197.487 0 108.939 88.547 197.594 197.487 197.594 108.939 0 197.594-88.655 197.594-197.594 0-108.94-88.655-197.487-197.594-197.487z" fill="#fff"/><path d="m249.999 56.807c-106.471 0-193.193 86.722-193.193 193.193 0 106.472 86.615 193.194 193.193 193.194 106.472 0 193.194-86.615 193.194-193.194 0-106.471-86.615-193.193-193.194-193.193z" fill="#c8b3f6"/><g fill="#170031"><path d="m236.8 146.642c.429-1.61.966-3.113 1.502-4.616-50.552 5.474-90.801 45.723-96.275 96.168a46.758 46.758 0 0 1 4.616-1.503c6.01-46.903 43.253-84.039 90.157-90.049zm26.51 206.824c-.429 1.61-.966 3.113-1.502 4.616 50.552-5.474 90.693-45.723 96.167-96.168a46.65 46.65 0 0 1 -4.615 1.503c-5.903 46.795-43.147 84.039-90.05 90.049zm90.156-116.667c1.61.429 3.113.966 4.616 1.502-5.474-50.552-45.723-90.801-96.168-96.275.537 1.503 1.073 3.006 1.503 4.616 46.795 6.01 84.039 43.253 90.049 90.157zm-115.271 121.175c-.537-1.502-1.074-3.005-1.503-4.615-46.903-6.011-84.146-43.254-90.157-90.157-1.61-.429-3.112-.966-4.615-1.503 5.581 50.66 45.83 90.801 96.275 96.275z"/><path d="m234.974 269.106 15.134-14.919 15.133 14.919c5.796 5.581 11.592 11.269 17.387 16.743 11.699 11.055 23.506 22.003 35.849 32.521-10.519-12.235-21.466-24.149-32.521-35.848-5.474-5.903-11.163-11.592-16.744-17.387l-15.026-15.134c10.626-10.733 21.251-21.466 31.662-32.521 11.055-11.699 22.003-23.505 32.521-35.741-12.235 10.519-24.149 21.466-35.741 32.521-11.055 10.411-21.788 20.93-32.52 31.663-10.733-10.626-21.466-21.252-32.521-31.663-11.699-11.055-23.506-22.002-35.741-32.521 10.518 12.236 21.466 24.149 32.521 35.741 10.411 11.055 20.929 21.788 31.662 32.521l-14.919 15.134c-5.581 5.795-11.27 11.591-16.743 17.387-11.055 11.699-22.003 23.505-32.521 35.848 12.235-10.518 24.149-21.466 35.848-32.521 5.688-5.474 11.484-11.162 17.28-16.743z"/><path d="m158.341 258.909c4.078-.215 7.942-1.181 11.699-2.576 4.078-1.395 8.264-2.361 12.343-3.005 3.22-.537 6.547-.859 9.874-1.074.215 0 .322.108.429.322 0 .644.215 1.61-.536 1.61-3.22.215-6.547.644-9.66 1.503-6.011 1.61-11.484 4.83-15.134 10.411-4.937 7.728-2.146 18.461 6.011 22.217 3.327 1.503 6.44 1.503 9.016.859 10.733-2.898 10.303-12.88 9.23-16.314-1.073-3.542-4.401-6.333-9.123-5.367-1.825.43-3.327 1.825-3.971 3.542-.644 1.825-.43 3.864.858 5.474.215.322 1.288 1.181 2.576 1.61-1.717.966-3.864.429-5.474-.751-2.253-1.718-3.112-4.401-2.683-6.977.43-3.112 2.254-5.474 4.83-7.406a26.866 26.866 0 0 1 3.757-2.254c3.112-1.502 6.439-2.253 9.874-2.468.107 0 .322 0 .429.215.215 1.18-.107 2.683 1.288 3.434.966.537 2.147.322 2.898-.537.751-.858.537-1.931.644-3.005 0-.107.215-.214.429-.214 2.04.214 4.079.536 6.011 1.502 1.181.537 2.254 1.181 3.22 2.147l.966.966c1.18 1.502 2.146 3.542 1.717 5.474-1.181-1.825-3.22-2.04-4.937-1.396-2.147.859-3.005 3.327-2.576 5.581.537 2.362 2.791 3.864 5.044 4.186 3.328.215 5.367-.858 6.655-2.683 2.147-2.898 2.039-6.869.537-9.982-1.503-3.22-4.294-5.473-7.406-7.083-2.898-1.396-6.011-2.147-9.016-2.254-.751 0-.751-1.503-.429-2.04.214-.107.429-.107.536-.107 3.006 0 6.011.429 8.909 1.073 3.22.752 6.332 1.825 9.338 3.435 1.502.751 3.219 1.073 4.937.751 4.508-.858 6.976-4.078 10.411-7.406-3.435-3.327-5.903-6.547-10.411-7.405-1.718-.322-3.328-.108-4.937.751-3.006 1.503-6.118 2.683-9.338 3.435-2.898.644-5.903 1.073-8.909 1.073-.107 0-.322 0-.536-.107-.322-.537-.322-2.04.429-2.04 3.005-.107 6.225-.858 9.016-2.254 3.112-1.502 5.903-3.864 7.406-7.083 1.502-3.006 1.61-7.084-.537-9.982-1.395-1.825-3.327-2.898-6.655-2.683-2.253.322-4.507 1.717-5.044 4.186-.429 2.253.429 4.722 2.576 5.581 1.717.644 3.756.429 4.937-1.396.537 1.932-.429 4.079-1.717 5.474l-.966.966c-.966.859-2.039 1.503-3.22 2.147-1.825.858-3.971 1.288-6.011 1.502-.214 0-.429-.107-.429-.214-.107-1.074.107-2.147-.644-3.005-.751-.859-1.932-1.074-2.898-.537-1.288.644-1.073 2.146-1.288 3.434 0 .215-.322.215-.429.215-3.435-.107-6.762-.859-9.874-2.469a26.764 26.764 0 0 1 -3.757-2.253c-2.576-1.825-4.293-4.294-4.83-7.406-.429-2.683.43-5.367 2.683-6.977 1.503-1.18 3.65-1.717 5.474-.751-1.288.322-2.361 1.288-2.576 1.61-1.288 1.61-1.502 3.542-.858 5.474.644 1.717 2.146 3.005 3.971 3.542 4.722.966 7.942-1.932 9.123-5.367 1.073-3.434 1.61-13.416-9.23-16.314-2.576-.751-5.689-.644-9.016.859-8.264 3.756-11.055 14.489-6.011 22.217 3.65 5.581 9.123 8.694 15.134 10.411 3.113.859 6.44 1.288 9.66 1.503.751 0 .644.966.536 1.61 0 .214-.214.322-.429.322-3.327-.215-6.654-.537-9.874-1.074a76.481 76.481 0 0 1 -12.343-3.005c-3.864-1.288-7.728-2.361-11.699-2.576-11.163-.429-18.676 5.474-22.862 8.908 4.079 2.791 11.699 8.694 22.862 8.265zm85.327-88.869c1.395 4.078 2.361 8.264 3.005 12.343.537 3.22.859 6.547 1.073 9.874 0 .215-.107.322-.322.429-.644 0-1.61.215-1.61-.536-.214-3.22-.644-6.547-1.502-9.66-1.61-6.011-4.83-11.484-10.411-15.134-7.728-4.937-18.461-2.146-22.218 6.011-1.502 3.327-1.502 6.44-.858 9.016 2.898 10.733 12.879 10.303 16.314 9.23 3.542-1.073 6.332-4.401 5.366-9.123-.429-1.825-1.824-3.327-3.541-3.971-1.825-.644-3.864-.43-5.474.858-.322.215-1.181 1.288-1.61 2.576-.966-1.717-.43-3.864.751-5.474 1.717-2.253 4.401-3.112 6.977-2.683 3.112.43 5.473 2.254 7.405 4.83.859 1.181 1.61 2.469 2.254 3.757 1.503 3.112 2.254 6.439 2.469 9.874 0 .107 0 .322-.215.429-1.181.215-2.683-.107-3.434 1.288-.537.966-.322 2.147.536 2.898.859.751 1.932.537 3.005.644.108 0 .215.215.215.429-.215 2.04-.537 4.079-1.503 6.011-.536 1.181-1.18 2.254-2.146 3.22l-.966.966c-1.503 1.18-3.542 2.146-5.474 1.717 1.825-1.181 2.039-3.22 1.395-4.937-.858-2.147-3.327-3.005-5.581-2.576-2.361.537-3.864 2.791-4.186 5.044-.214 3.328.859 5.367 2.684 6.655 2.898 2.147 6.869 2.039 9.981.537 3.22-1.503 5.474-4.294 7.084-7.406 1.395-2.898 2.147-6.011 2.254-9.016 0-.751 1.503-.751 2.039-.429.108.214.108.429.108.536 0 3.006-.43 6.011-1.074 8.909-.751 3.22-1.824 6.332-3.434 9.337-.752 1.503-1.074 3.22-.752 4.938.859 4.508 4.079 6.976 7.406 10.411 3.327-3.435 6.547-5.903 7.406-10.411.322-1.718.107-3.328-.751-4.938-1.503-3.005-2.684-6.117-3.435-9.337-.644-2.898-1.073-5.903-1.073-8.909 0-.107 0-.322.107-.536.537-.322 2.039-.322 2.039.429.108 3.005.859 6.225 2.254 9.016 1.503 3.112 3.864 5.903 7.084 7.406 3.005 1.502 7.084 1.61 9.982-.537 1.824-1.395 2.898-3.327 2.683-6.655-.322-2.253-1.717-4.507-4.186-5.044-2.254-.429-4.722.429-5.581 2.576-.644 1.717-.429 3.756 1.395 4.937-1.932.537-4.078-.429-5.474-1.717l-.966-.966c-.858-.966-1.502-2.039-2.146-3.22-.859-1.825-1.288-3.971-1.503-6.011 0-.214.108-.429.215-.429 1.073-.107 2.147.107 3.005-.644.859-.751 1.073-1.932.537-2.898-.644-1.288-2.147-1.073-3.435-1.288-.214 0-.214-.322-.214-.429.107-3.435.858-6.762 2.468-9.874.644-1.288 1.395-2.576 2.254-3.757 1.825-2.576 4.293-4.293 7.406-4.83 2.683-.429 5.366.43 6.976 2.683 1.181 1.503 1.718 3.65.752 5.474-.322-1.288-1.288-2.361-1.61-2.576-1.61-1.288-3.542-1.502-5.474-.858-1.717.644-3.005 2.146-3.542 3.971-.966 4.722 1.932 7.942 5.366 9.123 3.435 1.073 13.417 1.61 16.315-9.23.751-2.576.644-5.689-.859-9.016-3.757-8.264-14.49-11.055-22.217-6.011-5.581 3.65-8.694 9.123-10.411 15.134-.859 3.113-1.288 6.44-1.503 9.66 0 .751-.966.644-1.61.536-.215 0-.322-.214-.322-.429.215-3.327.537-6.654 1.073-9.874a76.381 76.381 0 0 1 3.006-12.343c1.288-3.864 2.361-7.728 2.576-11.699.429-11.163-5.474-18.676-8.909-22.862-3.327 4.186-9.337 11.807-8.908 22.862a110.875 110.875 0 0 0 3.22 11.699zm15.241 171.727c-.215-4.078-1.181-7.942-2.576-11.699-1.395-4.078-2.361-8.264-3.005-12.343-.537-3.22-.859-6.547-1.074-9.874 0-.215.108-.322.322-.429.644 0 1.61-.215 1.61.536.215 3.22.644 6.547 1.503 9.66 1.61 6.01 4.83 11.484 10.411 15.133 7.728 4.938 18.461 2.147 22.217-6.01 1.503-3.327 1.503-6.44.859-9.016-2.898-10.733-12.88-10.303-16.314-9.23-3.542 1.073-6.333 4.4-5.367 9.123.43 1.824 1.825 3.327 3.542 3.971 1.825.644 3.864.429 5.474-.859.322-.214 1.181-1.288 1.61-2.576.966 1.718.429 3.864-.751 5.474-1.718 2.254-4.401 3.113-6.977 2.684-3.112-.43-5.474-2.254-7.406-4.83a26.866 26.866 0 0 1 -2.254-3.757c-1.502-3.112-2.253-6.44-2.468-9.874 0-.108 0-.322.215-.429 1.18-.215 2.683.107 3.434-1.288.537-.966.322-2.147-.537-2.898-.858-.752-1.931-.537-3.005-.644-.107 0-.214-.215-.214-.43.214-2.039.536-4.078 1.502-6.01.537-1.181 1.181-2.254 2.147-3.22l.966-.966c1.502-1.181 3.542-2.147 5.474-1.717-1.825 1.18-2.04 3.22-1.396 4.937.859 2.146 3.327 3.005 5.581 2.576 2.362-.537 3.864-2.791 4.186-5.045.215-3.327-.858-5.366-2.683-6.654-2.898-2.147-6.869-2.039-9.982-.537-3.22 1.503-5.473 4.293-7.083 7.406-1.396 2.898-2.147 6.01-2.254 9.016 0 .751-1.503.751-2.04.429-.107-.215-.107-.429-.107-.537 0-3.005.429-6.01 1.073-8.908.752-3.22 1.825-6.332 3.435-9.338.751-1.502 1.073-3.22.751-4.937-.858-4.508-4.078-6.976-7.406-10.411-3.327 3.435-6.547 5.903-7.405 10.411-.322 1.717-.108 3.327.751 4.937 1.503 3.006 2.683 6.118 3.435 9.338.644 2.898 1.073 5.903 1.073 8.908 0 .108 0 .322-.107.537-.537.322-2.04.322-2.04-.429-.107-3.006-.858-6.225-2.254-9.016-1.502-3.113-3.864-5.903-7.083-7.406-3.006-1.502-7.084-1.61-9.982.537-1.825 1.395-2.898 3.327-2.683 6.654.322 2.254 1.717 4.508 4.186 5.045 2.253.429 4.722-.43 5.581-2.576.644-1.717.429-3.757-1.396-4.937 1.932-.537 4.079.429 5.474 1.717l.966.966c.859.966 1.503 2.039 2.147 3.22.858 1.824 1.288 3.971 1.502 6.01 0 .215-.107.43-.214.43-1.074.107-2.147-.108-3.006.644-.858.751-1.073 1.932-.536 2.898.644 1.288 2.146 1.073 3.434 1.288.215 0 .215.321.215.429-.107 3.434-.859 6.762-2.469 9.874a26.764 26.764 0 0 1 -2.253 3.757c-1.825 2.576-4.294 4.293-7.406 4.83-2.683.429-5.367-.43-6.977-2.684-1.18-1.502-1.717-3.649-.751-5.474.322 1.288 1.288 2.362 1.61 2.576 1.61 1.288 3.542 1.503 5.474.859 1.717-.644 3.005-2.147 3.542-3.971.966-4.723-1.932-7.943-5.367-9.123-3.434-1.073-13.416-1.61-16.314 9.23-.751 2.576-.644 5.689.859 9.016 3.756 8.264 14.489 11.055 22.217 6.01 5.581-3.649 8.694-9.123 10.411-15.133.859-3.113 1.288-6.44 1.503-9.66 0-.751.966-.644 1.61-.536.214 0 .322.214.322.429-.215 3.327-.537 6.654-1.074 9.874a76.481 76.481 0 0 1 -3.005 12.343c-1.288 3.864-2.361 7.728-2.576 11.699-.429 11.162 5.474 18.675 8.908 22.861 2.791-4.186 8.694-11.806 8.265-22.861zm82.858-100.568c-4.078.215-7.942 1.181-11.699 2.576-4.078 1.395-8.264 2.361-12.343 3.005-3.22.537-6.547.859-9.874 1.074-.215 0-.322-.108-.429-.322 0-.644-.215-1.61.536-1.61 3.22-.215 6.547-.644 9.66-1.503 6.01-1.61 11.484-4.83 15.133-10.411 4.938-7.728 2.147-18.461-6.01-22.217-3.327-1.503-6.44-1.503-9.016-.859-10.733 2.898-10.303 12.88-9.23 16.314 1.073 3.542 4.4 6.333 9.123 5.367 1.824-.429 3.327-1.825 3.971-3.542.644-1.825.429-3.864-.859-5.474-.214-.322-1.288-1.181-2.575-1.61 1.717-.966 3.863-.429 5.473.751 2.254 1.718 3.113 4.401 2.684 6.977-.43 3.112-2.254 5.474-4.83 7.406a26.866 26.866 0 0 1 -3.757 2.254c-3.112 1.502-6.44 2.254-9.874 2.468-.108 0-.322 0-.429-.214-.215-1.181.107-2.684-1.288-3.435-.966-.537-2.147-.322-2.898.537-.752.858-.537 1.932-.644 3.005 0 .107-.215.215-.43.215-2.039-.215-4.078-.537-6.01-1.503-1.181-.537-2.254-1.181-3.22-2.147l-.966-.966c-1.181-1.502-2.147-3.542-1.717-5.473 1.18 1.824 3.22 2.039 4.937 1.395 2.147-.859 3.005-3.327 2.576-5.581-.537-2.362-2.791-3.864-5.045-4.186-3.327-.215-5.366.858-6.654 2.683-2.147 2.898-2.039 6.869-.537 9.982 1.503 3.22 4.293 5.474 7.406 7.083 2.898 1.396 6.01 2.147 9.016 2.254.751 0 .751 1.503.429 2.04-.215.107-.429.107-.537.107-3.005 0-6.01-.429-8.908-1.073-3.22-.752-6.332-1.825-9.338-3.435-1.502-.751-3.22-1.073-4.937-.751-4.508.858-6.976 4.078-10.411 7.406 3.435 3.327 5.903 6.547 10.411 7.405 1.717.322 3.327.108 4.937-.751 3.006-1.503 6.118-2.683 9.338-3.435 2.898-.643 5.903-1.073 8.908-1.073.108 0 .322 0 .537.108.322.536.322 2.039-.429 2.039-3.006.107-6.225.858-9.016 2.254-3.113 1.502-5.903 3.864-7.406 7.083-1.502 3.006-1.61 7.084.537 9.982 1.395 1.825 3.327 2.898 6.654 2.683 2.254-.322 4.508-1.717 5.045-4.185.429-2.254-.429-4.723-2.576-5.582-1.717-.644-3.757-.429-4.937 1.396-.537-1.932.429-4.079 1.717-5.474l.966-.966c.966-.859 2.039-1.503 3.22-2.147 1.824-.858 3.971-1.288 6.01-1.502.215 0 .43.107.43.214.107 1.074-.108 2.147.644 3.006.751.858 1.932 1.073 2.898.536 1.288-.644 1.073-2.146 1.288-3.434 0-.215.321-.215.429-.215 3.434.107 6.762.859 9.874 2.469 1.288.644 2.576 1.395 3.757 2.254 2.576 1.824 4.293 4.293 4.83 7.405.429 2.684-.43 5.367-2.684 6.977-1.502 1.18-3.649 1.717-5.473.751 1.287-.322 2.361-1.288 2.575-1.61 1.288-1.61 1.503-3.542.859-5.474-.644-1.717-2.147-3.005-3.971-3.542-4.723-.966-7.943 1.932-9.123 5.367-1.073 3.434-1.61 13.416 9.23 16.314 2.576.751 5.689.644 9.016-.859 8.264-3.756 11.055-14.489 6.01-22.217-3.649-5.581-9.123-8.694-15.133-10.411-3.113-.859-6.44-1.288-9.66-1.503-.751 0-.644-.966-.536-1.609 0-.215.214-.322.429-.322 3.327.214 6.654.536 9.874 1.073a76.481 76.481 0 0 1 12.343 3.005c3.864 1.288 7.728 2.361 11.699 2.576 11.162.429 18.675-5.474 22.861-8.908-4.186-2.791-11.806-8.801-22.861-8.265zm-172.479 119.457-1.718 2.683-1.717 2.684.751-.43c.43-.214.859-.322 1.181-.429.429-.107.751 0 1.073.107.43.108.859.322 1.288.537.43.215.966.537 1.503.859l-5.689 8.693-5.688 8.694c-.429.644-.751 1.073-1.181 1.503-.429.429-.858.644-1.288.858l-.214.108-.215.107 6.118 3.971v-.429c0-.429.107-.966.214-1.503.108-.536.43-1.18.859-1.717l5.689-8.694 5.688-8.693c.537.322.966.751 1.395 1.073.43.322.752.644.966.966.215.322.43.644.537.966s.107.751.107 1.288l-.107.858 1.717-2.683 1.718-2.683zm-49.265-67.403-.214.322c-.537.859-1.503 1.503-2.791 2.039l-19.427 7.513c-1.287.537-2.468.644-3.434.322l-.43-.107 2.576 6.762.215-.43c.537-.751 1.503-1.502 2.79-2.039l9.553-3.649c.644 1.717 1.073 2.683 1.181 3.327.322.966.429 1.825.214 2.683l-.107.43 5.152-1.932-.322-.322c-.751-.537-1.288-1.288-1.717-2.147-.322-.536-.537-1.395-1.288-3.327l6.547-2.576 1.61 4.186c.536 1.395.536 2.576-.215 3.434l-.537.644 5.474-2.146zm15.026 30.16c-3.434-5.367-9.23-5.474-17.28-.322-8.049 5.151-10.411 10.411-6.976 15.777 3.434 5.367 9.23 5.474 17.173.322 8.049-5.044 10.411-10.411 7.083-15.777zm-21.251 13.631c-1.61-2.469.644-5.796 6.762-9.66s9.982-4.508 11.592-2.039c1.61 2.468-.644 5.795-6.762 9.659s-10.089 4.508-11.592 2.04zm40.035 9.766c-4.401-4.507-10.089-3.541-16.958 3.113-6.87 6.547-8.158 12.236-3.757 16.851 4.4 4.508 10.089 3.542 16.958-3.113 6.869-6.654 8.157-12.343 3.757-16.851zm-18.139 17.495c-2.039-2.146-.537-5.796 4.722-10.733 5.152-5.044 8.909-6.44 10.948-4.293s.537 5.796-4.722 10.84c-5.26 4.938-8.909 6.226-10.948 4.186zm69.442 31.555c-.537-1.502-1.395-2.683-2.683-3.756 1.18 0 2.361-.322 3.434-.966 1.181-.751 2.04-1.825 2.576-3.113.644-1.717.537-3.649-.429-5.473-.966-1.825-3.005-3.328-6.118-4.508l-6.976-2.576.107.429c.215.966.107 2.147-.322 3.435l-7.298 19.426c-.537 1.288-1.181 2.254-2.04 2.791l-.429.215 8.264 3.112c2.898 1.073 5.474 1.181 7.514.322 2.039-.858 3.434-2.254 4.185-4.293.644-1.717.752-3.435.215-5.045zm-5.796-15.133 1.396.537c1.502.536 2.468 1.288 3.005 2.361.536.966.536 2.039.107 3.112-.429 1.074-1.181 1.825-2.254 2.362-1.073.536-2.361.429-3.971-.108l-1.073-.429zm-1.502 20.715c-1.288.429-2.791.322-4.616-.322l-1.288-.43c0-.107 3.435-9.015 3.435-9.015l1.61.644c1.717.644 2.791 1.61 3.435 2.79.536 1.288.536 2.469.107 3.864-.644 1.073-1.503 2.039-2.683 2.469zm197.379-104.218c-1.503.43-2.791 1.396-3.757 2.684a6.658 6.658 0 0 0 -.966-3.435c-.751-1.181-1.824-2.039-3.112-2.576-1.718-.644-3.542-.537-5.474.429s-3.327 3.006-4.615 6.118l-2.684 6.977.43-.108c.966-.214 2.146-.107 3.434.322l19.427 7.513c1.288.537 2.254 1.181 2.79 2.04l.215.429 3.22-8.264c1.073-2.898 1.288-5.474.429-7.513-.858-2.04-2.254-3.435-4.185-4.186-1.825-.859-3.542-.966-5.152-.43zm-15.134 5.689.537-1.395c.536-1.503 1.288-2.469 2.361-3.006.966-.536 2.039-.536 3.113-.107 1.073.429 1.824 1.181 2.361 2.254.429 1.073.429 2.361-.215 3.971l-.429 1.073zm20.607 1.717c.43 1.288.322 2.791-.429 4.615l-.536 1.288c-.108 0-9.016-3.434-9.016-3.434l.644-1.61c.644-1.718 1.61-2.791 2.79-3.327 1.288-.537 2.469-.537 3.864 0 1.396.429 2.254 1.287 2.683 2.468zm-168.722 108.939-.751.322 7.835.966-.429-.429c-.644-.751-1.181-1.932-1.288-3.327l-2.469-21.573c-.107-.859-.107-1.503-.107-1.932.107-.537.214-.859.536-1.181l.43-.322-6.655-.859.322.43c.215.322.322.751.215 1.288-.108.429-.215 1.073-.537 1.824l-7.835 20.286c-.537 1.288-1.181 2.361-2.039 2.898l-.537.322 7.835.966-.644-.537c-.429-.322-.644-.751-.536-1.395 0-.322.107-.644.322-1.181l1.073-3.005 5.903.751.322 3.22v1.181c-.107.644-.429 1.073-.966 1.287zm-3.971-9.981c1.717-4.937 2.898-8.265 3.434-9.875.108 1.718.43 5.152.859 10.411zm40.678 6.225c-.858.429-1.932.644-3.327.751l-2.683.215-1.717-20.607c-.108-1.396.107-2.469.536-3.328l.215-.429-7.084.644.322.322c.644.751 1.074 1.825 1.181 3.22l1.717 20.715c.107 1.395-.107 2.468-.644 3.434l-.215.429 14.49-1.18-.537-6.869-.429.966c-.429.751-1.073 1.395-1.825 1.717zm32.306-7.298c-.751.536-1.824.966-3.112 1.395l-2.576.751-5.903-19.856c-.43-1.288-.43-2.468-.108-3.434l.108-.43-6.869 2.04.322.322c.858.644 1.395 1.61 1.824 2.898l5.903 19.856c.43 1.288.43 2.468.108 3.434l-.108.43 13.953-4.186-1.932-6.655-.214 1.073c-.108 1.181-.644 1.932-1.396 2.362zm28.443-41.43c-2.898 2.04-4.508 4.616-4.83 7.943-.215 3.327.859 6.654 3.327 10.303 2.469 3.65 5.26 6.011 8.372 7.084 3.113 1.073 6.011.751 8.694-1.18 1.073-.752 2.146-1.825 3.327-3.435l.107-.107-3.541-5.26.107.859c.215 2.039-.429 3.649-1.825 4.615-1.395.966-3.112 1.074-5.044.215-2.04-.859-3.971-2.683-5.903-5.474-1.825-2.683-2.898-5.259-3.113-7.513-.215-2.147.429-3.756 1.932-4.83 1.503-.966 3.113-1.073 5.044-.107l.752.322-3.542-5.259h-.107c-1.396.536-2.684 1.073-3.757 1.824zm38.746-2.039c-.43.859-1.074 1.717-2.04 2.791l-1.824 1.824-14.597-14.597c-.966-.965-1.503-1.931-1.717-2.897l-.108-.43-5.044 5.045.429.107c1.073.215 2.039.751 3.005 1.717l14.705 14.705c.966.965 1.502 1.931 1.717 3.005l.107.429 10.304-10.304-4.83-4.829.322 1.073c0 .751-.107 1.61-.429 2.361zm-2.254-36.063h.429c.966 0 2.04.322 3.22 1.074l13.631 8.908c2.576 1.717 3.113 3.649 1.717 5.796-1.395 2.146-3.434 2.468-6.01.751l-13.631-8.908c-1.181-.752-1.932-1.61-2.254-2.469l-.215-.429-3.756 5.796h.429c.966 0 2.039.322 3.22 1.073l13.094 8.586c2.362 1.503 4.616 2.04 6.87 1.61 2.146-.429 3.971-1.717 5.366-3.971 1.503-2.254 1.932-4.4 1.503-6.547-.537-2.147-1.932-4.079-4.294-5.581l-13.094-8.587c-1.18-.751-1.932-1.61-2.254-2.468l-.214-.429zm-135.022-207.146-3.112.429-4.401-30.267c-.322-1.932-.107-3.864.751-5.366-.643.107-8.801 1.288-9.444 1.395 1.18 1.18 1.931 3.005 2.253 4.937l4.508 30.375c.322 1.932.108 3.863-.751 5.366.429-.107 19.749-2.898 19.749-2.898s-1.074-7.406-1.396-9.337c-1.073 4.4-5.044 4.829-8.157 5.366zm144.467 82.108-1.288-2.898 28.121-12.128c1.824-.752 3.756-1.074 5.366-.752-.215-.644-3.542-8.157-3.757-8.801-.858 1.503-2.468 2.683-4.185 3.435l-28.228 12.128c-1.825.751-3.757 1.073-5.367.751.215.43 7.943 18.354 7.943 18.354s6.869-2.898 8.694-3.757c-4.508.322-6.011-3.542-7.299-6.332zm7.835 25.436-.644-3.112 29.945-6.547c1.932-.43 3.864-.43 5.474.322-.108-.644-1.932-8.694-2.04-9.338-1.073 1.288-2.898 2.147-4.83 2.576l-29.945 6.547c-1.931.429-3.863.429-5.473-.322.107.429 4.293 19.534 4.293 19.534s7.298-1.61 9.23-2.039c-4.615-.537-5.366-4.508-6.01-7.621zm-123.859-145.216c-8.693-.43-13.416 6.44-14.167 20.5-.752 13.952 3.327 21.251 12.021 21.68 8.693.429 13.416-6.44 14.167-20.285.644-14.06-3.327-21.466-12.021-21.895zm-1.932 37.136c-4.185-.215-6.01-5.689-5.473-16.422.536-10.733 3.005-15.992 7.191-15.777 4.186.214 6.01 5.795 5.474 16.421-.644 10.626-3.006 15.992-7.192 15.778zm50.338-21.467c.537-1.932 1.503-3.542 2.898-4.615l-9.123-2.683c.644 1.61.537 3.542-.107 5.474l-6.869 22.968c-1.288 4.401-3.649 6.118-7.084 5.045-3.435-1.074-4.508-3.65-3.22-8.157l6.869-22.969c.537-1.932 1.503-3.542 2.898-4.615l-9.123-2.683c.644 1.61.537 3.541-.107 5.474l-6.655 22.109c-1.18 3.864-1.073 7.299.322 10.197 1.396 2.79 3.864 4.722 7.406 5.796 3.542 1.073 6.547.751 9.338-.752 2.683-1.61 4.722-4.4 5.903-8.264zm18.997 8.48c.859-1.717 2.146-3.22 3.649-4.078-.537-.322-7.942-3.972-8.586-4.294.322 1.718-.108 3.65-.966 5.367l-13.631 27.476c-.859 1.718-2.147 3.22-3.649 4.079.536.322 7.942 3.971 8.586 4.293-.322-1.717.107-3.649.966-5.366zm-209.079 46.796c-1.61-1.181-2.898-2.684-3.327-4.294-.429.537-5.259 7.192-5.688 7.728 1.717 0 3.541.751 5.151 1.932l24.794 18.139c1.609 1.18 2.897 2.683 3.327 4.293.429-.537 5.259-7.191 5.688-7.728-1.717 0-3.542-.751-5.152-1.932zm273.476 12.664c1.61-1.073 3.435-1.717 5.152-1.61-.322-.537-4.937-7.406-5.259-7.942-.537 1.61-1.932 3.005-3.542 4.078l-25.652 16.851c-1.61 1.073-3.434 1.717-5.151 1.61.322.537 4.937 7.406 5.259 7.942.536-1.61 1.932-3.005 3.542-4.078zm-49.478-46.151c1.396-1.932 3.972-2.469 6.655-.537 3.327 2.361 3.864 6.225 3.434 9.338.644-.966 4.079-5.582 5.045-7.084-1.717-3.113-3.22-4.937-5.474-6.547-2.576-1.932-5.366-2.791-8.264-2.576-3.006.214-5.474 1.61-7.513 4.4-6.44 8.909 3.541 20.286-.644 25.974-2.362 3.22-6.118 1.61-7.192.751-2.468-1.824-4.078-6.01-3.649-9.552-1.073 1.395-3.971 5.581-5.044 7.191.858 2.147 2.898 4.615 5.688 6.547 2.791 2.04 5.796 3.006 8.694 2.898 3.005-.107 5.474-1.61 7.406-4.293 6.547-8.908-3.972-19.856.858-26.51zm37.351 21.466c.107.966.322 1.717-1.288 2.897-1.61 1.074-23.72 14.168-23.72 14.168s14.919-20.822 16.207-22.432c1.288-1.503 2.039-1.288 3.005-1.073-.322-.322-6.44-7.084-6.869-7.621.215 1.825-.107 3.006-1.288 5.152 0 0-18.783 28.121-19.856 29.087-1.073.965-1.932 1.073-2.361 1.073.429.536 3.005 3.22 3.005 3.22s2.576 2.79 3.005 3.22c0-.43.215-1.288 1.288-2.254 1.074-.966 30.804-17.173 30.804-17.173 2.147-.966 3.435-1.181 5.259-.751-.751-.43-6.869-7.191-7.191-7.513zm6.547 112.911v-3.22h16.636v5.152c0 1.61-.537 3.112-1.395 4.186h7.62c-.858-1.074-1.395-2.576-1.395-4.186v-5.152h9.23v2.469c0 4.508.322 7.298-2.898 8.693h8.05v-19.319c-1.395 1.073-3.327 1.503-5.259 1.503h-30.696c-1.932 0-3.864-.43-5.26-1.503v19.963h9.445c-4.185-1.395-4.078-5.473-4.078-8.586zm-273.154-12.129c-5.045 1.825-10.411 3.542-12.343 6.762-2.147-6.869-6.977-7.835-10.411-7.835-4.294 0-11.163 3.005-11.163 13.846v9.552c1.396-1.073 3.328-1.503 5.26-1.503h30.696c1.932 0 3.864.43 5.259 1.503v-9.552c-1.395 1.073-3.327 1.502-5.259 1.502h-13.309c1.181-6.762 13.631-6.01 18.461-10.089v-8.479c-.966 2.147-2.147 2.361-7.191 4.293zm-15.67 14.275h-13.418c-.537-4.508 1.073-9.016 6.44-9.016 5.903 0 7.298 4.616 6.976 9.016zm28.121-39.068c.107-.429 2.361-9.338 2.576-9.874-1.396 1.18-2.576 1.61-4.938 1.717 0 0-33.809-.429-35.204-.751-1.502-.43-2.04-.966-2.254-1.396-.215.644-2.04 7.943-2.254 8.587.43-.215 1.18-.537 2.576-.108 1.503.43 31.233 16.422 31.233 16.422 2.039 1.288 2.791 2.254 3.542 3.971.215-.644 2.469-9.552 2.576-9.874-.751.536-1.288 1.18-3.113.429-.536-.215-2.575-1.18-5.259-2.576l2.254-8.694c3.005.108 5.367.322 5.903.322 1.825.108 2.04.966 2.362 1.825zm-15.778 3.864c-6.762-3.327-14.382-7.084-14.382-7.084s8.479.43 15.992.752zm-11.486-47.225c-2.146 4.4-2.146 8.801 0 12.987 2.147 4.186 6.011 7.62 11.914 10.518 5.796 2.791 11.055 3.864 15.67 3.113 4.615-.752 7.943-3.113 9.982-7.299.751-1.61 1.395-4.186 1.61-6.547-1.61-.751-6.225-3.005-7.943-3.864 2.362 2.791 2.791 5.474 1.718 7.728-1.074 2.146-3.113 3.434-6.333 3.649-3.22.322-7.084-.644-11.591-2.79-4.401-2.147-7.621-4.508-9.553-7.192-1.932-2.576-2.254-5.044-1.18-7.405 1.073-2.254 3.327-3.65 7.083-3.65-1.18-.536-6.332-3.112-7.942-3.863-1.288 1.18-2.576 2.897-3.435 4.615zm48.729-50.337c-1.395-1.396-2.361-3.113-2.468-4.83l-6.548 6.118c1.718.322 3.328 1.395 4.723 2.79l14.812 15.778-24.364-11.592c-.644-.322-.966-.859-1.074-1.503l-6.869 6.44c1.718.322 3.327 1.395 4.723 2.791l20.929 22.432c1.395 1.395 2.361 3.112 2.469 4.83l6.547-6.118c-1.717-.322-3.327-1.396-4.723-2.791l-15.67-16.851 24.579 12.021c.858.43 1.502 1.288 1.61 2.147l6.869-6.44c-1.718-.322-3.328-1.395-4.723-2.79zm33.272-1.932c1.717.429 3.327 1.824 4.185 3.541 0 0 2.254 4.294 4.186 7.943-.644.751-1.395 1.288-2.254 1.717-2.146 1.181-4.507.859-7.298-.751s-5.367-4.723-7.62-9.123c-2.254-4.293-3.542-8.157-3.435-11.484.215-7.621 8.479-10.09 13.846-5.904-.537-1.073-3.22-6.225-4.079-7.727-3.327-.108-6.332 1.18-7.942 2.039-4.294 2.254-6.869 5.796-7.728 10.518-.751 4.615.322 9.767 3.434 15.456 3.006 5.688 6.655 9.659 10.733 11.699 4.186 2.146 8.265 2.146 12.343 0 1.932-1.074 4.616-3.65 5.796-4.294 1.181-.644 2.147 0 2.147 0l-6.869-13.094c-.859-1.717-1.288-3.756-.752-5.366zm222.816 289.147h-3.112v-1.288h7.728v1.288h-3.113v8.693h-1.503zm14.812.751-3.22 7.942h-.644l-3.22-7.942v7.942h-1.502v-9.981h2.146l2.898 7.191 2.898-7.191h2.147v9.981h-1.503z"/></g></svg>