<svg viewBox="0 0 500 500" xmlns="http://www.w3.org/2000/svg"><path d="m249.509 41c-127.616 39.262-162.509 95.098-162.509 95.098 0 255.656 162.018 322.694 162.509 322.902 0 0-.006 0 0-.006.007 0 0 0 0 .006.505-.208 162.491-67.253 162.491-322.902 0 0-34.868-55.836-162.491-95.098z" fill="#c8c8c8"/><path d="m249.51 458.994c-.007.007 0 .007 0 0 0 .007.006.007 0 0z" fill="#e6e6e6"/><path d="m249.496 53.92c-117.923 38.952-150.104 86.343-150.104 86.343 0 240.118 150.111 306.581 150.111 306.581 0-.006 150.079-66.463 150.079-306.581-.006 0-32.156-47.392-150.086-86.345z" fill="#b4a269"/><path d="m249.496 53.92c-117.923 38.952-150.104 86.343-150.104 86.343 0 240.118 150.111 306.581 150.111 306.581 0-.006 150.079-66.463 150.079-306.581-.006 0-32.156-47.392-150.086-86.345z" fill="#b4a269"/><path d="m249.503 66.851c-99.893 30.155-137.681 77.862-137.681 77.862 0 218.558 136.874 285.76 137.681 286.265.801-.511 137.656-67.707 137.656-286.265 0 0-37.769-47.707-137.656-77.862z" fill="#00416b"/><path d="m249.503 66.851c-99.893 30.155-137.681 77.862-137.681 77.862 0 32.926 3.109 62.418 8.388 88.761l186.41-144.893c-16.213-7.63-35.164-15.103-57.117-21.73z" fill="#ab0033"/><path d="m275.36 306.091-8.892-1.571 30.838 21.603zm8.929-6.28-8.886-1.565 30.832 21.597zm-4.819-17.166h11.207l-15.962-11.184-10.134 4.734 22.968 16.093zm34.251-14.888-2.093 3.623 7.876 4.556 8.886-15.405h-35.549l12.512 7.226z" fill="#b4a269"/><path d="m171.424 280.587-4.887 2.828a91.613 91.613 0 0 0 -7.681 23.44 308.746 308.746 0 0 0 4.502 9.921l8.268-.006-5.228 6.235c5.449 10.868 11.371 21.061 17.746 30.528 9.952 14.781 21.127 27.952 33.229 39.148 9.932 9.19 20.704 17.243 32.125 24.021v-57.394l-17.98 4.821-12.335-39.142 27.451-19.237v-10.142l-13.735-9.631 7.07-4.954 9.516 4.443v-45.605c10.014-8.779 44.145 1.521 58.41 12.345-14.738-12.086-33.33-19.653-53.611-20.701l-4.799 8.356-4.806-8.325c-20.281 1.042-38.822 8.647-53.56 20.733l.599 1.035h-36.034zm43.269 19.224 8.892-1.565-30.839 21.597zm-13.017 26.312 21.946-20.032 8.892-1.571zm32.724-49.928-22.968 16.093 8.085-9.643h-11.207l15.962-11.184zm-28.253-15.665-12.518 7.227h-8.362l2.094 3.622-7.877 4.551-8.886-15.406h35.549z" fill="#b4a269"/><path d="m229.675 323.643 5.001 15.885 4.427-14.061h20.773l4.434 14.061 4.994-15.885-8.766-6.141h-6.848l-4.194 4.203h-.006l-4.201-4.203h-6.848z" fill="#fff"/><path d="m236.721 356.196h25.541l-5.79-18.315-4.458 14.105h-5.039l-4.459-14.105zm-27.679-247.394h-5.26v18.965l-5.827-18.965h-5.259a.565.565 0 0 0 -.568.568v38.227c0 .316.252.568.568.568h5.259v-18.751l5.827 18.751h5.26a.565.565 0 0 0 .567-.568v-38.221a.579.579 0 0 0 -.567-.574zm80.381 37.186 3.835 2.101c.082.044.176.07.271.07h8.551a.567.567 0 0 0 .284-.076l3.954-2.297a.568.568 0 0 0 .284-.493v-11.663l-5.827 3.49v4.765a.506.506 0 0 1 -.505.505h-4.818a.506.506 0 0 1 -.504-.505v-26.797c0-.278.227-.505.504-.505h4.818c.278 0 .505.227.505.505v5.964l5.827-3.389v-6.267a.563.563 0 0 0 -.309-.505l-3.942-2.026a.54.54 0 0 0 -.258-.063h-8.621a.554.554 0 0 0 -.265.069l-3.777 2.02a.574.574 0 0 0 -.303.498v34.106a.56.56 0 0 0 .296.493z" fill="#fff"/><path d="m156.63 213.234 4.666-2.751c.259-.127.385-.322.385-.575v-13.954l-6.969 4.134v5.661c0 .379-.189.574-.573.574h-5.752a.38.38 0 0 1 -.416-.126.67.67 0 0 1 -.158-.448v-31.802c0-.385.189-.575.574-.575h5.752c.384 0 .573.19.573.568v7.044l6.969-4.033v-7.485c0-.215-.126-.404-.385-.575l-4.666-2.429a.69.69 0 0 0 -.322-.064h-10.292c-.17 0-.278.019-.322.064l-4.477 2.429c-.259.127-.385.322-.385.575v40.632c0 .296.107.511.322.637l4.603 2.493c.044.044.152.063.322.063h10.166c.17.006.296-.013.385-.057zm17.385-2.751 4.73 2.751a.667.667 0 0 0 .321.064h10.04c.17 0 .297-.019.385-.064l4.667-2.751c.258-.127.384-.322.384-.575v-40.442c0-.215-.126-.404-.384-.575l-4.73-2.429c-.044-.045-.126-.064-.259-.064h-10.103a.7.7 0 0 0 -.321.064l-4.667 2.429c-.259.127-.385.341-.385.638v40.379a.63.63 0 0 0 .322.575zm7.227-37.174h5.752c.384 0 .573.19.573.575v31.928c0 .385-.189.575-.573.575h-5.752c-.385 0-.574-.19-.574-.575v-31.928c-.006-.385.189-.575.574-.575zm25.448 37.174 4.73 2.751a.667.667 0 0 0 .321.064h10.04c.17 0 .296-.019.385-.064l4.666-2.751c.259-.127.385-.322.385-.575v-42.935c0-.385-.214-.575-.637-.575h-6.331v39.351c0 .385-.19.575-.574.575h-5.752c-.384 0-.574-.19-.574-.575v-39.351h-6.275c-.466 0-.706.234-.706.707v42.803c0 .253.107.448.322.575zm33.051 2.815h6.269v-19.711l6.906-2.625v22.336h6.268c.467 0 .706-.234.706-.707v-23.163c0-.296-.126-.511-.384-.637l-4.793-2.626 4.793-2.751c.258-.127.384-.322.384-.575v-13.373c0-.259-.126-.448-.384-.575l-4.667-2.429a.685.685 0 0 0 -.322-.064h-14.776c-.466 0-.706.234-.706.707v45.492c.006.467.24.701.706.701zm6.269-39.351c0-.379.189-.575.574-.575h5.751c.385 0 .574.19.574.575v8.141l-6.905 2.67v-10.811zm26.593 39.351h6.2l.063-19.711 6.905-2.625v22.336h6.269c.466 0 .706-.234.706-.707v-43.125c0-.215-.126-.404-.385-.575l-4.666-2.429a.69.69 0 0 0 -.322-.064h-10.04a.287.287 0 0 0 -.126.032.485.485 0 0 1 -.189.032l-4.793 2.688c-.214.126-.322.341-.322.638v42.803c0 .473.234.707.7.707zm6.269-38.84c0-.341.107-.619.322-.833.214-.215.491-.322.832-.322h5.114c.423 0 .637.215.637.637v8.123l-6.905 2.689zm46.156-5.567-4.667-2.429a.683.683 0 0 0 -.321-.064h-10.103a.704.704 0 0 0 -.322.064l-4.667 2.429c-.258.127-.385.322-.385.575v40.436a.62.62 0 0 0 .322.574l4.73 2.752a.681.681 0 0 0 .322.063h10.04c.17 0 .296-.019.384-.063l4.667-2.777c.259-.126.385-.322.385-.581v-23.774h-10.488v9.789h3.519v9.852c0 .385-.189.574-.574.574h-5.751c-.385 0-.574-.189-.574-.574v-31.803c0-.385.189-.574.574-.574h5.751c.385 0 .574.189.574.568v7.056l6.969-4.033v-7.485c0-.253-.126-.448-.385-.575zm32.415-2.493h-14.971c-.17 0-.278.019-.322.064l-4.515 2.429c-.259.127-.385.322-.385.575v43.251c0 .385.195.574.58.574h19.626c.467 0 .706-.24.706-.713v-6.198h-13.3c-.429 0-.637-.214-.637-.637v-12.162h8.634v-7.422h-8.634v-12.288c0-.385.214-.574.637-.574h13.3v-6.198c-.012-.467-.246-.701-.719-.701z" fill="#b4a269"/><path d="m281.111 108.43h-22.558l-9.068-22.942-9.069 22.942h-22.526l17.885 15.715-5.821 24.052z" fill="#fff"/><path d="m263.523 126.392-12.203 9.498 17.69 13.184z" fill="#b4a269"/></svg>