<svg viewBox="0 0 500 500" xmlns="http://www.w3.org/2000/svg"><path d="m486.736 270.163-66.107-206.956c-7.333-18.685-26.491-31.812-46.595-31.812l-249.057.355c-19.868 0-39.38 13.481-46.595 31.93l-65.752 206.956c-7.923 20.341.473 45.058 19.158 56.293l190.755 134.58c7.687 4.612 17.384 7.214 27.2 7.214s19.513-2.602 27.318-7.332l190.518-135.054c18.804-11.116 27.2-35.951 19.158-56.174z" fill="#fff"/><path d="m147.683 360.396c2.247-14.546 15.847-24.48 30.393-22.233s24.48 15.847 22.233 30.393c-2.01 13.246-13.6 22.706-26.609 22.588l25.545 16.084c.473-4.258 4.139-8.752 4.73-10.053.591-1.3 2.602-2.01 2.602-2.01s2.956-2.957 4.73-6.031c1.774-3.075 9.816-20.696 12.418-29.92 2.72-9.225.118-8.397 3.193-15.138 2.956-6.267 12.062-18.685 11.707-22.469-.354-3.785-2.365-9.461-5.676-11.353-1.656-.946-4.021-3.666-6.977-7.687-2.957.118-7.451 1.301-8.042-2.602-.71-5.322-12.418-25.426-12.418-25.426s-15.137 7.924-18.093 12.536c-1.42 2.128-2.72 1.182-6.505.591-.946-.118-1.774-.355-2.483-.591-1.892 1.182-3.548 2.247-4.731 2.956-4.494 2.72-11.116 3.903-16.674 8.988-5.559 4.967-16.912 11.471-19.868 12.536-2.839 1.064-7.096-.592-9.816-.592-2.838 0-10.052-3.311-12.181-7.45-2.128-4.139-7.332-8.397-14.901-17.739-7.805-9.579-9.46-9.461-10.407-10.289-.946-.828-6.859-2.247-7.923-1.537-1.064.709-2.01.591-2.247-.119-.237-.709-9.106-6.859-20.814-5.558-8.396.946-10.525-2.72-10.525-5.913 0-3.548 9.934-12.535 16.556-12.181 6.505.237 15.138 1.183 17.03 1.065 2.602-.119 6.977-2.247 7.332-2.484.237-.236 1.774-2.01 2.247-2.128.473-.119 1.183 0 1.301.473s.236 1.064.473 1.064c.236 0 1.3.118 1.656-.237.354-.354.473-1.182 1.064-1.419.473-.236 3.193.473 3.43 1.065.236.591.236 1.064.709 1.537s1.892 1.183 2.602 5.085c.709 4.494-1.538 8.397-1.301 8.633.237.237 2.365.828 6.977 2.602 4.731 1.656 9.225 3.43 13.6 5.676 4.967 2.484 9.106 12.654 9.106 12.654s6.15-5.676 10.053-8.751c2.838-2.247 8.16-8.633 10.643-11.826 0 0 0-.118-.118-.118-.828-1.065-1.183-2.129 1.182-4.139 1.656-1.419 8.16-8.042 12.891-12.891 2.483-2.838 5.322-5.795 8.396-8.988 3.193-3.902 7.096-8.987 8.515-10.407 1.774-1.655 5.322-3.784 6.268-4.257l.236-.236c-.118-.237-.591-1.183-.591-2.129 0-2.957 3.548-5.204 7.924-8.988.709-.591 1.3-1.301 1.892-1.892.946-2.011 1.419-3.784 2.602-5.558 3.311-5.322 1.892-14.665-.355-22.588-2.129-7.805-2.484-15.256-2.484-15.256-.118 0-.355 0-.591-.118-1.537.709-3.193 1.301-4.849 1.301-4.375-.118-5.44 1.182-8.396 1.892-2.957.71-3.075.118-3.312-.591-.118-.237-.118-.71-.118-1.301-2.838.828-5.676 2.128-8.278 4.021-8.515 6.386-13.837 6.977-17.503 7.923-3.547.946-9.106 2.838-14.546 4.139-5.558 1.301-19.631 3.43-26.49 5.795s-7.805 4.139-7.805 4.139c-4.612 3.784-6.978 2.011-9.343 3.666-2.365 1.656-3.43 1.892-3.43 1.892-.473 2.129-1.773 2.366-1.773 2.366.827.827.59 1.892.59 1.892.237 1.892-2.72 1.064-2.72 1.064l-.117.71c.118 1.655-1.42 1.537-1.42 1.537-.236 0-.945-.236-1.537-1.064-.591-.71-1.3-.828-2.483-1.774s-1.183-2.838-1.183-2.838l-.946-2.839c-.946-2.838-1.183-3.902-.118-5.676 1.182-1.774 2.483-4.376 2.483-4.376 2.72-6.268 3.903-3.429 7.096-4.021 3.193-.709 6.268-.118 10.525-1.182 4.139-1.065 11.944-4.494 21.76-8.515 9.934-3.903 27.2-11.235 27.2-11.235 8.87-4.494 11.471-1.537 16.202-5.203 4.73-3.666 12.417-8.16 17.147-10.171 4.731-2.01 7.214-8.16 15.02-10.288 3.902-1.065 6.504-2.011 8.16-2.484 1.655-1.183 4.02-2.365 6.386-3.075 3.429-1.064 5.794-1.892 7.923-3.311 2.247-1.419 4.967-1.892 5.558-2.129.473-.236 3.43-2.483 3.43-2.483 1.537-.355 2.838.236 3.548.709 1.182-1.655 1.892-3.902 1.892-3.902-1.064-4.258 0-12.654 0-12.654s-.71.591-1.537-.828c-1.183-1.892-.71-3.548-.71-3.548.118-4.257-1.301-2.601 0-7.332 1.301-4.612 2.838-1.537 2.838-1.537l.237-1.065c0-.118 0-.118.118-.236 0-.71.118-1.537.355-2.484.591-3.074 1.419-7.687 4.139-11.116-2.484-1.065-5.44.591-6.031 5.203-.828 6.15-7.806 7.45-11.353 8.279-3.548.827-6.15 5.676-6.15 5.676s1.064-6.031 6.031-7.095c7.806-1.656 5.795-7.688 5.795-7.688-7.096 6.268-13.6 7.214-16.911 6.86-7.805-.946-10.644-5.677-10.644-5.677 4.967 4.14 12.063.946 12.063.946-10.17.473-14.191-7.923-14.901-9.46.473 1.064 3.075 5.203 11.944 4.966 4.494-.118 7.214-1.892 9.107-4.257h-.237c-5.085.71-9.224-7.687-9.224-7.687s1.537 2.483 6.267 5.085c4.849 2.602 6.032-2.72 8.397-6.031.237-.355.591-.71.946-1.064.473-.474.946-.947 1.537-1.42l-109.627.119c-8.042 0-17.03 6.15-19.986 13.718l-69.656 203.054c-2.956 7.568.355 17.029 7.214 21.286l113.885 71.903c-2.247-4.73-3.193-10.17-2.365-15.729z" fill="#ac1f23"/><path d="m490.402 270.282-67.053-209.795c-7.451-18.922-26.846-32.167-47.305-32.167l-252.25.237c-20.104 0-39.972 13.6-47.186 32.285l-66.817 209.913c-7.924 20.577.591 45.648 19.513 57.12l193.474 136.473c7.806 4.73 17.621 7.332 27.555 7.332 10.052 0 19.868-2.602 27.673-7.332l193.12-136.946c18.922-11.472 27.436-36.543 19.276-57.12zm-22.706 47.659-195.721 124.292c-6.031 3.666-13.837 5.676-21.76 5.676-7.924 0-15.61-2.01-21.642-5.676l-195.958-123.819c-14.191-8.633-20.577-27.437-14.546-43.047l67.645-198.087c5.559-14.191 21.169-24.953 36.425-24.953l255.443-.236c15.492 0 30.866 10.525 36.542 24.953l68.118 197.85c6.15 15.492-.236 34.414-14.546 43.047z" fill="#b2b1b2"/><path d="m424.295 380.382-.237 1.065h-2.838l-1.538 7.45h-1.182l1.537-7.45h-2.838l.237-1.065zm.946 0h1.655l.946 7.214 3.903-7.214h1.656l-1.774 8.515h-1.065l1.065-4.967c0-.118.118-.473.236-.828.119-.354.237-.828.237-1.301l-3.903 7.214h-1.182l-.946-7.214v.237c0 .236-.119.473-.237.946s-.118.71-.236.946l-1.065 4.967h-1.064zm45.294-97.92-70.129-202.817c-2.956-7.568-11.944-13.6-19.986-13.6l-135.645.119c2.01 1.892 3.075 4.494 3.193 7.45 0 .591.118 1.064.237 1.656 2.72-1.183 5.44-2.129 8.396-1.538 2.957.592 11.59 3.43 16.438 10.88 0 0 4.494 4.021-1.182 16.202-.473 1.064-1.065 2.01-1.656 2.838-.118.237-.118.473-.118.473s2.01-.591 2.365.828c.355 1.538-1.537 5.085-2.957 6.741-1.419 1.656-2.128 3.548-3.074 4.494-.828.828-2.129.71-2.129.71-.118.946-1.183 2.01-2.957 5.676-.709 1.419-1.182 2.365-1.655 3.193.946-.591 1.774-1.064 2.129-1.064.354 0 .827.354 1.419.828 6.622-2.366 13.954-2.129 17.857-2.72 4.021-.473 9.106-.71 17.266-5.913 8.042-5.204 7.569-5.44 18.33-8.042 10.762-2.602 17.74-6.15 19.75-7.214s2.957-3.784 4.021-7.332.709-2.838 1.419-6.15c.828-3.43 1.419-4.494 2.483-4.139.947.237.237 5.085-.236 6.74-.473 1.893-.473 5.204-.473 5.204s.709.237 1.892-1.773c1.183-2.13 1.537-3.43 2.365-4.85.828-1.537.946-1.418 1.774-3.074.946-1.774 1.774-6.15 3.43-5.558 1.537.591.355 3.902-.473 6.15-.828 2.246-3.785 8.514-3.666 8.396.709-.237 1.537-2.365 2.956-4.021s1.892-3.311 3.193-6.268c1.419-2.956 3.666-2.602 3.548-.946-.118 1.183-2.247 7.096-3.548 8.87-1.301 1.773-2.838 4.966-2.72 4.966.118.237.592.237 2.129-1.655 2.129-2.838 2.602-2.365 3.666-3.903.946-1.537 2.72-3.548 3.666-3.193 1.774.71-.236 4.258-2.129 6.741-1.892 2.484-4.967 5.322-5.794 9.224-.828 3.785 3.666 2.247 6.74 1.774 3.075-.473 4.731.473 4.849 1.656.118 1.064-2.365 3.43-6.622 3.075-4.258-.355-6.978 1.064-11.708 1.655-4.731.592-7.096-3.429-14.192 1.183-7.095 4.612-12.772 7.805-19.158 12.772-3.902 3.075-4.021 2.129-10.643 4.731-2.602 1.064-6.859 2.365-11.353 3.784.236.828.591 1.774.355 1.892-.828.591-2.011.473-5.322.946-2.129.237-4.967 1.183-6.741 1.774-2.129 1.064-3.903 2.129-4.967 3.311-3.548 3.667-6.386 4.494-7.569 10.999-.355 3.074.237 6.859.237 6.859 6.031 20.459-2.838 20.577-4.612 25.662-1.893 5.086-.946 9.579-6.268 17.503-6.741 10.17-9.461 20.104-10.525 27.318-.473 3.311-.592 7.451.473 11.353.709 2.838-1.065 1.656-1.065 3.43.119.473.237.946.355 1.537.591 1.774 2.602 8.278 4.139 11.708 0 0 0 .118.118.118.355.592.828 1.419 1.301 2.247 3.312 4.849 11.708 22.351 10.999 22.824-.119.119-.355.237-.71.474.946 4.02 2.129 10.052 2.01 12.535-.236 3.311 0 8.633 2.839 16.32 2.838 7.687-1.774 15.019-4.494 17.858-2.72 2.956-1.419 3.311-5.913 14.191s-13.955 24.243-17.739 30.748c-3.666 6.149-12.418 17.857-8.87 21.996.591-.236 1.064-.591 1.419-.473.473.118 1.065.473 1.419 1.656.237.709.946 1.655 1.538 2.247 1.655 1.537 2.72 3.074 8.988 6.977 9.342 5.913 15.137 9.579 11.353 13.955-2.366 2.72-15.256 1.064-17.858-.237-2.483-1.301-11.353-7.923-20.932-8.041-1.064 0-2.129-.119-3.075-.119l25.072 15.847c6.859 4.139 18.212 4.139 25.071 0l200.452-127.367c6.859-4.139 10.17-13.718 7.214-21.287zm-157.997-59.012h-2.838l-9.106 36.425h-11.826l-6.268-26.845-6.386 26.845h-13.955l2.365-9.579h2.957l6.623-26.846h-2.957l2.365-9.579h14.783l6.031 28.028 6.623-28.028h13.955zm28.856 36.425 1.892-28.265-12.417 28.265h-15.492l2.956-36.425h-2.956l2.365-9.579h18.448l-2.365 9.579h-3.902l-3.43 27.082 15.847-36.661h10.998l-2.601 36.661 10.052-27.082h-4.258l2.366-9.579h18.448l-2.365 9.579h-2.957l-14.9 36.425zm57.593-2.957c-3.075 2.957-7.096 2.957-10.052 2.957h-20.223l3.43-13.955h11.826l-1.065 4.376h7.214l2.366-9.225h-8.87c-3.548-.118-8.751-.118-8.751-6.149 0-1.301.236-2.484.473-3.785l1.774-7.332c.709-2.247 1.301-4.375 3.074-6.386 3.075-3.429 6.978-3.429 9.934-3.548h20.105l-3.43 13.6h-11.116l.946-4.021h-7.214l-2.129 8.633h8.397c4.257.119 9.224.237 9.224 6.032 0 1.774-.355 3.429-1.064 6.149l-1.774 6.741c-.355 2.247-1.774 4.612-3.075 5.913zm36.779 2.957h-32.995l2.365-9.579h2.957l6.741-26.846h-2.957l2.366-9.579h18.448l-2.365 9.579h-2.957l-6.74 26.846h6.504l2.247-8.042h11.116z" fill="#1d3260"/></svg>