<svg viewBox="0 0 500 500" xmlns="http://www.w3.org/2000/svg"><path d="m240.043 438.198c-14.849-13.11-32.273-22.598-49.182-31.827-37.251-20.182-79.394-43.038-79.394-108.243v-247.624h276.979v247.536c0 65.205-42.143 88.062-79.308 108.244-16.909 9.229-34.419 18.716-49.268 31.826l-9.956 8.884-9.871-8.797z" fill="#fff"/><path d="m104 43v255.127c0 69.691 46.178 94.789 83.257 114.886 16.565 8.97 33.646 18.285 47.808 30.791l14.849 13.196 14.849-13.196c14.162-12.593 31.329-21.821 47.894-30.878 37.08-20.182 83.257-45.195 83.257-114.885v-255.041zm284.447 255.127c0 65.205-42.144 88.062-79.309 108.244-16.909 9.229-34.418 18.717-49.267 31.827l-9.957 8.797-9.956-8.797c-14.849-13.11-32.273-22.598-49.182-31.827-37.165-20.182-79.309-43.039-79.309-108.244v-247.623h276.98z" fill="#be8c32"/><path d="m145.629 83.969v36.915c3.862-.173 7.811-.345 11.673-.518v-36.397c-3.862.086-7.725 0-11.673 0zm85.832-.345h-11.244v16.215h11.244z" fill="#dc2828"/><path d="m373.512 65.598h-246.938v76.331c40.942-3.709 82.485-5.52 123.512-5.52 41.028 0 82.571 1.897 123.512 5.606-.086-14.49-.086-76.417-.086-76.417zm-206.425 53.216c0 2.674-.944 4.916-2.918 6.9-1.975 1.984-4.206 3.019-6.953 3.191-3.776.173-7.467.431-11.244.604-2.746.172-5.064-.604-6.952-2.415s-2.833-4.054-2.833-6.814v-34.845c0-2.76.945-5.089 2.833-7.072 1.888-1.898 4.206-2.847 6.952-2.847h11.244c2.747 0 4.978.95 6.953 2.847 1.974 1.897 2.918 4.053 2.918 6.727zm31.328 8.366c-8.497.259-16.994.518-25.492.949v-52.613h9.528v43.988c5.321-.173 10.643-.345 15.964-.431zm32.788-.604c-2.146-5.002-4.377-14.145-6.523-19.147-1.802 0-2.489 0-4.292.086v19.234c-3.175.086-6.437.086-9.613.172v-51.318h20.6c2.747 0 4.978.862 6.952 2.673 1.974 1.812 2.919 3.968 2.919 6.47v13.282c0 2.587-.945 4.657-2.919 6.468-1.03.949-2.231 1.639-3.519 2.157l-.772.258c2.489 5.175 4.892 14.404 7.295 19.579-3.433 0-6.78 0-10.128.086zm15.965-.086v-50.974h26.78v8.022h-17.081v11.385h14.763v7.935l-14.763-.087v15.525l17.166.087v8.107zm31.929.259v-51.146h9.614v51.318c-3.262-.086-6.438-.172-9.614-.172zm44.118-1.553c-1.974 1.812-4.206 2.588-7.038 2.502-4.206-.173-8.412-.259-12.532-.432-2.746-.086-5.064-1.035-6.952-2.932-1.888-1.898-2.832-4.054-2.832-6.641v-32.862c0-2.587.944-4.743 2.832-6.555 1.888-1.81 4.206-2.673 6.952-2.673h12.532c2.746 0 5.064.948 7.038 2.76 1.974 1.897 2.918 4.053 2.918 6.727v3.968c-3.261 0-6.437-.087-9.699-.087v-5.26h-13.132v35.534c4.377.086 8.755.259 13.132.345v-15.18h-7.295v-8.021h16.994v22.339c-.086 2.501-1.03 4.657-2.918 6.468zm40.427 4.83c-3.433-.172-6.781-.431-10.214-.603l-12.789-33.207v32.517c-3.176-.173-6.352-.345-9.527-.432v-52.785h10.214l12.703 31.568v-31.568h9.699v54.51z" fill="#dc2828"/><path d="m119.021 58.094v240.033c0 60.721 36.65 80.644 75.36 101.689 17.252 9.402 35.105 19.062 50.555 32.775l4.978 4.399 4.978-4.399c15.45-13.713 33.389-23.373 50.641-32.775 38.796-21.045 75.361-40.968 75.361-101.602v-240.12zm182.907 334.995c-17.681 9.574-35.878 19.492-52.014 33.723-16.136-14.231-34.333-24.149-52.014-33.723-38.367-20.787-71.412-38.813-71.412-95.048v-148.781c41.028-3.623 82.227-5.52 123.426-5.52s82.399 1.811 123.426 5.52v148.781c0 56.322-33.045 74.261-71.412 95.048zm71.584-251.074c-40.942-3.709-82.484-5.606-123.512-5.606s-82.57 1.897-123.512 5.52v-76.332h247.024zm-240.844 105.225s26.693 13.196 63.086 2.156c0 0-11.415 16.474-30.985 16.474-25.835 0-32.101-18.63-32.101-18.63zm230.973 37.001v12.679c0 32.257-18.196 70.294-63.601 70.294-20.514 0-50.727-13.714-50.727-42.435 0-38.554 82.828-47.524 82.828-88.493 0-41.745-66.091-45.885-66.091-45.885s47.551 19.148 43.002 55.804c0 0-10.986-20.959-35.362-23.805 0 0 15.449 8.539 15.449 24.495 0 26.479-66.004 36.311-66.004 77.453 0 34.672 36.306 52.181 65.661 62.272-14.334 6.814-29.44 16.56-38.882 24.668-10.471-8.453-16.995-11.817-24.119-17.164-23.689-17.854-35.877-39.503-35.877-57.27 0-18.458 15.192-33.207 23.775-36.139-16.737.949-41.543 10.091-41.543 30.877 0 16.647 10.3 32.948 30.299 49.853-23.346-12.42-58.795-32.775-58.795-58.305 0-13.196 9.613-25.53 35.02-26.651-7.983 0-17.596-1.553-20.686-7.245-2.575-4.83-2.231-17.854-2.231-17.854s6.952 2.156 35.62 2.156c8.154 0 14.42-4.485 14.42-11.557 0-10.523-20.085-24.495-20.085-24.495l-29.526 10.35c-15.021-10.868-11.073-33.379-11.073-33.379s-2.918-2.329-3.948-5.692c-1.545-5.003.258-9.402.258-9.402s26.35-4.83 41.113-10.953c1.717-.69 3.09-2.243 3.777-3.968 2.403-6.124 6.866-8.97 14.849-11.299.944-.259 1.888-.776 2.746-1.38 10.643-8.452 31.586-17.94 54.332-17.94 31.843 0 47.808 10.868 82.313 17.768 7.896 1.552 15.964 1.035 22.487-3.019 1.631 11.213-4.978 19.148-11.673 23.46 7.382 10.005 12.274 23.288 12.274 33.896 0 60.807-76.218 62.79-76.218 102.465 0 28.463 33.732 27.6 33.732 27.6s-12.704-7.072-12.704-17.422c0-24.581 44.032-32.516 55.19-75.986zm-137.245-89.096s-5.407.69-21.544 0c-9.269-.431-10.814 8.884-10.814 8.884s2.575 3.536 12.617 3.536c12.96-.086 19.741-12.42 19.741-12.42z" fill="#003893"/></svg>