<svg viewBox="0 0 500 500" xmlns="http://www.w3.org/2000/svg"><path d="m250 455c113.218 0 205-91.782 205-205s-91.782-205-205-205-205 91.782-205 205 91.782 205 205 205z" fill="#60269e"/><path d="m250 446.376c108.456 0 196.376-87.92 196.376-196.376 0-108.455-87.92-196.376-196.376-196.376-108.455 0-196.376 87.921-196.376 196.376 0 108.456 87.921 196.376 196.376 196.376z" fill="#fff"/><path d="m250 437.648c103.635 0 187.648-84.013 187.648-187.648s-84.013-187.648-187.648-187.648-187.648 84.013-187.648 187.648 84.013 187.648 187.648 187.648z" fill="#60269e"/><path d="m250 382.787c73.336 0 132.787-59.451 132.787-132.787 0-73.337-59.451-132.788-132.787-132.788-73.337 0-132.788 59.451-132.788 132.788 0 73.336 59.451 132.787 132.788 132.787z" fill="#fff"/><path d="m334.888 165.319c18.807 20.469 30.34 47.899 30.34 77.927 0 63.588-51.536 115.228-115.228 115.228s-115.124-51.536-115.124-115.228c0-30.028 11.533-57.458 30.339-77.927l-2.805-2.805c-22.443 22.443-36.366 53.406-36.366 87.694 0 68.471 55.484 123.955 123.956 123.955s123.956-55.484 123.956-123.955c0-34.184-13.923-65.251-36.262-87.59z" fill="#60269e"/><path d="m167.917 407.309 12.884-28.989 11.533 5.092c3.221 1.454 5.507 3.324 6.65 5.818 1.143 2.39 1.039 5.195-.312 8.416-2.909 6.546-7.793 8.312-14.65 5.299l-4.26-1.87-4.26 9.559zm17.767-19.534-3.221 7.17 1.247.519c.728.312 1.247.52 1.663.728.415.103.831.311 1.558.415.624.104 1.143.104 1.559 0 .415-.104.831-.311 1.247-.727a6.048 6.048 0 0 0 1.142-1.559c.312-.727.52-1.35.52-1.87 0-.519-.104-1.039-.208-1.455-.208-.415-.519-.727-1.039-1.142-.519-.312-.935-.624-1.351-.832-.415-.207-.935-.519-1.662-.831zm38.652 24.313 7.377 14.546-10.079-1.87-5.403-13.403h-.103l-2.286 11.948-8.105-1.558 5.819-31.171 12.053 2.286c3.221.623 5.714 1.87 7.377 3.844 1.662 1.974 2.182 4.572 1.662 7.689-.415 2.182-1.351 4.052-2.909 5.403-1.351 1.663-3.221 2.39-5.403 2.286zm-5.819-13.611-1.454 7.792.831.104c3.74.728 5.818-.208 6.338-2.805.52-2.598-1.143-4.26-4.883-4.884zm101.825-12.988-8.936 3.949 2.182 4.883 8.52-3.74 2.805 6.338-8.52 3.74 2.182 4.988 8.936-3.949 2.805 6.338-16.416 7.377-12.884-28.885 16.416-7.377zm-207.598-242.716a18.714 18.714 0 0 1 4.053-7.793c1.974-2.286 4.364-4.052 7.169-5.195s5.611-1.455 8.624-1.039 5.611 1.663 8 3.637c3.845 3.325 5.923 7.377 6.338 11.948.312 4.572-1.143 8.832-4.571 12.677-3.325 3.844-7.274 5.922-11.949 6.338-4.572.311-8.832-1.143-12.78-4.468-2.39-2.078-3.948-4.468-4.78-7.377-.727-2.91-.727-5.819-.104-8.728zm16.209-5.715c-2.39.208-4.468 1.247-6.026 3.117-1.559 1.871-2.286 3.949-2.182 6.442.104 2.39 1.039 4.364 2.701 5.819 2.078 1.766 4.26 2.597 6.754 2.39 2.494-.104 4.572-1.143 6.234-3.014 1.663-1.87 2.286-4.052 2.078-6.545-.208-2.494-1.35-4.572-3.429-6.338-1.662-1.455-3.74-2.079-6.13-1.871zm41.665-21.716 15.378 5.611-8.624 5.506-13.092-6.13h-.104l6.546 10.287-6.962 4.363-16.936-26.703 10.39-6.545c2.806-1.767 5.507-2.494 8.001-2.182 2.598.311 4.676 1.766 6.442 4.571 1.247 1.871 1.766 3.949 1.559 5.923 0 2.078-.936 3.844-2.598 5.299zm-13.507-6.13 4.26 6.649.623-.415c3.221-2.078 4.156-4.156 2.701-6.442-1.454-2.182-3.74-2.286-6.961-.312zm37.924-25.248 7.897 23.378 9.351-3.117 2.182 6.65-17.144 5.714-10.079-30.028zm50.601 17.247-11.325.728-1.767 5.61-8.728.624 10.079-32.418 8.936-.623 14.026 30.755-8.727.623zm-2.702-6.13-4.052-9.87h-.104l-2.701 10.286zm25.872 12.053 7.481-30.755 8 1.974 10.079 22.339h.104l4.571-18.806 8.001 1.974-7.585 30.755-8.001-1.974-10.078-22.443h-.104l-4.572 18.806zm44.262 13.507 16.417-27.119 9.975 6.027c3.74 2.286 6.234 5.611 7.377 9.871s.519 8.312-1.767 12.052c-2.285 3.741-5.61 6.131-9.87 7.17-4.26.935-8.313.311-12.053-1.975zm19.846-16.832-9.248 15.17 1.559.935c2.286 1.35 4.468 1.87 6.754 1.454 2.286-.415 4.156-1.87 5.61-4.364 1.455-2.389 1.871-4.675 1.247-6.857-.623-2.182-2.078-4.052-4.364-5.403zm42.081 24.936c2.805 1.143 5.195 2.806 7.169 5.091 1.974 2.286 3.429 4.884 4.156 7.793s.727 5.819-.104 8.728-2.39 5.403-4.675 7.481c-3.845 3.429-8.105 4.883-12.677 4.572-4.571-.312-8.623-2.39-11.948-6.235-3.325-3.844-4.884-8.104-4.676-12.676.312-4.675 2.39-8.624 6.234-12.052a14.676 14.676 0 0 1 8.001-3.741c2.909-.415 5.714 0 8.52 1.039zm3.429 16.728c.103-2.389-.624-4.571-2.286-6.441-1.559-1.871-3.637-2.806-6.027-3.118-2.389-.207-4.468.416-6.13 1.871-1.974 1.766-3.117 3.948-3.325 6.442-.208 2.493.52 4.675 2.182 6.546 1.663 1.87 3.741 2.909 6.234 3.013 2.494.104 4.78-.728 6.754-2.494 1.662-1.351 2.494-3.325 2.598-5.819z" fill="#fff"/><g fill="#00a7e1"><path d="m314.004 158.669a101.891 101.891 0 0 0 -15.274-9.039c-22.131 18.806-37.405 50.185-39.691 86.239 2.286 0 7.065.831 7.065.104 0-34.184 19.534-63.692 47.9-77.304zm4.364-1.974c3.013-1.247 6.234-2.39 9.455-3.221-5.611-4.468-11.533-8.52-17.872-11.949-2.701 1.559-5.195 3.429-7.688 5.299a111.666 111.666 0 0 1 16.105 9.871z"/><path d="m250 138.408c-15.897 0-30.963 3.325-44.574 9.351 22.235 19.742 37.509 51.536 39.691 88.11h9.766c2.182-36.47 17.456-68.368 39.691-88.11-13.611-6.026-28.677-9.351-44.574-9.351z"/><path d="m250 134.252c17.144 0 33.457 3.741 48.107 10.494 2.493-1.974 4.987-3.844 7.585-5.61-16.625-8.313-35.639-13.092-55.692-13.092s-38.964 4.779-55.796 13.196a78.224 78.224 0 0 1 7.585 5.506c14.754-6.649 31.067-10.494 48.211-10.494zm-16.001 102.241s4.675-.624 7.065-.624c-2.286-36.054-17.559-67.433-39.691-86.239a113.428 113.428 0 0 0 -15.273 9.039c28.261 13.612 47.899 43.64 47.899 77.824zm-36.262-89.669c-2.494-1.87-5.091-3.74-7.689-5.299-6.338 3.533-12.26 7.481-17.871 11.949 3.221.935 6.338 1.974 9.455 3.221a111.557 111.557 0 0 1 16.105-9.871z"/></g><path d="m253.741 395.879v31.69h-8.209v-31.69zm18.183 30.444-6.027-31.067 11.43-2.182c4.364-.831 8.312-.104 12.053 2.39 3.636 2.389 5.922 5.818 6.753 10.078.831 4.364 0 8.312-2.493 11.949-2.494 3.636-5.923 5.818-10.287 6.65zm3.325-25.872 3.429 17.352 1.766-.312c2.597-.52 4.572-1.663 6.026-3.429 1.455-1.766 1.87-4.156 1.247-6.961-.519-2.702-1.766-4.676-3.637-5.923-1.87-1.247-4.26-1.558-6.857-1.039z" fill="#fff"/><path d="m229.012 294.678c.623-5.091 4.468-24.002 10.286-30.444l22.547.104c5.611 6.338 9.455 25.249 10.079 30.34zm-37.614-.312c1.559-5.091 7.897-20.676 27.327-30.132h15.066c-2.39 3.845-6.65 12.469-9.248 30.028h-33.145zm84.889.001c-2.597-17.56-6.753-26.288-9.247-30.028h15.17c19.326 9.351 25.664 24.936 27.222 30.028z" fill="#60269e"/><path d="m314.419 294.055c-5.091-15.689-16.832-25.352-24.001-30.028h8c6.754 2.39 12.884 5.611 18.287 9.559 10.702 7.17 16.625 16.105 18.911 19.95zm-149.203-.52c3.325-5.715 12.468-19.014 30.443-25.976 2.806-1.35 5.611-2.597 8.52-3.636h6.131c-7.066 4.675-18.911 14.338-24.002 30.028zm175.179-.312c-3.532-6.753-8.208-12.676-14.13-17.767 3.117 2.182 5.818 4.468 8.312 7.065 4.156 4.364 6.65 8.52 7.793 10.702zm-181.933 0c1.143-2.285 3.533-6.338 7.793-10.702 2.493-2.597 5.195-4.883 8.312-7.065-5.923 5.091-10.598 11.014-14.131 17.767zm53.095-33.249c.415-9.455 4.26-15.065 5.506-16.52 1.351-.312 14.547-3.637 33.145-3.637 11.534 0 22.963 1.247 33.873 3.741 1.039 1.351 4.883 6.961 5.299 16.416z" fill="#60269e"/><path d="m250 348.811c21.716 0 41.873-6.441 58.705-17.559h-117.41c16.936 11.118 37.093 17.559 58.705 17.559z" fill="#00a7e1"/><path d="m341.123 297.692c-11.222.415-50.081 1.558-89.876 1.558-43.743 0-87.071-1.454-92.474-1.662a112.293 112.293 0 0 0 6.338 9.247h169.777c2.286-2.909 4.364-5.922 6.235-9.143zm-9.56 13.299h-163.023c5.091 5.923 10.702 11.326 16.936 16.105h129.151c6.234-4.779 11.845-10.078 16.936-16.105z" fill="#60269e"/></svg>