<svg viewBox="0 0 500 500" xmlns="http://www.w3.org/2000/svg" xmlns:xlink="http://www.w3.org/1999/xlink"><clipPath id="a"><path d="m0 0h357v423h-357z" transform="translate(71 39)"/></clipPath><g clip-path="url(#a)"><path d="m249.815 39h175.979c1.733-.315 2.363.473 2.206 2.206-.158 1.733 0 3.308 0 5.041v213.469c0 20.323-3.781 40.016-11.816 58.606-2.206 5.041-4.884 9.925-7.563 14.809-3.781 6.932-8.192 13.548-12.918 19.85-10.556 14.179-23.002 26.625-36.394 38.125-13.706 11.973-28.358 22.686-43.64 32.611-20.796 13.707-42.537 26.152-64.594 37.653-1.103.63-2.048.63-3.151 0-27.57-14.336-54.353-29.933-79.718-47.893-5.514-3.938-10.871-8.034-16.228-12.13-14.494-11.186-27.885-23.632-39.859-37.495-7.877-9.138-14.967-18.905-21.111-29.303-8.98-15.439-14.967-31.981-17.803-49.626-1.575-9.295-2.205-18.905-2.205-28.357v-210.319c0-2.363-.316-5.829.63-6.932.788-.63 4.411-.315 6.617-.315z" fill="#fff"/><path d="m249.815 45.774h168.889c.945 0 1.418.473 1.418 1.418v206.223c0 13.548-.945 26.939-4.096 40.173-3.466 13.864-8.665 26.782-16.07 39.07-4.569 7.562-9.61 14.652-15.282 21.583-15.282 18.59-33.242 34.187-52.463 48.523-25.365 19.063-52.62 34.975-80.506 49.784-1.575.787-2.836.945-4.411 0-26.153-13.864-51.675-28.831-75.622-46.16a341.783 341.783 0 0 1 -20.639-15.912c-9.295-7.877-18.433-15.912-26.783-24.892a204.85 204.85 0 0 1 -25.68-33.714c-8.035-13.076-13.391-27.097-16.542-41.906-1.576-7.404-2.679-14.966-2.836-22.528-.945-51.989-.158-103.978-.315-155.967-.158-20.638 0-41.276 0-61.914v-1.575c-.158-1.733.63-2.206 2.205-2.206z"/><path d="m193.256 321.788c.157.157.315.157.473.315v.157z" fill="#040505"/><path d="m211.059 289.65c.157-2.994.315-6.144 1.102-9.295.316-1.103.631-1.261 1.576-.315 2.678 2.993 5.199 5.986 7.877 8.822.63.788.788 1.26 0 2.048-2.836 2.993-5.514 5.987-8.192 8.98-.945.945-1.103.315-1.261-.473-.787-2.993-.945-6.301-1.102-9.767zm77.354.472c0 3.151-.315 6.144-1.102 9.295-.158.788-.158 1.891-1.418.63-2.679-2.993-5.357-5.986-8.193-8.98-.787-.787-.63-1.26 0-2.048 2.679-2.993 5.514-5.986 8.193-8.979.787-.788.945-.631 1.26.315.945 3.15 1.26 6.301 1.26 9.767z" fill="#f7f8f8"/><path d="m129.134 123.758c0 5.041-1.891 8.192-5.357 9.767l5.042 19.378c.157.945-.158 1.26-1.103 1.26h-7.72c-.788 0-1.103-.315-1.26-1.102l-5.042-18.905h-5.041v18.747c0 .788-.473 1.26-1.261 1.26h-7.72c-.787 0-1.26-.472-1.26-1.26v-56.715c0-.788.473-1.26 1.26-1.26h18.591c6.932 0 10.713 3.78 10.713 10.713v18.117zm-13.077.788c1.891 0 2.994-1.103 2.994-2.994v-13.863c0-1.891-1.103-2.994-2.994-2.994h-7.404v19.851zm49.942-20.953c0 .787-.315 1.26-1.26 1.26h-18.433v14.809h14.179c.788 0 1.26.472 1.26 1.26v7.405c0 .787-.472 1.26-1.26 1.26h-14.179v14.966h18.59c.946 0 1.261.316 1.261 1.261v7.404c0 .788-.315 1.261-1.261 1.261h-27.255c-.63 0-1.103-.473-1.103-1.261v-57.03c0-.788.473-1.26 1.103-1.26h27.255c.946 0 1.261.472 1.261 1.26v7.405zm6.775-7.405c0-.788.315-1.26 1.26-1.26h17.803c6.932 0 10.713 3.78 10.713 10.713v37.81c0 6.931-3.781 10.712-10.713 10.712h-17.96c-.788 0-1.261-.315-1.261-1.26v-56.715zm16.857 48.365c1.891 0 2.994-.945 2.994-2.993v-33.714c0-2.048-1.103-2.993-2.994-2.993h-6.774v39.7zm57.662-49.625c6.932 0 10.713 3.78 10.713 10.713v7.877c0 .787-.315 1.26-1.26 1.26h-7.72c-.787 0-1.26-.473-1.26-1.26v-5.829c0-1.891-.945-2.994-2.993-2.994h-3.624c-1.891 0-2.993 1.103-2.993 2.994v10.24l17.645 5.829c1.26.473 1.89 1.26 1.89 2.678v17.172c0 6.932-3.781 10.713-10.713 10.713h-8.35c-6.932 0-10.713-3.781-10.713-10.713v-7.719c0-.788.473-1.261 1.26-1.261h7.72c.788 0 1.261.315 1.261 1.261v5.671c0 2.048 1.102 2.993 2.993 2.993h3.624c1.89 0 2.993-.945 2.993-2.993v-9.925l-17.645-5.829c-1.261-.473-2.048-1.26-2.048-2.678v-17.487c0-6.932 3.781-10.713 10.713-10.713zm43.641 0c.787 0 1.26.472 1.26 1.26v7.404c0 .788-.315 1.261-1.26 1.261h-8.666v48.365c0 .788-.315 1.26-1.26 1.26h-7.72c-.787 0-1.26-.315-1.26-1.26v-48.523h-8.665c-.788 0-1.26-.472-1.26-1.26v-7.405c0-.787.472-1.26 1.26-1.26h27.571zm28.358 59.393c-.631 0-1.103-.315-1.261-1.103l-2.048-10.87h-13.234l-2.048 10.87c-.157.63-.472 1.103-1.26 1.103h-7.877c-.788 0-1.261-.473-.946-1.26l12.289-57.03c.157-.788.63-1.103 1.26-1.103h10.241c.63 0 1.103.315 1.26 1.103l12.289 57.03c.157.787-.158 1.26-1.103 1.26zm-9.926-46.317-4.726 25.837h9.453zm55.93 15.754c0 5.041-1.891 8.192-5.357 9.767l5.042 19.378c.157.945-.158 1.26-1.103 1.26h-7.72c-.788 0-1.103-.315-1.26-1.102l-5.042-18.905h-5.041v18.747c0 .788-.473 1.26-1.261 1.26h-7.719c-.788 0-1.261-.472-1.261-1.26v-56.715c0-.788.473-1.26 1.261-1.26h18.748c6.932 0 10.713 3.78 10.713 10.713zm-13.077.788c1.891 0 2.994-1.103 2.994-2.994v-13.863c0-1.891-1.103-2.994-2.994-2.994h-7.404v19.851zm39.387-29.618c6.932 0 10.713 3.78 10.713 10.713v7.877c0 .787-.315 1.26-1.26 1.26h-7.72c-.788 0-1.261-.473-1.261-1.26v-5.829c0-1.891-.945-2.994-2.993-2.994h-3.624c-1.89 0-2.993 1.103-2.993 2.994v10.24l17.645 5.829c1.261.473 1.891 1.26 1.891 2.678v17.172c0 6.932-3.781 10.713-10.713 10.713h-8.35c-6.932 0-10.713-3.781-10.713-10.713v-7.719c0-.788.472-1.261 1.26-1.261h7.72c.787 0 1.26.315 1.26 1.261v5.671c0 2.048 1.103 2.993 2.993 2.993h3.624c1.891 0 2.993-.945 2.993-2.993v-9.925l-17.645-5.829c-1.26-.473-2.048-1.26-2.048-2.678v-17.487c0-6.932 3.781-10.713 10.713-10.713zm-142.421 70.736h150.299c2.521 0 2.521 0 2.521 2.678v37.81c0 18.275 0 36.55-.158 54.825-.157 18.432-3.938 36.077-12.131 52.776-7.089 14.652-16.857 27.413-27.886 39.386-15.754 16.857-33.714 31.036-52.62 44.112-18.59 12.761-37.969 24.261-57.82 34.974-1.26.63-2.205.945-3.623.157-27.413-14.966-54.038-30.878-78.458-50.098-17.015-13.391-32.77-28.042-45.846-45.372-11.974-15.912-20.324-33.241-24.105-52.461-1.89-9.768-2.52-19.693-2.52-29.461v-86.018c0-3.623-.316-3.15 3.15-3.15 49.785-.158 99.57-.158 149.197-.158z" fill="#fff"/><path d="m168.522 271.217 3.466 10.87 11.185-2.363-7.404 8.35 7.404 8.507-11.028-2.363-3.466 10.713-3.466-10.871-11.186 2.521 7.72-8.35-7.72-8.507 11.186 2.521zm-39.23 0 3.466 10.87 11.186-2.363-7.404 8.35 7.404 8.507-11.028-2.363-3.466 10.713-3.466-10.871-11.186 2.521 7.72-8.35-7.877-8.507 11.343 2.521zm239.628 0 3.466 10.87 11.186-2.363-7.562 8.35 7.562 8.507-11.028-2.363-3.466 10.713-3.466-10.871-11.186 2.521 7.72-8.35-7.877-8.507 11.343 2.521zm-39.229 0 3.466 10.87 11.186-2.363-7.563 8.35 7.563 8.507-11.029-2.363-3.466 10.713-3.466-10.871-11.185 2.521 7.719-8.35-7.877-8.507 11.343 2.521z" fill="#ce0e2d"/><path d="m389.716 228.68c0-.63-.473-1.102-1.103-1.102h-278.227c-.945 0-1.575.787-1.575 1.575v20.165c0 .946.787 1.576 1.575 1.576h34.503c-.158 0-.158 0 0 0h242.936c.945 0 1.576-.63 1.576-1.576.315-5.514.315-17.014.315-20.638zm-203.392 96.889h-55.614c-1.103 0-1.891 1.26-1.103 2.205 1.26 1.733 2.363 3.309 3.623 5.042 4.412 5.671 8.981 11.028 13.865 16.069.315.158.63.315 1.102.473h67.273c.315 0 .63.157.787 0h133.757c.315-.158.788-.315 1.103-.473l1.418-1.418c5.987-6.144 11.343-12.761 16.227-19.693.63-.945 0-2.205-1.103-2.205zm202.132-123.671c.788 0 1.26-.63 1.26-1.26v-20.008c0-2.363 0-2.363-2.363-2.363h-275.548c-3.151 0-2.836-.315-2.836 2.836v17.96a2.823 2.823 0 0 0 2.836 2.835zm-137.538 172.981h-70.739c-.945 0-1.418 1.261-.63 1.733 10.556 7.877 21.426 15.124 32.612 21.899.158.157.315.157.473.157h73.731c.158 0 .316 0 .473-.157 5.987-3.624 11.816-7.405 17.645-11.343 5.042-3.466 10.083-6.932 14.967-10.556.788-.63.315-1.733-.63-1.733z" fill="#46b6e4"/><path d="m229.49 322.89-66.169 14.337 45.846-48.996-46.161-50.098 66.484 14.651 19.536-64.592 20.481 63.962 65.382-13.549-44.113 48.996 44.113 49.626-65.067-14.022-20.323 63.017z" fill="#ce0e2d"/><path d="m249.184 197.96 18.275 57.503 59.238-12.289-39.859 44.27 39.859 44.899-58.922-12.603-18.276 56.715-17.96-57.03-59.71 13.076 41.277-44.27-41.75-45.214 60.025 13.233zm-.157-19.693-5.515 17.96-16.069 53.091-54.669-12.13-18.118-4.096 12.604 13.706 37.969 41.276-37.654 40.173-12.761 13.706 18.275-3.938 54.511-11.816 16.385 51.989 5.514 17.487 5.672-17.487 16.7-51.832 53.723 11.501 17.33 3.781-11.816-13.234-36.393-40.96 36.393-40.331 11.974-13.234-17.488 3.624-54.196 11.185-16.7-52.461z" fill="#46b6e4"/><path d="m249.342 210.72 13.864 43.482 1.733 5.514 5.671-1.103 46.004-9.452-30.722 34.029-3.781 4.253 3.781 4.254 30.879 34.817-45.688-9.768-5.672-1.26-1.733 5.514-14.021 43.324-13.707-43.639-1.733-5.672-5.672 1.261-45.688 10.082 31.509-33.714 4.097-4.411-4.097-4.411-31.982-34.817 46.004 10.24 5.829 1.261 1.733-5.672zm-.158-21.583-19.378 64.12-66.012-14.652 45.846 49.784-45.531 48.68 65.697-14.179 19.693 62.86 20.166-62.387 64.909 13.864-43.955-49.469 43.955-48.68-65.224 13.391z" fill="#fff"/><path d="m112.907 60.584h-12.446l-3.466 3.465v12.131l3.466 3.466h14.337l3.466-3.466v-3.466h-5.357v2.836h-10.398v-10.712h10.398v2.677h5.357v-3.465l-3.466-3.466zm138.483 0h-12.288l-3.466 3.465v12.131l3.466 3.466h14.336l3.466-3.466v-3.466h-5.514v2.836h-10.398v-10.712h10.398v2.677h5.514v-3.465l-3.466-3.466zm-88.54 0v6.616l-.158 1.26h-10.24l-.158-1.26v-6.617h-6.932v4.097h1.418v10.87h-1.418v4.096h6.932v-6.932h10.556v6.932h6.932v-4.096h-1.575v-10.87h1.575v-4.097h-6.932zm42.537 0h-8.665v4.096h3.308v10.87h-3.308v4.096h11.816v-4.096h-3.151v-10.87h3.151v-4.097h-3.151zm101.459 12.446v-9.138l-3.466-3.466h-14.336l-3.466 3.466v11.5h-1.733v4.254h7.089v-6.932h10.398v7.089h7.09v-4.253h-1.733v-2.52zm-5.514-4.57h-10.398v-3.78h10.241v3.78zm100.2-7.876h-14.336l-3.467 3.465v12.289l3.467 3.466h14.336l3.466-3.466v-12.131zm-1.89 8.192v6.616h-10.398v-10.554h10.24v3.938zm-48.367-8.192h-12.288l-3.466 3.465v12.131l3.466 3.466h14.336l3.466-3.466v-6.3h-9.61v2.993h4.096v2.678h-10.24v-10.713h10.24v2.677h5.514v-3.465l-3.466-3.466z" fill="#46b6e4"/><path d="m280.546 463.059v-7.957h-2.973v-1.065h7.151v1.065h-2.984v7.957zm5.372 0v-9.022h1.797l2.136 6.388c.197.595.34 1.04.431 1.335.102-.328.262-.81.48-1.446l2.16-6.277h1.606v9.022h-1.151v-7.551l-2.622 7.551h-1.077l-2.609-7.68v7.68z"/></g></svg>