<svg viewBox="0 0 500 500" xmlns="http://www.w3.org/2000/svg"><path d="m249.165 42.257-168.394 103.165c-.45.257-.771.771-.771 1.348v206.395c0 .578.257 1.092.771 1.349l168.394 103.229c.257.129.514.257.835.257s.578-.064.835-.257l168.394-103.165c.45-.257.771-.771.771-1.348v-206.46c0-.577-.257-1.091-.771-1.348l-168.394-103.165a1.413 1.413 0 0 0 -.835-.257c-.321 0-.578.064-.835.257z" fill="#101820"/><path d="m250 447.215-160.813-98.543v-197.344l160.813-98.543 160.813 98.543v197.279zm-154.709-102.203 154.709 94.82 154.709-94.82v-190.024l-154.709-94.756-154.709 94.756z" fill="#8ab7e9"/><path d="m250 382.504 4.626 17.141 17.09 4.558-17.09 4.622-4.626 17.141-4.626-17.141-17.09-4.622 17.09-4.558z" fill="#ff6b00"/><path d="m185.881 368.958v-24.203h18.696l5.076 5.072v14.123l-5.076 5.072h-18.696zm5.846-5.072h9.895l2.056-2.054v-10.015l-2.056-2.054h-9.895zm45.038-19.131 9.509 22.47v1.733h-5.718l-1.927-4.879h-12.143l-1.992 4.879h-5.525v-1.733l9.573-22.47zm-8.288 14.252h8.096l-3.662-9.18h-.771zm28.205 9.951v-5.008h15.098l1.157-1.155v-2.311l-1.221-1.22h-11.179l-4.305-4.301v-6.099l4.112-4.109h17.283v5.008h-14.327l-1.157 1.155v2.183l1.221 1.156h11.179l4.305 4.301v6.291l-4.112 4.109zm34.051 0v-24.203h5.911v9.502h11.629v-9.502h5.911v24.203h-5.911v-9.566h-11.629v9.566zm-52.748-35.052v-6.676h17.347l1.799-1.734v-6.612l-1.863-1.798h-12.143l-5.718-5.777v-11.62l5.654-5.649h20.495v6.676h-16.576l-1.735 1.733v6.099l1.799 1.798h12.143l5.783 5.713v12.198l-5.718 5.649zm-111.534 0v-39.866h7.838v16.434h13.364v-16.434h7.838v39.866h-7.838v-16.755h-13.364v16.755zm43.174 0-6.617-6.612v-26.642l6.617-6.612h17.219l6.617 6.612v26.642l-6.617 6.612zm3.984-6.676h9.316l2.762-2.761v-21.057l-2.762-2.76h-9.316l-2.763 2.76v21.057zm35.079 6.676-6.81-6.741v-33.125h7.838v30.365l2.891 2.825h6.811l2.827-2.825v-30.365h7.838v33.125l-6.746 6.741zm72.407 0v-33.19h-10.793v-6.676h29.361v6.676h-10.794v33.19zm29.619 0-6.617-6.612v-26.642l6.617-6.612h17.219l6.617 6.612v26.642l-6.617 6.612zm3.919-6.676h9.316l2.763-2.761v-21.057l-2.763-2.76h-9.316l-2.762 2.76v21.057zm27.82 6.676v-39.866h12.207l10.601 30.686h.964v-30.686h7.324v39.866h-12.207l-10.601-30.686h-.964v30.686z" fill="#fff"/><path d="m214.406 105.941v69.333h71.123v-69.462l-8.481-5.2v65.674h-54.161v-65.481zm109.414 75.047v-52l-8.545-5.2v131.733l8.545-5.136v-52.064l8.674-8.667zm-38.291 92.572v-69.526h-71.123v69.334l8.481 5.2v-65.482h54.161v65.61zm-100.806-18.167v-131.477l-8.545 5.2v51.872l-8.673 8.666 8.673 8.667v51.872z" fill="#ff6b00"/><path d="m305.059 262.197v-145.022l-9.251-5.649v73.891h-91.618v-73.699l-9.252 5.586v144.701l9.252 5.649v-73.699h91.618v73.828z" fill="#8ab7e9"/></svg>