<svg viewBox="0 0 500 500" xmlns="http://www.w3.org/2000/svg"><path d="m332.992 155.707-1.13-2.26 61.146-39.424-78.096 15.443c-3.013-3.013-6.027-5.775-9.291-8.286l25.362-71.19-50.724 57.881c-5.273-1.758-10.798-3.014-16.322-3.767l-13.937-73.199-13.937 73.199c-5.524.753-11.049 2.009-16.322 3.767l-50.724-57.881 25.362 71.19c-3.265 2.511-6.403 5.273-9.291 8.286l-78.221-15.443 61.145 39.424-1.13 2.26h-68.302c11.426 20.466 17.076 44.196 17.076 70.437v159.581c0 3.39.376 6.655.878 10.045 4.018 21.47 21.973 38.671 44.447 42.689 12.053 2.134 35.281 6.78 54.993 13.183 17.201 5.524 28.376 11.3 33.9 17.452 5.525-6.152 16.699-11.928 33.9-17.452 19.713-6.403 42.94-11.049 54.994-13.183 22.474-4.144 40.429-21.219 44.446-42.689.628-3.265.879-6.655.879-10.045v-159.581c0-26.367 5.776-49.971 17.201-70.437z"/><g fill="#a9f1f5"><path d="m242.216 117.538v20.089c3.138-.251 6.403-.377 9.542-.377 2.009 0 4.018 0 5.901.126v-19.838c-2.511-.251-4.897-.251-7.408-.251-2.637 0-5.399.126-8.035.251zm-25.865 25.237a106.623 106.623 0 0 1 15.443-3.767v-18.833c0-.251 0-.628-.125-.879-5.399 1.13-10.547 2.888-15.444 4.897v18.582zm-21.47 9.291c3.516-2.134 7.282-4.018 11.174-5.776v-17.075a53.012 53.012 0 0 0 -4.394 2.888 59.63 59.63 0 0 0 -11.174 10.421v12.304c1.506-.879 2.887-1.883 4.394-2.762zm110.238 0c-3.516-2.134-7.282-4.018-11.175-5.776v-17.075a52.863 52.863 0 0 1 4.395 2.888 59.63 59.63 0 0 1 11.174 10.421v12.304c-1.506-.879-3.013-1.883-4.394-2.762zm-21.596-9.291a106.623 106.623 0 0 0 -15.443-3.767v-18.833c0-.251 0-.628.125-.879 5.399 1.13 10.547 2.888 15.444 4.897v18.582zm-38.671 56.123h-22.474v122.04l-45.577-122.04h-16.197v195.365h22.475v-121.287l45.576 121.287h16.197zm94.544 0h-22.349v172.639h-29.506v-31.012h-22.474v32.268c0 6.026 2.009 10.923 6.277 15.192 4.269 4.269 9.166 6.278 15.193 6.278h31.389c5.901 0 10.923-2.009 15.192-6.278s6.278-9.166 6.278-15.192z"/><path d="m286.537 302.482h14.564v-22.726h-13.685v-80.858h-22.349v82.114c0 6.026 2.009 10.923 6.277 15.192 4.269 4.143 9.292 6.278 15.193 6.278z"/></g></svg>