<svg viewBox="0 0 500 500" xmlns="http://www.w3.org/2000/svg" xmlns:xlink="http://www.w3.org/1999/xlink"><clipPath id="a"><path d="m0 0h410v410h-410z" transform="translate(45 45)"/></clipPath><g clip-path="url(#a)"><path d="m395.141 105.04c-38.765-38.765-90.33-60.04-145.141-60.04s-106.196 21.275-144.96 60.04c-38.765 38.764-60.04 90.329-60.04 144.96 0 54.811 21.275 106.196 60.04 144.96 38.764 38.765 90.149 60.04 144.96 60.04s106.196-21.275 144.96-60.04c38.765-38.764 60.04-90.149 60.04-144.96.18-54.631-21.095-106.196-59.859-144.96z" fill="#971e1f"/><g fill="#fff"><path d="m250 446.886c-108.54 0-196.887-88.346-196.887-196.886s88.347-196.887 196.887-196.887 196.886 88.347 196.886 196.887-88.346 196.886-196.886 196.886zm0-383.676c-102.951 0-186.79 83.839-186.79 186.79s83.839 186.79 186.79 186.79 186.79-83.839 186.79-186.79c.18-102.951-83.659-186.79-186.79-186.79z"/><path d="m113.875 198.074-9.196-3.967 6.491-14.785c1.623-3.606 1.082-5.769-2.344-7.212l-5.228-2.343c-3.246-1.443-5.23-.361-6.852 3.245l-8.654 20.193 23.439 10.278zm-11.179-22.358 2.524 1.082c1.623.721 1.443 1.623.721 3.246l-5.409 12.26-6.31-2.705 5.409-12.26c.721-1.623 1.442-2.344 3.065-1.623zm34.797-18.39 12.982-13.703c3.245-3.426 3.426-5.409 0-8.835l-9.916-9.195c-3.426-3.245-5.409-3.065-8.835.541l-12.982 13.703c-3.245 3.425-3.425 5.409 0 8.834l9.917 9.196c3.606 3.245 5.589 3.065 8.834-.541zm9.556-17.309-13.522 14.244-11.9-11.179 13.523-14.244zm38.765-31.551 3.065-1.443c3.426-1.803 4.508-3.786 2.885-7.031l-2.704-5.41c-1.623-3.245-3.787-3.605-7.393-1.802l-19.652 9.916 11.539 22.898 5.228-2.704-4.327-8.655 5.049-2.524 13.522 3.967 7.573-3.787zm-1.262-9.917 1.442 2.705c.722 1.442.181 2.163-1.442 3.065l-11.9 5.95-3.245-6.311 11.9-5.95c1.622-.901 2.524-1.081 3.245.541zm25.242-15.867.721 4.508 11.539-1.803 3.246 20.734 5.95-.901-3.246-20.735 11.539-1.803-.721-4.507zm76.987 19.834-19.112-2.524 2.885-20.735-5.95-.72-3.425 25.421 24.881 3.246zm42.01-5.951-5.229-2.524-24.16 16.768 5.409 2.524 5.049-3.786 14.604 7.031.361 6.311 5.949 2.885zm-14.604 10.097 9.736-6.851.361 11.719zm46.878 26.143a30.054 30.054 0 0 0 2.704-3.065c-.18 1.082 0 1.984 0 3.065l1.623 24.521 2.885 2.885 18.57-17.669-3.786-3.787-9.736 9.376c-.541.541-1.623 1.622-3.065 3.245.18-1.442.18-2.704 0-3.966l-1.623-23.439-2.885-2.885-18.57 17.669 3.786 3.787zm25.242 59.318c1.803 4.147 3.606 7.212 6.13 8.835 3.426 2.344 7.933 2.704 12.26.721 7.212-3.246 9.556-9.736 5.59-18.571l-6.671-15.145-23.439 10.457zm3.786-3.245-3.065-7.032 14.785-6.491 4.327 9.736c2.344 5.049.901 8.835-3.967 10.999-5.769 2.343-9.015-.181-12.08-7.212zm-280.186 117.375 5.229 10.637-18.751 9.376 2.704 5.409 18.751-9.556 5.409 10.638 3.967-2.164-13.342-26.323zm49.944 72.3-14.424-11.899 6.131-7.573-4.508-3.786-16.227 19.833 4.688 3.786 6.851-8.474 14.605 11.719-7.032 8.475 4.688 3.786 16.046-19.833-4.507-3.786zm68.333 17.668-18.39-4.146c-4.688-1.082-6.491-.181-7.573 4.507l-3.065 13.162c-1.082 4.688.18 6.31 4.868 7.392l18.391 4.147c4.687 1.082 6.49.18 7.572-4.507l3.065-13.162c1.082-4.688-.18-6.311-4.868-7.393zm-.541 4.508-3.606 15.866-19.111-4.327 3.606-15.866zm68.334 6.851c3.786-.901 5.229-2.704 4.507-6.13l-1.262-5.769c-.721-3.426-2.884-4.508-6.671-3.606l-21.455 4.868 5.769 24.881 5.77-1.262-2.164-9.376 5.59-1.262 12.26 7.032 8.294-1.983-13.703-6.852zm-5.048-10.637c1.803-.361 2.704-.181 3.065 1.442l.721 3.065c.36 1.623-.361 2.164-2.164 2.524l-12.981 3.066-1.623-7.032zm59.317-36.961 8.293 10.457c.541.541 1.443 1.803 2.885 3.245-1.262-.18-2.704-.36-3.966-.36l-23.439-.541-3.246 2.524 15.867 20.013 4.147-3.245-8.655-10.818c-.541-.541-1.262-1.623-2.704-3.065 1.082.18 1.983.18 2.885.361l24.52.721 3.246-2.524-15.867-20.014zm56.794-49.041-3.245-1.623c-4.327-2.163-6.13-1.262-8.294 3.065l-7.031 14.424-4.868-2.344 7.392-15.145 2.704 1.262 1.262-5.228-.54-.181c-3.967-1.983-5.77-.901-7.753 3.246l-6.311 13.162c-2.163 4.327-1.622 6.31 2.705 8.293l2.524 1.262c4.327 2.164 6.13 1.263 8.294-3.065l7.031-14.423 5.229 2.524-7.933 16.227-2.705-1.263-1.262 5.229.541.361c4.327 2.163 6.13 1.262 8.294-3.065l6.851-14.244c1.803-4.507 1.443-6.491-2.885-8.474zm-5.048-86.905c-.18 25.603-26.143 25.783-26.143 25.783s26.143.541 26.143 26.324c.18-25.783 26.865-25.783 26.143-25.964-.721-.18-26.503-.36-26.143-26.143zm6.311 24.16-2.705.361v-2.164h-7.212v7.392h7.212v-2.524l2.705.541v1.443c0 2.163-.722 2.704-2.885 2.704h-7.032c-2.163 0-2.885-.541-2.885-2.704v-6.311c0-2.163.722-2.704 2.885-2.704h6.852c2.163 0 2.884.541 2.884 2.704v1.262zm-309.934-24.16c-.361 25.603-26.324 25.783-26.324 25.783s26.143.541 26.143 26.324c.18-25.783 26.865-25.783 26.144-25.964-.541-.18-26.324-.36-25.963-26.143zm5.769 22.177h-9.015v3.065h4.868v2.164h-4.868v4.327h-2.703v-11.539h11.719v1.983zm75.906-93.395c-11.899-5.048-18.03-3.065-18.03-3.065s13.343 4.508 10.458 16.588c-1.984 8.835-3.787 19.652-4.147 29.569-.902 15.506.721 26.324-10.277 41.108l5.95 8.114c2.704-1.984 5.589-6.311 7.392-8.835 12.26 2.885 18.21 1.082 18.21 1.082s-13.883-5.77-13.342-15.867c.721-11.899 1.262-22.537 1.803-31.732 1.623-27.766 11.539-41.469 31.372-31.913l5.95-8.114c-16.768-8.113-28.127-3.966-35.339 3.065z"/><path d="m136.231 212.498c-12.44 2.884-16.407 8.113-16.407 8.113s13.342-4.147 18.21 7.212c3.606 8.294 8.474 18.03 14.064 26.324 8.474 13.161 16.046 20.914 15.866 39.305l9.736 3.245c.902-3.245.721-8.474.721-11.539 11.54-4.868 15.506-9.736 15.506-9.736s-14.784 3.426-20.193-5.048c-6.491-10.097-12.261-18.932-17.129-26.685-14.965-23.439-15.145-40.206 6.671-44.173v-9.916c-18.571 2.884-25.242 12.981-27.045 22.898z"/><path d="m135.872 286.601c-8.475 9.736-8.475 16.046-8.475 16.046s8.294-11.359 18.932-4.868c7.753 4.688 17.489 9.736 26.864 13.162 14.424 5.589 25.242 7.573 35.88 22.537l9.736-3.065c-1.082-3.065-4.327-7.212-6.13-9.736 6.491-10.638 6.671-16.948 6.671-16.948s-9.916 11.359-19.292 7.753c-11.179-4.327-21.095-8.114-29.569-11.359-25.783-10.097-35.88-23.799-20.554-39.666l-5.77-8.113c-13.162 13.162-12.621 25.242-8.293 34.257z"/><path d="m179.143 346.82c-1.082 12.802 2.524 18.03 2.524 18.03s.18-14.063 12.441-15.145c9.015-.721 19.833-2.344 29.388-5.228 15.145-3.967 24.882-8.835 42.19-2.885l5.95-8.114c-2.704-1.803-7.753-3.425-10.818-4.147-1.082-12.44-4.507-17.669-4.507-17.669s-1.262 14.965-10.998 17.669c-11.54 3.065-21.817 5.77-30.651 8.114-26.865 7.032-42.911 1.803-40.027-20.013l-9.556-3.246c-2.343 18.391 5.229 27.766 14.064 32.634z"/><path d="m249.639 369.898c6.672 10.999 12.621 12.982 12.621 12.982s-8.113-11.539 1.263-19.653c6.851-5.95 14.604-13.522 20.734-21.455 9.916-12.08 14.965-21.636 32.454-27.225v-10.097c-3.426.18-8.294 1.803-11.179 2.885-8.113-9.376-14.063-11.72-14.063-11.72s7.753 12.982 1.442 20.735c-7.572 9.195-14.243 17.489-20.013 24.52-17.669 21.456-33.716 26.685-44.173 7.393l-9.556 3.065c8.654 16.767 20.374 20.013 30.47 18.57z"/><path d="m320.136 347.361c11.9 5.048 18.03 3.065 18.03 3.065s-13.342-4.508-10.457-16.588c1.983-8.834 3.786-19.652 4.147-29.569.901-15.506-.721-26.324 10.277-41.108l-5.95-8.294c-2.704 1.983-5.589 6.311-7.392 8.835-12.261-2.885-18.21-1.082-18.21-1.082s13.883 5.77 13.342 15.866c-.721 11.9-1.262 22.538-1.803 31.733-1.623 27.766-11.539 41.469-31.372 31.913l-5.95 8.113c16.768 8.294 28.127 4.147 35.338-2.884z"/><path d="m363.95 287.502c12.44-2.884 16.407-8.113 16.407-8.113s-13.342 4.147-18.21-7.212c-3.606-8.294-8.474-18.03-14.064-26.324-8.474-13.162-16.046-20.914-15.866-39.305l-9.736-3.245c-.902 3.245-.721 8.474-.721 11.539-11.54 4.868-15.506 9.736-15.506 9.736s14.784-3.426 20.193 5.048c6.491 10.097 12.261 18.932 17.129 26.685 14.965 23.439 15.145 40.206-6.671 44.173v9.916c18.571-2.704 25.242-12.801 27.045-22.898z"/><path d="m364.31 213.399c8.474-9.736 8.474-16.046 8.474-16.046s-8.294 11.358-18.932 4.868c-7.753-4.688-17.489-9.736-26.864-13.162-14.424-5.589-25.242-7.573-35.88-22.538l-9.736 3.066c1.082 3.065 4.327 7.212 6.13 9.736-6.491 10.637-6.671 16.948-6.671 16.948s9.916-11.359 19.292-7.753c11.179 4.327 21.095 8.113 29.569 11.359 25.783 10.097 35.88 23.799 20.554 39.666l5.77 8.113c13.162-12.981 12.621-25.062 8.294-34.257z"/><path d="m320.858 153.36c1.081-12.801-2.524-18.03-2.524-18.03s-.181 14.063-12.441 15.145c-9.015.721-19.833 2.524-29.389 5.229-15.145 3.966-24.881 8.835-42.19 2.885l-5.95 8.113c2.705 1.803 7.753 3.426 10.818 4.147 1.082 12.441 4.508 17.669 4.508 17.669s1.262-14.965 10.998-17.669c11.539-3.065 21.816-5.77 30.651-8.113 26.864-7.032 42.911-1.803 40.026 20.013l9.556 3.245c2.524-18.39-5.048-27.946-14.063-32.634z"/><path d="m250.541 130.281c-6.671-10.998-12.621-12.981-12.621-12.981s8.114 11.539-1.262 19.652c-6.851 5.95-14.604 13.523-20.734 21.456-9.917 12.08-14.965 21.636-32.454 27.225v10.097c3.425-.18 8.293-1.803 11.178-2.885 8.114 9.376 14.064 11.72 14.064 11.72s-7.753-12.982-1.443-20.735c7.573-9.195 14.244-17.489 20.013-24.521 17.67-21.455 33.716-26.684 44.174-7.392l9.556-3.065c-8.835-16.768-20.374-20.013-30.471-18.571zm43.092 119.178s-5.229 11.179-6.311 7.032c-2.524-9.917-8.654-19.653-30.29-26.865 4.147-1.622 9.376-2.344 15.866-.901 17.489 3.786 17.129 21.996 17.129 21.996s5.589-6.671 3.606-17.669c-3.426-19.292-29.75-22.537-29.75-22.537s9.015 8.474 4.688 8.113c-10.277-.721-21.275 2.164-34.978 20.554-.18-4.507.721-9.736 3.967-15.506 9.015-15.505 26.323-9.555 26.323-9.555s-4.507-7.393-15.686-8.835c-19.472-2.705-30.65 21.275-30.65 21.275s10.817-5.95 9.195-1.983c-3.786 9.556-4.508 20.915 8.654 39.485-4.327-1.081-9.015-3.606-13.522-8.654-11.9-13.342-.902-27.946-.902-27.946s-8.294 2.163-13.342 12.26c-8.474 17.669 10.818 35.699 10.818 35.699s-2.344-12.08.902-9.375c7.933 6.49 18.57 10.818 40.387 3.966-2.344 3.787-6.311 7.393-12.441 10.097-16.407 7.212-26.865-7.753-26.865-7.753s-.541 8.655 7.573 16.407c14.063 13.523 37.322.722 37.322.722s-12.261-1.623-8.655-3.787c8.655-5.409 16.047-14.243 16.227-37.141 2.885 3.425 5.049 8.293 5.77 14.965 1.803 17.849-15.686 23.078-15.686 23.258 0 0 7.933 3.245 17.85-2.163 17.849-9.196 12.801-35.159 12.801-35.159zm-42.731 16.047c0-15.145-15.326-15.506-15.326-15.506s15.326 0 15.506-15.145c-.18 15.145 14.965 15.325 15.326 15.325.18 0-15.506 0-15.506 15.326z"/></g></g></svg>