<svg viewBox="0 0 268 268" xmlns="http://www.w3.org/2000/svg"><path d="m131.655 266.794c-18.626-9.447-32.897-17.889-45.024-26.532-14.673-10.519-26.331-21.44-35.51-33.433-17.755-23.651-25.661-51.121-25.661-89.11v-89.78l2.68-1.541c30.485-17.286 67.134-26.398 105.927-26.398s75.442 9.179 105.927 26.465l2.68 1.541v89.78c0 37.989-7.906 65.459-25.728 89.043-20.971 27.47-52.461 45.694-80.534 59.965l-2.412 1.206z" fill="#fff"/><path d="m134.067 5.293c-38.793 0-74.504 9.447-103.314 25.795v89.713c34.773-31.758 70.015-50.518 105.123-50.92 28.676-.335 52.863 11.859 64.923 29.413-6.03-3.216-13.065-5.829-20.837-7.772-36.515-3.149-66.464 24.723-66.464 59.027 0 2.412.134 4.757.402 7.035 13.601-.536 25.795-1.206 32.964-1.742 3.216-.268 3.417-.603 3.819-2.345 2.412-10.854 11.859-18.693 23.249-18.693s20.837 7.906 23.249 18.693c.402 1.742.536 2.077 3.819 2.345 7.102.536 19.162 1.139 32.629 1.742 2.479-11.457 3.819-24.522 3.819-39.798v-86.765c-28.877-16.348-64.588-25.728-103.381-25.728z" fill="#fc1896"/><path d="m148.405 119.796c-2.345.067-2.948.268-3.819 1.072-1.407 1.206-3.082 2.881-4.422 4.623h67.402c-1.273-1.675-3.015-3.417-4.422-4.623-.871-.737-1.541-1.005-3.819-1.072-7.906-.134-42.947-.134-50.92 0zm5.427-5.494c16.013-.134 24.053-.134 40.066 0-5.963-3.015-12.395-4.757-20.033-4.757s-14.07 1.742-20.033 4.757z" fill="#fd9f28"/><path d="m114.436 161.135c2.881 16.281 11.725 28.408 21.574 36.046-29.748-10.72-39.329-45.627-28.14-70.484-25.795 25.661-1.474 81.74 60.501 81.74 15.745 0 32.562-4.221 43.818-14.606-5.092 8.107-13.534 17.219-19.162 22.378-29.681 12.931-83.415 6.566-108.741-28.207 8.241 27.537 46.833 49.647 87.77 45.024-12.194 8.375-25.192 15.544-37.989 22.311v6.7c32.16-16.348 59.831-33.835 78.658-58.424 8.911-11.792 15.812-25.259 20.033-42.478zm59.429 21.239c-5.36 0-10.318-1.608-14.271-4.623 6.834.402 21.775.402 28.609 0-4.02 3.015-8.911 4.623-14.338 4.623zm22.914-17.219c-.469 1.809-1.675 4.288-2.211 5.226-.67 1.072-.737 1.072-1.742 1.139-5.092.268-32.763.268-37.788 0-1.005-.067-1.139-.067-1.742-1.139-.536-.871-1.742-3.417-2.211-5.226 15.678.201 30.15.067 45.828-.134v.134z" fill="#21c6d9"/><path d="m172.056 233.094c-40.937 4.623-79.53-17.487-87.77-45.024 25.393 34.773 79.06 41.071 108.741 28.207 5.628-5.159 14.07-14.271 19.162-22.378-11.189 10.385-28.006 14.606-43.818 14.606-61.975 0-86.296-56.079-60.501-81.74-11.19 24.79-1.608 59.764 28.14 70.484-9.916-7.705-18.693-19.765-21.574-36.046a60.03 60.03 0 0 1 -.938-10.653c0-34.371 29.949-62.243 66.531-59.027-40.535-10.184-101.706-2.01-148.807 41.875.67 10.318 2.077 19.497 4.154 27.805 3.953 15.745 9.983 29.145 20.033 42.478 18.827 24.656 46.565 42.143 78.658 58.424v-6.7c12.797-6.767 25.862-14.003 37.989-22.311z" fill="#032e62"/><path d="m114.101 158.992c-.067-.335-.067-.603-.134-.938.067.268.067.603.134.938zm.335 2.143c-.067-.469-.201-1.005-.268-1.474.067.469.201.938.268 1.474z" fill="#fd9f28"/><path d="m211.117 36.85c-7.839 0-10.05 9.313-10.05 17.219 0 12.26 5.092 21.306 12.462 21.574 7.437.268 9.782-8.576 9.782-17.152 0-10.52-3.618-21.641-12.194-21.641zm1.876 33.902c-3.35 0-6.231-5.36-6.231-16.013 0-8.241 1.809-13.2 5.092-13.132 3.417.134 5.628 5.829 5.628 16.147 0 8.509-1.474 12.998-4.489 12.998zm-16.348-25.594v20.302c-5.226 1.407-18.492-2.613-18.492-20.1 0-9.916 4.355-16.616 11.189-16.616 2.01 0 4.154.603 6.298 1.81l.067 4.555c-1.742-1.072-3.484-1.608-4.958-1.608-4.489 0-6.767 4.891-6.767 11.993 0 9.18 3.953 14.54 7.839 14.941v-17.019zm-21.641 9.179v4.49c-4.824-1.274-10.318-2.48-14.204-3.15v-12.127c-.804-.134-1.608-.268-2.345-.402l-.871-4.355c1.072.134 2.144.335 3.216.536v-16.749c4.422.603 9.38 1.407 14.137 2.48v4.153c-2.412-.536-5.494-1.206-8.509-1.742v12.797a226.48 226.48 0 0 1 7.303 1.474v4.355c-1.943-.469-4.489-1.005-7.303-1.54v7.771c2.479.536 6.03 1.34 8.576 2.01zm-20.904.335v-32.897c-1.474-.134-4.087-.335-5.628-.47v32.765c1.407.067 4.288.402 5.628.603zm-14.338-29.815c-2.345-2.613-5.762-4.087-11.457-4.02-1.876 0-3.35.067-4.556.134v32.83c1.273-.067 3.149-.134 4.556-.2 5.561-.269 8.911-1.542 11.323-4.289 2.479-2.814 3.819-6.968 3.819-12.127.134-4.958-1.139-9.447-3.685-12.328zm-4.824 22.646c-1.273 1.34-2.814 1.876-4.69 1.943-.201 0-.469 0-.804.067v-24.589h.737c1.742.067 3.551.536 4.891 2.077 1.675 1.876 2.68 5.36 2.68 10.251 0 4.757-1.072 8.308-2.814 10.251zm-27.671-24.923v33.164l-3.417.603-10.586-17.822v20.301c-1.407.335-3.551 1.005-4.757 1.34v-34.036l3.551-.804 10.452 17.554v-19.564l4.757-.737zm-62.913 56.078c9.313.804 15.611-6.432 15.611-14.07 0-8.978-8.509-10.988-8.442-17.353.067-4.087 3.752-7.102 8.911-5.83v-4.488c-6.499-1.541-14.137 3.55-14.137 11.859 0 8.844 8.643 10.184 8.375 17.487-.134 4.22-3.35 8.643-10.318 7.504v4.89zm34.773-15.343c1.608-.67 4.288-1.541 5.628-2.01l-7.772-32.093-3.752 1.206-10.452 40.2c1.608-.804 3.618-1.81 5.293-2.613l1.54-6.5c2.815-1.272 5.629-2.478 8.443-3.684zm-8.375-6.566 3.886-16.616 2.747 13.802c-2.01.804-4.422 1.809-6.633 2.814z" fill="#fff"/><path d="m122.074 99.696c-42.277 8.04-75.71 45.024-65.325 93.934 5.56 8.777 14.539 18.358 23.65 25.929-26.598-43.215-15.342-93.063 18.158-106.664-26.8 22.847-20.435 51.255-7.973 64.588-11.122-29.681-5.695-60.836 31.49-77.787z" fill="#21c6d9"/><path d="m146.864 155.842c3.216-.268 3.417-.603 3.819-2.345 2.412-10.854 11.859-18.693 23.249-18.693s20.837 7.906 23.249 18.693c.402 1.742.536 2.077 3.819 2.345 7.102.536 19.162 1.139 32.629 1.742.67-3.082 1.273-6.231 1.742-9.581-6.164-.335-11.189-.804-14.673-1.072-3.149-.268-3.149-.067-3.752-2.546a34.245 34.245 0 0 0 -1.072-3.886c-.737-2.278-.804-2.211-4.02-2.278-3.752-.067-8.04-.201-12.998-.268-1.139 0-1.742-.201-2.747-.737-.603-.335-1.541-1.139-2.211-1.675 6.566 0 13.735 0 19.966-.134-.67-1.541-1.608-3.216-2.479-4.69-.871-1.407-1.005-1.474-4.02-1.474-16.683-.268-50.25-.268-66.933 0-3.015.067-3.149.067-4.02 1.474-.938 1.474-1.876 3.149-2.479 4.69 6.231.134 13.4.067 19.966.134-.67.536-1.608 1.34-2.211 1.675-.938.536-1.608.737-2.747.737-4.958.134-9.246.201-12.998.268-3.216.067-3.283 0-4.02 2.278a34.245 34.245 0 0 0 -1.072 3.886c-.603 2.479-.603 2.278-3.752 2.546-3.283.268-7.973.67-13.601 1.005-.067.804-.067 1.608-.067 2.479a63.7 63.7 0 0 0 .402 7.236c13.735-.67 25.862-1.273 33.031-1.809z" fill="#fd9f28"/></svg>