<svg viewBox="0 0 500 500" xmlns="http://www.w3.org/2000/svg"><g fill="none" fill-rule="evenodd"><path d="M452.71 238.318c22.807-16.9 35.094-38.578 35.094-72.061C487.804 126.62 459.461 71 348.635 71H68.147L3.438 183.712h47.51a9.577 9.577 0 0 1 9.591 9.583v112.518a9.577 9.577 0 0 1-9.592 9.583H0l65.388 112.325 294.718-.036c97.452 0 139.583-50.85 139.583-105.412 0-36.146-20.487-65.432-46.564-78.727-2.68-1.358-2.346-3.79-.415-5.228z" fill="#FFF"/><path d="M284.009 223.14h-47.79v-46.002c.045-4.822 3.942-8.71 8.772-8.71h39.018c22.894 0 31.396 11.672 31.396 26.908 0 16.151-8.502 27.805-31.396 27.805m0 105.832h-39.018a8.767 8.767 0 0 1-8.772-8.771v-45.94h47.79c22.894 0 31.396 11.222 31.396 26.915 0 16.134-8.502 27.796-31.396 27.796m136.393-83.8c-3.492-.835-2.926-5.118-.368-6.087 31.558-11.941 49.972-33.192 49.972-70.657.44-50.232-43.956-84.761-116.148-84.761H80.272l-48.005 84.806h33.039c6.527 0 11.806 5.288 11.806 11.815V317.13c0 6.518-5.28 11.797-11.806 11.797H32.635l48.364 84.393 285.868-.036c81.61 0 115.241-54.254 115.241-94.179 0-35.077-25.847-65.36-61.706-73.933" fill="#FB4F13"/><path d="M173.346 389.364c-50.726-95.355-64.058-204.994-45.16-305.69H80.271L32.266 168.47h33.039c6.527 0 11.806 5.288 11.806 11.815v104.998c24.617 39.952 60.278 78.216 96.235 104.081zM412.573 93.118c-58.052 86.099-89.51 195.846-75.388 295.806 17.3-84.087 62.433-161.747 132.73-218.003.018-.835.09-1.643.09-2.496.296-34.619-20.703-61.786-57.432-75.307zm-97.321-9.445c-9.104 23.846-18.666 52.62-26.71 84.923a60.68 60.68 0 0 0-4.534-.17H244.99c-4.83 0-8.727 3.887-8.772 8.708v46.003h41.02c-2.702 16.493-4.901 33.578-6.347 51.13h-34.673v45.931a8.767 8.767 0 0 0 8.772 8.771h23.953c.36 27.536 2.82 55.79 7.973 84.313h-35.67c-28.128-67.946-66.85-182.9-28.334-329.609h102.34z" fill="#000"/></g></svg>