<svg viewBox="0 0 500 500" xmlns="http://www.w3.org/2000/svg"><g clip-path="url(#a)"><path d="M253.289 393.118a4.18 4.18 0 0 1-.721 2.029 3.544 3.544 0 0 1-1.972.962 3.936 3.936 0 0 1-3.279-.702 3.146 3.146 0 0 1-1.307-2.193l-8.761-28.502c-4.904-14.616-12.318-30.3-26.694-44.176-17.376-16.751-42.984-28.339-78.295-35.416-30.771-6.164-51.032-11.463-65.678-17.184A98.716 98.716 0 0 1 36.1 249.857C15.367 232.279.943 209.873-.019 181.698c0 0 20.607 29.127 43.273 15.213 10.712-6.577 18.405-5.635 18.405-5.635a53.072 53.072 0 0 1-13.463-28.647c-1.106-8.731-.384-18.424 2.116-28.848 4.27-17.665 16.684-30.608 16.809-30.82 0 0-4.885 42.446 15.386 57.505a39.237 39.237 0 0 0 25.367 4.212s-16.857-7.809-19.232-32.859a77.89 77.89 0 0 1 1.019-21.876s22.242 31.396 44.532 18.501c4.991-2.885 31.291-16.482 42.638-19.501a99.094 99.094 0 0 1 48.975-.962 109.878 109.878 0 0 1 38.176 17.896c21.704 15.52 35.762 35.675 40.801 43.618 0 0 43.696-1.923 67.602 28.637v.048l55.369 24.483-6.279 4.01-.269.183.279.173c17.895 11.376 49.205 31.531 57.696 38.801l15.838 7.529-2.885 7.693c-.192.519-4.491 12.809 3.625 18.896l4.068 3.058.087.067v.096l-12.501 32.993-3.154-4.241c-17.367-23.944-33.782-28.367-42.042-28.54-9.337-.193-9.991 4.808-8.837 6.923 3.76 6.943 24.694 10.578 32.444 11.328l5.28.683-20.194 18.069-36.541-2.299h-.154v-.154l.615-7.173v-.048c-.183-1.356-2.654-13.617-32.541-25.916h-.173a79.45 79.45 0 0 1-28.29 7.078 65.914 65.914 0 0 1-42.369-12.28l-.087-.058h-.105a107.098 107.098 0 0 0-25.368 12.655c-18.78 12.905-29.021 29.81-30.444 50.177 0 0-1.654 16.799-2.164 30.772" fill="#0A2343"/><path d="M134.116 168.39c-26.204 8.048-44.772 7.952-56.793-.279-10.24-6.991-16.414-19.492-16.972-40.648-7.895 24.608-4.116 44.11 7.327 57.197 9.078 10.386 24.54 17.261 41.35 18.396 33.599-15.386 68.159-25.214 102.719-29.166-9.376-16.049-36.926-17.992-77.631-5.5z" fill="#FC4C02"/><path d="M260.636 135.089a102.617 102.617 0 0 0-35.638-17.636 88.587 88.587 0 0 0-45.753.442c-10.068 2.703-32.82 13.876-41.35 18.271-22.396 11.616-36.887-3.414-42.31-9.068l-.25-.25a61.918 61.918 0 0 0 4.029 14.424c3.106 7.135 7.587 12.386 13.337 15.598 10.28 5.769 24.589 4.933 42.532-2.424 19.973-8.183 36.734-10.693 49.802-7.443 11.78 2.933 22.617 12.319 29.012 25.118a291.879 291.879 0 0 1 64.515 4.577c-10.886-16.79-23.973-31.175-37.926-41.609z" fill="#FC4C02"/><path d="M481.749 288.668a35.552 35.552 0 0 1 1.798-10.655l-9.395-4.385c-5.828-6.298-68.871-45.945-69.506-46.349l-.24-.154.231-.154 4.664-3.106-42.734-18.098h-.048v-.048c-17.309-25.963-51.524-26.925-58.091-26.925 13.02 4.02 17.001 7.982 18.001 10.578a3.32 3.32 0 0 1 0 2.885l-.067.115h-.125c-147.435-40.186-268.04 52.273-273.098 56.226 5.77 5.846 18.8 13.722 65.572 24.098 10.328-8.184 60.13-43.561 135.135-41.475l-12.183-18.415s46.513 12.088 73.082 26.849a41.841 41.841 0 0 0 68.756 36.108l33.358 21.29-32.003-12.414a54.476 54.476 0 0 1-86.179-38.897c-72.044-18.098-125.173 27.463-135.79 37.503a182.207 182.207 0 0 1 23.647 9.183 128.429 128.429 0 0 1 23.54 14.424c5.337-6.52 26.617-28.848 67.418-29.214 0 0-40.06 10.367-52.831 43.004 11.347 13.135 17.184 27.021 21.675 40.282a70.14 70.14 0 0 1 12.068-34.407 85.228 85.228 0 0 1 22.771-22.204 112.386 112.386 0 0 1 31.897-14.914h.087l.077.058c32.454 26.165 68.188 5.567 68.543 5.346h.164a117.529 117.529 0 0 1 25.069 12.722 51.619 51.619 0 0 1 12.501 11.693c4.577 6.289 4.702 10.819 4.673 11.761l24.214 1.587 7.097-6.068c-22.002-2.885-28.666-9.684-30.032-15.54-2.375-14.174 12.049-15.924 18.598-15.068 15.328 2 33.954 15.732 40.974 25.281l5.193-13.944c-7.077-5.375-8.481-13.049-8.481-18.559z" fill="#fff"/><path d="M13.52 204.239s9.463 48.84 79.67 8.5c-19.444-6.145-23.406-19.309-46.677-7.385-20.693 10.578-32.992-1.115-32.992-1.115z" fill="#FC4C02"/><path d="M396.415 231.933a5.482 5.482 0 1 1-9.174-4.808c-16.184-7.943-24.656-9.155-24.656-9.155 19.608 13.011 27.974 23.868 27.974 23.868l5.298-3.616 49.562 27.714c-19.713-16.136-36.118-26.858-49.004-34.003z" fill="#0A2343"/><path d="M385.52 230.702a5.482 5.482 0 1 0 10.895 1.231c-.779-.433-1.539-.856-2.308-1.26l-5.404 3.972 1.5-6.03c-1.01-.528-2-1.019-2.962-1.49a5.499 5.499 0 0 0-1.721 3.577z" fill="#FC4C02"/><path d="m388.703 234.645 5.404-3.972a159.719 159.719 0 0 0-3.904-2.058l-1.5 6.03zm86.103 44.522c-11.674 4.664 3.365 18.05 3.365 18.05-32.704-25.819-3.365-18.05-3.365-18.05zm-142.271-84.304c21.156.433.164-8.549.164-8.549s15.222 2.347 24.04 16.463a220.607 220.607 0 0 0-24.204-7.914z" fill="#0A2343"/></g><defs><clipPath id="a"><path fill="#fff" transform="translate(0 103)" d="M0 0h500v293.167H0z"/></clipPath></defs></svg>