<svg viewBox="0 0 500 500" xmlns="http://www.w3.org/2000/svg"><g fill="none"><path d="M497.344 359.855c-27.52-37.061-75.497-82.328-132.749-107.748l11.68 26.946C327.61 254.55 273.527 237.07 212.153 237.07l13.091 14.16C111.962 255.809 45.511 311.954 2 359.855c1.03-64.886 47.48-123.397 108.702-159.16l-12.595-11.718c45.572-31.527 109.466-40.343 163.435-34.122L253.908 141c178.703 13.282 254.39 146.603 243.512 218.855" fill="#FFF"/><path d="m211.351 245.885-13.74-14.847c52.023-1.756 104.618 6.107 165.801 34.847l-11.45-25.992a348.13 348.13 0 0 1 139.885 103.054c-3.587-78.436-82.595-179.81-226.297-194.313l7.977 14.427c-58.092-9.885-123.32.382-164.886 26.718l13.015 12.29C59.252 235.504 18.07 288.824 9.252 342.756c51.603-53.932 118.702-91.069 202.1-96.87" fill="#0080C6"/><path d="M469.595 300.733C445.245 235.198 372 178.595 289.786 165.16l9.657 17.214c-49.619-15.267-121.489-14.39-168.779 10.267l13.55 12.596C100.855 223.824 55.13 263.634 37 300.16c29.695-26.717 94.313-57.786 147.328-64.35l-13.168-14.276c50.916-10.114 118.817 0 167.214 19.542l-9.39-21.64c35.65 7.327 101.91 39.16 140.611 81.297" fill="#FFC20E"/></g></svg>