<svg viewBox="0 0 500 500" xmlns="http://www.w3.org/2000/svg"><g clip-path="url(#a)"><path d="M498.495 241.684a32.63 32.63 0 0 0-10.039-12.196c-4.467-4.015-6.073-5.822-7.277-6.776-6.626-5.019-3.112-2.208-8.633-6.374-4.266-3.162-6.475-4.718-10.841-7.73-9.035-6.273-5.019-2.158-11.745-8.231-5.019-7.579-14.706-18.47-23.891-20.076-10.038-1.707-14.254-4.317-15.057-5.973a59.881 59.881 0 0 0-18.169-16.914c-12.397-6.726-26.3-6.274-37.442-16.212-15.308-10.841-25.949-9.285-38.346-10.038a60.228 60.228 0 0 1-25.095-10.038 35.145 35.145 0 0 0-15.861-5.722c-22.887 1.004-22.887-.803-36.639-8.783a55.2 55.2 0 0 0-13.852-6.324 63.933 63.933 0 0 0-11.394-1.305c-14.806-1.907-14.204 3.764-24.794-2.008a51.947 51.947 0 0 0-14.706-5.47 85.887 85.887 0 0 0-15.91-1.456c-10.591-.452-14.254 4.467-29.814 1.556-17.667-3.313-32.975-6.274-40.504.351-10.389 7.027-13.25 20.076-9.737 32.875 3.514 12.799 5.27 17.768 7.479 26.35 4.718 14.455 1.054 5.722-3.363 3.112a24.197 24.197 0 0 0-26.4-1.204c-12.448 7.679-11.193.351-19.524-.402a19.122 19.122 0 0 0-17.567 6.475 25.09 25.09 0 0 0-5.02 9.385 28.058 28.058 0 0 0-.852 13.301c.652 5.621 2.208 7.88 2.81 12.045 1.506 10.892-1.757 13.953-5.019 20.077a154.184 154.184 0 0 0-5.922 14.806 81.954 81.954 0 0 0-4.568 19.374c-.552 6.976-.953 11.644-.853 16.663a155.124 155.124 0 0 0 6.023 35.133 46.379 46.379 0 0 1 1.355 22.938c-1.255 8.582-2.61 13.099 1.305 19.323a19.018 19.018 0 0 0 10.49 7.88 28.666 28.666 0 0 0 13.3 1.255 47.235 47.235 0 0 0 16.563-6.625c5.873-2.008 13.401 4.216 23.038.652 9.536-5.019 5.571 3.965 5.571 3.965a300.644 300.644 0 0 0-10.038 35.485 21.583 21.583 0 0 0 4.517 17.316 31.515 31.515 0 0 0 16.864 9.034 33.572 33.572 0 0 0 15.057 0c0-.301 2.711-.452 2.711-.753l7.428-1.656 5.019-.803c4.55-.489 9.128-.674 13.702-.552 8.382-.251 16.513 2.459 24.343 2.459 4.134.287 8.286.169 12.397-.351a68.117 68.117 0 0 0 24.493-7.98c10.49-5.019 14.555-2.159 18.922-2.359a85.995 85.995 0 0 0 26.952-6.023c5.019-2.761 8.884-4.467 12.397-6.124 13.351-6.324 19.123-5.019 33.126-7.729 11.996-2.259 13.15-6.073 24.041-8.984a113.16 113.16 0 0 1 14.004-2.309 37.96 37.96 0 0 0 15.057-7.277 70.248 70.248 0 0 1 8.884-7.178c9.084-5.671 10.69-2.208 23.941-8.131a131.555 131.555 0 0 0 23.489-14.605c7.93-6.174 16.262-5.973 28.709-11.795 6.173-2.911 12.748-7.378 20.98-21.13 5.521-9.336 15.057-6.676 28.408-14.505a46.518 46.518 0 0 0 11.544-9.587 62.413 62.413 0 0 0 11.393-15.659c3.212-5.521 5.822-9.938 2.56-16.463zm-13.853 16.212a56.9 56.9 0 0 1-9.486 11.594 34.38 34.38 0 0 1-16.663 9.385c-11.344 3.413-17.015 5.02-23.389 16.011a36.086 36.086 0 0 1-20.077 17.216c-10.038 3.613-22.234 5.822-30.114 13.601a61.108 61.108 0 0 1-18.872 11.092c-7.227 3.363-15.308 3.213-22.485 7.278-4.317 2.409-3.714 2.61-9.235 7.73a28.012 28.012 0 0 1-12.197 6.324 110.3 110.3 0 0 0-12.598 1.606c-10.038 2.66-13.551 6.876-22.485 9.084-12.748 3.112-26.049 2.359-37.392 8.432-3.162 1.656-4.367 1.857-9.085 4.417a36.39 36.39 0 0 1-18.118 6.475c-8.784.401-8.784-1.255-18.772 0-12.046 1.606-16.713 5.972-26.751 9.184a55.18 55.18 0 0 1-10.591 2.209 86.753 86.753 0 0 1-21.23-1.556 56.27 56.27 0 0 0-18.471-.602h-5.019c0 .251-5.521 0-5.521.451a84.084 84.084 0 0 0-9.185 1.757 31.21 31.21 0 0 1-20.076 0c-14.053-5.571-7.127-19.223-5.671-25.547 1.455-6.324 4.266-14.204 6.926-23.037 0 0 1.606-7.077 1.606-7.178.452-6.675-1.154-8.833-3.764-10.791a16.62 16.62 0 0 0-8.382-.803c-2.71 0-8.432 3.463-11.695 3.865-3.262.401-9.134-3.212-17.616-2.058a67.531 67.531 0 0 0-14.757 6.274 14.557 14.557 0 0 1-15.609-3.564c-4.366-5.019 0-12.045.452-19.373a73.776 73.776 0 0 0-3.062-22.134c-1.606-6.425-3.011-11.344-4.266-18.922-.452-3.062-1.104-13.351-1.004-14.154.402-4.567.301-10.038 1.104-15.057a78.94 78.94 0 0 1 4.367-17.868 61.557 61.557 0 0 1 6.374-14.254 30.117 30.117 0 0 0 4.768-20.077 75.285 75.285 0 0 0-2.961-11.694 22.238 22.238 0 0 1 0-9.637c.803-4.015 1.556-7.779 5.02-9.586a8.832 8.832 0 0 1 8.18-1.707c5.02 2.259 5.722 6.023 12.698 4.216 6.977-1.806 15.058-8.582 21.382-7.277 5.019.953 7.328 5.621 11.644 8.934a11.745 11.745 0 0 0 10.79.753c6.174-2.861 6.275-11.795 3.665-19.123-2.259-6.324-3.664-11.444-6.475-20.779a34.276 34.276 0 0 1-2.56-11.444 21.48 21.48 0 0 1 1.958-12.698 15.357 15.357 0 0 1 9.586-7.227c15.459-1.456 30.115 6.675 46.276 3.463a62.538 62.538 0 0 1 22.988-1.255 45.976 45.976 0 0 1 13.852 5.019c4.417 2.409 7.278 5.019 12.096 4.568a83.6 83.6 0 0 1 26.2 0 28.701 28.701 0 0 1 9.586 3.412c4.568 2.661 8.834 5.772 13.502 8.081 16.061 7.78 23.94 1.707 35.434 5.27a29.804 29.804 0 0 1 10.289 5.471 50.19 50.19 0 0 0 24.594 9.185c16.312.502 20.377-1.506 35.886 9.486 10.289 9.135 23.439 8.181 34.832 14.355a36.537 36.537 0 0 1 15.058 12.346 26.85 26.85 0 0 0 15.057 10.44c8.382 1.857 16.663 3.212 21.983 12.999a39.057 39.057 0 0 0 14.556 12.95c4.266 2.409 5.471 4.517 9.586 7.127a28.889 28.889 0 0 1 6.826 4.718 89.013 89.013 0 0 1 8.583 6.625 101.032 101.032 0 0 1 10.289 10.339c5.621 5.371.301 11.695-2.359 15.66z" fill="#fff"/><path d="M476.711 232.098a89.17 89.17 0 0 0-8.582-6.626 28.935 28.935 0 0 0-6.826-4.717c-4.116-2.61-5.32-4.718-9.587-7.127a39.062 39.062 0 0 1-14.555-12.95c-5.32-9.787-13.602-11.142-21.983-12.999a26.852 26.852 0 0 1-15.058-10.44 36.53 36.53 0 0 0-15.057-12.347c-11.393-6.173-24.543-5.019-34.832-14.354-15.509-10.992-19.575-8.984-35.887-9.486a50.2 50.2 0 0 1-24.593-9.185 29.804 29.804 0 0 0-10.289-5.471c-11.494-3.564-19.374 2.509-35.435-5.27-4.668-2.309-8.934-5.421-13.501-8.081a28.722 28.722 0 0 0-9.587-3.413 83.654 83.654 0 0 0-26.199 0c-5.019.402-7.679-2.158-12.096-4.567a45.958 45.958 0 0 0-13.853-5.019 62.526 62.526 0 0 0-22.987 1.255c-16.061 3.212-30.817-5.02-46.276-3.463a15.355 15.355 0 0 0-9.586 7.227 21.481 21.481 0 0 0-1.958 12.698 34.286 34.286 0 0 0 2.56 11.444c2.81 9.335 4.216 14.455 6.475 20.779 2.61 7.327 2.51 16.261-3.664 19.122a11.74 11.74 0 0 1-10.791-.753c-4.317-3.312-6.726-7.98-11.645-8.934-6.524-1.304-14.404 5.421-21.38 7.278-6.977 1.857-7.88-1.957-12.7-4.216a8.83 8.83 0 0 0-8.18 1.707c-3.263 1.807-4.015 5.571-5.02 9.586a22.235 22.235 0 0 0 0 9.637 75.268 75.268 0 0 1 2.962 11.694 30.112 30.112 0 0 1-4.768 20.076 61.592 61.592 0 0 0-6.374 14.255 78.949 78.949 0 0 0-4.367 17.867c-.803 5.02-.703 10.039-1.104 15.058 0 .803.552 11.092 1.004 14.154 1.254 7.578 2.66 12.497 4.266 18.921a73.782 73.782 0 0 1 3.062 22.134c0 7.328-5.02 14.204-.452 19.374a14.552 14.552 0 0 0 15.61 3.564 67.48 67.48 0 0 1 14.755-6.274c8.482-1.155 13.953 2.459 17.617 2.058 3.664-.402 8.984-3.664 11.695-3.865a16.609 16.609 0 0 1 8.381.803c2.61 1.957 4.216 4.116 3.765 10.791 0 0-1.556 7.127-1.606 7.177-2.66 8.834-5.521 17.015-6.927 23.038-1.405 6.023-8.382 20.076 5.672 25.547a31.225 31.225 0 0 0 20.076 0 84.038 84.038 0 0 1 9.185-1.757c0-.301 5.521 0 5.521-.451h5.019a56.235 56.235 0 0 1 18.47.602 86.76 86.76 0 0 0 21.231 1.556 55.23 55.23 0 0 0 10.59-2.209c10.038-3.212 14.706-7.578 26.752-9.185 10.038-1.355 10.038.302 18.771 0a36.382 36.382 0 0 0 18.119-6.474c4.718-2.56 5.922-2.761 9.085-4.417 11.343-6.073 24.643-5.32 37.392-8.432 8.934-2.208 12.447-6.424 22.485-9.085a110.721 110.721 0 0 1 12.598-1.606 27.997 27.997 0 0 0 12.196-6.324c5.521-5.019 5.019-5.32 9.235-7.729 7.178-4.065 15.058-3.915 22.486-7.278a61.127 61.127 0 0 0 18.872-11.092c7.729-7.779 20.076-10.038 30.114-13.601a36.092 36.092 0 0 0 20.076-17.216c6.375-11.042 12.046-12.598 23.389-16.011a34.375 34.375 0 0 0 16.663-9.385 56.85 56.85 0 0 0 9.487-11.595c2.66-3.965 7.98-10.489 2.358-15.458a100.889 100.889 0 0 0-10.289-10.54zm-9.185 30.114c-11.041 5.822-20.076 4.166-30.114 14.305-8.332 8.482-17.366 18.821-23.539 20.678a67.052 67.052 0 0 0-14.556 6.023 52.48 52.48 0 0 0-10.49 6.726 40.81 40.81 0 0 1-17.315 11.041c-5.772 2.008-12.598 2.912-18.671 4.769a54.757 54.757 0 0 0-12.096 5.47c-6.073 3.413-13.401 11.544-23.49 13.401-20.076 3.714-14.655 3.313-28.859 9.737a47.09 47.09 0 0 1-15.961 3.363 44.81 44.81 0 0 0-22.786 5.421c-5.471 2.911-11.042 8.281-21.833 9.687-13.301 1.756-14.054 0-30.567 3.613a163.716 163.716 0 0 0-16.111 6.475 80.76 80.76 0 0 1-26.902 1.355 88.377 88.377 0 0 0-27.755 1.506 101.569 101.569 0 0 1-24.494 1.706 6.574 6.574 0 0 1-5.019-3.814 11.093 11.093 0 0 1-1.455-7.93c.301-4.138.99-8.238 2.058-12.247.451-1.757 2.66-13.1 3.061-15.057 2.409-10.892 3.162-21.934-5.42-26.902a26.099 26.099 0 0 0-14.204-1.707c-14.606 2.61-11.544 5.019-20.83 1.757a28.243 28.243 0 0 0-7.83-1.155c-4.667 0-11.342 3.464-17.215 4.367-4.115.652-5.019-3.965-5.019-7.228 0-5.019.703-10.038.452-15.709-.602-15.057-3.212-15.71-5.02-24.694a216.224 216.224 0 0 1-1.505-21.582 62.986 62.986 0 0 1 8.482-28.006 51.447 51.447 0 0 0 6.124-11.695 27.254 27.254 0 0 0 .853-17.366s-1.506-5.019-.954-5.019a16.16 16.16 0 0 1 1.255-8.482 10.343 10.343 0 0 1 5.32-6.073 17.29 17.29 0 0 1 5.02-1.606c5.37-.352 6.474 3.111 16.613-1.155a16.862 16.862 0 0 1 12.999 1.707c7.027 2.559 5.822 2.559 10.038 2.71a21.737 21.737 0 0 0 12.297-3.363 14.708 14.708 0 0 0 5.32-4.065 31.026 31.026 0 0 0 3.112-8.733 29.379 29.379 0 0 0 .502-11.695c-2.259-8.582-3.062-10.44-4.618-15.86a129.657 129.657 0 0 1-3.363-12.698v-5.019a5.888 5.888 0 0 1 1.227-4.829 5.877 5.877 0 0 1 4.495-2.148c12.548 0 24.343 3.463 37.593 3.413 10.942 0 15.609-2.309 28.458 2.359 4.517 1.606 7.127 5.32 14.154 7.278 13.351 3.764 23.991-5.019 35.133 0 9.537 4.467 7.529 1.756 16.463 7.428a57.055 57.055 0 0 0 22.987 8.783c7.68 1.155 20.077-2.007 32.474 7.077a42.608 42.608 0 0 0 22.535 8.131c10.641 1.104 11.695-.401 20.077 5.672 6.173 4.467 4.467 3.513 10.69 8.13a45.776 45.776 0 0 0 9.135 6.074 74.189 74.189 0 0 0 10.992 2.258 45.162 45.162 0 0 1 16.513 2.008s8.181 5.32 6.725 4.366a58.488 58.488 0 0 1 11.845 14.204 22.335 22.335 0 0 0 16.011 8.432c-2.158-.401 10.038 3.765 11.845 5.019a32.322 32.322 0 0 1 10.038 9.085 57.486 57.486 0 0 0 15.057 12.247c3.413 2.308 4.016 3.111 10.591 7.779a25.542 25.542 0 0 1 7.327 7.579c3.162 6.625-1.154 8.934-7.88 12.497v.201z"/><path d="M468.179 242.085c-6.575-4.667-7.177-5.47-10.59-7.779a57.455 57.455 0 0 1-15.058-12.247 32.331 32.331 0 0 0-10.038-9.084c-1.857-1.054-14.003-5.019-11.845-5.019a22.34 22.34 0 0 1-16.011-8.432 58.465 58.465 0 0 0-11.844-14.204c1.455.953-6.827-4.517-6.726-4.367a45.183 45.183 0 0 0-16.513-2.007 74.346 74.346 0 0 1-10.992-2.259 45.779 45.779 0 0 1-9.134-6.073c-6.224-4.618-4.518-3.664-10.691-8.131-8.382-6.073-9.436-4.567-20.076-5.671a42.625 42.625 0 0 1-22.536-8.131c-12.598-9.085-24.794-5.923-32.473-7.077a57.066 57.066 0 0 1-22.988-8.784c-8.934-5.671-6.926-2.961-16.462-7.428-11.394-5.37-22.034 3.614-35.134 0-7.026-1.957-9.636-5.671-14.153-7.278-12.849-4.667-17.517-2.459-28.459-2.358-13.25 0-25.095-3.514-37.592-3.414a5.876 5.876 0 0 0-5.722 6.977v5.019a129.376 129.376 0 0 0 3.363 12.698c1.556 5.421 2.358 7.278 4.617 15.861a29.356 29.356 0 0 1-.502 11.694 31.004 31.004 0 0 1-3.112 8.733 14.691 14.691 0 0 1-5.32 4.066 21.727 21.727 0 0 1-12.297 3.362c-4.467 0-3.262.001-10.038-2.71a16.86 16.86 0 0 0-13-1.706c-10.037 4.266-11.242.803-16.612 1.154a17.32 17.32 0 0 0-5.02 1.606 10.35 10.35 0 0 0-5.32 6.073 16.162 16.162 0 0 0-1.254 8.482c-.552 0 .953 4.769.953 5.02a27.25 27.25 0 0 1-.853 17.365 51.443 51.443 0 0 1-6.123 11.695 62.988 62.988 0 0 0-8.482 28.006c.141 7.215.644 14.418 1.505 21.582 1.807 8.985 4.417 9.788 5.02 24.694.25 5.722-.302 10.59-.452 15.71 0 3.262.953 7.88 5.019 7.227 5.872-.903 12.547-4.216 17.215-4.366 2.651.015 5.287.404 7.83 1.154 9.285 3.313 6.224.854 20.83-1.756a26.089 26.089 0 0 1 14.203 1.706c8.583 5.019 7.83 16.011 5.421 26.902-.402 1.757-2.61 13.1-3.062 15.057a66.351 66.351 0 0 0-2.058 12.247 11.092 11.092 0 0 0 1.456 7.93 6.577 6.577 0 0 0 5.02 3.815c8.202.423 16.427-.15 24.492-1.707a88.377 88.377 0 0 1 27.755-1.506c8.98 1.058 18.074.6 26.902-1.355a163.48 163.48 0 0 1 16.112-6.474c16.513-3.514 17.265-1.857 30.566-3.614 10.791-1.405 16.362-6.776 21.833-9.687a44.815 44.815 0 0 1 22.786-5.42 47.085 47.085 0 0 0 15.961-3.363c14.204-6.425 8.884-6.023 28.86-9.737 10.038-1.857 17.416-10.038 23.489-13.401a54.827 54.827 0 0 1 12.096-5.471c6.073-1.857 12.899-2.76 18.671-4.768a40.8 40.8 0 0 0 17.316-11.042 52.512 52.512 0 0 1 10.49-6.726 67.02 67.02 0 0 1 14.555-6.022c6.173-1.858 15.057-12.197 23.539-20.679 10.038-10.038 19.073-8.482 30.115-14.304 6.725-3.564 11.042-5.873 7.98-12.347a25.556 25.556 0 0 0-7.428-7.931zm-117.798 70.769a97.055 97.055 0 0 1-17.466 9.436 120.455 120.455 0 0 1-31.369 8.533 220.287 220.287 0 0 1-40.153.602 136.532 136.532 0 0 1-38.145-10.339 59.73 59.73 0 0 1-19.173-13.2 44.23 44.23 0 0 1-11.594-19.625 51.053 51.053 0 0 1 5.27-40.153 57.965 57.965 0 0 1 18.621-18.821l-2.961-3.012-35.134 20.077v5.019h9.386v20.076l-6.324 5.923h-63.541v-16.915a119.154 119.154 0 0 1 7.679-9.285h3.011v-65.248H118.45v-12.096l8.231-9.586h60.229v15.057l-9.285 9.386v25.346l57.518-32.875v-10.339l6.525-6.575h61.283v15.057l-7.529 7.127h-15.057l-25.346 16.011 4.467 4.567c27.504-9.134 53.804-10.891 89.289 4.768l10.038-6.173h16.664v44.419l-7.88 7.729h-15.66c-11.644-19.123-31.469-36.689-71.421-28.107l20.829 22.436h4.567v18.319l-7.729 7.378h-60.229l-.351-16.964 4.467-4.668-2.66-2.861c-8.784 6.726-14.706 21.231 6.123 37.543 28.508 20.377 99.879 8.331 107.308-17.969h23.589c-.251 17.366-13.551 31.068-26.049 40.002z" fill="#fff"/><path d="M245.533 291.072c-20.829-16.312-15.057-30.817-6.123-37.543l2.66 2.861-4.467 4.668.351 16.964h60.229l7.73-7.378v-18.319h-4.568l-20.829-22.436c40.153-8.582 59.777 8.984 71.421 28.107h15.66l7.88-7.729v-44.419h-16.663l-10.039 6.173c-35.484-15.659-61.784-13.903-89.289-4.768l-4.467-4.818 25.397-15.057h15.057l7.528-7.127v-15.058h-61.132l-6.525 6.575v10.34l-57.518 32.875v-25.347l9.285-9.385v-15.058h-60.229l-8.231 9.587v12.096h10.038v65.248h-3.011a119.154 119.154 0 0 0-7.679 9.285v16.914h63.491l6.324-5.922v-20.076h-9.587v-5.02l35.134-20.076 2.961 3.012a57.965 57.965 0 0 0-18.621 18.821 51.04 51.04 0 0 0-5.27 40.153 44.227 44.227 0 0 0 11.594 19.624 59.73 59.73 0 0 0 19.173 13.2 136.5 136.5 0 0 0 38.145 10.34 220.287 220.287 0 0 0 40.153-.603 120.414 120.414 0 0 0 31.369-8.532 97.116 97.116 0 0 0 17.517-10.389c12.648-9.085 25.948-22.787 26.199-39.902h-23.59c-7.629 26.45-78.95 38.496-107.458 18.119zm103.945-75.286 9.386-6.124h13.15v39.45h-14.606c-15.057-22.385-48.735-30.114-80.305-22.686l-14.656-16.111c10.992-3.463 42.763-14.254 87.031 5.32v.151zm-174.764 28.107v13.3h8.984v11.343h-55.21v-11.343h9.386v-78.599h-9.386v-10.038h55.21v10.038h-9.385v42.713l75.035-42.813h-6.626v-10.038h56.766v10.038H286.84l-38.396 22.636 51.747 56.063h1.807v11.393h-57.017v-11.443h7.93l-35.435-37.744-42.762 24.494zm197.501 32.874c-2.159 11.645-7.479 16.312-14.054 23.841a67.46 67.46 0 0 1-19.323 13.903 111.273 111.273 0 0 1-48.736 11.192 149.204 149.204 0 0 1-60.931-10.038 57.315 57.315 0 0 1-28.559-24.041 44.57 44.57 0 0 1-.953-33.226 47.127 47.127 0 0 1 20.377-25.447l16.463 17.767c-8.382 7.228-14.455 20.478-1.406 35.586 15.66 19.574 51.346 25.095 88.436 14.053 19.173-5.671 27.555-13.652 33.628-23.64l15.058.05z"/><path d="m252.66 257.193-7.93-.05v11.493h57.067v-11.393l-1.807-.05-51.696-55.863 38.395-22.636 12.649-.15v-9.888l-56.766.101v9.837h6.625l-75.035 42.813v-42.713l9.386-.1v-9.837h-55.06v9.837h9.386v78.599h-9.386v11.343h55.06v-11.343h-8.985v-13.251l42.662-24.493 35.435 37.744z" fill="#E31837"/><path d="M323.379 300.407c-37.091 11.042-72.776 5.521-88.436-14.053-13.05-15.057-6.977-28.358 1.405-35.585l-16.462-17.768a47.128 47.128 0 0 0-20.378 25.447 44.57 44.57 0 0 0 .954 33.226 57.315 57.315 0 0 0 28.559 24.041 149.221 149.221 0 0 0 60.931 10.039 111.28 111.28 0 0 0 48.735-11.193 67.451 67.451 0 0 0 19.324-13.903c6.575-7.528 11.895-12.196 14.053-23.84h-15.057c-6.073 9.937-14.455 17.918-33.628 23.589zm33.879-51.295h14.605v-39.45h-13.15l-9.385 6.124c-44.419-19.575-76.039-8.784-87.232-5.321l14.656 16.112c31.771-7.68 65.599.15 80.506 22.535z" fill="#E31837"/></g><defs><clipPath id="a"><path fill="#fff" transform="translate(0 88)" d="M0 0h500v323.981H0z"/></clipPath></defs></svg>