<svg viewBox="0 0 500 500" xmlns="http://www.w3.org/2000/svg"><g clip-path="url(#a)"><path d="M62.092 245.914a5.774 5.774 0 0 0 5.66-6.898 5.769 5.769 0 0 0-4.534-4.535 5.777 5.777 0 0 0-5.925 2.454 5.77 5.77 0 0 0 4.799 8.979zM371.163 77.222a5.802 5.802 0 1 0 5.772 5.803 5.777 5.777 0 0 0-3.556-5.36 5.777 5.777 0 0 0-2.216-.443zM129.775 88.796a5.803 5.803 0 1 0-5.802-5.771 5.771 5.771 0 0 0 5.802 5.771zm309.162 157.118a5.77 5.77 0 0 0 5.311-3.584 5.776 5.776 0 0 0-1.271-6.28 5.77 5.77 0 0 0-9.4 6.308 5.773 5.773 0 0 0 5.36 3.556z" fill="#fff"/><path d="M485.781 233.307c-4.193-33.993-11.909-50.945-17.438-67.531a391.515 391.515 0 0 0-26.52-53.132c-6.987-10.208-19.746-28.981-24.971-35.604-1.428-2.096.425-1.124 1.215-1.094 1.418.417 2.901.572 4.374.456a21.262 21.262 0 0 0 19.99-23.057 224.784 224.784 0 0 0-5.378-36.09C433.864 6.197 427.211 1.033 415.424.061c-5.863 0-30.682-.486-41.953 1.245-22.541 2.248-39.066 8.81-48.879 28.708-7.868 17.437-5.164 44.687 5.651 65.557a245.4 245.4 0 0 0 17.437 28.981 197.719 197.719 0 0 1 13.488 22.571c5.164 10.056 22.359 47.634 28.252 72.18 11.21 45.81 4.891 72.179-16.708 108.026-15.949 23.847-34.632 41.011-49.092 48.879-23.817 14.976-56.352 19.138-73.303 19.138s-49.487-4.162-73.273-19.138c-14.491-7.868-33.173-25.032-49.122-48.879-21.599-35.847-27.888-62.216-16.708-108.026 5.893-24.546 23.087-62.124 28.252-72.18a202.136 202.136 0 0 1 13.488-22.571 241.574 241.574 0 0 0 17.437-28.981c10.815-20.87 13.518-48.12 5.65-65.557-9.812-19.898-26.338-26.46-48.879-28.708C115.892-.425 91.103.061 85.21.061c-11.787.972-18.41 6.076-21.63 17.194a228.448 228.448 0 0 0-5.377 36.09 21.264 21.264 0 0 0 19.99 23.057 12.15 12.15 0 0 0 4.374-.456c.79 0 2.643-1.002 1.215 1.094-5.195 6.623-17.984 25.396-24.971 35.604a395.235 395.235 0 0 0-26.4 53.132c-5.528 16.586-13.244 33.416-17.437 67.531a227.384 227.384 0 0 0 0 60.757c.365 2.734.79 5.742 1.367 9.114v.364a207.908 207.908 0 0 0 3.798 17.65A237.772 237.772 0 0 0 140.62 473.297c2.309 1.276 4.587 2.643 6.957 3.889 17.558 9.265 54.134 22.875 101.828 22.844h.912c3.038 0 6.288 0 9.356-.212l4.466-.243c2.096 0 4.162-.243 6.228-.426l2.521-.212c37.062-3.372 65.375-13.944 80.199-21.751 4.891-2.582 9.6-5.286 14.278-8.111a237.927 237.927 0 0 0 113.069-147.579c1.762-6.683 3.038-12.759 3.888-18.227v-.213c.547-3.311.973-6.319 1.337-9.113a227.429 227.429 0 0 0 .122-60.636zm-235.616 255.18A225.474 225.474 0 0 1 28.402 303.026a234.765 234.765 0 0 1 .212-82.812c16.223-75.946 48.819-114.193 67.471-140.44 8.84-12.79-.243-20.14-7.351-17.437a35.453 35.453 0 0 1-10.056 2.4c-10.572-1.428-9.113-8.294-7.139-26.217L74 23.786c2.219-13.032 8.112-12.759 23.575-12.485 24.545.486 28.981.699 42.226 3.038 17.68 3.919 40.768 21.599 22.601 70.204-11.3 26.035-23.087 34.875-35.846 61.882-13.762 29.953-47.148 97.211-24.576 154.687 30.955 77.101 90.862 104.593 147.821 105.565a161.436 161.436 0 0 0 149.068-105.565c22.601-57.476-10.785-124.734-24.546-154.687-12.759-27.007-24.546-35.847-35.847-61.882-18.227-48.605 4.922-66.285 22.602-70.204 13.245-2.46 17.68-2.674 42.226-3.038 15.463-.274 21.265-.547 23.574 12.486l2.46 14.733c1.945 17.923 3.433 24.789-7.139 26.217a35.455 35.455 0 0 1-10.055-2.4c-7.139-2.704-16.222 4.648-7.382 17.437 18.683 26.247 51.279 64.554 67.471 140.44a233.923 233.923 0 0 1 .212 82.812 226.106 226.106 0 0 1-222.279 185.552v-.091z" fill="#fff"/><path d="M472.475 303.117a233.9 233.9 0 0 0-.213-82.812c-16.191-75.946-48.788-114.193-67.47-140.44-8.841-12.79.243-20.14 7.382-17.437a35.447 35.447 0 0 0 10.055 2.4c10.572-1.428 9.113-8.294 7.139-26.217l-2.461-14.733c-2.217-13.033-8.111-12.76-23.574-12.486-24.545.486-28.981.699-42.226 3.038-17.68 3.919-40.768 21.599-22.601 70.205 11.3 26.034 23.087 34.874 35.846 61.881 13.762 29.953 47.148 97.211 24.546 154.687a161.435 161.435 0 0 1-149.067 105.565c-56.96-.972-116.866-28.464-147.822-105.565-22.571-57.476 10.815-124.734 24.576-154.687 12.759-27.007 24.546-35.847 35.847-61.881 18.227-48.606-4.922-66.287-22.602-70.205-13.245-2.461-17.68-2.674-42.226-3.038-15.463-.274-21.265-.547-23.574 12.486L71.57 38.61c-1.975 17.923-3.433 24.789 7.139 26.217a35.453 35.453 0 0 0 10.055-2.4c7.109-2.704 16.192 4.648 7.352 17.437-18.653 26.247-51.25 64.554-67.471 140.44a234.768 234.768 0 0 0-.213 82.812A225.71 225.71 0 0 0 250.53 488.594a225.713 225.713 0 0 0 222.097-185.477h-.152zM371.163 88.797a5.799 5.799 0 0 1-5.386-3.568 5.81 5.81 0 0 1 1.252-6.338 5.804 5.804 0 0 1 9.906 4.133 5.774 5.774 0 0 1-5.772 5.772zM129.775 77.221a5.802 5.802 0 1 1-5.802 5.803 5.776 5.776 0 0 1 1.69-4.112 5.776 5.776 0 0 1 4.112-1.69zM438.937 234.37a5.77 5.77 0 0 1 5.311 3.584 5.776 5.776 0 0 1-1.271 6.28 5.77 5.77 0 0 1-9.4-6.308 5.773 5.773 0 0 1 5.36-3.556zm-34.388 145.118a5.772 5.772 0 1 1-.002-11.545 5.772 5.772 0 0 1 .002 11.545zm-308.16-11.543a5.77 5.77 0 0 1 4.04 9.863 5.772 5.772 0 1 1-4.04-9.863zM62 234.279a5.774 5.774 0 0 1 5.661 6.898 5.769 5.769 0 0 1-4.535 4.535 5.776 5.776 0 0 1-5.925-2.454 5.772 5.772 0 0 1-.973-3.207 5.773 5.773 0 0 1 5.864-5.681l-.092-.091zm188.165 218.3a5.803 5.803 0 1 1 5.802-5.772 5.802 5.802 0 0 1-5.802 5.863v-.091z" fill="#013369"/><path d="M96.39 379.489a5.772 5.772 0 1 0-.063-11.543 5.772 5.772 0 0 0 .062 11.543zm153.775 61.607a5.81 5.81 0 0 0-5.361 3.582 5.801 5.801 0 1 0 5.361-3.582zm154.384-73.152a5.773 5.773 0 0 0-4.082 9.854 5.771 5.771 0 0 0 8.881-.875 5.773 5.773 0 0 0-4.799-8.979z" fill="#fff"/></g><defs><clipPath id="a"><path fill="#fff" transform="translate(13)" d="M0 0h474.847v500H0z"/></clipPath></defs></svg>