<svg height="500" viewBox="0 0 500 500" width="500" xmlns="http://www.w3.org/2000/svg" xmlns:xlink="http://www.w3.org/1999/xlink"><mask id="a" fill="#fff"><path d="m.34090909 471.658795h494.68181791v-467.99652994h-494.68181791z" fill="#fff" fill-rule="evenodd"/></mask><g fill="none" fill-rule="evenodd" transform="translate(0 14)"><path d="m495.022727 182.669687h-187.715909l-59.795454-179.00742194-59.801137 179.00742194h-187.710227l153.795455 110.22053-59.0397732 179.109783 152.7556822-109.231036 152.767045 109.020626-59.056818-178.893686z" fill="#fff" mask="url(#a)"/><path d="m247.511364 24.9648193-55 164.3867947h-171.7443185l140.8977275 100.968193-54.1875 164.381109 140.0625-100.132241 140.017045 100.132241-54.210227-164.381109 140.903409-100.968193h-171.744318z" fill="#024"/><path d="m247.511364 70.2711325-44.227273 133.1494945h-139.1136365l114.1306815 81.786795-43.892045 133.143807 113.443182-81.098699 112.755682 81.098699-43.892046-133.138121 114.136364-81.792481h-139.119318z" fill="#fff"/><path d="m247.511364 109.430072-34.761364 105.187759h-109.886364l90.153409 64.61282-34.681818 105.187759 89.630682-64.072579 88.715909 64.072579-34.6875-105.182073 90.159091-64.618506h-109.886364z" fill="#024"/></g></svg>