<svg viewBox="0 0 500 500" xmlns="http://www.w3.org/2000/svg" xmlns:xlink="http://www.w3.org/1999/xlink"><clipPath id="a"><path d="m0 0h500v395.124h-500z" transform="translate(0 52)"/></clipPath><g clip-path="url(#a)"><path d="m432.166 151.924c-3.748.91-13.064 1.204-17.027 1.204s-9.566-.588-18.173 3.167c-6.17 2.695-10.319 8.091-12.182 10.936a8.761 8.761 0 0 1 1.605-1.842s6.277-7.245 19.098-6.299a2.552 2.552 0 0 0 -.38 2.465v.043c.058.127.13.247.215.359l.057.093s4.593-1.476 7.84-2.458c7.051-1.749 11.415-2.938 16.174-4.887 6.492-2.666 8.599-3.841 8.355-4.343-.243-.502-1.806.652-5.582 1.562z" fill="#005778"/><path d="m386.396 165.382a8.761 8.761 0 0 0 -1.605 1.842 82.43 82.43 0 0 0 -5.153 9.115c4.3-6.328 17.736-11.674 25.698-14.382a2.007 2.007 0 0 1 -.215-.359v-.043a2.555 2.555 0 0 1 .38-2.465c-12.835-.946-19.105 6.292-19.105 6.292z" fill="#fff"/><path d="m399.245 314.781c-2.723 5.525 4.357 22.602 10.828 27.682-4.737-1.433-29.482-8.456-33.452.717-4.364 10.068 19.822 47.002 22.567 53.903-11.151-11.057-41.714-35.887-46.014-33.05-4.3 2.838-3.261 16.662-2.15 23.691-4.192-5.109-11.394-13.3-17.614-10.849s-5.453 26.185-5.855 36.296c-5.131-11.895-13.508-35.83-21.262-34.97-7.753.86-16.482 17.198-18.108 23.397-1.183-6.234-6.256-19.943-13.931-19.943s-25.512 36.282-30.908 48.084c0-9.122 2.15-53.631-2.673-55.838-4.822-2.207-21.161 7.94-24.665 12.555 1.297-5.847 2.4-25.612-1.949-27.998-4.35-2.386-16.769-3.146-39.213 17.607 3.726-7.961 9.86-16.625 11.351-25.024a197.088 197.088 0 0 0 27.776-3.346 123.059 123.059 0 0 0 128.067 9.797 123.057 123.057 0 0 0 67.03-109.564 124.814 124.814 0 0 0 -.997-15.708c4.558-4.299 8.929-8.449 13-12.325a19.728 19.728 0 0 0 -1.362 8.226c.265 10.377 27.145 12.591 41.427 13.745-15.951 2.15-43.827 13.708-38.532 19.907 5.296 6.199 20.739 14.705 22.932 15.766-7.36 0-31.531 2.501-34.254 9.359-2.723 6.857 35.006 29.846 48.815 35.25-17.162-4.823-58.131-12.892-60.854-7.367zm-20.825-176.859a158.523 158.523 0 0 0 -24.931 7.087 123.082 123.082 0 0 0 -145.573 7.877 123.082 123.082 0 0 0 -35.944 141.285 116.793 116.793 0 0 1 -20.581 12.476c5.016-5.983 9.388-17.485 3.712-20.552-3.877-2.1-21.907-2.931-21.907-2.931s20.302-13.616 19.829-23.512-32.849-14.913-45.648-17.75c11.294-2.379 47.869-10.642 49.446-18.002 1.577-7.359-11.466-12.576-16.905-15.142 6.127.079 21.656 2.681 23.749-4.901 2.393-8.693-35.831-31.33-44.559-34.469 1.949.459 38.367 8.958 51.682 6.077 9.91-2.15-1.641-15.486-3.547-17.063 2.923 1.434 19.62 4.866 24.364-3.06 4.744-7.925-11.401-39.478-20.452-52.871 8.062 8.04 44.881 34.232 50.371 29.775 5.489-4.457 1.297-18.854-1.649-23.605 5.934 5.554 11.774 12.978 19.313 12.82 3.777-.079 8.528-12.562 9.316-40.775 5.059 15.83 17.242 37.328 26.228 35.988s12.025-14.604 13.264-20.273c1.032 6.084 5.733 21.721 11.717 22.294 7.338 1.147 21.376-31.53 26.515-46.264.773 7.288-4.572 44.716 3.339 47.826s20.975-12.641 28.392-21.498c-4.5 8.542-13.293 29.202-8.055 34.146 5.239 4.945 23.347-.236 30.406-6.055-2.007 4.357-2.429 7.818-1.892 11.072z" fill="#fc4c02"/><path d="m474.998 137.363c-9.381.931-28.185 7.703-28.185 7.703-34.332-8.921-75.079-9.925-125.069 20.495a303.521 303.521 0 0 0 -25.748 17.55c-7.883 5.991-15.128 12.089-21.886 18.209-2.923 2.637-6.671 6.02-9.882 9.266-16.224 5.41-23.426.351-45.719 3.282-17.643 2.322-24.494 8.341-28.378 13.071-.502 1.362-.451 2.558.466 3.289 2.107 1.691 5.36.846 11.537.387 6.177-.458 15.522-.301 21.692 3.583 3.977 2.473 5.783 8.449 6.449 11.753-4.622 4.901-9.158 9.652-13.737 14.174-28.184 27.833-47.124 44.444-68.314 52.743-46.021 18.015-71.948-3.146-82.332-9.388-12.598-8.083-29.309-10.749-38.274-12.44a32.039 32.039 0 0 1 -15.765-7.647c-1.914-1.626-3.383-4.364-5.561-3.747-.512.106-.99.331-1.397.659a3.37 3.37 0 0 1 1.397-.652c.337 3.891 13.393 36.353 54.864 42.28 11.852 1.684 15.622 1.153 17.836.989-6.973-6.127-12.72-14.677-13.207-15.178 1.586 1.376 3.17 2.69 4.751 3.941a66.586 66.586 0 0 0 38.217 20.596c.774.243 12.433.716 12.433.716 13.616-.286 31.86-4.299 48.808-9.201 49.754-14.44 97.753-57.558 97.753-57.558s-2.666 11.623-3.705 15.765a160.393 160.393 0 0 1 -7.718 25.547s-1.376 3.44-3.375 7.647c-2.952 6.22-7.102 14.052-7.102 17.327a2.806 2.806 0 0 0 0 .43c.035.277.095.551.18.817a88.095 88.095 0 0 0 14.611-10.305c9.058-7.553 20.538-19.047 33.824-35.436 29.854-36.827 34.598-62.037 55.588-81.651 8.886-8.312 32.247-21.154 44.207-25.325l.265-.129a471.06 471.06 0 0 1 43.205-21.756c11.824-4.758 53.409-18.567 57.787-11.702-1.777-7.89-11.258-11.036-20.516-10.104zm-45.591 17.342c-4.758 1.949-9.123 3.138-16.174 4.887-3.246.982-7.84 2.458-7.84 2.458l-.057-.093c-7.954 2.709-21.405 8.047-25.69 14.368a80.559 80.559 0 0 1 5.145-9.101c1.856-2.867 6.005-8.241 12.182-10.936 8.599-3.755 14.211-3.167 18.173-3.167 3.963 0 13.251-.287 17.027-1.197 3.777-.91 5.382-2.071 5.597-1.562s-1.871 1.677-8.363 4.343z" fill="#008e97"/><path d="m264.042 282.031a160.393 160.393 0 0 1 -7.718 25.547c-16.26 8.6-42.28 19.686-65.763 25.196-46.3 10.857-75.961 1.434-81.034-.222l-.717-.229c1.132.244 12.383.717 12.383.717a190.187 190.187 0 0 0 68.744-11.731c28.364-10.348 56.261-27.267 74.105-39.278z" fill="#fff"/><path d="m267.747 266.295s-2.666 11.623-3.705 15.765c-17.843 12.011-45.741 28.93-74.112 39.292a190.187 190.187 0 0 1 -68.744 11.731c13.616-.287 31.861-4.3 48.808-9.201 49.755-14.469 97.753-57.587 97.753-57.587z" fill="#005778"/><path d="m385.78 245.965c-3.533 10.892-8.958 25.798-15.601 38.381-7.883 14.97-18.302 25.311-23.784 29.281-.91-.552-1.254-1.713-1.283-2.909-.043-2.15 4.644-13.143 6.45-36.311a418.07 418.07 0 0 0 15.937-12.591c6.012-4.973 12.19-10.355 18.281-15.851z" fill="#008e97"/><path d="m112.214 297.883a18.618 18.618 0 0 1 -.595 4.493 30.584 30.584 0 0 1 -4.299 9.015 54.563 54.563 0 0 1 -3.583 4.522 26.322 26.322 0 0 1 -3.519-.05 47.383 47.383 0 0 1 -3.626-.524c-.394-.537 18.682-13.465 13.515-19.756.265-.072 2.021-.466 2.107 2.3zm380.907-142.125a21.455 21.455 0 0 1 -3.333 3.376 105.485 105.485 0 0 1 -14.074 10.003c-6.865 4.221-25.998 17.199-40.689 30.743-.544.502-39.822 37.572-40.804 38.482-.107.344-5.202 19.348-17.37 44-8.528 17.292-21.255 28.098-25.798 30.57-.287.151-2.91 1.813-4.665.717 5.482-3.97 15.887-14.332 23.784-29.281 6.643-12.598 12.068-27.489 15.601-38.381-6.113 5.496-12.269 10.878-18.245 15.851a429.524 429.524 0 0 1 -15.938 12.591s-12.727 9.359-19.921 14.146c-4.028 2.673-22.481 14.174-33.681 20.28-9.502 5.188-29.381 14.619-29.46 14.647-10.362 8.75-18.481 12.835-20.653 12.29-1.333-.329-1.791-1.899-1.82-1.978a88.085 88.085 0 0 0 14.612-10.305c9.058-7.553 20.538-19.047 33.824-35.436 29.854-36.826 34.598-62.037 55.587-81.65 8.886-8.313 32.248-21.155 44.208-25.325l.265-.129c-13.687 7.811-27.561 16.818-36.612 25.454-17.535 16.388-23.533 35.529-40.904 61.678l-.437.681c58.526-44.387 103.751-95.789 150.488-112.214 1.491-.523 2.867-1.01 4.257-1.433l.165-.057c15.916-5.382 22.351-6.221 22.817-3.225.229 1.275-.817 3.196-1.204 3.905z" fill="#005778"/><path d="m96.57 315.311c-11.802-2.272-25.619-10.305-29.904-12.742 1.47-1.433 5.088-4.013 11.946-3.583 9.416.581 19.821 1.347 24.694-.114 4.185-1.254 4.981-3.082 6.772-3.318 5.181 6.292-13.902 19.219-13.508 19.757z" fill="#008e97"/><path d="m218.509 213.868c22.294-2.931 29.495 2.15 45.719-3.282 3.211-3.246 6.959-6.629 9.875-9.266a85.165 85.165 0 0 1 -11.465 2.946c-7.596 1.497-13.114 1.11-28.873 3.181-24.758 3.254-36.339 11.015-39.585 14.01a18.716 18.716 0 0 0 -2.759 3.124 12.132 12.132 0 0 0 -1.283 2.365c3.87-4.729 10.721-10.756 28.371-13.078zm34.44 101.357c-2.953 6.22-7.102 14.053-7.102 17.328a2.573 2.573 0 0 0 0 .43c-37.751 14.748-68.536 14.052-68.651 14.06-51.904 2.436-92.75-18.675-92.75-18.675h-.832c-4.873 0-28.98-.373-44.81-7.725-17.313-8.033-27.274-20.624-31.61-30.098-3.224-7.051-3.382-9.316-2.357-10.233.09-.08.185-.151.287-.215a4.422 4.422 0 0 1 1.103-.43c.337 3.891 13.394 36.354 54.864 42.28 11.853 1.684 15.622 1.154 17.836.989-6.972-6.127-12.72-14.676-13.207-15.178 1.586 1.376 3.17 2.69 4.751 3.941a66.584 66.584 0 0 0 38.282 20.581h.1l.666.215c5.081 1.663 34.734 11.079 81.035.223 23.512-5.511 49.503-16.568 65.763-25.196.007.064-1.369 3.497-3.368 7.703z" fill="#005778"/><path d="m499.978 148.728a12.314 12.314 0 0 0 -.437-2.981c-2.271-7.94-10.376-12.842-21.412-12.842-1.168 0-2.365.065-3.583.179-8.456.839-23.49 5.934-27.948 7.496a161.963 161.963 0 0 0 -40.13-5.267c-6.699.015-13.389.494-20.022 1.433l-2.737.366s-1.068-3.469 1.719-11.574a69.983 69.983 0 0 1 3.433-8.069s-30.52 15.866-34.333 10.8c-3.812-5.067 13.293-45.369 13.293-45.369s-29.424 32.692-35.207 31.244c-2.264-.566-2.486-12.411-2.594-25.153-.158-17.256.444-36.991.444-36.991s-24.228 60.238-30.14 59.923c-5.124-.272-12.584-32.427-12.584-32.427s-4.679 27.712-13.092 31.101c-8.413 3.39-30.041-48.435-30.041-48.435s-.996 51.868-7.015 53.029c-6.02 1.161-25.175-18.217-25.175-18.217s8.979 25.834 5.941 29.238c-1.813 2.028-20.244-9.359-39.414-23.111a25619.9 25619.9 0 0 1 -20.337-14.604s10.807 17.915 19.392 36.705c5.919 12.899 9.502 25.303 7.954 27.718-3.791 5.912-32.247-2.515-32.247-2.515s16.173 15.579 15.127 19.592c-.509 1.942-16.589.537-32.964-1.698-17.335-2.365-34.97-5.64-34.97-5.64s57.73 33.566 55.895 39.614c-1.433 4.78-37.364.86-37.364.86s31.244 14.275 31.115 18.99-61.083 20.158-61.083 20.158 55.264 11.559 56.325 17.729-21.799 25.941-21.799 25.941 26.607 2.401 27.947 5.884c1.341 3.483-6.449 17.249-13.221 19.427-8.356 2.702-15.959 4.414-25.217 4.414-1.333 0-2.638-.035-3.913-.107.458-.588.91-1.204 1.304-1.784a34.807 34.807 0 0 0 4.902-10.305v-.072c.462-1.806.703-3.661.716-5.525v-.158a7.16 7.16 0 0 0 -1.942-4.98c-2.257-1.971-4.371-1.734-5.883-1.068l-5.253 2.58a11.17 11.17 0 0 1 -1.361.494c-1.011.301-3.125.66-7.518.66-4.163 0-9.115-.308-13.909-.602 0 0-2.938-.165-3.511-.165-5.733 0-9.531 1.813-11.825 3.483l-1.254-.66c-11.687-6.213-25.296-8.721-33.788-10.29-.659-.122-1.29-.229-1.884-.351a28.328 28.328 0 0 1 -14.942-7.883 13.917 13.917 0 0 0 -3.181-2.752 7.69 7.69 0 0 0 -6.056-.408 6.449 6.449 0 0 0 -3.36 2.673c-2.022 3.361-.094 8.298 2.45 13.859 2.902 6.328 11.982 22.122 33.68 32.204 7.117 3.304 16.483 5.662 27.827 6.995 6.185.72 12.405 1.098 18.632 1.132a178.31 178.31 0 0 0 23.949 9.266c13.902 4.342 35.622 9.509 60.517 9.624 0 0 8.829.114 13.616-.194.473 1.992-2.974 9.094-7.116 17.428-4.909 9.875-11.208 21.556-11.208 21.556s11.387-10.033 21.993-17.521c10.606-7.489 22.652-13.544 25.475-10.033 5.346 6.571-.358 33.681-.358 33.681s21.584-19.098 26.586-16.482c2.294 1.189 2.523 15.457 2.53 30.484 0 17.808-.451 36.726-.451 36.726s29.725-60.145 35.909-58.425 12.956 29.138 12.956 29.138 11.287-33.409 18.188-32.599c2.759-.337 8.685 10.498 13.959 21.577 5.769 12.14 10.749 24.007 10.749 24.007s.122-12.405.989-25.082c.781-11.465 2.236-22.63 4.751-23.254 5.303-1.304 20.689 19.349 20.689 19.349s-5.439-28.736-1.175-31.173c4.264-2.436 55.458 41.836 55.458 41.836s-33.637-62.359-29.546-67.111c4.092-4.751 39.973 4.945 39.973 4.945a142.804 142.804 0 0 1 -9.925-13.451c-4.78-7.46-8.764-15.765-6.894-17.8 1.698-1.821 20.409.079 39.736 3.826 22.287 4.3 36.791 7.403 36.791 7.403s-13.129-7.102-32.491-18.747c-16.762-10.089-31.531-21.441-30.872-23.282 1.355-3.963 41.384-7.775 41.384-7.775s-6.721-3.949-13.938-8.363c-7.839-4.794-16.202-10.749-16.202-12.942 0-1.914 10.032-6.643 23.275-10.749 15.873-4.88 30.549-8.155 30.549-8.155s-54.57-4.379-57.981-12.183c-2.321-5.317 1.95-12.247 5.081-16.718a59.7 59.7 0 0 1 7.625-8.542c14.905-13.766 33.881-26.443 39.944-30.169l1.254-.782s14.002-10.333 15.443-11.544c1.254-1.054 4.45-4.414 5.174-8.685.168-.992.224-1.999.164-3.003zm-344.875 137.367c-3.877-2.1-21.907-2.931-21.907-2.931s20.302-13.616 19.829-23.512-32.85-14.913-45.648-17.75c11.293-2.38 47.869-10.642 49.446-18.002 1.576-7.359-11.466-12.576-16.905-15.142 6.127.079 21.656 2.68 23.748-4.901 2.394-8.693-35.83-31.33-44.558-34.469 1.949.458 38.367 8.957 51.681 6.077 9.911-2.15-1.641-15.486-3.547-17.063 2.924 1.433 19.621 4.866 24.365-3.06 4.744-7.925-11.401-39.478-20.452-52.871 8.062 8.04 44.881 34.232 50.37 29.775 5.49-4.457 1.298-18.854-1.648-23.605 5.934 5.554 11.774 12.978 19.313 12.82 3.776-.079 8.528-12.562 9.316-40.775 5.059 15.83 17.241 37.328 26.228 35.988 8.986-1.34 12.024-14.604 13.264-20.273 1.032 6.084 5.733 21.721 11.717 22.294 7.338 1.146 21.376-31.531 26.514-46.264.774 7.288-4.572 44.716 3.34 47.826 7.911 3.11 20.975-12.641 28.392-21.498-4.501 8.542-13.293 29.202-8.055 34.146 5.238 4.945 23.347-.236 30.406-6.055-1.978 4.3-2.401 7.789-1.863 11.043a158.63 158.63 0 0 0 -24.931 7.087 123.084 123.084 0 0 0 -181.517 149.162 116.811 116.811 0 0 1 -20.581 12.477c4.994-5.956 9.358-17.457 3.683-20.524zm-76.491 12.899c9.416.58 19.821 1.347 24.694-.115 4.185-1.254 4.981-3.081 6.772-3.318.287-.043 2.043-.437 2.15 2.308a18.618 18.618 0 0 1 -.595 4.493 30.584 30.584 0 0 1 -4.299 9.015 54.563 54.563 0 0 1 -3.583 4.522 26.156 26.156 0 0 1 -3.519-.051 46.979 46.979 0 0 1 -3.626-.523c-11.802-2.271-25.619-10.305-29.904-12.741 1.433-1.44 5.052-3.984 11.91-3.597zm382.541-57.121c-15.952 2.15-43.828 13.709-38.533 19.907 5.296 6.199 20.739 14.705 22.932 15.766-7.36 0-31.531 2.501-34.254 9.359s35.006 29.846 48.815 35.25c-17.198-4.838-58.145-12.899-60.868-7.381-2.723 5.517 4.357 22.601 10.828 27.682-4.737-1.433-29.482-8.456-33.452.717-4.364 10.068 19.822 47.002 22.566 53.903-11.15-11.05-41.714-35.881-46.013-33.043-4.3 2.838-3.261 16.661-2.15 23.691-4.192-5.109-11.394-13.3-17.614-10.849s-5.454 26.185-5.855 36.296c-5.131-11.896-13.508-35.83-21.262-34.97s-16.482 17.198-18.109 23.397c-1.182-6.235-6.256-19.943-13.93-19.943-7.675 0-25.512 36.282-30.908 48.084 0-9.122 2.15-53.631-2.673-55.838s-21.161 7.94-24.665 12.555c1.297-5.848 2.4-25.612-1.95-27.998-4.349-2.386-16.768-3.146-39.213 17.607 3.727-7.961 9.861-16.625 11.352-25.024a197.203 197.203 0 0 0 27.775-3.346 123.062 123.062 0 0 0 128.068 9.797 123.05 123.05 0 0 0 67.029-109.564 124.614 124.614 0 0 0 -.996-15.708c4.558-4.3 8.929-8.449 13-12.326a19.735 19.735 0 0 0 -1.362 8.227c.279 10.377 27.16 12.591 41.442 13.745zm34.397-94.378c-4.379-6.865-45.964 6.944-57.788 11.703a471.868 471.868 0 0 0 -43.226 21.763c-13.687 7.811-27.56 16.819-36.611 25.454-17.536 16.389-23.534 35.529-40.904 61.679l-.437.68c58.525-44.386 103.75-95.789 150.488-112.214 1.49-.523 2.866-1.01 4.256-1.433l.165-.057c15.916-5.382 22.351-6.22 22.817-3.225.208 1.304-.838 3.246-1.233 3.963a21.4 21.4 0 0 1 -3.332 3.375 105.398 105.398 0 0 1 -14.031 9.954c-6.865 4.221-25.999 17.199-40.689 30.743-.545.501-39.822 37.571-40.804 38.481-.107.344-5.202 19.349-17.37 44-8.528 17.292-21.255 28.099-25.798 30.571-.287.15-2.91 1.813-4.665.716-.911-.551-1.255-1.712-1.283-2.909-.043-2.15 4.643-13.143 6.449-36.311 0 0-12.727 9.359-19.929 14.153-4.027 2.673-22.48 14.175-33.68 20.281-9.503 5.188-29.381 14.618-29.467 14.647-10.362 8.75-18.482 12.834-20.653 12.29-1.333-.33-1.791-1.899-1.82-1.978a4.48 4.48 0 0 1 -.179-.817c-37.751 14.748-68.537 14.053-68.652 14.06-51.882 2.415-92.729-18.696-92.729-18.704h-.831c-4.873 0-28.98-.372-44.81-7.725-17.313-8.033-27.274-20.624-31.61-30.097-3.224-7.052-3.382-9.316-2.357-10.233a3.29 3.29 0 0 1 1.397-.66c2.15-.616 3.648 2.15 5.561 3.748a32.037 32.037 0 0 0 15.766 7.646c8.965 1.684 25.676 4.357 38.281 12.426 10.384 6.242 36.311 27.404 82.331 9.388 21.212-8.298 40.13-24.909 68.329-52.771 4.579-4.522 9.115-9.273 13.737-14.175-.659-3.303-2.465-9.28-6.449-11.752-6.17-3.855-15.522-4.006-21.692-3.583s-9.43 1.304-11.537-.387a2.377 2.377 0 0 1 -.717-2.458 8.095 8.095 0 0 1 1.104-2.573c.129-.207.258-.415.401-.616a18.338 18.338 0 0 1 2.759-3.117c3.246-3.003 14.827-10.749 39.585-14.024 15.766-2.064 21.277-1.677 28.873-3.175a85.614 85.614 0 0 0 11.465-2.945c6.758-6.12 14.003-12.218 21.886-18.209a303.521 303.521 0 0 1 25.748-17.55c49.99-30.42 90.737-29.417 125.077-20.502 0 0 18.803-6.772 28.184-7.704 9.33-.881 18.811 2.265 20.638 10.176z" fill="#fff"/></g></svg>