<svg viewBox="0 0 500 500" xmlns="http://www.w3.org/2000/svg" xmlns:xlink="http://www.w3.org/1999/xlink"><clipPath id="a"><path d="m0 0h500v474.513h-500z" transform="translate(0 13)"/></clipPath><g clip-path="url(#a)"><path d="m469.028 114.755c-67.363-42.521-221.641-75.042-336.688-101.755l-132.34 141.954 113.563-2.452c-56.523 91.366-45.167 306.233 98.013 334.753-7.356-14.131-20.132-40.005-3.549-72.139 11.743-22.841 77.429-148.406 77.429-148.406h15.744c21.229 0 28.262 8.001 18.841 19.358 56.653-.71 91.496-22.132 107.111-45.168-11.937-21.809-49.749-47.425-65.105-57.749h79.365c22.712 0 27.874 9.485 22.519 19.874 37.037-6.905 56.007-56.137 5.097-88.27z" fill="#a6aeb0"/><path d="m459.995 119.078c-91.754-51.62-318.88-85.688-318.88-85.688l-97.56 104.207h100.851c-74.461 98.4-58.072 296.812 51.62 338.366a73.555 73.555 0 0 1 2.322-67.17c15.809-30.778 40.909-82.462 76.978-151.503h29.359c24.454 0 32.262 10.259 28.907 18.26 20.067 0 56.781-2 83.43-34.262-22.197-31.037-95.561-67.106-95.561-67.106h125.823c18.454 0 27.745 6.453 25.164 17.68 32.327-15.68 24.003-52.33-12.453-72.784z" fill="#fff"/><path d="m311.072 177.537 2.323 6.905c-5.484 10.646-25.1 49.554-31.875 63.104h50.91a23.352 23.352 0 0 0 18.906 18.712 13.809 13.809 0 0 1 .774-18.712h24.067c6.453 0 4.582 8.066-6.452 16.39a63.432 63.432 0 0 0 38.005-22.648c-15.744-24.068-96.658-63.751-96.658-63.751z"/><path d="m456.51 126.047c-77.429-42.328-321.525-78.14-321.525-78.14l8.84 11.228-56.653 61.04 199.252 15.228-1.097 2.194h-134.146l10.388 9.743a227.846 227.846 0 0 0 -21.745 38.263l111.886-22.906-1.807 2.71-133.243 44.457 11.679 6.453a287.345 287.345 0 0 0 -10.776 56.2l113.112-68.589-.968 3.162-124.79 98.528 11.549 2.904a271.026 271.026 0 0 0 8.84 61.492l101.691-119.822c.125.959.319 1.908.581 2.839l-100.723 147.761 9.485.645a136.663 136.663 0 0 0 49.361 61.234 70.534 70.534 0 0 1 3.936-59.298c8.195-16.776 114.918-229.32 114.918-229.32l-17.808-9.55h165.827c17.035 0 26.455 7.098 26.262 16.712 10.453-8.904 12.84-35.746-22.326-55.168z"/><path d="m422.377 122.692a105.545 105.545 0 0 1 34.779 21.809h-13.551a125.708 125.708 0 0 0 -21.228-21.809zm42.521 18.389 2.13 9.421c-14.518 2.71-40.199 4.903-47.426 5.484l-1.097 2.194h38.005c15.164 0 21.616 7.162 22.906 11.292a25.807 25.807 0 0 0 -14.518-28.391z" fill="#fff"/><path d="m403.149 133.209-264.55-36.585 16.131-17.486c89.108 13.743 195.573 35.488 249.645 51.232-.258.968-.71 1.871-1.226 2.839zm-39.876 103.239-57.75-8.646-5.871 11.356h62.266zm-229.062 93.883 73.558-82.01v-3.549l-75.816 64.524c.387 7.163 1.225 14.196 2.258 21.1zm88.398-31.617-1.548-2.903-66.202 99.819a144.639 144.639 0 0 0 11.292 18.389zm-50.587-146.599a189.873 189.873 0 0 0 -10.001 15.357l79.688-14.26 2.129-2.71zm-36.392 88.269 81.43-44.522c.452-1.097.904-2.193 1.42-3.29l-78.139 28.197c-2.065 6.517-3.485 13.034-4.711 19.68z" fill="#a30d2d"/></g></svg>