<svg viewBox="0 0 500 500" xmlns="http://www.w3.org/2000/svg"><g clip-path="url(#a)"><path d="M499.918 360.977V59.285h-83.84v184.349a20.452 20.452 0 0 1-10.182 15.027 22.098 22.098 0 0 1-10.922 2.874 20.53 20.53 0 0 1-21.185-19.708V59.449H257.924v68.402h21.35c2.744 0 5.376 1.09 7.316 3.031a10.344 10.344 0 0 1 3.031 7.316v133.766a65.683 65.683 0 0 0 31.121 51.65c16.423 13.221 57.481 19.297 79.242 11.578a80.42 80.42 0 0 0 15.848-6.979v16.915a25.784 25.784 0 0 1-1.478 9.772 18.801 18.801 0 0 1-18.558 9.361H38.266v79.57h387.502a154.156 154.156 0 0 0 32.271-4.598C470.767 435.291 500 421.66 500 378.385c0-.821 0-16.751-.082-17.408z" fill="#A71930"/><path d="m326.408 313.432.739.41.739.493c13.796 11.004 50.173 16.423 68.238 9.772a65.654 65.654 0 0 0 12.892-5.584L427 306.452v38.594a37.31 37.31 0 0 1-2.053 13.549v1.068c-3.285 7.062-10.922 15.602-29.069 16.423H50.172v56.413h375.514a140.32 140.32 0 0 0 29.233-4.024c12.645-3.941 33.831-15.52 33.831-49.844V71.191h-60.847v174.003a32.273 32.273 0 0 1-15.931 23.567 33.747 33.747 0 0 1-40.482-5.337 30.465 30.465 0 0 1-8.951-21.351V70.863h-93.037v45.328h9.772a22.003 22.003 0 0 1 21.925 21.924v133.274a53.947 53.947 0 0 0 25.209 42.043z" fill="#0B2265"/><path d="M253.818 266.544a10.345 10.345 0 0 1-10.346-10.347V112.249a56.664 56.664 0 0 0-9.361-26.77 63.64 63.64 0 0 0-39.252-26.605 89.586 89.586 0 0 0-74.889 13.467V59.45H0v68.566h27.92a10.428 10.428 0 0 1 10.428 10.429v194.613h81.705V149.119a20.608 20.608 0 0 1 20.34-18.989 20.61 20.61 0 0 1 20.717 18.578v148.301a35.985 35.985 0 0 0 2.217 12.317 35.226 35.226 0 0 0 32.846 22.992h76.614v-65.692h-18.969v-.082z" fill="#A71930"/><path d="M231.894 256.525V112.823l-.822-5.666a42.609 42.609 0 0 0-6.487-15.19 51.978 51.978 0 0 0-32.846-21.925 77.434 77.434 0 0 0-65.035 11.495l-18.558 14.124V71.027H11.578V116.6h16.423a21.913 21.913 0 0 1 15.576 6.247 21.923 21.923 0 0 1 6.595 15.431v183.035h58.631V148.872a32.192 32.192 0 0 1 54.193-22.059 32.19 32.19 0 0 1 10.103 21.648v148.301c.003 2.81.532 5.595 1.56 8.211a23.9 23.9 0 0 0 22.253 15.52h65.118v-42.7h-8.212a22.005 22.005 0 0 1-21.924-21.268z" fill="#0B2265"/></g><defs><clipPath id="a"><path fill="#fff" transform="translate(0 56)" d="M0 0h500v387.666H0z"/></clipPath></defs></svg>