<svg viewBox="0 0 500 500" xmlns="http://www.w3.org/2000/svg"><g fill="none" fill-rule="evenodd"><path d="M162.186 248.776c1.191.928 5.72 3.712 6.648 4.641 0 0 3.047-1.996 5.443-2.522 0 0-5.18 3.712-6.37 5.72 0 0 2.257-1.19 3.85-1.19 0 0 4.113 2.52 6.759 2.52 2.659 0 7.7-.803 7.7-.803s2.923-1.98 6.122-2.258c0 0-3.338 2.258-4.127 3.324 0 0 1.33-.138 2.133.403.79.525 3.449 1.051 5.845.123 2.382-.927 4.764-1.854 4.64-4.778-.139-2.922-1.856-6.371-1.856-6.371s3.13-2.618 4.861-3.435c-.415.055-3.809.568-5.928 1.44 0 0-2.645-5.318-5.443-7.036-2.798-1.717-5.582-1.994-8.629-.664-3.06 1.33-7.59 2.617-7.59 2.617s-4.183 2.009-4.737 2.812c.083-.194.845-1.773 1.967-2.645 0 0-3.837.013-6.648.138-2.784.125-5.831.402-6.233 3.047-.388 2.66.402 3.99 1.593 4.917m39.681 32.52c-2.908-3.019-5.748-4.016-7.451-2.34 0 0-.859-3.213-2.826-4.086-1.98-.872-3.324-.706-3.324-.706s-7.7 1.537-10.872 3.492c.623-.404 5.72-3.7 7.534-4.863l-4.28.983s-4.5.014-8.684-.319c-4.169-.318-13.809-1.315-15.595-.969 0 0 1.205-.831 1.925-1.26-.194 0-3.352.027-5.443 1.717 0 0-6.413.665-7.646 4.986-1.246 4.335 1.94 7.41 2.867 8.089 0 0 1.288-2.022 3.892-3.297 0 0-1.482 2.397-1.426 4.391 0 0 5.47 2.895 16.385 4.404 10.928 1.51 10.138.707 13.975 3.09 0 0 4.058-2.868 6.302-3.547 0 0-3.158 4.488-3.449 6.164 0 0 5.07 4.323 9.252 4.64 4.197.332 7.784-1.288 7.34-5.61l1.51-1.856-2.673.194.776-1.454s-.125-2.202-1.344-3.906c.208.11 2.3 1.247 4.28.706l-.581 1.095s2.285-.264 3.975-3.158l-1.385-.374s-.111-3.186-3.034-6.205m175.36 94.875a78.392 78.392 0 0 1-10.983 15.734c-7.328 8.13-16.343 14.57-26.219 19.21-10.263 4.82-21.968 8.325-33.38 8.768 2.037-2.174 4.073-4.335 6.081-6.494-11.233 1.951-22.882 2.27-34.127.054 1.37-1.011 3.227-2.549 3.435-4.35-.776-.069-1.607-.443-2.327-.692-1.926-.679-3.795-1.496-5.625-2.396-6.745-3.296-12.963-7.673-18.641-12.576-9.945-8.587-18.324-18.92-25.36-30-4.252-6.69-7.687-13.878-12.397-20.263-4.044-5.471-8.74-10.444-13.905-14.848-8.075-6.925-17.3-12.424-27.009-16.69-15.678-6.87-31.232-14.293-45.955-23.06-4.142-2.466-8.2-5.07-12.175-7.812-8.435-5.872-16.662-12.45-23.656-19.987-.083-.081-.25-.263-.471-.512.194-.166 1.676-1.44 2.437-2.064a61.55 61.55 0 0 1 4.086-2.978c1.316-.9 4.363-2.52 4.363-2.52.014 0 .028-.014.042-.028v.042a7.819 7.819 0 0 0-.014 1.412s1.523-1.662 2.936-2.437c0 0-2.299 3.587-2.562 6.274 0 0-.513 4.474 3.712 6.773 4.21 2.299 10.498 4.1 12.285 5.498 0 0 3.2-2.299 4.986-3.06 0 0-4.224 4.085-5.374 7.922 0 0 2.563-2.424 3.975-2.936 0 0 3.962 2.936 6.385 2.673 2.424-.25 5.887-.125 7.286-3.324 1.412-3.186 1.15-3.698 1.8-4.723 0 0-2.313 1.412-3.975 2.936 0 0 .776-3.186 3.975-5.623 3.186-2.424 4.737-2.812 4.737-2.812s7.549-9.986-1.274-14.848c0 0 4.335-2.174 6.773-3.698 0 0-7.05 1.787-9.35 2.549 0 0-5.235-1.025-8.046-1.025-2.826 0-7.674-.374-9.848-1.025-2.175-.637-4.35-1.399-4.35-1.399s1.275-.762 2.3-1.025c0 0-4.958-.374-7.895 4.28-.014 0-.027 0-.041-.014.014-.374.18-2.175 1.537-3.878 0 0-2.604 1.191-4.072 2.84-.014 0-.041-.015-.041-.015-.97-.36-1.953-.664-2.937-.97a79.894 79.894 0 0 0-4.75-1.26 76.888 76.888 0 0 0-3.2-.706c8.31-5.499 17.507-9.598 26.967-12.798 3.158-1.066 9.861-2.978 9.861-2.978 1.344 1.275 2.701 2.244 2.701 2.244s4.502-1.08 6.662-1.925c0 0-4.515 3.172-8.033 4.695 0 0 5.36-.18 7.202-.512l-.83 1.856s2.34 1.828 7.852.997c5.513-.831 9.03-2.008 9.03-4.861 0-2.84-.678-4.183.167-7.023 0 0-2.008.333-3.518 0 0 0 3.186-1.842 4.35-3.836 0 0-.292-1.8-1.164-3.587l-.014-.014a286.14 286.14 0 0 1 13.282-1.122 20.371 20.371 0 0 0-1.786-1.842c-4.446-4.1-10.665-6.732-16.247-8.518 11.108-1.482 22.34-1.926 33.518-2.313a740.135 740.135 0 0 1 19.183-.457c-1.343-1.122-3.2-1.773-4.806-2.41 3.753-.43 7.673-.07 11.426.207-3.199-1.606-6.828-2.52-10.249-3.531a268.665 268.665 0 0 0-7.257-2.023c.041 0 .166.014.29.014.111.014.222.028.277.028.014.014.042.014.056.014 8.809 1.163 18.158 2.645 28.393 4.473 65.623 11.704 108.92 29.419 127.784 38.297 4.985 2.257 8.38 3.975 10.11 4.875 1.565.457 3.74.707 4.835-.886a3.93 3.93 0 0 0 .47-.887l.014-.027c.194.027.347.041.456.027 4.115-.249 8.132-.65 12.12-1.745a57.561 57.561 0 0 0 3.339-1.025c2.257-.775 4.446-1.69 6.606-2.687-.11 0-3.656-4.598-4.072-5.055-3.185-3.574-6.759-6.828-10.692-9.598.526-.153 1.094-.319 1.662-.458a6.72 6.72 0 0 1 1.731-.207c-3.158-3.13-7.064-5.624-10.776-7.95-1.37-.887-2.783-1.718-4.182-2.535-.403-.236-.804-.485-1.205-.72-.277-.166-.568-.347-.86-.513a167.03 167.03 0 0 0-4.86-2.714c10.027 3.407 19.972 7.313 29.721 11.51.75.318 1.483.636 2.217.955 8.145 3.532 16.4 7.327 23.74 12.313a35.16 35.16 0 0 1 4.557 3.629c.055.055.097.083.152.138 2.881 2.175 4.876 5.444 6.148 8.781.611 1.621 1.068 3.325 1.29 5.042.083.582.305 6.33-.083 6.316a59.553 59.553 0 0 0-1.58-.056c-4.182-.055-8.365.388-12.465 1.192-7.326 1.454-14.155 4.224-21.121 6.814-5.042 1.884-9.848 4.377-14.974 6.094-7.256 2.438-14.916 3.615-22.589 3.033-7.922-.595-15.665-2.853-22.34-7.202-5.056-3.296-9.405-7.562-13.09-12.299a68.714 68.714 0 0 1-6.897-10.845c10.07 3.629 17.99 6.898 23.698 9.432 5.042 2.147 8.477 3.781 10.22 4.64 1.566.43 3.754.623 4.822-.983 2.216-3.352-1.842-6.025-1.842-6.025s-49.848-24.335-141.219-34.377a632.126 632.126 0 0 0-29.848-2.576 627.01 627.01 0 0 1 29.266 3.864 643.674 643.674 0 0 1 44.17 8.435c-1.469.194-2.91.471-4.336.845a30.119 30.119 0 0 0-7.84 3.338c-4.556 2.77-8.24 6.787-11.038 11.288-5.65 9.086-8.324 20.319-8.712 30.928-.47 13.213 2.867 26.316 7.16 38.698 5.098 14.681 11.677 28.823 19.848 42.05 4.059 6.579 8.49 12.936 13.49 18.809 5.305 6.205 11.372 12.244 18.685 16.01 7.782 4.004 16.413 3.976 24.848 2.702 5.941-.9 11.703-3.269 17.354-5.208 13.283-4.543 27.189-9.432 41.454-7.895 4.71.513 9.723 1.482 13.962 3.698.65.305.568.333.207 1.025m103.879-179.958s-8.117-17.812-31.22-32.992c5.79-7.424 8.034-16.343 5.36-23.393-2.77-7.327-22.215-20.707-29.542-24.502-7.327-3.78-17.44-9.349-17.44-9.349s-25.981-15.762-46.398-24.667c-24.61-10.72-68.946-25-117.16-14.82 0 0-28.933-9.488-81.246 6.676-18.296 5.027-49.363 13.282-66.787 16.19-25.817 4.308-52.008 4.751-72.299 6.898-10.692 1.136-17.811-1.232-21.288 4.793-15.277 26.468 30.277 71.26 46.787 78.337-4.89 27.521 1.316 60.084 30.208 92.618 31.412 35.402 74.875 42.12 100.36 60.942 28.6 21.122 34.529 47.798 58.42 72.756 21.981 22.964 64.944 42.549 103.434 23.795 41.747-20.346 49.323-54.307 50.833-60.678.498-3.255-1.385-6.552-5.582-8.574a109.84 109.84 0 0 1-3.947-1.994c1.662-6.648 5.9-26.648 1.717-44.086 0 0-11.8 17.271-20.72 26.828-2.493-2.34-13.948-13.933-12.05-27.672 5.235-2.077 11.316-4.918 15.956-8.408a99.085 99.085 0 0 0 7.188-5.997c23.49-6.732 28.766-16.44 28.766-16.44.874 2.381 3.838 5.428 3.838 5.428 3.463-1.952 8.075-5.429 8.075-5.429.443 2.826.388 7.826.388 7.826 1.745-.651 3.447-.804 3.447-.804-1.744 8.684-11.91 23.407-11.91 23.407 35.636-10.207 50.636-36.523 50.636-36.523l-.013-.139c1.344-.277 2.285-.637 2.285-.637s23.92-6.8 34.904-30.249c10.983-23.449-8.879-46.177-15-49.141m-307.632 44.46s-3.837.013-6.648.138c-2.784.125-5.831.402-6.233 3.047-.388 2.66.402 3.99 1.593 4.917 1.191.928 5.72 3.712 6.648 4.641 0 0 3.047-1.996 5.443-2.522 0 0-5.18 3.712-6.37 5.72 0 0 2.257-1.19 3.85-1.19 0 0 4.113 2.52 6.759 2.52 2.659 0 7.7-.803 7.7-.803s2.923-1.98 6.122-2.258c0 0-3.338 2.258-4.127 3.324 0 0 1.33-.138 2.133.403.79.525 3.449 1.051 5.845.123 2.382-.927 4.764-1.854 4.64-4.778-.139-2.922-1.856-6.371-1.856-6.371s3.13-2.618 4.861-3.435c-.415.055-3.809.568-5.928 1.44 0 0-2.645-5.318-5.443-7.036-2.798-1.717-5.582-1.994-8.629-.664-3.06 1.33-7.59 2.617-7.59 2.617s-4.183 2.009-4.737 2.812c.083-.194.845-1.773 1.967-2.645m28.393 40.623c-2.908-3.02-5.748-4.017-7.451-2.34 0 0-.859-3.214-2.826-4.087-1.98-.872-3.324-.706-3.324-.706s-7.7 1.537-10.872 3.492c.623-.404 5.72-3.7 7.534-4.863l-4.28.983s-4.5.014-8.684-.319c-4.169-.318-13.809-1.315-15.595-.969 0 0 1.205-.831 1.925-1.26-.194 0-3.352.027-5.443 1.717 0 0-6.413.665-7.646 4.986-1.246 4.335 1.94 7.41 2.867 8.089 0 0 1.288-2.022 3.892-3.297 0 0-1.482 2.397-1.426 4.391 0 0 5.47 2.895 16.385 4.404 10.928 1.51 10.138.707 13.975 3.09 0 0 4.058-2.868 6.302-3.547 0 0-3.158 4.488-3.449 6.164 0 0 5.07 4.323 9.252 4.64 4.197.332 7.784-1.288 7.34-5.61l1.51-1.856-2.673.194.776-1.454s-.125-2.202-1.344-3.906c.208.11 2.3 1.247 4.28.706l-.581 1.095s2.285-.264 3.975-3.158l-1.385-.374s-.111-3.186-3.034-6.205m257.867-94.294s-7.05 8.698-10.54 6.025c-3.504-2.673 1.827-6.246.707-13.213-1.108-6.953-23.92-30.388-52.729-47.673 0 0 13.324 5.512 26.205 12.34.097.056.208.097.305.153 2.84 1.44 5.845 3.158 8.656 4.903 3.864 2.354 7.34 4.737 9.931 7.022 0 0 5.234-6.385 2.105-13.837a11.714 11.714 0 0 0-.624-1.274c-.027-.055-.068-.11-.096-.166a23.97 23.97 0 0 0-1.731-2.576 12.5 12.5 0 0 0-2.341-1.233c-1.814-.692-3.532-.983-4.737-1.579 0 0-2.77-2.811-3.698-4.155 0 0-.29 1.233.471 2.687 0 0-2.133-1.87-4.086-2.285-1.954-.402-4.307-1.191-4.917-1.649-.595-.457-1.8-1.51-1.8-1.51s.055.956.346 1.663c0 0-2.008-.153-2.355-2.258-.346-2.105 1.302-2.964 1.302-2.964s-.152-.595 0-1.343c0 0 1.8 1.994 2.66 2.507 0 0 .386-1.275-.347-3.463l-.664-.374a31.394 31.394 0 0 0-1.926-.97c-.512-.235-30.194-17.063-44.266-24.127a17.592 17.592 0 0 1-3.975-.83s-2.354-1.095-2.742-2.217c0 0-.166.582.18 1.219.596 1.08 1.856 2.23 2.23 3.726 0 0-2.34-1.385-4.266-2.383-1.69-.872-5.235-1.883-7.244-3.38a4.378 4.378 0 0 1-.955-.927 4.342 4.342 0 0 1-.223-.277 3.325 3.325 0 0 1-.415-.873c-.041-.124-.055-.235-.083-.346 0-.055-.027-.097-.027-.152-.028-.153-.028-.277-.028-.374 0-.166.014-.263.014-.263.069.041.069.055.11.083.014.027.056.055.098.083.027.027.083.069.138.11.845.72 1.745 1.524 2.796 1.815.071.028.167.055.265.07-.042-.042-.055-.084-.098-.125a.821.821 0 0 0-.11-.125c-.083-.083-.166-.194-.263-.305a13.07 13.07 0 0 1-1.911-2.77c-11.496-5.692-25.237-11.745-43.824-15.402-26.744-5.277-44.694-.83-44.694-.83s5.275.318 16.274 4.168c.692-.221 1.62-.595 2.438-1.177 1.579-1.136 2.603-1.357 3.282-1.357.679 0 3.601 3.49 3.601 3.49s-.318-2.7-.886-4.972c0 0 2.88-.25 3.975 0 1.607.374 2.936.914 3.504.914.568 0 .803-.679.803-.679s1.011.665 1.011 1.468c0 0 2.27 1.58 2.27 3.061 0 1.469-.346 3.394 0 4.308 0 0-.566.332-1.48-1.136 0 0-1.47 1.247-2.936 1.247a4.89 4.89 0 0 0-1.8.36c5.068 2.271 10.802 5.055 17.257 8.504 0 0 .732.512 1.274.914 0 0 .526-2.147.873-2.48 0 0 .663.596.803.943 0 0 .124-.942-.07-2.009 0 0 1.801-1.468 3.2-1.606 1.413-.139 1.953-.139 2.41-.402 0 0 .317-1.122-.152-2.327 0 0 2.354 1.371 2.825 3.13 0 0 .208-1.066.139-2.146 0 0 2.465-.402 4.28.069 1.8.457 3.019 1.08 3.42 1.745.402.665 1.524 2.909.9 3.393-.636.485-1.772.679-2.118 1.22-.333.525-.457.996-.928 1.329-.457.332-1.08.415-1.08.415s-.125 1.856.346 2.798c0 0-.956-.125-1.428-1.26 0 0 .223 1.052-.457 1.8-.664.734-1.121 1.191-1.786 1.385 0 0-1.648-1.565-1.786-2.174 0 0 .18 3.698-.458 3.005 0 0-3.477-3.074-4.17-3.448 0 0-1.496.221-2.09.152-.61-.056-2.673-.859-3.075-1.537 0 0-.069.803 1.065 1.606 0 0-1.023-.166-1.411-.346 0 0-.596.679-1.662.956 0 0 1.066 1.205 1.537 1.662 0 0-2.105-.374-3.06-1.385 0 0-1.22.055-2.563-.347-1.33-.401-2.147-.263-3.352-.069s-1.399.07-2.271-.138c-.873-.194-3.269-1.538-3.269-1.538s.402 1.067.803 1.413c0 0-.207.872-2.146.332-1.94-.54-2.009-1.135-3.006-1.745-1.011-.595-1.676-1.468-1.47-2.202.196-.734.805-1.274.805-1.274s.596.54 1.662 1.01c0 0-1.8-2.27-2.008-3.074 0 0 .942.194 1.413.263 0 0 .332-1.274 3.144-1.87a34.984 34.984 0 0 1 2.368-.429 308.548 308.548 0 0 0-31.052-7.95c-.208.235-.374.47-.527.72-.18.29-.334.596-.484.914-.458.942-.804 1.898-1.538 2.521 0 0-5.803-1.814-7.673-2.742 0 0 2.936 2.41 4.986 3.504 0 0-1.759 2.922-7.91 2.244 0 0-2.838 1.232-5.068.997-2.216-.236-5.595-1.704-6.288-2.84-.692-1.163-.61-3.545 1.772-4.93 0 0 3.256 1.98 4.863 2.894 0 0-2.867-3.573-2.646-4.723 0 0 1.025-.844 2.244-1.579a141.657 141.657 0 0 0-4.321-.526c-13.144-1.482-24.765-1.703-35.305-1.108.83 1.205.665 2.327 1.33 3.532.803 1.468-.374 2.133-.374 2.133-.887-.72-4.543-2.272-4.543-2.272 1.385 1.316 2.576 3.145 2.576 3.145-.887.512-3.214.969-5.72 1.094-2.507.11-6.067 2.188-6.067 2.188-1.496-.443-2.77-1.967-4.03-3.13-.236-.208-.457-.388-.624-.54-.055-.056-.124-.097-.166-.139a.602.602 0 0 1-.097-.083c-.041-.014-.083-.055-.124-.083.055.055.11.263.152.402 0 .013 0 .027.014.041 0 .014 0 .028.014.042.083.221.166.43.249.637.18.415.374.845.595 1.246.638 1.22 1.4 2.369 2.161 3.505.014.013.028.055.042.069.318.512.61.983.858 1.371.111.152.208.29.291.443.028.042.042.07.056.097a.998.998 0 0 1 .097.153c.041.083.083.124.11.166.014.027.042.069.056.097.041.041.055.083.07.11-.32-.401-1.317-.595-1.801-.761-.028-.014-.056-.014-.084-.028-.83-.332-1.606-.762-2.368-1.247-.014-.013-.028-.027-.042-.027-.346-.25-1.357-1.164-1.772-1.011 0 0-.084.014-.25.083-.041.014-.11.014-.166.041a2.14 2.14 0 0 1-.318.097c-.125.028-.25.056-.402.097a2.9 2.9 0 0 1-.416.097c-.18.028-.387.07-.595.111-.36.055-.707.097-1.067.125h-.055c-.443.014-.942.027-1.44.014-2.577-.153-5.72-2.341-7.91-4.557-.789-.776-1.038-1.635-1.052-2.424a206.47 206.47 0 0 0-6.717 1.704c-3.269.761-21.053 4.736-39.225 8.822.111 1.26-.415 2.618-.415 3.324 0 1.26 1.011 2.216 1.011 2.216-2.078.167-5.748-1.218-5.748-1.218 1.039 1.482 4.03 3.185 4.03 3.185s-.429 1.648-1.8 2.216c-1.371.568-2.41.346-4.114.222-1.717-.111-3.2.692-5.374.803-2.174.11-4.833-1.233-4.833-1.233 2.396.222 4.182-1.398 4.182-1.398-3.074-.347-4.03-1.482-4.376-2.161-.25-.499-1.011-1.177-1.718-1.676-13.338 2.978-23.656 5.29-23.656 5.29a2072.587 2072.587 0 0 1-15.291 1.995c-2.507.18-5.028.333-7.535.471-13.809.734-27.631.416-41.412 1.26-2.05.125-4.072.18-6.122.18h-.083c1.121.25 2.243.555 3.351.86 1.51.401 3.006.83 4.502 1.287a200.793 200.793 0 0 1 14.972 5.125 195.86 195.86 0 0 1 7.258 2.978c2.548 1.122 5.069 2.3 7.548 3.546.679-1.04 3.74-1.04 3.74-1.04l-.388-.802s.859.54 1.925.47c.083 0 .139-.013.208-.027.29-.111.554-.208.776-.291.346-.222.637-.526 1.315-.748 1.136-.402 2.715-.235 2.715-.235.43-.776 2.327-1.524 2.327-1.524-.374-.346-.831-.72-.831-.72.762-.125 2.507.235 3.24.318.5-.041.901-.083 1.053-.166.028-.014.042-.028.07-.041.207-.167.346-.513.152-.818-.36-.332-1.163-.581-1.717-.83-.638-.291-.707-.707-.72-.832-.014-.013-.014-.027-.028-.055-.665.138-2.189-.512-2.189-.512s1.275-.07 1.607-.291c.152-.083.457-.236.845-.374a5.648 5.648 0 0 1 1.62-.485c1.011-.125 2.216.803 2.216.803s1.067.194 2.133-.208c1.095-.373 3.324-.332 3.214-.304-.693.124-1.385.595-2.05.595.54 0 1.274.374 1.703.679 1.981 1.344-.526 3.089-1.814 3.712-1.967-.222-3.186.554-3.186.554s2.535 0 2.41.734c-.138.734-1.274 1.205-2.479 1.468-1.205.263-2.147 1.468-2.147 1.468.54.07 1.011.596 1.011.596s-1.274.138-1.468.277c-.207.125-.872 1.607-1.412 2.271-.527.665-2.397 1.136-2.397 1.136.86.471 3.602.803 3.602.803-1.51.54-3.283.638-3.892.665.429.263 4.612 2.923 4.764 3.02.014 0 .014.013.028.013.221.153 3.629 2.286 4.806 2.978 4.958 2.923 10.07 5.582 15.47 7.59 1.635.54 3.256 1.164 4.904 1.676a77.803 77.803 0 0 0 5.54 1.482c1.704.388 3.435.693 5.152.956a53.68 53.68 0 0 0 9.308.554c3.13-.07 6.246-.499 9.335-1.067 3.573-.664 7.12-1.44 10.61-2.451.581-.152 1.149-.332 1.717-.499 4.82-1.482 9.487-3.615 13.989-5.914a104.28 104.28 0 0 0 3.504-1.8.203.203 0 0 0 .083-.056.197.197 0 0 0 .083-.027c-.07.083-8.365 6.966-12.437 9.46a126.3 126.3 0 0 1-2.701 1.606 109.058 109.058 0 0 1-4.53 2.424 67.52 67.52 0 0 1-3.92 1.883c-.692.305-1.384.596-2.09.873-.042.014-.07.042-.111.055-8.643 3.435-17.452 4.613-26.76 5.277-8.005.568-19.667.887-31.592-.595-19.612-2.452-29.972-9.044-29.972-9.044 17.908 3.144 27.382 2.59 31.69 1.87-6.538-4.156-12.161-9.391-19.474-13.976-17.48-10.914-34.003-17.756-51.87-16.108 0 0 5.859 1.44 9.986 6.967-1.288 5.43 5.748 17.48 16.357 26.704 1.842 1.606 3.837 3.338 6.011 5.069-1.91-.042-7.991-.18-7.991-.18 5.623 3.642 20.526 8.546 20.526 8.546-3.269 1.094-8.892 1.994-8.892 1.994.36.416 11.122 5.997 31.177 6.828 10.998.443 21.94-1.482 32.078-5.775.097-.042.166-.083.235-.111.167-.097.264-.153.319-.18.042-.014.07-.014.083-.028-.028.028-.277.305-.803.776-6.094 5.581-13.878 8.96-21.8 11.135a92.419 92.419 0 0 1-13.02 2.549c-.679.083-1.344.152-2.036.222-.277.096-.471.221-.54.373-2.161 6.746-2.23 14.031-1.856 21.04a90.59 90.59 0 0 0 1.343 11.246c.014.014.014.041.014.055a22.777 22.777 0 0 1 1.731-1.551s2.009-1.662 5.513-2.175c0 0-.042-.055-.153-.138a1.516 1.516 0 0 0-.152-.139c-.748-.637-1.897-.955-2.909-1.108-.277-.069-.54-.097-.775-.124.07 0 .305-.056.665-.111 2.188-.457 4.778-.859 6.897-.402.056 0 .097 0 .153.028 1.288.29 2.423 1.15 3.116 2.258.07.124.125.235.18.346.083.152.152.305.208.457a.954.954 0 0 0 .041.11c.056.153.111.32.139.472.041.152.069.304.097.457 0 .027.014.069.014.097.013.152.027.318.027.47a3.97 3.97 0 0 1-.36 1.676c-.83 1.843-2.34 5.36-2.34 6.69 0 .61-3.145 2.798-3.99 3.657-.055.055-.096.11-.138.152.083 0 .18-.014.263-.014.056-.014.139-.014.208-.027.928-.084 1.842-.25 2.77-.347.512-.041.983-.083 1.357-.083h.042s2.16 4.017 3.836 5.36c1.676 1.33 3.172 4.17 3.685 6.344.014 0 .041.014.055.014.208.013.443-.056.693-.153a.189.189 0 0 1 .083-.027c.083-.028.18-.07.29-.125.291-.125.54-.25.624-.29.318-.126.623-.264.942-.403.263-.124.568-.29.9-.457l.083-.041s-3.158 4.654-6.842 6.842c.235.041 3.172.47 4.626-.152.014 0 .028-.014.042-.014 0 0 .249 5.554-5.167 11.537-.374.416 4.03 5.637 6.732 8.698.11.125.207.236.304.36.083.097.18.194.236.277.208.236.415.457.568.624.166.207.29.346.36.415.194-.166 1.676-1.44 2.437-2.064a61.55 61.55 0 0 1 4.086-2.978c1.316-.9 4.363-2.52 4.363-2.52.014 0 .028-.014.042-.028v.042a7.819 7.819 0 0 0-.014 1.412s1.523-1.662 2.936-2.437c0 0-2.299 3.587-2.562 6.274 0 0-.513 4.474 3.712 6.773 4.21 2.299 10.498 4.1 12.285 5.498 0 0 3.2-2.299 4.986-3.06 0 0-4.224 4.085-5.374 7.922 0 0 2.563-2.424 3.975-2.936 0 0 3.962 2.936 6.385 2.673 2.424-.25 5.887-.125 7.286-3.324 1.412-3.186 1.15-3.698 1.8-4.723 0 0-2.313 1.412-3.975 2.936 0 0 .776-3.186 3.975-5.623 3.186-2.424 4.737-2.812 4.737-2.812s7.549-9.986-1.274-14.848c0 0 4.335-2.174 6.773-3.698 0 0-7.05 1.787-9.35 2.549 0 0-5.235-1.025-8.046-1.025-2.826 0-7.674-.374-9.848-1.025-2.175-.637-4.35-1.399-4.35-1.399s1.275-.762 2.3-1.025c0 0-4.958-.374-7.895 4.28-.014 0-.027 0-.041-.014.014-.374.18-2.175 1.537-3.878 0 0-2.604 1.191-4.072 2.84-.014 0-.041-.015-.041-.015-.97-.36-1.953-.664-2.937-.97a79.894 79.894 0 0 0-4.75-1.26 76.888 76.888 0 0 0-3.2-.706c8.31-5.499 17.507-9.598 26.967-12.798 3.158-1.066 9.861-2.978 9.861-2.978 1.344 1.275 2.701 2.244 2.701 2.244s4.502-1.08 6.662-1.925c0 0-4.515 3.172-8.033 4.695 0 0 5.36-.18 7.202-.512l-.83 1.856s2.34 1.828 7.852.997c5.513-.831 9.03-2.008 9.03-4.861 0-2.84-.678-4.183.167-7.023 0 0-2.008.333-3.518 0 0 0 3.186-1.842 4.35-3.836 0 0-.292-1.8-1.164-3.587l-.014-.014a286.14 286.14 0 0 1 13.282-1.122 20.371 20.371 0 0 0-1.786-1.842c-4.446-4.1-10.665-6.732-16.247-8.518 11.108-1.482 22.34-1.926 33.518-2.313a740.135 740.135 0 0 1 19.183-.457c-1.343-1.122-3.2-1.773-4.806-2.41 3.753-.43 7.673-.07 11.426.207-3.199-1.606-6.828-2.52-10.249-3.531a268.665 268.665 0 0 0-7.257-2.023c.041 0 .166.014.29.014.111.014.222.028.277.028.014.014.042.014.056.014 8.809 1.163 18.158 2.645 28.393 4.473 65.623 11.704 108.92 29.419 127.784 38.297 4.985 2.257 8.38 3.975 10.11 4.875 1.565.457 3.74.707 4.835-.886a3.93 3.93 0 0 0 .47-.887l.014-.027c.194.027.347.041.456.027 4.115-.249 8.132-.65 12.12-1.745a57.561 57.561 0 0 0 3.339-1.025c2.257-.775 4.446-1.69 6.606-2.687-.11 0-3.656-4.598-4.072-5.055-3.185-3.574-6.759-6.828-10.692-9.598.526-.153 1.094-.319 1.662-.458a6.72 6.72 0 0 1 1.731-.207c-3.158-3.13-7.064-5.624-10.776-7.95-1.37-.887-2.783-1.718-4.182-2.535-.403-.236-.804-.485-1.205-.72-.277-.166-.568-.347-.86-.513a167.03 167.03 0 0 0-4.86-2.714l-.057-.028c.029-.014.056-.014.07-.014h.208c5.9 0 11.87-.25 17.798-.097.665.014 6.523.277 6.842.305a207.273 207.273 0 0 1 16.191 1.662c.914.124 1.827.277 2.742.402 4.668.706 9.322 1.62 13.934 2.645.04.014.083.028.138.041 2.535.845 5.333 1.22 7.923 1.884 1.454.388 2.908.762 4.363 1.164 3.198.872 6.371 1.8 9.515 2.825 2.008.651 4.017 1.316 6.011 2.036.526.18 3.018 1.454 3.38 1.191.997-.706 6.592-4.598 10.97-5.443 4.82-.928 9.333-2.742 9.333-8.172-.47-5.665-4.943-11.537-9.819-15.457m-49.75 23.352c-5.61-.512-10.042 2.008-10.042 2.008s16.468 0 22.48 5.208c6.024 5.222 4.418 9.238 4.418 9.238s6.01 9.64 7.631 13.643c0 0 11.233-10.43 12.036-17.66 0 0-21.814-11.094-36.523-12.437M341.59 338.457l.845 9.308 6.468 4.21c1.856-7.52-7.313-13.518-7.313-13.518m-31.37-66.523c-6.15-19.321-28.976-23.061-28.976-23.061s18.698 7.632 19.197 61.648c.166 18.172 5.72 25.859 5.72 25.859-9.432-5.028-11.911-23.573-12.756-37.936-.43-7.3-3.395-42.867-30.596-51.649-16.523-5.346-24.46-.803-24.46-.803s12.743 3.047 19.931 16.15c10.859 19.709 3.13 54.556 11.233 73.171 10.014 23.021 28.338 29.225 28.338 29.225 24.03-12.909 29.183-32.978 29.183-32.978-20.57-10.665-10.68-40.29-16.815-59.626m70.097 57.465s-14.57 23.338-21.136 28.158c0 0-1.579-3.809-3.504-5.706 0 0-7.992 5.401-9.584 8.365.166-.304-1.44-2.52-1.607-2.811-.9-1.482-1.814-2.936-2.922-4.265-3.186 1.883-6.885 4.625-8.56 7.99a42.122 42.122 0 0 0 3.103-8.393c.443-1.8.747-3.642.94-5.483.652-6.345-.165-12.8-2.215-18.824 0 0-7.562 18.532-16.274 27.604-8.726 9.058-13.49 11.37-14.044 12.659-.554 1.26-.665 5.859 9.569 4.557 10.223-1.33 17.44-8.948 17.44-8.948s14.002-2.604 26.3-.928c0 0 3.422 3.712 8.284 3.366 4.861-.332 14.97-19.377 14.21-37.34M358.1 277.445c1.607 16.44-12.992 31.288-12.992 31.288 23.67-6.648 36.094-25.678 39.917-32.52a48.39 48.39 0 0 0 .887-2.383c-8.823 2.106-18.574 3.712-27.812 3.615m86.759-14.667c-3.421-.79-7.632 1.454-9.986 2.964-.443-.928-1.288-1.745-2.881-2.3-4.806-1.62-10.734 2.95-10.734 2.95.499-3.49-4.28-2.492-4.474-2.465-1.413.111-7.34 1.995-10.859 3.962-5.193 1.814-12.05 4.016-19.626 5.844 1.427 8.09.984 13.768.984 13.768 8.047-4.17 14.709-12.743 18.767-18.92.873 4.155 4.377 9.779 4.377 9.779 5.637-3.505 10.65-8.574 10.65-8.574 1.73 3.13 1.441 9.71 1.441 9.71 3.962-1.289 7.507-3.851 9.793-5.776-2.535 13.42-10.651 26.441-10.651 26.441 9.5-3.574 27.645-22.882 28.822-28.145 1.15-5.25-.581-8.102-5.623-9.238m34.21-25.097c-.152.028-.276.041-.373.055-1.427.222-4.211-.207-3.838-2.23.223-1.246 1.94-2.299 3.02-2.742 3.075-1.247 6.08-2.424 8.837-4.28.997-.665 1.939-1.385 2.798-2.23.234-.221 1.496-1.232 1.454-1.606a29.348 29.348 0 0 0-2.188-8.13c-.333.775-.874 1.814-1.635 2.963-1.69 2.881-3.78 4.21-4.543 4.626-1.109.624-3.268 1.275-4.252-.637-.997-1.897 1.745-3.532 1.745-3.532 4.059-2.922 5.693-5.886 6.358-7.825-2.175-3.366-4.268-5.139-4.268-5.139s-5.815 14.53-21.065 21.926c-10.941 5.318-20.983 11.496-27.411 18.85a42.796 42.796 0 0 0-2.52 3.241l.125.014c15.457 1.719 23.047 8.255 25.54 11.427.18.221.319.415.444.595l.055-.014c.956-.166 16.467-2.964 26.067-13.545a12.99 12.99 0 0 1-1.04 0c-2.368-.097-11.426.152-9.14-4.405.761-1.523 3.476-1.108 4.833-1.025 2.326.139 4.639.388 6.967.263 3.212-.18 3.809-3.088 4.612-5.748.762-2.576 1.22-5 1.427-7.285-3.546 4.515-9.917 6.039-12.01 6.413" fill="#000"/><path d="M183.834 237.89c3.047-1.33 5.831-1.053 8.629.665 2.798 1.717 5.443 7.036 5.443 7.036 2.12-.873 5.512-1.385 5.928-1.44-1.731.816-4.862 3.434-4.862 3.434s1.718 3.449 1.856 6.371c.125 2.923-2.257 3.85-4.64 4.779-2.396.928-5.055.401-5.844-.125-.804-.54-2.133-.402-2.133-.402.79-1.066 4.127-3.324 4.127-3.324-3.2.277-6.122 2.258-6.122 2.258s-5.041.803-7.7.803c-2.646 0-6.76-2.52-6.76-2.52-1.592 0-3.85 1.19-3.85 1.19 1.191-2.008 6.371-5.72 6.371-5.72-2.396.527-5.443 2.521-5.443 2.521-.928-.928-5.457-3.712-6.648-4.64-1.191-.928-1.98-2.257-1.593-4.917.402-2.645 3.449-2.922 6.233-3.047 2.811-.124 6.648-.138 6.648-.138-1.122.872-1.884 2.451-1.967 2.645.554-.803 4.737-2.812 4.737-2.812s4.529-1.288 7.59-2.617zm22.451 49.986c-1.69 2.895-3.975 3.158-3.975 3.158l.582-1.094c-1.98.54-4.072-.596-4.28-.707 1.22 1.704 1.344 3.906 1.344 3.906l-.776 1.454 2.673-.194-1.51 1.856c.444 4.322-3.143 5.942-7.34 5.61-4.183-.319-9.252-4.64-9.252-4.64.29-1.676 3.449-6.164 3.449-6.164-2.244.68-6.302 3.546-6.302 3.546-3.837-2.382-3.047-1.579-13.975-3.088-10.915-1.51-16.385-4.405-16.385-4.405-.056-1.994 1.426-4.39 1.426-4.39-2.604 1.274-3.892 3.295-3.892 3.295-.928-.678-4.113-3.753-2.867-8.088 1.233-4.321 7.646-4.986 7.646-4.986 2.091-1.69 5.249-1.717 5.443-1.717-.72.43-1.925 1.26-1.925 1.26 1.786-.346 11.426.651 15.595.97 4.183.332 8.684.318 8.684.318l4.28-.983c-1.814 1.163-6.911 4.46-7.535 4.861 3.172-1.953 10.873-3.49 10.873-3.49s1.344-.166 3.324.706c1.967.873 2.826 4.086 2.826 4.086 1.703-1.676 4.543-.678 7.451 2.341 2.923 3.02 3.033 6.205 3.033 6.205l1.385.374zm221.732-43.449c-.222-1.717-.679-3.42-1.288-5.041-1.275-3.338-3.269-6.607-6.15-8.782-.055-.055-.097-.083-.152-.138a35.16 35.16 0 0 0-4.557-3.629c-7.34-4.986-15.596-8.781-23.74-12.313-.734-.318-1.468-.637-2.217-.956-9.75-4.196-19.694-8.102-29.722-11.51a167.03 167.03 0 0 1 4.862 2.715c.29.167.581.347.858.513.402.235.802.485 1.205.72 1.4.817 2.812 1.648 4.183 2.535 3.712 2.327 7.618 4.82 10.776 7.95a6.72 6.72 0 0 0-1.731.208c-.568.138-1.136.304-1.662.457 3.933 2.77 7.507 6.025 10.692 9.598.416.457 3.961 5.055 4.072 5.055-2.16.998-4.349 1.912-6.607 2.687-1.108.374-2.216.72-3.337 1.025-3.99 1.095-8.006 1.496-12.12 1.745-.11.014-.263 0-.457-.027l-.014.027a3.93 3.93 0 0 1-.47.887c-1.095 1.593-3.27 1.343-4.834.886-1.732-.9-5.126-2.617-10.111-4.875-18.864-8.878-62.16-26.593-127.784-38.296-10.235-1.829-19.584-3.31-28.393-4.474-.014 0-.042 0-.056-.014-.055 0-.166-.014-.277-.028-.124 0-.249-.013-.29-.013 2.423.637 4.847 1.315 7.257 2.022 3.421 1.01 7.05 1.925 10.25 3.532-3.754-.277-7.674-.638-11.427-.208 1.606.637 3.462 1.288 4.806 2.41a740.13 740.13 0 0 0-19.183.457c-11.177.388-22.41.83-33.518 2.313 5.582 1.787 11.8 4.418 16.247 8.518a20.371 20.371 0 0 1 1.786 1.842 286.14 286.14 0 0 0-13.282 1.122l.014.014a14.468 14.468 0 0 1 1.163 3.587c-1.163 1.994-4.349 3.836-4.349 3.836 1.51.333 3.518 0 3.518 0-.845 2.84-.166 4.183-.166 7.023 0 2.853-3.518 4.03-9.03 4.861-5.513.831-7.854-.997-7.854-.997l.831-1.856c-1.842.332-7.202.512-7.202.512 3.518-1.523 8.033-4.695 8.033-4.695-2.16.845-6.662 1.925-6.662 1.925s-1.357-.97-2.7-2.243c0 0-6.704 1.91-9.862 2.977-9.46 3.2-18.657 7.3-26.967 12.798 1.08.208 2.147.457 3.2.707 1.592.374 3.185.789 4.75 1.26.984.305 1.967.61 2.936.97 0 0 .028.013.042.013 1.468-1.648 4.072-2.839 4.072-2.839-1.357 1.704-1.524 3.504-1.537 3.878.013.014.027.014.041.014 2.936-4.654 7.895-4.28 7.895-4.28-1.025.263-2.3 1.025-2.3 1.025s2.175.762 4.35 1.399c2.174.651 7.022 1.025 9.847 1.025 2.812 0 8.048 1.025 8.048 1.025 2.299-.762 9.349-2.549 9.349-2.549-2.438 1.524-6.773 3.698-6.773 3.698 8.822 4.862 1.274 14.848 1.274 14.848s-1.551.388-4.737 2.812c-3.2 2.437-3.975 5.623-3.975 5.623 1.662-1.524 3.975-2.936 3.975-2.936-.65 1.025-.388 1.537-1.8 4.723-1.4 3.2-4.862 3.075-7.286 3.324-2.424.263-6.385-2.673-6.385-2.673-1.413.512-3.975 2.936-3.975 2.936 1.15-3.837 5.374-7.922 5.374-7.922-1.787.761-4.986 3.06-4.986 3.06-1.787-1.398-8.075-3.199-12.285-5.498-4.225-2.3-3.712-6.773-3.712-6.773.263-2.687 2.562-6.274 2.562-6.274-1.413.775-2.936 2.437-2.936 2.437a7.911 7.911 0 0 1 .014-1.412v-.042c-.014.014-.028.028-.042.028 0 0-3.047 1.62-4.363 2.52a61.55 61.55 0 0 0-4.086 2.978c-.761.624-2.243 1.898-2.437 2.064.221.25.387.43.47.513 6.995 7.534 15.222 14.113 23.657 19.986a216.063 216.063 0 0 0 12.175 7.811c14.723 8.768 30.277 16.192 45.955 23.061 9.71 4.266 18.934 9.765 27.009 16.69 5.166 4.405 9.861 9.377 13.905 14.848 4.71 6.385 8.144 13.573 12.396 20.263 7.036 11.08 15.416 21.413 25.36 30 5.68 4.903 11.897 9.278 18.643 12.576 1.828.9 3.698 1.718 5.624 2.396.72.25 1.55.623 2.326.693-.207 1.8-2.063 3.338-3.435 4.347 11.246 2.218 22.895 1.9 34.128-.054-2.008 2.161-4.044 4.322-6.08 6.496 11.412-.443 23.116-3.947 33.38-8.767 9.874-4.64 18.891-11.08 26.218-19.21a78.392 78.392 0 0 0 10.983-15.735c.36-.692.443-.72-.207-1.025-4.239-2.217-9.253-3.185-13.962-3.698-14.266-1.537-28.171 3.352-41.454 7.895-5.651 1.94-11.413 4.308-17.355 5.208-8.434 1.274-17.063 1.302-24.847-2.701-7.313-3.767-13.38-9.806-18.684-16.011-5-5.873-9.433-12.23-13.49-18.809-8.172-13.229-14.751-27.368-19.848-42.05-4.294-12.383-7.632-25.485-7.161-38.7.388-10.607 3.06-21.84 8.712-30.926 2.798-4.501 6.482-8.518 11.039-11.288a30.119 30.119 0 0 1 7.839-3.338 35.244 35.244 0 0 1 4.335-.845 643.673 643.673 0 0 0-44.169-8.435 626.077 626.077 0 0 0-29.266-3.864 632.126 632.126 0 0 1 29.848 2.576c91.371 10.042 141.219 34.377 141.219 34.377s4.058 2.673 1.842 6.025c-1.067 1.607-3.256 1.413-4.82.983-1.745-.858-5.18-2.493-10.222-4.64-5.706-2.534-13.628-5.803-23.698-9.432a68.714 68.714 0 0 0 6.898 10.845c3.684 4.737 8.033 9.003 13.088 12.3 6.676 4.348 14.419 6.606 22.341 7.201 7.673.582 15.333-.595 22.589-3.033 5.126-1.717 9.932-4.21 14.973-6.094 6.967-2.59 13.795-5.36 21.122-6.814 4.1-.804 8.283-1.247 12.466-1.191a60.11 60.11 0 0 1 1.579.055c.387.014.166-5.734.083-6.316z" fill="#FFF"/><path d="M398.795 123.168c1.148-.29 1.703-.29 2.15-.25 0 0 .055-.693-.5-1.303 0 0 3.257 1.955 4.768 3.52l-.405-1.413s2.607.652 3.812 1.816c1.205 1.15 1.802 2.453 2.16 3.048.346.611 1.307 2.62.904 3.215-.405.61-1 .61-1 .61s-3.617-2.161-4.572-2.62c0 0 1.814 2.815 2.063 3.466 0 0-3.116-.457-3.922-1.552 0 0-3.507-.858-4.766-1.705-1.248-.86-2.26-2.162-2.26-2.87 0 0 2.01.958 3.023 1.415 0 0-2.717-3.27-3.562-4.061 0 0 .942-1.011 2.107-1.316m-3.077-4.504s-2.897-2.551-3.91-3.436c0 0 1.416 3.353 1.638 4.073 0 0-2.732.096-4.214-1.053-1.483-1.15-3.616-2.508-3.063-2.508 0 0 .664.04 1.221.126 0 0-1.692-2.039-4.588-2.206 0 0-1.76.403-3.786-.622-2.022-1.039-2.865-2.094-2.865-2.094s-1.108-1.232-1.319-2.813c0 0 1.983 1.387 2.954 1.774 0 0-1.749-2.493-1.749-3.977 0 0 1.25-.25 2.814.347 1.58.595 2.013.124 2.013.124s-.682-.886-.945-1.788c0 0 1.995 1.664 2.842 2.038 0 0 2.467-.762 4.338.041 1.866.803 3.99 2.882 4.323 3.269.317.363 1.579 1.318 1.734 1.43-.127-.168-1.11-1.484-1.375-2.523.152.097 1.388.9 1.943 1.177.593.308 1.733 1.498 1.954 2.258.205.765-1.027 1.997-1.027 1.997s1.62 2.08 1.62 2.925c0 .844-.553 1.44-.553 1.44m-14.4 12.044s-2.131-.887-4.003-.887c0 0-.833 1.26-2.814.845-1.983-.401-3.922-1.911-3.922-1.911s1.774.08 3.185.08c0 0-.622-.705-2.299-1.065-1.688-.346-2.688-.638-3.88-1.568 0 0-.292.945.5 1.568 0 0-2.663.706-3.106-1.954-.442-2.66-1.954-2.48-.887-4.435 1.053-1.927 3.257-1.94 3.327-1.94 0 0-1.9-1.164-3.147-1.872 0 0 4.352 1.151 7.718 3.187 0 0-.262-1.33-1.064-2.036 0 0 2.315-.708 4.89 1.068 2.563 1.773 2.66 3.367 4.616 4.697 1.954 1.33.79 3.382-.097 3.908 0 0 .624 1.595.983 2.315m-18.375-22.284c-.096 1.234-.985 2.217-2.495 2.397-1.51.168-2.399-.443-2.923.264-.528.706-1.332 1.412-2.136 1.592 0 0-5.141-3.187-7.374-4.35 0 0 1.875 2.397 2.314 3.38 0 0-3.1.264-5.237-.622-2.131-.887-3.56-1.636-5.06-2.287-1.507-.637-3.103-2.772-3.103-2.772s2.483 1.151 3.813 1.511c0 0-2.217-2.494-2.302-3.285 0 0 1.677-.444 2.48-1.426.75-.916 2.95-1.513 4.616-1.593h.36c1.69 0 5.864 2.216 7.9 3.727 0 0-1.774-2.482-3.104-3.727 0 0 3.187 0 3.99-.265.807-.277 2.661-.457 3.992.166 1.247.582 1.954 1.87 2.036 2.038-.165-.07-1.482-.626-2.48-.874 0 0 0 1.068 2.134 2.579 2.136 1.496 2.66 2.3 2.579 3.547m-14.842 18.21s2.33 2.12 2.939 3.27c0 0-1.207.984-1.594 1.69-.374.694-1.413 2.3-2.58 2.744 0 0-1.235 1.594-2.564 1.693-1.33.081-2.23-.223-3.117-.265-.874-.042-4.435 0-7.094-2.662 0 0 3.809.529 4.792.529 0 0-3.38-2.482-4.087-3.548 0 0 .985-.625.886-1.512-.084-.886-.358-1.69.54-2.66 0 0 3.107 1.068 4.963 1.33 0 0-2.036-2.052-4.075-3.726 0 0 1.262-.128 2.758.468 0 0 .614-.125 2.036-1.273 1.413-1.151 4.173-.846 5.765.208 1.595 1.037 3.106 3.174 3.106 3.174s1.871.97 3.104 3.006c0 0-3.228-2.107-5.778-2.466m-19.43-16.077s-1.846-.456-2.562-.707c.136.21 1.233 1.787 1.496 2.647 0 0-1.677 1.11-2.967 1.402-1.288.29-1.65.65-2.356 1.439-.709.805-2.496 1.774-4.269 1.512-1.706-.25-5.1-1.247-5.39-1.318.194.181 1.706 1.665 2.37 2.828 0 0-1.938.97-5.144 1.428 0 0-2.923 0-4.168-.361-1.25-.36-2.399-.985-2.482-1.775-.098-.802.61-1.69.61-1.69s2.577.984 4.09 1.247c0 0-3.815-3.548-5.157-4.532 0 0 2.673.444 4.269.984 0 0-.18-.984-.806-2.052-.62-1.052.541-2.119 1.069-2.394.54-.266 3.02-1.234 3.644-1.678 0 0-1.594-1.33-3.384-2.314 0 0 3.467.359 5.243.886 0 0 1.428.097 2.937-.527 1.51-.622 2.036-.622 3.283-.443 1.233.181 1.386.527 2.206.609.816.098 1.607.015 1.607.015s-.528-.72-1.859-1.248c0 0 2.844.362 4.173 1.248 0 0 2.298.402 3.63 1.704 1.345 1.303-.083 3.09-.083 3.09m-37.987-9.147c-1.496 1.233-3.324 1.956-3.324 1.956s.22 1.537 1.094 2.425c0 0-1.677-.152-3.08-.957 0 0-1.244 1.4-1.384 1.982-.151.583-1.98 2.925-3.075 3.727-1.095.803-3.368 1.679-3.368 1.679s2.025 2.908 3.7 4.087c-.43-.18-6.069-2.648-8.383-5.03 0 0-.222 1.76.36 2.632 0 0-2.773 1.247-5.917.513-2.967-.693-5.933-2.815-6.264-3.062.346.055 3.09.567 4.864.567 0 0-4.021-1.97-4.754-3.948-.735-1.969-.512-4.241 1.69-5.266 2.191-1.027 4.089-.874 4.089-.874s5.28 2.479 8.34 3.213c0 0-4.016-2.632-5.041-4.321 0 0 2.853.083 3.656-.431.804-.512 1.385-1.828 2.926-2.342 1.537-.513 3.146-.665 3.146-.665s-1.455-.805-1.83-1.246c0 0 3.008.801 3.963.801 0 0 2.633.153 3.798.307 1.176.138 3.367-.596 5.197-.014 1.83.597 1.094 3.02-.403 4.267m-49.959-4.018c-.18 1.303-1.108 4.643-2.868 5.392-1.774.734-2.247.871-2.247.871v3.869s-2.633-2.356-3.185-3.107c0 0-.707.029-2.564-.248-1.857-.276-4.09 2.882-7.526 2.607 0 0-5.655-1.208-6.583-3.536-.928-2.315-.567-4.268-.193-4.919 0 0 1.954 2.509 3.34 3.241 0 0-1.29-2.964-1.29-4.821 0 0 1.11-.831 1.29-1.676.192-.832 2.33-2.136 3.63-2.413 1.302-.277 2.577.277 2.577.277s1.525 3.466 2.635 4.768c0 0-.473-6.805.083-9.216 0 0 1.412 3.133 2.162 4.156 0 0 1.552-.165 3.782-.539 2.233-.374 4.172-.18 5.474 1.108 1.303 1.304 1.677 2.883 1.483 4.186m-52.052 3.52c-.277 2.397-3.355 4.517-4.184 5.058-.82.555-2.356 1.648-2.815 3.188-.456 1.551-2.091 2.55-3.104 2.647-.997.083-2.356 1.537-2.356 1.537 1.428.348 3.438-.262 3.702-.346-.21.181-1.941 1.58-2.705 2.177-.817.637-3.545 1.274-4.544 1.177-1.012-.083-2.01 0-5.1-.083-3.103-.098-6.65-.372-7.718-2.328-1.013-1.857-1.442-1.913-1.485-1.913-2.189.998-6.734.957-6.734.957 4.38-1.815 8.122-5.916 8.122-5.916-2.356.997-5.032 1.397-5.032 1.397-.376-.637-.443-1.302-.359-2.673.097-1.357 1.37-2.094 1.37-2.094s.084-.72.999-1.913c.915-1.176 4.005-2.812 5.738-2.909 1.732-.098 3.906-.997 5.1-1.815 1.177-.818 5.362-2.55 7.454-2.37 2.093.18 2.925.54 2.925.54 1.179-.083 3.812-.54 3.812-.54-3.452 2.73-5.64 3.728-5.64 3.728 4.002-.458 7.468-2.092 7.468-2.092 4.088.277 5.363 2.19 5.086 4.585m-65.757 11.045s1.676.943 1.773 3.217c.097 2.273-.457 3.269.097 4.821.54 1.553-.374 2.633-2.55 3.91 0 0-2.19.456-4.38.276 0 0 1.65.817 2.37.914 0 0-2.37 1.996-5.736 1.177 0 0-4.089 2.456-7.191 2.012-3.093-.457-3.812-1.733-3.812-1.733s3.686-.665 6.319-1.024c0 0-4.81-1.11-6.362-2.01 0 0 .485-2.246 1.496-3.243 1-1.013.763-1.262.763-1.262s-3.949-.928-5.404-1.468c0 0 4.641-.71 6.098-1.248 0 0-.554-1.122 1.274-2.578 1.816-1.455 3.367-2.91 4.088-3.74.735-.82 4.284-.902 6.28-.363 2.006.555 1.994.555 3.09.555 1.094 0 5.749-.456 5.749-.456s-.914 1.44-3.962 2.243m336.814 75.044s-7.04 8.704-10.534 6.028c-3.505-2.673 1.83-6.25.71-13.208-1.113-6.956-23.923-30.39-52.736-47.672 0 0 13.332 5.503 26.208 12.335 15.742 2.59 19.43-1.51 20.275-3.203a24.013 24.013 0 0 0-1.734-2.576 12.44 12.44 0 0 0-2.34-1.233c-1.816-.694-3.532-.985-4.739-1.58 0 0-2.77-2.8-3.687-4.144 0 0-.292 1.22.47 2.675 0 0-2.133-1.87-4.089-2.274-1.95-.401-4.309-1.19-4.918-1.647-.596-.458-1.802-1.512-1.802-1.512s.057.956.346 1.663c0 0-2.007-.15-2.354-2.259-.347-2.105 1.303-2.965 1.303-2.965s-.154-.596 0-1.345c0 0 1.803 1.996 2.66 2.508 0 0 .388-1.275-.347-3.465-.22-.125-.443-.248-.665-.374a31.365 31.365 0 0 0-1.926-.968c-.513-.237-30.196-17.06-44.264-24.127a17.523 17.523 0 0 1-3.976-.833s-2.355-1.094-2.745-2.217c0 0-.165.581.18 1.219.597 1.081 1.857 2.232 2.23 3.73 0 0-2.342-1.388-4.266-2.386-1.691-.872-5.227-1.885-7.247-3.38a4.726 4.726 0 0 1-.957-.928 1.85 1.85 0 0 1-.209-.279 3.225 3.225 0 0 1-.415-.872 1.797 1.797 0 0 1-.083-.348c-.013-.055-.03-.096-.03-.152-.026-.153-.026-.277-.026-.374 0-.167.014-.264.014-.264.057.042.07.056.098.084a.36.36 0 0 0 .108.083c.028.029.083.069.14.112.833.72 1.733 1.523 2.787 1.814.08.028.177.057.26.07-.027-.042-.052-.084-.095-.125-.028-.042-.07-.082-.11-.125-.072-.083-.167-.195-.264-.303a12.666 12.666 0 0 1-1.9-2.776c-11.5-5.68-25.236-11.735-43.834-15.395-26.733-5.28-44.693-.83-44.693-.83s5.281.318 16.283 4.171c.694-.221 1.61-.595 2.426-1.178 1.582-1.135 2.607-1.36 3.284-1.36.682 0 3.604 3.494 3.604 3.494s-.318-2.702-.888-4.974c0 0 2.883-.25 3.978 0 1.611.374 2.94.913 3.509.913s.801-.679.801-.679 1.013.665 1.013 1.471c0 0 2.274 1.58 2.274 3.061 0 1.47-.348 3.395 0 4.31 0 0-.57.333-1.483-1.137 0 0-1.468 1.248-2.94 1.248a4.88 4.88 0 0 0-1.801.36c5.072 2.26 10.807 5.045 17.255 8.495 0 0 .732.515 1.274.914 0 0 .528-2.147.874-2.48 0 0 .665.598.803.944 0 0 .123-.943-.07-2.011 0 0 1.803-1.468 3.2-1.607 1.417-.14 1.956-.126 2.412-.402 0 0 .318-1.123-.153-2.314 0 0 2.358 1.371 2.826 3.118 0 0 .21-1.067.141-2.148 0 0 2.467-.402 4.283.07 1.8.47 3.005 1.08 3.41 1.745.403.667 1.523 2.912.899 3.395-.638.486-1.773.68-2.107 1.219-.333.528-.468.999-.94 1.331-.458.332-1.07.416-1.07.416s-.124 1.858.346 2.799c0 0-.954-.124-1.426-1.26 0 0 .22 1.053-.456 1.801-.666.734-1.126 1.193-1.79 1.387 0 0-1.65-1.567-1.786-2.178 0 0 .181 3.701-.456 3.007 0 0-3.483-3.074-4.176-3.45 0 0-1.495.222-2.088.153-.608-.056-2.676-.86-3.076-1.54 0 0-.072.807 1.063 1.609 0 0-1.023-.165-1.41-.346 0 0-.597.68-1.666.957 0 0 1.07 1.205 1.542 1.662 0 0-2.11-.374-3.065-1.387 0 0-1.218.057-2.552-.346-1.342-.402-2.15-.263-3.354-.07-1.202.196-1.4.07-2.27-.136-.874-.196-3.273-1.54-3.273-1.54s.403 1.069.806 1.415c0 0-.21.872-2.148.33-1.94-.54-2.013-1.136-3.009-1.744-1.01-.596-1.676-1.468-1.466-2.204.194-.734.802-1.275.802-1.275s.597.541 1.66 1.01c0 0-1.798-2.27-2.007-3.076 0 0 .944.194 1.416.262 0 0 .33-1.273 3.142-1.868a36.1 36.1 0 0 1 2.373-.43c-7.75-2.41-18.558-5.433-31.058-7.94-.208.235-.374.47-.526.722a8.98 8.98 0 0 0-.485.912c-.457.944-.805 1.9-1.539 2.521 0 0-5.807-1.814-7.676-2.74 0 0 2.936 2.41 4.986 3.503 0 0-1.76 2.924-7.899 2.233 0 0-2.84 1.234-5.073.996-2.215-.234-5.596-1.69-6.29-2.84-.692-1.152-.61-3.534 1.775-4.92 0 0 3.256 1.983 4.863 2.897 0 0-2.869-3.575-2.647-4.726 0 0 1.025-.845 2.245-1.58-1.427-.194-2.87-.373-4.323-.526-13.138-1.484-24.766-1.705-35.311-1.109.833 1.205.664 2.327 1.33 3.534.804 1.47-.375 2.134-.375 2.134-.874-.722-4.532-2.273-4.532-2.273 1.387 1.317 2.567 3.146 2.567 3.146-.875.514-3.204.97-5.712 1.094-2.507.113-6.07 2.19-6.07 2.19-1.496-.444-2.77-1.967-4.031-3.132-.236-.206-.459-.388-.626-.539-.054-.057-.125-.098-.165-.14a.502.502 0 0 1-.097-.083c-.041-.012-.083-.055-.125-.081.056.054.111.261.151.398 0 .017 0 .03.014.043 0 .014 0 .028.014.042.083.223.168.43.252.637.177.416.373.846.594 1.248.637 1.22 1.4 2.368 2.164 3.505.012.014.026.043.04.057.319.511.61.984.859 1.37.11.154.207.292.29.445.028.041.04.069.056.097.043.055.07.097.098.152.043.084.083.125.11.166.014.028.043.07.056.099.04.041.055.081.067.11-.317-.403-1.314-.597-1.798-.761-.029-.016-.058-.016-.084-.03-.831-.332-1.61-.761-2.37-1.246-.015-.015-.03-.028-.042-.028-.346-.237-1.36-1.165-1.773-1.01 0 0-.085.025-.25.082-.042.014-.11.027-.168.054-.095.028-.208.056-.317.085-.125.027-.25.068-.402.11-.124.027-.263.055-.417.082-.18.042-.387.07-.595.112a9.64 9.64 0 0 1-1.067.125h-.055c-.443.026-.943.04-1.442.014-2.564-.154-5.709-2.342-7.899-4.547a3.365 3.365 0 0 1-1.054-2.424 210.385 210.385 0 0 0-6.721 1.704c-3.269.761-21.05 4.74-39.218 8.815.11 1.26-.417 2.618-.417 3.325 0 1.263 1.011 2.218 1.011 2.218-2.077.165-5.75-1.221-5.75-1.221 1.04 1.483 4.033 3.188 4.033 3.188s-.43 1.648-1.803 2.218c-1.372.567-2.412.346-4.115.221-1.72-.11-3.201.694-5.377.805-2.176.11-4.837-1.234-4.837-1.234 2.4.221 4.185-1.399 4.185-1.399-3.075-.348-4.03-1.483-4.379-2.163-.249-.5-1.01-1.178-1.705-1.678-13.344 2.98-23.668 5.295-23.668 5.295-8.453 1.136-15.286 1.995-15.286 1.995-.415.514-.972 1.358-.25 1.61 0 0 1.398.456 3.145.58 1.65.112 3.492 0 3.492 0s-6.748 3.148-7.564 3.37c-.819.233-1.873 1.286-1.873 1.286s-.026.015-.055.043c-.028.029-.082.07-.125.11a.225.225 0 0 1-.069.055l-.125.126c.473-.208 1.068-.403 1.62-.473 1.013-.137 2.218.804 2.218.804s1.07.195 2.135-.207c1.095-.386 3.325-.332 3.214-.306-.692.113-1.385.585-2.05.585.54 0 1.275.372 1.704.677 1.982 1.345-.528 3.09-1.814 3.713-1.967-.221-3.189.557-3.189.557s2.536 0 2.412.733c-.137.734-1.275 1.206-2.48 1.468-1.205.265-2.15 1.47-2.15 1.47.541.07 1.013.595 1.013.595s-1.275.14-1.468.277c-.209.125-.874 1.608-1.414 2.273-.528.666-2.399 1.137-2.399 1.137.859.472 3.604.803 3.604.803-1.511.542-3.282.639-3.893.665.428.266 4.615 2.925 4.767 3.024.012 0 .012.012.028.012.886.21 1.773.414 2.659.625 10.062 2.314 20.374 4.67 30.698 5.264 6.237.36 12.542-.58 18.666-1.662a159.764 159.764 0 0 0 11.183-2.328c-1.676 1.83-3.504 3.686-5.61 5.003.095-.028.207-.056.304-.083 12.458-3.063 24.903-6.166 37.388-9.105 7.83-1.843 15.771-2.592 23.727-2.746.873-.566 1.997-1.05 3.547-1.106 2.87-.097 5.6.581 7.54 1.248 3.201.137 6.403.318 9.604.552-1.194-2.023-2.993-3.947-5.169-4.89 2.87 0 5.737.068 8.605.178 16.077.596 32.264 1.775 48.075 4.85 3.894.749 7.8 1.609 11.683 2.538.04-.015.29-.095.485-.487.192-.442.098-1.412.996-1.607.903-.208 2.51.597 2.911.805.403.192 2.676 1.62 3.396 1.966.417.194.596.888.665 1.484 2.134.597 4.253 1.206 6.374 1.857-.013 0-.013-.014-.028-.026-.041-.017-.082-.057-.122-.085a1.87 1.87 0 0 0-.181-.124c-.04-.04-.097-.07-.141-.11-.108-.084-.235-.169-.37-.266-.015 0-.03-.012-.03-.012a14.56 14.56 0 0 0-.485-.332c-.042-.03-.082-.056-.124-.084-.124-.084-.252-.181-.389-.264a.754.754 0 0 0-.177-.11c-.126-.084-.25-.167-.377-.25-.055-.04-.125-.068-.18-.108l-.54-.335c6.555-4.74 15.77-3.701 15.77-3.701s2.108.278 3.658.806c0 0 2.108-1.04 3.672-.874 1.567.165 4.394 1.636 4.66 2.534.245.904-.529 3.687-1.04 4.81-.529 1.123-3.34 2.84-4.935 3.383 0 0-.07-.141-.192-.348-.046-.068-.099-.138-.156-.221a6.49 6.49 0 0 0-1.688-1.733c.011.042.04.139.068.263.03.085.054.166.086.265.012.068.04.15.052.234.028.07.04.141.057.209.083.29.151.637.22.97.053.29.096.567.125.817 0 0-.332.18-.817.514 9.425 3.948 17.904 9.423 26.01 15.631 4.73 3.616 9.563 7.499 14.9 10.172.331.166.65.318.985.457.886.375 1.802.694 2.685.999 5.323 1.83 10.88 1.205 16.064-.707h.012l.294-.25c.344-.333.662-.68.953-1.04.278-.36.543-.72.794-1.095v-.014c.135-.221.274-.455.386-.692 1.691-3.16 1.802-6.847 1.245-10.241-.01-.154-.039-.305-.066-.471-.07-.43-.154-.846-.25-1.262a34.968 34.968 0 0 0-1.013-3.505 41.894 41.894 0 0 0-1.108-2.856 16.7 16.7 0 0 1-.333-.748c-.055-.124-.112-.236-.165-.345-.1-.21-.195-.403-.278-.585-.055-.097-.096-.194-.152-.275a2.901 2.901 0 0 1-.113-.236c-.052-.098-.094-.18-.137-.25-.04-.082-.069-.138-.084-.167a50.417 50.417 0 0 1 3.716 3.466c3.327 3.05 8.8 8.702 12.18 15.45 5.086 10.16 6.957 16.853 6.957 18.724 0 1.873-4.281 1.345-7.499 1.067-3.2-.262-19.523 1.345-25.15 4.02h.027c3.729-.874 7.483-1.457 10.934-1.497 9.993-.124 23.975 2.758 28.159 6.486l.181.07s3.007 2.216 2.33 4.933c-.568 2.26-2.802 4.032-6.655 4.267 0 0-.137 2.523 1.386 4.908 1.525 2.368 4.741 5.278 4.741 5.278 4.67.706 9.313 1.62 13.93 2.633.04.014.08.03.135.042 2.536.844 5.338 1.22 7.927 1.885 1.458.387 2.911.761 4.366 1.164 3.188.872 6.361 1.801 9.51 2.827a192.94 192.94 0 0 1 6.01 2.036c.528.182 3.024 1.456 3.383 1.193.998-.705 6.584-4.6 10.962-5.446 4.824-.928 9.34-2.744 9.34-8.164-.471-5.667-4.945-11.541-9.824-15.465" fill="#D7A229"/><path d="M403.035 187.927c-2.467 5.087-15.564-1.745-29.615-3.006-14.04-1.261-32.939 4.186-32.939 4.186.136-.112.29-.237.454-.362 1.344-.995 2.813-1.802 4.31-2.55a73.495 73.495 0 0 1 3.77-1.76 83.885 83.885 0 0 1 13.873-4.587h.027c3.73-.873 7.483-1.456 10.934-1.496 9.992-.125 23.974 2.758 28.16 6.486 1.11.984 1.539 2.022 1.026 3.089" fill="#000"/><path d="M397.864 194.109s-.138 2.52 1.387 4.906c1.524 2.368 4.74 5.28 4.74 5.28-.914-.138-1.83-.279-2.746-.402a213.12 213.12 0 0 0-11.07-1.276 196.47 196.47 0 0 0-5.127-.386c-.318-.028-6.169-.291-6.835-.306-5.93-.154-11.903.095-17.805.095h-.292c-1.982-2.672-9.413-13.286-19.636-12.914 0 0 18.9-5.446 32.94-4.186 14.05 1.26 27.148 8.095 29.614 3.007.513-1.066.084-2.105-1.026-3.088l.182.068s3.007 2.217 2.33 4.935c-.569 2.257-2.803 4.03-6.656 4.267" fill="#9F792C"/><path d="M393.447 231.81c-2.161.997-4.35 1.91-6.607 2.686-1.108.374-2.216.72-3.34 1.025-3.987 1.094-8.004 1.496-12.119 1.745-.11.014-.261 0-.457-.027.043-.097.071-.208.099-.305.041-.194.083-.374.097-.54.249-2.466-2.383-4.294-2.383-4.294l-.083-.041c-.083-.042-.153-.07-.235-.111a.127.127 0 0 0-.099-.042 331.692 331.692 0 0 0-5.138-2.354 273.263 273.263 0 0 0-9.03-3.865c-.553-.235-1.149-.457-1.744-.706-.43-.18-.859-.36-1.288-.526a343.1 343.1 0 0 0-21.179-7.563 396.336 396.336 0 0 0-12.963-3.92c-.692-.193-1.385-.4-2.077-.595-7.3-2.105-15.306-4.224-24.003-6.316-5.706-5.36-11.331-10.734-17.368-15.664 40.124 10.678 67.59 22.479 81.55 29.21 4.973 2.313 8.353 4.058 10.069 4.986 1.552.471 3.727.734 4.847-.845 2.313-3.268-1.646-6.08-1.646-6.08s-35.194-18.601-101.248-32.188c-6.509-4.626-13.406-8.49-20.179-12.673-2.34-1.44-4.75-2.95-6.759-4.848-1.025-.956-2.12-2.16-2.258-3.629a4.305 4.305 0 0 1 0-.845c0-.014.014-.041.014-.055a3.641 3.641 0 0 1 .125-.707c.014-.041.041-.083.041-.124a5.89 5.89 0 0 0 .153-.457 2.1 2.1 0 0 1 .11-.263c.596-1.386 1.663-2.646 2.73-3.532.151-.125.29-.263.47-.416.11-.097.222-.166.332-.277.153-.124.291-.235.43-.36.166-.125.332-.277.457-.388.014-.014.014-.014.028-.014.055-.041.11-.097.166-.138.027-.028.069-.056.097-.083l.027-.028c.056-.041.097-.07.125-.11a.72.72 0 0 1 .07-.042s.027 0 .069-.014h.013c0-.014 0-.014.014-.014.083-.028.236-.055.416-.097.166-.041.582-.138.595-.152 2.826-.707 5.818-1.427 8.85-1.912a57.147 57.147 0 0 1 3.048-.401c1.094 3.545 5.942 8.795 5.942 8.795-2.3.166-5.25-.651-5.25-.651 4.266 5.734 16.08 12.95 25.264 14.75 9.196 1.801 17.548 1.469 17.548 1.469-1.302.664-3.436 1.482-3.436 1.482s3.602-.167 8.52.817c.636.124 1.329.29 2.077.498 3.268.845 7.297 2.189 9.666 3.02.278.083.541.18.763.263.014 0 .028.014.04.014.015 0 .03.014.03.014.733.484 1.44.955 2.132 1.44 4.1 2.729 8.004 5.762 11.732 8.975 1.08.928 2.146 1.87 3.185 2.826 1.69 1.55 3.213 3.227 4.876 4.792-.14-.125-.167-.762-.222-.956-.097-.36-.236-.72-.375-1.08-.304-.748-.582-1.51-.9-2.244a50.165 50.165 0 0 0-2.09-4.349c-1.538-2.84-3.299-5.554-5.222-8.158a90.466 90.466 0 0 0-3.395-4.293c-.859-.998-1.758-1.967-2.658-2.95-.72-.79-1.593-2.217-2.66-2.563 0 0-.013 0-.027-.014-.028-.014-.042-.028-.055-.028.872.028 1.69.097 2.479.194.263.028.512.056.762.097.346.042.663.097.997.167.872.152 1.676.36 2.436.595.291.083.57.18.846.277.277.097.54.194.804.305.526.208 1.025.443 1.496.679.235.11.47.235.692.36.222.124.443.263.651.387.208.139.414.264.623.402l.582.416.332.249c.222.166.442.346.651.526.248.208.471.416.693.637.137.111.263.236.374.36a16.553 16.553 0 0 1 2.368 3.048c.11.193.22.374.319.567a16.145 16.145 0 0 1 1.385 3.228c.041.11.068.207.083.29.097.347.139.554.139.554 10.221-.374 17.659 10.236 19.64 12.909h.083c-.016 0-.042 0-.071.014l.055.028a165.3 165.3 0 0 1 4.863 2.714c.291.166.582.347.859.513.402.235.802.484 1.204.72 1.4.817 2.813 1.648 4.184 2.535 3.712 2.326 7.617 4.82 10.775 7.95a6.72 6.72 0 0 0-1.731.207c-.568.139-1.136.305-1.662.458 3.934 2.77 7.507 6.024 10.693 9.598.414.457 3.96 5.055 4.072 5.055" fill="#D7A229"/><path d="m348.906 351.971-6.475-4.202-.843-9.312s9.173 6.003 7.318 13.514m-21.87-20.416s-5.156 20.068-29.187 32.984c0 0-18.321-6.21-28.339-29.228-8.094-18.613-.375-53.463-11.227-73.171-7.193-13.097-19.928-16.144-19.928-16.144s7.928-4.546 24.447.802c27.204 8.785 30.168 44.346 30.6 51.65.846 14.358 3.325 32.9 12.763 37.929 0 0-5.56-7.687-5.724-25.858-.498-54.02-19.194-61.641-19.194-61.641s22.825 3.741 28.967 23.06c6.137 19.332-3.744 48.964 16.822 59.617M446.51 222.796c-.807 7.22-12.045 17.654-12.045 17.654-1.608-4.004-7.623-13.636-7.623-13.636s1.608-4.018-4.421-9.242c-6.013-5.212-22.478-5.212-22.478-5.212s4.435-2.522 10.035-2.01c14.719 1.345 36.533 12.446 36.533 12.446" fill="#006778"/><path d="M78.277 111.512c.194.306.056.653-.152.819-.028.015-.042.027-.07.041-.15.083-.553.125-1.053.167-.733-.084-2.48-.444-3.241-.32 0 0 .455.375.83.721 0 0-1.898.748-2.328 1.525 0 0-1.579-.166-2.716.236-.664.22-.957.527-1.303.747a82.8 82.8 0 0 0-.776.293c-.069.012-.126.026-.207.026-1.068.07-1.928-.47-1.928-.47l.389.802s-3.064 0-3.741 1.04a166.783 166.783 0 0 0-7.553-3.548 194.773 194.773 0 0 0-7.263-2.978 204.163 204.163 0 0 0-14.967-5.115 128.186 128.186 0 0 0-4.504-1.288 67.955 67.955 0 0 0-3.353-.86h.083c2.05 0 4.076-.055 6.125-.18 13.79-.846 27.606-.528 41.41-1.262 2.508-.137 5.03-.29 7.539-.47-.416.513-.971 1.357-.25 1.607 0 0 1.398.457 3.144.584 1.651.109 3.493 0 3.493 0s-6.749 3.146-7.565 3.367c-.818.234-1.872 1.286-1.872 1.286s-.027.017-.054.045c-.028.027-.083.067-.125.109a.256.256 0 0 1-.07.055l-.124.126c-.39.153-.694.304-.846.387-.331.209-1.61.278-1.61.278s1.527.651 2.192.527c.015.013.015.027.026.054.015.112.084.527.721.818.554.25 1.36.5 1.72.831m58.372 34.633c-.36.181-.721.375-1.095.57-2.384 1.481-4.824 2.866-7.374 4.059-.028.014-.07.028-.11.055-.846.402-1.692.791-2.55 1.164-.013.014-.04.014-.055.027-.029.014-.043.014-.072.028a113.502 113.502 0 0 1-7.037 2.773 94.93 94.93 0 0 1-5.655 1.8c-13.539 3.95-21.786 3.854-21.786 3.854.915.415 2.147.788 3.272 1.038 4.073.916 13.83 1.775 14.288 1.913a7.057 7.057 0 0 0-.32.179c-.068.029-.138.07-.237.113-10.142 4.295-21.076 6.22-32.081 5.777-20.053-.83-30.807-6.415-31.18-6.832 0 0 5.626-.9 8.897-1.994 0 0-14.899-4.905-20.525-8.538 0 0 6.085.14 7.996.18-2.175-1.731-4.17-3.465-6.014-5.072-10.616-9.23-17.643-21.271-16.352-26.705-4.13-5.527-9.993-6.97-9.993-6.97 17.863-1.649 34.396 5.197 51.871 16.117 7.319 4.573 12.931 9.812 19.471 13.97-4.309.72-13.775 1.274-31.694-1.872 0 0 10.367 6.597 29.977 9.05 11.93 1.482 23.586 1.164 31.598.596 9.31-.666 18.111-1.844 26.76-5.28m354.428 85.118c-.21 2.288-.664 4.712-1.428 7.29-.804 2.659-1.398 5.57-4.615 5.75-2.326.126-4.64-.123-6.97-.263-1.347-.083-4.06-.497-4.823 1.026-2.29 4.56 6.774 4.31 9.133 4.406.345.015.692.015 1.04 0-9.591 10.575-25.112 13.374-26.068 13.543-.044.011-.057.011-.057.011-.124-.18-.261-.375-.43-.594-2.494-3.176-10.088-9.702-25.552-11.421l-.113-.015a37.182 37.182 0 0 1 2.52-3.241c6.419-7.36 16.465-13.54 27.4-18.848 15.257-7.4 21.066-21.938 21.066-21.938s2.091 1.774 4.269 5.142c-.665 1.94-2.302 4.907-6.35 7.83 0 0-2.742 1.635-1.745 3.532.985 1.915 3.144 1.262 4.252.639.751-.416 2.844-1.747 4.535-4.629.762-1.15 1.303-2.19 1.634-2.965a29.29 29.29 0 0 1 2.19 8.134c.043.374-1.219 1.385-1.454 1.608-.86.846-1.803 1.565-2.8 2.23-2.757 1.857-5.764 3.022-8.829 4.27-1.08.443-2.798 1.496-3.02 2.742-.375 2.025 2.41 2.455 3.84 2.233.096-.015.22-.028.36-.057 2.093-.372 8.468-1.898 12.015-6.415M366.1 366.741c-4.863.347-8.273-3.367-8.273-3.367-12.304-1.677-26.302.928-26.302.928s-7.22 7.623-17.448 8.94c-10.226 1.315-10.117-3.285-9.561-4.546.552-1.29 5.321-3.603 14.037-12.665 8.717-9.064 16.272-27.606 16.272-27.606 2.05 6.028 2.867 12.487 2.216 18.834a38.684 38.684 0 0 1-.942 5.474 41.112 41.112 0 0 1-3.093 8.396c1.677-3.366 5.366-6.11 8.55-7.996 1.112 1.33 2.025 2.788 2.928 4.268.166.29 1.773 2.51 1.608 2.814 1.593-2.964 9.59-8.357 9.59-8.357 1.924 1.886 3.493 5.695 3.493 5.695 6.566-4.82 21.147-28.16 21.147-28.16.762 17.977-9.355 37.017-14.222 37.348m84.385-94.721c-1.177 5.254-19.317 24.57-28.826 28.146 0 0 8.12-13.025 10.658-26.44-2.286 1.926-5.835 4.477-9.797 5.765 0 0 .289-6.57-1.444-9.702 0 0-5.015 5.073-10.642 8.565 0 0-3.504-5.614-4.378-9.77-4.06 6.18-10.725 14.746-18.779 18.915 0 0 .442-5.68-.983-13.761 7.579-1.829 14.44-4.032 19.636-5.847 3.506-1.968 9.439-3.854 10.853-3.965.194-.026 4.975-1.025 4.475 2.468 0 0 5.932-4.572 10.727-2.953 1.594.556 2.439 1.374 2.884 2.302 2.354-1.511 6.566-3.755 9.988-2.965 5.049 1.134 6.78 3.991 5.628 9.242m-64.579 1.817c-.181.54-.485 1.37-.886 2.382-3.812 6.834-16.243 25.874-39.912 32.51 0 0 14.605-14.84 12.986-31.289 9.243.11 18.999-1.497 27.812-3.603" fill="#FFF"/><path d="M395.719 118.663s-2.9-2.55-3.91-3.435c0 0 1.414 3.352 1.636 4.072 0 0-2.73.097-4.214-1.052-1.483-1.148-3.615-2.507-3.063-2.507 0 0 .666.039 1.221.125 0 0-1.69-2.038-4.587-2.205 0 0-1.762.403-3.787-.624-2.022-1.039-2.864-2.094-2.864-2.094s-1.11-1.231-1.319-2.813c0 0 1.984 1.388 2.955 1.774 0 0-1.75-2.493-1.75-3.976 0 0 1.248-.25 2.813.346 1.582.597 2.013.125 2.013.125s-.682-.887-.943-1.788c0 0 1.994 1.663 2.842 2.038 0 0 2.467-.763 4.336.04 1.867.805 3.99 2.883 4.323 3.27.319.362 1.58 1.318 1.734 1.429-.126-.167-1.108-1.484-1.375-2.521.154.097 1.388.899 1.944 1.177.592.306 1.733 1.496 1.955 2.258.205.763-1.028 1.997-1.028 1.997s1.62 2.078 1.62 2.924c0 .843-.552 1.44-.552 1.44m15.964 13.139c-.404.608-1 .608-1 .608s-3.616-2.161-4.572-2.618c0 0 1.815 2.814 2.065 3.465 0 0-3.116-.458-3.922-1.552 0 0-3.508-.86-4.767-1.705-1.248-.86-2.26-2.162-2.26-2.869 0 0 2.012.957 3.023 1.413 0 0-2.718-3.269-3.562-4.06 0 0 .941-1.01 2.106-1.315 1.148-.293 1.705-.293 2.15-.251 0 0 .055-.693-.5-1.302 0 0 3.257 1.954 4.768 3.52l-.404-1.413s2.607.65 3.812 1.814c1.205 1.151 1.802 2.454 2.162 3.05.345.61 1.304 2.618.901 3.215m-41.685 91.95c-1.124 1.58-3.302 1.317-4.853.845-1.717-.928-5.097-2.675-10.06-4.99-13.97-6.733-41.439-18.528-81.558-29.212a637.012 637.012 0 0 0-45.827-10.38c-10.465-1.968-20.153-3.56-29.131-4.823a650.23 650.23 0 0 1 68.53 10.283c66.06 13.595 101.247 32.191 101.247 32.191s3.967 2.814 1.652 6.086m-77.206-79.659s-1.94-1.245-3.035-1.551c.22.221 2.438 2.494 1.193 2.785 0 0-1.11-1.288-3.12-2.188-2.01-.902-5.709-2.718-6.818-3.715-1.04-.943-1.718-2.939-1.788-3.188.124.166.735.984 1.288 1.08.555.097 2.19 1.151 2.397 1.29-.069-.165-.637-1.54-1.3-2.092-.694-.61-2.399-1.415-3.3-2.51l.998-.303s.278-1.968-.165-3.91c-.014-.068-.014-.138-.041-.208-.5-2.008-.266-3.171.234-3.574 0 0 3.367.11 4.367.47-.362-.164-1.873-.927-2.87-1.717.041-.015.29-.096.485-.487.194-.44.098-1.412.997-1.607.902-.208 2.51.597 2.91.805.403.192 2.676 1.62 3.396 1.966.417.194.596.888.665 1.485a257.45 257.45 0 0 1 6.374 1.856c.057.043.084.07.124.098 0 0 .017.013.03.013a.366.366 0 0 1 .067.055c-1.261-.306-3.865-.665-5.083-.832-.363.361-1.165 1.163-1.498 1.58 0 0-.734.957-1.164 3.409-.138.79.304 2.606 1.108 3.314.804.693 3.312 3.007 3.714 4.1.404 1.11-.33 2.828-.165 3.576m-2.108-42.683c-1.495 1.232-3.324 1.955-3.324 1.955s.22 1.537 1.094 2.425c0 0-1.677-.152-3.079-.957 0 0-1.245 1.399-1.385 1.982-.15.583-1.98 2.925-3.076 3.727-1.095.803-3.367 1.679-3.367 1.679s2.024 2.908 3.7 4.087c-.43-.181-6.068-2.648-8.383-5.03 0 0-.221 1.76.36 2.633 0 0-2.772 1.246-5.918.512-2.967-.693-5.932-2.814-6.263-3.062.346.055 3.089.568 4.863.568 0 0-4.02-1.97-4.752-3.95-.737-1.967-.513-4.24 1.688-5.267 2.191-1.024 4.09-.872 4.09-.872s5.279 2.48 8.341 3.213c0 0-4.017-2.633-5.043-4.321 0 0 2.855.083 3.658-.43.802-.515 1.385-1.83 2.924-2.343 1.539-.512 3.148-.665 3.148-.665s-1.457-.805-1.831-1.248c0 0 3.007.804 3.964.804 0 0 2.632.152 3.796.306 1.178.138 3.369-.596 5.198-.014 1.83.597 1.093 3.02-.403 4.267m28.551 28.841c-.53 1.123-3.341 2.839-4.935 3.382 0 0-.068-.142-.193-.348-.044-.068-.097-.138-.154-.222a6.52 6.52 0 0 0-1.69-1.732c.013.043.04.138.07.263.028.084.054.166.084.264.013.068.04.151.053.235.03.069.042.14.057.209.084.29.152.637.22.97.054.29.097.567.125.816 0 0-.333.18-.817.514-.653.457-1.62 1.179-2.507 2.051-.693.665-1.331 1.415-1.762 2.217-1.399 2.579-1.29 4.531-1.29 4.531s-1.206-.512-2.297-1.357c0 0 .552 2.328 2.522 3.312 0 0 1.12 1.483.637 2.605 0 0-3.45-.277-4.256-.928-.805-.665-3.367-1.594-3.367-1.594s.858-.139 1.774-.083c0 0-.93-2.258-1.815-3.02-.887-.749-2.677-2.122-2.274-3.867 0 0 2.107.15 3.117.553 0 0-3.325-2.881-5.362-3.34l2.787-.15s-.377-1.97 3.16-3.689c3.546-1.717 4.639-2.811 5.39-3.92.734-1.109 1.038-2.245 1.966-2.91 0 0 1.734.984 3.106 2.023 0 0-.791-2.342-3.298-4.061 0 0 2.107.277 3.656.805 0 0 2.108-1.04 3.674-.874 1.567.164 4.394 1.635 4.659 2.534.246.903-.53 3.687-1.04 4.81m9.436-19.693s-1.846-.456-2.563-.706c.137.209 1.234 1.786 1.497 2.646 0 0-1.677 1.11-2.967 1.402-1.288.29-1.65.65-2.356 1.44-.709.804-2.496 1.773-4.268 1.51-1.707-.25-5.1-1.246-5.391-1.317.194.181 1.706 1.663 2.37 2.828 0 0-1.938.968-5.144 1.428 0 0-2.923 0-4.17-.361-1.247-.359-2.397-.985-2.481-1.774-.097-.804.612-1.69.612-1.69s2.576.983 4.089 1.246c0 0-3.815-3.548-5.158-4.532 0 0 2.674.444 4.268.984 0 0-.18-.984-.804-2.051-.62-1.053.541-2.12 1.069-2.395.54-.266 3.018-1.234 3.644-1.677 0 0-1.594-1.331-3.384-2.315 0 0 3.467.359 5.241.887 0 0 1.43.097 2.94-.528 1.508-.623 2.035-.623 3.282-.443 1.233.181 1.386.527 2.205.61.817.097 1.608.014 1.608.014s-.528-.721-1.859-1.248c0 0 2.844.36 4.173 1.248 0 0 2.298.402 3.63 1.704 1.345 1.303-.083 3.09-.083 3.09m51.664 17.836s.624 1.595.983 2.315c0 0-2.132-.887-4.003-.887 0 0-.834 1.26-2.814.845-1.982-.401-3.923-1.911-3.923-1.911s1.775.08 3.186.08c0 0-.622-.705-2.3-1.065-1.688-.346-2.688-.638-3.88-1.568 0 0-.29.945.5 1.568 0 0-2.662.706-3.105-1.954-.442-2.66-1.955-2.48-.885-4.435 1.05-1.927 3.254-1.94 3.325-1.94 0 0-1.9-1.164-3.147-1.872 0 0 4.352 1.151 7.718 3.187 0 0-.262-1.33-1.064-2.036 0 0 2.314-.708 4.89 1.068 2.563 1.773 2.66 3.367 4.616 4.697 1.955 1.33.79 3.382-.097 3.908m-29.295 1.511s-1.206.984-1.594 1.69c-.375.694-1.414 2.3-2.58 2.745 0 0-1.234 1.594-2.564 1.691-1.33.082-2.231-.223-3.116-.264-.875-.042-4.435 0-7.094-2.661 0 0 3.809.528 4.792.528 0 0-3.382-2.482-4.087-3.549 0 0 .983-.624.885-1.51-.083-.887-.359-1.692.541-2.662 0 0 3.106 1.068 4.963 1.33 0 0-2.038-2.051-4.076-3.726 0 0 1.263-.127 2.759.47 0 0 .612-.125 2.034-1.274 1.414-1.151 4.173-.847 5.766.207 1.596 1.04 3.107 3.175 3.107 3.175s1.87.97 3.104 3.005c0 0-3.229-2.106-5.78-2.465 0 0 2.331 2.12 2.94 3.27m11.903-21.48c-.095 1.234-.985 2.217-2.496 2.396-1.51.169-2.397-.442-2.922.265-.528.706-1.331 1.412-2.136 1.592 0 0-5.141-3.187-7.374-4.35 0 0 1.874 2.397 2.315 3.38 0 0-3.101.264-5.239-.622-2.131-.887-3.56-1.636-5.058-2.287-1.508-.637-3.104-2.772-3.104-2.772s2.484 1.151 3.813 1.511c0 0-2.217-2.494-2.302-3.285 0 0 1.676-.444 2.48-1.426.75-.916 2.95-1.513 4.616-1.593h.359c1.692 0 5.865 2.216 7.9 3.727 0 0-1.774-2.482-3.104-3.727 0 0 3.189 0 3.992-.265.805-.277 2.66-.457 3.992.166 1.245.582 1.954 1.87 2.036 2.038-.167-.07-1.484-.626-2.48-.874 0 0 0 1.068 2.133 2.579 2.136 1.496 2.66 2.3 2.58 3.547M198.973 247.585s1.717 3.449 1.856 6.371c.124 2.923-2.258 3.85-4.64 4.779-2.396.928-5.056.401-5.845-.125-.803-.54-2.133-.402-2.133-.402.79-1.066 4.127-3.324 4.127-3.324-3.2.277-6.122 2.258-6.122 2.258s-5.041.803-7.7.803c-2.646 0-6.76-2.52-6.76-2.52-1.592 0-3.85 1.19-3.85 1.19 1.191-2.008 6.371-5.72 6.371-5.72-2.396.527-5.443 2.521-5.443 2.521-.928-.928-5.457-3.712-6.648-4.64-1.191-.928-1.98-2.257-1.593-4.917.402-2.645 3.449-2.922 6.233-3.047 2.812-.124 6.648-.138 6.648-.138-1.122.872-1.884 2.451-1.967 2.645.554-.803 4.737-2.812 4.737-2.812s4.53-1.288 7.59-2.617c3.047-1.33 5.831-1.053 8.629.665 2.798 1.717 5.443 7.036 5.443 7.036 2.12-.873 5.513-1.385 5.928-1.44-1.731.816-4.861 3.434-4.861 3.434m-65.013-68.624c-1.08.708-1.177 1.455-2.01 2.524-.844 1.08-5.97 1.314-5.97 1.314-3.106-1.08-7.153-1.08-7.153-1.08 2.025.597 4.766 1.442 4.766 1.442s-2.867.47-5.25.235c-2.386-.235-3.701-2.868-5.005-4.658-1.315-1.785.237-4.53.237-4.53a6.226 6.226 0 0 0-1.552-.722c2.619-.233 7.51.126 7.51.126-2.257-.72-4.822-1.219-4.822-1.219s.29-1.29.888-2.606c.597-1.304 3.464-.956 4.656-.833 1.191.126 2.743-1.315 3.603-1.591.86-.292 3.56.637 4.989 1.12 1.426.471 1.55 1.553 1.55 1.553-1.315-.125-3.228.237-3.228.237l4.656 1.303s3.105 1.551 3.576 3.104c.486 1.551-.347 3.589-1.44 4.281m28.017 41.823c-.845 2.84-.166 4.183-.166 7.023 0 2.853-3.518 4.03-9.03 4.861-5.513.831-7.854-.997-7.854-.997l.831-1.856c-1.842.332-7.202.512-7.202.512 3.518-1.523 8.033-4.695 8.033-4.695-2.16.845-6.662 1.925-6.662 1.925s-1.357-.97-2.7-2.244c-.942-.872-1.87-1.897-2.341-2.853-1.177-2.34.83-5.858 1.662-7.188.845-1.344-.665-2.175-.665-2.175 1.344-1.01 2.34-2.673 2.34-2.673-.027 0-.04.014-.068.014-2.978.651-5.776.817-5.776.817l-.014-.014c-1.662-1.33-2.327-4.169-1.994-5.678.332-1.496.997-3.85.997-3.85h-.056c-.554.055-1.163.013-1.73-.07-.97-.125-1.815-.36-2.037-.415l-.014-.014c6.344-.831 9.516-3.172 9.516-3.172-.028 0-.056.014-.084.014-1.675.318-4.584.485-4.584.485v-.014c.028-.18.235-1.87 1.496-2.715.47-.319 1.454-.319 2.631-.152.665.097 1.385.235 2.12.415.346.083.692.166 1.038.263 1.274.347 2.493.72 3.366 1.011.028 0 .028.014.055.014 2.507.845 3.684 4.183 3.684 4.183.68 2.16 1.746 3.726 3.006 4.903.014.014.028.028.042.028a11.39 11.39 0 0 0 1.856 1.33c.249.166.512.304.789.415.263.125.526.25.803.36.804.333 1.62.596 2.41.803.513.139 1.025.264 1.51.36.25.056.499.111.734.167.443.097.845.263 1.219.485 1.122.637 1.939 1.8 2.493 2.95l.014.014a14.475 14.475 0 0 1 1.163 3.587c-1.163 1.994-4.349 3.836-4.349 3.836 1.51.333 3.518 0 3.518 0m-39.062-108.829s1.677.943 1.774 3.216c.097 2.274-.458 3.27.097 4.823.54 1.551-.375 2.633-2.55 3.908 0 0-2.191.458-4.38.278 0 0 1.649.817 2.37.914 0 0-2.37 1.995-5.736 1.177 0 0-4.09 2.454-7.193 2.011-3.091-.457-3.812-1.733-3.812-1.733s3.687-.666 6.319-1.025c0 0-4.809-1.108-6.362-2.01 0 0 .485-2.244 1.496-3.243 1-1.011.765-1.262.765-1.262s-3.949-.926-5.405-1.467c0 0 4.64-.709 6.097-1.248 0 0-.554-1.123 1.275-2.578 1.817-1.455 3.368-2.91 4.088-3.741.736-.818 4.283-.9 6.279-.362 2.008.555 1.996.555 3.09.555 1.094 0 5.75-.457 5.75-.457s-.914 1.44-3.962 2.244M371.12 236.394c-.014.166-.056.346-.097.54-.028.097-.056.208-.099.305l-.012.027a3.936 3.936 0 0 1-.471.887c-1.094 1.593-3.27 1.343-4.834.886-1.731-.9-5.126-2.618-10.11-4.875-18.865-8.878-62.161-26.593-127.785-38.297-10.235-1.828-19.584-3.31-28.393-4.473-.014 0-.042 0-.055-.014-.056 0-.167-.014-.277-.028-.042-.014-.084-.014-.125-.027 1.634.138 3.31.29 4.986.457.277.013.54.041.803.069 9.571 1.01 19.114 2.091 28.63 3.407a625.638 625.638 0 0 1 35.83 6.039c10.817 2.147 21.607 4.806 32.3 7.493a509.11 509.11 0 0 1 13.49 3.587c.692.194 1.385.402 2.077.596a397.445 397.445 0 0 1 12.964 3.92 343.035 343.035 0 0 1 21.178 7.562c.429.166.858.346 1.288.526.595.25 1.19.47 1.745.706a274.606 274.606 0 0 1 9.03 3.865c1.718.775 3.435 1.55 5.137 2.354.043 0 .071.014.099.042.081.041.152.069.235.11l.083.042s2.632 1.828 2.383 4.294M191.264 192.6c-1.163 1.774-5.861 2.382-8.383 2.077 0 0-4.71 2.119-7.4 1.76-2.677-.36-7.555-2.19-7.555-2.19s1.499-.777 2.968-1.01c0 0-.903-1.803-3.092-3.868-2.189-2.079-5.003-4.628-5.486-6.347 0 0 2.882-1.207 4.96-1.691 0 0-3.477.098-5.433-.748 0 0-.137-3.646.597-5.114.733-1.454 1.219-2.674 1.219-3.41 0-.734-.139-.677.956-1.04 1.094-.359 6.361-1.274 6.361-1.274s-.485-1.205-3.784-1.704c0 0 2.925-1.094 6.223-.61 3.284.485 5.473 4.38 6.57 6.46 1.109 2.063 3.173 4.377 4.516 5.36 1.345.972 6.39-.247 6.39-.247s-3.186 3.158-5.211 3.007c0 0 1.012 3.7 2.716 5.169 1.705 1.454 4.032 3.645 2.868 5.42m-76.29 22.906c-1.496 1.177-5.35 4.352-7.357 6.694-2.011 2.342-4.173 4.85-8.69 3.672-4.518-1.164-5.198-7.692-5.198-7.692 1.179-1.663 6.528-4.17 6.528-4.17-2.84 0-6.445.637-6.445.637.07-1.358.263-5.321.263-8.51 0-3.173-1.676-6.18-1.676-6.18 1.165-1.178 4.018-2.674 4.018-2.674-5.529.831-8.368.166-8.368.166 1.508 0 3.684-1.177 3.684-1.177-.33-1.665.334-4.007 1.165-4.852.83-.832 3.354-4.005 4.52-4.85 1.163-.833 4.184-.333 7.19.167 3.009.497 3.506 2.342 3.506 2.342 1.51.331 3.022.167 3.022.167-1.843 1.342-6.528 2.839-6.528 2.839 2.176.346 4.02.346 4.02.346s1.33 4.852 2.008 7.36c.292 1.08.846 1.98 1.553 2.841-1.302.776-3.532 2.01-5.405 2.675 0 0 3.229-.097 6.68-1.29.665.665 1.4 1.345 2.189 2.12 2.343 2.343.832 8.206-.679 9.369m134.62-85.616s1.318 1.453 1.081 2.952c-.234 1.496-.749 1.785-1.177 2.771-.415.984-1.677 1.829-2.994 2.438 0 0 1.705.735 3.48 1.774-.417-.041-3.744-.47-4.7-.595 0 0-1.883 1.122-2.728 2.383-.846 1.275-2.343 2.398-4.505 2.495 0 0-2.715-.805-3.798-1.039 0 0 1.415 1.219 1.968 1.83 0 0-1.539.609-3.048.29-1.498-.333-4.92-1.746-5.96-2.065 0 0 2.496.179 3.245.276 0 0-4.977-3.99-5.724-4.878 0 0 2.148.36 3.103.597-.346-.208-3.16-1.928-3.243-4.172-.054-1.359.887-2.384 2.01-2.992 1.136-.612 2.397-.666 2.868-1.512.47-.846.555-1.871.555-1.871s3.7.706 5.335 1.081c0 0-1.455-2.162-2.399-2.536 0 0 .307-.846 1.527-1.414 1.219-.554 3.325-1.122 4.6-2.105 1.261-.983 2.674-.708 3.619-.512.928.178 2.756 1.314 4.918 1.966 0 0-1.123-.943-1.499-1.732 0 0 2.345.14 3.524.652 1.162.512 1.771 1.731 1.217 2.633-.568.886-1.275.983-1.316 1.593-.055.61 1.595 1.692 2.3 2.302 0 0-1.04-.335-2.26-.61" fill="#000"/><path d="M191.257 192.599c-1.163 1.772-5.858 2.382-8.379 2.077 0 0-4.71 2.12-7.396 1.76-2.673-.36-7.549-2.19-7.549-2.19s1.496-.775 2.964-1.01c0 0-.9-1.8-3.102-3.865-2.188-2.077-5-4.626-5.485-6.343 0 0 2.881-1.219 4.959-1.704 0 0-3.477.097-5.43-.748 0 0-.138-3.642.596-5.11.734-1.455 1.219-2.673 1.219-3.408 0-.734-.139-.678.955-1.038 1.094-.36 6.371-1.275 6.371-1.275s-.484-1.205-3.795-1.703c0 0 2.937-1.094 6.233-.61 3.283.485 5.471 4.377 6.565 6.455 1.108 2.063 3.172 4.376 4.515 5.36 1.289.928 5.942-.139 6.358-.236-.333.333-3.269 3.13-5.18 3.006 0 0 1.01 3.698 2.714 5.166 1.704 1.454 4.03 3.643 2.867 5.416M160.8 158.914c-1.606 1.87-5.346 1.233-5.346 1.233s-3.753 2.784-7.867 2.175c-4.113-.61-7.396-2.175-7.396-2.175s-3.74-.845-5.803-1.953c0 0 5.083.499 9.086.263 0 0-4.294-1.315-5.54-2.853 0 0 1.454-.914 1.19-2.244-.276-1.343-.678-3.213-.069-4.28 0 0 3.754 1.801 5.624 2.272 0 0-2.41-2.008-3.283-3.809 0 0 1.62 0 3.089-1.205 1.468-1.205 3.033-3.365 5.761-3.324 0 0 1.26-1.288 2.535-1.565 1.26-.263 2.327-.263 2.327-.263s1.482.665 4.017 1.136c0 0-3.408-2.272-4.211-3.27 0 0 1.537.527 2.812.458 0 0 1.399-.402 3.67.208 2.271.595 3.809 2.34 3.809 3.809 0 1.468-2.064 3.407-1.33 4.681.679 1.163 5.402 2.355 6.08 2.52-.526-.04-3.587-.29-5.415-.055 0 0-1.136 1.136-2.41 1.205-1.274.07-1.537 1.011-1.274 1.746.277.734 1.551 3.42-.056 5.29m-26.842 20.042c-1.08.706-1.177 1.454-2.008 2.535-.845 1.08-5.97 1.302-5.97 1.302-3.102-1.08-7.146-1.08-7.146-1.08 2.022.609 4.764 1.453 4.764 1.453s-2.867.471-5.263.236c-2.382-.236-3.698-2.88-5-4.668-1.316-1.786.235-4.529.235-4.529-.72-.485-1.55-.72-1.55-.72 2.617-.235 7.52.125 7.52.125-2.258-.72-4.834-1.22-4.834-1.22s.291-1.287.887-2.603c.61-1.302 3.462-.956 4.667-.831 1.191.125 2.743-1.316 3.601-1.593.86-.29 3.56.637 4.987 1.122 1.426.471 1.55 1.551 1.55 1.551-1.315-.124-3.226.236-3.226.236l4.653 1.302s3.103 1.55 3.574 3.102c.485 1.551-.347 3.587-1.44 4.28m-18.99 36.551c-1.495 1.177-5.346 4.35-7.354 6.69-2.008 2.34-4.17 4.848-8.684 3.67-4.516-1.163-5.208-7.687-5.208-7.687 1.177-1.662 6.537-4.169 6.537-4.169-2.84 0-6.454.637-6.454.637.07-1.357.263-5.318.263-8.518 0-3.171-1.676-6.177-1.676-6.177 1.164-1.177 4.03-2.673 4.03-2.673-5.54.831-8.379.166-8.379.166 1.51 0 3.684-1.177 3.684-1.177-.332-1.662.333-4.003 1.164-4.848.83-.83 3.365-4.002 4.529-4.847 1.163-.831 4.183-.333 7.188.166 3.006.499 3.504 2.34 3.504 2.34 1.51.333 3.02.167 3.02.167-1.842 1.343-6.524 2.84-6.524 2.84 2.175.345 4.017.345 4.017.345s1.33 4.848 2.008 7.355c.291 1.08.845 1.98 1.551 2.84-1.301.775-3.531 2.008-5.401 2.672 0 0 3.227-.097 6.676-1.288.665.665 1.399 1.358 2.188 2.12 2.34 2.354.831 8.213-.679 9.376m88.158-54.764c.277-.61.61-1.067 1.482-1.067.859 0 2.673.25 3.269-.208.61-.47.734-1.675 1.814-2.34 1.067-.679 3.006-.139 4.751.318 1.745.485 3.878 1.274 3.878 1.274-2.008.139-4.086.139-4.086.139 2.48.61 4.89 1.814 7.161 3.213 2.327 1.44 1.413 2.812 3.352 3.546 1.939.734 1.19 1.413 1.19 1.413-2.27-.471-6.204-.804-6.204-.804 2.936 1.136 5.138 1.995 5.138 1.995s-.401.346-.928.402c-.54.069-1.482-.527-2.271-.402-.803.138-1.413 1.482-2.285 2.216-.86.734-1.995.526-1.995.526s-.277 1.08-1.136 1.745c-.872.665-2.299.333-4.1.07-1.8-.277-2.41-4.086-2.41-4.086-1.869-1.662-4.736-3.2-4.736-3.2 1.205.056 2.742.333 2.742.333-.61-1.011-4.155-2.673-4.155-2.673-.595-.277-2.41-1.275-2.41-1.275 1.815.139 7.355 1.4 7.355 1.4-1.8-1.136-5.416-2.535-5.416-2.535m23.477-28.782c1.135-.623 2.396-.678 2.867-1.523.47-.845.554-1.87.554-1.87s3.698.707 5.332 1.08c0 0-1.454-2.16-2.396-2.534 0 0 .305-.845 1.524-1.413 1.218-.554 3.324-1.122 4.598-2.105 1.274-.984 2.687-.707 3.629-.513.928.18 2.756 1.316 4.917 1.967 0 0-1.122-.942-1.496-1.731 0 0 2.34.138 3.518.65 1.163.513 1.773 1.732 1.219 2.632-.568.887-1.275.984-1.316 1.593-.056.61 1.593 1.69 2.299 2.3 0 0-1.039-.333-2.258-.61 0 0 1.316 1.454 1.08 2.964-.235 1.496-.747 1.773-1.177 2.77-.415.983-1.675 1.828-2.991 2.438 0 0 1.703.734 3.476 1.773-.415-.042-3.74-.471-4.695-.596 0 0-1.884 1.122-2.729 2.382-.844 1.274-2.34 2.396-4.515 2.493 0 0-2.714-.803-3.795-1.038 0 0 1.413 1.218 1.967 1.828 0 0-1.537.61-3.047.29-1.496-.332-4.917-1.745-5.956-2.063 0 0 2.493.18 3.241.277 0 0-4.972-3.989-5.72-4.875 0 0 2.147.36 3.102.595-.346-.208-3.157-1.925-3.24-4.169-.056-1.371.886-2.396 2.008-2.992m64.293 74.1c-5.706-5.36-11.33-10.734-17.368-15.665a645.413 645.413 0 0 0-45.831-10.387c-10.457-1.967-20.152-3.56-29.128-4.82a643.3 643.3 0 0 1 29.751 3.545 651.193 651.193 0 0 1 38.781 6.746c-6.508-4.627-13.407-8.49-20.18-12.674-2.34-1.44-4.75-2.95-6.759-4.847-1.025-.956-2.119-2.16-2.257-3.63a4.305 4.305 0 0 1 0-.844c0-.014.014-.042.014-.055a3.641 3.641 0 0 1 .124-.707c.014-.041.042-.083.042-.124a5.89 5.89 0 0 0 .152-.457c.028-.084.07-.18.11-.264.596-1.385 1.663-2.645 2.73-3.531.152-.125.29-.264.47-.416.111-.097.222-.166.333-.277.152-.125.29-.235.43-.36.165-.125.332-.277.456-.388.014-.014.014-.014.028-.014.055-.041.11-.097.166-.138.028-.028.07-.056.097-.083l.028-.028c.055-.042.097-.07.124-.11l.374-.763c9.21-16.523 32.258-20.748 32.258-20.748-2.38-3.338-5.194-5.152-5.194-5.152 3.104-1.094 6.995-.415 8.49-.083-.013-.07-.013-.139-.041-.208-.497-2.008-.263-3.172.235-3.573 0 0 3.367.11 4.363.47-.36-.165-1.868-.927-2.867-1.717a266.019 266.019 0 0 0-11.676-2.534c-15.817-3.075-32.008-4.252-48.075-4.848-2.867-.11-5.734-.18-8.615-.18 2.189.942 3.976 2.867 5.18 4.89a318.91 318.91 0 0 0-9.612-.555c1.482.513 2.507 1.011 2.77 1.136 0 0-2.659-.402-4.46-.443 0 0 .9.498 1.4 1.052 0 0 .096 1.053-.056 1.648-.138.61-.443 1.51-.097 2.507.346 1.011 1.357 3.255 1.51 4.059 0 0-3.075-.25-4.876-.291 0 0 4.973 2.41 6.482 3.324 0 0-1.01-.056-1.662 0 0 0-1.703.997-2.05 1.648-.36.651 0 3.615-1.661 4.917-1.649 1.302-3.865.997-4.557 1.8-.707.804.401 1.912.401 1.912s-3.6-.817-4.709-.914c0 0 1.718 1.731 2.812 2.534 0 0-1.413-.318-2.867-.124-1.454.207-5.97.554-8.394-1.344-2.41-1.911-1.15-3.42-.595-4.016.554-.596.692-1.358-.9-3.214-1.607-1.856-1.358-1.856-1.053-2.853 0 0 5.61.014 7.618.568 0 0-5.471-3.089-7.618-3.546 0 0 .097-.692 1.302-1.606 1.205-.9 2.812-1.62 3.352-3.879 0 0 4.044.776 6.343 1.122-2.507-.955-3.67-2.368-7.784-3.518 0 0 2.867-.138 3.948-.235 0 0 1.966-.346 2.88-1.205.375-.346.845-.79 1.441-1.177-7.964.152-15.9.9-23.726 2.742-12.493 2.936-24.93 6.039-37.396 9.1-.097.027-.208.055-.305.083 2.106-1.316 3.934-3.172 5.61-5a159.936 159.936 0 0 1-11.177 2.327c-6.122 1.08-12.424 2.022-18.67 1.662-10.32-.596-20.638-2.95-30.693-5.263l-2.66-.624c.222.153 3.63 2.286 4.806 2.978 4.959 2.923 10.07 5.582 15.471 7.59 1.635.54 3.255 1.164 4.903 1.676a77.803 77.803 0 0 0 5.54 1.482 73.11 73.11 0 0 0 5.153.956 53.68 53.68 0 0 0 9.307.554c3.13-.07 6.247-.499 9.336-1.067 3.573-.665 7.119-1.44 10.609-2.451.582-.153 1.15-.333 1.717-.499 4.82-1.482 9.488-3.615 13.99-5.914a104.28 104.28 0 0 0 3.504-1.8.213.213 0 0 0 .083-.056.197.197 0 0 0 .083-.028c-.07.083-8.366 6.967-12.438 9.46-.886.54-1.787 1.08-2.7 1.607a109.058 109.058 0 0 1-4.53 2.424 67.521 67.521 0 0 1-3.92 1.883c-.692.305-1.385.596-2.09.873-.042.014-.07.041-.112.055-.36.18-.72.374-1.094.568-2.382 1.482-4.82 2.867-7.368 4.058-.028.014-.07.028-.111.056-.845.401-1.69.79-2.549 1.163-.013.014-.041.014-.055.028-.028.014-.042.014-.07.028-2.312 1.01-4.695 1.925-7.035 2.77-1.87.65-3.754 1.274-5.665 1.8-13.532 3.961-21.787 3.865-21.787 3.865.914.415 2.147.789 3.283 1.038 4.072.914 13.822 1.773 14.28 1.912.041-.014.069-.014.083-.028-.028.028-.277.305-.804.776-6.094 5.581-13.878 8.96-21.8 11.135a92.419 92.419 0 0 1-13.02 2.549c-.678.083-1.343.152-2.036.221-.277.097-.47.222-.54.374-2.16 6.745-2.23 14.03-1.856 21.04a90.59 90.59 0 0 0 1.344 11.246c.014.014.014.041.014.055a22.777 22.777 0 0 1 1.73-1.551s2.01-1.662 5.513-2.175c0 0-.041-.055-.152-.138-.042-.042-.097-.097-.152-.139-.748-.637-1.898-.955-2.909-1.108-.277-.069-.54-.097-.776-.124.07 0 .305-.056.665-.111 2.189-.457 4.779-.859 6.898-.402.055 0 .097 0 .152.028 1.288.29 2.424 1.15 3.116 2.257.07.125.125.236.18.347.084.152.153.304.208.457.014.041.028.083.042.11.055.153.11.32.138.471.042.153.07.305.097.458 0 .027.014.069.014.097.014.152.028.318.028.47a3.97 3.97 0 0 1-.36 1.676c-.831 1.842-2.341 5.36-2.341 6.69 0 .61-3.144 2.798-3.989 3.657-.055.055-.097.11-.138.152.083 0 .18-.014.263-.014.055-.014.138-.014.207-.028.928-.083 1.843-.249 2.77-.346.513-.041.984-.083 1.358-.083h.041s2.161 4.017 3.837 5.36c1.676 1.33 3.172 4.17 3.684 6.344.014 0 .042.013.056.013.207.014.443-.055.692-.152.028-.014.056-.028.083-.028.083-.027.18-.069.291-.124.291-.125.54-.25.623-.291.319-.125.624-.263.942-.402.263-.124.568-.29.9-.457l.084-.041s-3.158 4.653-6.843 6.842c.236.041 3.172.47 4.627-.153.013 0 .027-.013.041-.013 0 0 .25 5.554-5.166 11.537-.374.415 4.03 5.637 6.731 8.698.111.125.208.235.305.36.083.097.18.195.235.277.208.236.416.457.568.623.166.208.291.347.36.416.194-.166 1.676-1.44 2.438-2.064a61.55 61.55 0 0 1 4.086-2.978c1.316-.9 4.363-2.52 4.363-2.52.014 0 .027-.014.041-.027.153-1.372.61-2.162.998-2.647.512-.637 1.288-.775 1.925-1.15.263-.152.554-.318.83-.622.098-.097.195-.208.292-.347.055-.083.11-.166.166-.263.07-.11.138-.235.194-.374a3.24 3.24 0 0 0 .138-.332 7.9 7.9 0 0 0 .416-1.26c.221-.845.928-1.635.928-1.635a.141.141 0 0 1-.042-.014c-.97-.36-1.953-.665-2.936-.97a79.894 79.894 0 0 0-4.75-1.26 76.886 76.886 0 0 0-3.2-.706c8.31-5.499 17.507-9.598 26.967-12.798 3.157-1.066 9.861-2.978 9.861-2.978-.942-.872-1.87-1.897-2.34-2.853-1.178-2.34.83-5.859 1.661-7.188.845-1.344-.664-2.175-.664-2.175 1.343-1.01 2.34-2.673 2.34-2.673-.027 0-.041.014-.069.014-2.978.65-5.776.817-5.776.817l-.013-.014c-1.663-1.33-2.327-4.169-1.995-5.678.332-1.496.997-3.85.997-3.85h-.055c-.554.055-1.164.013-1.731-.07-.97-.125-1.815-.36-2.036-.416l-.014-.013c6.343-.831 9.515-3.172 9.515-3.172-.028 0-.055.014-.083.014-1.676.318-4.585.484-4.585.484v-.013c.028-.18.236-1.87 1.496-2.715.471-.319 1.455-.319 2.632-.152.665.097 1.385.235 2.119.415.346.083.692.166 1.039.263 1.274.346 2.493.72 3.365 1.011.028 0 .028.014.056.014 2.507.845 3.684 4.183 3.684 4.183.679 2.16 1.745 3.726 3.005 4.903.014.014.028.028.042.028a11.39 11.39 0 0 0 1.856 1.33c.25.166.512.304.79.415.263.125.526.25.803.36.803.332 1.62.596 2.41.803.512.139 1.025.263 1.51.36.249.056.498.111.734.167.443.097.844.263 1.218.484 1.122.638 1.94 1.801 2.493 2.95a286.14 286.14 0 0 1 13.283-1.121 20.371 20.371 0 0 0-1.787-1.842c-4.446-4.1-10.665-6.732-16.246-8.518 11.108-1.482 22.34-1.926 33.518-2.313a740.13 740.13 0 0 1 19.183-.458c-1.344-1.121-3.2-1.772-4.807-2.41 3.754-.429 7.674-.069 11.427.208-3.2-1.606-6.828-2.52-10.25-3.532a268.664 268.664 0 0 0-7.257-2.022c.042 0 .166.014.291.014-.042-.014-.083-.014-.125-.028 1.635.139 3.31.291 4.987.457.277.014.54.042.803.07 9.57 1.01 19.113 2.091 28.629 3.407a625.637 625.637 0 0 1 35.83 6.039c10.82 2.146 21.609 4.806 32.3 7.493a510.631 510.631 0 0 1 13.492 3.587c-7.301-2.105-15.307-4.224-24.005-6.316" fill="#9F792C"/><path d="M145.593 261.283s-1.551.388-4.737 2.812c-3.2 2.438-3.975 5.623-3.975 5.623 1.662-1.523 3.975-2.936 3.975-2.936-.65 1.025-.388 1.537-1.8 4.723-1.4 3.198-4.862 3.075-7.286 3.324-2.423.263-6.385-2.673-6.385-2.673-1.412.512-3.975 2.936-3.975 2.936 1.15-3.836 5.374-7.922 5.374-7.922-1.786.762-4.986 3.06-4.986 3.06-1.787-1.398-8.075-3.2-12.285-5.498-4.225-2.299-3.712-6.773-3.712-6.773.263-2.687 2.562-6.274 2.562-6.274-1.413.776-2.936 2.438-2.936 2.438a7.911 7.911 0 0 1 .014-1.413v-.042c.152-1.37.61-2.16.997-2.645.512-.637 1.288-.776 1.925-1.15.263-.152.554-.318.831-.623a2.58 2.58 0 0 0 .291-.346c.055-.083.11-.166.166-.263a2.3 2.3 0 0 0 .194-.374c.056-.111.097-.222.139-.333a7.9 7.9 0 0 0 .415-1.26c.222-.845.928-1.634.928-1.634 1.468-1.649 4.072-2.84 4.072-2.84-1.357 1.704-1.523 3.504-1.537 3.878.014.014.027.014.041.014 2.937-4.653 7.895-4.28 7.895-4.28-1.025.264-2.3 1.025-2.3 1.025s2.175.762 4.35 1.4c2.174.65 7.022 1.024 9.848 1.024 2.811 0 8.047 1.025 8.047 1.025 2.299-.762 9.349-2.548 9.349-2.548-2.438 1.523-6.773 3.698-6.773 3.698 8.823 4.861 1.274 14.847 1.274 14.847m60.692 26.593c-1.69 2.895-3.975 3.157-3.975 3.157l.582-1.094c-1.98.541-4.072-.594-4.28-.707 1.219 1.705 1.344 3.908 1.344 3.908l-.776 1.454 2.673-.194-1.51 1.856c.444 4.321-3.144 5.942-7.34 5.61-4.183-.32-9.252-4.64-9.252-4.64.29-1.676 3.448-6.164 3.448-6.164-2.243.679-6.301 3.544-6.301 3.544-3.837-2.38-3.048-1.577-13.976-3.087-10.914-1.51-16.385-4.406-16.385-4.406-.055-1.993 1.427-4.39 1.427-4.39-2.604 1.274-3.892 3.296-3.892 3.296-.928-.677-4.114-3.753-2.867-8.089 1.233-4.32 7.645-4.984 7.645-4.984 2.092-1.69 5.25-1.72 5.444-1.72-.72.432-1.926 1.263-1.926 1.263 1.787-.347 11.427.65 15.596.97 4.183.332 8.684.316 8.684.316l4.28-.983c-1.814 1.163-6.911 4.461-7.535 4.863 3.172-1.953 10.873-3.49 10.873-3.49s1.343-.168 3.324.705c1.967.872 2.826 4.087 2.826 4.087 1.703-1.676 4.542-.68 7.451 2.34 2.922 3.02 3.033 6.204 3.033 6.204l1.385.375zm-2.063-156.671s4.975 2.398 6.488 3.313c0 0-1.014-.057-1.667 0 0 0-1.702.997-2.048 1.648-.363.653 0 3.618-1.665 4.92-1.647 1.303-3.866.999-4.56 1.802-.704.805.404 1.913.404 1.913s-3.604-.817-4.714-.916c0 0 1.72 1.733 2.816 2.536 0 0-1.414-.318-2.87-.123-1.457.206-5.972.553-8.383-1.346-2.413-1.912-1.151-3.423-.596-4.02.553-.594.693-1.356-.902-3.213-1.608-1.857-1.357-1.857-1.054-2.855 0 0 5.6.014 7.61.57 0 0-5.461-3.078-7.61-3.536 0 0 .097-.693 1.304-1.608 1.205-.9 2.8-1.62 3.34-3.879 0 0 4.045.775 6.345 1.121-2.507-.956-3.671-2.368-7.771-3.52 0 0 2.853-.137 3.946-.233 0 0 1.955-.347 2.87-1.207.374-.347.846-.79 1.443-1.18.871-.566 1.996-1.051 3.547-1.107 2.868-.096 5.6.584 7.539 1.248 1.482.513 2.507 1.011 2.771 1.135 0 0-2.662-.402-4.461-.443 0 0 .9.498 1.399 1.054 0 0 .097 1.054-.054 1.65-.141.609-.445 1.51-.097 2.506.346 1.013 1.357 3.258 1.51 4.06 0 0-3.078-.248-4.88-.29m21.718 35.825c-2.275-.471-6.209-.804-6.209-.804 2.937 1.137 5.14 1.995 5.14 1.995s-.4.347-.928.403c-.54.069-1.483-.528-2.274-.403-.802.138-1.414 1.484-2.285 2.217-.86.734-1.996.526-1.996.526s-.277 1.082-1.135 1.748c-.873.665-2.288.331-4.09.068-1.8-.277-2.412-4.087-2.412-4.087-1.871-1.663-4.74-3.2-4.74-3.2 1.208.053 2.745.33 2.745.33-.608-1.012-4.156-2.673-4.156-2.673-.597-.278-2.414-1.276-2.414-1.276 1.817.139 7.361 1.4 7.361 1.4-1.803-1.136-5.418-2.535-5.418-2.535.275-.611.61-1.068 1.482-1.068.859 0 2.674.262 3.269-.208.61-.47.736-1.677 1.815-2.342 1.07-.666 3.009-.125 4.743.332 1.745.471 3.878 1.275 3.878 1.275-2.009.138-4.074.138-4.074.138 2.466.597 4.88 1.803 7.15 3.202 2.328 1.44 1.414 2.815 3.355 3.549 1.94.734 1.192 1.413 1.192 1.413m-37.266-66.12c-.277 2.398-3.355 4.519-4.184 5.059-.82.555-2.356 1.648-2.815 3.188-.456 1.551-2.091 2.549-3.104 2.647-.997.082-2.356 1.537-2.356 1.537 1.428.348 3.438-.261 3.702-.346-.21.18-1.941 1.58-2.705 2.176-.817.637-3.545 1.276-4.544 1.177-1.012-.081-2.01 0-5.1-.081-3.103-.099-6.65-.374-7.72-2.329-1.01-1.858-1.442-1.914-1.483-1.914-2.189.999-6.734.959-6.734.959 4.38-1.816 8.122-5.919 8.122-5.919-2.358.999-5.032 1.4-5.032 1.4-.376-.638-.443-1.303-.359-2.674.097-1.359 1.37-2.094 1.37-2.094s.084-.719.999-1.913c.915-1.177 4.005-2.811 5.738-2.91 1.732-.097 3.906-.996 5.1-1.814 1.177-.819 5.362-2.55 7.454-2.371 2.093.181 2.925.54 2.925.54 1.179-.082 3.812-.54 3.812-.54-3.452 2.731-5.64 3.73-5.64 3.73 4.002-.459 7.468-2.093 7.468-2.093 4.088.277 5.363 2.19 5.086 4.586m52.052-3.52c-.18 1.302-1.108 4.643-2.868 5.392-1.776.733-2.246.871-2.246.871v3.867s-2.633-2.355-3.186-3.105c0 0-.706.03-2.564-.248-1.859-.277-4.09 2.883-7.526 2.607 0 0-5.655-1.208-6.583-3.536-.928-2.314-.568-4.267-.193-4.918 0 0 1.955 2.507 3.34 3.24 0 0-1.29-2.963-1.29-4.82 0 0 1.11-.832 1.29-1.678.192-.831 2.33-2.134 3.63-2.411 1.302-.279 2.577.277 2.577.277s1.525 3.465 2.635 4.767c0 0-.473-6.805.081-9.216 0 0 1.415 3.133 2.164 4.156 0 0 1.553-.164 3.782-.538 2.233-.374 4.172-.182 5.474 1.106 1.303 1.305 1.677 2.884 1.483 4.187m-70.774 53.342c-.526-.042-3.576-.292-5.404-.057 0 0-1.138 1.137-2.413 1.207-1.274.067-1.536 1.01-1.274 1.745.277.734 1.552 3.41-.057 5.28-1.607 1.87-5.348 1.234-5.348 1.234s-3.755 2.786-7.871 2.177c-4.116-.611-7.388-2.177-7.388-2.177s-3.74-.845-5.807-1.94c0 0 5.088.485 9.079.248 0 0-4.283-1.315-5.53-2.84 0 0 1.455-.914 1.192-2.244-.279-1.345-.679-3.218-.068-4.284 0 0 3.74 1.802 5.612 2.274 0 0-2.399-2.01-3.272-3.811 0 0 1.609 0 3.078-1.205 1.468-1.205 3.035-3.369 5.765-3.327 0 0 1.261-1.29 2.536-1.567 1.261-.263 2.328-.263 2.328-.263s1.482.665 4.018 1.136c0 0-3.407-2.273-4.213-3.269 0 0 1.538.526 2.813.457 0 0 1.4-.401 3.673.208 2.273.597 3.811 2.342 3.811 3.81 0 1.471-2.065 3.41-1.33 4.684.68 1.165 5.39 2.356 6.07 2.524" fill="#000"/><path d="M395.538 174.762c0 1.873-4.283 1.345-7.499 1.067-3.202-.262-19.525 1.345-25.15 4.02a83.885 83.885 0 0 0-13.875 4.586 73.495 73.495 0 0 0-3.769 1.76c-1.497.747-2.966 1.553-4.31 2.55-.165.125-.317.25-.454.36 0 0-.738-4.046-4.298-7.677a8.159 8.159 0 0 0-.626-.609 14.38 14.38 0 0 0-1.413-1.165c-1.51-1.122-3.394-2.12-5.696-2.825a22.075 22.075 0 0 0-2.437-.597 27.659 27.659 0 0 0-4.24-.459h-.028c-.056-.014-.126-.014-.196-.026 7.179-3.41 15.978-6.792 23.435-7.22 15.632-.874 36.226 3.394 36.226 3.394s11.543-14.428-4.807-31.333c3.325 3.05 8.799 8.702 12.18 15.45 5.084 10.16 6.957 16.853 6.957 18.724m46.729-18.195c-2.59-2.286-6.07-4.67-9.923-7.027-2.813-1.745-5.817-3.464-8.66-4.907-.096-.054-.208-.095-.307-.15 15.744 2.59 19.433-1.51 20.276-3.204.028.056.072.113.096.169.236.427.46.86.624 1.274 3.133 7.455-2.106 13.845-2.106 13.845" fill="#9F792C"/><path d="M331.164 165.476s-14.244 8.968-24.555 6.308c-10.326-2.663-28.022-16.658-28.022-16.658s6.775-.887 17.976.983c.096.014.193.042.29.055 2.036.457 4.213 2.107 5.845 3.257 1 .707 1.898 1.54 2.858 2.288.193.15 2.686 1.674 2.798 1.674-.011.183-.04.362-.04.557a4.76 4.76 0 0 0 9.518 0 4.68 4.68 0 0 0-.899-2.774c9.396 2.677 14.231 4.31 14.231 4.31" fill="#006778"/><path d="M311.639 161.388c-.085 1.372-1 2.205-2.217 2.205-.347 0-.721-.085-1.067-.21-.113 0-2.606-1.523-2.8-1.675-.958-.748-1.857-1.58-2.857-2.287-1.633-1.15-3.794-2.787-5.834-3.256 1.25.235 6.13 1.191 8.993 1.954 1.445.374 2.787.747 4.104 1.108 0 0 1.762.776 1.678 2.16" fill="#FFF"/><path d="M364.052 165.532c2.995-.746 6.27-2.228 8.614-4.33 0 0-.01-.006-.007-.008.014 0 .025-.014.04-.04-5.184 1.911-10.74 2.536-16.064.706-.883-.304-1.799-.623-2.685-.998-.335-.139-.655-.29-.985-.457-5.336-2.673-10.17-6.556-14.9-10.172-8.105-6.208-16.585-11.683-26.01-15.632-.654.457-1.622 1.18-2.508 2.05v.21c0 2.548 1.843 7.884 5.766 11.085 5.081 4.157 14.547 8.315 14.547 8.315-.454-1.607-.231-3.686-.231-3.686 1.385 2.3 4.393 5.766 9.004 8.314.295.168.61.32.944.473a84.584 84.584 0 0 0 5.17 2.216 43.125 43.125 0 0 0 4.09 1.346c4.966 1.024 10.233 1.853 15.215.608" fill="#9F792C"/><path d="M305.125 177.007c-4.642-2.452-9.41-4.738-14.3-6.68a190.763 190.763 0 0 1-8.995-4.892c-3.99-2.314-7.955-4.753-11.725-7.428-1.788-1.26-3.866-2.315-5.418-3.865-.1-.099-.222-.208-.319-.222a22.713 22.713 0 0 0-2.856-.25c-1.231-.042-2.48 0-3.713.083-.097.015-1.51.167-1.51.153 1.095 3.547 5.945 8.787 5.945 8.787-2.3.165-5.254-.652-5.254-.652 4.27 5.737 16.078 12.957 25.265 14.759 9.188 1.802 17.546 1.468 17.546 1.468-1.305.665-3.44 1.483-3.44 1.483s3.606-.166 8.524.819c.637.124 1.33.29 2.08.497 3.258.832 7.289 2.177 9.66 3.008.277.092.54.186.764.265a87.014 87.014 0 0 0-3.466-2.219c-2.41-1.511-5.725-3.507-8.788-5.114" fill="#FFF"/><path d="M259.933 147.835c3.66-1.094 7.94-1.954 11.739-2.314 12.86-1.218 25.583.928 37.516 4.975 11.611 3.937 22.297 9.965 34.2 13.152a88.41 88.41 0 0 0 4.58 1.098c.283.059.568.115.853.174a42.822 42.822 0 0 1-4.076-1.343 84.892 84.892 0 0 1-5.168-2.216 12.25 12.25 0 0 1-.944-.47c-4.611-2.55-7.62-6.016-9.006-8.316 0 0-.221 2.079.233 3.685 0 0-9.465-4.158-14.549-8.313-3.922-3.2-5.764-8.537-5.764-11.087v-.208c-.693.665-1.331 1.414-1.76 2.216-1.4 2.58-1.291 4.532-1.291 4.532s-1.207-.512-2.298-1.357c0 0 .553 2.328 2.522 3.313 0 0 1.122 1.482.637 2.604 0 0-3.45-.277-4.256-.928-.803-.665-3.367-1.593-3.367-1.593s.859-.14 1.776-.083c0 0-.93-2.258-1.816-3.021-.888-.75-2.678-2.122-2.274-3.867 0 0 2.106.151 3.116.554 0 0-3.324-2.882-5.362-3.34l2.787-.152s-.375-1.97 3.16-3.688c3.548-1.717 4.64-2.812 5.391-3.921.733-1.108 1.04-2.244 1.967-2.909 0 0 1.734.984 3.104 2.022 0 0-.79-2.342-3.298-4.06 0 0-9.215-1.04-15.771 3.7l.541.334c.056.04.125.068.18.11.126.081.251.164.376.249a.754.754 0 0 1 .177.11c.138.084.266.18.39.265l.122.082c.17.11.334.222.488.332 0 0 .014.014.029.014.136.097.262.18.37.265.043.04.1.069.141.11.07.042.125.084.182.124.04.028.08.07.12.084.017.013.017.027.03.027.056.043.082.07.124.1 0 0 .015.01.027.01a.33.33 0 0 1 .07.057c-1.262-.306-3.866-.665-5.085-.832-.363.36-1.165 1.163-1.498 1.58 0 0-.733.957-1.164 3.409-.137.79.305 2.606 1.11 3.313.802.694 3.311 3.008 3.713 4.1.404 1.11-.331 2.828-.165 3.576 0 0-1.942-1.245-3.036-1.552.22.222 2.44 2.496 1.194 2.786 0 0-1.11-1.288-3.12-2.189s-5.708-2.717-6.818-3.713c-1.04-.943-1.717-2.939-1.788-3.188.125.165.736.983 1.287 1.08.557.097 2.19 1.151 2.399 1.29-.07-.167-.637-1.54-1.302-2.093-.694-.611-2.398-1.414-3.3-2.509l.998-.304s.278-1.968-.165-3.909c-1.498-.334-5.39-1.012-8.497.082 0 0 2.816 1.817 5.197 5.142 0 0-23.045 4.226-32.26 20.748l-.376.762-.125.123.197-.152s.026 0 .066-.014h.016c0-.014 0-.014.013-.014.362-.304 3.99-3.422 6.207-4.656 3.228-1.802 6.834-2.91 10.354-3.978" fill="#FFF"/><path d="M306.608 171.783c-10.324-2.662-28.02-16.658-28.02-16.658s6.774-.886 17.974.984c.125.013 6.014 1.137 9.295 2.01 1.445.375 2.787.747 4.104 1.109 0 0 1.762.775 1.678 2.16-.085 1.373-.999 2.205-2.216 2.205a3.23 3.23 0 0 1-1.068-.209c-.013.182-.042.36-.042.556a4.763 4.763 0 0 0 4.766 4.753 4.761 4.761 0 0 0 4.754-4.753 4.68 4.68 0 0 0-.9-2.773c9.395 2.677 14.23 4.309 14.23 4.309s-14.243 8.968-24.555 6.307m69.792-31.195a50.698 50.698 0 0 0-3.716-3.466l.085.167c.043.07.083.152.136.249.029.07.069.154.112.237.057.082.098.178.153.275.082.182.18.376.279.584.053.11.11.223.165.346.097.235.206.486.33.748.347.806.736 1.773 1.11 2.856.374 1.081.72 2.259 1.011 3.505.099.416.182.831.25 1.26.03.168.056.32.069.473.296 3.343.49 6.472-.938 9.627a11.242 11.242 0 0 1-2.442 3.455c-.11.103-.228.198-.339.296-2.342 2.104-5.618 3.584-8.612 4.332-4.982 1.246-10.25.416-15.216-.609-.006-.001-.011-.001-.016-.003-.286-.058-.572-.115-.854-.174a89.79 89.79 0 0 1-4.579-1.097c-11.903-3.189-22.589-9.216-34.2-13.154-11.933-4.046-24.656-6.193-37.518-4.974-3.796.36-8.078 1.22-11.736 2.315-3.521 1.066-7.126 2.176-10.355 3.978-2.216 1.234-5.846 4.351-6.206 4.655.083-.028.235-.056.415-.096.166-.043.582-.138.594-.154 2.83-.705 5.823-1.426 8.858-1.912a56.868 56.868 0 0 1 3.05-.4c0 .013 1.411-.14 1.51-.154 1.23-.083 2.481-.125 3.711-.083.916.026 1.888.098 2.858.25.095.014.218.123.317.222 1.554 1.55 3.631 2.605 5.42 3.865 3.768 2.675 7.733 5.114 11.722 7.428a190.763 190.763 0 0 0 8.996 4.892c4.892 1.942 9.66 4.228 14.3 6.68 3.065 1.607 6.378 3.603 8.787 5.114a85.058 85.058 0 0 1 3.467 2.219c.736.489 1.47.98 2.202 1.467 4.102 2.731 8.009 5.764 11.737 8.98 1.08.928 2.137 1.873 3.189 2.827 1.677 1.553 3.213 3.23 4.861 4.795-.137-.123-.166-.762-.219-.957-.098-.359-.237-.719-.372-1.08-.295-.748-.585-1.51-.905-2.245a49.395 49.395 0 0 0-2.091-4.35 69.357 69.357 0 0 0-5.21-8.164 90.226 90.226 0 0 0-3.397-4.281c-.858-.999-1.759-1.967-2.66-2.952-.72-.79-1.593-2.216-2.661-2.564 0 0-.097-.043-.11-.043-.055-.013-.126-.013-.195-.026 7.179-3.41 15.978-6.792 23.435-7.22 15.632-.874 36.226 3.395 36.226 3.395s11.543-14.428-4.808-31.334" fill="#000"/></g></svg>