<svg viewBox="0 0 500 500" xmlns="http://www.w3.org/2000/svg"><g fill="none"><path d="m442.824 181.501s6.23-5.404 12.744-5.228c6.513.175 11.027 2.283 13.513 4.904a30.209 30.209 0 0 1 10.81.838c5.636 1.553 13.514 6.201 16.677 11.605a17.399 17.399 0 0 1 .243 17.564 13.306 13.306 0 0 1 -1.568 8.971 21.213 21.213 0 0 1 -6.986 7.566 21.957 21.957 0 0 1 -10.69 10.809c-7.743 3.431-17.905-.446-17.905-.446a64.608 64.608 0 0 1 -10.094 1.121 37.845 37.845 0 0 1 -12.352-2.702s-5.189 7.606-6.635 9.457c0 0 7.081 6.161 14.865 8.58 7.784 2.418 13.81 3.54 17.351 6.066a17.43 17.43 0 0 1 4.865 5.04 31.493 31.493 0 0 1 10.595.378c5.202 1.216 11.257 5.296 15.243 10.727s6.405 12.362 4.757 18.915c-1.649 6.553-5.406 9.052-5.406 9.052a27.1 27.1 0 0 1 -5.608 9.836 15.096 15.096 0 0 1 -9.094 4.053s-2.933 3.945-10.568 5.148a18.179 18.179 0 0 1 -13.081-3 38.25 38.25 0 0 1 -14.216-1.864c-8.108-2.527-13.77-10.903-13.77-10.903s-5.325-2.554-15.163-3.013c-9.837-.46-31.81-4.864-41.594-10.552 0 0-5.757 2.783-23.19 3.675 0 0-2.58-7.863-7.635-11.808 0 0-14.986 8.309-19.716 10.511s-13.513 6.053-21.216 6.512c0 0-2 12.497-5.662 19.24a30.904 30.904 0 0 1 -16.581 13.726s8.635 3.067 13.175 9.795c4.541 6.729 6.068 14.146 2.987 20.104s-6.595 7.593-6.595 7.593a16.052 16.052 0 0 1 -8.743 9.147c-6.986 3.134-15.77 1.472-15.77 1.472a26.586 26.586 0 0 1 -11.514 2.513c-6.662 0-15.013-5.728-15.013-5.728s-21.852 2-28.379 1.446-14.202-3.216-17.864-12.822a53.083 53.083 0 0 1 -9.946 6.201c-5.96 2.878-17.27 8.404-25.392 14.186l.27 4.31s11.865 4.472 12.635 16.618c.77 12.147-5.865 16.66-7.743 17.956a19.35 19.35 0 0 1 -7.946 8.242 19.152 19.152 0 0 1 -11.392 1.486s-13.351 5.917-23.513-3.81c-10.163-9.728-7.298-20.266-7.176-22.752.121-2.486.838-24.806.73-25.832 0 0-5.054-6.756-3.946-14.376s6.96-12.376 9.716-14.686a24.035 24.035 0 0 0 7.73-12.038c1.648-5.85 1.77-17.793 2.324-22.211s.784-11.822.784-11.822-20-5.512-30.392-17.118-13.27-19.996-15.933-31.48c-2.662-11.484-4.567-23.252-15.135-29.831a24.91 24.91 0 0 1 -14.865-1.23c-7.96-3.202-12.824-9.606-17.905-15.902s-23.19-9.174-29.622-9.457c0 0 13.595-15.038 31.946-21.442 18.352-6.404 27.027-3.864 33.149-.432a27.914 27.914 0 0 1 13.108 17.023s11.96 5.175 20.149 14.794a65.819 65.819 0 0 1 14.702 28.603c2.703 10.51 5.987 23.224 27.027 27.858 0 0 12.487-12.483 17.23-15.59a50.29 50.29 0 0 1 12.433-5.405c1.702-.5 9.743-3.121 9.743-3.121s12.621-10.282 14.675-12.335c0 0 4.703-8.35 7.69-13.214a66.678 66.678 0 0 1 7.73-9.606s-6.122-11.376-5.784-23.832c1.829.81 3.748 1.4 5.716 1.756a32.84 32.84 0 0 1 5.797-17.726 86.473 86.473 0 0 1 11.987-13.848 41.552 41.552 0 0 1 6.337-21.82s-5.175-8.296-5.621-13.592a96.91 96.91 0 0 0 15.135-2.702c6.527-1.878 9.716-3.202 13.04-7.188 3.325-3.985 11.257-13.686 21.325-18.442a61.363 61.363 0 0 1 29.23-5.836 35.326 35.326 0 0 0 -10.352-5.972s9.27-6.755 27.5-8.768c0 0 .135-9.242 2.108-14.105 0 0 24.217 16.564 36.365 21.32 12.149 4.755 20.987 6.295 27.284 9.457 6.297 3.161 10.743 8.782 11.77 12.294a64.532 64.532 0 0 1 11.987 6.256c5.189 3.648 8.202 12.43 8.202 12.43a151.202 151.202 0 0 1 19.987 10.092c10.149 6.188 22.635 19.226 22.635 19.226a39.065 39.065 0 0 0 -14.54 13.105s-3.068 10.7-8.109 15.983" fill="#7c8796"/><path d="m428.622 185.933c2.892-.02 5.775.325 8.58 1.026a37.578 37.578 0 0 1 6.568 2.446 49.581 49.581 0 0 0 4.46-3.175 14.137 14.137 0 0 1 9.986-3 12 12 0 0 1 7.608 4.743c2.202.11 4.407.11 6.608 0a21.787 21.787 0 0 1 13.73 4.66c4.69 3.73 8.973 9.256 3.27 16.633 0 0 1.217 4.674-.459 8.038-1.676 3.365-6.027 5.215-6.027 5.215s-2.703 7.972-8.932 10.025c-6.23 2.054-14.122-1.783-14.122-1.783a51.7 51.7 0 0 1 -12.703 1.419c-5.324-.379-11.148-4.878-11.148-4.878a8.958 8.958 0 0 0 -2.487 2.527c-1.23 1.783-10.392 14.632-12.54 16.902 0 0 8.972 8.714 17.85 12.348a86.351 86.351 0 0 0 15.73 4.837 15.147 15.147 0 0 1 9.338 9.174 37.846 37.846 0 0 1 9.46-1.122c3.743.27 7.392 1.014 13.919 7.742s5.054 12.808 4.054 15.605c-1 2.796-4.92 5.201-4.92 5.201s-.323 5.634-3.688 8.62a11.218 11.218 0 0 1 -7.933 2.473 11.108 11.108 0 0 1 -6.446 4.823c-4.689 1.351-9.73-1.04-12.08-2.905 0 0-9.622.851-15.866-2.243a22.092 22.092 0 0 1 -9.189-9.133 66.77 66.77 0 0 0 -21.689-4.458c-11.027-.095-32.432-6.053-39.378-11.16 0 0-10.622 4.837-19.176 4.958a27.82 27.82 0 0 0 -11.892-13.51s-19.824 10.997-26.932 14.307-19.595 4.459-21.42 4.648a19.68 19.68 0 0 1 -.148 7.863c-.973 4.85-3.932 14.39-6.46 17.564-2.526 3.175-9.54 7.093-13.648 8.593s-9.243 2.81-13.514 4.945a64.391 64.391 0 0 0 -11.81 8.593 55.74 55.74 0 0 0 8.608 1.58c1.986-.08 5.54-2.053 8.108-3.067 2.567-1.013 9.986-2.445 15.878 1.96 5.892 4.404 8.973 10.078 8.77 14.388-.202 4.31-2.959 7.418-7.067 9.539 0 0-1.23 6.066-6.365 7.93-5.135 1.865-13.716.176-13.716.176a20.476 20.476 0 0 1 -8.919 2.905c-4.851.284-11.392-3.918-12.419-4.472a7.136 7.136 0 0 0 -3.838-1.122c-1.784 0-21.013 1.595-27.027 1.595a13.514 13.514 0 0 1 -12.608-7.566c-2.527-4.675 1.014-12.16 3.27-15.119 2.257-2.958 5.798-7.12 6.244-7.957a2.283 2.283 0 0 0 -.636-3.08c-1.216-.838-5.121-2.703-5.121-2.703s-5.906 11.835-8.108 15.848a30.401 30.401 0 0 1 -10.811 11.957c-5.608 3.459-17.487 8.7-23.73 12.524a64.35 64.35 0 0 0 -9.986 7.35s0 11.254.405 12.646c0 0 5.635 1.108 7.892 3.067a12.159 12.159 0 0 1 4.378 9.538c-.08 4.391-.662 9.553-6.135 11.593 0 0-1.527 5.688-5.824 7.363a14.043 14.043 0 0 1 -8.703.19 20.49 20.49 0 0 1 -12.04 1.674 15.268 15.268 0 0 1 -11.406-14.105c-.094-6.458 1.014-29.79 1.014-31.304a9.55 9.55 0 0 0 -1.108-5.12c-1.122-2.054-3.757-7.188-3.081-10.471.675-3.283 4.054-7.107 7.094-9.728 3.04-2.62 6.838-5.215 8.69-10.457a66.19 66.19 0 0 0 3.648-17.929c.19-5.498.851-23.44 2.068-28.29 0 0-23.19-5.148-33.663-17.105s-12.243-21.496-15.23-34.29c-2.986-12.795-6.756-22.59-18.986-28.967a18.923 18.923 0 0 1 -14.865-.46c-8.419-3.647-13-13.172-17.473-16.55s-16.689-5.283-19.135-5.215c0 0 14.54-10.093 24.554-13.079 10.014-2.985 20.852-3.918 27.662 1.5 6.811 5.418 7.838 14.754 7.838 14.754s14.027 5.796 22.162 15.78c8.136 9.985 10.541 19.334 12.163 25.603 1.621 6.269 6.527 18.78 14.432 24.319a48.047 48.047 0 0 0 22.027 8.174s13.649-14.254 18.324-17.334a41.708 41.708 0 0 1 12.163-4.945c2.256-.649 10.027-3.216 10.027-3.216s13.756-11.835 16.391-13.875c0 0 7.973-13.808 10.217-17.091 2.243-3.283 8.27-10.944 8.27-10.944s-5.514-6.296-5.405-14.429c1.743.35 3.52.5 5.297.446a16.615 16.615 0 0 1 -1.351-11.025c1.35-6.444 8.297-16.915 17.648-24.954a43.658 43.658 0 0 1 1.581-13.24 40.88 40.88 0 0 1 5.96-11.62s-4.27-5.269-4.933-9.457a75.433 75.433 0 0 0 13.662-2.608 33.394 33.394 0 0 0 10.095-5.85s10.73-14.861 23.81-19.482a66.96 66.96 0 0 1 26.447-3.229 72.261 72.261 0 0 1 9.338-5.256s-5.19-5.836-9.46-7.647a61.648 61.648 0 0 1 19.379-2.337 54.167 54.167 0 0 1 1.23-10.214s16.215 11.687 23.58 14.943 21.473 7.944 26.257 9.457 12.838 4.594 14.554 13.227c0 0 7.852 3.31 10.96 4.999a19.281 19.281 0 0 1 6.919 7.39 33.165 33.165 0 0 0 2.094 5.04 6.757 6.757 0 0 0 3.5 2.702c1.351.486 14.297 6.269 20.27 10.808 5.973 4.54 14.109 12.241 14.109 12.241s-8.109 6.472-10.109 9.458a59.333 59.333 0 0 1 -6.35 13.915 23.377 23.377 0 0 1 -9.812 8.107l-.121 1.662z" fill="#fff"/><g fill="#0076b6"><path d="m411.23 247c7.702-6.944 15.392-21.09 19.094-24.318a11.285 11.285 0 0 1 8.446-2.486 13.514 13.514 0 0 0 9.69 4.972c3.958.09 7.902-.5 11.662-1.743 0 0 9.202 3.715 12.419 1.972 3.216-1.743 4.959-8.43 4.959-8.43s5.216-.987 5.405-3.473c.19-2.486-1.743-6.444-1.743-6.444s3.487-2.243 3.973-3.716c.487-1.472-1.23-3.485-2.703-4.728s-6.946-4.23-9.675-3.73c-2.73.5-11.176-.242-11.176-.242s-1.243-3.473-3.473-4.23a6.366 6.366 0 0 0 -6.216 1.744c-1.487 1.5-5.933 4.458-8.108 4.458-2.176 0-3.987-2.243-10.92-3.472a14.868 14.868 0 0 0 -11.175 1.986c.358-2.89.453-5.807.284-8.714 0-.311-1.473.067-1.527-.244-.19-3.39 0-8.417 0-8.417-.757 1.986-7.324 10.944-13.04 7.971-5.717-2.972-4.055-13.659-4.055-13.659 8.946-5.404 21.622-4.715 21.622-4.715 2.446 5.404-.77 10.917-.77 10.917 10.675-3.473 13.162-16.618 14.419-19.348 1.256-2.729 6.932-5.958 6.932-5.958a94.011 94.011 0 0 0 -11.676-8.93 150.014 150.014 0 0 0 -18.919-9.174c-1.973-.743-4.459-4.972-4.959-6.445-.5-1.472-1.973-5.971-5.703-7.957s-14.405-6.499-14.405-6.499 1.486-2.23-1-6.201c-2.487-3.973-11.433-5.702-26.068-10.66a77.87 77.87 0 0 1 -24.554-13.903c-.513 4.23 2.703 7.945 2.703 7.945-4.73-2.23-17.568-2.703-17.568-2.703a28 28 0 0 1 10.19 7.202c-4.96 0-12.92 4.728-12.92 4.728 6.46 0 9.19 3.459 9.19 3.459-5.96 2.702-18.92-1.243-33.5 1-14.581 2.243-24.068 13.659-24.068 13.659 6.203-2.256 10.176-.257 10.176-.257-4.946.257-17.865 8.431-22.824 11.147-4.96 2.715-12.163 2.486-12.163 2.486 1.717 3.729 6.446 4.742 6.446 4.742-6.446 4.458-9.946 14.862-9.946 14.862 3.73-4.23 9.19-3.986 10.433-1.487 1.243 2.5-.473 7.08-5.405 10.66-4.055 2.905-13.892 11.174-19.122 18.618s-6.014 13.321-6.014 13.321c6.23-2.553 8.352-.35 7.879 2.703-.825 5.215-10.014 9.254-10.014 9.254 2.23 3.73 10.649 3.986 10.649 3.986s-9.946 10.903-13.906 16.861c-3.959 5.958-10.662 17.888-11.918 19.618-1.257 1.729-15.879 13.416-17.568 15.145-1.69 1.73-16.649 5.404-20.365 7.201s-16.378 13.632-20.594 19.09c-.257.339-.5.663-.744.987-6.027-.432-20.04-2.256-29.54-10.106-12.365-10.241-15.257-22.428-17.392-30.737a54.038 54.038 0 0 0 -10.446-20.806c-4.838-6.188-19.716-13.592-22.23-15.132 0 0-1.838-10.457-6.96-13.916-5.5-3.715-12.729-2.959-15.797-2.189a35.14 35.14 0 0 0 -3.554 1.19c2.573.27 5.118.757 7.608 1.459 7.014 1.81 7.473 6.755 7.473 6.755s-9.013-9.782-27.243-2.702c1.446.243 6.757 1.35 9.46 4.85 3.04 4.053 3.946 6.985 12.635 11.781a12.489 12.489 0 0 0 13.689-.446s13.257 6.85 17.568 14.484a104.774 104.774 0 0 1 10.23 29.183c1.932 10.24 6 18.158 15.08 26.075 8.108 7.066 25.338 11.809 33.406 13.322-.216.756-.46 1.513-.716 2.324-1.987 6.444-1.987 18.117-2.703 30.777s-3.46 19.834-6.446 25.292c-2.987 5.458-12.162 10.687-12.892 13.902-.73 3.216 3.487 6.756 3.973 11.66s-.73 25.805-.73 28.778c0 2.972-.756 6.755.987 9.457a7.852 7.852 0 0 0 8.189 3.715 7.473 7.473 0 0 0 5.203-2.702s5.405 2.23 7.932.73 2.23-6.431 2.23-6.431 3.73 0 4.703-1.257c.972-1.256 1.243-5.715-.487-7.944-1.73-2.23-10.419-2.972-10.419-2.972-.473-1.014-1.986-17.875-.743-21.617 1.243-3.743 11.162-9.458 18.919-13.903s18.108-8.187 21.824-12.16c3.04-3.228 11.027-19.265 13.906-25.143.175-.364 9.743-23.9 32.635-34.33l.175-.122c-16.743 14.862-18.174 20.47-18.174 20.47s11.148-10.592 30.527-18.793c12.892-5.405 22.77-7.837 29.216-8.458-15.987 5.08-29.622 12.808-43.365 21.077a96.927 96.927 0 0 0 -23.5 20.13c12.392 4.932 11.446 10.214 10.365 13.24-1.243 3.487-8.933 11.174-10.176 14.646-1.243 3.473-.757 7.202 5.406 7.701 6.162.5 23.337-1.742 28.797-1.5 5.46.244 8.932 5.716 14.149 5.716a9.595 9.595 0 0 0 7.689-3.486c3.73 1.257 10.432 1.986 13.175.757 2.744-1.23 2.23-6.445 2.23-6.445 4.487-.757 7.203-2.986 6.46-5.404a13.876 13.876 0 0 0 -6.203-7.944 10.07 10.07 0 0 0 -9.919-.244c-2.703 1.23-6.46 3.46-10.432 2.973-3.973-.487-18.92-3.716-18.92-3.716 3.974-10.916 16.636-18.915 22.352-20.833 5.716-1.919 16.622-5.472 20.851-8.944 4.23-3.472 6.757-15.902 6.933-18.375.175-2.472-1.987-10.416-1.987-10.416 4.487-.743 16.135-.5 25.081-3.986 5.27-2.054 15.19-7.377 22.46-11.403-15.946-9.187-47.757-6.863-47.757-6.863 33.446-6.958 56.581 1.891 56.581 1.891 10.92 3.23 16.379 13.646 16.379 13.646 6.945-1 15.891-5.215 15.891-5.215 19.19-10.336 40.446-31.764 40.446-31.764m-14.513-113.11c2.216 0 6.757 2.999 10.027 3.188a52.218 52.218 0 0 0 -3.216 4.823c-.379 1 1.216 3.013 1.216 3.013s-6.406-4.81-8.406-6.215-9.635-3.013-9.635-3.013a87.395 87.395 0 0 1 10.014-1.797m-74.662 23.468a48.771 48.771 0 0 1 31.892 20.59s-16.609-13.362-34.298-15.226c-17.689-1.865-34.324 4.783-34.324 4.783a44.25 44.25 0 0 1 36.73-10.147m-53.446 45.112a46.455 46.455 0 0 1 -27.73-1.918c21.365-.757 31.487-6.756 52.703-18.024 21.216-11.267 43.567-1.85 43.567-1.85a60.295 60.295 0 0 0 -36.675 6.106c-7.838 3.824-17.095 12.16-31.825 15.686m90.622 2.81c-7.095-7.606-31.081-12.321-53.824-3.756 22.797-12.335 43.905-8.768 54.73-3.202 10.364 5.31 9.459 13.835 9.256 14.984.01.044.01.09 0 .135a46.533 46.533 0 0 0 12.892-4.756c.46-7.107 4.5-14.321 11.095-13.943 7.391.419 17.567 5.877 17.567 5.877-14.149 11.417-40.094 20.888-49.257 22.806 0 0 6.325-8.647-2.486-18.131"/><path d="m485.23 290.167c-.73-3.229-4.46-7.93-8.42-10.173-3.959-2.243-8.432-.257-11.905 0a8.108 8.108 0 0 1 -7.216-4.216c-.73-1.729-2.973-4.972-5.946-5.404a81.093 81.093 0 0 1 -18.919-6.444c-5.473-2.527-12.162-8.026-16.554-12.079a211.766 211.766 0 0 1 -16.919 15.726 186.61 186.61 0 0 1 -22.23 15.065c14.757 7.039 32.203 7.917 40.284 8.782a70.958 70.958 0 0 1 19.109 5.404 13.039 13.039 0 0 0 7.202 8.174c5.933 2.702 14.635 1.243 14.635 1.243s4.473 4.458 8.19 3.229c3.716-1.23 3.973-6.201 3.973-6.201s4.716 2.486 7.189.756 1.743-8.687 1.743-8.687c2.973 0 6.446-1.986 5.69-5.215"/></g></g></svg>