<svg viewBox="0 0 500 500" xmlns="http://www.w3.org/2000/svg"><g clip-path="url(#a)"><path d="M248.675 86C113.735 86 0 161.566 0 251.012c0 93.06 106.94 163.277 248.675 163.277 82.747 0 161.204-28.916 209.879-77.783 26.747-26.795 41.494-57.205 41.446-85.494 0-44.096-25.976-85.494-73.012-116.626-47.036-31.133-110.506-48.193-178.313-48.193" fill="#FFC20E"/><path d="M74.795 360.313c-43.373-28.915-67.084-67.47-67.084-109.301 0-83.807 112.626-157.253 240.964-157.301 134.265 0 243.566 70.554 243.662 157.301 0 26.265-13.927 54.699-39.228 80.048-47.278 47.277-123.663 75.518-204.434 75.518-67.47 0-129.205-16.433-173.88-46.265" fill="#2A433A"/><path d="M356.578 207.783c-19.277-28.916-61.735-48.819-111.662-48.819-68.531 0-124.049 37.686-124.049 84.144 0 46.458 39.181 87.277 124.049 87.229 50.939 0 91.903-22.024 110.843-50.891l-144.578.241-.434-37.591h251.229c.396 2.989.621 5.998.674 9.012 0 72.289-95.807 130.988-214.024 130.988S34.699 323.205 34.699 250.916c0-72.29 101.494-133.254 213.976-133.687 93.638-.338 173.253 38.313 202.409 90.409l-94.506.145z" fill="#fff"/></g><defs><clipPath id="a"><path fill="#fff" transform="translate(0 86)" d="M0 0h500v328.241H0z"/></clipPath></defs></svg>