<svg viewBox="0 0 500 500" xmlns="http://www.w3.org/2000/svg"><g fill="none" fill-rule="evenodd"><path d="m456.251 140.61c.112-.263.202-.514.277-.752.069-.208.12-.406.17-.597-.004-.01-.004-.021-.011-.029-.72-2.068-2.159-2.22-5.184-1.982a135.88 135.88 0 0 1 -11.92 1.72h.003c-.19.021-.367.04-.554.057-.133.011-.27.026-.4.036-.514.047-1.01.094-1.488.13-.072.007-.14.01-.21.018-4.424.36-7.222.377-7.222.377 11.302 8.547 12.622 21.781 12.622 21.781l.576-.493c8.676-6.298 13.341-20.266 13.341-20.266" fill="#000"/><path d="m338.828 210.89c5.605 16.511-3.83 38.627-3.83 38.627 12.38-10.616 22.111-32.432 22.111-32.432 20.345-4.13 31.554 0 31.554 0 2.651 15.92-3.248 28.892-3.248 28.892 11.795-9.432 17.104-34.5 17.104-34.5s-4.716-4.42-25.651-5.896c-20.939-1.475-38.04 5.31-38.04 5.31m15.26 63.153s-6.147 17.112-12.464 23.432c0 0 8.162 4.471 22.374 3.158 14.22-1.32 17.64-6.583 18.957-11.845 1.32-5.266 0-12.64-2.37-18.17 0 0 1.053 13.954-8.688 21.062 0 0-10.496 2.198-17.341.09 0 0 2.69-5.615-.468-17.727m-33.51-133.016c.14.029.287.058.435.09-.148-.029-.291-.061-.435-.09-8.583-1.633-12.198 4.849-12.198 4.849-2.72 4.022-1.684 5.95-1.684 5.95 26.443-.464 40.698 3.809 40.698 3.809s-9.852-10.77-25.737-14.385l-1.08-.223zm105.66 13.581c-3.482-3.245-10.903-7.421-19.022-5.799-8.115 1.626-8.583 10.439-8.583 10.439 8.813-8.119 27.605-4.64 27.605-4.64" fill="#bfc0bf"/><path d="m229.429 171.967s43.575-8.342 93.417 3.432c1.791-1.608 3.856-3.245 6.248-4.907 0 0-45.705-12.68-99.665 1.475m.235 17.021s38.194-9.517 84.759-3.1c.892-1.766 2.094-3.623 3.665-5.55-16.809-1.925-50.917-3.436-88.424 8.65m.972 16.479s36.093-11.148 81.604-8c-.223-1.63-.241-3.58.176-5.777-18.244-.5-48.96 1.162-81.78 13.777m-106.444 113.65h.018l.212.022c.795.072 3.338.31 3.479.324.345.032 4.716.489 4.752.492a337.405 337.405 0 0 1 18.823 2.644c14.28-52.266 54.457-80.198 54.457-80.198-54.342 26.285-77.19 69.065-81.74 76.716m256.22-72.395c-3.396-15.767 5.59-26.562 5.59-26.562-20.421 17.907-8.061 35.831-1.878 49.738 6.176 13.91 3.709 24.108-2.471 31.216-6.183 7.111-23.183 7.73-34.615 5.564-11.435-2.165-17.31-14.219-20.4-28.431-3.09-14.22 2.472-39.252 2.472-39.252-8.346 12.673-8.346 38.633-1.853 59.651 6.486 21.01 23.486 26.263 35.85 26.263 12.363 0 34.614-10.504 31.183-35.53-3.432-25.02-10.475-26.895-13.878-42.657m-132.919 12.783c-21.324-21.59-21.972-46.015-21.972-46.015s-7.316 28.479 10.061 49.802c17.378 21.324 59.702 23.652 59.702 23.652s-26.468-5.853-47.791-27.44m107.844-93.434c25.065 9.733 24.77 24.769 24.77 24.769 3.831-14.446 21.525-22.112 21.525-22.112s-9.14-4.428-21.82-5.309c-12.683-.889-24.475 2.651-24.475 2.651m-34.76-25.041c-15.105-3-29.59 3.05-30.324 3.363-.004.004-.01.004-.014.008h-.011l-.004.007c13.917.234 18.155 1.471 18.155 1.471s3.615-6.482 12.198-4.849m49.086 196.127h-.004c-.161.062-9.028 3.184-20.003 1.213 0 0 14.521 14.05 29.262 44.773l.022.05.568-.043c-1.424-14.003-7.403-37.464-8.777-41.791z" fill="#0085ca"/><path d="m496.775 210.814c-18.363-10.018-39.194-13.133-55.169-13.756 0 0-.032.004-.093.004.06 0 .093-.004.093-.004.6-2.025 1.331-4.597 2.04-7.37.356-.022.604-.04.604-.04 32.018-1.05 48.942 7.421 48.942 7.421l-1.611-1.24c-15.6-7.231-32.094-9.868-46.367-10.274h-.58c.497-2.22 1.134-6.727 1.26-6.72l.33.015c24.634.259 38.073 6.097 38.073 6.097l-1.615-1.274c-12.223-5.212-24.713-7.572-36.41-8.352.068-4.554-.691-8.31-2.421-11.554 9.032-7.838 12.37-19.78 12.845-24.496 0 0 0-.004.004-.004v-.01c.04-.16.122-.59.133-.677.01-.094.021-.184.029-.27a3.58 3.58 0 0 0 .028-.468c0-.086 0-.165-.003-.244a4.849 4.849 0 0 0 -.043-.407l-.033-.208a4.192 4.192 0 0 0 -.104-.356c-.022-.062-.04-.123-.061-.177-.047-.111-.101-.212-.151-.309-.033-.054-.058-.104-.09-.155a3.416 3.416 0 0 0 -.184-.262c-.04-.04-.072-.083-.108-.126-.064-.08-.14-.148-.216-.22-.04-.032-.079-.072-.115-.1-.082-.069-.161-.126-.244-.187l-.115-.083c-.087-.05-.173-.1-.256-.144a.933.933 0 0 1 -.118-.068 4.16 4.16 0 0 0 -.263-.115c-.036-.015-.072-.033-.112-.047a10.77 10.77 0 0 0 -.248-.09c-.036-.01-.072-.025-.108-.032a1.643 1.643 0 0 0 -.233-.065.38.38 0 0 0 -.087-.022 1.863 1.863 0 0 0 -.208-.047c-.022-.003-.047-.01-.069-.014-.06-.01-.115-.022-.172-.029a.153.153 0 0 1 -.04-.007 3.559 3.559 0 0 0 -.194-.018c-15.597.17-28.418-5.126-28.418-5.126-.345-.13-.697-.252-1.046-.378-34.698-12.697-70.709-16.33-102.774-15.748l-.01-.032c-14.317.133-24.774 1.306-24.774 1.306-46.029 3.892-79.032 14.917-79.032 14.917s-12.529 3.536-29.212 2.705c0 0-6.195-.108-7.418 3.83-1.05 2.512-1.19 5.5 1.17 12.044 2.719 7.543 13.6 21.723 13.686 21.835-32.92 13.37-118.669 61.464-195.489 158.165 0 0 16.234-4.22 41.766-7.209v-.003c50.67-95.097 175.727-155.957 175.727-155.957-8.094.867-14.914 2.313-14.914 2.313-11.406-8.198-20.068-24.158-21.521-26.946.075.151.176.345.298.572 0 0-.644-1.453-.554-2.504a1.668 1.668 0 0 1 .112-.485c.658-1.508 2.234-1.605 4.327-1.342.126.01.26.043.392.079 5.173.763 19.54 4.486 39.896 2.248 21.367-2.349 29.115-8.924 28.881-10.802 0 0 16.187-7.712 36.561-9.068 20.375-1.36 47.54 4.586 58.241 18.338 1.954 2.507 3.065 4.475 3.594 6.014.665-1.068 1.014-2.363.867-3.841-.572-5.515-7.295-11.317-13.295-14.738-5.28-3.01-18.453-7.863-10.925-7.457 7.533.4 46.612 6.097 61.389 15.655 9.093 5.885 9.91 11.92 9.91 11.92s11.212-4.625 23.72.486c12.51 5.112 15.377 11.727 17.863 16.267 0 0-1.32-13.234-12.623-21.78 0 0 2.803-.019 7.223-.375.072-.007.137-.01.21-.018.481-.04.974-.083 1.488-.133.13-.01.266-.025.4-.036l.557-.054-.003-.004c3.428-.341 7.51-.874 11.917-1.715 3.029-.241 4.464-.09 5.183 1.978.007.007.007.018.011.029-.047.19-.1.392-.169.597a7.21 7.21 0 0 1 -.277.752s-4.665 13.97-13.342 20.266l-.575.493s-13.46-3.05-25.903-.936c-12.45 2.112-14.795 8.295-14.795 8.295s15.126 5.544 16.978 17.209c1.86 11.669-5.298 20.683-9.277 23.335 0 0 16.968-6.63 16.177-23.069-.263-5.338-2.867-9.05-6.274-11.633a.011.011 0 0 0 .007.004s4.889 1.518 7.605 4.079c1.24 1.172 2.608 2.392 3.827 3.942 1.425 1.864 1.896 3.05 1.9 3.05.586 1.242 1.057 2.673 1.352 4.353 1.054 6.007-.792 11.878-.792 11.878-7.982 32.457-39.399 73.694-39.399 73.694.004-.004.011-.007.015-.01 23.751-20.26 39.579-56.109 46.507-74.163 37.446.407 57.906 10.831 57.906 10.831z" fill="#0085ca"/><path d="m385.415 245.977s5.9-12.968 3.245-28.892c0 0-11.205-4.13-31.55 0 0 0-9.73 21.816-22.115 32.432 0 0 9.435-22.116 3.834-38.626 0 0 17.1-6.785 38.04-5.31 20.931 1.475 25.65 5.896 25.65 5.896s-5.309 25.068-17.104 34.5zm-13.518 45.705c9.741-7.111 8.688-21.065 8.688-21.065 2.37 5.533 3.69 12.907 2.37 18.17-1.317 5.266-4.737 10.528-18.957 11.845-14.212 1.313-22.374-3.159-22.374-3.159 6.317-6.32 12.464-23.428 12.464-23.428 3.158 12.112.468 17.723.468 17.723 6.845 2.108 17.341-.086 17.341-.086zm22.396-2.302c3.428 25.025-18.824 35.529-31.183 35.529-12.367 0-29.364-5.252-35.853-26.263-6.493-21.018-6.493-46.978 1.856-59.651 0 0-5.56 25.032-2.475 39.252 3.094 14.212 8.965 26.266 20.4 28.431 11.435 2.166 28.431 1.547 34.615-5.564 6.18-7.108 8.647-17.306 2.475-31.216-6.184-13.907-18.547-31.831 1.874-49.738 0 0-8.986 10.795-5.59 26.562 3.406 15.762 10.45 17.636 13.881 42.658zm-79.867-103.493c-46.568-6.417-84.762 3.1-84.762 3.1 37.507-12.086 71.615-10.575 88.424-8.65-1.572 1.928-2.773 3.787-3.662 5.55zm-2.187 11.583c-45.51-3.148-81.604 7.996-81.604 7.996 32.82-12.615 63.54-14.273 81.78-13.777-.417 2.202-.399 4.148-.176 5.78zm-76.654 65.82c-17.378-21.32-10.065-49.799-10.065-49.799s.647 24.425 21.975 46.015c21.323 21.586 47.787 27.439 47.787 27.439s-42.32-2.328-59.697-23.655zm93.51-92.795a64.453 64.453 0 0 0 -6.251 4.903c-49.839-11.774-93.414-3.432-93.414-3.432 53.96-14.154 99.665-1.471 99.665-1.471zm-38.867-26.094c.004 0 .008-.003.011-.003.004-.004.011-.004.015-.007.751-.32 15.92-6.662 31.402-3.137 15.885 3.615 25.741 14.381 25.741 14.381s-14.259-4.273-40.701-3.81c0 0-1.036-1.927 1.683-5.949 0 0-4.237-1.237-18.154-1.471zm116.986 4.41c8.119-1.622 15.543 2.55 19.025 5.8 0 0-18.791-3.48-27.604 4.64 0 0 .468-8.817 8.579-10.44zm26.716 41.184c-.295-1.676-.766-3.108-1.353-4.353-.003 0-.474-1.187-1.899-3.046-1.22-1.554-2.586-2.774-3.83-3.946-2.713-2.562-7.602-4.08-7.602-4.08s-.003 0-.007-.003c3.407 2.583 6.011 6.295 6.27 11.633.795 16.439-16.173 23.072-16.173 23.072 3.979-2.651 11.137-11.666 9.277-23.335-1.852-11.669-16.978-17.212-16.978-17.212s-17.694 7.666-21.529 22.115c0 0 .295-15.036-24.766-24.77 0 0 11.791-3.54 24.471-2.654 12.684.885 21.824 5.31 21.824 5.31s2.345-6.18 14.795-8.292c12.442-2.115 25.903.935 25.903.935-2.486-4.54-5.353-11.155-17.864-16.27-12.507-5.108-23.719-.485-23.719-.485s-.817-6.036-9.91-11.918c-14.777-9.56-53.856-15.255-61.389-15.658-7.528-.403 5.644 4.45 10.925 7.46 6 3.421 12.723 9.224 13.295 14.734.147 1.482-.202 2.777-.867 3.842-.529-1.54-1.644-3.503-3.597-6.01-10.698-13.756-37.863-19.699-58.238-18.339-20.374 1.356-36.56 9.069-36.56 9.069.233 1.877-7.515 8.453-28.882 10.802-20.356 2.237-34.723-1.49-39.896-2.252-.133-.032-.266-.065-.392-.076-2.097-.262-3.669-.165-4.327 1.342-.025.068-.05.137-.068.212-.018.087-.033.18-.044.274-.09 1.05.554 2.5.554 2.5a51.506 51.506 0 0 1 -.302-.569c1.457 2.785 10.119 18.749 21.525 26.943 0 0 6.82-1.446 14.914-2.313 0 0-125.058 60.863-175.727 155.96 22.08-2.586 51.123-4.252 82.659-1.478a58.97 58.97 0 0 0 -.213-.022h-.018c4.55-7.65 27.4-50.435 81.738-76.716 0 0-40.176 27.932-54.453 80.198 18.169 3.087 36.723 7.864 54.888 14.936 58.41 22.762 107.637 46.557 163.133 46.068l9.443-.414a.345.345 0 0 1 -.022-.047c-14.74-30.723-29.263-44.777-29.263-44.777 10.975 1.972 19.842-1.15 20.004-1.208a25.043 25.043 0 0 0 2.137-.87c18.154-9.781 21.187-26.346 22.672-38.216 1.713-13.72-.73-22.5-.73-22.5s31.417-41.238 39.4-73.698c0 0 1.845-5.87.79-11.878z" fill="#000"/></g></svg>