<svg viewBox="0 0 500 500" xmlns="http://www.w3.org/2000/svg" xmlns:xlink="http://www.w3.org/1999/xlink"><clipPath id="a"><path d="m0 0h500v500h-500z"/></clipPath><g clip-path="url(#a)"><path clip-rule="evenodd" d="m499.387 278.236c-2.021-12.302-10.145-30.369-37.384-46.624a132.204 132.204 0 0 0 -5.759-3.216c5.092-1.711 10.359-3.476 10.359-3.476l-30.187-11.752c-2.579-1.003-5.293-1.912-8.036-2.793l4.1-4.155-23.142-3.237c-10.007-1.4-17.896-1.723-23.941-1.635a39.641 39.641 0 0 0 -.235-2.675l-3.865-28.931s-8.956 12.206-9.847 13.417a60.386 60.386 0 0 0 -6.54-8.943l-24.966-28.18s.996 8.293 1.794 14.91a150.152 150.152 0 0 0 -26.843-14.889c-40.165-17.191-90.965-20.767-139.372-9.815-40.487 9.169-98.946 33.06-147.5 94.833l-28.023 35.66 42.18-16.775c.337-.13 32.897-12.801 59.157-16.495 9.792-1.379 17.29-1.493 11.203 11.899-4.797 10.566-15.694 25.983-15.807 26.143l-21.123 30.658 35.232-12.21c16.946-5.878 32.158-8.78 39.849-9.048 2.748.046 3.252 1.857 2.386 3.832-.247.679-.39 1.04-2.293 3.954l-22.092 31.471 36.236-12.955c26.297-9.417 60.87-15.615 73.237-10.898 1.008.378 4.277 2.109 1.038 6.852l-14.233 22.603s21.013-3.186 24-3.643c1.651 20.637 12.023 31.886 13.3 33.19l15.265 15.623 5.361-21.162c3.848-15.224 11.098-23.526 17.568-28.046 0 .009 1.243 8.696 1.243 8.696l14.153-5.094c11.901-4.293 21.315-9.446 28.095-15.333 8.969-.709 30.88-2.009 51.926.071 36.275 3.577 60.606-1.237 67.201-2.796 8.822-2.084 16.262 1.672 16.337 1.714l10.784 5.854 5.818-10.902c.689-1.308 3.978-8.113 3.978-18.201 0-2.499-.202-5.019-.613-7.501z" fill="#fff" fill-rule="evenodd"/><path d="m499.387 278.236c-2.021-12.302-10.145-30.369-37.384-46.624a132.204 132.204 0 0 0 -5.759-3.216c5.092-1.711 10.359-3.476 10.359-3.476l-30.187-11.752c-2.579-1.003-5.293-1.912-8.036-2.793l4.1-4.155-23.142-3.237c-10.007-1.4-17.896-1.723-23.941-1.635a39.641 39.641 0 0 0 -.235-2.675l-3.865-28.931s-8.956 12.206-9.847 13.417a60.386 60.386 0 0 0 -6.54-8.943l-24.966-28.18s.996 8.293 1.794 14.91a150.126 150.126 0 0 0 -26.844-14.889c-40.164-17.191-90.964-20.767-139.371-9.815-40.487 9.169-98.946 33.06-147.5 94.833l-28.023 35.66 42.18-16.775c.337-.13 32.897-12.801 59.157-16.495 9.792-1.379 17.29-1.493 11.203 11.899-4.797 10.566-15.694 25.983-15.807 26.143l-21.123 30.658 35.232-12.21c16.946-5.878 32.158-8.78 39.849-9.048 2.748.046 3.252 1.857 2.386 3.832-.247.679-.39 1.04-2.293 3.954l-22.092 31.471 36.236-12.955c26.297-9.417 60.87-15.614 73.237-10.898 1.008.378 4.277 2.109 1.038 6.852l-14.233 22.603s21.013-3.186 24-3.643c1.651 20.637 12.023 31.886 13.3 33.19l15.265 15.623 5.361-21.162c3.848-15.224 11.098-23.526 17.568-28.046 0 .009 1.243 8.696 1.243 8.696l14.153-5.094c11.901-4.293 21.315-9.446 28.095-15.333 8.969-.709 30.88-2.009 51.926.071 36.275 3.577 60.606-1.237 67.201-2.796 8.822-2.084 16.262 1.672 16.337 1.714l10.784 5.854 5.818-10.902c.689-1.308 3.978-8.113 3.978-18.201 0-2.499-.202-5.019-.613-7.501" stroke="#fff" stroke-width="3.018"/><g clip-rule="evenodd" fill-rule="evenodd"><path d="m494.333 280.328c-1.794-10.897-9.183-27.001-34.237-41.961-6.7-3.988-13.976-7.397-21.34-10.294l8.872-2.973-12.187-4.75c-6.036-2.352-12.38-4.289-18.92-5.862 1.256-1.266 2.617-2.658 2.617-2.658l-9.339-1.312c-14.383-2.009-24.314-1.778-30.157-1.229.054-1.258.096-2.591.096-3.933 0-1.878-.071-3.727-.269-5.22l-1.567-11.689s-5.675 7.744-6.498 8.863c-1.878-5.207-4.953-11.66-10.578-18.012l-10.09-11.396 1.142 9.513c-9.065-8.411-21.621-17.257-38.824-24.62-39.038-16.713-88.532-20.163-135.767-9.472-39.588 8.956-96.757 32.344-144.286 92.813l-11.98 15.245 18.034-7.178c.336-.13 33.88-13.388 61.147-17.027 10.695-1.422 18.072-.155 20.773 3.564 2.525 3.488 1.71 10.39-2.201 18.482-5.364 11.098-16.32 27.027-16.429 27.194l-9.032 13.103 15.064-5.216c19.853-6.884 44.877-11.979 50.675-8.197 1.34.877 2.062 1.908 2.344 3.35.928 4.814-3.218 12.113-4.751 14.298l-9.457 13.446 15.502-5.534c24.763-8.86 69.166-19.023 82.886-8.524 6.348 4.859.416 14.461.151 14.863l-6.091 9.677 11.309-1.723s2.785-.432 5.532-.855c-.033.884-.092 1.786-.092 2.629 0 21.849 11.073 33.463 11.607 34.016l6.532 6.684 2.294-9.057c6.427-25.438 21.638-34.239 30.12-37.228.231 1.685 1.411 9.924 1.411 9.924l6.049-2.18c14.838-5.346 23.147-11.207 27.713-15.61 6.822-.6 31.83-2.486 55.846-.117 35.359 3.496 58.862-1.149 65.227-2.654 11.724-2.768 21.256 2.293 21.352 2.339l4.655 2.541 2.499-4.675c.16-.298 3.172-6.142 3.172-14.989 0-1.984-.155-4.126-.529-6.399z" fill="#9e7c0c"/><path d="m456.984 243.643c-10.46-7.383-24.549-12.759-38.223-16.595 5.696-1.837 11.397-1.715 11.397-1.715-8.759-3.342-17.904-5.43-26.411-6.746l3.184-2.851c-15.58-2.654-26.456-2.449-32.909-1.778.807-3.187 1.47-8.055.634-14.554 0 0-1.886 5.602-6.469 9.082-.605-7.27-2.932-17.786-10.838-24.922l1.466 12.834c-6.965-10.473-20.223-23.857-45.276-35.555-68.117-31.778-188.147-19.732-254.029 65.203 0 0 25.617-12.784 61.118-13.627 18.593-.436 23.117 9.958 16.341 27.476-6.814 17.605-18.761 33.052-18.761 33.052s80.333-28.411 54.968 11.052c0 0 60.643-18.121 78.833 3.136 8.456 9.87-1.391 23.669-1.391 23.669l17.203-3.719c-5.579 21.807 4.188 35.74 4.188 35.74 7.1-28.507 31.855-36.101 40.618-37.539l1.895 7.719c14.686-5.295 21.592-10.935 25.541-15.58 31.098-4.881 52.216-.709 76.19.595 34.922 1.899 52.973-4.168 58.74-4.13 4.235.038 9.255 3.723 9.255 3.723s14.514-24.452-27.264-53.97z"/><path d="m428.317 290.02c17.391-.096 30.406-1.66 40.643-4.046-37.786-16.163-111.767-23.077-123.227-22.142 0 0-6.264 1.761.945 8.67-10.082-3.962-20.143-11.513-20.84-15.337-.74-4.063 6.624-5.203 24.062-3.153 65.298 7.698 121.812 18.608 129.449 34.574 0 0 3.986-19.987-28.57-39.023-27.856-18.536-70.654-21.568-70.654-21.568l10.813 8.701-20.114-1.74 15.926 11.492c-17.093-5.576-63.122-20.629-101.261-11.111 0 0 41.853-.469 60.954 10.91-70.696-11.518-107.458 12.989-107.458 12.989 39.766-11.333 71.503-8.205 81.921-6.654-16.724 3.983 2.966 16.206 14.997 22.591 1.365 3.35 4.663 10.193 1.437 15.954 0 0 3.625-4.604 6.267-11.375l9.784 7.84c29.204-3.597 50.746 2.541 74.926 2.428z" fill="#fff"/><path d="m294.624 163.568c-77.299-23.023-157.964-.751-202.732 42.042 0 0 45.067-14.155 58.585-.248 15.724 16.172-8.099 54.197-8.099 54.197l15.581-2.436c-1.122.134-1.765.214-1.765.214 12.17-42.507 23.16-57.413 30.515-64.7 4.373-5.325 12.103-8.935 18.303-11.04-41.659 1.983-82.16 10.541-82.16 10.541 26.197-20.289 86.924-34.465 121.934-30.901 35.005 3.568 32.623 17.74 29.023 25.823-2.911 6.533-17.215 15.388-30.662 18.252 13.926 1.807 21.811 12.532 16.82 23.241a25.82 25.82 0 0 1 -1.453 2.662 150.326 150.326 0 0 0 -38.866 15.208c-.374.222-.748.44-1.13.654-.504.293-1.008.587-1.512.884-.379.227-.765.449-1.151.688-.467.281-.933.57-1.391.855-.382.244-.773.478-1.147.726a45 45 0 0 0 -1.31.842c-.37.235-.752.483-1.122.73-.408.289-.819.566-1.227.843-8.893 6.1-15.35 12.209-18.698 16.947 0 0 91.045-18.406 75.271 27.358l23.516-6.431c-1.659 2.893-4.285 6.197-7.855 10.171-11.116 12.327-10.351 24.042-10.351 24.042s3.264-12.822 24.297-21.61c19.181-8 23.605-21.601 23.605-21.601s6.394 9.425 1.164 22.624c0 0 8.83-2.201 16.736-13.027 3.222-5.752-.076-12.595-1.441-15.945-12.031-6.386-31.721-18.604-14.997-22.591-10.418-1.551-42.151-4.679-81.921 6.654 0 0 36.762-24.507 107.458-12.99-19.102-11.379-60.954-10.909-60.954-10.909 14.564-3.635 30.271-3.682 45.083-2.051a202.062 202.062 0 0 0 -23.563-5.018c-14.539-1.719-28.414-.948-41.218 1.408 14.388-14.901 40.588-12.943 40.588-12.943-17.471-11.752-40.26-7.991-40.26-7.991 25.545-13.195 53.951-8.73 53.951-8.73-8.931-11.769-30.024-14.36-30.024-14.36 41.807-1.69 56.455 20.238 56.455 20.238-10.426-4.532-17.845-3.849-17.845-3.849s10.045 1.627 16.846 14.315c7.204 13.442 13.312 13.06 13.312 13.06s11.456-43.316-64.189-65.848z" fill="#241773"/><path d="m212.007 251.073c.432-.285 2.075-1.325 2.457-1.568.458-.285.924-.575 1.391-.86.386-.235.773-.457 1.151-.683.504-.298 1.008-.591 1.512-.885.382-.214.752-.432 1.13-.654a150.27 150.27 0 0 1 38.866-15.207 25.94 25.94 0 0 0 1.453-2.663c4.987-10.708-2.894-21.434-16.82-23.245 13.447-2.859 27.751-11.715 30.662-18.251 3.6-8.08 5.982-22.252-29.023-25.82-35.01-3.564-95.737 10.612-121.934 30.901 0 0 40.501-8.557 82.16-10.54-6.2 2.104-13.93 5.714-18.303 11.039-7.355 7.287-18.345 22.189-30.515 64.7 0 0 .643-.08 1.765-.214 5.221-.662 20.92-2.545 30.22-3.019l15.67-.901c1.697 0 3.444-.059 5.217-.155.197-.13.399-.273.592-.403.408-.277.819-.553 1.227-.843.37-.247.752-.494 1.122-.729z" fill="#fff"/><path d="m232.543 198.177a21.026 21.026 0 0 1 -1.718 3.036c5.007-1.493 8.889-4.256 10.792-7.556 4.192-7.308.983-12.553-5.785-13.266l-7.027.021s-1.215.994-3.433 4.352c8.171.067 11.494 4.143 7.171 13.413zm-12.139 34.894c-1.323 2.851-3.104 5.04-5.112 6.738 5.302-1.313 11.031-4.478 14.186-11.258 5.201-11.161.567-15.841-7.763-15.841h-10.355a150.2 150.2 0 0 0 -2.235 4.525h3.508c8.339 0 12.964 4.675 7.771 15.836z"/><path d="m215.293 239.807c2.004-1.694 3.785-3.887 5.113-6.738 5.192-11.157.567-15.837-7.772-15.837h-3.508c-5.776 12.206-9.367 23.384-9.367 23.384h8.947c1.928 0 4.218-.21 6.587-.809zm15.531-38.596a20.296 20.296 0 0 0 1.718-3.035c4.327-9.271 1.004-13.342-7.17-13.413-2.155 3.245-5.26 8.696-9.15 17.626h6.28c2.987 0 5.793-.431 8.322-1.178z" fill="#241773"/><path d="m270.617 175.872c-3.272-5.359-11.262-8.537-25.448-9.258 0 0-14.363-1.945-32.536.486-7.191.956-42.151 4.508-71.918 19.011 26.033-6.327 56.8-8.642 76.279-9.35 8.196-.29 17.19-.03 17.19-.03 5.826 0 11.228 1.719 13.3 5.107 2.146 3.514 2.738 7.719-1.299 12.864-2.222 2.834-4.831 5.815-12.405 8.897l8.73-1.862c13.048-2.784 24.89-10.096 27.612-15.773 1.987-4.143 2.1-7.459.495-10.092z" fill="#9e7c0c"/><path d="m207.47 209.081h14.375c7.419 0 10.83 3.035 12.393 5.597 2.449 4 2.012 9.396-1.021 16.159-5.852 13.032-20.03 14.206-24.281 14.206l-16.316.624c7.07-22.393 14.85-36.586 14.85-36.586zm7.477 40.113c10.376-6.39 23.361-12.474 38.186-16.596a21.525 21.525 0 0 0 2.386-3.953c1.491-3.191 1.664-7.158.601-10.294-1.601-4.759-4.789-7.929-14.838-10.276-13.224-3.082-32.535-1.724-32.535-1.724 4.44-10.771 7.759-17.069 11.082-22.528-2.853-.184-17.262 1.342-28.322 11.878-9.633 8.495-20.034 30.575-28.314 56.859 14.241-1.492 27.142-2.167 27.142-2.167l13.535-.583c3.558 0 7.301-.193 11.077-.616z" fill="#9e7c0c"/><path d="m335.505 213.259c2.168 5.124-.819 10.818-6.675 12.717-5.852 1.904-12.359-.721-14.526-5.849-2.168-5.128.819-10.821 6.675-12.717 5.847-1.899 12.354.722 14.526 5.849z" fill="#c60c30"/><path d="m320.449 220.798c-1.634-3.854.727-8.176 5.251-9.648a9.907 9.907 0 0 1 5.214-.264c-2.261-1.426-5.323-1.87-8.192-.939-4.537 1.467-6.894 5.786-5.251 9.66.995 2.377 3.285 4.025 5.948 4.595-1.31-.826-2.365-1.983-2.97-3.404z" fill="#fff"/><path d="m334.972 216.383c1.18 3.07-.509 6.504-3.773 7.678-3.264 1.157-6.856-.378-8.036-3.46-1.18-3.065.521-6.494 3.777-7.656 3.259-1.174 6.855.365 8.032 3.438z"/></g></g></svg>