<svg viewBox="0 0 500 500" xmlns="http://www.w3.org/2000/svg"><path d="m341.417 114 15.983 49.002-11.891 36.414-27.76-85.416h-124.438l-22.321 68.467-22.231-68.467h-148.759l46.732 75.886 64.017 196.637h120.46l24.208-74.335 24.142 74.335h131.788l88.653-272.523zm-278.052 68.176-30.794-49.991h102.971l25.872 79.685-44.191 135.743zm154.559 186.566h-88.428l72.221-221.857 44.147 135.902zm-1.865-236.557h88.473l31.469 96.655-44.281 136.059zm181.914 236.445h-88.407l66.895-205.516-10.07-30.929h108.501z" fill="#ffb612"/><path d="m335.933 228.863-44.282 136.06-75.593-232.737h88.474zm30.457-96.677 10.025 30.929-66.893 205.517h88.405l77.01-236.446zm-230.849 0h-102.97l30.794 49.99 53.947 165.438 44.102-135.744zm-6.045 236.446h88.54l27.94-85.844-44.259-135.902z" fill="#5a1414"/></svg>