<svg xmlns="http://www.w3.org/2000/svg" viewBox="0 0 896 481.5" xmlns:v="https://vecta.io/nano"><path d="M822.9 0H73.1C32.8 0 0 32.7 0 73.1v335.2c0 40.4 32.8 73.2 73.1 73.2h749.7c40.4 0 73.1-32.8 73.1-73.2V73.1C896 32.7 863.3 0 822.9 0z" fill="#fff"/><path d="M857.3 38.6a48.57 48.57 0 0 0-34.5-14.3H613.2l120.6 201.2 11 1.4 6.4 9.2v8.7l7.8 1.4 6.9 9.6v8.3l7.8 1.4s7.8 8.3 7.8 8.7c0-.5 0 18.8 0 18.8s17 15.6 32.2 21.6c10.6 4.1 11.9 21.1 17.9 30.3 8.3 12.8 19.3 18.4 17 25.7-5.5 19.7-25.7 52.8-44.5 54.7h-74.4v31.8h93c26.9 0 48.8-21.9 48.8-48.8V73.1c.1-13-5-25.2-14.2-34.5z" fill="#fa012d"/><path d="m541.8 24.4h-468.6c-13 0-25.3 5.1-34.5 14.3s-14.3 21.5-14.3 34.5v335.2c0 13 5.1 25.3 14.3 34.5s21.5 14.3 34.5 14.3h304.4c-7.7-12.7-16.2-27.2-18.9-31.6h-36.3c-.1-90 30.7-140.1 67-149.7 5-.9 2.7-25.7-3.7-33.1 0 0-17.5.5-21.1-.4-4.6-1.4-1.4-6-1.4-6l17-36.8-2.3-10.1-62.9.1c-.9 0 51.9-36.3 51.9-36.3 2.7-95.5 100.5-102.9 159.8-63.5 34.9 23.4 37.7 69.3 35 101.5-.5 1.8-9.2.5-9.2.5s-5.9 34.9 9.7 34.9h68.9c28-.9 55.1 17.9 55.1 17.9l6.9-23.9zm-416.6 363.7c-18.5 0-33.5-15-33.5-33.5s15-33.5 33.5-33.5 33.5 15 33.5 33.5c-.1 18.5-15 33.5-33.5 33.5z" fill="#092668"/></svg>